%TF.GenerationSoftware,KiCad,Pcbnew,7.0.7*%
%TF.CreationDate,2024-02-05T14:32:24+01:00*%
%TF.ProjectId,esp-atx-power,6573702d-6174-4782-9d70-6f7765722e6b,1.0.1*%
%TF.SameCoordinates,PX6695f68PY7b6af88*%
%TF.FileFunction,Drillmap*%
%TF.FilePolarity,Positive*%
%FSLAX45Y45*%
G04 Gerber Fmt 4.5, Leading zero omitted, Abs format (unit mm)*
G04 Created by KiCad (PCBNEW 7.0.7) date 2024-02-05 14:32:24*
%MOMM*%
%LPD*%
G01*
G04 APERTURE LIST*
%ADD10C,0.200000*%
%ADD11C,0.065000*%
%ADD12C,0.270000*%
G04 APERTURE END LIST*
D10*
X4484504Y3980734D02*
G75*
G03*
X4205100Y4260134I-279404J-4D01*
G01*
X4203700Y0D02*
G75*
G03*
X4483100Y279400I0J279400D01*
G01*
X292100Y4260134D02*
X4205100Y4260134D01*
X12700Y279400D02*
G75*
G03*
X292100Y0I279400J0D01*
G01*
X4484500Y3980734D02*
X4483100Y279400D01*
X4203700Y0D02*
X292100Y0D01*
X12700Y279400D02*
X12700Y3980734D01*
X292100Y4260130D02*
G75*
G03*
X12700Y3980734I0J-279400D01*
G01*
D11*
X597700Y2448750D02*
X662700Y2383750D01*
X662700Y2448750D02*
X597700Y2383750D01*
X597700Y1870750D02*
X662700Y1805750D01*
X662700Y1870750D02*
X597700Y1805750D01*
D12*
X4338700Y279400D02*
G75*
G03*
X4338700Y279400I-135000J0D01*
G01*
X4340100Y3987800D02*
G75*
G03*
X4340100Y3987800I-135000J0D01*
G01*
D10*
X263477Y-321484D02*
X263477Y-121484D01*
X263477Y-121484D02*
X311096Y-121484D01*
X311096Y-121484D02*
X339667Y-131008D01*
X339667Y-131008D02*
X358715Y-150055D01*
X358715Y-150055D02*
X368239Y-169103D01*
X368239Y-169103D02*
X377762Y-207198D01*
X377762Y-207198D02*
X377762Y-235769D01*
X377762Y-235769D02*
X368239Y-273865D01*
X368239Y-273865D02*
X358715Y-292912D01*
X358715Y-292912D02*
X339667Y-311960D01*
X339667Y-311960D02*
X311096Y-321484D01*
X311096Y-321484D02*
X263477Y-321484D01*
X463477Y-321484D02*
X463477Y-188150D01*
X463477Y-226246D02*
X473001Y-207198D01*
X473001Y-207198D02*
X482524Y-197674D01*
X482524Y-197674D02*
X501572Y-188150D01*
X501572Y-188150D02*
X520620Y-188150D01*
X587286Y-321484D02*
X587286Y-188150D01*
X587286Y-121484D02*
X577763Y-131008D01*
X577763Y-131008D02*
X587286Y-140531D01*
X587286Y-140531D02*
X596810Y-131008D01*
X596810Y-131008D02*
X587286Y-121484D01*
X587286Y-121484D02*
X587286Y-140531D01*
X711096Y-321484D02*
X692048Y-311960D01*
X692048Y-311960D02*
X682524Y-292912D01*
X682524Y-292912D02*
X682524Y-121484D01*
X815858Y-321484D02*
X796810Y-311960D01*
X796810Y-311960D02*
X787286Y-292912D01*
X787286Y-292912D02*
X787286Y-121484D01*
X1044429Y-321484D02*
X1044429Y-121484D01*
X1044429Y-121484D02*
X1111096Y-264341D01*
X1111096Y-264341D02*
X1177763Y-121484D01*
X1177763Y-121484D02*
X1177763Y-321484D01*
X1358715Y-321484D02*
X1358715Y-216722D01*
X1358715Y-216722D02*
X1349191Y-197674D01*
X1349191Y-197674D02*
X1330144Y-188150D01*
X1330144Y-188150D02*
X1292048Y-188150D01*
X1292048Y-188150D02*
X1273001Y-197674D01*
X1358715Y-311960D02*
X1339667Y-321484D01*
X1339667Y-321484D02*
X1292048Y-321484D01*
X1292048Y-321484D02*
X1273001Y-311960D01*
X1273001Y-311960D02*
X1263477Y-292912D01*
X1263477Y-292912D02*
X1263477Y-273865D01*
X1263477Y-273865D02*
X1273001Y-254817D01*
X1273001Y-254817D02*
X1292048Y-245293D01*
X1292048Y-245293D02*
X1339667Y-245293D01*
X1339667Y-245293D02*
X1358715Y-235769D01*
X1453953Y-188150D02*
X1453953Y-388150D01*
X1453953Y-197674D02*
X1473001Y-188150D01*
X1473001Y-188150D02*
X1511096Y-188150D01*
X1511096Y-188150D02*
X1530143Y-197674D01*
X1530143Y-197674D02*
X1539667Y-207198D01*
X1539667Y-207198D02*
X1549191Y-226246D01*
X1549191Y-226246D02*
X1549191Y-283389D01*
X1549191Y-283389D02*
X1539667Y-302436D01*
X1539667Y-302436D02*
X1530143Y-311960D01*
X1530143Y-311960D02*
X1511096Y-321484D01*
X1511096Y-321484D02*
X1473001Y-321484D01*
X1473001Y-321484D02*
X1453953Y-311960D01*
X1634905Y-302436D02*
X1644429Y-311960D01*
X1644429Y-311960D02*
X1634905Y-321484D01*
X1634905Y-321484D02*
X1625382Y-311960D01*
X1625382Y-311960D02*
X1634905Y-302436D01*
X1634905Y-302436D02*
X1634905Y-321484D01*
X1634905Y-197674D02*
X1644429Y-207198D01*
X1644429Y-207198D02*
X1634905Y-216722D01*
X1634905Y-216722D02*
X1625382Y-207198D01*
X1625382Y-207198D02*
X1634905Y-197674D01*
X1634905Y-197674D02*
X1634905Y-216722D01*
D11*
X-62300Y-617500D02*
X2700Y-682500D01*
X2700Y-617500D02*
X-62300Y-682500D01*
D10*
X301572Y-541484D02*
X320620Y-541484D01*
X320620Y-541484D02*
X339667Y-551008D01*
X339667Y-551008D02*
X349191Y-560531D01*
X349191Y-560531D02*
X358715Y-579579D01*
X358715Y-579579D02*
X368239Y-617674D01*
X368239Y-617674D02*
X368239Y-665293D01*
X368239Y-665293D02*
X358715Y-703388D01*
X358715Y-703388D02*
X349191Y-722436D01*
X349191Y-722436D02*
X339667Y-731960D01*
X339667Y-731960D02*
X320620Y-741484D01*
X320620Y-741484D02*
X301572Y-741484D01*
X301572Y-741484D02*
X282524Y-731960D01*
X282524Y-731960D02*
X273001Y-722436D01*
X273001Y-722436D02*
X263477Y-703388D01*
X263477Y-703388D02*
X253953Y-665293D01*
X253953Y-665293D02*
X253953Y-617674D01*
X253953Y-617674D02*
X263477Y-579579D01*
X263477Y-579579D02*
X273001Y-560531D01*
X273001Y-560531D02*
X282524Y-551008D01*
X282524Y-551008D02*
X301572Y-541484D01*
X453953Y-722436D02*
X463477Y-731960D01*
X463477Y-731960D02*
X453953Y-741484D01*
X453953Y-741484D02*
X444429Y-731960D01*
X444429Y-731960D02*
X453953Y-722436D01*
X453953Y-722436D02*
X453953Y-741484D01*
X634905Y-541484D02*
X596810Y-541484D01*
X596810Y-541484D02*
X577763Y-551008D01*
X577763Y-551008D02*
X568239Y-560531D01*
X568239Y-560531D02*
X549191Y-589103D01*
X549191Y-589103D02*
X539667Y-627198D01*
X539667Y-627198D02*
X539667Y-703388D01*
X539667Y-703388D02*
X549191Y-722436D01*
X549191Y-722436D02*
X558715Y-731960D01*
X558715Y-731960D02*
X577763Y-741484D01*
X577763Y-741484D02*
X615858Y-741484D01*
X615858Y-741484D02*
X634905Y-731960D01*
X634905Y-731960D02*
X644429Y-722436D01*
X644429Y-722436D02*
X653953Y-703388D01*
X653953Y-703388D02*
X653953Y-655770D01*
X653953Y-655770D02*
X644429Y-636722D01*
X644429Y-636722D02*
X634905Y-627198D01*
X634905Y-627198D02*
X615858Y-617674D01*
X615858Y-617674D02*
X577763Y-617674D01*
X577763Y-617674D02*
X558715Y-627198D01*
X558715Y-627198D02*
X549191Y-636722D01*
X549191Y-636722D02*
X539667Y-655770D01*
X834905Y-541484D02*
X739667Y-541484D01*
X739667Y-541484D02*
X730143Y-636722D01*
X730143Y-636722D02*
X739667Y-627198D01*
X739667Y-627198D02*
X758715Y-617674D01*
X758715Y-617674D02*
X806334Y-617674D01*
X806334Y-617674D02*
X825382Y-627198D01*
X825382Y-627198D02*
X834905Y-636722D01*
X834905Y-636722D02*
X844429Y-655770D01*
X844429Y-655770D02*
X844429Y-703388D01*
X844429Y-703388D02*
X834905Y-722436D01*
X834905Y-722436D02*
X825382Y-731960D01*
X825382Y-731960D02*
X806334Y-741484D01*
X806334Y-741484D02*
X758715Y-741484D01*
X758715Y-741484D02*
X739667Y-731960D01*
X739667Y-731960D02*
X730143Y-722436D01*
X968239Y-541484D02*
X987286Y-541484D01*
X987286Y-541484D02*
X1006334Y-551008D01*
X1006334Y-551008D02*
X1015858Y-560531D01*
X1015858Y-560531D02*
X1025382Y-579579D01*
X1025382Y-579579D02*
X1034905Y-617674D01*
X1034905Y-617674D02*
X1034905Y-665293D01*
X1034905Y-665293D02*
X1025382Y-703388D01*
X1025382Y-703388D02*
X1015858Y-722436D01*
X1015858Y-722436D02*
X1006334Y-731960D01*
X1006334Y-731960D02*
X987286Y-741484D01*
X987286Y-741484D02*
X968239Y-741484D01*
X968239Y-741484D02*
X949191Y-731960D01*
X949191Y-731960D02*
X939667Y-722436D01*
X939667Y-722436D02*
X930143Y-703388D01*
X930143Y-703388D02*
X920620Y-665293D01*
X920620Y-665293D02*
X920620Y-617674D01*
X920620Y-617674D02*
X930143Y-579579D01*
X930143Y-579579D02*
X939667Y-560531D01*
X939667Y-560531D02*
X949191Y-551008D01*
X949191Y-551008D02*
X968239Y-541484D01*
X1120620Y-741484D02*
X1120620Y-608150D01*
X1120620Y-627198D02*
X1130144Y-617674D01*
X1130144Y-617674D02*
X1149191Y-608150D01*
X1149191Y-608150D02*
X1177763Y-608150D01*
X1177763Y-608150D02*
X1196810Y-617674D01*
X1196810Y-617674D02*
X1206334Y-636722D01*
X1206334Y-636722D02*
X1206334Y-741484D01*
X1206334Y-636722D02*
X1215858Y-617674D01*
X1215858Y-617674D02*
X1234905Y-608150D01*
X1234905Y-608150D02*
X1263477Y-608150D01*
X1263477Y-608150D02*
X1282525Y-617674D01*
X1282525Y-617674D02*
X1292048Y-636722D01*
X1292048Y-636722D02*
X1292048Y-741484D01*
X1387286Y-741484D02*
X1387286Y-608150D01*
X1387286Y-627198D02*
X1396810Y-617674D01*
X1396810Y-617674D02*
X1415858Y-608150D01*
X1415858Y-608150D02*
X1444429Y-608150D01*
X1444429Y-608150D02*
X1463477Y-617674D01*
X1463477Y-617674D02*
X1473001Y-636722D01*
X1473001Y-636722D02*
X1473001Y-741484D01*
X1473001Y-636722D02*
X1482524Y-617674D01*
X1482524Y-617674D02*
X1501572Y-608150D01*
X1501572Y-608150D02*
X1530143Y-608150D01*
X1530143Y-608150D02*
X1549191Y-617674D01*
X1549191Y-617674D02*
X1558715Y-636722D01*
X1558715Y-636722D02*
X1558715Y-741484D01*
X1949191Y-531960D02*
X1777763Y-789103D01*
X2206334Y-541484D02*
X2225382Y-541484D01*
X2225382Y-541484D02*
X2244429Y-551008D01*
X2244429Y-551008D02*
X2253953Y-560531D01*
X2253953Y-560531D02*
X2263477Y-579579D01*
X2263477Y-579579D02*
X2273001Y-617674D01*
X2273001Y-617674D02*
X2273001Y-665293D01*
X2273001Y-665293D02*
X2263477Y-703388D01*
X2263477Y-703388D02*
X2253953Y-722436D01*
X2253953Y-722436D02*
X2244429Y-731960D01*
X2244429Y-731960D02*
X2225382Y-741484D01*
X2225382Y-741484D02*
X2206334Y-741484D01*
X2206334Y-741484D02*
X2187287Y-731960D01*
X2187287Y-731960D02*
X2177763Y-722436D01*
X2177763Y-722436D02*
X2168239Y-703388D01*
X2168239Y-703388D02*
X2158715Y-665293D01*
X2158715Y-665293D02*
X2158715Y-617674D01*
X2158715Y-617674D02*
X2168239Y-579579D01*
X2168239Y-579579D02*
X2177763Y-560531D01*
X2177763Y-560531D02*
X2187287Y-551008D01*
X2187287Y-551008D02*
X2206334Y-541484D01*
X2358715Y-722436D02*
X2368239Y-731960D01*
X2368239Y-731960D02*
X2358715Y-741484D01*
X2358715Y-741484D02*
X2349191Y-731960D01*
X2349191Y-731960D02*
X2358715Y-722436D01*
X2358715Y-722436D02*
X2358715Y-741484D01*
X2492048Y-541484D02*
X2511096Y-541484D01*
X2511096Y-541484D02*
X2530144Y-551008D01*
X2530144Y-551008D02*
X2539668Y-560531D01*
X2539668Y-560531D02*
X2549191Y-579579D01*
X2549191Y-579579D02*
X2558715Y-617674D01*
X2558715Y-617674D02*
X2558715Y-665293D01*
X2558715Y-665293D02*
X2549191Y-703388D01*
X2549191Y-703388D02*
X2539668Y-722436D01*
X2539668Y-722436D02*
X2530144Y-731960D01*
X2530144Y-731960D02*
X2511096Y-741484D01*
X2511096Y-741484D02*
X2492048Y-741484D01*
X2492048Y-741484D02*
X2473001Y-731960D01*
X2473001Y-731960D02*
X2463477Y-722436D01*
X2463477Y-722436D02*
X2453953Y-703388D01*
X2453953Y-703388D02*
X2444429Y-665293D01*
X2444429Y-665293D02*
X2444429Y-617674D01*
X2444429Y-617674D02*
X2453953Y-579579D01*
X2453953Y-579579D02*
X2463477Y-560531D01*
X2463477Y-560531D02*
X2473001Y-551008D01*
X2473001Y-551008D02*
X2492048Y-541484D01*
X2634906Y-560531D02*
X2644429Y-551008D01*
X2644429Y-551008D02*
X2663477Y-541484D01*
X2663477Y-541484D02*
X2711096Y-541484D01*
X2711096Y-541484D02*
X2730144Y-551008D01*
X2730144Y-551008D02*
X2739668Y-560531D01*
X2739668Y-560531D02*
X2749191Y-579579D01*
X2749191Y-579579D02*
X2749191Y-598627D01*
X2749191Y-598627D02*
X2739668Y-627198D01*
X2739668Y-627198D02*
X2625382Y-741484D01*
X2625382Y-741484D02*
X2749191Y-741484D01*
X2930144Y-541484D02*
X2834906Y-541484D01*
X2834906Y-541484D02*
X2825382Y-636722D01*
X2825382Y-636722D02*
X2834906Y-627198D01*
X2834906Y-627198D02*
X2853953Y-617674D01*
X2853953Y-617674D02*
X2901572Y-617674D01*
X2901572Y-617674D02*
X2920620Y-627198D01*
X2920620Y-627198D02*
X2930144Y-636722D01*
X2930144Y-636722D02*
X2939667Y-655770D01*
X2939667Y-655770D02*
X2939667Y-703388D01*
X2939667Y-703388D02*
X2930144Y-722436D01*
X2930144Y-722436D02*
X2920620Y-731960D01*
X2920620Y-731960D02*
X2901572Y-741484D01*
X2901572Y-741484D02*
X2853953Y-741484D01*
X2853953Y-741484D02*
X2834906Y-731960D01*
X2834906Y-731960D02*
X2825382Y-722436D01*
X3111096Y-541484D02*
X3073001Y-541484D01*
X3073001Y-541484D02*
X3053953Y-551008D01*
X3053953Y-551008D02*
X3044429Y-560531D01*
X3044429Y-560531D02*
X3025382Y-589103D01*
X3025382Y-589103D02*
X3015858Y-627198D01*
X3015858Y-627198D02*
X3015858Y-703388D01*
X3015858Y-703388D02*
X3025382Y-722436D01*
X3025382Y-722436D02*
X3034906Y-731960D01*
X3034906Y-731960D02*
X3053953Y-741484D01*
X3053953Y-741484D02*
X3092048Y-741484D01*
X3092048Y-741484D02*
X3111096Y-731960D01*
X3111096Y-731960D02*
X3120620Y-722436D01*
X3120620Y-722436D02*
X3130144Y-703388D01*
X3130144Y-703388D02*
X3130144Y-655770D01*
X3130144Y-655770D02*
X3120620Y-636722D01*
X3120620Y-636722D02*
X3111096Y-627198D01*
X3111096Y-627198D02*
X3092048Y-617674D01*
X3092048Y-617674D02*
X3053953Y-617674D01*
X3053953Y-617674D02*
X3034906Y-627198D01*
X3034906Y-627198D02*
X3025382Y-636722D01*
X3025382Y-636722D02*
X3015858Y-655770D01*
X3206334Y-541484D02*
X3206334Y-579579D01*
X3282525Y-541484D02*
X3282525Y-579579D01*
X3577763Y-817674D02*
X3568239Y-808150D01*
X3568239Y-808150D02*
X3549191Y-779579D01*
X3549191Y-779579D02*
X3539668Y-760531D01*
X3539668Y-760531D02*
X3530144Y-731960D01*
X3530144Y-731960D02*
X3520620Y-684341D01*
X3520620Y-684341D02*
X3520620Y-646246D01*
X3520620Y-646246D02*
X3530144Y-598627D01*
X3530144Y-598627D02*
X3539668Y-570055D01*
X3539668Y-570055D02*
X3549191Y-551008D01*
X3549191Y-551008D02*
X3568239Y-522436D01*
X3568239Y-522436D02*
X3577763Y-512912D01*
X3644429Y-560531D02*
X3653953Y-551008D01*
X3653953Y-551008D02*
X3673001Y-541484D01*
X3673001Y-541484D02*
X3720620Y-541484D01*
X3720620Y-541484D02*
X3739668Y-551008D01*
X3739668Y-551008D02*
X3749191Y-560531D01*
X3749191Y-560531D02*
X3758715Y-579579D01*
X3758715Y-579579D02*
X3758715Y-598627D01*
X3758715Y-598627D02*
X3749191Y-627198D01*
X3749191Y-627198D02*
X3634906Y-741484D01*
X3634906Y-741484D02*
X3758715Y-741484D01*
X3996810Y-741484D02*
X3996810Y-541484D01*
X4082525Y-741484D02*
X4082525Y-636722D01*
X4082525Y-636722D02*
X4073001Y-617674D01*
X4073001Y-617674D02*
X4053953Y-608150D01*
X4053953Y-608150D02*
X4025382Y-608150D01*
X4025382Y-608150D02*
X4006334Y-617674D01*
X4006334Y-617674D02*
X3996810Y-627198D01*
X4206334Y-741484D02*
X4187287Y-731960D01*
X4187287Y-731960D02*
X4177763Y-722436D01*
X4177763Y-722436D02*
X4168239Y-703388D01*
X4168239Y-703388D02*
X4168239Y-646246D01*
X4168239Y-646246D02*
X4177763Y-627198D01*
X4177763Y-627198D02*
X4187287Y-617674D01*
X4187287Y-617674D02*
X4206334Y-608150D01*
X4206334Y-608150D02*
X4234906Y-608150D01*
X4234906Y-608150D02*
X4253953Y-617674D01*
X4253953Y-617674D02*
X4263477Y-627198D01*
X4263477Y-627198D02*
X4273001Y-646246D01*
X4273001Y-646246D02*
X4273001Y-703388D01*
X4273001Y-703388D02*
X4263477Y-722436D01*
X4263477Y-722436D02*
X4253953Y-731960D01*
X4253953Y-731960D02*
X4234906Y-741484D01*
X4234906Y-741484D02*
X4206334Y-741484D01*
X4387287Y-741484D02*
X4368239Y-731960D01*
X4368239Y-731960D02*
X4358715Y-712912D01*
X4358715Y-712912D02*
X4358715Y-541484D01*
X4539668Y-731960D02*
X4520620Y-741484D01*
X4520620Y-741484D02*
X4482525Y-741484D01*
X4482525Y-741484D02*
X4463477Y-731960D01*
X4463477Y-731960D02*
X4453953Y-712912D01*
X4453953Y-712912D02*
X4453953Y-636722D01*
X4453953Y-636722D02*
X4463477Y-617674D01*
X4463477Y-617674D02*
X4482525Y-608150D01*
X4482525Y-608150D02*
X4520620Y-608150D01*
X4520620Y-608150D02*
X4539668Y-617674D01*
X4539668Y-617674D02*
X4549192Y-636722D01*
X4549192Y-636722D02*
X4549192Y-655770D01*
X4549192Y-655770D02*
X4453953Y-674817D01*
X4625382Y-731960D02*
X4644430Y-741484D01*
X4644430Y-741484D02*
X4682525Y-741484D01*
X4682525Y-741484D02*
X4701573Y-731960D01*
X4701573Y-731960D02*
X4711096Y-712912D01*
X4711096Y-712912D02*
X4711096Y-703388D01*
X4711096Y-703388D02*
X4701573Y-684341D01*
X4701573Y-684341D02*
X4682525Y-674817D01*
X4682525Y-674817D02*
X4653953Y-674817D01*
X4653953Y-674817D02*
X4634906Y-665293D01*
X4634906Y-665293D02*
X4625382Y-646246D01*
X4625382Y-646246D02*
X4625382Y-636722D01*
X4625382Y-636722D02*
X4634906Y-617674D01*
X4634906Y-617674D02*
X4653953Y-608150D01*
X4653953Y-608150D02*
X4682525Y-608150D01*
X4682525Y-608150D02*
X4701573Y-617674D01*
X4777763Y-817674D02*
X4787287Y-808150D01*
X4787287Y-808150D02*
X4806334Y-779579D01*
X4806334Y-779579D02*
X4815858Y-760531D01*
X4815858Y-760531D02*
X4825382Y-731960D01*
X4825382Y-731960D02*
X4834906Y-684341D01*
X4834906Y-684341D02*
X4834906Y-646246D01*
X4834906Y-646246D02*
X4825382Y-598627D01*
X4825382Y-598627D02*
X4815858Y-570055D01*
X4815858Y-570055D02*
X4806334Y-551008D01*
X4806334Y-551008D02*
X4787287Y-522436D01*
X4787287Y-522436D02*
X4777763Y-512912D01*
X5139668Y-817674D02*
X5130144Y-808150D01*
X5130144Y-808150D02*
X5111096Y-779579D01*
X5111096Y-779579D02*
X5101573Y-760531D01*
X5101573Y-760531D02*
X5092049Y-731960D01*
X5092049Y-731960D02*
X5082525Y-684341D01*
X5082525Y-684341D02*
X5082525Y-646246D01*
X5082525Y-646246D02*
X5092049Y-598627D01*
X5092049Y-598627D02*
X5101573Y-570055D01*
X5101573Y-570055D02*
X5111096Y-551008D01*
X5111096Y-551008D02*
X5130144Y-522436D01*
X5130144Y-522436D02*
X5139668Y-512912D01*
X5215858Y-608150D02*
X5215858Y-741484D01*
X5215858Y-627198D02*
X5225382Y-617674D01*
X5225382Y-617674D02*
X5244430Y-608150D01*
X5244430Y-608150D02*
X5273001Y-608150D01*
X5273001Y-608150D02*
X5292049Y-617674D01*
X5292049Y-617674D02*
X5301573Y-636722D01*
X5301573Y-636722D02*
X5301573Y-741484D01*
X5425382Y-741484D02*
X5406334Y-731960D01*
X5406334Y-731960D02*
X5396811Y-722436D01*
X5396811Y-722436D02*
X5387287Y-703388D01*
X5387287Y-703388D02*
X5387287Y-646246D01*
X5387287Y-646246D02*
X5396811Y-627198D01*
X5396811Y-627198D02*
X5406334Y-617674D01*
X5406334Y-617674D02*
X5425382Y-608150D01*
X5425382Y-608150D02*
X5453954Y-608150D01*
X5453954Y-608150D02*
X5473001Y-617674D01*
X5473001Y-617674D02*
X5482525Y-627198D01*
X5482525Y-627198D02*
X5492049Y-646246D01*
X5492049Y-646246D02*
X5492049Y-703388D01*
X5492049Y-703388D02*
X5482525Y-722436D01*
X5482525Y-722436D02*
X5473001Y-731960D01*
X5473001Y-731960D02*
X5453954Y-741484D01*
X5453954Y-741484D02*
X5425382Y-741484D01*
X5549192Y-608150D02*
X5625382Y-608150D01*
X5577763Y-541484D02*
X5577763Y-712912D01*
X5577763Y-712912D02*
X5587287Y-731960D01*
X5587287Y-731960D02*
X5606334Y-741484D01*
X5606334Y-741484D02*
X5625382Y-741484D01*
X5844430Y-608150D02*
X5844430Y-808150D01*
X5844430Y-617674D02*
X5863477Y-608150D01*
X5863477Y-608150D02*
X5901573Y-608150D01*
X5901573Y-608150D02*
X5920620Y-617674D01*
X5920620Y-617674D02*
X5930144Y-627198D01*
X5930144Y-627198D02*
X5939668Y-646246D01*
X5939668Y-646246D02*
X5939668Y-703388D01*
X5939668Y-703388D02*
X5930144Y-722436D01*
X5930144Y-722436D02*
X5920620Y-731960D01*
X5920620Y-731960D02*
X5901573Y-741484D01*
X5901573Y-741484D02*
X5863477Y-741484D01*
X5863477Y-741484D02*
X5844430Y-731960D01*
X6053953Y-741484D02*
X6034906Y-731960D01*
X6034906Y-731960D02*
X6025382Y-712912D01*
X6025382Y-712912D02*
X6025382Y-541484D01*
X6215858Y-741484D02*
X6215858Y-636722D01*
X6215858Y-636722D02*
X6206334Y-617674D01*
X6206334Y-617674D02*
X6187287Y-608150D01*
X6187287Y-608150D02*
X6149192Y-608150D01*
X6149192Y-608150D02*
X6130144Y-617674D01*
X6215858Y-731960D02*
X6196811Y-741484D01*
X6196811Y-741484D02*
X6149192Y-741484D01*
X6149192Y-741484D02*
X6130144Y-731960D01*
X6130144Y-731960D02*
X6120620Y-712912D01*
X6120620Y-712912D02*
X6120620Y-693865D01*
X6120620Y-693865D02*
X6130144Y-674817D01*
X6130144Y-674817D02*
X6149192Y-665293D01*
X6149192Y-665293D02*
X6196811Y-665293D01*
X6196811Y-665293D02*
X6215858Y-655770D01*
X6282525Y-608150D02*
X6358715Y-608150D01*
X6311096Y-541484D02*
X6311096Y-712912D01*
X6311096Y-712912D02*
X6320620Y-731960D01*
X6320620Y-731960D02*
X6339668Y-741484D01*
X6339668Y-741484D02*
X6358715Y-741484D01*
X6501573Y-731960D02*
X6482525Y-741484D01*
X6482525Y-741484D02*
X6444430Y-741484D01*
X6444430Y-741484D02*
X6425382Y-731960D01*
X6425382Y-731960D02*
X6415858Y-712912D01*
X6415858Y-712912D02*
X6415858Y-636722D01*
X6415858Y-636722D02*
X6425382Y-617674D01*
X6425382Y-617674D02*
X6444430Y-608150D01*
X6444430Y-608150D02*
X6482525Y-608150D01*
X6482525Y-608150D02*
X6501573Y-617674D01*
X6501573Y-617674D02*
X6511096Y-636722D01*
X6511096Y-636722D02*
X6511096Y-655770D01*
X6511096Y-655770D02*
X6415858Y-674817D01*
X6682525Y-741484D02*
X6682525Y-541484D01*
X6682525Y-731960D02*
X6663477Y-741484D01*
X6663477Y-741484D02*
X6625382Y-741484D01*
X6625382Y-741484D02*
X6606334Y-731960D01*
X6606334Y-731960D02*
X6596811Y-722436D01*
X6596811Y-722436D02*
X6587287Y-703388D01*
X6587287Y-703388D02*
X6587287Y-646246D01*
X6587287Y-646246D02*
X6596811Y-627198D01*
X6596811Y-627198D02*
X6606334Y-617674D01*
X6606334Y-617674D02*
X6625382Y-608150D01*
X6625382Y-608150D02*
X6663477Y-608150D01*
X6663477Y-608150D02*
X6682525Y-617674D01*
X6758715Y-817674D02*
X6768239Y-808150D01*
X6768239Y-808150D02*
X6787287Y-779579D01*
X6787287Y-779579D02*
X6796811Y-760531D01*
X6796811Y-760531D02*
X6806334Y-731960D01*
X6806334Y-731960D02*
X6815858Y-684341D01*
X6815858Y-684341D02*
X6815858Y-646246D01*
X6815858Y-646246D02*
X6806334Y-598627D01*
X6806334Y-598627D02*
X6796811Y-570055D01*
X6796811Y-570055D02*
X6787287Y-551008D01*
X6787287Y-551008D02*
X6768239Y-522436D01*
X6768239Y-522436D02*
X6758715Y-512912D01*
X2700Y-914000D02*
G75*
G03*
X2700Y-914000I-100000J0D01*
G01*
X253953Y-824531D02*
X263477Y-815008D01*
X263477Y-815008D02*
X282524Y-805484D01*
X282524Y-805484D02*
X330144Y-805484D01*
X330144Y-805484D02*
X349191Y-815008D01*
X349191Y-815008D02*
X358715Y-824531D01*
X358715Y-824531D02*
X368239Y-843579D01*
X368239Y-843579D02*
X368239Y-862627D01*
X368239Y-862627D02*
X358715Y-891198D01*
X358715Y-891198D02*
X244429Y-1005484D01*
X244429Y-1005484D02*
X368239Y-1005484D01*
X453953Y-986436D02*
X463477Y-995960D01*
X463477Y-995960D02*
X453953Y-1005484D01*
X453953Y-1005484D02*
X444429Y-995960D01*
X444429Y-995960D02*
X453953Y-986436D01*
X453953Y-986436D02*
X453953Y-1005484D01*
X530144Y-805484D02*
X663477Y-805484D01*
X663477Y-805484D02*
X577763Y-1005484D01*
X777762Y-805484D02*
X796810Y-805484D01*
X796810Y-805484D02*
X815858Y-815008D01*
X815858Y-815008D02*
X825382Y-824531D01*
X825382Y-824531D02*
X834905Y-843579D01*
X834905Y-843579D02*
X844429Y-881674D01*
X844429Y-881674D02*
X844429Y-929293D01*
X844429Y-929293D02*
X834905Y-967388D01*
X834905Y-967388D02*
X825382Y-986436D01*
X825382Y-986436D02*
X815858Y-995960D01*
X815858Y-995960D02*
X796810Y-1005484D01*
X796810Y-1005484D02*
X777762Y-1005484D01*
X777762Y-1005484D02*
X758715Y-995960D01*
X758715Y-995960D02*
X749191Y-986436D01*
X749191Y-986436D02*
X739667Y-967388D01*
X739667Y-967388D02*
X730143Y-929293D01*
X730143Y-929293D02*
X730143Y-881674D01*
X730143Y-881674D02*
X739667Y-843579D01*
X739667Y-843579D02*
X749191Y-824531D01*
X749191Y-824531D02*
X758715Y-815008D01*
X758715Y-815008D02*
X777762Y-805484D01*
X968239Y-805484D02*
X987286Y-805484D01*
X987286Y-805484D02*
X1006334Y-815008D01*
X1006334Y-815008D02*
X1015858Y-824531D01*
X1015858Y-824531D02*
X1025382Y-843579D01*
X1025382Y-843579D02*
X1034905Y-881674D01*
X1034905Y-881674D02*
X1034905Y-929293D01*
X1034905Y-929293D02*
X1025382Y-967388D01*
X1025382Y-967388D02*
X1015858Y-986436D01*
X1015858Y-986436D02*
X1006334Y-995960D01*
X1006334Y-995960D02*
X987286Y-1005484D01*
X987286Y-1005484D02*
X968239Y-1005484D01*
X968239Y-1005484D02*
X949191Y-995960D01*
X949191Y-995960D02*
X939667Y-986436D01*
X939667Y-986436D02*
X930143Y-967388D01*
X930143Y-967388D02*
X920620Y-929293D01*
X920620Y-929293D02*
X920620Y-881674D01*
X920620Y-881674D02*
X930143Y-843579D01*
X930143Y-843579D02*
X939667Y-824531D01*
X939667Y-824531D02*
X949191Y-815008D01*
X949191Y-815008D02*
X968239Y-805484D01*
X1120620Y-1005484D02*
X1120620Y-872150D01*
X1120620Y-891198D02*
X1130144Y-881674D01*
X1130144Y-881674D02*
X1149191Y-872150D01*
X1149191Y-872150D02*
X1177763Y-872150D01*
X1177763Y-872150D02*
X1196810Y-881674D01*
X1196810Y-881674D02*
X1206334Y-900722D01*
X1206334Y-900722D02*
X1206334Y-1005484D01*
X1206334Y-900722D02*
X1215858Y-881674D01*
X1215858Y-881674D02*
X1234905Y-872150D01*
X1234905Y-872150D02*
X1263477Y-872150D01*
X1263477Y-872150D02*
X1282525Y-881674D01*
X1282525Y-881674D02*
X1292048Y-900722D01*
X1292048Y-900722D02*
X1292048Y-1005484D01*
X1387286Y-1005484D02*
X1387286Y-872150D01*
X1387286Y-891198D02*
X1396810Y-881674D01*
X1396810Y-881674D02*
X1415858Y-872150D01*
X1415858Y-872150D02*
X1444429Y-872150D01*
X1444429Y-872150D02*
X1463477Y-881674D01*
X1463477Y-881674D02*
X1473001Y-900722D01*
X1473001Y-900722D02*
X1473001Y-1005484D01*
X1473001Y-900722D02*
X1482524Y-881674D01*
X1482524Y-881674D02*
X1501572Y-872150D01*
X1501572Y-872150D02*
X1530143Y-872150D01*
X1530143Y-872150D02*
X1549191Y-881674D01*
X1549191Y-881674D02*
X1558715Y-900722D01*
X1558715Y-900722D02*
X1558715Y-1005484D01*
X1949191Y-795960D02*
X1777763Y-1053103D01*
X2206334Y-805484D02*
X2225382Y-805484D01*
X2225382Y-805484D02*
X2244429Y-815008D01*
X2244429Y-815008D02*
X2253953Y-824531D01*
X2253953Y-824531D02*
X2263477Y-843579D01*
X2263477Y-843579D02*
X2273001Y-881674D01*
X2273001Y-881674D02*
X2273001Y-929293D01*
X2273001Y-929293D02*
X2263477Y-967388D01*
X2263477Y-967388D02*
X2253953Y-986436D01*
X2253953Y-986436D02*
X2244429Y-995960D01*
X2244429Y-995960D02*
X2225382Y-1005484D01*
X2225382Y-1005484D02*
X2206334Y-1005484D01*
X2206334Y-1005484D02*
X2187287Y-995960D01*
X2187287Y-995960D02*
X2177763Y-986436D01*
X2177763Y-986436D02*
X2168239Y-967388D01*
X2168239Y-967388D02*
X2158715Y-929293D01*
X2158715Y-929293D02*
X2158715Y-881674D01*
X2158715Y-881674D02*
X2168239Y-843579D01*
X2168239Y-843579D02*
X2177763Y-824531D01*
X2177763Y-824531D02*
X2187287Y-815008D01*
X2187287Y-815008D02*
X2206334Y-805484D01*
X2358715Y-986436D02*
X2368239Y-995960D01*
X2368239Y-995960D02*
X2358715Y-1005484D01*
X2358715Y-1005484D02*
X2349191Y-995960D01*
X2349191Y-995960D02*
X2358715Y-986436D01*
X2358715Y-986436D02*
X2358715Y-1005484D01*
X2558715Y-1005484D02*
X2444429Y-1005484D01*
X2501572Y-1005484D02*
X2501572Y-805484D01*
X2501572Y-805484D02*
X2482525Y-834055D01*
X2482525Y-834055D02*
X2463477Y-853103D01*
X2463477Y-853103D02*
X2444429Y-862627D01*
X2682525Y-805484D02*
X2701572Y-805484D01*
X2701572Y-805484D02*
X2720620Y-815008D01*
X2720620Y-815008D02*
X2730144Y-824531D01*
X2730144Y-824531D02*
X2739668Y-843579D01*
X2739668Y-843579D02*
X2749191Y-881674D01*
X2749191Y-881674D02*
X2749191Y-929293D01*
X2749191Y-929293D02*
X2739668Y-967388D01*
X2739668Y-967388D02*
X2730144Y-986436D01*
X2730144Y-986436D02*
X2720620Y-995960D01*
X2720620Y-995960D02*
X2701572Y-1005484D01*
X2701572Y-1005484D02*
X2682525Y-1005484D01*
X2682525Y-1005484D02*
X2663477Y-995960D01*
X2663477Y-995960D02*
X2653953Y-986436D01*
X2653953Y-986436D02*
X2644429Y-967388D01*
X2644429Y-967388D02*
X2634906Y-929293D01*
X2634906Y-929293D02*
X2634906Y-881674D01*
X2634906Y-881674D02*
X2644429Y-843579D01*
X2644429Y-843579D02*
X2653953Y-824531D01*
X2653953Y-824531D02*
X2663477Y-815008D01*
X2663477Y-815008D02*
X2682525Y-805484D01*
X2920620Y-805484D02*
X2882525Y-805484D01*
X2882525Y-805484D02*
X2863477Y-815008D01*
X2863477Y-815008D02*
X2853953Y-824531D01*
X2853953Y-824531D02*
X2834906Y-853103D01*
X2834906Y-853103D02*
X2825382Y-891198D01*
X2825382Y-891198D02*
X2825382Y-967388D01*
X2825382Y-967388D02*
X2834906Y-986436D01*
X2834906Y-986436D02*
X2844429Y-995960D01*
X2844429Y-995960D02*
X2863477Y-1005484D01*
X2863477Y-1005484D02*
X2901572Y-1005484D01*
X2901572Y-1005484D02*
X2920620Y-995960D01*
X2920620Y-995960D02*
X2930144Y-986436D01*
X2930144Y-986436D02*
X2939667Y-967388D01*
X2939667Y-967388D02*
X2939667Y-919769D01*
X2939667Y-919769D02*
X2930144Y-900722D01*
X2930144Y-900722D02*
X2920620Y-891198D01*
X2920620Y-891198D02*
X2901572Y-881674D01*
X2901572Y-881674D02*
X2863477Y-881674D01*
X2863477Y-881674D02*
X2844429Y-891198D01*
X2844429Y-891198D02*
X2834906Y-900722D01*
X2834906Y-900722D02*
X2825382Y-919769D01*
X3006334Y-805484D02*
X3130144Y-805484D01*
X3130144Y-805484D02*
X3063477Y-881674D01*
X3063477Y-881674D02*
X3092048Y-881674D01*
X3092048Y-881674D02*
X3111096Y-891198D01*
X3111096Y-891198D02*
X3120620Y-900722D01*
X3120620Y-900722D02*
X3130144Y-919769D01*
X3130144Y-919769D02*
X3130144Y-967388D01*
X3130144Y-967388D02*
X3120620Y-986436D01*
X3120620Y-986436D02*
X3111096Y-995960D01*
X3111096Y-995960D02*
X3092048Y-1005484D01*
X3092048Y-1005484D02*
X3034906Y-1005484D01*
X3034906Y-1005484D02*
X3015858Y-995960D01*
X3015858Y-995960D02*
X3006334Y-986436D01*
X3206334Y-805484D02*
X3206334Y-843579D01*
X3282525Y-805484D02*
X3282525Y-843579D01*
X3577763Y-1081674D02*
X3568239Y-1072150D01*
X3568239Y-1072150D02*
X3549191Y-1043579D01*
X3549191Y-1043579D02*
X3539668Y-1024531D01*
X3539668Y-1024531D02*
X3530144Y-995960D01*
X3530144Y-995960D02*
X3520620Y-948341D01*
X3520620Y-948341D02*
X3520620Y-910246D01*
X3520620Y-910246D02*
X3530144Y-862627D01*
X3530144Y-862627D02*
X3539668Y-834055D01*
X3539668Y-834055D02*
X3549191Y-815008D01*
X3549191Y-815008D02*
X3568239Y-786436D01*
X3568239Y-786436D02*
X3577763Y-776912D01*
X3644429Y-824531D02*
X3653953Y-815008D01*
X3653953Y-815008D02*
X3673001Y-805484D01*
X3673001Y-805484D02*
X3720620Y-805484D01*
X3720620Y-805484D02*
X3739668Y-815008D01*
X3739668Y-815008D02*
X3749191Y-824531D01*
X3749191Y-824531D02*
X3758715Y-843579D01*
X3758715Y-843579D02*
X3758715Y-862627D01*
X3758715Y-862627D02*
X3749191Y-891198D01*
X3749191Y-891198D02*
X3634906Y-1005484D01*
X3634906Y-1005484D02*
X3758715Y-1005484D01*
X3996810Y-1005484D02*
X3996810Y-805484D01*
X4082525Y-1005484D02*
X4082525Y-900722D01*
X4082525Y-900722D02*
X4073001Y-881674D01*
X4073001Y-881674D02*
X4053953Y-872150D01*
X4053953Y-872150D02*
X4025382Y-872150D01*
X4025382Y-872150D02*
X4006334Y-881674D01*
X4006334Y-881674D02*
X3996810Y-891198D01*
X4206334Y-1005484D02*
X4187287Y-995960D01*
X4187287Y-995960D02*
X4177763Y-986436D01*
X4177763Y-986436D02*
X4168239Y-967388D01*
X4168239Y-967388D02*
X4168239Y-910246D01*
X4168239Y-910246D02*
X4177763Y-891198D01*
X4177763Y-891198D02*
X4187287Y-881674D01*
X4187287Y-881674D02*
X4206334Y-872150D01*
X4206334Y-872150D02*
X4234906Y-872150D01*
X4234906Y-872150D02*
X4253953Y-881674D01*
X4253953Y-881674D02*
X4263477Y-891198D01*
X4263477Y-891198D02*
X4273001Y-910246D01*
X4273001Y-910246D02*
X4273001Y-967388D01*
X4273001Y-967388D02*
X4263477Y-986436D01*
X4263477Y-986436D02*
X4253953Y-995960D01*
X4253953Y-995960D02*
X4234906Y-1005484D01*
X4234906Y-1005484D02*
X4206334Y-1005484D01*
X4387287Y-1005484D02*
X4368239Y-995960D01*
X4368239Y-995960D02*
X4358715Y-976912D01*
X4358715Y-976912D02*
X4358715Y-805484D01*
X4539668Y-995960D02*
X4520620Y-1005484D01*
X4520620Y-1005484D02*
X4482525Y-1005484D01*
X4482525Y-1005484D02*
X4463477Y-995960D01*
X4463477Y-995960D02*
X4453953Y-976912D01*
X4453953Y-976912D02*
X4453953Y-900722D01*
X4453953Y-900722D02*
X4463477Y-881674D01*
X4463477Y-881674D02*
X4482525Y-872150D01*
X4482525Y-872150D02*
X4520620Y-872150D01*
X4520620Y-872150D02*
X4539668Y-881674D01*
X4539668Y-881674D02*
X4549192Y-900722D01*
X4549192Y-900722D02*
X4549192Y-919769D01*
X4549192Y-919769D02*
X4453953Y-938817D01*
X4625382Y-995960D02*
X4644430Y-1005484D01*
X4644430Y-1005484D02*
X4682525Y-1005484D01*
X4682525Y-1005484D02*
X4701573Y-995960D01*
X4701573Y-995960D02*
X4711096Y-976912D01*
X4711096Y-976912D02*
X4711096Y-967388D01*
X4711096Y-967388D02*
X4701573Y-948341D01*
X4701573Y-948341D02*
X4682525Y-938817D01*
X4682525Y-938817D02*
X4653953Y-938817D01*
X4653953Y-938817D02*
X4634906Y-929293D01*
X4634906Y-929293D02*
X4625382Y-910246D01*
X4625382Y-910246D02*
X4625382Y-900722D01*
X4625382Y-900722D02*
X4634906Y-881674D01*
X4634906Y-881674D02*
X4653953Y-872150D01*
X4653953Y-872150D02*
X4682525Y-872150D01*
X4682525Y-872150D02*
X4701573Y-881674D01*
X4777763Y-1081674D02*
X4787287Y-1072150D01*
X4787287Y-1072150D02*
X4806334Y-1043579D01*
X4806334Y-1043579D02*
X4815858Y-1024531D01*
X4815858Y-1024531D02*
X4825382Y-995960D01*
X4825382Y-995960D02*
X4834906Y-948341D01*
X4834906Y-948341D02*
X4834906Y-910246D01*
X4834906Y-910246D02*
X4825382Y-862627D01*
X4825382Y-862627D02*
X4815858Y-834055D01*
X4815858Y-834055D02*
X4806334Y-815008D01*
X4806334Y-815008D02*
X4787287Y-786436D01*
X4787287Y-786436D02*
X4777763Y-776912D01*
X5139668Y-1081674D02*
X5130144Y-1072150D01*
X5130144Y-1072150D02*
X5111096Y-1043579D01*
X5111096Y-1043579D02*
X5101573Y-1024531D01*
X5101573Y-1024531D02*
X5092049Y-995960D01*
X5092049Y-995960D02*
X5082525Y-948341D01*
X5082525Y-948341D02*
X5082525Y-910246D01*
X5082525Y-910246D02*
X5092049Y-862627D01*
X5092049Y-862627D02*
X5101573Y-834055D01*
X5101573Y-834055D02*
X5111096Y-815008D01*
X5111096Y-815008D02*
X5130144Y-786436D01*
X5130144Y-786436D02*
X5139668Y-776912D01*
X5215858Y-872150D02*
X5215858Y-1005484D01*
X5215858Y-891198D02*
X5225382Y-881674D01*
X5225382Y-881674D02*
X5244430Y-872150D01*
X5244430Y-872150D02*
X5273001Y-872150D01*
X5273001Y-872150D02*
X5292049Y-881674D01*
X5292049Y-881674D02*
X5301573Y-900722D01*
X5301573Y-900722D02*
X5301573Y-1005484D01*
X5425382Y-1005484D02*
X5406334Y-995960D01*
X5406334Y-995960D02*
X5396811Y-986436D01*
X5396811Y-986436D02*
X5387287Y-967388D01*
X5387287Y-967388D02*
X5387287Y-910246D01*
X5387287Y-910246D02*
X5396811Y-891198D01*
X5396811Y-891198D02*
X5406334Y-881674D01*
X5406334Y-881674D02*
X5425382Y-872150D01*
X5425382Y-872150D02*
X5453954Y-872150D01*
X5453954Y-872150D02*
X5473001Y-881674D01*
X5473001Y-881674D02*
X5482525Y-891198D01*
X5482525Y-891198D02*
X5492049Y-910246D01*
X5492049Y-910246D02*
X5492049Y-967388D01*
X5492049Y-967388D02*
X5482525Y-986436D01*
X5482525Y-986436D02*
X5473001Y-995960D01*
X5473001Y-995960D02*
X5453954Y-1005484D01*
X5453954Y-1005484D02*
X5425382Y-1005484D01*
X5549192Y-872150D02*
X5625382Y-872150D01*
X5577763Y-805484D02*
X5577763Y-976912D01*
X5577763Y-976912D02*
X5587287Y-995960D01*
X5587287Y-995960D02*
X5606334Y-1005484D01*
X5606334Y-1005484D02*
X5625382Y-1005484D01*
X5844430Y-872150D02*
X5844430Y-1072150D01*
X5844430Y-881674D02*
X5863477Y-872150D01*
X5863477Y-872150D02*
X5901573Y-872150D01*
X5901573Y-872150D02*
X5920620Y-881674D01*
X5920620Y-881674D02*
X5930144Y-891198D01*
X5930144Y-891198D02*
X5939668Y-910246D01*
X5939668Y-910246D02*
X5939668Y-967388D01*
X5939668Y-967388D02*
X5930144Y-986436D01*
X5930144Y-986436D02*
X5920620Y-995960D01*
X5920620Y-995960D02*
X5901573Y-1005484D01*
X5901573Y-1005484D02*
X5863477Y-1005484D01*
X5863477Y-1005484D02*
X5844430Y-995960D01*
X6053953Y-1005484D02*
X6034906Y-995960D01*
X6034906Y-995960D02*
X6025382Y-976912D01*
X6025382Y-976912D02*
X6025382Y-805484D01*
X6215858Y-1005484D02*
X6215858Y-900722D01*
X6215858Y-900722D02*
X6206334Y-881674D01*
X6206334Y-881674D02*
X6187287Y-872150D01*
X6187287Y-872150D02*
X6149192Y-872150D01*
X6149192Y-872150D02*
X6130144Y-881674D01*
X6215858Y-995960D02*
X6196811Y-1005484D01*
X6196811Y-1005484D02*
X6149192Y-1005484D01*
X6149192Y-1005484D02*
X6130144Y-995960D01*
X6130144Y-995960D02*
X6120620Y-976912D01*
X6120620Y-976912D02*
X6120620Y-957865D01*
X6120620Y-957865D02*
X6130144Y-938817D01*
X6130144Y-938817D02*
X6149192Y-929293D01*
X6149192Y-929293D02*
X6196811Y-929293D01*
X6196811Y-929293D02*
X6215858Y-919769D01*
X6282525Y-872150D02*
X6358715Y-872150D01*
X6311096Y-805484D02*
X6311096Y-976912D01*
X6311096Y-976912D02*
X6320620Y-995960D01*
X6320620Y-995960D02*
X6339668Y-1005484D01*
X6339668Y-1005484D02*
X6358715Y-1005484D01*
X6501573Y-995960D02*
X6482525Y-1005484D01*
X6482525Y-1005484D02*
X6444430Y-1005484D01*
X6444430Y-1005484D02*
X6425382Y-995960D01*
X6425382Y-995960D02*
X6415858Y-976912D01*
X6415858Y-976912D02*
X6415858Y-900722D01*
X6415858Y-900722D02*
X6425382Y-881674D01*
X6425382Y-881674D02*
X6444430Y-872150D01*
X6444430Y-872150D02*
X6482525Y-872150D01*
X6482525Y-872150D02*
X6501573Y-881674D01*
X6501573Y-881674D02*
X6511096Y-900722D01*
X6511096Y-900722D02*
X6511096Y-919769D01*
X6511096Y-919769D02*
X6415858Y-938817D01*
X6682525Y-1005484D02*
X6682525Y-805484D01*
X6682525Y-995960D02*
X6663477Y-1005484D01*
X6663477Y-1005484D02*
X6625382Y-1005484D01*
X6625382Y-1005484D02*
X6606334Y-995960D01*
X6606334Y-995960D02*
X6596811Y-986436D01*
X6596811Y-986436D02*
X6587287Y-967388D01*
X6587287Y-967388D02*
X6587287Y-910246D01*
X6587287Y-910246D02*
X6596811Y-891198D01*
X6596811Y-891198D02*
X6606334Y-881674D01*
X6606334Y-881674D02*
X6625382Y-872150D01*
X6625382Y-872150D02*
X6663477Y-872150D01*
X6663477Y-872150D02*
X6682525Y-881674D01*
X6758715Y-1081674D02*
X6768239Y-1072150D01*
X6768239Y-1072150D02*
X6787287Y-1043579D01*
X6787287Y-1043579D02*
X6796811Y-1024531D01*
X6796811Y-1024531D02*
X6806334Y-995960D01*
X6806334Y-995960D02*
X6815858Y-948341D01*
X6815858Y-948341D02*
X6815858Y-910246D01*
X6815858Y-910246D02*
X6806334Y-862627D01*
X6806334Y-862627D02*
X6796811Y-834055D01*
X6796811Y-834055D02*
X6787287Y-815008D01*
X6787287Y-815008D02*
X6768239Y-786436D01*
X6768239Y-786436D02*
X6758715Y-776912D01*
M02*
