M48
; DRILL file {KiCad 7.0.7} date 2024 February 05, Monday 14:32:25
; FORMAT={-:-/ absolute / metric / decimal}
; #@! TF.CreationDate,2024-02-05T14:32:25+01:00
; #@! TF.GenerationSoftware,Kicad,Pcbnew,7.0.7
; #@! TF.FileFunction,Plated,1,4,PTH
FMAT,2
METRIC
; #@! TA.AperFunction,Plated,PTH,ViaDrill
T1C0.300
; #@! TA.AperFunction,Plated,PTH,ComponentDrill
T2C0.300
; #@! TA.AperFunction,Plated,PTH,ViaDrill
T3C0.400
; #@! TA.AperFunction,Plated,PTH,ComponentDrill
T4C0.600
; #@! TA.AperFunction,Plated,PTH,ViaDrill
T5C0.650
; #@! TA.AperFunction,Plated,PTH,ComponentDrill
T6C1.000
%
G90
G05
T1
X0.889Y27.559
X0.889Y26.289
X0.889Y25.019
X0.889Y23.749
X0.889Y22.479
X0.889Y21.209
X0.889Y19.939
X0.889Y18.669
X0.889Y17.399
X0.889Y16.129
X0.889Y14.859
X1.905Y28.448
X1.905Y13.97
X2.54Y22.479
X2.54Y19.939
X3.175Y28.448
X3.175Y13.97
X4.445Y28.448
X4.445Y26.289
X4.445Y23.749
X4.445Y21.209
X4.445Y18.669
X4.445Y16.129
X4.445Y13.97
X5.715Y28.448
X5.715Y13.97
X6.985Y28.448
X6.985Y13.97
X8.255Y28.448
X8.255Y13.97
X9.017Y26.289
X9.017Y18.542
X9.271Y23.368
X9.525Y28.448
X9.525Y16.129
X9.525Y13.97
X9.539Y21.272
X10.287Y24.384
X10.287Y17.526
X10.795Y28.448
X10.795Y13.97
X12.065Y28.448
X12.065Y13.97
X12.319Y24.13
X12.954Y15.494
X13.335Y28.448
X13.335Y26.289
X13.335Y13.97
X13.603Y14.803
X14.097Y22.288
X14.605Y28.448
X14.605Y21.082
X14.605Y13.97
X15.748Y18.288
X15.748Y17.145
X15.811Y21.272
X15.875Y28.448
X15.875Y13.716
X16.764Y21.844
X16.891Y18.288
X16.891Y17.145
X17.145Y28.448
X17.145Y26.289
X17.145Y23.495
X17.145Y13.716
X17.717Y21.907
X18.415Y41.783
X18.415Y40.259
X18.415Y38.989
X18.415Y37.719
X18.415Y36.449
X18.415Y35.179
X18.415Y33.909
X18.415Y32.639
X18.415Y31.369
X18.415Y30.099
X18.415Y28.829
X18.415Y13.589
X18.415Y12.319
X18.415Y11.049
X18.415Y9.779
X18.415Y8.509
X18.415Y7.239
X18.415Y5.969
X18.415Y4.572
X18.415Y3.429
X18.415Y2.159
X18.415Y0.889
X18.796Y15.367
X19.685Y41.783
X19.685Y27.813
X19.685Y26.289
X19.685Y23.495
X19.685Y21.971
X19.685Y0.889
X19.939Y16.637
X20.511Y38.672
X20.828Y19.431
X20.955Y41.783
X20.955Y0.889
X21.59Y35.56
X21.971Y21.082
X21.971Y19.826
X21.971Y18.669
X22.225Y41.783
X22.225Y28.829
X22.225Y14.605
X22.225Y0.889
X23.114Y17.653
X23.495Y41.783
X23.495Y13.589
X23.495Y0.889
X23.749Y11.049
X23.876Y38.989
X23.876Y36.449
X23.876Y7.62
X23.876Y5.969
X23.876Y3.429
X24.13Y30.861
X24.43Y27.94
X24.43Y26.924
X24.511Y24.003
X24.511Y22.733
X24.511Y21.463
X24.511Y20.32
X24.511Y14.605
X24.511Y12.7
X24.765Y41.783
X24.765Y0.889
X25.146Y17.78
X25.4Y26.924
X25.4Y16.891
X25.527Y16.002
X25.781Y24.003
X25.781Y22.733
X25.781Y21.463
X25.908Y19.177
X26.035Y41.783
X26.035Y36.449
X26.035Y0.889
X26.859Y18.604
X26.924Y31.435
X26.924Y28.575
X27.224Y19.494
X27.305Y41.783
X27.305Y5.969
X27.305Y3.429
X27.305Y0.889
X27.432Y32.131
X27.559Y8.128
X27.686Y14.605
X27.686Y13.779
X27.813Y20.32
X28.067Y15.494
X28.067Y12.954
X28.085Y28.638
X28.194Y8.636
X28.448Y23.558
X28.448Y22.288
X28.575Y41.783
X28.575Y38.989
X28.575Y36.449
X28.575Y0.889
X28.702Y20.32
X28.829Y16.002
X28.829Y12.7
X28.829Y7.62
X29.002Y28.638
X29.464Y17.462
X29.464Y16.637
X29.464Y5.969
X29.464Y3.429
X29.576Y24.713
X29.576Y23.558
X29.576Y22.288
X29.576Y21.133
X29.591Y33.655
X29.591Y20.32
X29.637Y12.445
X29.845Y41.783
X29.845Y0.889
X30.018Y28.638
X30.226Y31.115
X30.48Y18.415
X30.48Y17.462
X30.48Y16.637
X30.48Y12.446
X30.861Y24.713
X30.907Y23.558
X30.907Y22.288
X30.907Y21.133
X31.006Y28.638
X31.115Y41.783
X31.115Y36.449
X31.115Y11.049
X31.115Y0.889
X31.369Y12.446
X31.623Y31.75
X31.781Y23.558
X31.781Y22.288
X32.004Y28.13
X32.258Y12.446
X32.385Y41.783
X32.385Y3.937
X32.385Y0.889
X32.512Y8.317
X32.639Y34.036
X32.766Y22.86
X32.812Y20.256
X32.86Y21.971
X33.147Y12.446
X33.274Y29.21
X33.401Y31.115
X33.447Y18.831
X33.655Y41.783
X33.655Y38.989
X33.655Y36.449
X33.655Y34.036
X33.655Y26.416
X33.655Y16.129
X33.655Y11.049
X33.655Y0.889
X33.782Y27.94
X33.782Y8.128
X33.909Y12.954
X34.29Y19.685
X34.544Y13.589
X34.544Y10.097
X34.671Y24.892
X34.671Y24.003
X34.671Y23.05
X34.671Y16.129
X34.671Y12.319
X34.919Y19.037
X34.925Y41.783
X34.925Y31.75
X34.925Y0.889
X35.052Y29.083
X35.052Y21.209
X35.052Y15.24
X35.052Y14.351
X35.54Y18.378
X35.56Y17.018
X36.161Y17.731
X36.195Y41.783
X36.195Y38.989
X36.195Y36.449
X36.195Y8.509
X36.195Y5.969
X36.195Y3.429
X36.195Y0.889
X36.322Y16.129
X36.322Y14.859
X36.322Y13.589
X36.322Y12.319
X36.322Y11.049
X36.449Y21.209
X36.527Y20.017
X36.576Y31.75
X36.947Y16.998
X37.353Y19.192
X37.465Y41.783
X37.465Y32.639
X37.465Y31.369
X37.465Y30.099
X37.465Y27.559
X37.465Y26.289
X37.465Y25.019
X37.465Y23.749
X37.465Y22.479
X37.465Y21.209
X37.465Y14.859
X37.465Y13.589
X37.465Y12.319
X37.465Y11.049
X37.465Y9.779
X37.465Y0.889
X37.592Y28.829
X37.592Y20.066
X37.719Y16.256
X38.354Y14.859
X38.608Y16.002
X38.735Y41.529
X38.735Y40.259
X38.735Y38.989
X38.735Y37.719
X38.735Y36.449
X38.735Y35.179
X38.735Y33.909
X38.735Y32.639
X38.735Y31.369
X38.735Y30.099
X38.735Y28.829
X38.735Y27.559
X38.735Y26.289
X38.735Y25.019
X38.735Y23.749
X38.735Y22.479
X38.735Y21.209
X38.735Y19.939
X38.735Y18.796
X38.735Y17.653
X38.735Y13.589
X38.735Y12.319
X38.735Y11.049
X38.735Y9.779
X38.735Y8.509
X38.735Y7.239
X38.735Y5.969
X38.735Y4.699
X38.735Y3.429
X38.735Y2.159
X38.735Y0.889
T2
X39.243Y14.708
T3
X20.32Y34.671
X35.773Y27.241
T5
X36.576Y29.21
T6
X5.207Y39.878
X5.207Y37.338
X5.207Y33.274
X5.207Y30.734
X5.269Y11.806
X5.269Y9.266
X5.269Y5.202
X5.269Y2.662
X7.747Y39.878
X7.747Y37.338
X7.747Y33.274
X7.747Y30.734
X7.809Y11.806
X7.809Y9.266
X7.809Y5.202
X7.809Y2.662
T4
X3.022Y25.592G85X2.222Y25.592
G05
X3.022Y16.953G85X2.222Y16.953
G05
X7.372Y25.592G85X6.272Y25.592
G05
X7.372Y16.953G85X6.272Y16.953
G05
T0
M30
