G04 #@! TF.GenerationSoftware,KiCad,Pcbnew,9.0.3*
G04 #@! TF.CreationDate,2025-10-07T22:56:25+02:00*
G04 #@! TF.ProjectId,esp-atx-power,6573702d-6174-4782-9d70-6f7765722e6b,2.0.0*
G04 #@! TF.SameCoordinates,PX6f6d640PY7445a00*
G04 #@! TF.FileFunction,Copper,L3,Inr*
G04 #@! TF.FilePolarity,Positive*
%FSLAX46Y46*%
G04 Gerber Fmt 4.6, Leading zero omitted, Abs format (unit mm)*
G04 Created by KiCad (PCBNEW 9.0.3) date 2025-10-07 22:56:25*
%MOMM*%
%LPD*%
G01*
G04 APERTURE LIST*
G04 #@! TA.AperFunction,HeatsinkPad*
%ADD10O,1.000000X2.100000*%
G04 #@! TD*
G04 #@! TA.AperFunction,HeatsinkPad*
%ADD11O,1.000000X1.800000*%
G04 #@! TD*
G04 #@! TA.AperFunction,HeatsinkPad*
%ADD12C,0.600000*%
G04 #@! TD*
G04 #@! TA.AperFunction,ComponentPad*
%ADD13R,1.700000X1.700000*%
G04 #@! TD*
G04 #@! TA.AperFunction,ComponentPad*
%ADD14C,1.700000*%
G04 #@! TD*
G04 #@! TA.AperFunction,ViaPad*
%ADD15C,0.450000*%
G04 #@! TD*
G04 #@! TA.AperFunction,ViaPad*
%ADD16C,0.600000*%
G04 #@! TD*
G04 #@! TA.AperFunction,Conductor*
%ADD17C,0.300000*%
G04 #@! TD*
G04 APERTURE END LIST*
D10*
G04 #@! TO.N,GND*
G04 #@! TO.C,J105*
X43893200Y17698400D03*
D11*
X43893200Y21898400D03*
D10*
X35253200Y17698400D03*
D11*
X35253200Y21898400D03*
G04 #@! TD*
D12*
G04 #@! TO.N,GND*
G04 #@! TO.C,U101*
X60730400Y10765000D03*
X59630400Y10765000D03*
X61280400Y10215000D03*
X60180400Y10215000D03*
X59080400Y10215000D03*
X60730400Y9665000D03*
X59630400Y9665000D03*
X61280400Y9115000D03*
X60180400Y9115000D03*
X59080400Y9115000D03*
X60730400Y8565000D03*
X59630400Y8565000D03*
G04 #@! TD*
D13*
G04 #@! TO.N,/PWR_SW_P*
G04 #@! TO.C,J102*
X7315200Y18160600D03*
D14*
X7315200Y20700600D03*
G04 #@! TO.N,/PWR_SW_N*
X9855200Y18160600D03*
X9855200Y20700600D03*
G04 #@! TO.N,/RST_SW_P*
X12395200Y18160600D03*
X12395200Y20700600D03*
G04 #@! TO.N,/RST_SW_N*
X14935200Y18160600D03*
X14935200Y20700600D03*
G04 #@! TO.N,/PWR_LED_N*
X17475200Y18160600D03*
X17475200Y20700600D03*
G04 #@! TO.N,/PWR_LED_P*
X20015200Y18160600D03*
X20015200Y20700600D03*
G04 #@! TO.N,/HDD_LED_N*
X22555200Y18160600D03*
X22555200Y20700600D03*
G04 #@! TO.N,/HDD_LED_P*
X25095200Y18160600D03*
X25095200Y20700600D03*
G04 #@! TO.N,+5VA*
X27635200Y18160600D03*
G04 #@! TO.N,GND*
X27635200Y20700600D03*
G04 #@! TD*
D15*
G04 #@! TO.N,/EN*
X35204400Y4572000D03*
X62992000Y18186400D03*
D16*
G04 #@! TO.N,+3V3*
X68376800Y20925000D03*
X44246800Y5583400D03*
X49936400Y21844000D03*
X50800000Y20874200D03*
X29334398Y5583400D03*
X69850000Y3810000D03*
X49885600Y20878800D03*
X57048400Y20624800D03*
D15*
G04 #@! TO.N,GND*
X45161200Y4161000D03*
X22301200Y8733000D03*
X64770000Y3505200D03*
X70561200Y605000D03*
X42113200Y10718800D03*
X70967600Y19401000D03*
X28752800Y14829000D03*
X14630400Y8733000D03*
X52273200Y19909000D03*
X67513200Y11171400D03*
X31394400Y605000D03*
X34544000Y4114800D03*
X42773600Y16154400D03*
X75895200Y13305000D03*
X55372000Y605000D03*
X65938400Y13152600D03*
X29514800Y15895800D03*
X32461200Y18338800D03*
X50952400Y14930600D03*
X65481200Y605000D03*
X38557200Y13254200D03*
X67513200Y14981400D03*
X62636400Y4114800D03*
X64211200Y23058600D03*
X69088000Y16048200D03*
X26720800Y19401000D03*
X70815200Y5537200D03*
X75895200Y18385000D03*
X32004000Y4114800D03*
X74625200Y8885400D03*
X44094400Y13563600D03*
X55930800Y11831800D03*
X34239200Y19807400D03*
X63347600Y20874200D03*
X70561200Y3145000D03*
X14173200Y3860800D03*
X70358000Y17115000D03*
X47752000Y17470600D03*
X73609200Y7869400D03*
X69342000Y1879600D03*
X19761200Y8733000D03*
X63855600Y9296400D03*
X73710800Y17115000D03*
X28803600Y19401000D03*
X74625200Y12441400D03*
X69799200Y20518600D03*
X26771600Y22093400D03*
X37541200Y24481000D03*
X47396400Y9241000D03*
X59283600Y15184600D03*
X62941200Y605000D03*
X29921200Y605000D03*
X7061200Y8733000D03*
X28752800Y17013400D03*
X60045600Y4465800D03*
X54965600Y7666200D03*
X61823600Y20874200D03*
X44907200Y15438600D03*
X60401200Y24481000D03*
X75895200Y15845000D03*
X34036000Y14829000D03*
X38709600Y7666200D03*
X59283600Y7061200D03*
X56997600Y12898600D03*
X24841200Y8733000D03*
X34696400Y9398000D03*
X5283200Y5939000D03*
X7010400Y6650200D03*
X43332400Y15443200D03*
X52222399Y17470600D03*
X54914800Y5583400D03*
X47040800Y11125200D03*
X61772800Y13157200D03*
X35052000Y24481000D03*
X37490400Y4161000D03*
X62941200Y24481000D03*
X29921200Y24481000D03*
X65938400Y5537200D03*
X37490400Y6451600D03*
X42621200Y22855400D03*
X7061200Y1625600D03*
X50241201Y24467714D03*
X67360800Y23058600D03*
X56692800Y7666200D03*
X51358800Y7666200D03*
X56032400Y5334000D03*
X36677600Y12192000D03*
X7061200Y605000D03*
X71884800Y16052800D03*
X17221200Y605000D03*
X35204400Y605000D03*
X60452000Y14427200D03*
X28803600Y22093400D03*
X23520400Y7631189D03*
X43383200Y8733000D03*
X70307200Y10765000D03*
X29921200Y13559000D03*
X8331200Y7615400D03*
X9601200Y6650200D03*
X61722000Y7061200D03*
X31394400Y12289000D03*
X63855600Y7061200D03*
X33070800Y13411200D03*
X56032400Y16251400D03*
X37185600Y15240000D03*
X39674800Y15290800D03*
X73609200Y10765000D03*
X9601200Y605000D03*
X40081200Y22855400D03*
X57759600Y12039600D03*
X53238400Y10765000D03*
X54813200Y20929600D03*
X67513200Y5532600D03*
X44958000Y18994600D03*
X42011600Y13563600D03*
X26670000Y17013400D03*
X54356000Y17826200D03*
X42824400Y9596600D03*
X44348400Y10718800D03*
X47701200Y605000D03*
X65938400Y7061200D03*
X52781200Y605000D03*
X38760400Y19248600D03*
X13411200Y7615400D03*
X22809200Y3860800D03*
X42621205Y24467117D03*
X18440400Y7615400D03*
X33020000Y11023600D03*
X27381200Y605000D03*
X65938400Y16759400D03*
X67513200Y13152600D03*
X57200800Y17419800D03*
X48717200Y11074400D03*
X60452000Y12039600D03*
X53187600Y3098800D03*
X19913600Y3860800D03*
X24841200Y605000D03*
X26111200Y7615400D03*
X60960000Y3403600D03*
X57708800Y9652000D03*
X30581600Y22093400D03*
X30581600Y19401000D03*
X43434000Y6548600D03*
X68021200Y24481000D03*
X63855600Y16759400D03*
X32461200Y16357600D03*
X50241200Y605000D03*
X35458400Y10972800D03*
X53136800Y19350200D03*
X54813200Y10765000D03*
X40081200Y605000D03*
X52781200Y24481000D03*
X68580000Y21996400D03*
X70256400Y7869400D03*
X36474400Y19248600D03*
X47701205Y24467515D03*
X63855600Y11226800D03*
X17068800Y3860800D03*
X58928000Y5583400D03*
X63855600Y5537200D03*
X61671200Y23058600D03*
X40132000Y4161000D03*
X57861200Y24481000D03*
X42621200Y605000D03*
X69240400Y23058600D03*
X5283200Y3856200D03*
X75895200Y10663400D03*
X40894000Y13614400D03*
X46380400Y18994600D03*
X19761200Y605000D03*
X43891200Y14422600D03*
X25704800Y3860800D03*
X73101200Y19401000D03*
X67564000Y16759400D03*
X28752800Y9749000D03*
X59182000Y20574000D03*
X40081200Y24481000D03*
X75082400Y19401000D03*
X61722000Y5537200D03*
X69088000Y12441400D03*
X50952400Y17470600D03*
X73101200Y5685000D03*
X36322000Y14219400D03*
X69138800Y8936200D03*
X45415200Y13660600D03*
X46329600Y14930600D03*
X53492400Y13766800D03*
X63855600Y14981400D03*
X26771600Y23515800D03*
X57759600Y6751800D03*
X28803600Y3200400D03*
X42824400Y19147000D03*
X20980400Y7615400D03*
X58064400Y3352800D03*
X39776400Y8885400D03*
X75895200Y8225000D03*
X42570400Y20823400D03*
X57861200Y605000D03*
X70561200Y24481000D03*
X45161200Y605000D03*
X27381200Y24481000D03*
X55321200Y24481000D03*
X61722000Y16759400D03*
X67614800Y19401000D03*
X34442400Y12039600D03*
X38404800Y15240000D03*
X65481200Y24481000D03*
X29921200Y12289000D03*
X57150000Y4318000D03*
X28752800Y12289000D03*
X67513200Y7056600D03*
X27381200Y8733000D03*
X70307200Y14168600D03*
X12141200Y8733000D03*
X36728400Y9804400D03*
X14681200Y605000D03*
X68021200Y3145000D03*
X53492400Y22656800D03*
X71882000Y12441400D03*
X48869600Y3098800D03*
X32461200Y20675600D03*
X5283200Y7971000D03*
X10871200Y7615400D03*
X17221200Y8733000D03*
X66395600Y23058600D03*
X40081200Y20823400D03*
X37947600Y12035000D03*
X47040800Y16200600D03*
X71882000Y8885400D03*
X73609200Y14168600D03*
X52324000Y23211000D03*
X15951200Y7615400D03*
X32664400Y605000D03*
X37541200Y20823400D03*
X12141200Y605000D03*
X53238400Y5583400D03*
X33782000Y8072600D03*
X51511200Y16149800D03*
X54864000Y15083000D03*
X41046400Y19147000D03*
X65938400Y9296400D03*
X53543200Y16251400D03*
X47752001Y14930600D03*
X28498800Y5943600D03*
X75895200Y5685000D03*
X32461200Y24481000D03*
X46075600Y23211000D03*
X40944800Y14986000D03*
X65938400Y14981400D03*
X50495200Y5634200D03*
X45161209Y24467316D03*
X68021200Y605000D03*
X46380400Y17470600D03*
X5283200Y1621000D03*
X45212000Y8733000D03*
X8432800Y3860800D03*
X50241199Y9241000D03*
X37541200Y605000D03*
X9601200Y8733000D03*
X22301200Y605000D03*
X52222400Y14930600D03*
X37541200Y22855400D03*
X58115200Y14016200D03*
X70561200Y21941000D03*
X60401200Y605000D03*
X35458400Y8178800D03*
X11328400Y3860800D03*
X32461200Y22855400D03*
X53238400Y7666200D03*
G04 #@! TO.N,/TCK*
X60452000Y18186400D03*
X31343600Y4572000D03*
G04 #@! TO.N,/TDO*
X59588400Y18186400D03*
X32664400Y4572000D03*
G04 #@! TO.N,/TMS*
X30124400Y4572000D03*
X62191800Y18186400D03*
G04 #@! TO.N,/TDI*
X61264800Y18186400D03*
X33934400Y4572000D03*
G04 #@! TO.N,/TX*
X56692800Y3149600D03*
X46482000Y4267200D03*
G04 #@! TO.N,/RX*
X55880000Y3149600D03*
X47498000Y3759200D03*
G04 #@! TO.N,/PWR_SW*
X8432800Y2540000D03*
X66395600Y3149600D03*
G04 #@! TO.N,/RST_SW*
X14224000Y2540000D03*
X65582800Y3149600D03*
G04 #@! TO.N,/PWR_LED*
X61925200Y3149600D03*
X19913600Y2641600D03*
G04 #@! TO.N,/HDD_LED*
X54406800Y3149600D03*
X25654000Y2743200D03*
G04 #@! TO.N,/USB_EDN*
X45472400Y10363200D03*
X59232800Y3149600D03*
G04 #@! TO.N,/USB_EDP*
X46272400Y10363200D03*
X60035799Y3352800D03*
G04 #@! TD*
D17*
G04 #@! TO.N,+3V3*
X49936400Y21844000D02*
X49885600Y21793200D01*
X29311600Y8529800D02*
X40640000Y19858200D01*
X53340000Y21945600D02*
X52268600Y20874200D01*
X49881000Y20874200D02*
X49885600Y20878800D01*
X69850000Y3810000D02*
X68376800Y5283200D01*
X29334398Y5583400D02*
X44246800Y5583400D01*
X67356200Y21945600D02*
X57048400Y21945600D01*
X68376800Y5283200D02*
X68376800Y20925000D01*
X49885600Y21793200D02*
X49885600Y20878800D01*
X50800000Y20874200D02*
X49890200Y20874200D01*
X40640000Y19858200D02*
X48006000Y19858200D01*
X57048400Y20624800D02*
X57048400Y21945600D01*
X29334398Y5583400D02*
X29311600Y5606198D01*
X48006000Y19858200D02*
X49022000Y20874200D01*
X49022000Y20874200D02*
X49881000Y20874200D01*
X29311600Y5606198D02*
X29311600Y8529800D01*
X49890200Y20874200D02*
X49885600Y20878800D01*
X68376800Y20925000D02*
X67356200Y21945600D01*
X52268600Y20874200D02*
X50800000Y20874200D01*
X57048400Y21945600D02*
X53340000Y21945600D01*
G04 #@! TD*
G04 #@! TA.AperFunction,Conductor*
G04 #@! TO.N,GND*
G36*
X73764642Y24794576D02*
G01*
X74056230Y24776933D01*
X74068094Y24775493D01*
X74352495Y24723369D01*
X74364093Y24720510D01*
X74640134Y24634489D01*
X74651309Y24630252D01*
X74914979Y24511580D01*
X74925552Y24506030D01*
X74948124Y24492385D01*
X75172988Y24356448D01*
X75182826Y24349657D01*
X75410417Y24171350D01*
X75419366Y24163423D01*
X75623822Y23958967D01*
X75631749Y23950018D01*
X75810056Y23722427D01*
X75816847Y23712589D01*
X75966426Y23465159D01*
X75971982Y23454574D01*
X76090650Y23190911D01*
X76094889Y23179733D01*
X76180908Y22903698D01*
X76183769Y22892091D01*
X76235891Y22607697D01*
X76237332Y22595829D01*
X76254975Y22304244D01*
X76255156Y22298470D01*
X76255157Y22297987D01*
X76255157Y22246217D01*
X76255171Y22246046D01*
X76260620Y2869517D01*
X76260371Y2862479D01*
X76259513Y2850403D01*
X76255145Y2836955D01*
X76255144Y2789361D01*
X76254935Y2785911D01*
X76254933Y2785876D01*
X76237320Y2494781D01*
X76235879Y2482914D01*
X76183759Y2198522D01*
X76180898Y2186914D01*
X76094879Y1910877D01*
X76090640Y1899699D01*
X75971973Y1636037D01*
X75966417Y1625452D01*
X75816837Y1378021D01*
X75810046Y1368183D01*
X75631739Y1140592D01*
X75623812Y1131643D01*
X75419357Y927188D01*
X75410408Y919261D01*
X75182817Y740954D01*
X75172979Y734163D01*
X74925548Y584583D01*
X74914963Y579027D01*
X74651301Y460360D01*
X74640123Y456121D01*
X74364086Y370102D01*
X74352478Y367241D01*
X74068086Y315121D01*
X74056219Y313680D01*
X73764647Y296038D01*
X73758668Y295857D01*
X4925000Y295857D01*
X4866809Y314764D01*
X4830845Y364264D01*
X4826000Y394857D01*
X4826000Y2592727D01*
X8032300Y2592727D01*
X8032300Y2487273D01*
X8059593Y2385413D01*
X8059594Y2385411D01*
X8059594Y2385410D01*
X8096713Y2321119D01*
X8112320Y2294087D01*
X8186887Y2219520D01*
X8278213Y2166793D01*
X8380073Y2139500D01*
X8380075Y2139500D01*
X8485525Y2139500D01*
X8485527Y2139500D01*
X8587387Y2166793D01*
X8678713Y2219520D01*
X8753280Y2294087D01*
X8806007Y2385413D01*
X8833300Y2487273D01*
X8833300Y2592727D01*
X13823500Y2592727D01*
X13823500Y2487273D01*
X13850793Y2385413D01*
X13850794Y2385411D01*
X13850794Y2385410D01*
X13887913Y2321119D01*
X13903520Y2294087D01*
X13978087Y2219520D01*
X14069413Y2166793D01*
X14171273Y2139500D01*
X14171275Y2139500D01*
X14276725Y2139500D01*
X14276727Y2139500D01*
X14378587Y2166793D01*
X14469913Y2219520D01*
X14544480Y2294087D01*
X14597207Y2385413D01*
X14624500Y2487273D01*
X14624500Y2592727D01*
X14597277Y2694327D01*
X19513100Y2694327D01*
X19513100Y2588873D01*
X19540393Y2487013D01*
X19540394Y2487011D01*
X19540394Y2487010D01*
X19577513Y2422719D01*
X19593120Y2395687D01*
X19667687Y2321120D01*
X19759013Y2268393D01*
X19860873Y2241100D01*
X19860875Y2241100D01*
X19966325Y2241100D01*
X19966327Y2241100D01*
X20068187Y2268393D01*
X20159513Y2321120D01*
X20234080Y2395687D01*
X20286807Y2487013D01*
X20314100Y2588873D01*
X20314100Y2694327D01*
X20286877Y2795927D01*
X25253500Y2795927D01*
X25253500Y2690473D01*
X25280793Y2588613D01*
X25280794Y2588611D01*
X25280794Y2588610D01*
X25290084Y2572520D01*
X25333520Y2497287D01*
X25408087Y2422720D01*
X25499413Y2369993D01*
X25601273Y2342700D01*
X25601275Y2342700D01*
X25706725Y2342700D01*
X25706727Y2342700D01*
X25808587Y2369993D01*
X25899913Y2422720D01*
X25974480Y2497287D01*
X26027207Y2588613D01*
X26054500Y2690473D01*
X26054500Y2795927D01*
X26027207Y2897787D01*
X26023799Y2903689D01*
X25974481Y2989111D01*
X25974480Y2989113D01*
X25899913Y3063680D01*
X25883316Y3073262D01*
X25808589Y3116406D01*
X25808588Y3116407D01*
X25808587Y3116407D01*
X25706727Y3143700D01*
X25601273Y3143700D01*
X25499413Y3116407D01*
X25499412Y3116407D01*
X25499410Y3116406D01*
X25499409Y3116406D01*
X25408089Y3063682D01*
X25333518Y2989111D01*
X25280794Y2897791D01*
X25280794Y2897790D01*
X25280793Y2897788D01*
X25280793Y2897787D01*
X25253500Y2795927D01*
X20286877Y2795927D01*
X20286807Y2796187D01*
X20234080Y2887513D01*
X20159513Y2962080D01*
X20112690Y2989113D01*
X20068189Y3014806D01*
X20068188Y3014807D01*
X20068187Y3014807D01*
X19966327Y3042100D01*
X19860873Y3042100D01*
X19759013Y3014807D01*
X19759012Y3014807D01*
X19759010Y3014806D01*
X19759009Y3014806D01*
X19667689Y2962082D01*
X19593118Y2887511D01*
X19540394Y2796191D01*
X19540394Y2796190D01*
X19540393Y2796188D01*
X19540393Y2796187D01*
X19513100Y2694327D01*
X14597277Y2694327D01*
X14597207Y2694587D01*
X14544480Y2785913D01*
X14469913Y2860480D01*
X14454260Y2869517D01*
X14378589Y2913206D01*
X14378588Y2913207D01*
X14378587Y2913207D01*
X14276727Y2940500D01*
X14171273Y2940500D01*
X14069413Y2913207D01*
X14069412Y2913207D01*
X14069410Y2913206D01*
X14069409Y2913206D01*
X13978089Y2860482D01*
X13903518Y2785911D01*
X13850794Y2694591D01*
X13850794Y2694590D01*
X13850793Y2694588D01*
X13850793Y2694587D01*
X13823500Y2592727D01*
X8833300Y2592727D01*
X8806007Y2694587D01*
X8753280Y2785913D01*
X8678713Y2860480D01*
X8663060Y2869517D01*
X8587389Y2913206D01*
X8587388Y2913207D01*
X8587387Y2913207D01*
X8485527Y2940500D01*
X8380073Y2940500D01*
X8278213Y2913207D01*
X8278212Y2913207D01*
X8278210Y2913206D01*
X8278209Y2913206D01*
X8186889Y2860482D01*
X8112318Y2785911D01*
X8059594Y2694591D01*
X8059594Y2694590D01*
X8059593Y2694588D01*
X8059593Y2694587D01*
X8032300Y2592727D01*
X4826000Y2592727D01*
X4826000Y3202327D01*
X54006300Y3202327D01*
X54006300Y3096873D01*
X54028290Y3014806D01*
X54033594Y2995011D01*
X54033594Y2995010D01*
X54086318Y2903690D01*
X54086320Y2903687D01*
X54160887Y2829120D01*
X54252213Y2776393D01*
X54354073Y2749100D01*
X54354075Y2749100D01*
X54459525Y2749100D01*
X54459527Y2749100D01*
X54561387Y2776393D01*
X54652713Y2829120D01*
X54727280Y2903687D01*
X54780007Y2995013D01*
X54807300Y3096873D01*
X54807300Y3202327D01*
X55479500Y3202327D01*
X55479500Y3096873D01*
X55501490Y3014806D01*
X55506794Y2995011D01*
X55506794Y2995010D01*
X55559518Y2903690D01*
X55559520Y2903687D01*
X55634087Y2829120D01*
X55725413Y2776393D01*
X55827273Y2749100D01*
X55827275Y2749100D01*
X55932725Y2749100D01*
X55932727Y2749100D01*
X56034587Y2776393D01*
X56125913Y2829120D01*
X56200480Y2903687D01*
X56200662Y2904004D01*
X56200859Y2904181D01*
X56204429Y2908833D01*
X56205291Y2908172D01*
X56246130Y2944945D01*
X56306980Y2951343D01*
X56359969Y2920753D01*
X56372135Y2904006D01*
X56372320Y2903687D01*
X56446887Y2829120D01*
X56538213Y2776393D01*
X56640073Y2749100D01*
X56640075Y2749100D01*
X56745525Y2749100D01*
X56745527Y2749100D01*
X56847387Y2776393D01*
X56938713Y2829120D01*
X57013280Y2903687D01*
X57066007Y2995013D01*
X57093300Y3096873D01*
X57093300Y3202327D01*
X58832300Y3202327D01*
X58832300Y3096873D01*
X58854290Y3014806D01*
X58859594Y2995011D01*
X58859594Y2995010D01*
X58912318Y2903690D01*
X58912320Y2903687D01*
X58986887Y2829120D01*
X59078213Y2776393D01*
X59180073Y2749100D01*
X59180075Y2749100D01*
X59285525Y2749100D01*
X59285527Y2749100D01*
X59387387Y2776393D01*
X59478713Y2829120D01*
X59553280Y2903687D01*
X59606007Y2995013D01*
X59608368Y3003828D01*
X59641691Y3055141D01*
X59698812Y3077068D01*
X59757913Y3061233D01*
X59773993Y3048213D01*
X59789886Y3032320D01*
X59881212Y2979593D01*
X59983072Y2952300D01*
X59983074Y2952300D01*
X60088524Y2952300D01*
X60088526Y2952300D01*
X60190386Y2979593D01*
X60281712Y3032320D01*
X60356279Y3106887D01*
X60409006Y3198213D01*
X60410108Y3202327D01*
X61524700Y3202327D01*
X61524700Y3096873D01*
X61546690Y3014806D01*
X61551994Y2995011D01*
X61551994Y2995010D01*
X61604718Y2903690D01*
X61604720Y2903687D01*
X61679287Y2829120D01*
X61770613Y2776393D01*
X61872473Y2749100D01*
X61872475Y2749100D01*
X61977925Y2749100D01*
X61977927Y2749100D01*
X62079787Y2776393D01*
X62171113Y2829120D01*
X62245680Y2903687D01*
X62298407Y2995013D01*
X62325700Y3096873D01*
X62325700Y3202327D01*
X65182300Y3202327D01*
X65182300Y3096873D01*
X65204290Y3014806D01*
X65209594Y2995011D01*
X65209594Y2995010D01*
X65262318Y2903690D01*
X65262320Y2903687D01*
X65336887Y2829120D01*
X65428213Y2776393D01*
X65530073Y2749100D01*
X65530075Y2749100D01*
X65635525Y2749100D01*
X65635527Y2749100D01*
X65737387Y2776393D01*
X65828713Y2829120D01*
X65903280Y2903687D01*
X65903462Y2904004D01*
X65903659Y2904181D01*
X65907229Y2908833D01*
X65908091Y2908172D01*
X65948930Y2944945D01*
X66009780Y2951343D01*
X66062769Y2920753D01*
X66074935Y2904006D01*
X66075120Y2903687D01*
X66149687Y2829120D01*
X66241013Y2776393D01*
X66342873Y2749100D01*
X66342875Y2749100D01*
X66448325Y2749100D01*
X66448327Y2749100D01*
X66550187Y2776393D01*
X66641513Y2829120D01*
X66716080Y2903687D01*
X66768807Y2995013D01*
X66789775Y3073266D01*
X72003200Y3073266D01*
X72003200Y2821335D01*
X72042608Y2572520D01*
X72120459Y2332921D01*
X72219011Y2139500D01*
X72234830Y2108455D01*
X72382907Y1904644D01*
X72561044Y1726507D01*
X72764855Y1578430D01*
X72989321Y1464059D01*
X73228915Y1386210D01*
X73228916Y1386210D01*
X73228919Y1386209D01*
X73477735Y1346800D01*
X73477738Y1346800D01*
X73729665Y1346800D01*
X73978480Y1386209D01*
X73978481Y1386210D01*
X73978485Y1386210D01*
X74218079Y1464059D01*
X74442545Y1578430D01*
X74646356Y1726507D01*
X74824493Y1904644D01*
X74972570Y2108455D01*
X75086941Y2332921D01*
X75164790Y2572515D01*
X75167339Y2588610D01*
X75204200Y2821335D01*
X75204200Y3073266D01*
X75164791Y3322081D01*
X75152893Y3358700D01*
X75086941Y3561679D01*
X74972570Y3786145D01*
X74824493Y3989956D01*
X74646356Y4168093D01*
X74442545Y4316170D01*
X74442544Y4316171D01*
X74442542Y4316172D01*
X74218079Y4430541D01*
X73978480Y4508392D01*
X73729665Y4547800D01*
X73729662Y4547800D01*
X73477738Y4547800D01*
X73477735Y4547800D01*
X73228919Y4508392D01*
X72989320Y4430541D01*
X72764857Y4316172D01*
X72561045Y4168094D01*
X72382906Y3989955D01*
X72234828Y3786143D01*
X72120459Y3561680D01*
X72042608Y3322081D01*
X72003200Y3073266D01*
X66789775Y3073266D01*
X66796100Y3096873D01*
X66796100Y3202327D01*
X66768807Y3304187D01*
X66716080Y3395513D01*
X66641513Y3470080D01*
X66635565Y3473514D01*
X66550189Y3522806D01*
X66550188Y3522807D01*
X66550187Y3522807D01*
X66448327Y3550100D01*
X66342873Y3550100D01*
X66241013Y3522807D01*
X66241012Y3522807D01*
X66241010Y3522806D01*
X66241009Y3522806D01*
X66149689Y3470082D01*
X66075119Y3395512D01*
X66074935Y3395192D01*
X66074735Y3395012D01*
X66071171Y3390367D01*
X66070309Y3391028D01*
X66029464Y3354253D01*
X65968613Y3347859D01*
X65915626Y3378454D01*
X65903465Y3395192D01*
X65903281Y3395511D01*
X65903280Y3395513D01*
X65828713Y3470080D01*
X65822765Y3473514D01*
X65737389Y3522806D01*
X65737388Y3522807D01*
X65737387Y3522807D01*
X65635527Y3550100D01*
X65530073Y3550100D01*
X65428213Y3522807D01*
X65428212Y3522807D01*
X65428210Y3522806D01*
X65428209Y3522806D01*
X65336889Y3470082D01*
X65262318Y3395511D01*
X65209594Y3304191D01*
X65209594Y3304190D01*
X65209593Y3304188D01*
X65209593Y3304187D01*
X65182300Y3202327D01*
X62325700Y3202327D01*
X62298407Y3304187D01*
X62245680Y3395513D01*
X62171113Y3470080D01*
X62165165Y3473514D01*
X62079789Y3522806D01*
X62079788Y3522807D01*
X62079787Y3522807D01*
X61977927Y3550100D01*
X61872473Y3550100D01*
X61770613Y3522807D01*
X61770612Y3522807D01*
X61770610Y3522806D01*
X61770609Y3522806D01*
X61679289Y3470082D01*
X61604718Y3395511D01*
X61551994Y3304191D01*
X61551994Y3304190D01*
X61551993Y3304188D01*
X61551993Y3304187D01*
X61524700Y3202327D01*
X60410108Y3202327D01*
X60436299Y3300073D01*
X60436299Y3405527D01*
X60409006Y3507387D01*
X60400103Y3522807D01*
X60356280Y3598711D01*
X60356279Y3598713D01*
X60281712Y3673280D01*
X60224216Y3706475D01*
X60190388Y3726006D01*
X60190387Y3726007D01*
X60190386Y3726007D01*
X60088526Y3753300D01*
X59983072Y3753300D01*
X59881212Y3726007D01*
X59881211Y3726007D01*
X59881209Y3726006D01*
X59881208Y3726006D01*
X59789888Y3673282D01*
X59715317Y3598711D01*
X59662593Y3507391D01*
X59662590Y3507384D01*
X59660228Y3498568D01*
X59626901Y3447255D01*
X59569778Y3425332D01*
X59510678Y3441172D01*
X59494604Y3454189D01*
X59478713Y3470080D01*
X59472765Y3473514D01*
X59387389Y3522806D01*
X59387388Y3522807D01*
X59387387Y3522807D01*
X59285527Y3550100D01*
X59180073Y3550100D01*
X59078213Y3522807D01*
X59078212Y3522807D01*
X59078210Y3522806D01*
X59078209Y3522806D01*
X58986889Y3470082D01*
X58912318Y3395511D01*
X58859594Y3304191D01*
X58859594Y3304190D01*
X58859593Y3304188D01*
X58859593Y3304187D01*
X58832300Y3202327D01*
X57093300Y3202327D01*
X57066007Y3304187D01*
X57013280Y3395513D01*
X56938713Y3470080D01*
X56932765Y3473514D01*
X56847389Y3522806D01*
X56847388Y3522807D01*
X56847387Y3522807D01*
X56745527Y3550100D01*
X56640073Y3550100D01*
X56538213Y3522807D01*
X56538212Y3522807D01*
X56538210Y3522806D01*
X56538209Y3522806D01*
X56446889Y3470082D01*
X56372319Y3395512D01*
X56372135Y3395192D01*
X56371935Y3395012D01*
X56368371Y3390367D01*
X56367509Y3391028D01*
X56326664Y3354253D01*
X56265813Y3347859D01*
X56212826Y3378454D01*
X56200665Y3395192D01*
X56200481Y3395511D01*
X56200480Y3395513D01*
X56125913Y3470080D01*
X56119965Y3473514D01*
X56034589Y3522806D01*
X56034588Y3522807D01*
X56034587Y3522807D01*
X55932727Y3550100D01*
X55827273Y3550100D01*
X55725413Y3522807D01*
X55725412Y3522807D01*
X55725410Y3522806D01*
X55725409Y3522806D01*
X55634089Y3470082D01*
X55559518Y3395511D01*
X55506794Y3304191D01*
X55506794Y3304190D01*
X55506793Y3304188D01*
X55506793Y3304187D01*
X55479500Y3202327D01*
X54807300Y3202327D01*
X54780007Y3304187D01*
X54727280Y3395513D01*
X54652713Y3470080D01*
X54646765Y3473514D01*
X54561389Y3522806D01*
X54561388Y3522807D01*
X54561387Y3522807D01*
X54459527Y3550100D01*
X54354073Y3550100D01*
X54252213Y3522807D01*
X54252212Y3522807D01*
X54252210Y3522806D01*
X54252209Y3522806D01*
X54160889Y3470082D01*
X54086318Y3395511D01*
X54033594Y3304191D01*
X54033594Y3304190D01*
X54033593Y3304188D01*
X54033593Y3304187D01*
X54006300Y3202327D01*
X4826000Y3202327D01*
X4826000Y3811927D01*
X47097500Y3811927D01*
X47097500Y3706473D01*
X47106394Y3673280D01*
X47124794Y3604611D01*
X47124794Y3604610D01*
X47172024Y3522806D01*
X47177520Y3513287D01*
X47252087Y3438720D01*
X47343413Y3385993D01*
X47445273Y3358700D01*
X47445275Y3358700D01*
X47550725Y3358700D01*
X47550727Y3358700D01*
X47652587Y3385993D01*
X47743913Y3438720D01*
X47818480Y3513287D01*
X47871207Y3604613D01*
X47898500Y3706473D01*
X47898500Y3811927D01*
X47871207Y3913787D01*
X47818480Y4005113D01*
X47743913Y4079680D01*
X47686876Y4112610D01*
X47652589Y4132406D01*
X47652588Y4132407D01*
X47652587Y4132407D01*
X47550727Y4159700D01*
X47445273Y4159700D01*
X47343413Y4132407D01*
X47343412Y4132407D01*
X47343410Y4132406D01*
X47343409Y4132406D01*
X47252089Y4079682D01*
X47177518Y4005111D01*
X47124794Y3913791D01*
X47124794Y3913790D01*
X47124793Y3913788D01*
X47124793Y3913787D01*
X47097500Y3811927D01*
X4826000Y3811927D01*
X4826000Y4624727D01*
X29723900Y4624727D01*
X29723900Y4519273D01*
X29750021Y4421787D01*
X29751194Y4417411D01*
X29751194Y4417410D01*
X29775151Y4375916D01*
X29803920Y4326087D01*
X29878487Y4251520D01*
X29969813Y4198793D01*
X30071673Y4171500D01*
X30071675Y4171500D01*
X30177125Y4171500D01*
X30177127Y4171500D01*
X30278987Y4198793D01*
X30370313Y4251520D01*
X30444880Y4326087D01*
X30497607Y4417413D01*
X30524900Y4519273D01*
X30524900Y4624727D01*
X30943100Y4624727D01*
X30943100Y4519273D01*
X30969221Y4421787D01*
X30970394Y4417411D01*
X30970394Y4417410D01*
X30994351Y4375916D01*
X31023120Y4326087D01*
X31097687Y4251520D01*
X31189013Y4198793D01*
X31290873Y4171500D01*
X31290875Y4171500D01*
X31396325Y4171500D01*
X31396327Y4171500D01*
X31498187Y4198793D01*
X31589513Y4251520D01*
X31664080Y4326087D01*
X31716807Y4417413D01*
X31744100Y4519273D01*
X31744100Y4624727D01*
X32263900Y4624727D01*
X32263900Y4519273D01*
X32290021Y4421787D01*
X32291194Y4417411D01*
X32291194Y4417410D01*
X32315151Y4375916D01*
X32343920Y4326087D01*
X32418487Y4251520D01*
X32509813Y4198793D01*
X32611673Y4171500D01*
X32611675Y4171500D01*
X32717125Y4171500D01*
X32717127Y4171500D01*
X32818987Y4198793D01*
X32910313Y4251520D01*
X32984880Y4326087D01*
X33037607Y4417413D01*
X33064900Y4519273D01*
X33064900Y4624727D01*
X33533900Y4624727D01*
X33533900Y4519273D01*
X33560021Y4421787D01*
X33561194Y4417411D01*
X33561194Y4417410D01*
X33585151Y4375916D01*
X33613920Y4326087D01*
X33688487Y4251520D01*
X33779813Y4198793D01*
X33881673Y4171500D01*
X33881675Y4171500D01*
X33987125Y4171500D01*
X33987127Y4171500D01*
X34088987Y4198793D01*
X34180313Y4251520D01*
X34254880Y4326087D01*
X34307607Y4417413D01*
X34334900Y4519273D01*
X34334900Y4624727D01*
X34803900Y4624727D01*
X34803900Y4519273D01*
X34830021Y4421787D01*
X34831194Y4417411D01*
X34831194Y4417410D01*
X34855151Y4375916D01*
X34883920Y4326087D01*
X34958487Y4251520D01*
X35049813Y4198793D01*
X35151673Y4171500D01*
X35151675Y4171500D01*
X35257125Y4171500D01*
X35257127Y4171500D01*
X35358987Y4198793D01*
X35450313Y4251520D01*
X35518720Y4319927D01*
X46081500Y4319927D01*
X46081500Y4214473D01*
X46103490Y4132406D01*
X46108794Y4112611D01*
X46108794Y4112610D01*
X46134441Y4068189D01*
X46161520Y4021287D01*
X46236087Y3946720D01*
X46327413Y3893993D01*
X46429273Y3866700D01*
X46429275Y3866700D01*
X46534725Y3866700D01*
X46534727Y3866700D01*
X46636587Y3893993D01*
X46727913Y3946720D01*
X46802480Y4021287D01*
X46855207Y4112613D01*
X46882500Y4214473D01*
X46882500Y4319927D01*
X46855207Y4421787D01*
X46802480Y4513113D01*
X46727913Y4587680D01*
X46663747Y4624726D01*
X46636589Y4640406D01*
X46636588Y4640407D01*
X46636587Y4640407D01*
X46534727Y4667700D01*
X46429273Y4667700D01*
X46327413Y4640407D01*
X46327412Y4640407D01*
X46327410Y4640406D01*
X46327409Y4640406D01*
X46236089Y4587682D01*
X46161518Y4513111D01*
X46108794Y4421791D01*
X46108794Y4421790D01*
X46108793Y4421788D01*
X46108793Y4421787D01*
X46081500Y4319927D01*
X35518720Y4319927D01*
X35524880Y4326087D01*
X35577607Y4417413D01*
X35604900Y4519273D01*
X35604900Y4624727D01*
X35577607Y4726587D01*
X35524880Y4817913D01*
X35450313Y4892480D01*
X35358987Y4945207D01*
X35257127Y4972500D01*
X35151673Y4972500D01*
X35049813Y4945207D01*
X35049812Y4945207D01*
X35049810Y4945206D01*
X35049809Y4945206D01*
X34958489Y4892482D01*
X34883918Y4817911D01*
X34831194Y4726591D01*
X34831194Y4726590D01*
X34831193Y4726588D01*
X34831193Y4726587D01*
X34803900Y4624727D01*
X34334900Y4624727D01*
X34307607Y4726587D01*
X34254880Y4817913D01*
X34180313Y4892480D01*
X34088987Y4945207D01*
X33987127Y4972500D01*
X33881673Y4972500D01*
X33779813Y4945207D01*
X33779812Y4945207D01*
X33779810Y4945206D01*
X33779809Y4945206D01*
X33688489Y4892482D01*
X33613918Y4817911D01*
X33561194Y4726591D01*
X33561194Y4726590D01*
X33561193Y4726588D01*
X33561193Y4726587D01*
X33533900Y4624727D01*
X33064900Y4624727D01*
X33037607Y4726587D01*
X32984880Y4817913D01*
X32910313Y4892480D01*
X32818987Y4945207D01*
X32717127Y4972500D01*
X32611673Y4972500D01*
X32509813Y4945207D01*
X32509812Y4945207D01*
X32509810Y4945206D01*
X32509809Y4945206D01*
X32418489Y4892482D01*
X32343918Y4817911D01*
X32291194Y4726591D01*
X32291194Y4726590D01*
X32291193Y4726588D01*
X32291193Y4726587D01*
X32263900Y4624727D01*
X31744100Y4624727D01*
X31716807Y4726587D01*
X31664080Y4817913D01*
X31589513Y4892480D01*
X31498187Y4945207D01*
X31396327Y4972500D01*
X31290873Y4972500D01*
X31189013Y4945207D01*
X31189012Y4945207D01*
X31189010Y4945206D01*
X31189009Y4945206D01*
X31097689Y4892482D01*
X31023118Y4817911D01*
X30970394Y4726591D01*
X30970394Y4726590D01*
X30970393Y4726588D01*
X30970393Y4726587D01*
X30943100Y4624727D01*
X30524900Y4624727D01*
X30497607Y4726587D01*
X30444880Y4817913D01*
X30370313Y4892480D01*
X30278987Y4945207D01*
X30177127Y4972500D01*
X30071673Y4972500D01*
X29969813Y4945207D01*
X29969812Y4945207D01*
X29969810Y4945206D01*
X29969809Y4945206D01*
X29878489Y4892482D01*
X29803918Y4817911D01*
X29751194Y4726591D01*
X29751194Y4726590D01*
X29751193Y4726588D01*
X29751193Y4726587D01*
X29723900Y4624727D01*
X4826000Y4624727D01*
X4826000Y5638763D01*
X28913898Y5638763D01*
X28913898Y5528038D01*
X28942554Y5421094D01*
X28942556Y5421090D01*
X28997911Y5325212D01*
X28997913Y5325210D01*
X28997915Y5325207D01*
X29076205Y5246917D01*
X29076207Y5246916D01*
X29076209Y5246914D01*
X29172087Y5191559D01*
X29172091Y5191557D01*
X29279035Y5162901D01*
X29279037Y5162900D01*
X29279038Y5162900D01*
X29389759Y5162900D01*
X29389759Y5162901D01*
X29496705Y5191557D01*
X29592591Y5246917D01*
X29611085Y5265412D01*
X29629579Y5283904D01*
X29684096Y5311681D01*
X29699582Y5312900D01*
X43881616Y5312900D01*
X43939807Y5293993D01*
X43951619Y5283904D01*
X43988605Y5246919D01*
X43988611Y5246914D01*
X44084489Y5191559D01*
X44084493Y5191557D01*
X44191437Y5162901D01*
X44191439Y5162900D01*
X44191440Y5162900D01*
X44302161Y5162900D01*
X44302161Y5162901D01*
X44409107Y5191557D01*
X44504993Y5246917D01*
X44583283Y5325207D01*
X44638643Y5421093D01*
X44667300Y5528040D01*
X44667300Y5638760D01*
X44638643Y5745707D01*
X44638641Y5745711D01*
X44583286Y5841589D01*
X44583284Y5841591D01*
X44583283Y5841593D01*
X44504993Y5919883D01*
X44504990Y5919885D01*
X44504988Y5919887D01*
X44409110Y5975242D01*
X44409106Y5975244D01*
X44302162Y6003900D01*
X44302160Y6003900D01*
X44191440Y6003900D01*
X44191437Y6003900D01*
X44084493Y5975244D01*
X44084489Y5975242D01*
X43988611Y5919887D01*
X43988605Y5919882D01*
X43951619Y5882896D01*
X43897102Y5855119D01*
X43881616Y5853900D01*
X29699582Y5853900D01*
X29691984Y5856369D01*
X29684095Y5855119D01*
X29663439Y5865644D01*
X29641391Y5872807D01*
X29629578Y5882896D01*
X29611096Y5901378D01*
X29583319Y5955895D01*
X29582100Y5971382D01*
X29582100Y8376747D01*
X29601007Y8434938D01*
X29611096Y8446751D01*
X31580272Y10415927D01*
X45071900Y10415927D01*
X45071900Y10310473D01*
X45099193Y10208613D01*
X45099194Y10208611D01*
X45099194Y10208610D01*
X45151918Y10117290D01*
X45151920Y10117287D01*
X45226487Y10042720D01*
X45317813Y9989993D01*
X45419673Y9962700D01*
X45419675Y9962700D01*
X45525125Y9962700D01*
X45525127Y9962700D01*
X45626987Y9989993D01*
X45718313Y10042720D01*
X45792880Y10117287D01*
X45792883Y10117293D01*
X45793855Y10118558D01*
X45794798Y10119207D01*
X45797468Y10121876D01*
X45797962Y10121382D01*
X45844277Y10153217D01*
X45905442Y10151618D01*
X45946930Y10121475D01*
X45947332Y10121876D01*
X45949866Y10119342D01*
X45950945Y10118558D01*
X45951917Y10117291D01*
X45951918Y10117290D01*
X45951920Y10117287D01*
X46026487Y10042720D01*
X46117813Y9989993D01*
X46219673Y9962700D01*
X46219675Y9962700D01*
X46325125Y9962700D01*
X46325127Y9962700D01*
X46426987Y9989993D01*
X46518313Y10042720D01*
X46592880Y10117287D01*
X46645607Y10208613D01*
X46672900Y10310473D01*
X46672900Y10415927D01*
X46645607Y10517787D01*
X46592880Y10609113D01*
X46518313Y10683680D01*
X46426987Y10736407D01*
X46325127Y10763700D01*
X46219673Y10763700D01*
X46117813Y10736407D01*
X46117812Y10736407D01*
X46117810Y10736406D01*
X46117809Y10736406D01*
X46026489Y10683682D01*
X45951917Y10609110D01*
X45950941Y10607837D01*
X45949994Y10607187D01*
X45947332Y10604524D01*
X45946838Y10605018D01*
X45900515Y10573182D01*
X45839351Y10574785D01*
X45797868Y10604925D01*
X45797468Y10604524D01*
X45794941Y10607051D01*
X45793859Y10607837D01*
X45792882Y10609110D01*
X45792881Y10609111D01*
X45792880Y10609113D01*
X45718313Y10683680D01*
X45626987Y10736407D01*
X45525127Y10763700D01*
X45419673Y10763700D01*
X45317813Y10736407D01*
X45317812Y10736407D01*
X45317810Y10736406D01*
X45317809Y10736406D01*
X45226489Y10683682D01*
X45151918Y10609111D01*
X45099194Y10517791D01*
X45099194Y10517790D01*
X45099193Y10517788D01*
X45099193Y10517787D01*
X45071900Y10415927D01*
X31580272Y10415927D01*
X39458511Y18294166D01*
X41887700Y18294166D01*
X41887700Y18142634D01*
X41908498Y18065014D01*
X41926920Y17996261D01*
X42002681Y17865040D01*
X42002683Y17865038D01*
X42002685Y17865035D01*
X42109835Y17757885D01*
X42109837Y17757884D01*
X42109839Y17757882D01*
X42241061Y17682121D01*
X42241059Y17682121D01*
X42241063Y17682120D01*
X42241065Y17682119D01*
X42387434Y17642900D01*
X42387436Y17642900D01*
X42538964Y17642900D01*
X42538966Y17642900D01*
X42685335Y17682119D01*
X42816565Y17757885D01*
X42923715Y17865035D01*
X42923716Y17865038D01*
X42928303Y17869624D01*
X42930019Y17867908D01*
X42971746Y17896608D01*
X43032911Y17895029D01*
X43069902Y17871699D01*
X43093201Y17848400D01*
X43593200Y17848400D01*
X43593200Y17548400D01*
X43093201Y17548400D01*
X43093200Y17548399D01*
X43093200Y17069605D01*
X43123942Y16915051D01*
X43184248Y16769460D01*
X43184252Y16769451D01*
X43271799Y16638431D01*
X43271802Y16638427D01*
X43383226Y16527003D01*
X43383230Y16527000D01*
X43514250Y16439453D01*
X43514259Y16439449D01*
X43659851Y16379143D01*
X43659850Y16379143D01*
X43743199Y16362565D01*
X43743200Y16362565D01*
X43743200Y16888592D01*
X43777404Y16868844D01*
X43853704Y16848400D01*
X43932696Y16848400D01*
X44008996Y16868844D01*
X44043200Y16888592D01*
X44043200Y16362565D01*
X44126548Y16379143D01*
X44272140Y16439449D01*
X44272149Y16439453D01*
X44403169Y16527000D01*
X44403173Y16527003D01*
X44514597Y16638427D01*
X44514600Y16638431D01*
X44602147Y16769451D01*
X44602151Y16769460D01*
X44662457Y16915051D01*
X44693199Y17069605D01*
X44693200Y17069608D01*
X44693200Y17548399D01*
X44693199Y17548400D01*
X44193200Y17548400D01*
X44193200Y17848400D01*
X44693199Y17848400D01*
X44693200Y17848401D01*
X44693200Y18239127D01*
X59187900Y18239127D01*
X59187900Y18133673D01*
X59215193Y18031813D01*
X59215194Y18031811D01*
X59215194Y18031810D01*
X59267918Y17940490D01*
X59267920Y17940487D01*
X59342487Y17865920D01*
X59433813Y17813193D01*
X59535673Y17785900D01*
X59535675Y17785900D01*
X59641125Y17785900D01*
X59641127Y17785900D01*
X59742987Y17813193D01*
X59834313Y17865920D01*
X59908880Y17940487D01*
X59934465Y17984803D01*
X59979933Y18025741D01*
X60040783Y18032137D01*
X60093771Y18001544D01*
X60105931Y17984808D01*
X60131520Y17940487D01*
X60206087Y17865920D01*
X60297413Y17813193D01*
X60399273Y17785900D01*
X60399275Y17785900D01*
X60504725Y17785900D01*
X60504727Y17785900D01*
X60606587Y17813193D01*
X60697913Y17865920D01*
X60772480Y17940487D01*
X60772662Y17940804D01*
X60772859Y17940981D01*
X60776429Y17945633D01*
X60777291Y17944972D01*
X60818130Y17981745D01*
X60878980Y17988143D01*
X60931969Y17957553D01*
X60944135Y17940806D01*
X60944320Y17940487D01*
X61018887Y17865920D01*
X61110213Y17813193D01*
X61212073Y17785900D01*
X61212075Y17785900D01*
X61317525Y17785900D01*
X61317527Y17785900D01*
X61419387Y17813193D01*
X61510713Y17865920D01*
X61585280Y17940487D01*
X61625095Y18009450D01*
X61641252Y18037433D01*
X61643127Y18036351D01*
X61676567Y18075509D01*
X61736061Y18089796D01*
X61792591Y18066385D01*
X61814134Y18036733D01*
X61815348Y18037433D01*
X61871318Y17940490D01*
X61871320Y17940487D01*
X61945887Y17865920D01*
X62037213Y17813193D01*
X62139073Y17785900D01*
X62139075Y17785900D01*
X62244525Y17785900D01*
X62244527Y17785900D01*
X62346387Y17813193D01*
X62437713Y17865920D01*
X62512280Y17940487D01*
X62512283Y17940494D01*
X62513356Y17941890D01*
X62514398Y17942607D01*
X62516868Y17945076D01*
X62517325Y17944619D01*
X62563780Y17976547D01*
X62624944Y17974947D01*
X62666564Y17944709D01*
X62666932Y17945076D01*
X62669251Y17942757D01*
X62670444Y17941890D01*
X62671518Y17940490D01*
X62671520Y17940487D01*
X62746087Y17865920D01*
X62837413Y17813193D01*
X62939273Y17785900D01*
X62939275Y17785900D01*
X63044725Y17785900D01*
X63044727Y17785900D01*
X63146587Y17813193D01*
X63237913Y17865920D01*
X63312480Y17940487D01*
X63365207Y18031813D01*
X63392500Y18133673D01*
X63392500Y18239127D01*
X63365207Y18340987D01*
X63312480Y18432313D01*
X63237913Y18506880D01*
X63201408Y18527956D01*
X63146589Y18559606D01*
X63146588Y18559607D01*
X63146587Y18559607D01*
X63044727Y18586900D01*
X62939273Y18586900D01*
X62837413Y18559607D01*
X62837412Y18559607D01*
X62837410Y18559606D01*
X62837409Y18559606D01*
X62746089Y18506882D01*
X62671514Y18432307D01*
X62670439Y18430905D01*
X62669396Y18430189D01*
X62666932Y18427724D01*
X62666475Y18428181D01*
X62620013Y18396252D01*
X62558849Y18397856D01*
X62517234Y18428091D01*
X62516868Y18427724D01*
X62514553Y18430039D01*
X62513361Y18430905D01*
X62512285Y18432307D01*
X62512281Y18432311D01*
X62512280Y18432313D01*
X62437713Y18506880D01*
X62401208Y18527956D01*
X62346389Y18559606D01*
X62346388Y18559607D01*
X62346387Y18559607D01*
X62244527Y18586900D01*
X62139073Y18586900D01*
X62037213Y18559607D01*
X62037212Y18559607D01*
X62037210Y18559606D01*
X62037209Y18559606D01*
X61945889Y18506882D01*
X61871318Y18432311D01*
X61815348Y18335367D01*
X61813474Y18336449D01*
X61780023Y18297286D01*
X61720528Y18283006D01*
X61664001Y18306423D01*
X61642463Y18336067D01*
X61641252Y18335367D01*
X61587869Y18427828D01*
X61585280Y18432313D01*
X61510713Y18506880D01*
X61474208Y18527956D01*
X61419389Y18559606D01*
X61419388Y18559607D01*
X61419387Y18559607D01*
X61317527Y18586900D01*
X61212073Y18586900D01*
X61110213Y18559607D01*
X61110212Y18559607D01*
X61110210Y18559606D01*
X61110209Y18559606D01*
X61018889Y18506882D01*
X60944319Y18432312D01*
X60944135Y18431992D01*
X60943935Y18431812D01*
X60940371Y18427167D01*
X60939509Y18427828D01*
X60898664Y18391053D01*
X60837813Y18384659D01*
X60784826Y18415254D01*
X60772665Y18431992D01*
X60772481Y18432311D01*
X60772480Y18432313D01*
X60697913Y18506880D01*
X60661408Y18527956D01*
X60606589Y18559606D01*
X60606588Y18559607D01*
X60606587Y18559607D01*
X60504727Y18586900D01*
X60399273Y18586900D01*
X60297413Y18559607D01*
X60297412Y18559607D01*
X60297410Y18559606D01*
X60297409Y18559606D01*
X60206089Y18506882D01*
X60131518Y18432311D01*
X60105936Y18388001D01*
X60060466Y18347060D01*
X59999616Y18340664D01*
X59946628Y18371257D01*
X59934464Y18388001D01*
X59911469Y18427828D01*
X59908880Y18432313D01*
X59834313Y18506880D01*
X59797808Y18527956D01*
X59742989Y18559606D01*
X59742988Y18559607D01*
X59742987Y18559607D01*
X59641127Y18586900D01*
X59535673Y18586900D01*
X59433813Y18559607D01*
X59433812Y18559607D01*
X59433810Y18559606D01*
X59433809Y18559606D01*
X59342489Y18506882D01*
X59267918Y18432311D01*
X59215194Y18340991D01*
X59215194Y18340990D01*
X59215193Y18340988D01*
X59215193Y18340987D01*
X59187900Y18239127D01*
X44693200Y18239127D01*
X44693200Y18327193D01*
X44693199Y18327196D01*
X44662457Y18481750D01*
X44602151Y18627341D01*
X44602147Y18627350D01*
X44514600Y18758370D01*
X44514597Y18758374D01*
X44403173Y18869798D01*
X44403169Y18869801D01*
X44272149Y18957348D01*
X44272140Y18957352D01*
X44126554Y19017656D01*
X44126550Y19017657D01*
X44043200Y19034237D01*
X44043200Y18508209D01*
X44008996Y18527956D01*
X43932696Y18548400D01*
X43853704Y18548400D01*
X43777404Y18527956D01*
X43743200Y18508209D01*
X43743200Y19034237D01*
X43659849Y19017657D01*
X43659845Y19017656D01*
X43514259Y18957352D01*
X43514250Y18957348D01*
X43383230Y18869801D01*
X43383226Y18869798D01*
X43271802Y18758374D01*
X43271799Y18758370D01*
X43184252Y18627350D01*
X43184248Y18627341D01*
X43138834Y18517702D01*
X43099097Y18471176D01*
X43039602Y18456893D01*
X42983074Y18480308D01*
X42961634Y18506087D01*
X42923715Y18571765D01*
X42816565Y18678915D01*
X42816562Y18678917D01*
X42816560Y18678919D01*
X42685338Y18754680D01*
X42685340Y18754680D01*
X42628547Y18769897D01*
X42538966Y18793900D01*
X42387434Y18793900D01*
X42297852Y18769897D01*
X42241060Y18754680D01*
X42109839Y18678919D01*
X42002681Y18571761D01*
X41926920Y18440540D01*
X41913660Y18391053D01*
X41887700Y18294166D01*
X39458511Y18294166D01*
X40723049Y19558704D01*
X40777566Y19586481D01*
X40793053Y19587700D01*
X48059805Y19587700D01*
X48059806Y19587700D01*
X48118044Y19611824D01*
X48159226Y19628881D01*
X49098924Y20568580D01*
X49153439Y20596355D01*
X49213871Y20586784D01*
X49257136Y20543519D01*
X49265728Y20519321D01*
X49266869Y20513994D01*
X49270054Y20507607D01*
X49294737Y20458104D01*
X49340492Y20405300D01*
X49399981Y20367069D01*
X49467020Y20347384D01*
X49502378Y20342300D01*
X51183996Y20342300D01*
X51184001Y20342300D01*
X51210679Y20345168D01*
X51262190Y20356374D01*
X51317697Y20384159D01*
X51370501Y20429914D01*
X51408732Y20489403D01*
X51408733Y20489406D01*
X51421415Y20532593D01*
X51455951Y20583099D01*
X51513578Y20603660D01*
X51516404Y20603700D01*
X52322405Y20603700D01*
X52322406Y20603700D01*
X52381761Y20628286D01*
X52381762Y20628286D01*
X52405231Y20638008D01*
X52421826Y20644881D01*
X53423049Y21646104D01*
X53477566Y21673881D01*
X53493053Y21675100D01*
X56678900Y21675100D01*
X56737091Y21656193D01*
X56773055Y21606693D01*
X56777900Y21576100D01*
X56777900Y20989984D01*
X56758993Y20931793D01*
X56748904Y20919981D01*
X56711918Y20882995D01*
X56711913Y20882989D01*
X56656558Y20787111D01*
X56656556Y20787107D01*
X56627900Y20680163D01*
X56627900Y20569438D01*
X56656556Y20462494D01*
X56656558Y20462490D01*
X56711913Y20366612D01*
X56711915Y20366610D01*
X56711917Y20366607D01*
X56790207Y20288317D01*
X56790209Y20288316D01*
X56790211Y20288314D01*
X56886089Y20232959D01*
X56886093Y20232957D01*
X56993037Y20204301D01*
X56993039Y20204300D01*
X56993040Y20204300D01*
X57103761Y20204300D01*
X57103761Y20204301D01*
X57210707Y20232957D01*
X57306593Y20288317D01*
X57384883Y20366607D01*
X57440243Y20462493D01*
X57468900Y20569440D01*
X57468900Y20680160D01*
X57440243Y20787107D01*
X57438889Y20789453D01*
X57384886Y20882989D01*
X57384881Y20882995D01*
X57347896Y20919981D01*
X57320119Y20974498D01*
X57318900Y20989984D01*
X57318900Y21576100D01*
X57337807Y21634291D01*
X57387307Y21670255D01*
X57417900Y21675100D01*
X67203147Y21675100D01*
X67261338Y21656193D01*
X67273151Y21646104D01*
X67927304Y20991951D01*
X67955081Y20937434D01*
X67956300Y20921947D01*
X67956300Y20869638D01*
X67984956Y20762694D01*
X67984958Y20762690D01*
X68040313Y20666812D01*
X68040315Y20666810D01*
X68040317Y20666807D01*
X68077305Y20629819D01*
X68105081Y20575304D01*
X68106300Y20559817D01*
X68106300Y5229395D01*
X68121973Y5191557D01*
X68121973Y5191556D01*
X68147479Y5129977D01*
X68147480Y5129976D01*
X68147481Y5129974D01*
X69400505Y3876950D01*
X69428281Y3822435D01*
X69429500Y3806948D01*
X69429500Y3754638D01*
X69458156Y3647694D01*
X69458158Y3647690D01*
X69513513Y3551812D01*
X69513515Y3551810D01*
X69513517Y3551807D01*
X69591807Y3473517D01*
X69591809Y3473516D01*
X69591811Y3473514D01*
X69687689Y3418159D01*
X69687693Y3418157D01*
X69794637Y3389501D01*
X69794639Y3389500D01*
X69794640Y3389500D01*
X69905361Y3389500D01*
X69905361Y3389501D01*
X70012307Y3418157D01*
X70102240Y3470080D01*
X70108188Y3473514D01*
X70108188Y3473515D01*
X70108193Y3473517D01*
X70186483Y3551807D01*
X70241843Y3647693D01*
X70270500Y3754640D01*
X70270500Y3865360D01*
X70241843Y3972307D01*
X70231654Y3989955D01*
X70186486Y4068189D01*
X70186484Y4068191D01*
X70186483Y4068193D01*
X70108193Y4146483D01*
X70108190Y4146485D01*
X70108188Y4146487D01*
X70012310Y4201842D01*
X70012306Y4201844D01*
X69905362Y4230500D01*
X69905360Y4230500D01*
X69853053Y4230500D01*
X69794862Y4249407D01*
X69783049Y4259496D01*
X68676296Y5366249D01*
X68648519Y5420766D01*
X68647300Y5436253D01*
X68647300Y20559817D01*
X68666207Y20618008D01*
X68676290Y20629815D01*
X68713283Y20666807D01*
X68768643Y20762693D01*
X68797300Y20869640D01*
X68797300Y20980360D01*
X68768643Y21087307D01*
X68750085Y21119451D01*
X68713286Y21183189D01*
X68713284Y21183191D01*
X68713283Y21183193D01*
X68634993Y21261483D01*
X68634990Y21261485D01*
X68634988Y21261487D01*
X68539110Y21316842D01*
X68539106Y21316844D01*
X68432162Y21345500D01*
X68432160Y21345500D01*
X68379853Y21345500D01*
X68321662Y21364407D01*
X68309849Y21374496D01*
X67917995Y21766350D01*
X67509426Y22174919D01*
X67468244Y22191977D01*
X67464763Y22193419D01*
X67464757Y22193422D01*
X67410006Y22216100D01*
X57102206Y22216100D01*
X53286194Y22216100D01*
X53286193Y22216100D01*
X53227955Y22191977D01*
X53227954Y22191978D01*
X53186777Y22174921D01*
X53186773Y22174918D01*
X52185551Y21173696D01*
X52131034Y21145919D01*
X52115547Y21144700D01*
X51532501Y21144700D01*
X51474310Y21163607D01*
X51438346Y21213107D01*
X51433501Y21243700D01*
X51433501Y22243879D01*
X72003213Y22243879D01*
X72003213Y21991948D01*
X72042621Y21743133D01*
X72120472Y21503534D01*
X72215595Y21316843D01*
X72234843Y21279068D01*
X72382920Y21075257D01*
X72561057Y20897120D01*
X72764868Y20749043D01*
X72989334Y20634672D01*
X73228928Y20556823D01*
X73228929Y20556823D01*
X73228932Y20556822D01*
X73477748Y20517413D01*
X73477751Y20517413D01*
X73729678Y20517413D01*
X73978493Y20556822D01*
X73978494Y20556823D01*
X73978498Y20556823D01*
X74218092Y20634672D01*
X74442558Y20749043D01*
X74646369Y20897120D01*
X74824506Y21075257D01*
X74972583Y21279068D01*
X75086954Y21503534D01*
X75164803Y21743128D01*
X75204213Y21991951D01*
X75204213Y22243875D01*
X75204213Y22243879D01*
X75164804Y22492694D01*
X75164803Y22492698D01*
X75086954Y22732292D01*
X74972583Y22956758D01*
X74824506Y23160569D01*
X74646369Y23338706D01*
X74442558Y23486783D01*
X74442557Y23486784D01*
X74442555Y23486785D01*
X74218092Y23601154D01*
X73978493Y23679005D01*
X73729678Y23718413D01*
X73729675Y23718413D01*
X73477751Y23718413D01*
X73477748Y23718413D01*
X73228932Y23679005D01*
X72989333Y23601154D01*
X72764870Y23486785D01*
X72561058Y23338707D01*
X72382919Y23160568D01*
X72234841Y22956756D01*
X72120472Y22732293D01*
X72042621Y22492694D01*
X72003213Y22243879D01*
X51433501Y22243879D01*
X51433501Y22274059D01*
X51433501Y22274064D01*
X51430634Y22300737D01*
X51419432Y22352240D01*
X51406941Y22377196D01*
X51391652Y22407744D01*
X51345902Y22460550D01*
X51345901Y22460551D01*
X51345900Y22460552D01*
X51286416Y22498787D01*
X51286412Y22498789D01*
X51286413Y22498789D01*
X51219386Y22518476D01*
X51219368Y22518479D01*
X51184018Y22523565D01*
X51184026Y22523565D01*
X49513288Y22523691D01*
X49512911Y22523691D01*
X49512910Y22523691D01*
X49512908Y22523691D01*
X49512899Y22523691D01*
X49486615Y22520907D01*
X49486596Y22520904D01*
X49435802Y22510022D01*
X49435796Y22510020D01*
X49380497Y22482663D01*
X49327410Y22437241D01*
X49327408Y22437239D01*
X49288807Y22377993D01*
X49268704Y22311082D01*
X49268702Y22311076D01*
X49263397Y22275753D01*
X49256943Y21243081D01*
X49237672Y21185010D01*
X49187949Y21149356D01*
X49157945Y21144700D01*
X48968193Y21144700D01*
X48909955Y21120577D01*
X48909954Y21120578D01*
X48868777Y21103521D01*
X48868773Y21103518D01*
X47922951Y20157696D01*
X47868434Y20129919D01*
X47852947Y20128700D01*
X40586194Y20128700D01*
X40559515Y20117649D01*
X40559514Y20117649D01*
X40486776Y20087521D01*
X29082281Y8683026D01*
X29082279Y8683023D01*
X29065222Y8641846D01*
X29065223Y8641845D01*
X29041100Y8583607D01*
X29041100Y5925786D01*
X29022193Y5867595D01*
X29012105Y5855784D01*
X28997916Y5841595D01*
X28997911Y5841589D01*
X28942556Y5745711D01*
X28942554Y5745707D01*
X28913898Y5638763D01*
X4826000Y5638763D01*
X4826000Y9146600D01*
X4844907Y9204791D01*
X4894407Y9240755D01*
X4925000Y9245600D01*
X28397199Y9245600D01*
X28397200Y9245600D01*
X28397200Y16459200D01*
X28397199Y16459200D01*
X26311800Y16459200D01*
X26253609Y16478107D01*
X26217645Y16527607D01*
X26212800Y16558200D01*
X26212800Y18256189D01*
X26664700Y18256189D01*
X26664700Y18065012D01*
X26688447Y17945633D01*
X26698512Y17895029D01*
X26701996Y17877517D01*
X26701996Y17877515D01*
X26775152Y17700899D01*
X26877048Y17548399D01*
X26881363Y17541942D01*
X27016542Y17406763D01*
X27175496Y17300554D01*
X27175497Y17300554D01*
X27175498Y17300553D01*
X27215509Y17283980D01*
X27352116Y17227396D01*
X27539614Y17190100D01*
X27539615Y17190100D01*
X27730785Y17190100D01*
X27730786Y17190100D01*
X27918284Y17227396D01*
X28094904Y17300554D01*
X28253858Y17406763D01*
X28389037Y17541942D01*
X28495246Y17700896D01*
X28568404Y17877516D01*
X28605700Y18065014D01*
X28605700Y18256186D01*
X28591575Y18327196D01*
X34453200Y18327196D01*
X34453200Y17848401D01*
X34453201Y17848400D01*
X34953200Y17848400D01*
X34953200Y17548400D01*
X34453201Y17548400D01*
X34453200Y17548399D01*
X34453200Y17069605D01*
X34483942Y16915051D01*
X34544248Y16769460D01*
X34544252Y16769451D01*
X34631799Y16638431D01*
X34631802Y16638427D01*
X34743226Y16527003D01*
X34743230Y16527000D01*
X34874250Y16439453D01*
X34874259Y16439449D01*
X35019851Y16379143D01*
X35019850Y16379143D01*
X35103199Y16362565D01*
X35103200Y16362565D01*
X35103200Y16888592D01*
X35137404Y16868844D01*
X35213704Y16848400D01*
X35292696Y16848400D01*
X35368996Y16868844D01*
X35403200Y16888592D01*
X35403200Y16362565D01*
X35486548Y16379143D01*
X35632140Y16439449D01*
X35632149Y16439453D01*
X35763169Y16527000D01*
X35763173Y16527003D01*
X35874597Y16638427D01*
X35874600Y16638431D01*
X35962147Y16769451D01*
X35962151Y16769460D01*
X36022457Y16915051D01*
X36053199Y17069605D01*
X36053200Y17069608D01*
X36053200Y17548399D01*
X36053199Y17548400D01*
X35553200Y17548400D01*
X35553200Y17848400D01*
X36053199Y17848400D01*
X36076497Y17871698D01*
X36131013Y17899476D01*
X36191445Y17889905D01*
X36217067Y17868595D01*
X36218097Y17869624D01*
X36222683Y17865038D01*
X36222685Y17865035D01*
X36329835Y17757885D01*
X36329837Y17757884D01*
X36329839Y17757882D01*
X36461061Y17682121D01*
X36461059Y17682121D01*
X36461063Y17682120D01*
X36461065Y17682119D01*
X36607434Y17642900D01*
X36607436Y17642900D01*
X36758964Y17642900D01*
X36758966Y17642900D01*
X36905335Y17682119D01*
X36905337Y17682121D01*
X36905339Y17682121D01*
X37036560Y17757882D01*
X37036560Y17757883D01*
X37036565Y17757885D01*
X37143715Y17865035D01*
X37145770Y17868595D01*
X37219479Y17996261D01*
X37219479Y17996263D01*
X37219481Y17996265D01*
X37258700Y18142634D01*
X37258700Y18294166D01*
X37219481Y18440535D01*
X37219479Y18440538D01*
X37219479Y18440540D01*
X37143718Y18571761D01*
X37143716Y18571763D01*
X37143715Y18571765D01*
X37036565Y18678915D01*
X37036562Y18678917D01*
X37036560Y18678919D01*
X36905338Y18754680D01*
X36905340Y18754680D01*
X36848547Y18769897D01*
X36758966Y18793900D01*
X36607434Y18793900D01*
X36517852Y18769897D01*
X36461060Y18754680D01*
X36329839Y18678919D01*
X36222683Y18571763D01*
X36184765Y18506087D01*
X36139295Y18465147D01*
X36078445Y18458752D01*
X36025457Y18489345D01*
X36007565Y18517703D01*
X35962153Y18627338D01*
X35962147Y18627350D01*
X35874600Y18758370D01*
X35874597Y18758374D01*
X35763173Y18869798D01*
X35763169Y18869801D01*
X35632149Y18957348D01*
X35632140Y18957352D01*
X35486554Y19017656D01*
X35486550Y19017657D01*
X35403200Y19034237D01*
X35403200Y18508209D01*
X35368996Y18527956D01*
X35292696Y18548400D01*
X35213704Y18548400D01*
X35137404Y18527956D01*
X35103200Y18508209D01*
X35103200Y19034237D01*
X35019849Y19017657D01*
X35019845Y19017656D01*
X34874259Y18957352D01*
X34874250Y18957348D01*
X34743230Y18869801D01*
X34743226Y18869798D01*
X34631802Y18758374D01*
X34631799Y18758370D01*
X34544252Y18627350D01*
X34544248Y18627341D01*
X34483942Y18481750D01*
X34453200Y18327196D01*
X28591575Y18327196D01*
X28568404Y18443684D01*
X28495246Y18620304D01*
X28389037Y18779258D01*
X28253858Y18914437D01*
X28094904Y19020646D01*
X28094903Y19020647D01*
X28094901Y19020648D01*
X27918284Y19093804D01*
X27730788Y19131100D01*
X27730786Y19131100D01*
X27539614Y19131100D01*
X27539611Y19131100D01*
X27352116Y19093804D01*
X27352114Y19093804D01*
X27175498Y19020648D01*
X27016545Y18914440D01*
X26881360Y18779255D01*
X26775152Y18620302D01*
X26701996Y18443686D01*
X26701996Y18443684D01*
X26664700Y18256189D01*
X26212800Y18256189D01*
X26212800Y20791111D01*
X26485200Y20791111D01*
X26485200Y20610090D01*
X26513516Y20431311D01*
X26569450Y20259160D01*
X26651630Y20097872D01*
X26722624Y20000158D01*
X27191528Y20469064D01*
X27235101Y20393593D01*
X27328193Y20300501D01*
X27403660Y20256930D01*
X26934756Y19788026D01*
X26934756Y19788025D01*
X27032463Y19717036D01*
X27032469Y19717032D01*
X27193759Y19634851D01*
X27365910Y19578917D01*
X27544690Y19550600D01*
X27725710Y19550600D01*
X27904489Y19578917D01*
X28076640Y19634851D01*
X28237930Y19717032D01*
X28237935Y19717036D01*
X28335642Y19788025D01*
X28335642Y19788026D01*
X27866738Y20256930D01*
X27942207Y20300501D01*
X28035299Y20393593D01*
X28078870Y20469062D01*
X28547774Y20000158D01*
X28547775Y20000158D01*
X28618764Y20097865D01*
X28618768Y20097870D01*
X28700949Y20259160D01*
X28756883Y20431311D01*
X28785200Y20610090D01*
X28785200Y20791111D01*
X28756883Y20969890D01*
X28700949Y21142041D01*
X28618768Y21303331D01*
X28618764Y21303337D01*
X28547775Y21401044D01*
X28547774Y21401044D01*
X28078870Y20932140D01*
X28035299Y21007607D01*
X27942207Y21100699D01*
X27866736Y21144272D01*
X28335642Y21613176D01*
X28237928Y21684170D01*
X28204510Y21701197D01*
X28076640Y21766350D01*
X27904489Y21822284D01*
X27725710Y21850600D01*
X27544690Y21850600D01*
X27365910Y21822284D01*
X27193759Y21766350D01*
X27032469Y21684169D01*
X27032465Y21684167D01*
X26934756Y21613177D01*
X27403661Y21144272D01*
X27328193Y21100699D01*
X27235101Y21007607D01*
X27191528Y20932139D01*
X26722623Y21401044D01*
X26651633Y21303335D01*
X26651631Y21303331D01*
X26569450Y21142041D01*
X26513516Y20969890D01*
X26485200Y20791111D01*
X26212800Y20791111D01*
X26212800Y22377196D01*
X34453200Y22377196D01*
X34453200Y22048401D01*
X34453201Y22048400D01*
X34953200Y22048400D01*
X34953200Y21748400D01*
X34453201Y21748400D01*
X34453200Y21748399D01*
X34453200Y21419605D01*
X34483942Y21265051D01*
X34544248Y21119460D01*
X34544252Y21119451D01*
X34631799Y20988431D01*
X34631802Y20988427D01*
X34743226Y20877003D01*
X34743230Y20877000D01*
X34874250Y20789453D01*
X34874259Y20789449D01*
X35019851Y20729143D01*
X35019850Y20729143D01*
X35103199Y20712565D01*
X35103200Y20712565D01*
X35103200Y21238592D01*
X35137404Y21218844D01*
X35213704Y21198400D01*
X35292696Y21198400D01*
X35368996Y21218844D01*
X35403200Y21238592D01*
X35403200Y20712565D01*
X35486548Y20729143D01*
X35632140Y20789449D01*
X35632149Y20789453D01*
X35763169Y20877000D01*
X35763173Y20877003D01*
X35874597Y20988427D01*
X35874600Y20988431D01*
X35962147Y21119451D01*
X35962151Y21119460D01*
X36022457Y21265051D01*
X36053199Y21419605D01*
X36053200Y21419608D01*
X36053200Y21748399D01*
X36053199Y21748400D01*
X35553200Y21748400D01*
X35553200Y22048400D01*
X36053199Y22048400D01*
X36053200Y22048401D01*
X36053200Y22377193D01*
X36053199Y22377196D01*
X43093200Y22377196D01*
X43093200Y22048401D01*
X43093201Y22048400D01*
X43593200Y22048400D01*
X43593200Y21748400D01*
X43093201Y21748400D01*
X43093200Y21748399D01*
X43093200Y21419605D01*
X43123942Y21265051D01*
X43184248Y21119460D01*
X43184252Y21119451D01*
X43271799Y20988431D01*
X43271802Y20988427D01*
X43383226Y20877003D01*
X43383230Y20877000D01*
X43514250Y20789453D01*
X43514259Y20789449D01*
X43659851Y20729143D01*
X43659850Y20729143D01*
X43743199Y20712565D01*
X43743200Y20712565D01*
X43743200Y21238592D01*
X43777404Y21218844D01*
X43853704Y21198400D01*
X43932696Y21198400D01*
X44008996Y21218844D01*
X44043200Y21238592D01*
X44043200Y20712565D01*
X44126548Y20729143D01*
X44272140Y20789449D01*
X44272149Y20789453D01*
X44403169Y20877000D01*
X44403173Y20877003D01*
X44514597Y20988427D01*
X44514600Y20988431D01*
X44602147Y21119451D01*
X44602151Y21119460D01*
X44662457Y21265051D01*
X44693199Y21419605D01*
X44693200Y21419608D01*
X44693200Y21748399D01*
X44693199Y21748400D01*
X44193200Y21748400D01*
X44193200Y22048400D01*
X44693199Y22048400D01*
X44693200Y22048401D01*
X44693200Y22377193D01*
X44693199Y22377196D01*
X44662457Y22531750D01*
X44602151Y22677341D01*
X44602147Y22677350D01*
X44514600Y22808370D01*
X44514597Y22808374D01*
X44403173Y22919798D01*
X44403169Y22919801D01*
X44272149Y23007348D01*
X44272140Y23007352D01*
X44126554Y23067656D01*
X44126550Y23067657D01*
X44043200Y23084237D01*
X44043200Y22558209D01*
X44008996Y22577956D01*
X43932696Y22598400D01*
X43853704Y22598400D01*
X43777404Y22577956D01*
X43743200Y22558209D01*
X43743200Y23084237D01*
X43659849Y23067657D01*
X43659845Y23067656D01*
X43514259Y23007352D01*
X43514250Y23007348D01*
X43383230Y22919801D01*
X43383226Y22919798D01*
X43271802Y22808374D01*
X43271799Y22808370D01*
X43184252Y22677350D01*
X43184248Y22677341D01*
X43123942Y22531750D01*
X43093200Y22377196D01*
X36053199Y22377196D01*
X36022457Y22531750D01*
X35962151Y22677341D01*
X35962147Y22677350D01*
X35874600Y22808370D01*
X35874597Y22808374D01*
X35763173Y22919798D01*
X35763169Y22919801D01*
X35632149Y23007348D01*
X35632140Y23007352D01*
X35486554Y23067656D01*
X35486550Y23067657D01*
X35403200Y23084237D01*
X35403200Y22558209D01*
X35368996Y22577956D01*
X35292696Y22598400D01*
X35213704Y22598400D01*
X35137404Y22577956D01*
X35103200Y22558209D01*
X35103200Y23084237D01*
X35019849Y23067657D01*
X35019845Y23067656D01*
X34874259Y23007352D01*
X34874250Y23007348D01*
X34743230Y22919801D01*
X34743226Y22919798D01*
X34631802Y22808374D01*
X34631799Y22808370D01*
X34544252Y22677350D01*
X34544248Y22677341D01*
X34483942Y22531750D01*
X34453200Y22377196D01*
X26212800Y22377196D01*
X26212800Y24695720D01*
X26231707Y24753911D01*
X26281207Y24789875D01*
X26311793Y24794719D01*
X73758663Y24794757D01*
X73764642Y24794576D01*
G37*
G04 #@! TD.AperFunction*
G04 #@! TD*
G04 #@! TA.AperFunction,Conductor*
G04 #@! TO.N,+3V3*
G36*
X51184011Y22398064D02*
G01*
X51251048Y22378374D01*
X51296799Y22325567D01*
X51308001Y22274064D01*
X51308001Y20591800D01*
X51288316Y20524761D01*
X51235512Y20479006D01*
X51184001Y20467800D01*
X49502378Y20467800D01*
X49435339Y20487485D01*
X49389584Y20540289D01*
X49378380Y20592575D01*
X49378793Y20658657D01*
X49388896Y22274969D01*
X49409000Y22341881D01*
X49462089Y22387305D01*
X49512901Y22398191D01*
X51184011Y22398064D01*
G37*
G04 #@! TD.AperFunction*
G04 #@! TD*
M02*
