G04 #@! TF.GenerationSoftware,KiCad,Pcbnew,9.0.3*
G04 #@! TF.CreationDate,2025-09-10T23:17:50+02:00*
G04 #@! TF.ProjectId,esp-atx-power,6573702d-6174-4782-9d70-6f7765722e6b,2.0.0*
G04 #@! TF.SameCoordinates,PX6f6d640PY7445a00*
G04 #@! TF.FileFunction,Copper,L1,Top*
G04 #@! TF.FilePolarity,Positive*
%FSLAX46Y46*%
G04 Gerber Fmt 4.6, Leading zero omitted, Abs format (unit mm)*
G04 Created by KiCad (PCBNEW 9.0.3) date 2025-09-10 23:17:50*
%MOMM*%
%LPD*%
G01*
G04 APERTURE LIST*
G04 Aperture macros list*
%AMRoundRect*
0 Rectangle with rounded corners*
0 $1 Rounding radius*
0 $2 $3 $4 $5 $6 $7 $8 $9 X,Y pos of 4 corners*
0 Add a 4 corners polygon primitive as box body*
4,1,4,$2,$3,$4,$5,$6,$7,$8,$9,$2,$3,0*
0 Add four circle primitives for the rounded corners*
1,1,$1+$1,$2,$3*
1,1,$1+$1,$4,$5*
1,1,$1+$1,$6,$7*
1,1,$1+$1,$8,$9*
0 Add four rect primitives between the rounded corners*
20,1,$1+$1,$2,$3,$4,$5,0*
20,1,$1+$1,$4,$5,$6,$7,0*
20,1,$1+$1,$6,$7,$8,$9,0*
20,1,$1+$1,$8,$9,$2,$3,0*%
G04 Aperture macros list end*
G04 #@! TA.AperFunction,SMDPad,CuDef*
%ADD10RoundRect,0.200000X0.200000X0.275000X-0.200000X0.275000X-0.200000X-0.275000X0.200000X-0.275000X0*%
G04 #@! TD*
G04 #@! TA.AperFunction,SMDPad,CuDef*
%ADD11RoundRect,0.135000X-0.185000X0.135000X-0.185000X-0.135000X0.185000X-0.135000X0.185000X0.135000X0*%
G04 #@! TD*
G04 #@! TA.AperFunction,SMDPad,CuDef*
%ADD12RoundRect,0.050000X-0.100000X0.285000X-0.100000X-0.285000X0.100000X-0.285000X0.100000X0.285000X0*%
G04 #@! TD*
G04 #@! TA.AperFunction,SMDPad,CuDef*
%ADD13RoundRect,0.375000X0.375000X-0.625000X0.375000X0.625000X-0.375000X0.625000X-0.375000X-0.625000X0*%
G04 #@! TD*
G04 #@! TA.AperFunction,SMDPad,CuDef*
%ADD14RoundRect,0.500000X1.400000X-0.500000X1.400000X0.500000X-1.400000X0.500000X-1.400000X-0.500000X0*%
G04 #@! TD*
G04 #@! TA.AperFunction,SMDPad,CuDef*
%ADD15R,1.000000X0.750000*%
G04 #@! TD*
G04 #@! TA.AperFunction,SMDPad,CuDef*
%ADD16RoundRect,0.135000X-0.135000X-0.185000X0.135000X-0.185000X0.135000X0.185000X-0.135000X0.185000X0*%
G04 #@! TD*
G04 #@! TA.AperFunction,SMDPad,CuDef*
%ADD17RoundRect,0.250000X-0.300000X-0.300000X0.300000X-0.300000X0.300000X0.300000X-0.300000X0.300000X0*%
G04 #@! TD*
G04 #@! TA.AperFunction,SMDPad,CuDef*
%ADD18RoundRect,0.140000X-0.170000X0.140000X-0.170000X-0.140000X0.170000X-0.140000X0.170000X0.140000X0*%
G04 #@! TD*
G04 #@! TA.AperFunction,SMDPad,CuDef*
%ADD19RoundRect,0.140000X0.170000X-0.140000X0.170000X0.140000X-0.170000X0.140000X-0.170000X-0.140000X0*%
G04 #@! TD*
G04 #@! TA.AperFunction,SMDPad,CuDef*
%ADD20RoundRect,0.075000X0.075000X0.175000X-0.075000X0.175000X-0.075000X-0.175000X0.075000X-0.175000X0*%
G04 #@! TD*
G04 #@! TA.AperFunction,SMDPad,CuDef*
%ADD21RoundRect,0.250000X-0.550000X1.300000X-0.550000X-1.300000X0.550000X-1.300000X0.550000X1.300000X0*%
G04 #@! TD*
G04 #@! TA.AperFunction,SMDPad,CuDef*
%ADD22RoundRect,0.218750X-0.256250X0.218750X-0.256250X-0.218750X0.256250X-0.218750X0.256250X0.218750X0*%
G04 #@! TD*
G04 #@! TA.AperFunction,SMDPad,CuDef*
%ADD23RoundRect,0.200000X-0.275000X0.200000X-0.275000X-0.200000X0.275000X-0.200000X0.275000X0.200000X0*%
G04 #@! TD*
G04 #@! TA.AperFunction,SMDPad,CuDef*
%ADD24RoundRect,0.135000X0.135000X0.185000X-0.135000X0.185000X-0.135000X-0.185000X0.135000X-0.185000X0*%
G04 #@! TD*
G04 #@! TA.AperFunction,SMDPad,CuDef*
%ADD25RoundRect,0.218750X-0.218750X-0.256250X0.218750X-0.256250X0.218750X0.256250X-0.218750X0.256250X0*%
G04 #@! TD*
G04 #@! TA.AperFunction,SMDPad,CuDef*
%ADD26RoundRect,0.243750X-0.456250X0.243750X-0.456250X-0.243750X0.456250X-0.243750X0.456250X0.243750X0*%
G04 #@! TD*
G04 #@! TA.AperFunction,SMDPad,CuDef*
%ADD27RoundRect,0.250000X0.300000X-0.300000X0.300000X0.300000X-0.300000X0.300000X-0.300000X-0.300000X0*%
G04 #@! TD*
G04 #@! TA.AperFunction,SMDPad,CuDef*
%ADD28RoundRect,0.250000X0.550000X-1.300000X0.550000X1.300000X-0.550000X1.300000X-0.550000X-1.300000X0*%
G04 #@! TD*
G04 #@! TA.AperFunction,SMDPad,CuDef*
%ADD29RoundRect,0.200000X-0.200000X-0.600000X0.200000X-0.600000X0.200000X0.600000X-0.200000X0.600000X0*%
G04 #@! TD*
G04 #@! TA.AperFunction,SMDPad,CuDef*
%ADD30RoundRect,0.250001X-0.799999X-1.249999X0.799999X-1.249999X0.799999X1.249999X-0.799999X1.249999X0*%
G04 #@! TD*
G04 #@! TA.AperFunction,SMDPad,CuDef*
%ADD31R,0.600000X1.240000*%
G04 #@! TD*
G04 #@! TA.AperFunction,SMDPad,CuDef*
%ADD32R,0.300000X1.240000*%
G04 #@! TD*
G04 #@! TA.AperFunction,HeatsinkPad*
%ADD33O,1.000000X2.100000*%
G04 #@! TD*
G04 #@! TA.AperFunction,HeatsinkPad*
%ADD34O,1.000000X1.800000*%
G04 #@! TD*
G04 #@! TA.AperFunction,SMDPad,CuDef*
%ADD35RoundRect,0.250000X0.457500X0.445000X-0.457500X0.445000X-0.457500X-0.445000X0.457500X-0.445000X0*%
G04 #@! TD*
G04 #@! TA.AperFunction,SMDPad,CuDef*
%ADD36RoundRect,0.075000X-0.075000X-0.175000X0.075000X-0.175000X0.075000X0.175000X-0.075000X0.175000X0*%
G04 #@! TD*
G04 #@! TA.AperFunction,SMDPad,CuDef*
%ADD37RoundRect,0.140000X-0.140000X-0.170000X0.140000X-0.170000X0.140000X0.170000X-0.140000X0.170000X0*%
G04 #@! TD*
G04 #@! TA.AperFunction,SMDPad,CuDef*
%ADD38R,0.900000X1.500000*%
G04 #@! TD*
G04 #@! TA.AperFunction,HeatsinkPad*
%ADD39C,0.600000*%
G04 #@! TD*
G04 #@! TA.AperFunction,HeatsinkPad*
%ADD40R,2.900000X2.900000*%
G04 #@! TD*
G04 #@! TA.AperFunction,SMDPad,CuDef*
%ADD41R,0.740000X2.400000*%
G04 #@! TD*
G04 #@! TA.AperFunction,SMDPad,CuDef*
%ADD42RoundRect,0.225000X0.225000X0.250000X-0.225000X0.250000X-0.225000X-0.250000X0.225000X-0.250000X0*%
G04 #@! TD*
G04 #@! TA.AperFunction,SMDPad,CuDef*
%ADD43RoundRect,0.135000X0.185000X-0.135000X0.185000X0.135000X-0.185000X0.135000X-0.185000X-0.135000X0*%
G04 #@! TD*
G04 #@! TA.AperFunction,SMDPad,CuDef*
%ADD44RoundRect,0.093750X-0.093750X0.156250X-0.093750X-0.156250X0.093750X-0.156250X0.093750X0.156250X0*%
G04 #@! TD*
G04 #@! TA.AperFunction,SMDPad,CuDef*
%ADD45RoundRect,0.075000X-0.075000X0.250000X-0.075000X-0.250000X0.075000X-0.250000X0.075000X0.250000X0*%
G04 #@! TD*
G04 #@! TA.AperFunction,SMDPad,CuDef*
%ADD46RoundRect,0.225000X-0.225000X-0.250000X0.225000X-0.250000X0.225000X0.250000X-0.225000X0.250000X0*%
G04 #@! TD*
G04 #@! TA.AperFunction,ComponentPad*
%ADD47R,1.700000X1.700000*%
G04 #@! TD*
G04 #@! TA.AperFunction,ComponentPad*
%ADD48C,1.700000*%
G04 #@! TD*
G04 #@! TA.AperFunction,ViaPad*
%ADD49C,0.450000*%
G04 #@! TD*
G04 #@! TA.AperFunction,ViaPad*
%ADD50C,0.600000*%
G04 #@! TD*
G04 #@! TA.AperFunction,Conductor*
%ADD51C,0.120000*%
G04 #@! TD*
G04 #@! TA.AperFunction,Conductor*
%ADD52C,0.300000*%
G04 #@! TD*
G04 #@! TA.AperFunction,Conductor*
%ADD53C,0.550000*%
G04 #@! TD*
G04 #@! TA.AperFunction,Conductor*
%ADD54C,0.200000*%
G04 #@! TD*
G04 #@! TA.AperFunction,Conductor*
%ADD55C,0.635000*%
G04 #@! TD*
G04 #@! TA.AperFunction,Conductor*
%ADD56C,0.250000*%
G04 #@! TD*
G04 #@! TA.AperFunction,Conductor*
%ADD57C,0.600000*%
G04 #@! TD*
G04 APERTURE END LIST*
D10*
G04 #@! TO.P,R104,1*
G04 #@! TO.N,Net-(K103-A)*
X21483667Y15409467D03*
G04 #@! TO.P,R104,2*
G04 #@! TO.N,/PWR_LED_P*
X19833667Y15409467D03*
G04 #@! TD*
D11*
G04 #@! TO.P,R105,1*
G04 #@! TO.N,GND*
X32613600Y10005000D03*
G04 #@! TO.P,R105,2*
G04 #@! TO.N,/PWR_LED*
X32613600Y8985000D03*
G04 #@! TD*
D12*
G04 #@! TO.P,U104,1,GND*
G04 #@! TO.N,GND*
X42190800Y8538598D03*
G04 #@! TO.P,U104,2,VOUT*
G04 #@! TO.N,+5V*
X41690800Y8538598D03*
G04 #@! TO.P,U104,3,VIN1*
G04 #@! TO.N,Net-(U104-VIN1)*
X41190800Y8538598D03*
G04 #@! TO.P,U104,4,PR1*
G04 #@! TO.N,Net-(U104-PR1)*
X40690800Y8538598D03*
G04 #@! TO.P,U104,5,MODE*
G04 #@! TO.N,Net-(U104-MODE)*
X40690800Y7058598D03*
G04 #@! TO.P,U104,6,VIN2*
G04 #@! TO.N,Net-(U104-VIN2)*
X41190800Y7058598D03*
G04 #@! TO.P,U104,7,VOUT*
G04 #@! TO.N,+5V*
X41690800Y7058598D03*
G04 #@! TO.P,U104,8,ST*
G04 #@! TO.N,unconnected-(U104-ST-Pad8)*
X42190800Y7058598D03*
G04 #@! TD*
D13*
G04 #@! TO.P,U102,1,GND*
G04 #@! TO.N,GND*
X47064899Y13050600D03*
G04 #@! TO.P,U102,2,VO*
G04 #@! TO.N,+3V3*
X49364899Y13050600D03*
D14*
X49364899Y19350600D03*
D13*
G04 #@! TO.P,U102,3,VI*
G04 #@! TO.N,+5V*
X51664899Y13050600D03*
G04 #@! TD*
D15*
G04 #@! TO.P,SW102,1,1*
G04 #@! TO.N,/BOOT*
X74882000Y7010400D03*
X68882000Y7010400D03*
G04 #@! TO.P,SW102,2,2*
G04 #@! TO.N,GND*
X74882000Y10760400D03*
X68882000Y10760400D03*
G04 #@! TD*
D16*
G04 #@! TO.P,R113,1*
G04 #@! TO.N,/USB_DP*
X43901599Y12593800D03*
G04 #@! TO.P,R113,2*
G04 #@! TO.N,/USB_EDP*
X44921599Y12593800D03*
G04 #@! TD*
D17*
G04 #@! TO.P,D106,1,A1*
G04 #@! TO.N,GND*
X32585200Y14782800D03*
G04 #@! TO.P,D106,2,A2*
G04 #@! TO.N,VBUS*
X35385200Y14782800D03*
G04 #@! TD*
D15*
G04 #@! TO.P,SW101,1,1*
G04 #@! TO.N,/EN*
X68884800Y17927800D03*
X74884800Y17927800D03*
G04 #@! TO.P,SW101,2,2*
G04 #@! TO.N,GND*
X68884800Y14177800D03*
X74884800Y14177800D03*
G04 #@! TD*
D18*
G04 #@! TO.P,C108,1*
G04 #@! TO.N,/USB_DN*
X42989199Y11651400D03*
G04 #@! TO.P,C108,2*
G04 #@! TO.N,GND*
X42989199Y10691400D03*
G04 #@! TD*
D19*
G04 #@! TO.P,C102,1*
G04 #@! TO.N,+3V3*
X67360800Y20920969D03*
G04 #@! TO.P,C102,2*
G04 #@! TO.N,GND*
X67360800Y21880969D03*
G04 #@! TD*
D20*
G04 #@! TO.P,D101,1,A1*
G04 #@! TO.N,GND*
X42305200Y15438600D03*
G04 #@! TO.P,D101,2,A2*
G04 #@! TO.N,/USB_IN_CC1*
X41605200Y15438600D03*
G04 #@! TD*
D19*
G04 #@! TO.P,C109,1*
G04 #@! TO.N,/USB_DP*
X42989199Y12571000D03*
G04 #@! TO.P,C109,2*
G04 #@! TO.N,GND*
X42989199Y13531000D03*
G04 #@! TD*
D21*
G04 #@! TO.P,K104,1,A*
G04 #@! TO.N,Net-(K104-A)*
X26957867Y12869467D03*
G04 #@! TO.P,K104,2,K*
G04 #@! TO.N,/HDD_LED_N*
X24417867Y12869467D03*
G04 #@! TO.P,K104,3,D1*
G04 #@! TO.N,/HDD_LED*
X24417867Y3979467D03*
G04 #@! TO.P,K104,4,D2*
G04 #@! TO.N,+3V3*
X26957867Y3979467D03*
G04 #@! TD*
D22*
G04 #@! TO.P,L102,1,1*
G04 #@! TO.N,+5VA*
X30581600Y16124500D03*
G04 #@! TO.P,L102,2,2*
G04 #@! TO.N,Net-(U104-VIN2)*
X30581600Y14549500D03*
G04 #@! TD*
D10*
G04 #@! TO.P,R106,1*
G04 #@! TO.N,Net-(K104-A)*
X26529800Y15409465D03*
G04 #@! TO.P,R106,2*
G04 #@! TO.N,/HDD_LED_P*
X24879800Y15409465D03*
G04 #@! TD*
D23*
G04 #@! TO.P,R101,1*
G04 #@! TO.N,GND*
X29921200Y10878800D03*
G04 #@! TO.P,R101,2*
G04 #@! TO.N,Net-(K101-K)*
X29921200Y9228800D03*
G04 #@! TD*
D24*
G04 #@! TO.P,R109,1*
G04 #@! TO.N,/STATUS*
X58726799Y21285200D03*
G04 #@! TO.P,R109,2*
G04 #@! TO.N,+3V3*
X57706801Y21285200D03*
G04 #@! TD*
D25*
G04 #@! TO.P,L101,1,1*
G04 #@! TO.N,VBUS*
X39598500Y10970198D03*
G04 #@! TO.P,L101,2,2*
G04 #@! TO.N,Net-(U104-VIN1)*
X41173500Y10970198D03*
G04 #@! TD*
D26*
G04 #@! TO.P,D103,1,K*
G04 #@! TO.N,Net-(D103-K)*
X56134000Y23317200D03*
G04 #@! TO.P,D103,2,A*
G04 #@! TO.N,+3V3*
X56134000Y21442200D03*
G04 #@! TD*
D27*
G04 #@! TO.P,D105,1,A1*
G04 #@! TO.N,+5VA*
X30581600Y17899400D03*
G04 #@! TO.P,D105,2,A2*
G04 #@! TO.N,GND*
X30581600Y20699400D03*
G04 #@! TD*
D28*
G04 #@! TO.P,K101,1,A*
G04 #@! TO.N,/PWR_SW*
X7145867Y3979467D03*
G04 #@! TO.P,K101,2,K*
G04 #@! TO.N,Net-(K101-K)*
X9685867Y3979467D03*
G04 #@! TO.P,K101,3,D1*
G04 #@! TO.N,/PWR_SW_N*
X9685867Y12869467D03*
G04 #@! TO.P,K101,4,D2*
G04 #@! TO.N,/PWR_SW_P*
X7145867Y12869467D03*
G04 #@! TD*
D16*
G04 #@! TO.P,R111,1*
G04 #@! TO.N,GND*
X36713700Y13217402D03*
G04 #@! TO.P,R111,2*
G04 #@! TO.N,/USB_IN_CC2*
X37733700Y13217402D03*
G04 #@! TD*
D29*
G04 #@! TO.P,J103,1,Pin_1*
G04 #@! TO.N,+3V3*
X45216600Y5651400D03*
G04 #@! TO.P,J103,2,Pin_2*
G04 #@! TO.N,/TX*
X46466600Y5651400D03*
G04 #@! TO.P,J103,3,Pin_3*
G04 #@! TO.N,/RX*
X47716600Y5651400D03*
G04 #@! TO.P,J103,4,Pin_4*
G04 #@! TO.N,GND*
X48966600Y5651400D03*
D30*
G04 #@! TO.P,J103,MP*
G04 #@! TO.N,N/C*
X42666600Y2751400D03*
X51516600Y2751400D03*
G04 #@! TD*
D31*
G04 #@! TO.P,J105,A1,GND*
G04 #@! TO.N,GND*
X42773200Y17098400D03*
G04 #@! TO.P,J105,A4,VBUS*
G04 #@! TO.N,VBUS*
X41973200Y17098400D03*
D32*
G04 #@! TO.P,J105,A5,CC1*
G04 #@! TO.N,/USB_IN_CC1*
X40823200Y17098400D03*
G04 #@! TO.P,J105,A6,D+*
G04 #@! TO.N,/USB_IN_DP*
X39823200Y17098400D03*
G04 #@! TO.P,J105,A7,D-*
G04 #@! TO.N,/USB_IN_DN*
X39323200Y17098400D03*
G04 #@! TO.P,J105,A8,SBU1*
G04 #@! TO.N,unconnected-(J105-SBU1-PadA8)*
X38323200Y17098400D03*
D31*
G04 #@! TO.P,J105,A9,VBUS*
G04 #@! TO.N,VBUS*
X37173200Y17098400D03*
G04 #@! TO.P,J105,A12,GND*
G04 #@! TO.N,GND*
X36373200Y17098400D03*
G04 #@! TO.P,J105,B1,GND*
X36373200Y17098400D03*
G04 #@! TO.P,J105,B4,VBUS*
G04 #@! TO.N,VBUS*
X37173200Y17098400D03*
D32*
G04 #@! TO.P,J105,B5,CC2*
G04 #@! TO.N,/USB_IN_CC2*
X37823200Y17098400D03*
G04 #@! TO.P,J105,B6,D+*
G04 #@! TO.N,/USB_IN_DP*
X38823200Y17098400D03*
G04 #@! TO.P,J105,B7,D-*
G04 #@! TO.N,/USB_IN_DN*
X40323200Y17098400D03*
G04 #@! TO.P,J105,B8,SBU2*
G04 #@! TO.N,unconnected-(J105-SBU2-PadB8)*
X41323200Y17098400D03*
D31*
G04 #@! TO.P,J105,B9,VBUS*
G04 #@! TO.N,VBUS*
X41973200Y17098400D03*
G04 #@! TO.P,J105,B12,GND*
G04 #@! TO.N,GND*
X42773200Y17098400D03*
D33*
G04 #@! TO.P,J105,S1,SHIELD*
X43893200Y17698400D03*
D34*
X43893200Y21898400D03*
D33*
X35253200Y17698400D03*
D34*
X35253200Y21898400D03*
G04 #@! TD*
D35*
G04 #@! TO.P,C104,1*
G04 #@! TO.N,+3V3*
X48799701Y21751800D03*
G04 #@! TO.P,C104,2*
G04 #@! TO.N,GND*
X46094701Y21751800D03*
G04 #@! TD*
G04 #@! TO.P,C111,1*
G04 #@! TO.N,+5V*
X51593699Y9241000D03*
G04 #@! TO.P,C111,2*
G04 #@! TO.N,GND*
X48888699Y9241000D03*
G04 #@! TD*
D28*
G04 #@! TO.P,K102,1,A*
G04 #@! TO.N,/RST_SW*
X12903200Y3979467D03*
G04 #@! TO.P,K102,2,K*
G04 #@! TO.N,Net-(K102-K)*
X15443200Y3979467D03*
G04 #@! TO.P,K102,3,D1*
G04 #@! TO.N,/RST_SW_N*
X15443200Y12869467D03*
G04 #@! TO.P,K102,4,D2*
G04 #@! TO.N,/RST_SW_P*
X12903200Y12869467D03*
G04 #@! TD*
D26*
G04 #@! TO.P,D104,1,K*
G04 #@! TO.N,Net-(D104-K)*
X60299600Y23340300D03*
G04 #@! TO.P,D104,2,A*
G04 #@! TO.N,/STATUS*
X60299600Y21465300D03*
G04 #@! TD*
D36*
G04 #@! TO.P,D102,1,A1*
G04 #@! TO.N,GND*
X37127699Y14233402D03*
G04 #@! TO.P,D102,2,A2*
G04 #@! TO.N,/USB_IN_CC2*
X37827699Y14233402D03*
G04 #@! TD*
D11*
G04 #@! TO.P,R116,1*
G04 #@! TO.N,Net-(U104-VIN1)*
X39573200Y8076598D03*
G04 #@! TO.P,R116,2*
G04 #@! TO.N,Net-(U104-MODE)*
X39573200Y7056598D03*
G04 #@! TD*
D37*
G04 #@! TO.P,C105,1*
G04 #@! TO.N,/EN*
X68862000Y19390267D03*
G04 #@! TO.P,C105,2*
G04 #@! TO.N,GND*
X69822000Y19390267D03*
G04 #@! TD*
D11*
G04 #@! TO.P,R114,1*
G04 #@! TO.N,GND*
X57708800Y23268399D03*
G04 #@! TO.P,R114,2*
G04 #@! TO.N,Net-(D103-K)*
X57708800Y22248401D03*
G04 #@! TD*
D38*
G04 #@! TO.P,U101,1,3V3*
G04 #@! TO.N,+3V3*
X66380400Y19375000D03*
G04 #@! TO.P,U101,2,EN*
G04 #@! TO.N,/EN*
X64880400Y19375000D03*
G04 #@! TO.P,U101,3,IO4*
G04 #@! TO.N,/TMS*
X63380400Y19375000D03*
G04 #@! TO.P,U101,4,IO5*
G04 #@! TO.N,/TDI*
X61880400Y19375000D03*
G04 #@! TO.P,U101,5,IO6*
G04 #@! TO.N,/TCK*
X60380400Y19375000D03*
G04 #@! TO.P,U101,6,IO7*
G04 #@! TO.N,/TDO*
X58880400Y19375000D03*
G04 #@! TO.P,U101,7,IO8*
G04 #@! TO.N,/STATUS*
X57380400Y19375000D03*
G04 #@! TO.P,U101,8,IO9*
G04 #@! TO.N,/BOOT*
X55880400Y19375000D03*
G04 #@! TO.P,U101,9,GND*
G04 #@! TO.N,GND*
X54380400Y19375000D03*
G04 #@! TO.P,U101,10,IO10*
G04 #@! TO.N,/HDD_LED*
X54380400Y1875000D03*
G04 #@! TO.P,U101,11,IO20/RXD*
G04 #@! TO.N,/RX*
X55880400Y1875000D03*
G04 #@! TO.P,U101,12,IO21/TXD*
G04 #@! TO.N,/TX*
X57380400Y1875000D03*
G04 #@! TO.P,U101,13,IO18*
G04 #@! TO.N,/USB_EDN*
X58880400Y1875000D03*
G04 #@! TO.P,U101,14,IO19*
G04 #@! TO.N,/USB_EDP*
X60380400Y1875000D03*
G04 #@! TO.P,U101,15,IO3*
G04 #@! TO.N,/PWR_LED*
X61880400Y1875000D03*
G04 #@! TO.P,U101,16,IO2*
G04 #@! TO.N,Net-(U101-IO2)*
X63380400Y1875000D03*
G04 #@! TO.P,U101,17,IO1*
G04 #@! TO.N,/RST_SW*
X64880400Y1875000D03*
G04 #@! TO.P,U101,18,IO0*
G04 #@! TO.N,/PWR_SW*
X66380400Y1875000D03*
D39*
G04 #@! TO.P,U101,19,GND*
G04 #@! TO.N,GND*
X60730400Y10765000D03*
X59630400Y10765000D03*
X61280400Y10215000D03*
X60180400Y10215000D03*
X59080400Y10215000D03*
X60730400Y9665000D03*
D40*
X60180400Y9665000D03*
D39*
X59630400Y9665000D03*
X61280400Y9115000D03*
X60180400Y9115000D03*
X59080400Y9115000D03*
X60730400Y8565000D03*
X59630400Y8565000D03*
G04 #@! TD*
D24*
G04 #@! TO.P,R110,1*
G04 #@! TO.N,GND*
X42719200Y14422602D03*
G04 #@! TO.P,R110,2*
G04 #@! TO.N,/USB_IN_CC1*
X41699200Y14422602D03*
G04 #@! TD*
D16*
G04 #@! TO.P,R108,1*
G04 #@! TO.N,Net-(U101-IO2)*
X68832000Y4531933D03*
G04 #@! TO.P,R108,2*
G04 #@! TO.N,+3V3*
X69852000Y4531933D03*
G04 #@! TD*
D41*
G04 #@! TO.P,J101,1,VTref*
G04 #@! TO.N,+3V3*
X30124400Y2332200D03*
G04 #@! TO.P,J101,2,SWDIO/TMS*
G04 #@! TO.N,/TMS*
X30124400Y6232200D03*
G04 #@! TO.P,J101,3,GND*
G04 #@! TO.N,GND*
X31394400Y2332200D03*
G04 #@! TO.P,J101,4,SWCLK/TCK*
G04 #@! TO.N,/TCK*
X31394400Y6232200D03*
G04 #@! TO.P,J101,5,GND*
G04 #@! TO.N,GND*
X32664400Y2332200D03*
G04 #@! TO.P,J101,6,SWO/TDO*
G04 #@! TO.N,/TDO*
X32664400Y6232200D03*
G04 #@! TO.P,J101,7,KEY*
G04 #@! TO.N,unconnected-(J101-KEY-Pad7)*
X33934400Y2332200D03*
G04 #@! TO.P,J101,8,NC/TDI*
G04 #@! TO.N,/TDI*
X33934400Y6232200D03*
G04 #@! TO.P,J101,9,GNDDetect*
G04 #@! TO.N,GND*
X35204400Y2332200D03*
G04 #@! TO.P,J101,10,~{RESET}*
G04 #@! TO.N,/EN*
X35204400Y6232200D03*
G04 #@! TD*
D42*
G04 #@! TO.P,C103,1*
G04 #@! TO.N,+5V*
X51524200Y11074400D03*
G04 #@! TO.P,C103,2*
G04 #@! TO.N,GND*
X49974200Y11074400D03*
G04 #@! TD*
D43*
G04 #@! TO.P,R103,1*
G04 #@! TO.N,/EN*
X65430400Y20890969D03*
G04 #@! TO.P,R103,2*
G04 #@! TO.N,+3V3*
X65430400Y21910969D03*
G04 #@! TD*
D19*
G04 #@! TO.P,C107,1*
G04 #@! TO.N,/EN*
X64465200Y20920969D03*
G04 #@! TO.P,C107,2*
G04 #@! TO.N,GND*
X64465200Y21880969D03*
G04 #@! TD*
D44*
G04 #@! TO.P,U103,1,I/O1*
G04 #@! TO.N,/USB_IN_DN*
X40110700Y14067403D03*
D45*
G04 #@! TO.P,U103,2,GND*
G04 #@! TO.N,GND*
X39573200Y14142403D03*
D44*
G04 #@! TO.P,U103,3,I/O2*
G04 #@! TO.N,/USB_IN_DP*
X39035700Y14067403D03*
G04 #@! TO.P,U103,4,I/O2*
G04 #@! TO.N,/USB_DP*
X39035700Y12367403D03*
D45*
G04 #@! TO.P,U103,5,VBUS*
G04 #@! TO.N,VBUS*
X39573200Y12292403D03*
D44*
G04 #@! TO.P,U103,6,I/O1*
G04 #@! TO.N,/USB_DN*
X40110700Y12367403D03*
G04 #@! TD*
D11*
G04 #@! TO.P,R115,1*
G04 #@! TO.N,GND*
X58724800Y23268399D03*
G04 #@! TO.P,R115,2*
G04 #@! TO.N,Net-(D104-K)*
X58724800Y22248401D03*
G04 #@! TD*
D18*
G04 #@! TO.P,C101,1*
G04 #@! TO.N,GND*
X66395600Y21880969D03*
G04 #@! TO.P,C101,2*
G04 #@! TO.N,+3V3*
X66395600Y20920969D03*
G04 #@! TD*
D11*
G04 #@! TO.P,R107,1*
G04 #@! TO.N,GND*
X33578800Y10005000D03*
G04 #@! TO.P,R107,2*
G04 #@! TO.N,/HDD_LED*
X33578800Y8985000D03*
G04 #@! TD*
D24*
G04 #@! TO.P,R118,1*
G04 #@! TO.N,Net-(U104-PR1)*
X39404801Y9706999D03*
G04 #@! TO.P,R118,2*
G04 #@! TO.N,GND*
X38384801Y9706999D03*
G04 #@! TD*
D16*
G04 #@! TO.P,R117,1*
G04 #@! TO.N,Net-(U104-PR1)*
X40282400Y9700198D03*
G04 #@! TO.P,R117,2*
G04 #@! TO.N,Net-(U104-VIN1)*
X41302400Y9700198D03*
G04 #@! TD*
D46*
G04 #@! TO.P,C110,1*
G04 #@! TO.N,+3V3*
X50787000Y21991800D03*
G04 #@! TO.P,C110,2*
G04 #@! TO.N,GND*
X52337000Y21991800D03*
G04 #@! TD*
D47*
G04 #@! TO.P,J102,1,Pin_1*
G04 #@! TO.N,/PWR_SW_P*
X7315200Y18160600D03*
D48*
G04 #@! TO.P,J102,2,Pin_2*
X7315200Y20700600D03*
G04 #@! TO.P,J102,3,Pin_3*
G04 #@! TO.N,/PWR_SW_N*
X9855200Y18160600D03*
G04 #@! TO.P,J102,4,Pin_4*
X9855200Y20700600D03*
G04 #@! TO.P,J102,5,Pin_5*
G04 #@! TO.N,/RST_SW_P*
X12395200Y18160600D03*
G04 #@! TO.P,J102,6,Pin_6*
X12395200Y20700600D03*
G04 #@! TO.P,J102,7,Pin_7*
G04 #@! TO.N,/RST_SW_N*
X14935200Y18160600D03*
G04 #@! TO.P,J102,8,Pin_8*
X14935200Y20700600D03*
G04 #@! TO.P,J102,9,Pin_9*
G04 #@! TO.N,/PWR_LED_N*
X17475200Y18160600D03*
G04 #@! TO.P,J102,10,Pin_10*
X17475200Y20700600D03*
G04 #@! TO.P,J102,11,Pin_11*
G04 #@! TO.N,/PWR_LED_P*
X20015200Y18160600D03*
G04 #@! TO.P,J102,12,Pin_12*
X20015200Y20700600D03*
G04 #@! TO.P,J102,13,Pin_13*
G04 #@! TO.N,/HDD_LED_N*
X22555200Y18160600D03*
G04 #@! TO.P,J102,14,Pin_14*
X22555200Y20700600D03*
G04 #@! TO.P,J102,15,Pin_15*
G04 #@! TO.N,/HDD_LED_P*
X25095200Y18160600D03*
G04 #@! TO.P,J102,16,Pin_16*
X25095200Y20700600D03*
G04 #@! TO.P,J102,17,Pin_17*
G04 #@! TO.N,+5VA*
X27635200Y18160600D03*
G04 #@! TO.P,J102,18,Pin_18*
G04 #@! TO.N,GND*
X27635200Y20700600D03*
G04 #@! TD*
D23*
G04 #@! TO.P,R102,1*
G04 #@! TO.N,GND*
X31394400Y10878800D03*
G04 #@! TO.P,R102,2*
G04 #@! TO.N,Net-(K102-K)*
X31394400Y9228800D03*
G04 #@! TD*
D16*
G04 #@! TO.P,R112,1*
G04 #@! TO.N,/USB_DN*
X43901599Y11628600D03*
G04 #@! TO.P,R112,2*
G04 #@! TO.N,/USB_EDN*
X44921599Y11628600D03*
G04 #@! TD*
D37*
G04 #@! TO.P,C106,1*
G04 #@! TO.N,/BOOT*
X68862000Y5519933D03*
G04 #@! TO.P,C106,2*
G04 #@! TO.N,GND*
X69822000Y5519933D03*
G04 #@! TD*
D21*
G04 #@! TO.P,K103,1,A*
G04 #@! TO.N,Net-(K103-A)*
X21200534Y12869467D03*
G04 #@! TO.P,K103,2,K*
G04 #@! TO.N,/PWR_LED_N*
X18660534Y12869467D03*
G04 #@! TO.P,K103,3,D1*
G04 #@! TO.N,/PWR_LED*
X18660534Y3979467D03*
G04 #@! TO.P,K103,4,D2*
G04 #@! TO.N,+3V3*
X21200534Y3979467D03*
G04 #@! TD*
D49*
G04 #@! TO.N,GND*
X34544000Y4114800D03*
X32004000Y4114800D03*
X28498800Y5943600D03*
X7061200Y1625600D03*
X25704800Y3860800D03*
X22809200Y3860800D03*
X19913600Y3860800D03*
X17068800Y3860800D03*
X14173200Y3860800D03*
X11328400Y3860800D03*
X8432800Y3860800D03*
G04 #@! TO.N,/PWR_SW*
X8432800Y2540000D03*
G04 #@! TO.N,/RST_SW*
X14224000Y2540000D03*
G04 #@! TO.N,/PWR_LED*
X19913600Y2641600D03*
G04 #@! TO.N,GND*
X59182000Y20574000D03*
X53492400Y22656800D03*
X54813200Y20929600D03*
G04 #@! TO.N,/EN*
X35204400Y4572000D03*
X62992000Y18186400D03*
D50*
G04 #@! TO.N,+3V3*
X68376800Y20925000D03*
X44246800Y5583400D03*
X49936400Y21844000D03*
X50800000Y20874200D03*
X29334398Y5583400D03*
X69850000Y3810000D03*
X49885600Y20878800D03*
X57048400Y20624800D03*
D49*
G04 #@! TO.N,GND*
X45161200Y4161000D03*
X22301200Y8733000D03*
X64770000Y3505200D03*
X70561200Y605000D03*
X42113200Y10718800D03*
X70967600Y19401000D03*
X28752800Y14829000D03*
X14630400Y8733000D03*
X52273200Y19909000D03*
X67513200Y11171400D03*
X31394400Y605000D03*
X42773600Y16154400D03*
X75895200Y13305000D03*
X55372000Y605000D03*
X65938400Y13152600D03*
X29514800Y15895800D03*
X32461200Y18338800D03*
X50952400Y14930600D03*
X65481200Y605000D03*
X38557200Y13254200D03*
X67513200Y14981400D03*
X62636400Y4114800D03*
X64211200Y23058600D03*
X69088000Y16048200D03*
X26720800Y19401000D03*
X70815200Y5537200D03*
X75895200Y18385000D03*
X74625200Y8885400D03*
X44094400Y13563600D03*
X55930800Y11831800D03*
X34239200Y19807400D03*
X63347600Y20874200D03*
X70561200Y3145000D03*
X70358000Y17115000D03*
X47752000Y17470600D03*
X73609200Y7869400D03*
X69342000Y1879600D03*
X19761200Y8733000D03*
X63855600Y9296400D03*
X73710800Y17115000D03*
X28803600Y19401000D03*
X74625200Y12441400D03*
X69799200Y20518600D03*
X26771600Y22093400D03*
X37541200Y24481000D03*
X47396400Y9241000D03*
X59283600Y15184600D03*
X62941200Y605000D03*
X29921200Y605000D03*
X7061200Y8733000D03*
X28752800Y17013400D03*
X60045600Y4465800D03*
X54965600Y7666200D03*
X61823600Y20874200D03*
X44907200Y15438600D03*
X60401200Y24481000D03*
X75895200Y15845000D03*
X34036000Y14829000D03*
X33070800Y13411200D03*
X38709600Y7666200D03*
X59283600Y7061200D03*
X56997600Y12898600D03*
X24841200Y8733000D03*
X34696400Y9398000D03*
X5283200Y5939000D03*
X7010400Y6650200D03*
X43332400Y15443200D03*
X52222399Y17470600D03*
X54914800Y5583400D03*
X47040800Y11125200D03*
X61772800Y13157200D03*
X35052000Y24481000D03*
X37490400Y4161000D03*
X62941200Y24481000D03*
X29921200Y24481000D03*
X65938400Y5537200D03*
X37490400Y6451600D03*
X42621200Y22855400D03*
X50241201Y24467714D03*
X67360800Y23058600D03*
X56692800Y7666200D03*
X51358800Y7666200D03*
X56032400Y5334000D03*
X36677600Y12192000D03*
X7061200Y605000D03*
X71884800Y16052800D03*
X17221200Y605000D03*
X35204400Y605000D03*
X60452000Y14427200D03*
X28803600Y22093400D03*
X23520400Y7631189D03*
X43383200Y8733000D03*
X70307200Y10765000D03*
X29921200Y13559000D03*
X8331200Y7615400D03*
X9601200Y6650200D03*
X61722000Y7061200D03*
X31394400Y12289000D03*
X63855600Y7061200D03*
X56032400Y16251400D03*
X37185600Y15240000D03*
X39674800Y15290800D03*
X73609200Y10765000D03*
X9601200Y605000D03*
X40081200Y22855400D03*
X57759600Y12039600D03*
X53238400Y10765000D03*
X67513200Y5532600D03*
X44958000Y18994600D03*
X42011600Y13563600D03*
X26670000Y17013400D03*
X54356000Y17826200D03*
X42824400Y9596600D03*
X44348400Y10718800D03*
X47701200Y605000D03*
X65938400Y7061200D03*
X52781200Y605000D03*
X38760400Y19248600D03*
X13411200Y7615400D03*
X42621205Y24467117D03*
X18440400Y7615400D03*
X33020000Y11023600D03*
X27381200Y605000D03*
X65938400Y16759400D03*
X67513200Y13152600D03*
X57200800Y17419800D03*
X48717200Y11074400D03*
X60452000Y12039600D03*
X53187600Y3098800D03*
X24841200Y605000D03*
X26111200Y7615400D03*
X60960000Y3403600D03*
X57708800Y9652000D03*
X30581600Y22093400D03*
X30581600Y19401000D03*
X43434000Y6548600D03*
X68021200Y24481000D03*
X63855600Y16759400D03*
X32461200Y16357600D03*
X50241200Y605000D03*
X35458400Y10972800D03*
X53136800Y19350200D03*
X54813200Y10765000D03*
X40081200Y605000D03*
X52781200Y24481000D03*
X68580000Y21996400D03*
X70256400Y7869400D03*
X36474400Y19248600D03*
X47701205Y24467515D03*
X63855600Y11226800D03*
X58928000Y5583400D03*
X63855600Y5537200D03*
X61671200Y23058600D03*
X40132000Y4161000D03*
X57861200Y24481000D03*
X42621200Y605000D03*
X69240400Y23058600D03*
X5283200Y3856200D03*
X75895200Y10663400D03*
X40894000Y13614400D03*
X46380400Y18994600D03*
X19761200Y605000D03*
X43891200Y14422600D03*
X73101200Y19401000D03*
X67564000Y16759400D03*
X28752800Y9749000D03*
X40081200Y24481000D03*
X75082400Y19401000D03*
X61722000Y5537200D03*
X69088000Y12441400D03*
X50952400Y17470600D03*
X73101200Y5685000D03*
X36322000Y14219400D03*
X69138800Y8936200D03*
X45415200Y13660600D03*
X46329600Y14930600D03*
X53492400Y13766800D03*
X63855600Y14981400D03*
X26771600Y23515800D03*
X57759600Y6751800D03*
X28803600Y3200400D03*
X42824400Y19147000D03*
X20980400Y7615400D03*
X58064400Y3352800D03*
X39776400Y8885400D03*
X75895200Y8225000D03*
X42570400Y20823400D03*
X57861200Y605000D03*
X70561200Y24481000D03*
X45161200Y605000D03*
X27381200Y24481000D03*
X55321200Y24481000D03*
X61722000Y16759400D03*
X67614800Y19401000D03*
X34442400Y12039600D03*
X38404800Y15240000D03*
X65481200Y24481000D03*
X29921200Y12289000D03*
X57150000Y4318000D03*
X28752800Y12289000D03*
X67513200Y7056600D03*
X27381200Y8733000D03*
X70307200Y14168600D03*
X12141200Y8733000D03*
X36728400Y9804400D03*
X14681200Y605000D03*
X68021200Y3145000D03*
X71882000Y12441400D03*
X48869600Y3098800D03*
X32461200Y20675600D03*
X5283200Y7971000D03*
X10871200Y7615400D03*
X17221200Y8733000D03*
X66395600Y23058600D03*
X40081200Y20823400D03*
X37947600Y12035000D03*
X47040800Y16200600D03*
X71882000Y8885400D03*
X73609200Y14168600D03*
X52324000Y23211000D03*
X15951200Y7615400D03*
X32664400Y605000D03*
X37541200Y20823400D03*
X12141200Y605000D03*
X53238400Y5583400D03*
X33782000Y8072600D03*
X51511200Y16149800D03*
X54864000Y15083000D03*
X41046400Y19147000D03*
X65938400Y9296400D03*
X53543200Y16251400D03*
X47752001Y14930600D03*
X75895200Y5685000D03*
X32461200Y24481000D03*
X46075600Y23211000D03*
X40944800Y14986000D03*
X65938400Y14981400D03*
X50495200Y5634200D03*
X45161209Y24467316D03*
X68021200Y605000D03*
X46380400Y17470600D03*
X5283200Y1621000D03*
X45212000Y8733000D03*
X50241199Y9241000D03*
X37541200Y605000D03*
X9601200Y8733000D03*
X22301200Y605000D03*
X52222400Y14930600D03*
X37541200Y22855400D03*
X58115200Y14016200D03*
X70561200Y21941000D03*
X60401200Y605000D03*
X35458400Y8178800D03*
X32461200Y22855400D03*
X53238400Y7666200D03*
G04 #@! TO.N,/TCK*
X60452000Y18186400D03*
X31343600Y4572000D03*
G04 #@! TO.N,/TDO*
X59588400Y18186400D03*
X32664400Y4572000D03*
G04 #@! TO.N,/TMS*
X30124400Y4572000D03*
X62191800Y18186400D03*
G04 #@! TO.N,/TDI*
X61264800Y18186400D03*
X33934400Y4572000D03*
G04 #@! TO.N,/TX*
X56692800Y3149600D03*
X46482000Y4267200D03*
G04 #@! TO.N,/RX*
X55880000Y3149600D03*
X47498000Y3759200D03*
G04 #@! TO.N,/PWR_SW*
X66395600Y3149600D03*
G04 #@! TO.N,/RST_SW*
X65582800Y3149600D03*
G04 #@! TO.N,/PWR_LED*
X61925200Y3149600D03*
G04 #@! TO.N,/HDD_LED*
X54406800Y3149600D03*
X25654000Y2743200D03*
G04 #@! TO.N,/USB_EDN*
X45472400Y10363200D03*
X59232800Y3149600D03*
G04 #@! TO.N,/USB_EDP*
X46272400Y10363200D03*
X60035799Y3352800D03*
G04 #@! TD*
D51*
G04 #@! TO.N,/HDD_LED*
X32695000Y8154000D02*
X29496478Y8154000D01*
X25540600Y5830200D02*
X24417867Y4707467D01*
X29496478Y8154000D02*
X27172675Y5830200D01*
X33526001Y8985001D02*
X32695000Y8154000D01*
X27172675Y5830200D02*
X25540600Y5830200D01*
X33578800Y8985001D02*
X33526001Y8985001D01*
X24417867Y4707467D02*
X24417867Y3979467D01*
G04 #@! TO.N,/PWR_LED*
X32023599Y8395000D02*
X29396652Y8395000D01*
X29396652Y8395000D02*
X27072850Y6071200D01*
X32613600Y8985001D02*
X32023599Y8395000D01*
X27072850Y6071200D02*
X20041200Y6071200D01*
X20041200Y6071200D02*
X18660534Y4690534D01*
X18660534Y4690534D02*
X18660534Y3979467D01*
G04 #@! TO.N,Net-(K102-K)*
X31394400Y9228800D02*
X31377600Y9228800D01*
X30784800Y8636000D02*
X29296826Y8636000D01*
X31377600Y9228800D02*
X30784800Y8636000D01*
X15443200Y4724400D02*
X15443200Y3979467D01*
X29296826Y8636000D02*
X26973025Y6312200D01*
X26973025Y6312200D02*
X17031000Y6312200D01*
X17031000Y6312200D02*
X15443200Y4724400D01*
G04 #@! TO.N,Net-(K101-K)*
X29921200Y9228800D02*
X29582400Y8890000D01*
X29210000Y8890000D02*
X26873200Y6553200D01*
X11531600Y6553200D02*
X9685867Y4707467D01*
X26873200Y6553200D02*
X11531600Y6553200D01*
X29582400Y8890000D02*
X29210000Y8890000D01*
X9685867Y4707467D02*
X9685867Y3979467D01*
D52*
G04 #@! TO.N,+3V3*
X44246800Y5583400D02*
X45148600Y5583400D01*
X45148600Y5583400D02*
X45216600Y5651400D01*
X29311600Y4415000D02*
X29464000Y4415000D01*
X30124400Y3754600D02*
X30124400Y2332200D01*
X29464000Y4415000D02*
X30124400Y3754600D01*
X29334398Y5583400D02*
X29311600Y5560602D01*
X29311600Y5560602D02*
X29311600Y4415000D01*
X29311600Y4415000D02*
X28803600Y4415000D01*
G04 #@! TO.N,+5V*
X51575000Y9259699D02*
X51575000Y12960701D01*
X41690800Y7058598D02*
X41690800Y7823200D01*
X41690800Y7823200D02*
X50175899Y7823200D01*
D53*
X51593699Y9221900D02*
X51593699Y9241000D01*
D52*
X51575000Y12960701D02*
X51664899Y13050600D01*
X41690800Y7823200D02*
X41690800Y8538598D01*
X51593699Y9241000D02*
X51575000Y9259699D01*
X50175899Y7823200D02*
X51593699Y9241000D01*
D51*
G04 #@! TO.N,/EN*
X64562200Y18131000D02*
X64880400Y18449200D01*
X64880400Y18449200D02*
X65194000Y18135600D01*
X62992000Y18186400D02*
X63047400Y18131000D01*
X63047400Y18131000D02*
X64562200Y18131000D01*
X64922400Y20463769D02*
X64973200Y20412969D01*
X68862000Y19390267D02*
X68862000Y17950600D01*
X68862000Y17950600D02*
X68884800Y17927800D01*
X65430400Y20890970D02*
X65430400Y20878800D01*
X64465200Y20920969D02*
X64922400Y20463769D01*
X65194000Y18135600D02*
X68677000Y18135600D01*
X65430400Y20878800D02*
X64973200Y20421600D01*
X74884800Y17927800D02*
X68884800Y17927800D01*
X64880400Y19375000D02*
X64880400Y18449200D01*
X68677000Y18135600D02*
X68884800Y17927800D01*
X35204400Y4572000D02*
X35204400Y6232200D01*
X64973200Y20412969D02*
X64973200Y19467800D01*
X64973200Y20421600D02*
X64973200Y20412969D01*
D54*
G04 #@! TO.N,Net-(K103-A)*
X21483667Y13152600D02*
X21200534Y12869467D01*
X21483667Y15409467D02*
X21483667Y13152600D01*
D51*
G04 #@! TO.N,/BOOT*
X58521600Y18440400D02*
X56540400Y18440400D01*
X56540400Y18440400D02*
X55880400Y19100400D01*
X74882000Y7010400D02*
X68882000Y7010400D01*
X55880400Y19100400D02*
X55880400Y19375000D01*
X68882000Y7010400D02*
X68882000Y8080000D01*
X68862000Y6990400D02*
X68882000Y7010400D01*
X68882000Y8080000D02*
X58521600Y18440400D01*
X68862000Y5519933D02*
X68862000Y6990400D01*
D52*
G04 #@! TO.N,+3V3*
X48799701Y21751800D02*
X48799701Y19915797D01*
X28448000Y4415000D02*
X28012467Y3979467D01*
X28012467Y3979467D02*
X26957867Y3979467D01*
X69850000Y3810000D02*
X69850000Y4529934D01*
X57048400Y20624800D02*
X57048400Y21285200D01*
X21200534Y3979467D02*
X21200534Y3234266D01*
X48799701Y19915797D02*
X49364899Y19350599D01*
X50800000Y20874200D02*
X50800000Y21788600D01*
X66395600Y19390200D02*
X66380400Y19375000D01*
X56291000Y21285200D02*
X56134000Y21442200D01*
X48891901Y21844000D02*
X48799701Y21751800D01*
X57048400Y21285200D02*
X56291000Y21285200D01*
X50800000Y21788600D02*
X50787000Y21801600D01*
X57706801Y21285200D02*
X57048400Y21285200D01*
X50787000Y21991800D02*
X50639200Y21844000D01*
D54*
X65430400Y21910968D02*
X65430400Y21886169D01*
D52*
X49364899Y13050601D02*
X49364899Y19350599D01*
D55*
X49409299Y19395000D02*
X49364899Y19350600D01*
D52*
X26957867Y3183467D02*
X26957867Y3979467D01*
X67360800Y20920969D02*
X66395600Y20920969D01*
X66395600Y20920969D02*
X66395600Y20945768D01*
X50787000Y21801600D02*
X50787000Y21991800D01*
X68376800Y20925000D02*
X67364831Y20925000D01*
X28803600Y4415000D02*
X28448000Y4415000D01*
X22276333Y2158467D02*
X25932867Y2158467D01*
X50639200Y21844000D02*
X48891901Y21844000D01*
X69850000Y4529934D02*
X69851999Y4531933D01*
X67364831Y20925000D02*
X67360800Y20920969D01*
X21200534Y3234266D02*
X22276333Y2158467D01*
X66395600Y20945768D02*
X65430400Y21910968D01*
X66395600Y20920969D02*
X66395600Y19390200D01*
X25932867Y2158467D02*
X26957867Y3183467D01*
D54*
G04 #@! TO.N,Net-(K104-A)*
X26529800Y13297534D02*
X26957867Y12869467D01*
X26970067Y12881667D02*
X26957867Y12869467D01*
X26529800Y15409465D02*
X26529800Y13297534D01*
G04 #@! TO.N,/USB_DN*
X42806200Y11651400D02*
X42989199Y11651400D01*
X43204199Y11836400D02*
X43643800Y11836400D01*
X43643800Y11836400D02*
X43851600Y11628600D01*
X40110700Y12367403D02*
X40138497Y12395200D01*
X43019199Y11651400D02*
X43204199Y11836400D01*
X40138497Y12395200D02*
X42062400Y12395200D01*
X42062400Y12395200D02*
X42806200Y11651400D01*
X42989199Y11651400D02*
X43019199Y11651400D01*
X43851600Y11628600D02*
X43901600Y11628600D01*
X40110700Y12367403D02*
X40115297Y12372000D01*
D52*
G04 #@! TO.N,GND*
X39674800Y15290800D02*
X39573200Y15189200D01*
X39573200Y13360400D02*
X38663400Y13360400D01*
X39573200Y13360400D02*
X40640000Y13360400D01*
X38663400Y13360400D02*
X38557200Y13254200D01*
D56*
X36462201Y16954402D02*
X36498201Y16990402D01*
D52*
X39573200Y14142403D02*
X39573200Y13360400D01*
X40640000Y13360400D02*
X40894000Y13614400D01*
X39573200Y15189200D02*
X39573200Y14142402D01*
G04 #@! TO.N,VBUS*
X39573200Y12292403D02*
X39573200Y10995498D01*
X39573200Y10995498D02*
X39598500Y10970198D01*
X41973200Y17098400D02*
X41973200Y17615200D01*
X37947600Y18389600D02*
X37173200Y17615200D01*
D53*
X39547700Y10919398D02*
X39598500Y10970198D01*
D52*
X41973200Y17615200D02*
X41198800Y18389600D01*
D53*
X39596502Y10968200D02*
X39624000Y10995698D01*
X39624000Y10995698D02*
X39598500Y10970198D01*
D52*
X37173200Y17615200D02*
X37173200Y17098400D01*
X41198800Y18389600D02*
X37947600Y18389600D01*
D54*
G04 #@! TO.N,/USB_DP*
X43653000Y12395200D02*
X43851600Y12593800D01*
X42279597Y12838403D02*
X42547000Y12571000D01*
X42989199Y12571000D02*
X43019199Y12571000D01*
X43019199Y12571000D02*
X43194999Y12395200D01*
X39203603Y12838403D02*
X42279597Y12838403D01*
X39035700Y12367403D02*
X39035700Y12670500D01*
X39035700Y12670500D02*
X39203603Y12838403D01*
X42547000Y12571000D02*
X42989199Y12571000D01*
X43851600Y12593800D02*
X43901600Y12593800D01*
X43194999Y12395200D02*
X43653000Y12395200D01*
D51*
G04 #@! TO.N,/STATUS*
X58726799Y21285200D02*
X60119500Y21285200D01*
X57380400Y19375000D02*
X57380400Y20194800D01*
X58726799Y21236399D02*
X58726799Y21285200D01*
X57505600Y20320000D02*
X57810400Y20320000D01*
X57380400Y20194800D02*
X57505600Y20320000D01*
X57810400Y20320000D02*
X58726799Y21236399D01*
X60119500Y21285200D02*
X60299600Y21465300D01*
D52*
G04 #@! TO.N,+5VA*
X30581600Y16124501D02*
X30581600Y17899401D01*
D53*
X27642399Y17899401D02*
X27903598Y18160600D01*
D57*
X27635200Y17906600D02*
X27642399Y17899401D01*
D52*
X27660200Y18135600D02*
X27635200Y18160600D01*
X30345401Y18135600D02*
X27660200Y18135600D01*
X30581600Y17899401D02*
X30345401Y18135600D01*
D51*
G04 #@! TO.N,/TCK*
X60452000Y19303400D02*
X60380400Y19375000D01*
X31394400Y4622800D02*
X31394400Y6232200D01*
D54*
X31343600Y6181400D02*
X31394400Y6232200D01*
D51*
X60452000Y18186400D02*
X60452000Y19303400D01*
X31343600Y4572000D02*
X31394400Y4622800D01*
G04 #@! TO.N,/USB_IN_CC1*
X41605201Y14516602D02*
X41699201Y14422602D01*
X41605201Y15438600D02*
X41355800Y15438600D01*
X41355800Y15438600D02*
X40823200Y15971200D01*
X40823200Y15971200D02*
X40823200Y17098400D01*
X41605201Y15438600D02*
X41605201Y14516602D01*
D56*
X40823201Y16954403D02*
X40823202Y16954402D01*
D51*
G04 #@! TO.N,/USB_IN_CC2*
X37827698Y13311401D02*
X37733699Y13217402D01*
D56*
X37823200Y13306903D02*
X37733700Y13217403D01*
D51*
X37823200Y17098400D02*
X37823200Y14237900D01*
X37823200Y14237900D02*
X37827698Y14233402D01*
X37827698Y14233402D02*
X37827698Y13311401D01*
G04 #@! TO.N,Net-(D103-K)*
X57143367Y23063200D02*
X56388000Y23063200D01*
X57708800Y22656800D02*
X57607200Y22758400D01*
X56388000Y23063200D02*
X56134000Y23317200D01*
X57607200Y22758400D02*
X57448167Y22758400D01*
X57448167Y22758400D02*
X57143367Y23063200D01*
X57708800Y22248401D02*
X57708800Y22656800D01*
D54*
G04 #@! TO.N,/USB_IN_DN*
X40110700Y14067403D02*
X40323200Y14279903D01*
X40323200Y17098400D02*
X40323200Y17690400D01*
X39624000Y17983200D02*
X39323200Y17682400D01*
X40030400Y17983200D02*
X39624000Y17983200D01*
X40323200Y14279903D02*
X40323200Y17098400D01*
X39323200Y17682400D02*
X39323200Y17098400D01*
X40323200Y17690400D02*
X40030400Y17983200D01*
G04 #@! TO.N,/USB_IN_DP*
X39035700Y16056100D02*
X39184800Y16205200D01*
X39522400Y16205200D02*
X39823200Y16506000D01*
X39150400Y16170800D02*
X39184800Y16205200D01*
X39035700Y14067403D02*
X39035700Y16056100D01*
X38823200Y16498000D02*
X39150400Y16170800D01*
X38823200Y17098400D02*
X38823200Y16498000D01*
X39184800Y16205200D02*
X39522400Y16205200D01*
X39823200Y16506000D02*
X39823200Y17098400D01*
D51*
G04 #@! TO.N,/TDO*
X58880400Y18996000D02*
X58880400Y19375000D01*
X59588400Y18288000D02*
X58880400Y18996000D01*
X32664400Y4572000D02*
X32664400Y6232200D01*
X59588400Y18186400D02*
X59588400Y18288000D01*
G04 #@! TO.N,Net-(D104-K)*
X60022500Y23063200D02*
X60299600Y23340300D01*
X58826400Y22758400D02*
X58985433Y22758400D01*
X58724800Y22656800D02*
X58826400Y22758400D01*
X59290233Y23063200D02*
X60022500Y23063200D01*
X58724800Y22248401D02*
X58724800Y22656800D01*
X58985433Y22758400D02*
X59290233Y23063200D01*
G04 #@! TO.N,/TMS*
X62191800Y18186400D02*
X63380400Y19375000D01*
X30124400Y4572000D02*
X30124400Y6232200D01*
G04 #@! TO.N,/TDI*
X61880400Y19056000D02*
X61880400Y19375000D01*
X61264800Y18186400D02*
X61264800Y18440400D01*
X61264800Y18440400D02*
X61880400Y19056000D01*
X33934400Y4572000D02*
X33934400Y6232200D01*
D54*
G04 #@! TO.N,/HDD_LED_N*
X22555200Y20700600D02*
X22555200Y18160600D01*
X22555200Y16556200D02*
X24417867Y14693533D01*
X22555200Y17906600D02*
X22555200Y16556200D01*
X24417867Y14693533D02*
X24417867Y12869467D01*
G04 #@! TO.N,/HDD_LED_P*
X24879800Y17691199D02*
X25095201Y17906600D01*
X24879800Y15409465D02*
X24879800Y17691199D01*
X25095201Y17906600D02*
X25298400Y17703401D01*
X25095200Y20700600D02*
X25095201Y18160600D01*
G04 #@! TO.N,/PWR_LED_N*
X18660534Y16975266D02*
X17729200Y17906600D01*
X17475200Y20700600D02*
X17475200Y18160600D01*
X18660534Y12869467D02*
X18660534Y16975266D01*
G04 #@! TO.N,/RST_SW_N*
X14935200Y13377467D02*
X14935200Y17906600D01*
X15443200Y12869467D02*
X14935200Y13377467D01*
X15443200Y12869467D02*
X15477067Y12903334D01*
X14935200Y20700600D02*
X14935200Y18160600D01*
G04 #@! TO.N,/PWR_LED_P*
X20015200Y15591000D02*
X20015200Y18160600D01*
X20015200Y20700600D02*
X20015200Y18160600D01*
X20015200Y17906600D02*
X20053800Y17868000D01*
X19833667Y15409467D02*
X20015200Y15591000D01*
G04 #@! TO.N,/PWR_SW_P*
X7315200Y18160600D02*
X7315200Y13038800D01*
X7315200Y13038800D02*
X7145867Y12869467D01*
X7315200Y20700600D02*
X7315200Y18160600D01*
X7366000Y17855800D02*
X7315200Y17906600D01*
G04 #@! TO.N,/RST_SW_P*
X12344400Y13428267D02*
X12344400Y17855801D01*
X12903200Y12869467D02*
X12937067Y12903334D01*
X12344400Y17855801D02*
X12395199Y17906600D01*
X12903200Y12869467D02*
X12344400Y13428267D01*
X12395200Y20700600D02*
X12395199Y18160600D01*
G04 #@! TO.N,/PWR_SW_N*
X9855200Y13038800D02*
X9855200Y17906600D01*
X9906000Y17855800D02*
X9855200Y17906600D01*
X9685867Y12869467D02*
X9855200Y13038800D01*
X9855200Y20700600D02*
X9855200Y18160600D01*
D51*
G04 #@! TO.N,/TX*
X56997600Y3149600D02*
X57380400Y2766800D01*
X57380400Y2766800D02*
X57380400Y1875000D01*
X46482000Y4267200D02*
X46482000Y5636000D01*
X56692800Y3149600D02*
X56997600Y3149600D01*
X46482000Y5636000D02*
X46466600Y5651400D01*
G04 #@! TO.N,/RX*
X47498000Y5432800D02*
X47716600Y5651400D01*
X55880400Y3149200D02*
X55880000Y3149600D01*
X47498000Y3759200D02*
X47498000Y5432800D01*
X55880400Y1875000D02*
X55880400Y3149200D01*
G04 #@! TO.N,/PWR_SW*
X7145867Y3979467D02*
X7162800Y3962534D01*
X66395600Y3149600D02*
X66380400Y3134400D01*
X66380400Y3134400D02*
X66380400Y1875000D01*
G04 #@! TO.N,/RST_SW*
X65582800Y3149600D02*
X65278000Y3149600D01*
X65278000Y3149600D02*
X64880400Y2752000D01*
X64880400Y2752000D02*
X64880400Y1875000D01*
G04 #@! TO.N,/PWR_LED*
X61925200Y3149600D02*
X61880400Y3104800D01*
X61880400Y3104800D02*
X61880400Y1875000D01*
G04 #@! TO.N,/HDD_LED*
X54406800Y3149600D02*
X54380400Y3123200D01*
X24417867Y3420533D02*
X25095200Y2743200D01*
X24417867Y3979467D02*
X24417867Y3420533D01*
X25095200Y2743200D02*
X25654000Y2743200D01*
X54380400Y3123200D02*
X54380400Y1875000D01*
D52*
G04 #@! TO.N,Net-(U104-VIN1)*
X39717199Y7932598D02*
X39573200Y8076597D01*
X41190800Y8538598D02*
X41190800Y9588599D01*
X41302399Y9700198D02*
X41302399Y10841299D01*
X40925150Y7932598D02*
X39717199Y7932598D01*
X41302399Y10841299D02*
X41173500Y10970198D01*
X41190800Y8538598D02*
X41190800Y8198248D01*
X41190800Y9588599D02*
X41302399Y9700198D01*
X41190800Y8198248D02*
X40925150Y7932598D01*
G04 #@! TO.N,Net-(U104-VIN2)*
X38911802Y6452598D02*
X40945798Y6452598D01*
X40945798Y6452598D02*
X41190800Y6697600D01*
X41190800Y6697600D02*
X41190800Y7058598D01*
X30814901Y14549499D02*
X38911802Y6452598D01*
X30581600Y14549499D02*
X30814901Y14549499D01*
D51*
G04 #@! TO.N,Net-(U101-IO2)*
X63380400Y1875000D02*
X63380400Y3385600D01*
D54*
X68832001Y4529934D02*
X68832001Y4531933D01*
D51*
X63380400Y3385600D02*
X64526733Y4531933D01*
X64526733Y4531933D02*
X68832001Y4531933D01*
D54*
G04 #@! TO.N,/USB_EDN*
X59232800Y2227400D02*
X58880400Y1875000D01*
X45647399Y11231602D02*
X45647399Y10538199D01*
X45647399Y10538199D02*
X45472400Y10363200D01*
X45250401Y11628600D02*
X45647399Y11231602D01*
X58880400Y1875000D02*
X58880400Y1878200D01*
X59232800Y3149600D02*
X59232800Y2227400D01*
X44921598Y11628600D02*
X45250401Y11628600D01*
G04 #@! TO.N,/USB_EDP*
X60045600Y2209800D02*
X60380400Y1875000D01*
X46097401Y10538199D02*
X46272400Y10363200D01*
X60045600Y3342999D02*
X60045600Y2209800D01*
X46097401Y11417997D02*
X46097401Y10538199D01*
X44921598Y12593800D02*
X46097401Y11417997D01*
X60035799Y3352800D02*
X60045600Y3342999D01*
G04 #@! TO.N,Net-(U104-MODE)*
X40688801Y7056599D02*
X40690800Y7058598D01*
X39573200Y7056599D02*
X40688801Y7056599D01*
G04 #@! TO.N,Net-(U104-PR1)*
X40282401Y9700198D02*
X39413600Y9700198D01*
X40690800Y9291800D02*
X40282401Y9700198D01*
X40690800Y8538598D02*
X40690800Y9291800D01*
D51*
G04 #@! TO.N,/PWR_LED*
X19405600Y2641600D02*
X19913600Y2641600D01*
X18660534Y3386666D02*
X19405600Y2641600D01*
X18660534Y3979467D02*
X18660534Y3386666D01*
G04 #@! TO.N,/RST_SW*
X12903200Y3251200D02*
X13614400Y2540000D01*
X12903200Y3979467D02*
X12903200Y3251200D01*
X13614400Y2540000D02*
X14224000Y2540000D01*
G04 #@! TO.N,/PWR_SW*
X7145867Y2540000D02*
X8432800Y2540000D01*
X7145867Y3979467D02*
X7145867Y2540000D01*
D52*
G04 #@! TO.N,VBUS*
X37173200Y16192800D02*
X36017200Y15036800D01*
X36017200Y15036800D02*
X35643799Y15036800D01*
X35102800Y14495801D02*
X35102800Y12475431D01*
X35643799Y15036800D02*
X35102800Y14495801D01*
X37173200Y17098400D02*
X37173200Y16192800D01*
X35102800Y12475431D02*
X36608033Y10970198D01*
X36608033Y10970198D02*
X39598500Y10970198D01*
G04 #@! TD*
G04 #@! TA.AperFunction,Conductor*
G04 #@! TO.N,+3V3*
G36*
X51284300Y22747838D02*
G01*
X51338838Y22693300D01*
X51358800Y22618800D01*
X51358800Y18483200D01*
X51338838Y18408700D01*
X51284300Y18354162D01*
X51209800Y18334200D01*
X50088800Y18334200D01*
X50088799Y13809600D01*
X50068837Y13735100D01*
X50014299Y13680562D01*
X49939799Y13660600D01*
X48764600Y13660600D01*
X48690100Y13680562D01*
X48635562Y13735100D01*
X48615600Y13809600D01*
X48615600Y18334200D01*
X48104200Y18334200D01*
X48029700Y18354162D01*
X47975162Y18408700D01*
X47955200Y18483200D01*
X47955200Y22618800D01*
X47975162Y22693300D01*
X48029700Y22747838D01*
X48104200Y22767800D01*
X51209800Y22767800D01*
X51284300Y22747838D01*
G37*
G04 #@! TD.AperFunction*
G04 #@! TD*
G04 #@! TA.AperFunction,Conductor*
G04 #@! TO.N,+5V*
G36*
X52521039Y14199715D02*
G01*
X52566794Y14146911D01*
X52578000Y14095400D01*
X52578000Y8501400D01*
X52558315Y8434361D01*
X52505511Y8388606D01*
X52454000Y8377400D01*
X50873199Y8377400D01*
X50806160Y8397085D01*
X50760405Y8449889D01*
X50749199Y8501400D01*
X50749199Y10460200D01*
X50749200Y11781000D01*
X50749200Y14095400D01*
X50768885Y14162439D01*
X50821689Y14208194D01*
X50873200Y14219400D01*
X52454000Y14219400D01*
X52521039Y14199715D01*
G37*
G04 #@! TD.AperFunction*
G04 #@! TD*
G04 #@! TA.AperFunction,Conductor*
G04 #@! TO.N,GND*
G36*
X25165017Y5871793D02*
G01*
X25200981Y5822293D01*
X25200981Y5761107D01*
X25176829Y5721696D01*
X25127242Y5672110D01*
X25072725Y5644333D01*
X25042966Y5644148D01*
X25003028Y5649967D01*
X25003025Y5649967D01*
X23832711Y5649967D01*
X23832708Y5649967D01*
X23832707Y5649966D01*
X23822514Y5648481D01*
X23760686Y5639474D01*
X23649601Y5585167D01*
X23562166Y5497732D01*
X23521828Y5415219D01*
X23507860Y5386646D01*
X23497368Y5314630D01*
X23497367Y5314625D01*
X23497367Y2644312D01*
X23497367Y2644310D01*
X23497368Y2644307D01*
X23498452Y2636868D01*
X23507860Y2572288D01*
X23508270Y2571450D01*
X23508397Y2570550D01*
X23510131Y2564938D01*
X23509230Y2564660D01*
X23516842Y2510868D01*
X23488168Y2456817D01*
X23433201Y2429943D01*
X23419330Y2428967D01*
X22429385Y2428967D01*
X22371194Y2447874D01*
X22359381Y2457963D01*
X22150029Y2667315D01*
X22122252Y2721832D01*
X22121033Y2737319D01*
X22121033Y5314623D01*
X22121033Y5314624D01*
X22121033Y5314627D01*
X22110541Y5386646D01*
X22056234Y5497733D01*
X21968800Y5585167D01*
X21857713Y5639474D01*
X21785695Y5649967D01*
X21785691Y5649967D01*
X20615378Y5649967D01*
X20615375Y5649967D01*
X20615374Y5649966D01*
X20605181Y5648481D01*
X20543353Y5639474D01*
X20432268Y5585167D01*
X20344833Y5497732D01*
X20304495Y5415219D01*
X20290527Y5386646D01*
X20280035Y5314630D01*
X20280034Y5314625D01*
X20280034Y3063970D01*
X20261127Y3005779D01*
X20211627Y2969815D01*
X20150441Y2969815D01*
X20131538Y2978231D01*
X20068187Y3014807D01*
X19966327Y3042100D01*
X19860873Y3042100D01*
X19759013Y3014807D01*
X19729530Y2997786D01*
X19669685Y2985065D01*
X19613789Y3009952D01*
X19583196Y3062940D01*
X19581033Y3083523D01*
X19581033Y5314760D01*
X19599940Y5372951D01*
X19610030Y5384764D01*
X20086971Y5861704D01*
X20141487Y5889481D01*
X20156974Y5890700D01*
X25106826Y5890700D01*
X25165017Y5871793D01*
G37*
G04 #@! TD.AperFunction*
G04 #@! TA.AperFunction,Conductor*
G36*
X26032880Y5644976D02*
G01*
X26048169Y5645100D01*
X26061247Y5635760D01*
X26076532Y5630793D01*
X26085518Y5618425D01*
X26097959Y5609539D01*
X26103048Y5594296D01*
X26112496Y5581293D01*
X26112496Y5566004D01*
X26117338Y5551503D01*
X26112496Y5536180D01*
X26112496Y5520107D01*
X26105093Y5505434D01*
X26105770Y5505103D01*
X26102167Y5497734D01*
X26102167Y5497733D01*
X26047860Y5386646D01*
X26037368Y5314630D01*
X26037367Y5314625D01*
X26037367Y3155794D01*
X26018460Y3097603D01*
X25968960Y3061639D01*
X25907774Y3061639D01*
X25888870Y3070056D01*
X25808587Y3116407D01*
X25706727Y3143700D01*
X25601273Y3143700D01*
X25499413Y3116407D01*
X25499412Y3116407D01*
X25499410Y3116406D01*
X25486863Y3109162D01*
X25427015Y3096443D01*
X25371120Y3121331D01*
X25340529Y3174320D01*
X25338366Y3194900D01*
X25338366Y5314620D01*
X25338366Y5314623D01*
X25338366Y5314627D01*
X25338143Y5316153D01*
X25338221Y5316611D01*
X25338107Y5318197D01*
X25338498Y5318226D01*
X25348455Y5376459D01*
X25366100Y5400436D01*
X25586370Y5620704D01*
X25640886Y5648481D01*
X25656373Y5649700D01*
X26018341Y5649700D01*
X26032880Y5644976D01*
G37*
G04 #@! TD.AperFunction*
G04 #@! TA.AperFunction,Conductor*
G36*
X73764642Y24794576D02*
G01*
X74056230Y24776933D01*
X74068094Y24775493D01*
X74352495Y24723369D01*
X74364093Y24720510D01*
X74640134Y24634489D01*
X74651309Y24630252D01*
X74914979Y24511580D01*
X74925552Y24506030D01*
X74948124Y24492385D01*
X75172988Y24356448D01*
X75182826Y24349657D01*
X75410417Y24171350D01*
X75419366Y24163423D01*
X75623822Y23958967D01*
X75631749Y23950018D01*
X75810056Y23722427D01*
X75816847Y23712589D01*
X75966426Y23465159D01*
X75971982Y23454574D01*
X76090650Y23190911D01*
X76094889Y23179733D01*
X76180908Y22903698D01*
X76183769Y22892091D01*
X76235891Y22607697D01*
X76237332Y22595829D01*
X76254975Y22304244D01*
X76255156Y22298470D01*
X76255157Y22297987D01*
X76255157Y22246217D01*
X76255171Y22246046D01*
X76260620Y2869517D01*
X76260371Y2862479D01*
X76259513Y2850403D01*
X76255145Y2836955D01*
X76255144Y2789361D01*
X76254933Y2785890D01*
X76254933Y2785876D01*
X76237320Y2494781D01*
X76235879Y2482914D01*
X76183759Y2198522D01*
X76180898Y2186914D01*
X76094879Y1910877D01*
X76090640Y1899699D01*
X75971973Y1636037D01*
X75966417Y1625452D01*
X75816837Y1378021D01*
X75810046Y1368183D01*
X75631739Y1140592D01*
X75623812Y1131643D01*
X75419357Y927188D01*
X75410408Y919261D01*
X75182817Y740954D01*
X75172979Y734163D01*
X74925548Y584583D01*
X74914963Y579027D01*
X74651301Y460360D01*
X74640123Y456121D01*
X74364086Y370102D01*
X74352478Y367241D01*
X74068086Y315121D01*
X74056219Y313680D01*
X73764647Y296038D01*
X73758668Y295857D01*
X4925000Y295857D01*
X4866809Y314764D01*
X4830845Y364264D01*
X4826000Y394857D01*
X4826000Y5314625D01*
X6225367Y5314625D01*
X6225367Y2644312D01*
X6225367Y2644310D01*
X6225368Y2644307D01*
X6226452Y2636868D01*
X6235860Y2572287D01*
X6239453Y2564938D01*
X6290167Y2461201D01*
X6377601Y2373767D01*
X6488688Y2319460D01*
X6560706Y2308967D01*
X7731027Y2308968D01*
X7803046Y2319460D01*
X7843329Y2339153D01*
X7864374Y2349441D01*
X7907854Y2359500D01*
X8017396Y2359500D01*
X8075587Y2340593D01*
X8103132Y2310001D01*
X8112320Y2294087D01*
X8186887Y2219520D01*
X8278213Y2166793D01*
X8380073Y2139500D01*
X8380075Y2139500D01*
X8485525Y2139500D01*
X8485527Y2139500D01*
X8587387Y2166793D01*
X8678713Y2219520D01*
X8753280Y2294087D01*
X8779299Y2339155D01*
X8824767Y2380095D01*
X8885617Y2386491D01*
X8909540Y2375959D01*
X8910231Y2377370D01*
X8917600Y2373768D01*
X8917601Y2373767D01*
X9028688Y2319460D01*
X9100706Y2308967D01*
X10271027Y2308968D01*
X10343046Y2319460D01*
X10454133Y2373767D01*
X10541567Y2461201D01*
X10595874Y2572288D01*
X10606367Y2644306D01*
X10606366Y5314627D01*
X10606144Y5316148D01*
X10606222Y5316605D01*
X10606107Y5318197D01*
X10606499Y5318226D01*
X10616454Y5376456D01*
X10634104Y5400439D01*
X11577371Y6343704D01*
X11631887Y6371481D01*
X11647374Y6372700D01*
X16597226Y6372700D01*
X16655417Y6353793D01*
X16691381Y6304293D01*
X16691381Y6243107D01*
X16667229Y6203696D01*
X16137795Y5674264D01*
X16083279Y5646487D01*
X16053521Y5646302D01*
X16028361Y5649967D01*
X14858044Y5649967D01*
X14858041Y5649967D01*
X14858040Y5649966D01*
X14847847Y5648481D01*
X14786019Y5639474D01*
X14674934Y5585167D01*
X14587499Y5497732D01*
X14547161Y5415219D01*
X14533193Y5386646D01*
X14522701Y5314630D01*
X14522700Y5314625D01*
X14522700Y3001477D01*
X14503793Y2943286D01*
X14454293Y2907322D01*
X14393107Y2907322D01*
X14384717Y2911055D01*
X14384581Y2910724D01*
X14378589Y2913206D01*
X14378588Y2913207D01*
X14378587Y2913207D01*
X14276727Y2940500D01*
X14171273Y2940500D01*
X14069413Y2913207D01*
X14069412Y2913207D01*
X14069410Y2913206D01*
X14069409Y2913206D01*
X13972468Y2857236D01*
X13970930Y2859900D01*
X13924963Y2843793D01*
X13866355Y2861365D01*
X13829269Y2910029D01*
X13823699Y2942762D01*
X13823699Y5314627D01*
X13813207Y5386646D01*
X13758900Y5497733D01*
X13671466Y5585167D01*
X13560379Y5639474D01*
X13488361Y5649967D01*
X13488357Y5649967D01*
X12318044Y5649967D01*
X12318041Y5649967D01*
X12318040Y5649966D01*
X12307847Y5648481D01*
X12246019Y5639474D01*
X12134934Y5585167D01*
X12047499Y5497732D01*
X12007161Y5415219D01*
X11993193Y5386646D01*
X11982701Y5314630D01*
X11982700Y5314625D01*
X11982700Y2644312D01*
X11982700Y2644310D01*
X11982701Y2644307D01*
X11983785Y2636868D01*
X11993193Y2572287D01*
X11996786Y2564938D01*
X12047500Y2461201D01*
X12134934Y2373767D01*
X12246021Y2319460D01*
X12318039Y2308967D01*
X13488360Y2308968D01*
X13560379Y2319460D01*
X13600662Y2339153D01*
X13621707Y2349441D01*
X13665187Y2359500D01*
X13808596Y2359500D01*
X13866787Y2340593D01*
X13894332Y2310001D01*
X13903520Y2294087D01*
X13978087Y2219520D01*
X14069413Y2166793D01*
X14171273Y2139500D01*
X14171275Y2139500D01*
X14276725Y2139500D01*
X14276727Y2139500D01*
X14378587Y2166793D01*
X14469913Y2219520D01*
X14544480Y2294087D01*
X14562871Y2325943D01*
X14608337Y2366881D01*
X14669187Y2373278D01*
X14692085Y2365383D01*
X14786021Y2319460D01*
X14858039Y2308967D01*
X16028360Y2308968D01*
X16100379Y2319460D01*
X16211466Y2373767D01*
X16298900Y2461201D01*
X16353207Y2572288D01*
X16363700Y2644306D01*
X16363699Y5314627D01*
X16361322Y5330941D01*
X16371640Y5391248D01*
X16389284Y5415219D01*
X17076771Y6102704D01*
X17131287Y6130481D01*
X17146774Y6131700D01*
X19607426Y6131700D01*
X19665617Y6112793D01*
X19701581Y6063293D01*
X19701581Y6002107D01*
X19677429Y5962696D01*
X19384688Y5669957D01*
X19330172Y5642180D01*
X19300412Y5641995D01*
X19270849Y5646302D01*
X19245695Y5649967D01*
X19245692Y5649967D01*
X18075378Y5649967D01*
X18075375Y5649967D01*
X18075374Y5649966D01*
X18065181Y5648481D01*
X18003353Y5639474D01*
X17892268Y5585167D01*
X17804833Y5497732D01*
X17764495Y5415219D01*
X17750527Y5386646D01*
X17740035Y5314630D01*
X17740034Y5314625D01*
X17740034Y2644312D01*
X17740034Y2644310D01*
X17740035Y2644307D01*
X17741119Y2636868D01*
X17750527Y2572287D01*
X17754120Y2564938D01*
X17804834Y2461201D01*
X17892268Y2373767D01*
X18003355Y2319460D01*
X18075373Y2308967D01*
X19245694Y2308968D01*
X19317713Y2319460D01*
X19428800Y2373767D01*
X19451918Y2396886D01*
X19506433Y2424661D01*
X19566865Y2415090D01*
X19591924Y2396884D01*
X19593118Y2395690D01*
X19593120Y2395687D01*
X19667687Y2321120D01*
X19759013Y2268393D01*
X19860873Y2241100D01*
X19860875Y2241100D01*
X19966325Y2241100D01*
X19966327Y2241100D01*
X20068187Y2268393D01*
X20159513Y2321120D01*
X20234080Y2395687D01*
X20234087Y2395701D01*
X20234098Y2395710D01*
X20238029Y2400833D01*
X20238978Y2400105D01*
X20279554Y2436642D01*
X20340404Y2443041D01*
X20389826Y2416209D01*
X20432268Y2373767D01*
X20543355Y2319460D01*
X20615373Y2308967D01*
X21702280Y2308968D01*
X21760471Y2290061D01*
X21772283Y2279972D01*
X22064914Y1987342D01*
X22123108Y1929148D01*
X22181026Y1905158D01*
X22181027Y1905157D01*
X22182266Y1904644D01*
X22222527Y1887967D01*
X22222528Y1887967D01*
X25986672Y1887967D01*
X25986673Y1887967D01*
X26044911Y1912091D01*
X26086093Y1929148D01*
X26436915Y2279972D01*
X26491432Y2307749D01*
X26506919Y2308968D01*
X27543022Y2308968D01*
X27543027Y2308968D01*
X27615046Y2319460D01*
X27726133Y2373767D01*
X27813567Y2461201D01*
X27867874Y2572288D01*
X27878367Y2644306D01*
X27878367Y3609967D01*
X27897274Y3668158D01*
X27946774Y3704122D01*
X27960670Y3707549D01*
X27968957Y3708967D01*
X28066273Y3708967D01*
X28124511Y3733091D01*
X28165693Y3750148D01*
X28436835Y4021290D01*
X28531050Y4115504D01*
X28585566Y4143281D01*
X28601053Y4144500D01*
X28749794Y4144500D01*
X29257794Y4144500D01*
X29310947Y4144500D01*
X29369138Y4125593D01*
X29380951Y4115504D01*
X29708023Y3788432D01*
X29735800Y3733915D01*
X29726229Y3673483D01*
X29693021Y3636113D01*
X29667527Y3619079D01*
X29667521Y3619073D01*
X29640890Y3579218D01*
X29640890Y3579217D01*
X29633900Y3544075D01*
X29633900Y1120326D01*
X29640890Y1085184D01*
X29640890Y1085183D01*
X29656162Y1062328D01*
X29667524Y1045324D01*
X29667527Y1045322D01*
X29707382Y1018691D01*
X29741585Y1011888D01*
X29742530Y1011700D01*
X29742532Y1011700D01*
X30506268Y1011700D01*
X30506270Y1011700D01*
X30541417Y1018691D01*
X30581276Y1045324D01*
X30581278Y1045328D01*
X30585591Y1049640D01*
X30640107Y1077420D01*
X30700539Y1067852D01*
X30743806Y1024589D01*
X30746163Y1019628D01*
X30772613Y959723D01*
X30851922Y880414D01*
X30954527Y835110D01*
X30979603Y832201D01*
X31244398Y832201D01*
X31244400Y832202D01*
X31244400Y2182199D01*
X31544400Y2182199D01*
X31544400Y832202D01*
X31544401Y832201D01*
X31809190Y832201D01*
X31809191Y832202D01*
X31834274Y835110D01*
X31936877Y880414D01*
X31959396Y902932D01*
X32013913Y930709D01*
X32074345Y921138D01*
X32099404Y902932D01*
X32121922Y880414D01*
X32224527Y835110D01*
X32249603Y832201D01*
X32514398Y832201D01*
X32514400Y832202D01*
X32514400Y2182199D01*
X32514399Y2182200D01*
X31544401Y2182200D01*
X31544400Y2182199D01*
X31244400Y2182199D01*
X31244400Y3832199D01*
X31544400Y3832199D01*
X31544400Y2482201D01*
X31544401Y2482200D01*
X32514399Y2482200D01*
X32514400Y2482201D01*
X32514400Y3832199D01*
X32814400Y3832199D01*
X32814400Y832202D01*
X32814401Y832201D01*
X33079190Y832201D01*
X33079191Y832202D01*
X33104274Y835110D01*
X33206877Y880414D01*
X33286188Y959725D01*
X33312636Y1019626D01*
X33353436Y1065223D01*
X33413244Y1078129D01*
X33469217Y1053416D01*
X33473205Y1049644D01*
X33477521Y1045328D01*
X33477524Y1045324D01*
X33477527Y1045322D01*
X33517382Y1018691D01*
X33551585Y1011888D01*
X33552530Y1011700D01*
X33552532Y1011700D01*
X34316268Y1011700D01*
X34316270Y1011700D01*
X34351417Y1018691D01*
X34391276Y1045324D01*
X34391278Y1045328D01*
X34395591Y1049640D01*
X34450107Y1077420D01*
X34510539Y1067852D01*
X34553806Y1024589D01*
X34556163Y1019628D01*
X34582613Y959723D01*
X34661922Y880414D01*
X34764527Y835110D01*
X34789603Y832201D01*
X35054398Y832201D01*
X35054400Y832202D01*
X35054400Y2182199D01*
X35354400Y2182199D01*
X35354400Y832202D01*
X35354401Y832201D01*
X35619190Y832201D01*
X35619191Y832202D01*
X35644274Y835110D01*
X35746877Y880414D01*
X35826186Y959723D01*
X35871490Y1062328D01*
X35874399Y1087403D01*
X35874400Y1087405D01*
X35874400Y2182199D01*
X35874399Y2182200D01*
X35354401Y2182200D01*
X35354400Y2182199D01*
X35054400Y2182199D01*
X35054400Y3832199D01*
X35354400Y3832199D01*
X35354400Y2482201D01*
X35354401Y2482200D01*
X35874398Y2482200D01*
X35874399Y2482201D01*
X35874399Y3576990D01*
X35874398Y3576992D01*
X35871490Y3602075D01*
X35826186Y3704678D01*
X35746877Y3783987D01*
X35644272Y3829291D01*
X35619197Y3832200D01*
X35354401Y3832200D01*
X35354400Y3832199D01*
X35054400Y3832199D01*
X35054399Y3832200D01*
X34789610Y3832200D01*
X34789607Y3832199D01*
X34764525Y3829291D01*
X34661922Y3783987D01*
X34582613Y3704678D01*
X34556163Y3644773D01*
X34515362Y3599177D01*
X34455553Y3586272D01*
X34399581Y3610986D01*
X34395594Y3614757D01*
X34391278Y3619073D01*
X34391276Y3619076D01*
X34391272Y3619079D01*
X34351417Y3645710D01*
X34316274Y3652700D01*
X34316270Y3652700D01*
X33552530Y3652700D01*
X33552525Y3652700D01*
X33517383Y3645710D01*
X33517382Y3645710D01*
X33477522Y3619075D01*
X33473201Y3614754D01*
X33418684Y3586979D01*
X33358252Y3596553D01*
X33314989Y3639820D01*
X33312636Y3644774D01*
X33286187Y3704677D01*
X33206877Y3783987D01*
X33104272Y3829291D01*
X33079197Y3832200D01*
X32814401Y3832200D01*
X32814400Y3832199D01*
X32514400Y3832199D01*
X32514399Y3832200D01*
X32249610Y3832200D01*
X32249607Y3832199D01*
X32224525Y3829291D01*
X32121922Y3783987D01*
X32099404Y3761468D01*
X32044887Y3733691D01*
X31984455Y3743262D01*
X31959396Y3761468D01*
X31936877Y3783987D01*
X31834272Y3829291D01*
X31809197Y3832200D01*
X31544401Y3832200D01*
X31544400Y3832199D01*
X31244400Y3832199D01*
X31244399Y3832200D01*
X30979610Y3832200D01*
X30979607Y3832199D01*
X30954525Y3829291D01*
X30851922Y3783987D01*
X30772613Y3704678D01*
X30746163Y3644773D01*
X30705362Y3599177D01*
X30645553Y3586272D01*
X30617731Y3593289D01*
X30591155Y3604291D01*
X30581276Y3619076D01*
X30541417Y3645709D01*
X30506270Y3652700D01*
X30474218Y3652700D01*
X30456033Y3660228D01*
X30447002Y3667938D01*
X30435709Y3671607D01*
X30424282Y3687334D01*
X30409499Y3699955D01*
X30406724Y3711501D01*
X30399745Y3721107D01*
X30394900Y3751700D01*
X30394900Y3808405D01*
X30394900Y3808406D01*
X30372399Y3862727D01*
X30371308Y3865360D01*
X30366927Y3875937D01*
X30353719Y3907826D01*
X30229697Y4031848D01*
X30227296Y4036560D01*
X41496100Y4036560D01*
X41496100Y1466240D01*
X41506593Y1394222D01*
X41560900Y1283135D01*
X41648335Y1195700D01*
X41759422Y1141393D01*
X41831440Y1130900D01*
X41831443Y1130900D01*
X43501757Y1130900D01*
X43501760Y1130900D01*
X43573778Y1141393D01*
X43684865Y1195700D01*
X43772300Y1283135D01*
X43826607Y1394222D01*
X43837100Y1466240D01*
X43837100Y3811927D01*
X47097500Y3811927D01*
X47097500Y3706473D01*
X47124793Y3604613D01*
X47124794Y3604611D01*
X47124794Y3604610D01*
X47172024Y3522806D01*
X47177520Y3513287D01*
X47252087Y3438720D01*
X47343413Y3385993D01*
X47445273Y3358700D01*
X47445275Y3358700D01*
X47550725Y3358700D01*
X47550727Y3358700D01*
X47652587Y3385993D01*
X47743913Y3438720D01*
X47818480Y3513287D01*
X47871207Y3604613D01*
X47898500Y3706473D01*
X47898500Y3811927D01*
X47871207Y3913787D01*
X47818480Y4005113D01*
X47787033Y4036560D01*
X50346100Y4036560D01*
X50346100Y1466240D01*
X50356593Y1394222D01*
X50410900Y1283135D01*
X50498335Y1195700D01*
X50609422Y1141393D01*
X50681440Y1130900D01*
X50681443Y1130900D01*
X52351757Y1130900D01*
X52351760Y1130900D01*
X52423778Y1141393D01*
X52534865Y1195700D01*
X52622300Y1283135D01*
X52676607Y1394222D01*
X52687100Y1466240D01*
X52687100Y2636875D01*
X53809900Y2636875D01*
X53809900Y1113126D01*
X53816890Y1077984D01*
X53816890Y1077983D01*
X53838714Y1045322D01*
X53843524Y1038124D01*
X53843527Y1038122D01*
X53883382Y1011491D01*
X53917585Y1004688D01*
X53918530Y1004500D01*
X53918532Y1004500D01*
X54842268Y1004500D01*
X54842270Y1004500D01*
X54877417Y1011491D01*
X54917276Y1038124D01*
X54943909Y1077983D01*
X54950900Y1113130D01*
X54950900Y2636870D01*
X54950899Y2636875D01*
X55309900Y2636875D01*
X55309900Y1113126D01*
X55316890Y1077984D01*
X55316890Y1077983D01*
X55338714Y1045322D01*
X55343524Y1038124D01*
X55343527Y1038122D01*
X55383382Y1011491D01*
X55417585Y1004688D01*
X55418530Y1004500D01*
X55418532Y1004500D01*
X56342268Y1004500D01*
X56342270Y1004500D01*
X56377417Y1011491D01*
X56417276Y1038124D01*
X56443909Y1077983D01*
X56450900Y1113130D01*
X56450900Y2636870D01*
X56450809Y2637325D01*
X56447729Y2652814D01*
X56447810Y2653507D01*
X56447478Y2654120D01*
X56451398Y2683828D01*
X56454919Y2713575D01*
X56455392Y2714088D01*
X56455484Y2714779D01*
X56476122Y2736514D01*
X56496451Y2758505D01*
X56497134Y2758641D01*
X56497616Y2759148D01*
X56502709Y2759750D01*
X56556461Y2770443D01*
X56557781Y2770278D01*
X56564193Y2769432D01*
X56640073Y2749100D01*
X56718232Y2749100D01*
X56724679Y2748249D01*
X56746702Y2737736D01*
X56769915Y2730193D01*
X56773852Y2724774D01*
X56779895Y2721889D01*
X56791530Y2700442D01*
X56805879Y2680693D01*
X56806786Y2672322D01*
X56809072Y2668109D01*
X56808067Y2660501D01*
X56810247Y2640397D01*
X56809900Y2636874D01*
X56809900Y1113126D01*
X56816890Y1077984D01*
X56816890Y1077983D01*
X56838714Y1045322D01*
X56843524Y1038124D01*
X56843527Y1038122D01*
X56883382Y1011491D01*
X56917585Y1004688D01*
X56918530Y1004500D01*
X56918532Y1004500D01*
X57842268Y1004500D01*
X57842270Y1004500D01*
X57877417Y1011491D01*
X57917276Y1038124D01*
X57943909Y1077983D01*
X57950900Y1113130D01*
X57950900Y2636870D01*
X57950899Y2636875D01*
X58309900Y2636875D01*
X58309900Y1113126D01*
X58316890Y1077984D01*
X58316890Y1077983D01*
X58338714Y1045322D01*
X58343524Y1038124D01*
X58343527Y1038122D01*
X58383382Y1011491D01*
X58417585Y1004688D01*
X58418530Y1004500D01*
X58418532Y1004500D01*
X59342268Y1004500D01*
X59342270Y1004500D01*
X59377417Y1011491D01*
X59417276Y1038124D01*
X59443909Y1077983D01*
X59450900Y1113130D01*
X59450900Y2161725D01*
X59452803Y2181041D01*
X59453300Y2183540D01*
X59453300Y2762700D01*
X59462351Y2790560D01*
X59470620Y2818640D01*
X59472025Y2820334D01*
X59472207Y2820891D01*
X59472917Y2821407D01*
X59482291Y2832699D01*
X59553280Y2903687D01*
X59606007Y2995013D01*
X59608368Y3003828D01*
X59641691Y3055141D01*
X59698812Y3077068D01*
X59757913Y3061233D01*
X59773993Y3048213D01*
X59789886Y3032320D01*
X59789888Y3032319D01*
X59794475Y3027732D01*
X59792633Y3025891D01*
X59821013Y2984632D01*
X59825100Y2956479D01*
X59825100Y2711528D01*
X59817563Y2673640D01*
X59816890Y2672017D01*
X59809900Y2636875D01*
X59809900Y1113126D01*
X59816890Y1077984D01*
X59816890Y1077983D01*
X59838714Y1045322D01*
X59843524Y1038124D01*
X59843527Y1038122D01*
X59883382Y1011491D01*
X59917585Y1004688D01*
X59918530Y1004500D01*
X59918532Y1004500D01*
X60842268Y1004500D01*
X60842270Y1004500D01*
X60877417Y1011491D01*
X60917276Y1038124D01*
X60943909Y1077983D01*
X60950900Y1113130D01*
X60950900Y2636870D01*
X60950899Y2636875D01*
X61309900Y2636875D01*
X61309900Y1113126D01*
X61316890Y1077984D01*
X61316890Y1077983D01*
X61338714Y1045322D01*
X61343524Y1038124D01*
X61343527Y1038122D01*
X61383382Y1011491D01*
X61417585Y1004688D01*
X61418530Y1004500D01*
X61418532Y1004500D01*
X62342268Y1004500D01*
X62342270Y1004500D01*
X62377417Y1011491D01*
X62417276Y1038124D01*
X62443909Y1077983D01*
X62450900Y1113130D01*
X62450900Y2636870D01*
X62443909Y2672017D01*
X62443909Y2672018D01*
X62417278Y2711873D01*
X62417276Y2711876D01*
X62417272Y2711879D01*
X62377417Y2738510D01*
X62342274Y2745500D01*
X62342270Y2745500D01*
X62325051Y2745500D01*
X62266860Y2764407D01*
X62230896Y2813907D01*
X62230896Y2875093D01*
X62242855Y2897826D01*
X62242436Y2898068D01*
X62290849Y2981923D01*
X62298407Y2995013D01*
X62325700Y3096873D01*
X62325700Y3202327D01*
X62298407Y3304187D01*
X62295794Y3308712D01*
X62251175Y3385995D01*
X62245680Y3395513D01*
X62171113Y3470080D01*
X62165165Y3473514D01*
X62079789Y3522806D01*
X62079788Y3522807D01*
X62079787Y3522807D01*
X61977927Y3550100D01*
X61872473Y3550100D01*
X61770613Y3522807D01*
X61770612Y3522807D01*
X61770610Y3522806D01*
X61770609Y3522806D01*
X61679289Y3470082D01*
X61604718Y3395511D01*
X61551994Y3304191D01*
X61551994Y3304190D01*
X61551993Y3304188D01*
X61551993Y3304187D01*
X61524700Y3202327D01*
X61524700Y3096873D01*
X61549632Y3003826D01*
X61551994Y2995011D01*
X61551994Y2995010D01*
X61607964Y2898068D01*
X61606553Y2897254D01*
X61624315Y2847084D01*
X61606933Y2788420D01*
X61558389Y2751176D01*
X61525349Y2745500D01*
X61418525Y2745500D01*
X61383383Y2738510D01*
X61383382Y2738510D01*
X61343527Y2711879D01*
X61343521Y2711873D01*
X61316890Y2672018D01*
X61316890Y2672017D01*
X61309900Y2636875D01*
X60950899Y2636875D01*
X60943909Y2672017D01*
X60943909Y2672018D01*
X60917278Y2711873D01*
X60917276Y2711876D01*
X60917272Y2711879D01*
X60877417Y2738510D01*
X60842274Y2745500D01*
X60842270Y2745500D01*
X60365100Y2745500D01*
X60350188Y2750345D01*
X60334507Y2750345D01*
X60321821Y2759562D01*
X60306909Y2764407D01*
X60297692Y2777093D01*
X60285007Y2786309D01*
X60280161Y2801222D01*
X60270945Y2813907D01*
X60266100Y2844500D01*
X60266100Y2975701D01*
X60285007Y3033892D01*
X60295090Y3045699D01*
X60356279Y3106887D01*
X60409006Y3198213D01*
X60436299Y3300073D01*
X60436299Y3405527D01*
X60409006Y3507387D01*
X60400103Y3522807D01*
X60363054Y3586979D01*
X60356279Y3598713D01*
X60281712Y3673280D01*
X60281360Y3673483D01*
X60190388Y3726006D01*
X60190387Y3726007D01*
X60190386Y3726007D01*
X60088526Y3753300D01*
X59983072Y3753300D01*
X59881212Y3726007D01*
X59881211Y3726007D01*
X59881209Y3726006D01*
X59881208Y3726006D01*
X59789888Y3673282D01*
X59715317Y3598711D01*
X59662593Y3507391D01*
X59662590Y3507384D01*
X59660228Y3498568D01*
X59626901Y3447255D01*
X59569778Y3425332D01*
X59510678Y3441172D01*
X59494604Y3454189D01*
X59478713Y3470080D01*
X59472765Y3473514D01*
X59387389Y3522806D01*
X59387388Y3522807D01*
X59387387Y3522807D01*
X59285527Y3550100D01*
X59180073Y3550100D01*
X59078213Y3522807D01*
X59078212Y3522807D01*
X59078210Y3522806D01*
X59078209Y3522806D01*
X58986889Y3470082D01*
X58912318Y3395511D01*
X58859594Y3304191D01*
X58859594Y3304190D01*
X58859593Y3304188D01*
X58859593Y3304187D01*
X58832300Y3202327D01*
X58832300Y3096873D01*
X58857232Y3003826D01*
X58859594Y2995011D01*
X58859594Y2995010D01*
X58915564Y2898068D01*
X58914153Y2897254D01*
X58931915Y2847084D01*
X58914533Y2788420D01*
X58865989Y2751176D01*
X58832949Y2745500D01*
X58418525Y2745500D01*
X58383383Y2738510D01*
X58383382Y2738510D01*
X58343527Y2711879D01*
X58343521Y2711873D01*
X58316890Y2672018D01*
X58316890Y2672017D01*
X58309900Y2636875D01*
X57950899Y2636875D01*
X57943909Y2672017D01*
X57943909Y2672018D01*
X57917278Y2711873D01*
X57917276Y2711876D01*
X57917272Y2711879D01*
X57877417Y2738510D01*
X57842274Y2745500D01*
X57842270Y2745500D01*
X57650744Y2745500D01*
X57625166Y2753811D01*
X57599020Y2760086D01*
X57596395Y2763159D01*
X57592553Y2764407D01*
X57559282Y2806610D01*
X57554887Y2817220D01*
X57552852Y2822131D01*
X57552852Y2822134D01*
X57533421Y2869045D01*
X57099845Y3302621D01*
X57096057Y3304190D01*
X57087606Y3307691D01*
X57041081Y3347425D01*
X57039787Y3349599D01*
X57013280Y3395513D01*
X56938713Y3470080D01*
X56932765Y3473514D01*
X56847389Y3522806D01*
X56847388Y3522807D01*
X56847387Y3522807D01*
X56745527Y3550100D01*
X56640073Y3550100D01*
X56538213Y3522807D01*
X56538212Y3522807D01*
X56538210Y3522806D01*
X56538209Y3522806D01*
X56446889Y3470082D01*
X56372319Y3395512D01*
X56372135Y3395192D01*
X56371935Y3395012D01*
X56368371Y3390367D01*
X56367509Y3391028D01*
X56326664Y3354253D01*
X56265813Y3347859D01*
X56212826Y3378454D01*
X56200665Y3395192D01*
X56200481Y3395511D01*
X56200480Y3395513D01*
X56125913Y3470080D01*
X56119965Y3473514D01*
X56034589Y3522806D01*
X56034588Y3522807D01*
X56034587Y3522807D01*
X55932727Y3550100D01*
X55827273Y3550100D01*
X55725413Y3522807D01*
X55725412Y3522807D01*
X55725410Y3522806D01*
X55725409Y3522806D01*
X55634089Y3470082D01*
X55559518Y3395511D01*
X55506794Y3304191D01*
X55506794Y3304190D01*
X55506793Y3304188D01*
X55506793Y3304187D01*
X55479500Y3202327D01*
X55479500Y3096873D01*
X55504432Y3003826D01*
X55506794Y2995011D01*
X55506794Y2995010D01*
X55562764Y2898068D01*
X55561353Y2897254D01*
X55579115Y2847084D01*
X55561733Y2788420D01*
X55513189Y2751176D01*
X55480149Y2745500D01*
X55418525Y2745500D01*
X55383383Y2738510D01*
X55383382Y2738510D01*
X55343527Y2711879D01*
X55343521Y2711873D01*
X55316890Y2672018D01*
X55316890Y2672017D01*
X55309900Y2636875D01*
X54950899Y2636875D01*
X54943909Y2672017D01*
X54943909Y2672018D01*
X54917278Y2711873D01*
X54917276Y2711876D01*
X54917272Y2711879D01*
X54877417Y2738510D01*
X54842274Y2745500D01*
X54842270Y2745500D01*
X54806651Y2745500D01*
X54748460Y2764407D01*
X54712496Y2813907D01*
X54712496Y2875093D01*
X54724455Y2897826D01*
X54724036Y2898068D01*
X54772449Y2981923D01*
X54780007Y2995013D01*
X54807300Y3096873D01*
X54807300Y3202327D01*
X54780007Y3304187D01*
X54777394Y3308712D01*
X54732775Y3385995D01*
X54727280Y3395513D01*
X54652713Y3470080D01*
X54646765Y3473514D01*
X54561389Y3522806D01*
X54561388Y3522807D01*
X54561387Y3522807D01*
X54459527Y3550100D01*
X54354073Y3550100D01*
X54252213Y3522807D01*
X54252212Y3522807D01*
X54252210Y3522806D01*
X54252209Y3522806D01*
X54160889Y3470082D01*
X54086318Y3395511D01*
X54033594Y3304191D01*
X54033594Y3304190D01*
X54033593Y3304188D01*
X54033593Y3304187D01*
X54006300Y3202327D01*
X54006300Y3096873D01*
X54031232Y3003826D01*
X54033594Y2995011D01*
X54033594Y2995010D01*
X54089564Y2898068D01*
X54088153Y2897254D01*
X54105915Y2847084D01*
X54088533Y2788420D01*
X54039989Y2751176D01*
X54006949Y2745500D01*
X53918525Y2745500D01*
X53883383Y2738510D01*
X53883382Y2738510D01*
X53843527Y2711879D01*
X53843521Y2711873D01*
X53816890Y2672018D01*
X53816890Y2672017D01*
X53809900Y2636875D01*
X52687100Y2636875D01*
X52687100Y4036560D01*
X52676607Y4108578D01*
X52622300Y4219665D01*
X52534865Y4307100D01*
X52423778Y4361407D01*
X52351760Y4371900D01*
X50681440Y4371900D01*
X50609422Y4361407D01*
X50498336Y4307101D01*
X50410899Y4219664D01*
X50385688Y4168093D01*
X50356593Y4108578D01*
X50346100Y4036560D01*
X47787033Y4036560D01*
X47743913Y4079680D01*
X47716814Y4095326D01*
X47707655Y4104444D01*
X47699307Y4120736D01*
X47687058Y4134341D01*
X47683316Y4151945D01*
X47679754Y4158897D01*
X47680636Y4164553D01*
X47678500Y4174605D01*
X47678500Y4631900D01*
X47697407Y4690091D01*
X47746907Y4726055D01*
X47777500Y4730900D01*
X47954152Y4730900D01*
X47954154Y4730900D01*
X48000831Y4737045D01*
X48103267Y4784812D01*
X48161216Y4842762D01*
X48215730Y4870538D01*
X48276162Y4860967D01*
X48319427Y4817703D01*
X48322577Y4810536D01*
X48323247Y4809310D01*
X48409407Y4694216D01*
X48409415Y4694208D01*
X48524509Y4608048D01*
X48524511Y4608047D01*
X48659218Y4557804D01*
X48659229Y4557802D01*
X48718776Y4551400D01*
X48816599Y4551400D01*
X48816600Y4551401D01*
X48816600Y5501399D01*
X49116600Y5501399D01*
X49116600Y4551401D01*
X49116601Y4551400D01*
X49214424Y4551400D01*
X49273970Y4557802D01*
X49273981Y4557804D01*
X49408688Y4608047D01*
X49408690Y4608048D01*
X49523784Y4694208D01*
X49523792Y4694216D01*
X49609952Y4809310D01*
X49609953Y4809312D01*
X49660196Y4944019D01*
X49660198Y4944030D01*
X49666600Y5003576D01*
X49666600Y5501399D01*
X49666599Y5501400D01*
X49116601Y5501400D01*
X49116600Y5501399D01*
X48816600Y5501399D01*
X48816600Y6751399D01*
X49116600Y6751399D01*
X49116600Y5801401D01*
X49116601Y5801400D01*
X49666599Y5801400D01*
X49666600Y5801401D01*
X49666600Y6299225D01*
X49660198Y6358771D01*
X49660196Y6358782D01*
X49609953Y6493489D01*
X49609952Y6493491D01*
X49523792Y6608585D01*
X49523784Y6608593D01*
X49408690Y6694753D01*
X49408688Y6694754D01*
X49273981Y6744997D01*
X49273970Y6744999D01*
X49214424Y6751400D01*
X49116601Y6751400D01*
X49116600Y6751399D01*
X48816600Y6751399D01*
X48816599Y6751400D01*
X48718776Y6751400D01*
X48659229Y6744999D01*
X48659218Y6744997D01*
X48524511Y6694754D01*
X48524509Y6694753D01*
X48409415Y6608593D01*
X48409407Y6608585D01*
X48323247Y6493491D01*
X48319854Y6487276D01*
X48318206Y6488176D01*
X48285911Y6447523D01*
X48226961Y6431136D01*
X48169637Y6452528D01*
X48161223Y6460032D01*
X48103267Y6517988D01*
X48103265Y6517989D01*
X48103264Y6517990D01*
X48000833Y6565755D01*
X47969713Y6569852D01*
X47954154Y6571900D01*
X47479046Y6571900D01*
X47463487Y6569852D01*
X47432367Y6565755D01*
X47432366Y6565755D01*
X47329935Y6517990D01*
X47250010Y6438065D01*
X47202245Y6335634D01*
X47202245Y6335633D01*
X47202245Y6335631D01*
X47196100Y6288954D01*
X47196100Y5013846D01*
X47197452Y5003576D01*
X47202245Y4967168D01*
X47202245Y4967167D01*
X47250010Y4864736D01*
X47250011Y4864735D01*
X47250012Y4864733D01*
X47288505Y4826240D01*
X47316281Y4771725D01*
X47317500Y4756238D01*
X47317500Y4174605D01*
X47298593Y4116414D01*
X47268003Y4088870D01*
X47252089Y4079682D01*
X47177518Y4005111D01*
X47124794Y3913791D01*
X47124794Y3913790D01*
X47124793Y3913788D01*
X47124793Y3913787D01*
X47097500Y3811927D01*
X43837100Y3811927D01*
X43837100Y4036560D01*
X43826607Y4108578D01*
X43772300Y4219665D01*
X43684865Y4307100D01*
X43573778Y4361407D01*
X43501760Y4371900D01*
X41831440Y4371900D01*
X41759422Y4361407D01*
X41648336Y4307101D01*
X41560899Y4219664D01*
X41535688Y4168093D01*
X41506593Y4108578D01*
X41496100Y4036560D01*
X30227296Y4036560D01*
X30201920Y4086365D01*
X30211491Y4146797D01*
X30254756Y4190062D01*
X30274072Y4197477D01*
X30278987Y4198793D01*
X30370313Y4251520D01*
X30444880Y4326087D01*
X30497607Y4417413D01*
X30524900Y4519273D01*
X30524900Y4624727D01*
X30497607Y4726587D01*
X30471710Y4771442D01*
X30458989Y4831288D01*
X30483875Y4887183D01*
X30536863Y4917776D01*
X30538136Y4918038D01*
X30540298Y4918469D01*
X30541417Y4918691D01*
X30581276Y4945324D01*
X30607909Y4985183D01*
X30614900Y5020330D01*
X30614900Y7444070D01*
X30614899Y7444075D01*
X30903900Y7444075D01*
X30903900Y5020326D01*
X30910890Y4985184D01*
X30910890Y4985183D01*
X30929315Y4957609D01*
X30937524Y4945324D01*
X30937527Y4945322D01*
X30975278Y4920097D01*
X31013157Y4872047D01*
X31015559Y4810908D01*
X31006014Y4788285D01*
X30970393Y4726587D01*
X30943100Y4624727D01*
X30943100Y4519273D01*
X30969221Y4421787D01*
X30970394Y4417411D01*
X30970394Y4417410D01*
X31009190Y4350214D01*
X31023120Y4326087D01*
X31097687Y4251520D01*
X31189013Y4198793D01*
X31290873Y4171500D01*
X31290875Y4171500D01*
X31396325Y4171500D01*
X31396327Y4171500D01*
X31498187Y4198793D01*
X31589513Y4251520D01*
X31664080Y4326087D01*
X31716807Y4417413D01*
X31744100Y4519273D01*
X31744100Y4624727D01*
X31716807Y4726587D01*
X31695652Y4763228D01*
X31682932Y4823075D01*
X31707819Y4878970D01*
X31760807Y4909563D01*
X31771698Y4911250D01*
X31776270Y4911700D01*
X31811417Y4918691D01*
X31851276Y4945324D01*
X31877909Y4985183D01*
X31884900Y5020330D01*
X31884900Y7444070D01*
X31884899Y7444075D01*
X32173900Y7444075D01*
X32173900Y5020326D01*
X32180890Y4985184D01*
X32180890Y4985183D01*
X32199315Y4957609D01*
X32207524Y4945324D01*
X32207527Y4945322D01*
X32247383Y4918691D01*
X32250664Y4918038D01*
X32255509Y4915325D01*
X32256392Y4914959D01*
X32256348Y4914855D01*
X32304049Y4888143D01*
X32329666Y4832578D01*
X32317730Y4772568D01*
X32317089Y4771441D01*
X32291193Y4726589D01*
X32277168Y4674245D01*
X32263900Y4624727D01*
X32263900Y4519273D01*
X32290021Y4421787D01*
X32291194Y4417411D01*
X32291194Y4417410D01*
X32329990Y4350214D01*
X32343920Y4326087D01*
X32418487Y4251520D01*
X32509813Y4198793D01*
X32611673Y4171500D01*
X32611675Y4171500D01*
X32717125Y4171500D01*
X32717127Y4171500D01*
X32818987Y4198793D01*
X32910313Y4251520D01*
X32984880Y4326087D01*
X33037607Y4417413D01*
X33064900Y4519273D01*
X33064900Y4624727D01*
X33037607Y4726587D01*
X33011710Y4771442D01*
X32998989Y4831288D01*
X33023875Y4887183D01*
X33076863Y4917776D01*
X33078136Y4918038D01*
X33080298Y4918469D01*
X33081417Y4918691D01*
X33121276Y4945324D01*
X33147909Y4985183D01*
X33154900Y5020330D01*
X33154900Y7444070D01*
X33154899Y7444075D01*
X33443900Y7444075D01*
X33443900Y5020326D01*
X33450890Y4985184D01*
X33450890Y4985183D01*
X33469315Y4957609D01*
X33477524Y4945324D01*
X33477527Y4945322D01*
X33517383Y4918691D01*
X33520664Y4918038D01*
X33525509Y4915325D01*
X33526392Y4914959D01*
X33526348Y4914855D01*
X33574049Y4888143D01*
X33599666Y4832578D01*
X33587730Y4772568D01*
X33587089Y4771441D01*
X33561193Y4726589D01*
X33547168Y4674245D01*
X33533900Y4624727D01*
X33533900Y4519273D01*
X33560021Y4421787D01*
X33561194Y4417411D01*
X33561194Y4417410D01*
X33599990Y4350214D01*
X33613920Y4326087D01*
X33688487Y4251520D01*
X33779813Y4198793D01*
X33881673Y4171500D01*
X33881675Y4171500D01*
X33987125Y4171500D01*
X33987127Y4171500D01*
X34088987Y4198793D01*
X34180313Y4251520D01*
X34254880Y4326087D01*
X34307607Y4417413D01*
X34334900Y4519273D01*
X34334900Y4624727D01*
X34307607Y4726587D01*
X34281710Y4771442D01*
X34268989Y4831288D01*
X34293875Y4887183D01*
X34346863Y4917776D01*
X34348136Y4918038D01*
X34350298Y4918469D01*
X34351417Y4918691D01*
X34391276Y4945324D01*
X34417909Y4985183D01*
X34424900Y5020330D01*
X34424900Y7444070D01*
X34424899Y7444075D01*
X34713900Y7444075D01*
X34713900Y5020326D01*
X34720890Y4985184D01*
X34720890Y4985183D01*
X34739315Y4957609D01*
X34747524Y4945324D01*
X34747527Y4945322D01*
X34787383Y4918691D01*
X34790664Y4918038D01*
X34795509Y4915325D01*
X34796392Y4914959D01*
X34796348Y4914855D01*
X34844049Y4888143D01*
X34869666Y4832578D01*
X34857730Y4772568D01*
X34857089Y4771441D01*
X34831193Y4726589D01*
X34817168Y4674245D01*
X34803900Y4624727D01*
X34803900Y4519273D01*
X34830021Y4421787D01*
X34831194Y4417411D01*
X34831194Y4417410D01*
X34869990Y4350214D01*
X34883920Y4326087D01*
X34958487Y4251520D01*
X35049813Y4198793D01*
X35151673Y4171500D01*
X35151675Y4171500D01*
X35257125Y4171500D01*
X35257127Y4171500D01*
X35358987Y4198793D01*
X35450313Y4251520D01*
X35524880Y4326087D01*
X35577607Y4417413D01*
X35604900Y4519273D01*
X35604900Y4624727D01*
X35577607Y4726587D01*
X35551710Y4771442D01*
X35538989Y4831288D01*
X35563875Y4887183D01*
X35616863Y4917776D01*
X35618136Y4918038D01*
X35620298Y4918469D01*
X35621417Y4918691D01*
X35661276Y4945324D01*
X35687909Y4985183D01*
X35694900Y5020330D01*
X35694900Y5638763D01*
X43826300Y5638763D01*
X43826300Y5528038D01*
X43854956Y5421094D01*
X43854958Y5421090D01*
X43910313Y5325212D01*
X43910315Y5325210D01*
X43910317Y5325207D01*
X43988607Y5246917D01*
X43988609Y5246916D01*
X43988611Y5246914D01*
X44084489Y5191559D01*
X44084493Y5191557D01*
X44191437Y5162901D01*
X44191439Y5162900D01*
X44191440Y5162900D01*
X44302161Y5162900D01*
X44302161Y5162901D01*
X44409107Y5191557D01*
X44494502Y5240860D01*
X44504988Y5246914D01*
X44504988Y5246915D01*
X44504993Y5246917D01*
X44527098Y5269023D01*
X44581613Y5296798D01*
X44642045Y5287227D01*
X44685310Y5243962D01*
X44696100Y5199017D01*
X44696100Y5013846D01*
X44697452Y5003576D01*
X44702245Y4967168D01*
X44702245Y4967167D01*
X44750010Y4864736D01*
X44750011Y4864735D01*
X44750012Y4864733D01*
X44829933Y4784812D01*
X44829934Y4784812D01*
X44829935Y4784811D01*
X44932366Y4737046D01*
X44932367Y4737046D01*
X44932369Y4737045D01*
X44979046Y4730900D01*
X44979047Y4730900D01*
X45454152Y4730900D01*
X45454154Y4730900D01*
X45500831Y4737045D01*
X45603267Y4784812D01*
X45683188Y4864733D01*
X45730955Y4967169D01*
X45737100Y5013846D01*
X45737100Y6288954D01*
X45946100Y6288954D01*
X45946100Y5013846D01*
X45947452Y5003576D01*
X45952245Y4967168D01*
X45952245Y4967167D01*
X46000010Y4864736D01*
X46000011Y4864735D01*
X46000012Y4864733D01*
X46079933Y4784812D01*
X46079934Y4784812D01*
X46079935Y4784811D01*
X46189233Y4733844D01*
X46188255Y4731748D01*
X46229629Y4703589D01*
X46250316Y4646007D01*
X46233206Y4587263D01*
X46221367Y4572961D01*
X46161519Y4513113D01*
X46108794Y4421791D01*
X46108794Y4421790D01*
X46108793Y4421788D01*
X46108793Y4421787D01*
X46081500Y4319927D01*
X46081500Y4214473D01*
X46108793Y4112613D01*
X46108794Y4112611D01*
X46108794Y4112610D01*
X46161518Y4021290D01*
X46161520Y4021287D01*
X46236087Y3946720D01*
X46327413Y3893993D01*
X46429273Y3866700D01*
X46429275Y3866700D01*
X46534725Y3866700D01*
X46534727Y3866700D01*
X46636587Y3893993D01*
X46727913Y3946720D01*
X46802480Y4021287D01*
X46855207Y4112613D01*
X46882500Y4214473D01*
X46882500Y4319927D01*
X46855207Y4421787D01*
X46802480Y4513113D01*
X46733309Y4582284D01*
X46705534Y4636798D01*
X46715105Y4697230D01*
X46758370Y4740495D01*
X46761423Y4741985D01*
X46853267Y4784812D01*
X46933188Y4864733D01*
X46980955Y4967169D01*
X46987100Y5013846D01*
X46987100Y6288954D01*
X46980955Y6335631D01*
X46977190Y6343704D01*
X46933189Y6438065D01*
X46933188Y6438066D01*
X46933188Y6438067D01*
X46853267Y6517988D01*
X46853265Y6517989D01*
X46853264Y6517990D01*
X46750833Y6565755D01*
X46719713Y6569852D01*
X46704154Y6571900D01*
X46229046Y6571900D01*
X46213487Y6569852D01*
X46182367Y6565755D01*
X46182366Y6565755D01*
X46079935Y6517990D01*
X46000010Y6438065D01*
X45952245Y6335634D01*
X45952245Y6335633D01*
X45952245Y6335631D01*
X45946100Y6288954D01*
X45737100Y6288954D01*
X45730955Y6335631D01*
X45727190Y6343704D01*
X45683189Y6438065D01*
X45683188Y6438066D01*
X45683188Y6438067D01*
X45603267Y6517988D01*
X45603265Y6517989D01*
X45603264Y6517990D01*
X45500833Y6565755D01*
X45469713Y6569852D01*
X45454154Y6571900D01*
X44979046Y6571900D01*
X44963487Y6569852D01*
X44932367Y6565755D01*
X44932366Y6565755D01*
X44829935Y6517990D01*
X44750010Y6438065D01*
X44702245Y6335634D01*
X44702245Y6335633D01*
X44696100Y6288953D01*
X44696100Y5967784D01*
X44677193Y5909593D01*
X44627693Y5873629D01*
X44566507Y5873629D01*
X44527098Y5897779D01*
X44504994Y5919882D01*
X44504988Y5919887D01*
X44409110Y5975242D01*
X44409106Y5975244D01*
X44302162Y6003900D01*
X44302160Y6003900D01*
X44191440Y6003900D01*
X44191437Y6003900D01*
X44084493Y5975244D01*
X44084489Y5975242D01*
X43988611Y5919887D01*
X43910313Y5841589D01*
X43854958Y5745711D01*
X43854956Y5745707D01*
X43826300Y5638763D01*
X35694900Y5638763D01*
X35694900Y7444070D01*
X35687909Y7479217D01*
X35687909Y7479218D01*
X35661278Y7519073D01*
X35661276Y7519076D01*
X35661272Y7519079D01*
X35621417Y7545710D01*
X35586274Y7552700D01*
X35586270Y7552700D01*
X34822530Y7552700D01*
X34822525Y7552700D01*
X34787383Y7545710D01*
X34787382Y7545710D01*
X34747527Y7519079D01*
X34747521Y7519073D01*
X34720890Y7479218D01*
X34720890Y7479217D01*
X34713900Y7444075D01*
X34424899Y7444075D01*
X34417909Y7479217D01*
X34417909Y7479218D01*
X34391278Y7519073D01*
X34391276Y7519076D01*
X34391272Y7519079D01*
X34351417Y7545710D01*
X34316274Y7552700D01*
X34316270Y7552700D01*
X33552530Y7552700D01*
X33552525Y7552700D01*
X33517383Y7545710D01*
X33517382Y7545710D01*
X33477527Y7519079D01*
X33477521Y7519073D01*
X33450890Y7479218D01*
X33450890Y7479217D01*
X33443900Y7444075D01*
X33154899Y7444075D01*
X33147909Y7479217D01*
X33147909Y7479218D01*
X33121278Y7519073D01*
X33121276Y7519076D01*
X33121272Y7519079D01*
X33081417Y7545710D01*
X33046274Y7552700D01*
X33046270Y7552700D01*
X32282530Y7552700D01*
X32282525Y7552700D01*
X32247383Y7545710D01*
X32247382Y7545710D01*
X32207527Y7519079D01*
X32207521Y7519073D01*
X32180890Y7479218D01*
X32180890Y7479217D01*
X32173900Y7444075D01*
X31884899Y7444075D01*
X31877909Y7479217D01*
X31877909Y7479218D01*
X31851278Y7519073D01*
X31851276Y7519076D01*
X31851272Y7519079D01*
X31811417Y7545710D01*
X31776274Y7552700D01*
X31776270Y7552700D01*
X31012530Y7552700D01*
X31012525Y7552700D01*
X30977383Y7545710D01*
X30977382Y7545710D01*
X30937527Y7519079D01*
X30937521Y7519073D01*
X30910890Y7479218D01*
X30910890Y7479217D01*
X30903900Y7444075D01*
X30614899Y7444075D01*
X30607909Y7479217D01*
X30607909Y7479218D01*
X30581278Y7519073D01*
X30581276Y7519076D01*
X30581272Y7519079D01*
X30541417Y7545710D01*
X30506274Y7552700D01*
X30506270Y7552700D01*
X29742530Y7552700D01*
X29742525Y7552700D01*
X29707383Y7545710D01*
X29707382Y7545710D01*
X29667527Y7519079D01*
X29667521Y7519073D01*
X29640890Y7479218D01*
X29640890Y7479217D01*
X29633900Y7444075D01*
X29633900Y6066580D01*
X29614993Y6008389D01*
X29565493Y5972425D01*
X29504307Y5972425D01*
X29497029Y5975110D01*
X29496710Y5975242D01*
X29389760Y6003900D01*
X29389758Y6003900D01*
X29279038Y6003900D01*
X29279035Y6003900D01*
X29172091Y5975244D01*
X29172087Y5975242D01*
X29076209Y5919887D01*
X28997911Y5841589D01*
X28942556Y5745711D01*
X28942554Y5745707D01*
X28913898Y5638763D01*
X28913898Y5528038D01*
X28942554Y5421094D01*
X28942556Y5421090D01*
X28997911Y5325212D01*
X28997913Y5325210D01*
X28997915Y5325207D01*
X29012105Y5311017D01*
X29039881Y5256502D01*
X29041100Y5241015D01*
X29041100Y4784500D01*
X29022193Y4726309D01*
X28972693Y4690345D01*
X28942100Y4685500D01*
X28394193Y4685500D01*
X28367021Y4674245D01*
X28294774Y4644321D01*
X28047369Y4396915D01*
X27992853Y4369138D01*
X27932421Y4378709D01*
X27889156Y4421974D01*
X27878366Y4466919D01*
X27878366Y5314623D01*
X27878366Y5314624D01*
X27878366Y5314627D01*
X27867874Y5386646D01*
X27813567Y5497733D01*
X27726133Y5585167D01*
X27615046Y5639474D01*
X27543028Y5649967D01*
X27543025Y5649967D01*
X27486715Y5649967D01*
X27428524Y5668874D01*
X27392560Y5718374D01*
X27392560Y5779560D01*
X27416709Y5818968D01*
X29542248Y7944504D01*
X29596765Y7972281D01*
X29612252Y7973500D01*
X32730904Y7973500D01*
X32762053Y7986402D01*
X32782668Y7994942D01*
X32797245Y8000979D01*
X33361770Y8565506D01*
X33416287Y8593282D01*
X33431774Y8594501D01*
X33788964Y8594501D01*
X33788966Y8594501D01*
X33863491Y8609324D01*
X33948006Y8665794D01*
X34004476Y8750309D01*
X34019300Y8824833D01*
X34019299Y9145166D01*
X34017016Y9156642D01*
X34004476Y9219690D01*
X34004476Y9219691D01*
X33948006Y9304206D01*
X33948002Y9304209D01*
X33948000Y9304211D01*
X33946596Y9305149D01*
X33944860Y9307351D01*
X33941110Y9311101D01*
X33941553Y9311545D01*
X33908717Y9353199D01*
X33906316Y9414338D01*
X33940310Y9465211D01*
X33962814Y9477564D01*
X33962796Y9477598D01*
X33964987Y9478757D01*
X33968913Y9480911D01*
X33969356Y9481067D01*
X34074863Y9558935D01*
X34074865Y9558937D01*
X34152735Y9664446D01*
X34196044Y9788217D01*
X34198799Y9817597D01*
X34198800Y9817600D01*
X34198800Y9854999D01*
X34198799Y9855000D01*
X31993601Y9855000D01*
X31993600Y9854999D01*
X31993600Y9817604D01*
X31995748Y9794691D01*
X31982354Y9734990D01*
X31936427Y9694563D01*
X31875509Y9688852D01*
X31855341Y9695727D01*
X31753633Y9743155D01*
X31722513Y9747252D01*
X31706954Y9749300D01*
X31081846Y9749300D01*
X31066287Y9747252D01*
X31035167Y9743155D01*
X31035166Y9743155D01*
X30932735Y9695390D01*
X30852810Y9615465D01*
X30805045Y9513034D01*
X30805045Y9513033D01*
X30798900Y9466353D01*
X30798900Y8991243D01*
X30802518Y8963760D01*
X30799891Y8949589D01*
X30802146Y8935353D01*
X30794454Y8920257D01*
X30791367Y8903599D01*
X30774371Y8880839D01*
X30739029Y8845496D01*
X30684515Y8817719D01*
X30669027Y8816500D01*
X30605201Y8816500D01*
X30547010Y8835407D01*
X30511046Y8884907D01*
X30510252Y8936971D01*
X30509566Y8937061D01*
X30510179Y8941722D01*
X30510157Y8943206D01*
X30510550Y8944560D01*
X30510555Y8944569D01*
X30516700Y8991246D01*
X30516700Y9466354D01*
X30510555Y9513031D01*
X30505552Y9523759D01*
X30462789Y9615465D01*
X30462788Y9615466D01*
X30462788Y9615467D01*
X30382867Y9695388D01*
X30382865Y9695389D01*
X30382864Y9695390D01*
X30280433Y9743155D01*
X30249313Y9747252D01*
X30233754Y9749300D01*
X29608646Y9749300D01*
X29593087Y9747252D01*
X29561967Y9743155D01*
X29561966Y9743155D01*
X29459535Y9695390D01*
X29379610Y9615465D01*
X29331845Y9513034D01*
X29331845Y9513033D01*
X29325700Y9466353D01*
X29325700Y9169500D01*
X29306793Y9111309D01*
X29257293Y9075345D01*
X29226700Y9070500D01*
X29174096Y9070500D01*
X29169420Y9068563D01*
X29140924Y9056760D01*
X29107754Y9043021D01*
X26827430Y6762696D01*
X26772913Y6734919D01*
X26757426Y6733700D01*
X11495696Y6733700D01*
X11476265Y6725652D01*
X11476263Y6725652D01*
X11429355Y6706222D01*
X10395241Y5672110D01*
X10340725Y5644333D01*
X10310966Y5644149D01*
X10271028Y5649967D01*
X10271025Y5649967D01*
X9100711Y5649967D01*
X9100708Y5649967D01*
X9100707Y5649966D01*
X9090514Y5648481D01*
X9028686Y5639474D01*
X8917601Y5585167D01*
X8830166Y5497732D01*
X8789828Y5415219D01*
X8775860Y5386646D01*
X8765368Y5314630D01*
X8765367Y5314625D01*
X8765367Y2981923D01*
X8746460Y2923732D01*
X8696960Y2887768D01*
X8635774Y2887768D01*
X8616872Y2896184D01*
X8587387Y2913207D01*
X8485527Y2940500D01*
X8380073Y2940500D01*
X8329143Y2926854D01*
X8278211Y2913207D01*
X8214865Y2876634D01*
X8155016Y2863913D01*
X8099121Y2888800D01*
X8068529Y2941789D01*
X8066366Y2962363D01*
X8066366Y5314627D01*
X8055874Y5386646D01*
X8001567Y5497733D01*
X7914133Y5585167D01*
X7803046Y5639474D01*
X7731028Y5649967D01*
X7731024Y5649967D01*
X6560711Y5649967D01*
X6560708Y5649967D01*
X6560707Y5649966D01*
X6550514Y5648481D01*
X6488686Y5639474D01*
X6377601Y5585167D01*
X6290166Y5497732D01*
X6249828Y5415219D01*
X6235860Y5386646D01*
X6225368Y5314630D01*
X6225367Y5314625D01*
X4826000Y5314625D01*
X4826000Y9146600D01*
X4844907Y9204791D01*
X4894407Y9240755D01*
X4925000Y9245600D01*
X28397199Y9245600D01*
X28397200Y9245600D01*
X28397200Y10630976D01*
X29146199Y10630976D01*
X29152601Y10571430D01*
X29152603Y10571419D01*
X29202846Y10436712D01*
X29202847Y10436710D01*
X29289007Y10321616D01*
X29289015Y10321608D01*
X29404109Y10235448D01*
X29404111Y10235447D01*
X29538818Y10185204D01*
X29538829Y10185202D01*
X29598376Y10178800D01*
X29771199Y10178800D01*
X29771200Y10178801D01*
X29771200Y10728799D01*
X30071200Y10728799D01*
X30071200Y10178801D01*
X30071201Y10178800D01*
X30244024Y10178800D01*
X30303570Y10185202D01*
X30303581Y10185204D01*
X30438288Y10235447D01*
X30438290Y10235448D01*
X30553384Y10321608D01*
X30553392Y10321616D01*
X30578547Y10355218D01*
X30628555Y10390471D01*
X30689734Y10389597D01*
X30737053Y10355218D01*
X30762207Y10321616D01*
X30762215Y10321608D01*
X30877309Y10235448D01*
X30877311Y10235447D01*
X31012018Y10185204D01*
X31012029Y10185202D01*
X31071576Y10178800D01*
X31244399Y10178800D01*
X31244400Y10178801D01*
X31244400Y10728799D01*
X31544400Y10728799D01*
X31544400Y10178801D01*
X31544401Y10178800D01*
X31717224Y10178800D01*
X31776770Y10185202D01*
X31776778Y10185204D01*
X31860003Y10216244D01*
X31921133Y10218864D01*
X31972127Y10185053D01*
X31977230Y10171371D01*
X31993601Y10155000D01*
X32463599Y10155000D01*
X32463600Y10155001D01*
X32463600Y10574999D01*
X32763600Y10574999D01*
X32763600Y10155001D01*
X32763601Y10155000D01*
X33428799Y10155000D01*
X33428800Y10155001D01*
X33428800Y10574999D01*
X33728800Y10574999D01*
X33728800Y10155001D01*
X33728801Y10155000D01*
X34198799Y10155000D01*
X34198800Y10155001D01*
X34198800Y10192400D01*
X34198799Y10192404D01*
X34196044Y10221784D01*
X34152735Y10345555D01*
X34074865Y10451064D01*
X34074863Y10451066D01*
X33969354Y10528936D01*
X33845583Y10572245D01*
X33816203Y10575000D01*
X33728801Y10575000D01*
X33728800Y10574999D01*
X33428800Y10574999D01*
X33428799Y10575000D01*
X33341396Y10575000D01*
X33312016Y10572245D01*
X33188240Y10528934D01*
X33154988Y10504392D01*
X33096941Y10485050D01*
X33038610Y10503521D01*
X33037412Y10504392D01*
X33004159Y10528934D01*
X32880383Y10572245D01*
X32851003Y10575000D01*
X32763601Y10575000D01*
X32763600Y10574999D01*
X32463600Y10574999D01*
X32463599Y10575000D01*
X32376196Y10575000D01*
X32346817Y10572245D01*
X32301096Y10556247D01*
X32239926Y10554875D01*
X32189632Y10589720D01*
X32169425Y10647472D01*
X32169400Y10649692D01*
X32169400Y10728799D01*
X32169399Y10728800D01*
X31544401Y10728800D01*
X31544400Y10728799D01*
X31244400Y10728799D01*
X31244399Y10728800D01*
X30071201Y10728800D01*
X30071200Y10728799D01*
X29771200Y10728799D01*
X29771199Y10728800D01*
X29146201Y10728800D01*
X29146200Y10728799D01*
X29146200Y10630976D01*
X29146199Y10630976D01*
X28397200Y10630976D01*
X28397200Y11126625D01*
X29146200Y11126625D01*
X29146200Y11028801D01*
X29146201Y11028800D01*
X29771199Y11028800D01*
X29771200Y11028801D01*
X29771200Y11578799D01*
X30071200Y11578799D01*
X30071200Y11028801D01*
X30071201Y11028800D01*
X31244399Y11028800D01*
X31244400Y11028801D01*
X31244400Y11578799D01*
X31544400Y11578799D01*
X31544400Y11028801D01*
X31544401Y11028800D01*
X32169399Y11028800D01*
X32169400Y11028801D01*
X32169400Y11126625D01*
X32162998Y11186171D01*
X32162996Y11186182D01*
X32112753Y11320889D01*
X32112752Y11320891D01*
X32026592Y11435985D01*
X32026584Y11435993D01*
X31911490Y11522153D01*
X31911488Y11522154D01*
X31776781Y11572397D01*
X31776770Y11572399D01*
X31717224Y11578800D01*
X31544401Y11578800D01*
X31544400Y11578799D01*
X31244400Y11578799D01*
X31244399Y11578800D01*
X31071576Y11578800D01*
X31012029Y11572399D01*
X31012018Y11572397D01*
X30877311Y11522154D01*
X30877309Y11522153D01*
X30762215Y11435993D01*
X30762210Y11435988D01*
X30737053Y11402382D01*
X30687044Y11367130D01*
X30625865Y11368004D01*
X30578547Y11402382D01*
X30553389Y11435988D01*
X30553384Y11435993D01*
X30438290Y11522153D01*
X30438288Y11522154D01*
X30303581Y11572397D01*
X30303570Y11572399D01*
X30244024Y11578800D01*
X30071201Y11578800D01*
X30071200Y11578799D01*
X29771200Y11578799D01*
X29771199Y11578800D01*
X29598376Y11578800D01*
X29538829Y11572399D01*
X29538818Y11572397D01*
X29404111Y11522154D01*
X29404109Y11522153D01*
X29289015Y11435993D01*
X29289007Y11435985D01*
X29202847Y11320891D01*
X29202846Y11320889D01*
X29152603Y11186182D01*
X29152601Y11186171D01*
X29146200Y11126625D01*
X28397200Y11126625D01*
X28397200Y14807998D01*
X29986100Y14807998D01*
X29986100Y14291007D01*
X29986101Y14290995D01*
X29992604Y14241592D01*
X29992604Y14241590D01*
X30043164Y14133166D01*
X30043165Y14133165D01*
X30043166Y14133163D01*
X30127763Y14048566D01*
X30236191Y13998005D01*
X30285601Y13991500D01*
X30877598Y13991501D01*
X30884696Y13992436D01*
X30928836Y13998245D01*
X30988996Y13987094D01*
X31011759Y13970096D01*
X38758576Y6223279D01*
X38799758Y6206221D01*
X38799759Y6206221D01*
X38857996Y6182098D01*
X38857997Y6182098D01*
X40999603Y6182098D01*
X40999604Y6182098D01*
X41057842Y6206222D01*
X41099024Y6223279D01*
X41420119Y6544374D01*
X41423212Y6551843D01*
X41462945Y6598369D01*
X41522439Y6612656D01*
X41533984Y6611060D01*
X41574009Y6603098D01*
X41807590Y6603099D01*
X41807594Y6603100D01*
X41807596Y6603100D01*
X41823860Y6606336D01*
X41857326Y6612991D01*
X41885797Y6632015D01*
X41944685Y6648625D01*
X41995800Y6632017D01*
X42024274Y6612991D01*
X42074009Y6603098D01*
X42307590Y6603099D01*
X42307594Y6603100D01*
X42307596Y6603100D01*
X42323860Y6606336D01*
X42357326Y6612991D01*
X42413723Y6650675D01*
X42451407Y6707072D01*
X42461300Y6756807D01*
X42461299Y7360388D01*
X42458233Y7375802D01*
X42453964Y7397268D01*
X42451407Y7410124D01*
X42451405Y7410126D01*
X42449050Y7415814D01*
X42444249Y7476811D01*
X42476218Y7528980D01*
X42532746Y7552395D01*
X42540514Y7552700D01*
X50229704Y7552700D01*
X50229705Y7552700D01*
X50287943Y7576824D01*
X50329125Y7593881D01*
X50958148Y8222904D01*
X51012665Y8250681D01*
X51028152Y8251900D01*
X52453995Y8251900D01*
X52454000Y8251900D01*
X52480678Y8254768D01*
X52532189Y8265974D01*
X52587696Y8293759D01*
X52640500Y8339514D01*
X52678731Y8399003D01*
X52698416Y8466042D01*
X52703500Y8501400D01*
X52703500Y14095400D01*
X52700632Y14122078D01*
X52689426Y14173589D01*
X52661641Y14229096D01*
X52615886Y14281900D01*
X52582990Y14303041D01*
X52556398Y14320131D01*
X52489355Y14339817D01*
X52454000Y14344900D01*
X50873200Y14344900D01*
X50846522Y14342032D01*
X50846515Y14342031D01*
X50846506Y14342029D01*
X50795013Y14330827D01*
X50795012Y14330827D01*
X50739505Y14303042D01*
X50739504Y14303041D01*
X50704375Y14272601D01*
X50686698Y14257284D01*
X50686697Y14257282D01*
X50648469Y14197799D01*
X50628783Y14130756D01*
X50623699Y14095400D01*
X50623699Y11860694D01*
X50604792Y11802503D01*
X50555292Y11766539D01*
X50494106Y11766539D01*
X50464882Y11781809D01*
X50458932Y11786321D01*
X50458930Y11786322D01*
X50324668Y11839268D01*
X50240304Y11849400D01*
X50094462Y11849400D01*
X50036271Y11868307D01*
X50000307Y11917807D01*
X50000307Y11978993D01*
X50035133Y12027653D01*
X50073019Y12056015D01*
X50093873Y12071626D01*
X50179261Y12185690D01*
X50180889Y12190053D01*
X50223027Y12303032D01*
X50229054Y12319191D01*
X50235399Y12378209D01*
X50235398Y13722990D01*
X50229054Y13782009D01*
X50229053Y13782013D01*
X50220541Y13804835D01*
X50214299Y13839432D01*
X50214300Y18109700D01*
X50233207Y18167891D01*
X50282707Y18203855D01*
X50313300Y18208700D01*
X51209798Y18208700D01*
X51209800Y18208700D01*
X51242281Y18212976D01*
X51316781Y18232938D01*
X51373042Y18265420D01*
X51427580Y18319958D01*
X51460062Y18376219D01*
X51480024Y18450719D01*
X51484300Y18483200D01*
X51484300Y19224999D01*
X53630401Y19224999D01*
X53630401Y18580209D01*
X53633309Y18555126D01*
X53678613Y18452523D01*
X53757922Y18373214D01*
X53860527Y18327910D01*
X53885603Y18325001D01*
X54230398Y18325001D01*
X54230400Y18325002D01*
X54230400Y19224999D01*
X54230399Y19225000D01*
X53630402Y19225000D01*
X53630401Y19224999D01*
X51484300Y19224999D01*
X51484300Y20169798D01*
X53630400Y20169798D01*
X53630400Y19525001D01*
X53630401Y19525000D01*
X54230399Y19525000D01*
X54230400Y19525001D01*
X54230400Y20424999D01*
X54530400Y20424999D01*
X54530400Y18325002D01*
X54530401Y18325001D01*
X54875190Y18325001D01*
X54875191Y18325002D01*
X54900274Y18327910D01*
X55002877Y18373214D01*
X55082186Y18452523D01*
X55127490Y18555128D01*
X55129445Y18562311D01*
X55131729Y18561690D01*
X55152544Y18607144D01*
X55205852Y18637176D01*
X55266631Y18630139D01*
X55311667Y18588721D01*
X55316874Y18578022D01*
X55316889Y18577986D01*
X55332163Y18555126D01*
X55343524Y18538124D01*
X55343527Y18538122D01*
X55383382Y18511491D01*
X55417585Y18504688D01*
X55418530Y18504500D01*
X56180026Y18504500D01*
X56238217Y18485593D01*
X56250029Y18475504D01*
X56345627Y18379907D01*
X56438155Y18287379D01*
X56483251Y18268700D01*
X56504496Y18259900D01*
X56504497Y18259900D01*
X56576303Y18259900D01*
X58405826Y18259900D01*
X58464017Y18240993D01*
X58475830Y18230904D01*
X68672504Y8034230D01*
X68700281Y7979713D01*
X68701500Y7964226D01*
X68701500Y7604900D01*
X68682593Y7546709D01*
X68633093Y7510745D01*
X68602500Y7505900D01*
X68370125Y7505900D01*
X68334983Y7498910D01*
X68334982Y7498910D01*
X68295127Y7472279D01*
X68295121Y7472273D01*
X68268490Y7432418D01*
X68268490Y7432417D01*
X68261500Y7397275D01*
X68261500Y6623526D01*
X68268490Y6588384D01*
X68268490Y6588383D01*
X68295121Y6548528D01*
X68295124Y6548524D01*
X68295127Y6548522D01*
X68334982Y6521891D01*
X68354595Y6517990D01*
X68370130Y6514900D01*
X68582500Y6514900D01*
X68640691Y6495993D01*
X68676655Y6446493D01*
X68681500Y6415900D01*
X68681500Y6026794D01*
X68662593Y5968603D01*
X68628043Y5941367D01*
X68628465Y5940735D01*
X68620440Y5935374D01*
X68620387Y5935331D01*
X68620361Y5935321D01*
X68534191Y5877744D01*
X68534189Y5877742D01*
X68476616Y5791578D01*
X68476616Y5791577D01*
X68476615Y5791575D01*
X68461500Y5715587D01*
X68461500Y5324279D01*
X68476615Y5248291D01*
X68476616Y5248290D01*
X68476616Y5248289D01*
X68481580Y5240860D01*
X68534190Y5162123D01*
X68595594Y5121095D01*
X68633474Y5073045D01*
X68635876Y5011907D01*
X68601884Y4961033D01*
X68595594Y4956463D01*
X68512796Y4901141D01*
X68512792Y4901137D01*
X68456325Y4816627D01*
X68456323Y4816621D01*
X68451449Y4792118D01*
X68421552Y4738734D01*
X68365987Y4713119D01*
X68354352Y4712433D01*
X64490829Y4712433D01*
X64480057Y4707972D01*
X64473746Y4705357D01*
X64424489Y4684955D01*
X63227378Y3487844D01*
X63227377Y3487842D01*
X63213347Y3453969D01*
X63199900Y3421505D01*
X63199900Y2844500D01*
X63180993Y2786309D01*
X63131493Y2750345D01*
X63100900Y2745500D01*
X62918525Y2745500D01*
X62883383Y2738510D01*
X62883382Y2738510D01*
X62843527Y2711879D01*
X62843521Y2711873D01*
X62816890Y2672018D01*
X62816890Y2672017D01*
X62809900Y2636875D01*
X62809900Y1113126D01*
X62816890Y1077984D01*
X62816890Y1077983D01*
X62838714Y1045322D01*
X62843524Y1038124D01*
X62843527Y1038122D01*
X62883382Y1011491D01*
X62917585Y1004688D01*
X62918530Y1004500D01*
X62918532Y1004500D01*
X63842268Y1004500D01*
X63842270Y1004500D01*
X63877417Y1011491D01*
X63917276Y1038124D01*
X63943909Y1077983D01*
X63950900Y1113130D01*
X63950900Y2636870D01*
X63950899Y2636875D01*
X64309900Y2636875D01*
X64309900Y1113126D01*
X64316890Y1077984D01*
X64316890Y1077983D01*
X64338714Y1045322D01*
X64343524Y1038124D01*
X64343527Y1038122D01*
X64383382Y1011491D01*
X64417585Y1004688D01*
X64418530Y1004500D01*
X64418532Y1004500D01*
X65342268Y1004500D01*
X65342270Y1004500D01*
X65377417Y1011491D01*
X65417276Y1038124D01*
X65443909Y1077983D01*
X65450900Y1113130D01*
X65450900Y2636870D01*
X65450900Y2636874D01*
X65450553Y2640397D01*
X65453821Y2655294D01*
X65452192Y2670461D01*
X65460214Y2684431D01*
X65463666Y2700161D01*
X65475066Y2710292D01*
X65482663Y2723519D01*
X65495529Y2728475D01*
X65509403Y2740803D01*
X65538501Y2748534D01*
X65543770Y2749100D01*
X65635527Y2749100D01*
X65696936Y2765555D01*
X65704565Y2766374D01*
X65727360Y2761584D01*
X65750619Y2760364D01*
X65756737Y2755410D01*
X65764443Y2753790D01*
X65780069Y2736516D01*
X65798168Y2721859D01*
X65800205Y2714255D01*
X65805488Y2708415D01*
X65807976Y2685255D01*
X65814004Y2662759D01*
X65812238Y2648628D01*
X65809900Y2636878D01*
X65809900Y1113126D01*
X65816890Y1077984D01*
X65816890Y1077983D01*
X65838714Y1045322D01*
X65843524Y1038124D01*
X65843527Y1038122D01*
X65883382Y1011491D01*
X65917585Y1004688D01*
X65918530Y1004500D01*
X65918532Y1004500D01*
X66842268Y1004500D01*
X66842270Y1004500D01*
X66877417Y1011491D01*
X66917276Y1038124D01*
X66943909Y1077983D01*
X66950900Y1113130D01*
X66950900Y2636870D01*
X66943909Y2672017D01*
X66943909Y2672018D01*
X66917278Y2711873D01*
X66917276Y2711876D01*
X66917272Y2711879D01*
X66877417Y2738510D01*
X66842274Y2745500D01*
X66842270Y2745500D01*
X66795451Y2745500D01*
X66737260Y2764407D01*
X66701296Y2813907D01*
X66701296Y2875093D01*
X66713255Y2897826D01*
X66712836Y2898068D01*
X66761249Y2981923D01*
X66768807Y2995013D01*
X66789775Y3073266D01*
X72003200Y3073266D01*
X72003200Y2821338D01*
X72042608Y2572520D01*
X72120459Y2332921D01*
X72219011Y2139500D01*
X72234830Y2108455D01*
X72382907Y1904644D01*
X72561044Y1726507D01*
X72764855Y1578430D01*
X72989321Y1464059D01*
X73228915Y1386210D01*
X73228916Y1386210D01*
X73228919Y1386209D01*
X73477735Y1346800D01*
X73477738Y1346800D01*
X73729665Y1346800D01*
X73978480Y1386209D01*
X73978481Y1386210D01*
X73978485Y1386210D01*
X74218079Y1464059D01*
X74442545Y1578430D01*
X74646356Y1726507D01*
X74824493Y1904644D01*
X74972570Y2108455D01*
X75086941Y2332921D01*
X75164790Y2572515D01*
X75174985Y2636880D01*
X75204200Y2821338D01*
X75204200Y3073266D01*
X75164791Y3322081D01*
X75164790Y3322085D01*
X75086941Y3561679D01*
X74972570Y3786145D01*
X74824493Y3989956D01*
X74646356Y4168093D01*
X74442545Y4316170D01*
X74442544Y4316171D01*
X74442542Y4316172D01*
X74218079Y4430541D01*
X73978480Y4508392D01*
X73729665Y4547800D01*
X73729662Y4547800D01*
X73477738Y4547800D01*
X73477735Y4547800D01*
X73228919Y4508392D01*
X72989320Y4430541D01*
X72764857Y4316172D01*
X72561045Y4168094D01*
X72382906Y3989955D01*
X72234828Y3786143D01*
X72120459Y3561680D01*
X72042608Y3322081D01*
X72003200Y3073266D01*
X66789775Y3073266D01*
X66796100Y3096873D01*
X66796100Y3202327D01*
X66768807Y3304187D01*
X66766194Y3308712D01*
X66721575Y3385995D01*
X66716080Y3395513D01*
X66641513Y3470080D01*
X66635565Y3473514D01*
X66550189Y3522806D01*
X66550188Y3522807D01*
X66550187Y3522807D01*
X66448327Y3550100D01*
X66342873Y3550100D01*
X66241013Y3522807D01*
X66241012Y3522807D01*
X66241010Y3522806D01*
X66241009Y3522806D01*
X66149689Y3470082D01*
X66075119Y3395512D01*
X66074935Y3395192D01*
X66074735Y3395012D01*
X66071171Y3390367D01*
X66070309Y3391028D01*
X66029464Y3354253D01*
X65968613Y3347859D01*
X65915626Y3378454D01*
X65903465Y3395192D01*
X65903281Y3395511D01*
X65903280Y3395513D01*
X65828713Y3470080D01*
X65822765Y3473514D01*
X65737389Y3522806D01*
X65737388Y3522807D01*
X65737387Y3522807D01*
X65635527Y3550100D01*
X65530073Y3550100D01*
X65428213Y3522807D01*
X65428212Y3522807D01*
X65428210Y3522806D01*
X65428209Y3522806D01*
X65336889Y3470082D01*
X65262316Y3395509D01*
X65235840Y3349652D01*
X65190370Y3308712D01*
X65187994Y3307691D01*
X65175754Y3302621D01*
X64727378Y2854245D01*
X64713749Y2821340D01*
X64713749Y2821338D01*
X64707650Y2806614D01*
X64667913Y2760088D01*
X64616186Y2745500D01*
X64418525Y2745500D01*
X64383383Y2738510D01*
X64383382Y2738510D01*
X64343527Y2711879D01*
X64343521Y2711873D01*
X64316890Y2672018D01*
X64316890Y2672017D01*
X64309900Y2636875D01*
X63950899Y2636875D01*
X63943909Y2672017D01*
X63943909Y2672018D01*
X63917278Y2711873D01*
X63917276Y2711876D01*
X63917272Y2711879D01*
X63877417Y2738510D01*
X63842274Y2745500D01*
X63842270Y2745500D01*
X63659900Y2745500D01*
X63601709Y2764407D01*
X63565745Y2813907D01*
X63560900Y2844500D01*
X63560900Y3269826D01*
X63579807Y3328017D01*
X63589896Y3339830D01*
X64572503Y4322437D01*
X64627020Y4350214D01*
X64642507Y4351433D01*
X68354352Y4351433D01*
X68412543Y4332526D01*
X68448507Y4283026D01*
X68451450Y4271746D01*
X68456323Y4247244D01*
X68456323Y4247243D01*
X68456324Y4247242D01*
X68512794Y4162727D01*
X68597309Y4106257D01*
X68671833Y4091433D01*
X68992166Y4091434D01*
X69066691Y4106257D01*
X69151206Y4162727D01*
X69207676Y4247242D01*
X69222500Y4321766D01*
X69222499Y4742099D01*
X69207676Y4816624D01*
X69151206Y4901139D01*
X69098405Y4936419D01*
X69095905Y4939590D01*
X69092116Y4940988D01*
X69077176Y4963348D01*
X69060526Y4984468D01*
X69060367Y4988505D01*
X69058124Y4991862D01*
X69059179Y5018734D01*
X69058124Y5045606D01*
X69060367Y5048964D01*
X69060526Y5053000D01*
X69077176Y5074121D01*
X69092116Y5096480D01*
X69098406Y5101050D01*
X69103640Y5104548D01*
X69103642Y5104548D01*
X69167476Y5147201D01*
X69226363Y5163808D01*
X69283767Y5142630D01*
X69302131Y5123672D01*
X69367355Y5035297D01*
X69367363Y5035289D01*
X69462173Y4965316D01*
X69497766Y4915549D01*
X69497308Y4854365D01*
X69485703Y4830663D01*
X69476326Y4816629D01*
X69476323Y4816621D01*
X69461501Y4742110D01*
X69461500Y4742100D01*
X69461500Y4321770D01*
X69461501Y4321763D01*
X69476323Y4247244D01*
X69476324Y4247241D01*
X69518172Y4184610D01*
X69534780Y4125722D01*
X69516146Y4074166D01*
X69516761Y4073811D01*
X69514775Y4070373D01*
X69514408Y4069355D01*
X69513519Y4068197D01*
X69458156Y3972308D01*
X69458156Y3972307D01*
X69429500Y3865363D01*
X69429500Y3754638D01*
X69458156Y3647694D01*
X69458158Y3647690D01*
X69513513Y3551812D01*
X69513515Y3551810D01*
X69513517Y3551807D01*
X69591807Y3473517D01*
X69591809Y3473516D01*
X69591811Y3473514D01*
X69687689Y3418159D01*
X69687693Y3418157D01*
X69794637Y3389501D01*
X69794639Y3389500D01*
X69794640Y3389500D01*
X69905361Y3389500D01*
X69905361Y3389501D01*
X70012307Y3418157D01*
X70102240Y3470080D01*
X70108188Y3473514D01*
X70108188Y3473515D01*
X70108193Y3473517D01*
X70186483Y3551807D01*
X70241843Y3647693D01*
X70270500Y3754640D01*
X70270500Y3865360D01*
X70241843Y3972307D01*
X70241841Y3972311D01*
X70183239Y4073813D01*
X70184843Y4074740D01*
X70167315Y4124219D01*
X70183965Y4181824D01*
X70227676Y4247242D01*
X70242500Y4321766D01*
X70242499Y4742099D01*
X70227676Y4816624D01*
X70198481Y4860318D01*
X70181874Y4919205D01*
X70203052Y4976608D01*
X70222009Y4994972D01*
X70276639Y5035292D01*
X70276641Y5035294D01*
X70355405Y5142013D01*
X70399212Y5267206D01*
X70402000Y5296933D01*
X70402000Y5369932D01*
X70401999Y5369933D01*
X69921000Y5369933D01*
X69862809Y5388840D01*
X69826845Y5438340D01*
X69822000Y5468933D01*
X69822000Y5519932D01*
X69821999Y5519933D01*
X69771000Y5519933D01*
X69712809Y5538840D01*
X69676845Y5588340D01*
X69672000Y5618933D01*
X69672000Y6129932D01*
X69972000Y6129932D01*
X69972000Y5669934D01*
X69972001Y5669933D01*
X70401998Y5669933D01*
X70401999Y5669934D01*
X70401999Y5742937D01*
X70399213Y5772655D01*
X70399212Y5772660D01*
X70355405Y5897854D01*
X70276641Y6004573D01*
X70276639Y6004575D01*
X70169920Y6083339D01*
X70044727Y6127146D01*
X70015000Y6129933D01*
X69972001Y6129933D01*
X69972000Y6129932D01*
X69672000Y6129932D01*
X69672000Y6129934D01*
X69628997Y6129933D01*
X69599278Y6127147D01*
X69599273Y6127146D01*
X69474079Y6083339D01*
X69367360Y6004575D01*
X69367358Y6004573D01*
X69302131Y5916194D01*
X69292006Y5908954D01*
X69285298Y5898469D01*
X69267719Y5891585D01*
X69252363Y5880602D01*
X69239915Y5880696D01*
X69228326Y5876156D01*
X69210793Y5880914D01*
X69191179Y5881060D01*
X69169120Y5891592D01*
X69168254Y5892146D01*
X69103642Y5935318D01*
X69099489Y5936145D01*
X69088144Y5943403D01*
X69074016Y5960609D01*
X69057088Y5975068D01*
X69054441Y5984451D01*
X69049318Y5990691D01*
X69048424Y6005788D01*
X69042500Y6026794D01*
X69042500Y6415900D01*
X69061407Y6474091D01*
X69110907Y6510055D01*
X69141500Y6514900D01*
X69393868Y6514900D01*
X69393870Y6514900D01*
X69429017Y6521891D01*
X69468876Y6548524D01*
X69495509Y6588383D01*
X69502500Y6623530D01*
X69502500Y6730900D01*
X69521407Y6789091D01*
X69570907Y6825055D01*
X69601500Y6829900D01*
X74162500Y6829900D01*
X74220691Y6810993D01*
X74256655Y6761493D01*
X74261500Y6730900D01*
X74261500Y6623526D01*
X74268490Y6588384D01*
X74268490Y6588383D01*
X74295121Y6548528D01*
X74295124Y6548524D01*
X74295127Y6548522D01*
X74334982Y6521891D01*
X74354595Y6517990D01*
X74370130Y6514900D01*
X74370132Y6514900D01*
X75393868Y6514900D01*
X75393870Y6514900D01*
X75429017Y6521891D01*
X75468876Y6548524D01*
X75495509Y6588383D01*
X75502500Y6623530D01*
X75502500Y7397270D01*
X75495509Y7432417D01*
X75495509Y7432418D01*
X75468878Y7472273D01*
X75468876Y7472276D01*
X75468872Y7472279D01*
X75429017Y7498910D01*
X75393874Y7505900D01*
X75393870Y7505900D01*
X74370130Y7505900D01*
X74370125Y7505900D01*
X74334983Y7498910D01*
X74334982Y7498910D01*
X74295127Y7472279D01*
X74295121Y7472273D01*
X74268490Y7432418D01*
X74268490Y7432417D01*
X74261500Y7397275D01*
X74261500Y7289900D01*
X74242593Y7231709D01*
X74193093Y7195745D01*
X74162500Y7190900D01*
X69601500Y7190900D01*
X69543309Y7209807D01*
X69507345Y7259307D01*
X69502500Y7289900D01*
X69502500Y7397268D01*
X69502499Y7397275D01*
X69495509Y7432417D01*
X69495509Y7432418D01*
X69468878Y7472273D01*
X69468876Y7472276D01*
X69468872Y7472279D01*
X69429017Y7498910D01*
X69393874Y7505900D01*
X69393870Y7505900D01*
X69161500Y7505900D01*
X69103309Y7524807D01*
X69067345Y7574307D01*
X69062500Y7604900D01*
X69062500Y8115904D01*
X69043441Y8161916D01*
X69043439Y8161920D01*
X69035021Y8182244D01*
X69035021Y8182245D01*
X66606867Y10610399D01*
X68082001Y10610399D01*
X68082001Y10340609D01*
X68084909Y10315526D01*
X68130213Y10212923D01*
X68209522Y10133614D01*
X68312127Y10088310D01*
X68337203Y10085401D01*
X68731998Y10085401D01*
X68732000Y10085402D01*
X68732000Y10610399D01*
X69032000Y10610399D01*
X69032000Y10085402D01*
X69032001Y10085401D01*
X69426790Y10085401D01*
X69426791Y10085402D01*
X69451874Y10088310D01*
X69554477Y10133614D01*
X69633786Y10212923D01*
X69679090Y10315528D01*
X69681999Y10340603D01*
X69682000Y10340605D01*
X69682000Y10610399D01*
X74082001Y10610399D01*
X74082001Y10340609D01*
X74084909Y10315526D01*
X74130213Y10212923D01*
X74209522Y10133614D01*
X74312127Y10088310D01*
X74337203Y10085401D01*
X74731998Y10085401D01*
X74732000Y10085402D01*
X74732000Y10610399D01*
X75032000Y10610399D01*
X75032000Y10085402D01*
X75032001Y10085401D01*
X75426790Y10085401D01*
X75426791Y10085402D01*
X75451874Y10088310D01*
X75554477Y10133614D01*
X75633786Y10212923D01*
X75679090Y10315528D01*
X75681999Y10340603D01*
X75682000Y10340605D01*
X75682000Y10610399D01*
X75681999Y10610400D01*
X75032001Y10610400D01*
X75032000Y10610399D01*
X74732000Y10610399D01*
X74731999Y10610400D01*
X74082002Y10610400D01*
X74082001Y10610399D01*
X69682000Y10610399D01*
X69681999Y10610400D01*
X69032001Y10610400D01*
X69032000Y10610399D01*
X68732000Y10610399D01*
X68731999Y10610400D01*
X68082002Y10610400D01*
X68082001Y10610399D01*
X66606867Y10610399D01*
X66037068Y11180198D01*
X68082000Y11180198D01*
X68082000Y10910401D01*
X68082001Y10910400D01*
X68731999Y10910400D01*
X68732000Y10910401D01*
X68732000Y11435399D01*
X69032000Y11435399D01*
X69032000Y10910401D01*
X69032001Y10910400D01*
X69681998Y10910400D01*
X69681999Y10910401D01*
X69681999Y11180189D01*
X69681998Y11180193D01*
X69681997Y11180198D01*
X74082000Y11180198D01*
X74082000Y10910401D01*
X74082001Y10910400D01*
X74731999Y10910400D01*
X74732000Y10910401D01*
X74732000Y11435399D01*
X75032000Y11435399D01*
X75032000Y10910401D01*
X75032001Y10910400D01*
X75681998Y10910400D01*
X75681999Y10910401D01*
X75681999Y11180190D01*
X75681998Y11180192D01*
X75679090Y11205275D01*
X75633786Y11307878D01*
X75554477Y11387187D01*
X75451872Y11432491D01*
X75426797Y11435400D01*
X75032001Y11435400D01*
X75032000Y11435399D01*
X74732000Y11435399D01*
X74731999Y11435400D01*
X74337210Y11435400D01*
X74337207Y11435399D01*
X74312125Y11432491D01*
X74209522Y11387187D01*
X74130213Y11307878D01*
X74084909Y11205273D01*
X74082000Y11180198D01*
X69681997Y11180198D01*
X69679090Y11205275D01*
X69633786Y11307878D01*
X69554477Y11387187D01*
X69451872Y11432491D01*
X69426797Y11435400D01*
X69032001Y11435400D01*
X69032000Y11435399D01*
X68732000Y11435399D01*
X68731999Y11435400D01*
X68337210Y11435400D01*
X68337207Y11435399D01*
X68312125Y11432491D01*
X68209522Y11387187D01*
X68130213Y11307878D01*
X68084909Y11205273D01*
X68082000Y11180198D01*
X66037068Y11180198D01*
X63189467Y14027799D01*
X68084801Y14027799D01*
X68084801Y13758009D01*
X68087709Y13732926D01*
X68133013Y13630323D01*
X68212322Y13551014D01*
X68314927Y13505710D01*
X68340003Y13502801D01*
X68734798Y13502801D01*
X68734800Y13502802D01*
X68734800Y14027799D01*
X69034800Y14027799D01*
X69034800Y13502802D01*
X69034801Y13502801D01*
X69429590Y13502801D01*
X69429591Y13502802D01*
X69454674Y13505710D01*
X69557277Y13551014D01*
X69636586Y13630323D01*
X69681890Y13732928D01*
X69684799Y13758003D01*
X69684800Y13758005D01*
X69684800Y14027799D01*
X74084801Y14027799D01*
X74084801Y13758009D01*
X74087709Y13732926D01*
X74133013Y13630323D01*
X74212322Y13551014D01*
X74314927Y13505710D01*
X74340003Y13502801D01*
X74734798Y13502801D01*
X74734800Y13502802D01*
X74734800Y14027799D01*
X75034800Y14027799D01*
X75034800Y13502802D01*
X75034801Y13502801D01*
X75429590Y13502801D01*
X75429591Y13502802D01*
X75454674Y13505710D01*
X75557277Y13551014D01*
X75636586Y13630323D01*
X75681890Y13732928D01*
X75684799Y13758003D01*
X75684800Y13758005D01*
X75684800Y14027799D01*
X75684799Y14027800D01*
X75034801Y14027800D01*
X75034800Y14027799D01*
X74734800Y14027799D01*
X74734799Y14027800D01*
X74084802Y14027800D01*
X74084801Y14027799D01*
X69684800Y14027799D01*
X69684799Y14027800D01*
X69034801Y14027800D01*
X69034800Y14027799D01*
X68734800Y14027799D01*
X68734799Y14027800D01*
X68084802Y14027800D01*
X68084801Y14027799D01*
X63189467Y14027799D01*
X62619668Y14597598D01*
X68084800Y14597598D01*
X68084800Y14327801D01*
X68084801Y14327800D01*
X68734799Y14327800D01*
X68734800Y14327801D01*
X68734800Y14852799D01*
X69034800Y14852799D01*
X69034800Y14327801D01*
X69034801Y14327800D01*
X69684798Y14327800D01*
X69684799Y14327801D01*
X69684799Y14597589D01*
X69684798Y14597593D01*
X69684797Y14597598D01*
X74084800Y14597598D01*
X74084800Y14327801D01*
X74084801Y14327800D01*
X74734799Y14327800D01*
X74734800Y14327801D01*
X74734800Y14852799D01*
X75034800Y14852799D01*
X75034800Y14327801D01*
X75034801Y14327800D01*
X75684798Y14327800D01*
X75684799Y14327801D01*
X75684799Y14597590D01*
X75684798Y14597592D01*
X75681890Y14622675D01*
X75636586Y14725278D01*
X75557277Y14804587D01*
X75454672Y14849891D01*
X75429597Y14852800D01*
X75034801Y14852800D01*
X75034800Y14852799D01*
X74734800Y14852799D01*
X74734799Y14852800D01*
X74340010Y14852800D01*
X74340007Y14852799D01*
X74314925Y14849891D01*
X74212322Y14804587D01*
X74133013Y14725278D01*
X74087709Y14622673D01*
X74084800Y14597598D01*
X69684797Y14597598D01*
X69681890Y14622675D01*
X69636586Y14725278D01*
X69557277Y14804587D01*
X69454672Y14849891D01*
X69429597Y14852800D01*
X69034801Y14852800D01*
X69034800Y14852799D01*
X68734800Y14852799D01*
X68734799Y14852800D01*
X68340010Y14852800D01*
X68340007Y14852799D01*
X68314925Y14849891D01*
X68212322Y14804587D01*
X68133013Y14725278D01*
X68087709Y14622673D01*
X68084800Y14597598D01*
X62619668Y14597598D01*
X59596943Y17620323D01*
X59569166Y17674840D01*
X59578737Y17735272D01*
X59622002Y17778537D01*
X59641316Y17785951D01*
X59742987Y17813193D01*
X59834313Y17865920D01*
X59908880Y17940487D01*
X59934465Y17984803D01*
X59979933Y18025741D01*
X60040783Y18032137D01*
X60093771Y18001544D01*
X60105931Y17984808D01*
X60131520Y17940487D01*
X60206087Y17865920D01*
X60297413Y17813193D01*
X60399273Y17785900D01*
X60399275Y17785900D01*
X60504725Y17785900D01*
X60504727Y17785900D01*
X60606587Y17813193D01*
X60697913Y17865920D01*
X60772480Y17940487D01*
X60772662Y17940804D01*
X60772859Y17940981D01*
X60776429Y17945633D01*
X60777291Y17944972D01*
X60818130Y17981745D01*
X60878980Y17988143D01*
X60931969Y17957553D01*
X60944135Y17940806D01*
X60944320Y17940487D01*
X61018887Y17865920D01*
X61110213Y17813193D01*
X61212073Y17785900D01*
X61212075Y17785900D01*
X61317525Y17785900D01*
X61317527Y17785900D01*
X61419387Y17813193D01*
X61510713Y17865920D01*
X61585280Y17940487D01*
X61625095Y18009450D01*
X61641252Y18037433D01*
X61643127Y18036351D01*
X61676567Y18075509D01*
X61736061Y18089796D01*
X61792591Y18066385D01*
X61814134Y18036733D01*
X61815348Y18037433D01*
X61871318Y17940490D01*
X61871320Y17940487D01*
X61945887Y17865920D01*
X62037213Y17813193D01*
X62139073Y17785900D01*
X62139075Y17785900D01*
X62244525Y17785900D01*
X62244527Y17785900D01*
X62346387Y17813193D01*
X62437713Y17865920D01*
X62512280Y17940487D01*
X62512283Y17940494D01*
X62513356Y17941890D01*
X62514398Y17942607D01*
X62516868Y17945076D01*
X62517325Y17944619D01*
X62563780Y17976547D01*
X62624944Y17974947D01*
X62666564Y17944709D01*
X62666932Y17945076D01*
X62669251Y17942757D01*
X62670444Y17941890D01*
X62671518Y17940490D01*
X62671520Y17940487D01*
X62746087Y17865920D01*
X62837413Y17813193D01*
X62939273Y17785900D01*
X62939275Y17785900D01*
X63044725Y17785900D01*
X63044727Y17785900D01*
X63146587Y17813193D01*
X63237913Y17865920D01*
X63293498Y17921506D01*
X63348013Y17949281D01*
X63363500Y17950500D01*
X64598104Y17950500D01*
X64625768Y17961959D01*
X64664445Y17977979D01*
X64810397Y18123933D01*
X64864911Y18151709D01*
X64925343Y18142138D01*
X64950403Y18123932D01*
X65040980Y18033355D01*
X65040979Y18033355D01*
X65091754Y17982581D01*
X65091755Y17982580D01*
X65158096Y17955100D01*
X68165300Y17955100D01*
X68223491Y17936193D01*
X68259455Y17886693D01*
X68264300Y17856100D01*
X68264300Y17540926D01*
X68271290Y17505784D01*
X68271290Y17505783D01*
X68297921Y17465928D01*
X68297924Y17465924D01*
X68297927Y17465922D01*
X68337782Y17439291D01*
X68371985Y17432488D01*
X68372930Y17432300D01*
X68372932Y17432300D01*
X69396668Y17432300D01*
X69396670Y17432300D01*
X69431817Y17439291D01*
X69471676Y17465924D01*
X69498309Y17505783D01*
X69505300Y17540930D01*
X69505300Y17648300D01*
X69524207Y17706491D01*
X69573707Y17742455D01*
X69604300Y17747300D01*
X74165300Y17747300D01*
X74223491Y17728393D01*
X74259455Y17678893D01*
X74264300Y17648300D01*
X74264300Y17540926D01*
X74271290Y17505784D01*
X74271290Y17505783D01*
X74297921Y17465928D01*
X74297924Y17465924D01*
X74297927Y17465922D01*
X74337782Y17439291D01*
X74371985Y17432488D01*
X74372930Y17432300D01*
X74372932Y17432300D01*
X75396668Y17432300D01*
X75396670Y17432300D01*
X75431817Y17439291D01*
X75471676Y17465924D01*
X75498309Y17505783D01*
X75505300Y17540930D01*
X75505300Y18314670D01*
X75498309Y18349817D01*
X75498309Y18349818D01*
X75471678Y18389673D01*
X75471676Y18389676D01*
X75471672Y18389679D01*
X75431817Y18416310D01*
X75396674Y18423300D01*
X75396670Y18423300D01*
X74372930Y18423300D01*
X74372925Y18423300D01*
X74337783Y18416310D01*
X74337782Y18416310D01*
X74297927Y18389679D01*
X74297921Y18389673D01*
X74271290Y18349818D01*
X74271290Y18349817D01*
X74264300Y18314675D01*
X74264300Y18207300D01*
X74245393Y18149109D01*
X74195893Y18113145D01*
X74165300Y18108300D01*
X69604300Y18108300D01*
X69546109Y18127207D01*
X69510145Y18176707D01*
X69505300Y18207300D01*
X69505300Y18314668D01*
X69505299Y18314675D01*
X69498309Y18349817D01*
X69498309Y18349818D01*
X69471678Y18389673D01*
X69471676Y18389676D01*
X69471672Y18389679D01*
X69431817Y18416310D01*
X69396674Y18423300D01*
X69396670Y18423300D01*
X69141500Y18423300D01*
X69083309Y18442207D01*
X69047345Y18491707D01*
X69042500Y18522300D01*
X69042500Y18883407D01*
X69061407Y18941598D01*
X69088144Y18966798D01*
X69099486Y18974056D01*
X69103642Y18974882D01*
X69168289Y19018078D01*
X69169120Y19018609D01*
X69197794Y19026086D01*
X69226363Y19034142D01*
X69227329Y19033786D01*
X69228326Y19034045D01*
X69255932Y19023233D01*
X69283767Y19012964D01*
X69284754Y19011946D01*
X69285298Y19011732D01*
X69285954Y19010706D01*
X69302131Y18994006D01*
X69367355Y18905631D01*
X69367360Y18905626D01*
X69474079Y18826862D01*
X69599272Y18783055D01*
X69628999Y18780268D01*
X69672000Y18780269D01*
X69672000Y19240266D01*
X69972000Y19240266D01*
X69972000Y18780269D01*
X69972001Y18780268D01*
X70015004Y18780268D01*
X70044721Y18783054D01*
X70044726Y18783055D01*
X70169920Y18826862D01*
X70276639Y18905626D01*
X70276641Y18905628D01*
X70355405Y19012347D01*
X70399212Y19137540D01*
X70402000Y19167267D01*
X70402000Y19240266D01*
X70401999Y19240267D01*
X69972001Y19240267D01*
X69972000Y19240266D01*
X69672000Y19240266D01*
X69672000Y20000266D01*
X69972000Y20000266D01*
X69972000Y19540268D01*
X69972001Y19540267D01*
X70401998Y19540267D01*
X70401999Y19540268D01*
X70401999Y19613271D01*
X70399213Y19642989D01*
X70399212Y19642994D01*
X70355405Y19768188D01*
X70276641Y19874907D01*
X70276639Y19874909D01*
X70169920Y19953673D01*
X70044727Y19997480D01*
X70015000Y20000267D01*
X69972001Y20000267D01*
X69972000Y20000266D01*
X69672000Y20000266D01*
X69672000Y20000268D01*
X69628997Y20000267D01*
X69599278Y19997481D01*
X69599273Y19997480D01*
X69474079Y19953673D01*
X69367360Y19874909D01*
X69367358Y19874907D01*
X69302131Y19786528D01*
X69252363Y19750936D01*
X69191179Y19751394D01*
X69167475Y19763001D01*
X69103644Y19805651D01*
X69103643Y19805652D01*
X69103642Y19805652D01*
X69027654Y19820767D01*
X68696346Y19820767D01*
X68696345Y19820767D01*
X68677476Y19817014D01*
X68620358Y19805652D01*
X68620356Y19805652D01*
X68620356Y19805651D01*
X68620355Y19805651D01*
X68534191Y19748078D01*
X68534189Y19748076D01*
X68476616Y19661912D01*
X68476616Y19661911D01*
X68476615Y19661909D01*
X68461500Y19585921D01*
X68461500Y19194613D01*
X68476615Y19118625D01*
X68476616Y19118624D01*
X68476616Y19118623D01*
X68490746Y19097476D01*
X68534190Y19032457D01*
X68620358Y18974882D01*
X68620363Y18974881D01*
X68620382Y18974873D01*
X68620417Y18974844D01*
X68628466Y18969465D01*
X68627829Y18968513D01*
X68666909Y18935138D01*
X68681500Y18883407D01*
X68681500Y18522300D01*
X68662593Y18464109D01*
X68613093Y18428145D01*
X68582500Y18423300D01*
X68372925Y18423300D01*
X68337783Y18416310D01*
X68337782Y18416310D01*
X68297927Y18389679D01*
X68297921Y18389673D01*
X68278160Y18360098D01*
X68230109Y18322219D01*
X68195845Y18316100D01*
X66900286Y18316100D01*
X66842095Y18335007D01*
X66806131Y18384507D01*
X66806131Y18445693D01*
X66842095Y18495193D01*
X66868778Y18506865D01*
X66868408Y18507759D01*
X66877417Y18511491D01*
X66886714Y18517703D01*
X66917276Y18538124D01*
X66943909Y18577983D01*
X66950900Y18613130D01*
X66950900Y20136870D01*
X66943909Y20172017D01*
X66943909Y20172018D01*
X66917278Y20211873D01*
X66917276Y20211876D01*
X66917272Y20211879D01*
X66877417Y20238510D01*
X66842274Y20245500D01*
X66842270Y20245500D01*
X66765100Y20245500D01*
X66750188Y20250345D01*
X66734507Y20250345D01*
X66721821Y20259562D01*
X66706909Y20264407D01*
X66697692Y20277093D01*
X66685007Y20286309D01*
X66680161Y20301222D01*
X66670945Y20313907D01*
X66666100Y20344500D01*
X66666100Y20481904D01*
X66685007Y20540095D01*
X66710100Y20564220D01*
X66753408Y20593157D01*
X66753409Y20593158D01*
X66762305Y20606471D01*
X66776100Y20617347D01*
X66786429Y20631562D01*
X66799534Y20635821D01*
X66810355Y20644350D01*
X66844620Y20650469D01*
X66911780Y20650469D01*
X66969971Y20631562D01*
X66994095Y20606471D01*
X67002990Y20593159D01*
X67089158Y20535584D01*
X67165146Y20520469D01*
X67165147Y20520469D01*
X67556453Y20520469D01*
X67556454Y20520469D01*
X67632442Y20535584D01*
X67718610Y20593159D01*
X67727121Y20605897D01*
X67730197Y20610500D01*
X67743992Y20621377D01*
X67754322Y20635593D01*
X67767427Y20639852D01*
X67778246Y20648380D01*
X67812513Y20654500D01*
X68011616Y20654500D01*
X68069807Y20635593D01*
X68081619Y20625504D01*
X68118605Y20588519D01*
X68118611Y20588514D01*
X68214489Y20533159D01*
X68214493Y20533157D01*
X68321437Y20504501D01*
X68321439Y20504500D01*
X68321440Y20504500D01*
X68432161Y20504500D01*
X68432161Y20504501D01*
X68539107Y20533157D01*
X68634993Y20588517D01*
X68713283Y20666807D01*
X68720512Y20679327D01*
X68750231Y20730803D01*
X68768643Y20762693D01*
X68797300Y20869640D01*
X68797300Y20980360D01*
X68768643Y21087307D01*
X68760911Y21100699D01*
X68713286Y21183189D01*
X68713284Y21183191D01*
X68713283Y21183193D01*
X68634993Y21261483D01*
X68634990Y21261485D01*
X68634988Y21261487D01*
X68539110Y21316842D01*
X68539106Y21316844D01*
X68432162Y21345500D01*
X68432160Y21345500D01*
X68321440Y21345500D01*
X68321437Y21345500D01*
X68214493Y21316844D01*
X68214489Y21316842D01*
X68118611Y21261487D01*
X68118605Y21261482D01*
X68081619Y21224496D01*
X68074502Y21220871D01*
X68069807Y21214407D01*
X68047755Y21207243D01*
X68027102Y21196719D01*
X68011616Y21195500D01*
X67833539Y21195500D01*
X67775348Y21214407D01*
X67739384Y21263907D01*
X67739384Y21325093D01*
X67774750Y21374155D01*
X67845439Y21426328D01*
X67845441Y21426330D01*
X67924205Y21533049D01*
X67968012Y21658242D01*
X67970800Y21687969D01*
X67970800Y21730968D01*
X67970799Y21730969D01*
X66494600Y21730969D01*
X66436409Y21749876D01*
X66400445Y21799376D01*
X66395600Y21829969D01*
X66395600Y21880968D01*
X66395599Y21880969D01*
X66344600Y21880969D01*
X66286409Y21899876D01*
X66250445Y21949376D01*
X66245600Y21979969D01*
X66245600Y22460968D01*
X66545600Y22460968D01*
X66545600Y22030970D01*
X66545601Y22030969D01*
X67210799Y22030969D01*
X67210800Y22030970D01*
X67210800Y22460968D01*
X67510800Y22460968D01*
X67510800Y22030970D01*
X67510801Y22030969D01*
X67970798Y22030969D01*
X67970799Y22030970D01*
X67970799Y22073973D01*
X67968013Y22103691D01*
X67968012Y22103696D01*
X67929042Y22215067D01*
X67924205Y22228890D01*
X67913142Y22243879D01*
X72003213Y22243879D01*
X72003213Y21991948D01*
X72042621Y21743133D01*
X72120472Y21503534D01*
X72233619Y21281469D01*
X72234843Y21279068D01*
X72382920Y21075257D01*
X72561057Y20897120D01*
X72764868Y20749043D01*
X72989334Y20634672D01*
X73228928Y20556823D01*
X73228929Y20556823D01*
X73228932Y20556822D01*
X73477748Y20517413D01*
X73477751Y20517413D01*
X73729678Y20517413D01*
X73978493Y20556822D01*
X73978494Y20556823D01*
X73978498Y20556823D01*
X74218092Y20634672D01*
X74442558Y20749043D01*
X74646369Y20897120D01*
X74824506Y21075257D01*
X74972583Y21279068D01*
X75086954Y21503534D01*
X75164803Y21743128D01*
X75172436Y21791321D01*
X75204213Y21991948D01*
X75204213Y22243879D01*
X75164804Y22492694D01*
X75161933Y22501530D01*
X75086954Y22732292D01*
X74972583Y22956758D01*
X74824506Y23160569D01*
X74646369Y23338706D01*
X74442558Y23486783D01*
X74442557Y23486784D01*
X74442555Y23486785D01*
X74218092Y23601154D01*
X73978493Y23679005D01*
X73729678Y23718413D01*
X73729675Y23718413D01*
X73477751Y23718413D01*
X73477748Y23718413D01*
X73228932Y23679005D01*
X72989333Y23601154D01*
X72764870Y23486785D01*
X72561058Y23338707D01*
X72382919Y23160568D01*
X72234841Y22956756D01*
X72120472Y22732293D01*
X72042621Y22492694D01*
X72003213Y22243879D01*
X67913142Y22243879D01*
X67845441Y22335609D01*
X67845439Y22335611D01*
X67738720Y22414375D01*
X67613527Y22458182D01*
X67583800Y22460969D01*
X67510801Y22460969D01*
X67510800Y22460968D01*
X67210800Y22460968D01*
X67210800Y22460970D01*
X67137796Y22460969D01*
X67108078Y22458183D01*
X67108073Y22458182D01*
X66982877Y22414374D01*
X66936988Y22380506D01*
X66878940Y22361164D01*
X66820610Y22379636D01*
X66819412Y22380506D01*
X66773522Y22414374D01*
X66648327Y22458182D01*
X66618600Y22460969D01*
X66545601Y22460969D01*
X66545600Y22460968D01*
X66245600Y22460968D01*
X66245600Y22460970D01*
X66172596Y22460969D01*
X66142878Y22458183D01*
X66142873Y22458182D01*
X66017679Y22414375D01*
X65910960Y22335611D01*
X65910957Y22335608D01*
X65878168Y22291181D01*
X65828400Y22255590D01*
X65767216Y22256048D01*
X65743514Y22267655D01*
X65715096Y22286643D01*
X65715091Y22286645D01*
X65715088Y22286646D01*
X65715087Y22286646D01*
X65640576Y22301468D01*
X65640568Y22301469D01*
X65640567Y22301469D01*
X65640566Y22301469D01*
X65220236Y22301469D01*
X65220229Y22301468D01*
X65145710Y22286646D01*
X65145708Y22286645D01*
X65117285Y22267654D01*
X65058396Y22251047D01*
X65000993Y22272226D01*
X64982632Y22291181D01*
X64949842Y22335608D01*
X64949839Y22335611D01*
X64843120Y22414375D01*
X64717927Y22458182D01*
X64688200Y22460969D01*
X64615201Y22460969D01*
X64615200Y22460968D01*
X64615200Y21979969D01*
X64596293Y21921778D01*
X64546793Y21885814D01*
X64516200Y21880969D01*
X64465201Y21880969D01*
X64465200Y21880968D01*
X64465200Y21829969D01*
X64446293Y21771778D01*
X64396793Y21735814D01*
X64366200Y21730969D01*
X63855202Y21730969D01*
X63855201Y21730968D01*
X63855201Y21687966D01*
X63857986Y21658248D01*
X63857987Y21658243D01*
X63901794Y21533049D01*
X63980558Y21426330D01*
X63980560Y21426328D01*
X64068939Y21361100D01*
X64104531Y21311332D01*
X64104073Y21250148D01*
X64092466Y21226444D01*
X64049816Y21162614D01*
X64049816Y21162613D01*
X64049815Y21162611D01*
X64034700Y21086623D01*
X64034700Y20755315D01*
X64049815Y20679327D01*
X64049816Y20679326D01*
X64049816Y20679325D01*
X64065216Y20656278D01*
X64107390Y20593159D01*
X64193558Y20535584D01*
X64269546Y20520469D01*
X64569427Y20520469D01*
X64577024Y20518001D01*
X64584914Y20519250D01*
X64605569Y20508726D01*
X64627618Y20501562D01*
X64639431Y20491473D01*
X64716400Y20414504D01*
X64744177Y20359987D01*
X64734606Y20299555D01*
X64691341Y20256290D01*
X64646396Y20245500D01*
X64418525Y20245500D01*
X64383383Y20238510D01*
X64383382Y20238510D01*
X64343527Y20211879D01*
X64343521Y20211873D01*
X64316890Y20172018D01*
X64316890Y20172017D01*
X64309900Y20136875D01*
X64309900Y18613126D01*
X64316890Y18577984D01*
X64316890Y18577983D01*
X64343521Y18538128D01*
X64343524Y18538124D01*
X64343527Y18538122D01*
X64383382Y18511491D01*
X64402954Y18507598D01*
X64456338Y18477702D01*
X64481955Y18422137D01*
X64470019Y18362127D01*
X64425089Y18320594D01*
X64383641Y18311500D01*
X63877159Y18311500D01*
X63818968Y18330407D01*
X63783004Y18379907D01*
X63783004Y18441093D01*
X63818968Y18490593D01*
X63857846Y18507598D01*
X63867206Y18509461D01*
X63877417Y18511491D01*
X63917276Y18538124D01*
X63943909Y18577983D01*
X63950900Y18613130D01*
X63950900Y20136870D01*
X63943909Y20172017D01*
X63943909Y20172018D01*
X63917278Y20211873D01*
X63917276Y20211876D01*
X63917272Y20211879D01*
X63877417Y20238510D01*
X63842274Y20245500D01*
X63842270Y20245500D01*
X62918530Y20245500D01*
X62918525Y20245500D01*
X62883383Y20238510D01*
X62883382Y20238510D01*
X62843527Y20211879D01*
X62843521Y20211873D01*
X62816890Y20172018D01*
X62816890Y20172017D01*
X62809900Y20136875D01*
X62809900Y19100774D01*
X62790993Y19042583D01*
X62780904Y19030770D01*
X62619904Y18869770D01*
X62565387Y18841993D01*
X62504955Y18851564D01*
X62461690Y18894829D01*
X62450900Y18939774D01*
X62450900Y20136868D01*
X62450899Y20136875D01*
X62443909Y20172017D01*
X62443909Y20172018D01*
X62417278Y20211873D01*
X62417276Y20211876D01*
X62417272Y20211879D01*
X62377417Y20238510D01*
X62342274Y20245500D01*
X62342270Y20245500D01*
X61418530Y20245500D01*
X61418525Y20245500D01*
X61383383Y20238510D01*
X61383382Y20238510D01*
X61343527Y20211879D01*
X61343521Y20211873D01*
X61316890Y20172018D01*
X61316890Y20172017D01*
X61309900Y20136875D01*
X61309900Y18781774D01*
X61307431Y18774177D01*
X61308681Y18766287D01*
X61298157Y18745634D01*
X61290993Y18723583D01*
X61280903Y18711770D01*
X61154278Y18585146D01*
X61115848Y18562957D01*
X61116207Y18562090D01*
X61110215Y18559609D01*
X61099400Y18553364D01*
X61039552Y18540643D01*
X60983656Y18565530D01*
X60953063Y18618518D01*
X60950900Y18639101D01*
X60950900Y20136868D01*
X60950899Y20136875D01*
X60943909Y20172017D01*
X60943909Y20172018D01*
X60917278Y20211873D01*
X60917276Y20211876D01*
X60917272Y20211879D01*
X60877417Y20238510D01*
X60842274Y20245500D01*
X60842270Y20245500D01*
X59918530Y20245500D01*
X59918525Y20245500D01*
X59883383Y20238510D01*
X59883382Y20238510D01*
X59843527Y20211879D01*
X59843521Y20211873D01*
X59816890Y20172018D01*
X59816890Y20172017D01*
X59809900Y20136875D01*
X59809900Y18670697D01*
X59803266Y18650280D01*
X59800677Y18628971D01*
X59794015Y18621810D01*
X59790993Y18612506D01*
X59773625Y18599888D01*
X59759006Y18584170D01*
X59750556Y18583128D01*
X59741493Y18576542D01*
X59698959Y18572420D01*
X59692022Y18573263D01*
X59641127Y18586900D01*
X59579784Y18586900D01*
X59573833Y18587623D01*
X59551262Y18598114D01*
X59527583Y18605807D01*
X59519075Y18613073D01*
X59518348Y18613411D01*
X59518048Y18613951D01*
X59515770Y18615896D01*
X59479896Y18651770D01*
X59452119Y18706287D01*
X59450900Y18721774D01*
X59450900Y20136868D01*
X59450899Y20136875D01*
X59443909Y20172017D01*
X59443909Y20172018D01*
X59417278Y20211873D01*
X59417276Y20211876D01*
X59417272Y20211879D01*
X59377417Y20238510D01*
X59342274Y20245500D01*
X59342270Y20245500D01*
X58418530Y20245500D01*
X58418525Y20245500D01*
X58383383Y20238510D01*
X58383382Y20238510D01*
X58343527Y20211879D01*
X58343521Y20211873D01*
X58316890Y20172018D01*
X58316890Y20172017D01*
X58309900Y20136875D01*
X58309900Y18719900D01*
X58305055Y18704989D01*
X58305055Y18689307D01*
X58295838Y18676622D01*
X58290993Y18661709D01*
X58278307Y18652493D01*
X58269091Y18639807D01*
X58254178Y18634962D01*
X58241493Y18625745D01*
X58210900Y18620900D01*
X58049900Y18620900D01*
X57991709Y18639807D01*
X57955745Y18689307D01*
X57950900Y18719900D01*
X57950900Y20136868D01*
X57950899Y20136873D01*
X57949881Y20141993D01*
X57957073Y20202755D01*
X57976972Y20231308D01*
X58561370Y20815705D01*
X58615887Y20843482D01*
X58631374Y20844701D01*
X58886963Y20844701D01*
X58886965Y20844701D01*
X58961490Y20859524D01*
X59046005Y20915994D01*
X59102475Y21000509D01*
X59107350Y21025015D01*
X59137247Y21078399D01*
X59192812Y21104014D01*
X59204447Y21104700D01*
X59433228Y21104700D01*
X59491419Y21085793D01*
X59522168Y21049181D01*
X59542806Y21006966D01*
X59628766Y20921006D01*
X59737979Y20867615D01*
X59808778Y20857300D01*
X59808781Y20857300D01*
X60790418Y20857300D01*
X60790422Y20857300D01*
X60861221Y20867615D01*
X60970434Y20921006D01*
X61056394Y21006966D01*
X61109785Y21116179D01*
X61120100Y21186978D01*
X61120100Y21743622D01*
X61109785Y21814421D01*
X61056394Y21923634D01*
X60970434Y22009594D01*
X60861221Y22062985D01*
X60861222Y22062985D01*
X60843521Y22065564D01*
X60790422Y22073300D01*
X59808778Y22073300D01*
X59766298Y22067111D01*
X59737977Y22062985D01*
X59628766Y22009594D01*
X59542806Y21923634D01*
X59489415Y21814423D01*
X59487901Y21804029D01*
X59479107Y21743664D01*
X59479100Y21743619D01*
X59479100Y21564700D01*
X59474255Y21549789D01*
X59474255Y21534107D01*
X59465038Y21521422D01*
X59460193Y21506509D01*
X59447507Y21497293D01*
X59438291Y21484607D01*
X59423378Y21479762D01*
X59410693Y21470545D01*
X59380100Y21465700D01*
X59204447Y21465700D01*
X59146256Y21484607D01*
X59110292Y21534107D01*
X59107349Y21545387D01*
X59104314Y21560646D01*
X59102475Y21569891D01*
X59046005Y21654406D01*
X58995778Y21687966D01*
X58984332Y21695614D01*
X58946452Y21743664D01*
X58944050Y21804802D01*
X58978042Y21855676D01*
X59001451Y21869396D01*
X59009483Y21872724D01*
X59009491Y21872725D01*
X59094006Y21929195D01*
X59150476Y22013710D01*
X59162463Y22073970D01*
X63855200Y22073970D01*
X63855200Y22030970D01*
X63855201Y22030969D01*
X64315199Y22030969D01*
X64315200Y22030970D01*
X64315200Y22460970D01*
X64242196Y22460969D01*
X64212478Y22458183D01*
X64212473Y22458182D01*
X64087279Y22414375D01*
X63980560Y22335611D01*
X63980558Y22335609D01*
X63901794Y22228890D01*
X63857987Y22103697D01*
X63855200Y22073970D01*
X59162463Y22073970D01*
X59165300Y22088234D01*
X59165299Y22408567D01*
X59150476Y22483092D01*
X59121478Y22526491D01*
X59104871Y22585377D01*
X59126049Y22642781D01*
X59133784Y22651486D01*
X59278306Y22796007D01*
X59336004Y22853704D01*
X59343120Y22857330D01*
X59347816Y22863793D01*
X59369865Y22870958D01*
X59390520Y22881481D01*
X59406007Y22882700D01*
X59501065Y22882700D01*
X59559256Y22863793D01*
X59571062Y22853710D01*
X59628766Y22796006D01*
X59737979Y22742615D01*
X59808778Y22732300D01*
X59808781Y22732300D01*
X60790418Y22732300D01*
X60790422Y22732300D01*
X60861221Y22742615D01*
X60970434Y22796006D01*
X61056394Y22881966D01*
X61109785Y22991179D01*
X61120100Y23061978D01*
X61120100Y23618622D01*
X61109785Y23689421D01*
X61056394Y23798634D01*
X60970434Y23884594D01*
X60861221Y23937985D01*
X60861222Y23937985D01*
X60843521Y23940564D01*
X60790422Y23948300D01*
X59808778Y23948300D01*
X59766298Y23942111D01*
X59737977Y23937985D01*
X59628766Y23884594D01*
X59542806Y23798634D01*
X59489415Y23689423D01*
X59482757Y23643723D01*
X59455656Y23588866D01*
X59401488Y23560415D01*
X59340942Y23569237D01*
X59304912Y23604297D01*
X59303139Y23602987D01*
X59220865Y23714463D01*
X59220863Y23714465D01*
X59115354Y23792335D01*
X58991583Y23835644D01*
X58962203Y23838399D01*
X58874801Y23838399D01*
X58874800Y23838398D01*
X58874800Y23367399D01*
X58855893Y23309208D01*
X58806393Y23273244D01*
X58775800Y23268399D01*
X58724801Y23268399D01*
X58724800Y23268398D01*
X58724800Y23217399D01*
X58705893Y23159208D01*
X58656393Y23123244D01*
X58625800Y23118399D01*
X57807800Y23118399D01*
X57749609Y23137306D01*
X57713645Y23186806D01*
X57708800Y23217399D01*
X57708800Y23268398D01*
X57708799Y23268399D01*
X57657800Y23268399D01*
X57599609Y23287306D01*
X57563645Y23336806D01*
X57558800Y23367399D01*
X57558800Y23838398D01*
X57858800Y23838398D01*
X57858800Y23418400D01*
X57858801Y23418399D01*
X58574799Y23418399D01*
X58574800Y23418400D01*
X58574800Y23838398D01*
X58574799Y23838399D01*
X58487396Y23838399D01*
X58458016Y23835644D01*
X58334244Y23792334D01*
X58334242Y23792333D01*
X58275588Y23749044D01*
X58217541Y23729702D01*
X58159210Y23748173D01*
X58158012Y23749044D01*
X58099357Y23792333D01*
X58099355Y23792334D01*
X57975583Y23835644D01*
X57946203Y23838399D01*
X57858801Y23838399D01*
X57858800Y23838398D01*
X57558800Y23838398D01*
X57558799Y23838399D01*
X57471396Y23838399D01*
X57442016Y23835644D01*
X57318245Y23792335D01*
X57212736Y23714465D01*
X57212734Y23714463D01*
X57134865Y23608956D01*
X57133696Y23606742D01*
X57132062Y23605157D01*
X57130461Y23602987D01*
X57130100Y23603253D01*
X57089787Y23564131D01*
X57029219Y23555467D01*
X56975125Y23584059D01*
X56948204Y23638731D01*
X56944185Y23666321D01*
X56890794Y23775534D01*
X56804834Y23861494D01*
X56695621Y23914885D01*
X56695622Y23914885D01*
X56677921Y23917464D01*
X56624822Y23925200D01*
X55643178Y23925200D01*
X55600698Y23919011D01*
X55572377Y23914885D01*
X55463166Y23861494D01*
X55377206Y23775534D01*
X55323815Y23666323D01*
X55323815Y23666321D01*
X55313500Y23595522D01*
X55313500Y23038878D01*
X55320450Y22991178D01*
X55323815Y22968078D01*
X55329350Y22956756D01*
X55377206Y22858866D01*
X55463166Y22772906D01*
X55572379Y22719515D01*
X55643178Y22709200D01*
X55643181Y22709200D01*
X56624818Y22709200D01*
X56624822Y22709200D01*
X56695621Y22719515D01*
X56804834Y22772906D01*
X56885633Y22853706D01*
X56892748Y22857331D01*
X56897444Y22863793D01*
X56919492Y22870957D01*
X56940148Y22881481D01*
X56955635Y22882700D01*
X57027593Y22882700D01*
X57085784Y22863793D01*
X57097596Y22853704D01*
X57299807Y22651494D01*
X57327585Y22596977D01*
X57318014Y22536545D01*
X57312120Y22526490D01*
X57283126Y22483098D01*
X57283123Y22483089D01*
X57268301Y22408578D01*
X57268300Y22408568D01*
X57268300Y22088238D01*
X57268301Y22088231D01*
X57283123Y22013712D01*
X57283123Y22013711D01*
X57283124Y22013710D01*
X57339594Y21929195D01*
X57347917Y21923634D01*
X57424108Y21872725D01*
X57432147Y21869396D01*
X57478675Y21829662D01*
X57492962Y21770168D01*
X57469551Y21713639D01*
X57463617Y21707279D01*
X57456987Y21700772D01*
X57387595Y21654406D01*
X57345366Y21591206D01*
X57338076Y21584049D01*
X57319389Y21574746D01*
X57302993Y21561819D01*
X57288077Y21559156D01*
X57283304Y21556779D01*
X57278905Y21557518D01*
X57268726Y21555700D01*
X57053500Y21555700D01*
X56995309Y21574607D01*
X56959345Y21624107D01*
X56954500Y21654700D01*
X56954500Y21720519D01*
X56954500Y21720522D01*
X56944185Y21791321D01*
X56890794Y21900534D01*
X56804834Y21986494D01*
X56695621Y22039885D01*
X56695622Y22039885D01*
X56677921Y22042464D01*
X56624822Y22050200D01*
X55643178Y22050200D01*
X55600698Y22044011D01*
X55572377Y22039885D01*
X55463166Y21986494D01*
X55377206Y21900534D01*
X55323815Y21791323D01*
X55323815Y21791321D01*
X55313500Y21720522D01*
X55313500Y21163878D01*
X55320450Y21116178D01*
X55323815Y21093078D01*
X55341828Y21056232D01*
X55377206Y20983866D01*
X55463166Y20897906D01*
X55572379Y20844515D01*
X55643178Y20834200D01*
X55643181Y20834200D01*
X56540156Y20834200D01*
X56598347Y20815293D01*
X56634311Y20765793D01*
X56635782Y20709576D01*
X56627900Y20680163D01*
X56627900Y20569438D01*
X56656556Y20462494D01*
X56656558Y20462490D01*
X56711913Y20366612D01*
X56711915Y20366610D01*
X56711917Y20366607D01*
X56790207Y20288317D01*
X56790209Y20288316D01*
X56794796Y20283729D01*
X56792976Y20281910D01*
X56821401Y20240539D01*
X56819791Y20179375D01*
X56817941Y20174555D01*
X56816891Y20172021D01*
X56809900Y20136875D01*
X56809900Y18719900D01*
X56805055Y18704989D01*
X56805055Y18689307D01*
X56795838Y18676622D01*
X56790993Y18661709D01*
X56778307Y18652493D01*
X56769091Y18639807D01*
X56754178Y18634962D01*
X56741493Y18625745D01*
X56710900Y18620900D01*
X56656174Y18620900D01*
X56597983Y18639807D01*
X56586170Y18649896D01*
X56479896Y18756170D01*
X56452119Y18810687D01*
X56450900Y18826174D01*
X56450900Y20136868D01*
X56450899Y20136875D01*
X56443909Y20172017D01*
X56443909Y20172018D01*
X56417278Y20211873D01*
X56417276Y20211876D01*
X56417272Y20211879D01*
X56377417Y20238510D01*
X56342274Y20245500D01*
X56342270Y20245500D01*
X55418530Y20245500D01*
X55418525Y20245500D01*
X55383383Y20238510D01*
X55383382Y20238510D01*
X55343527Y20211879D01*
X55343521Y20211873D01*
X55316890Y20172017D01*
X55316877Y20171984D01*
X55316838Y20171939D01*
X55311473Y20163909D01*
X55310522Y20164545D01*
X55277139Y20125460D01*
X55217643Y20111178D01*
X55161116Y20134595D01*
X55129149Y20186765D01*
X55128123Y20192546D01*
X55127490Y20194874D01*
X55082186Y20297478D01*
X55002877Y20376787D01*
X54900272Y20422091D01*
X54875197Y20425000D01*
X54530401Y20425000D01*
X54530400Y20424999D01*
X54230400Y20424999D01*
X54230399Y20425000D01*
X53885610Y20425000D01*
X53885607Y20424999D01*
X53860525Y20422091D01*
X53757922Y20376787D01*
X53678613Y20297478D01*
X53633309Y20194873D01*
X53630400Y20169798D01*
X51484300Y20169798D01*
X51484300Y21406288D01*
X51503207Y21464479D01*
X51552707Y21500443D01*
X51613893Y21500443D01*
X51662184Y21466107D01*
X51737276Y21367083D01*
X51737282Y21367077D01*
X51852270Y21279878D01*
X51986531Y21226933D01*
X52070895Y21216801D01*
X52070900Y21216800D01*
X52186999Y21216800D01*
X52187000Y21216801D01*
X52187000Y21841799D01*
X52487000Y21841799D01*
X52487000Y21216801D01*
X52487001Y21216800D01*
X52603100Y21216800D01*
X52603104Y21216801D01*
X52687468Y21226933D01*
X52821729Y21279878D01*
X52936717Y21367077D01*
X52936723Y21367083D01*
X53023922Y21482071D01*
X53076867Y21616332D01*
X53086999Y21700696D01*
X53087000Y21700700D01*
X53087000Y21841799D01*
X53086999Y21841800D01*
X52487001Y21841800D01*
X52487000Y21841799D01*
X52187000Y21841799D01*
X52187000Y22766799D01*
X52487000Y22766799D01*
X52487000Y22141801D01*
X52487001Y22141800D01*
X53086999Y22141800D01*
X53087000Y22141801D01*
X53087000Y22282901D01*
X53086999Y22282914D01*
X53076867Y22367269D01*
X53023922Y22501530D01*
X52936723Y22616518D01*
X52936717Y22616524D01*
X52821729Y22703723D01*
X52687468Y22756668D01*
X52603104Y22766800D01*
X52487001Y22766800D01*
X52487000Y22766799D01*
X52187000Y22766799D01*
X52186999Y22766800D01*
X52070895Y22766800D01*
X51986531Y22756668D01*
X51852270Y22703723D01*
X51737282Y22616524D01*
X51737279Y22616521D01*
X51662184Y22517493D01*
X51611957Y22482551D01*
X51550784Y22483805D01*
X51502032Y22520776D01*
X51484300Y22577313D01*
X51484300Y22618798D01*
X51484300Y22618800D01*
X51480024Y22651281D01*
X51460062Y22725781D01*
X51427580Y22782042D01*
X51373042Y22836580D01*
X51316781Y22869062D01*
X51296818Y22874412D01*
X51242280Y22889025D01*
X51209802Y22893300D01*
X51209800Y22893300D01*
X48104200Y22893300D01*
X48104197Y22893300D01*
X48071719Y22889025D01*
X47997219Y22869062D01*
X47940958Y22836580D01*
X47886420Y22782042D01*
X47853938Y22725781D01*
X47833975Y22651281D01*
X47829700Y22618803D01*
X47829700Y20531809D01*
X47810793Y20473618D01*
X47761293Y20437654D01*
X47758339Y20436746D01*
X47730674Y20428709D01*
X47716506Y20424592D01*
X47581570Y20344791D01*
X47470708Y20233929D01*
X47390907Y20098993D01*
X47390907Y20098992D01*
X47390906Y20098990D01*
X47390906Y20098989D01*
X47385953Y20081942D01*
X47347168Y19948443D01*
X47347166Y19948436D01*
X47344399Y19913263D01*
X47344399Y18787938D01*
X47347166Y18752765D01*
X47347166Y18752762D01*
X47347167Y18752761D01*
X47389861Y18605807D01*
X47390907Y18602209D01*
X47390907Y18602208D01*
X47470708Y18467272D01*
X47470709Y18467271D01*
X47470711Y18467268D01*
X47581567Y18356412D01*
X47581569Y18356411D01*
X47581570Y18356410D01*
X47630974Y18327193D01*
X47716510Y18276607D01*
X47867060Y18232868D01*
X47902231Y18230100D01*
X47994776Y18230100D01*
X48020399Y18226727D01*
X48071719Y18212976D01*
X48104200Y18208700D01*
X48391100Y18208700D01*
X48449291Y18189793D01*
X48485255Y18140293D01*
X48490100Y18109700D01*
X48490100Y13809600D01*
X48494376Y13777116D01*
X48495009Y13773935D01*
X48494200Y13773775D01*
X48496571Y13743197D01*
X48494399Y13722993D01*
X48494399Y12378216D01*
X48494400Y12378210D01*
X48500743Y12319194D01*
X48500744Y12319189D01*
X48550535Y12185692D01*
X48594055Y12127557D01*
X48635925Y12071626D01*
X48635928Y12071624D01*
X48635929Y12071623D01*
X48749990Y11986237D01*
X48883484Y11936447D01*
X48883485Y11936447D01*
X48883490Y11936445D01*
X48942508Y11930100D01*
X49384677Y11930101D01*
X49442867Y11911194D01*
X49478831Y11861694D01*
X49478831Y11800509D01*
X49444496Y11752218D01*
X49374484Y11699126D01*
X49374476Y11699118D01*
X49287277Y11584130D01*
X49234332Y11449869D01*
X49224200Y11365505D01*
X49224200Y11224401D01*
X49224201Y11224400D01*
X49875200Y11224400D01*
X49933391Y11205493D01*
X49969355Y11155993D01*
X49974200Y11125400D01*
X49974200Y11074401D01*
X49974201Y11074400D01*
X50025200Y11074400D01*
X50083391Y11055493D01*
X50119355Y11005993D01*
X50124200Y10975400D01*
X50124200Y10299401D01*
X50124201Y10299400D01*
X50240300Y10299400D01*
X50240304Y10299401D01*
X50324668Y10309533D01*
X50458927Y10362478D01*
X50464877Y10366989D01*
X50522668Y10387086D01*
X50581234Y10369377D01*
X50618206Y10320625D01*
X50623699Y10288107D01*
X50623699Y8694554D01*
X50604792Y8636363D01*
X50594703Y8624550D01*
X50092850Y8122696D01*
X50038333Y8094919D01*
X50022846Y8093700D01*
X49585431Y8093700D01*
X49527240Y8112607D01*
X49491276Y8162107D01*
X49491276Y8223293D01*
X49527240Y8272793D01*
X49549112Y8284798D01*
X49618294Y8312081D01*
X49738763Y8403436D01*
X49830118Y8523905D01*
X49885585Y8664557D01*
X49896198Y8752936D01*
X49896199Y8752942D01*
X49896199Y9090999D01*
X49896198Y9091000D01*
X47881200Y9091000D01*
X47881199Y9090999D01*
X47881199Y8752936D01*
X47891812Y8664557D01*
X47947279Y8523905D01*
X48038634Y8403436D01*
X48159103Y8312081D01*
X48228286Y8284798D01*
X48275483Y8245861D01*
X48290780Y8186619D01*
X48268334Y8129699D01*
X48216718Y8096844D01*
X48191967Y8093700D01*
X42736812Y8093700D01*
X42678621Y8112607D01*
X42642657Y8162107D01*
X42638847Y8206976D01*
X42640799Y8220376D01*
X42640799Y8776466D01*
X42366870Y8502536D01*
X42312353Y8474759D01*
X42251921Y8484330D01*
X42226863Y8502536D01*
X42190800Y8538598D01*
X42154737Y8502536D01*
X42140767Y8495419D01*
X42129679Y8484330D01*
X42114190Y8481877D01*
X42100220Y8474759D01*
X42084734Y8477212D01*
X42069247Y8474759D01*
X42055274Y8481879D01*
X42039788Y8484331D01*
X42014730Y8502536D01*
X41990296Y8526970D01*
X41962519Y8581487D01*
X41961300Y8596974D01*
X41961300Y8603926D01*
X41961299Y8603936D01*
X41961299Y8741224D01*
X41980206Y8799415D01*
X42029706Y8835379D01*
X42090892Y8835379D01*
X42130303Y8811228D01*
X42190800Y8750731D01*
X42524720Y9084652D01*
X42496987Y9112385D01*
X42392048Y9163686D01*
X42324015Y9173598D01*
X42057586Y9173598D01*
X42057583Y9173597D01*
X41989549Y9163686D01*
X41884609Y9112383D01*
X41852813Y9080589D01*
X41852098Y9078389D01*
X41852167Y9062921D01*
X41842882Y9050023D01*
X41837971Y9034907D01*
X41825457Y9025816D01*
X41816422Y9013263D01*
X41801422Y9008353D01*
X41788471Y8998943D01*
X41758315Y8994099D01*
X41758040Y8994098D01*
X41574010Y8994097D01*
X41569837Y8993268D01*
X41560737Y8993227D01*
X41535806Y9001206D01*
X41510237Y9006817D01*
X41507043Y9010412D01*
X41502463Y9011877D01*
X41486980Y9032990D01*
X41469596Y9052555D01*
X41468384Y9058350D01*
X41466281Y9061218D01*
X41466248Y9068563D01*
X41461300Y9092226D01*
X41461300Y9178199D01*
X41480207Y9236390D01*
X41529707Y9272354D01*
X41535515Y9273870D01*
X41537087Y9274522D01*
X41537091Y9274522D01*
X41621606Y9330992D01*
X41678076Y9415507D01*
X41692900Y9490031D01*
X41692899Y9729065D01*
X47881199Y9729065D01*
X47881199Y9391001D01*
X47881200Y9391000D01*
X48738698Y9391000D01*
X48738699Y9391001D01*
X48738699Y10235999D01*
X49038699Y10235999D01*
X49038699Y9391001D01*
X49038700Y9391000D01*
X49896198Y9391000D01*
X49896199Y9391001D01*
X49896199Y9729059D01*
X49896198Y9729065D01*
X49885585Y9817444D01*
X49830118Y9958096D01*
X49738763Y10078565D01*
X49738759Y10078569D01*
X49682124Y10121517D01*
X49647182Y10171743D01*
X49648436Y10232916D01*
X49685407Y10281668D01*
X49741944Y10299400D01*
X49824199Y10299400D01*
X49824200Y10299401D01*
X49824200Y10924399D01*
X49824199Y10924400D01*
X49224201Y10924400D01*
X49224200Y10924399D01*
X49224200Y10783296D01*
X49234332Y10698932D01*
X49287277Y10564671D01*
X49374476Y10449683D01*
X49374482Y10449677D01*
X49421682Y10413884D01*
X49456625Y10363657D01*
X49455371Y10302485D01*
X49418401Y10253732D01*
X49361863Y10236000D01*
X49038700Y10236000D01*
X49038699Y10235999D01*
X48738699Y10235999D01*
X48738698Y10236000D01*
X48388134Y10236000D01*
X48299755Y10225387D01*
X48159103Y10169920D01*
X48038634Y10078565D01*
X47947279Y9958096D01*
X47891812Y9817444D01*
X47881199Y9729065D01*
X41692899Y9729065D01*
X41692899Y9910364D01*
X41678076Y9984889D01*
X41621606Y10069404D01*
X41616895Y10072552D01*
X41579017Y10120604D01*
X41572899Y10154866D01*
X41572899Y10373819D01*
X41591806Y10432010D01*
X41601889Y10443817D01*
X41674434Y10516361D01*
X41686109Y10541399D01*
X42379200Y10541399D01*
X42379200Y10498397D01*
X42381985Y10468679D01*
X42381986Y10468674D01*
X42425793Y10343480D01*
X42504557Y10236761D01*
X42504559Y10236759D01*
X42611278Y10157995D01*
X42736471Y10114188D01*
X42766198Y10111401D01*
X42839198Y10111402D01*
X42839199Y10111402D01*
X42839199Y10541399D01*
X43139199Y10541399D01*
X43139199Y10111402D01*
X43139200Y10111401D01*
X43212203Y10111401D01*
X43241920Y10114187D01*
X43241925Y10114188D01*
X43367119Y10157995D01*
X43473838Y10236759D01*
X43473840Y10236761D01*
X43552604Y10343480D01*
X43596411Y10468673D01*
X43599199Y10498400D01*
X43599199Y10541399D01*
X43599198Y10541400D01*
X43139200Y10541400D01*
X43139199Y10541399D01*
X42839199Y10541399D01*
X42839198Y10541400D01*
X42379201Y10541400D01*
X42379200Y10541399D01*
X41686109Y10541399D01*
X41724995Y10624789D01*
X41731500Y10674199D01*
X41731499Y11266196D01*
X41724995Y11315607D01*
X41724995Y11315609D01*
X41674435Y11424033D01*
X41674434Y11424034D01*
X41674434Y11424035D01*
X41589837Y11508632D01*
X41589835Y11508633D01*
X41589834Y11508634D01*
X41481414Y11559191D01*
X41481412Y11559192D01*
X41481409Y11559193D01*
X41431999Y11565698D01*
X41431997Y11565698D01*
X40915006Y11565698D01*
X40914994Y11565697D01*
X40865591Y11559194D01*
X40865589Y11559194D01*
X40757165Y11508634D01*
X40672564Y11424033D01*
X40622007Y11315613D01*
X40622005Y11315609D01*
X40622005Y11315607D01*
X40615961Y11269694D01*
X40615500Y11266196D01*
X40615500Y10674205D01*
X40615501Y10674198D01*
X40622004Y10624790D01*
X40622004Y10624788D01*
X40672564Y10516364D01*
X40672565Y10516363D01*
X40672566Y10516361D01*
X40757163Y10431764D01*
X40865591Y10381203D01*
X40915001Y10374698D01*
X40932896Y10374699D01*
X40947808Y10369854D01*
X40963492Y10369854D01*
X40976177Y10360638D01*
X40991086Y10355794D01*
X41000303Y10343110D01*
X41012992Y10333890D01*
X41017837Y10318978D01*
X41027052Y10306296D01*
X41031899Y10275699D01*
X41031899Y10154865D01*
X41012992Y10096674D01*
X40987900Y10072549D01*
X40983194Y10069406D01*
X40926725Y9984892D01*
X40926723Y9984886D01*
X40911901Y9910375D01*
X40911900Y9910365D01*
X40911900Y9621540D01*
X40904735Y9599490D01*
X40901109Y9576594D01*
X40895461Y9570947D01*
X40892993Y9563349D01*
X40874234Y9549721D01*
X40857844Y9533330D01*
X40849956Y9532081D01*
X40843493Y9527385D01*
X40820307Y9527385D01*
X40797412Y9523759D01*
X40790296Y9527385D01*
X40782307Y9527385D01*
X40742896Y9551537D01*
X40701895Y9592539D01*
X40674118Y9647056D01*
X40672899Y9662542D01*
X40672899Y9910362D01*
X40672898Y9910369D01*
X40659698Y9976732D01*
X40658076Y9984889D01*
X40601606Y10069404D01*
X40569264Y10091014D01*
X40517093Y10125873D01*
X40517091Y10125874D01*
X40517088Y10125875D01*
X40517087Y10125875D01*
X40442576Y10140697D01*
X40442568Y10140698D01*
X40442567Y10140698D01*
X40442566Y10140698D01*
X40122236Y10140698D01*
X40122229Y10140697D01*
X40047710Y10125875D01*
X39963196Y10069406D01*
X39963191Y10069401D01*
X39928187Y10017013D01*
X39880137Y9979134D01*
X39818999Y9976732D01*
X39768125Y10010725D01*
X39763556Y10017014D01*
X39751860Y10034518D01*
X39724007Y10076205D01*
X39710244Y10085401D01*
X39639494Y10132674D01*
X39639492Y10132675D01*
X39639489Y10132676D01*
X39639488Y10132676D01*
X39564977Y10147498D01*
X39564969Y10147499D01*
X39564968Y10147499D01*
X39564967Y10147499D01*
X39244637Y10147499D01*
X39244630Y10147498D01*
X39170111Y10132676D01*
X39085597Y10076207D01*
X39085590Y10076200D01*
X39084650Y10074792D01*
X39082444Y10073054D01*
X39078700Y10069309D01*
X39078256Y10069753D01*
X39036597Y10036916D01*
X38975459Y10034518D01*
X38924587Y10068514D01*
X38912237Y10091014D01*
X38912203Y10090995D01*
X38911060Y10093157D01*
X38908891Y10097109D01*
X38908734Y10097557D01*
X38830866Y10203063D01*
X38830864Y10203065D01*
X38725355Y10280935D01*
X38601584Y10324244D01*
X38572204Y10326999D01*
X38534802Y10326999D01*
X38534801Y10326998D01*
X38534801Y9087000D01*
X38534802Y9086999D01*
X38572201Y9086999D01*
X38572204Y9087000D01*
X38601584Y9089755D01*
X38725355Y9133064D01*
X38830864Y9210934D01*
X38830866Y9210936D01*
X38908734Y9316443D01*
X38908890Y9316886D01*
X38909151Y9317230D01*
X38912203Y9323003D01*
X38913160Y9322497D01*
X38945949Y9365571D01*
X39004547Y9383175D01*
X39062302Y9362974D01*
X39084652Y9339203D01*
X39085590Y9337799D01*
X39085592Y9337797D01*
X39085595Y9337793D01*
X39170110Y9281323D01*
X39244634Y9266499D01*
X39564967Y9266500D01*
X39639492Y9281323D01*
X39724007Y9337793D01*
X39759012Y9390184D01*
X39807061Y9428063D01*
X39868199Y9430467D01*
X39919073Y9396475D01*
X39923643Y9390185D01*
X39963194Y9330992D01*
X40047709Y9274522D01*
X40122233Y9259698D01*
X40370059Y9259699D01*
X40377637Y9257237D01*
X40385507Y9258486D01*
X40406182Y9247962D01*
X40428249Y9240792D01*
X40440034Y9230731D01*
X40441275Y9229491D01*
X40469075Y9174985D01*
X40470300Y9159459D01*
X40470300Y8980179D01*
X40453615Y8925177D01*
X40430193Y8890126D01*
X40430192Y8890122D01*
X40420301Y8840399D01*
X40420300Y8840389D01*
X40420300Y8565505D01*
X40420301Y8302098D01*
X40401394Y8243907D01*
X40351894Y8207943D01*
X40321301Y8203098D01*
X40101644Y8203098D01*
X40043453Y8222005D01*
X40007489Y8271505D01*
X40004546Y8282784D01*
X39998876Y8311289D01*
X39942407Y8395802D01*
X39942406Y8395804D01*
X39930984Y8403436D01*
X39857893Y8452273D01*
X39857891Y8452274D01*
X39857888Y8452275D01*
X39857887Y8452275D01*
X39783376Y8467097D01*
X39783368Y8467098D01*
X39783367Y8467098D01*
X39783366Y8467098D01*
X39363036Y8467098D01*
X39363029Y8467097D01*
X39288510Y8452275D01*
X39203996Y8395806D01*
X39203992Y8395802D01*
X39147525Y8311292D01*
X39147523Y8311286D01*
X39132701Y8236775D01*
X39132700Y8236765D01*
X39132700Y7916435D01*
X39132701Y7916428D01*
X39147523Y7841909D01*
X39147523Y7841908D01*
X39147524Y7841907D01*
X39203994Y7757392D01*
X39288509Y7700922D01*
X39363033Y7686098D01*
X39585757Y7686099D01*
X39623642Y7678563D01*
X39663392Y7662098D01*
X40434219Y7662098D01*
X40492410Y7643191D01*
X40528374Y7593691D01*
X40528374Y7532505D01*
X40492410Y7483005D01*
X40489221Y7480783D01*
X40467880Y7466524D01*
X40467874Y7466518D01*
X40430193Y7410126D01*
X40419583Y7356784D01*
X40389685Y7303400D01*
X40334120Y7277785D01*
X40322485Y7277099D01*
X40061274Y7277099D01*
X40003083Y7296006D01*
X39978958Y7321099D01*
X39942409Y7375800D01*
X39942407Y7375802D01*
X39942406Y7375804D01*
X39891043Y7410123D01*
X39857893Y7432273D01*
X39857891Y7432274D01*
X39857888Y7432275D01*
X39857887Y7432275D01*
X39783376Y7447097D01*
X39783368Y7447098D01*
X39783367Y7447098D01*
X39783366Y7447098D01*
X39363036Y7447098D01*
X39363029Y7447097D01*
X39288510Y7432275D01*
X39203996Y7375806D01*
X39203992Y7375802D01*
X39147525Y7291292D01*
X39147523Y7291286D01*
X39132701Y7216775D01*
X39132700Y7216765D01*
X39132700Y6896435D01*
X39132702Y6896423D01*
X39139098Y6864264D01*
X39131905Y6803503D01*
X39090371Y6758575D01*
X39030361Y6746640D01*
X38974797Y6772257D01*
X38971996Y6774949D01*
X36189947Y9556998D01*
X37814801Y9556998D01*
X37814801Y9469596D01*
X37817556Y9440216D01*
X37860865Y9316445D01*
X37938735Y9210936D01*
X37938737Y9210934D01*
X38044246Y9133064D01*
X38168017Y9089755D01*
X38197397Y9087000D01*
X38197401Y9086999D01*
X38234800Y9086999D01*
X38234801Y9087000D01*
X38234801Y9556998D01*
X38234800Y9556999D01*
X37814802Y9556999D01*
X37814801Y9556998D01*
X36189947Y9556998D01*
X35802542Y9944403D01*
X37814801Y9944403D01*
X37814801Y9857000D01*
X37814802Y9856999D01*
X38234800Y9856999D01*
X38234801Y9857000D01*
X38234801Y10326998D01*
X38234800Y10326999D01*
X38197397Y10326999D01*
X38168017Y10324244D01*
X38044246Y10280935D01*
X37938737Y10203065D01*
X37938735Y10203063D01*
X37860865Y10097554D01*
X37817556Y9973783D01*
X37814801Y9944403D01*
X35802542Y9944403D01*
X31912371Y13834574D01*
X31884594Y13889091D01*
X31894165Y13949523D01*
X31937430Y13992788D01*
X31997862Y14002359D01*
X32018694Y13996676D01*
X32153756Y13943414D01*
X32242135Y13932801D01*
X32242142Y13932800D01*
X32435199Y13932800D01*
X32435200Y13932801D01*
X32435200Y14632799D01*
X32735200Y14632799D01*
X32735200Y13932801D01*
X32735201Y13932800D01*
X32928258Y13932800D01*
X32928264Y13932801D01*
X33016643Y13943414D01*
X33157295Y13998881D01*
X33277764Y14090236D01*
X33369119Y14210705D01*
X33424586Y14351357D01*
X33435199Y14439736D01*
X33435200Y14439742D01*
X33435200Y14632799D01*
X33435199Y14632800D01*
X32735201Y14632800D01*
X32735200Y14632799D01*
X32435200Y14632799D01*
X32435199Y14632800D01*
X31735201Y14632800D01*
X31735200Y14632799D01*
X31735200Y14439736D01*
X31745814Y14351356D01*
X31799075Y14216294D01*
X31802833Y14155225D01*
X31769978Y14103609D01*
X31713058Y14081163D01*
X31653816Y14096460D01*
X31636973Y14109972D01*
X31206095Y14540850D01*
X31178318Y14595367D01*
X31177099Y14610854D01*
X31177099Y14807995D01*
X31177098Y14808005D01*
X31176313Y14813965D01*
X31170595Y14857409D01*
X31170595Y14857411D01*
X31120035Y14965835D01*
X31120034Y14965836D01*
X31120034Y14965837D01*
X31035437Y15050434D01*
X31035435Y15050435D01*
X31035434Y15050436D01*
X30927014Y15100993D01*
X30927012Y15100994D01*
X30927009Y15100995D01*
X30877599Y15107500D01*
X30877597Y15107500D01*
X30285606Y15107500D01*
X30285594Y15107499D01*
X30236191Y15100996D01*
X30236189Y15100996D01*
X30127765Y15050436D01*
X30043164Y14965835D01*
X29992607Y14857415D01*
X29992605Y14857411D01*
X29992605Y14857409D01*
X29986886Y14813965D01*
X29986100Y14807998D01*
X28397200Y14807998D01*
X28397200Y15125865D01*
X31735200Y15125865D01*
X31735200Y14932801D01*
X31735201Y14932800D01*
X32435199Y14932800D01*
X32435200Y14932801D01*
X32435200Y15632799D01*
X32735200Y15632799D01*
X32735200Y14932801D01*
X32735201Y14932800D01*
X33435199Y14932800D01*
X33435200Y14932801D01*
X33435200Y15125859D01*
X33435199Y15125865D01*
X33424586Y15214244D01*
X33369119Y15354896D01*
X33277764Y15475365D01*
X33157295Y15566720D01*
X33016643Y15622187D01*
X32928264Y15632800D01*
X32735201Y15632800D01*
X32735200Y15632799D01*
X32435200Y15632799D01*
X32435199Y15632800D01*
X32242135Y15632800D01*
X32153756Y15622187D01*
X32013104Y15566720D01*
X31892635Y15475365D01*
X31801280Y15354896D01*
X31745813Y15214244D01*
X31735200Y15125865D01*
X28397200Y15125865D01*
X28397200Y16459200D01*
X28397199Y16459200D01*
X26311800Y16459200D01*
X26253609Y16478107D01*
X26217645Y16527607D01*
X26212800Y16558200D01*
X26212800Y18256189D01*
X26664700Y18256189D01*
X26664700Y18065012D01*
X26686121Y17957324D01*
X26695244Y17911458D01*
X26701996Y17877517D01*
X26701996Y17877515D01*
X26775152Y17700899D01*
X26877048Y17548399D01*
X26881363Y17541942D01*
X27016542Y17406763D01*
X27175496Y17300554D01*
X27175497Y17300554D01*
X27175498Y17300553D01*
X27192043Y17293700D01*
X27352116Y17227396D01*
X27539614Y17190100D01*
X27539615Y17190100D01*
X27730785Y17190100D01*
X27730786Y17190100D01*
X27918284Y17227396D01*
X28094904Y17300554D01*
X28253858Y17406763D01*
X28389037Y17541942D01*
X28495246Y17700896D01*
X28514467Y17747300D01*
X28537947Y17803985D01*
X28577683Y17850511D01*
X28629411Y17865100D01*
X29812101Y17865100D01*
X29870292Y17846193D01*
X29906256Y17796693D01*
X29911101Y17766100D01*
X29911101Y17564240D01*
X29921593Y17492221D01*
X29975900Y17381134D01*
X30063334Y17293700D01*
X30174421Y17239393D01*
X30226375Y17231824D01*
X30281229Y17204726D01*
X30309681Y17150559D01*
X30311100Y17133859D01*
X30311100Y16772093D01*
X30292193Y16713902D01*
X30242693Y16677938D01*
X30239802Y16677048D01*
X30236189Y16675996D01*
X30127765Y16625436D01*
X30043164Y16540835D01*
X29992607Y16432415D01*
X29992605Y16432408D01*
X29986100Y16382998D01*
X29986100Y15866007D01*
X29986101Y15865995D01*
X29992604Y15816592D01*
X29992604Y15816590D01*
X30043164Y15708166D01*
X30043165Y15708165D01*
X30043166Y15708163D01*
X30127763Y15623566D01*
X30236191Y15573005D01*
X30285601Y15566500D01*
X30877598Y15566501D01*
X30927009Y15573005D01*
X30927010Y15573005D01*
X30985443Y15600254D01*
X31035437Y15623566D01*
X31120034Y15708163D01*
X31170595Y15816591D01*
X31177100Y15866001D01*
X31177099Y16382998D01*
X31175006Y16398895D01*
X31170595Y16432409D01*
X31170595Y16432411D01*
X31120035Y16540835D01*
X31120034Y16540836D01*
X31120034Y16540837D01*
X31035437Y16625434D01*
X31035435Y16625435D01*
X31035434Y16625436D01*
X30927013Y16675994D01*
X30923392Y16677049D01*
X30920443Y16679057D01*
X30920145Y16679196D01*
X30920167Y16679245D01*
X30872819Y16711487D01*
X30852146Y16769075D01*
X30852100Y16772093D01*
X30852100Y17133860D01*
X30871007Y17192051D01*
X30920507Y17228015D01*
X30936814Y17231823D01*
X30988779Y17239393D01*
X31099866Y17293700D01*
X31187300Y17381134D01*
X31241607Y17492221D01*
X31252100Y17564239D01*
X31252099Y17911458D01*
X31252099Y18234556D01*
X31252099Y18234560D01*
X31241607Y18306579D01*
X31231528Y18327196D01*
X34453200Y18327196D01*
X34453200Y17848401D01*
X34453201Y17848400D01*
X34953200Y17848400D01*
X34953200Y17548400D01*
X34453201Y17548400D01*
X34453200Y17548399D01*
X34453200Y17069605D01*
X34483942Y16915051D01*
X34544248Y16769460D01*
X34544252Y16769451D01*
X34631799Y16638431D01*
X34631802Y16638427D01*
X34743226Y16527003D01*
X34743230Y16527000D01*
X34874250Y16439453D01*
X34874259Y16439449D01*
X35019851Y16379143D01*
X35019850Y16379143D01*
X35103199Y16362565D01*
X35103200Y16362565D01*
X35103200Y16888592D01*
X35137404Y16868844D01*
X35213704Y16848400D01*
X35292696Y16848400D01*
X35368996Y16868844D01*
X35403200Y16888592D01*
X35403200Y16362565D01*
X35486548Y16379143D01*
X35632139Y16439449D01*
X35634785Y16441216D01*
X35636189Y16441613D01*
X35636436Y16441744D01*
X35636464Y16441690D01*
X35693671Y16457831D01*
X35751078Y16436661D01*
X35780362Y16398895D01*
X35821413Y16305923D01*
X35900722Y16226614D01*
X36003327Y16181310D01*
X36028403Y16178401D01*
X36223200Y16178401D01*
X36223200Y16948399D01*
X36223199Y16948400D01*
X35767200Y16948400D01*
X35752288Y16953245D01*
X35736607Y16953245D01*
X35723921Y16962462D01*
X35709009Y16967307D01*
X35699792Y16979993D01*
X35687107Y16989209D01*
X35682261Y17004122D01*
X35673045Y17016807D01*
X35668200Y17047400D01*
X35668200Y17149400D01*
X35687107Y17207591D01*
X35736607Y17243555D01*
X35767200Y17248400D01*
X36274200Y17248400D01*
X36332391Y17229493D01*
X36368355Y17179993D01*
X36373200Y17149400D01*
X36373200Y17098401D01*
X36373201Y17098400D01*
X36424200Y17098400D01*
X36482391Y17079493D01*
X36518355Y17029993D01*
X36523200Y16999400D01*
X36523200Y16178402D01*
X36523201Y16178401D01*
X36537247Y16178401D01*
X36595438Y16159494D01*
X36631402Y16109994D01*
X36631402Y16048808D01*
X36607251Y16009397D01*
X36009119Y15411266D01*
X35954602Y15383489D01*
X35895635Y15392329D01*
X35836080Y15421443D01*
X35792379Y15442807D01*
X35720361Y15453300D01*
X35720357Y15453300D01*
X35050044Y15453300D01*
X35050041Y15453300D01*
X35050040Y15453299D01*
X35026033Y15449802D01*
X34978019Y15442807D01*
X34866934Y15388500D01*
X34779499Y15301065D01*
X34743787Y15228014D01*
X34725193Y15189979D01*
X34715384Y15122652D01*
X34714700Y15117958D01*
X34714700Y14447645D01*
X34714700Y14447643D01*
X34714701Y14447640D01*
X34717613Y14427653D01*
X34725193Y14375620D01*
X34741614Y14342031D01*
X34779500Y14264534D01*
X34803305Y14240729D01*
X34831081Y14186214D01*
X34832300Y14170727D01*
X34832300Y12421626D01*
X34856423Y12363386D01*
X34873479Y12322208D01*
X34873480Y12322207D01*
X34873481Y12322205D01*
X36454807Y10740879D01*
X36525107Y10711760D01*
X36554227Y10699698D01*
X36554228Y10699698D01*
X36661838Y10699698D01*
X38950907Y10699698D01*
X39009098Y10680791D01*
X39045062Y10631291D01*
X39045952Y10628400D01*
X39047004Y10624788D01*
X39097564Y10516364D01*
X39097565Y10516363D01*
X39097566Y10516361D01*
X39182163Y10431764D01*
X39290591Y10381203D01*
X39340001Y10374698D01*
X39856998Y10374699D01*
X39906409Y10381203D01*
X39906410Y10381203D01*
X39980872Y10415926D01*
X40014837Y10431764D01*
X40099434Y10516361D01*
X40149995Y10624789D01*
X40156500Y10674199D01*
X40156499Y11266196D01*
X40149995Y11315607D01*
X40149995Y11315609D01*
X40099435Y11424033D01*
X40099434Y11424034D01*
X40099434Y11424035D01*
X40014837Y11508632D01*
X40014835Y11508633D01*
X40014834Y11508634D01*
X39900860Y11561781D01*
X39856112Y11603509D01*
X39843700Y11651505D01*
X39843700Y11906536D01*
X39862607Y11964727D01*
X39912107Y12000691D01*
X39962015Y12003633D01*
X39967802Y12002482D01*
X39995842Y11996904D01*
X39995848Y11996904D01*
X39995850Y11996903D01*
X39995851Y11996903D01*
X40225549Y11996903D01*
X40225550Y11996903D01*
X40288046Y12009334D01*
X40358915Y12056688D01*
X40406269Y12127557D01*
X40406269Y12127559D01*
X40408370Y12130702D01*
X40456420Y12168581D01*
X40490685Y12174700D01*
X41930058Y12174700D01*
X41988249Y12155793D01*
X42000062Y12145704D01*
X42529703Y11616063D01*
X42557480Y11561546D01*
X42558699Y11546059D01*
X42558699Y11485746D01*
X42573814Y11409758D01*
X42573815Y11409757D01*
X42573815Y11409756D01*
X42616465Y11345925D01*
X42633073Y11287037D01*
X42611895Y11229633D01*
X42592938Y11211269D01*
X42504559Y11146042D01*
X42504557Y11146040D01*
X42425793Y11039321D01*
X42381986Y10914128D01*
X42379199Y10884401D01*
X42379199Y10841401D01*
X42379200Y10841400D01*
X43599197Y10841400D01*
X43599198Y10841401D01*
X43599198Y10884404D01*
X43596412Y10914122D01*
X43596411Y10914127D01*
X43552603Y11039323D01*
X43552603Y11039324D01*
X43539646Y11056879D01*
X43520303Y11114926D01*
X43538773Y11173257D01*
X43588002Y11209591D01*
X43649186Y11210049D01*
X43657622Y11205997D01*
X43657896Y11206657D01*
X43666903Y11202928D01*
X43666908Y11202924D01*
X43741432Y11188100D01*
X44061765Y11188101D01*
X44136290Y11202924D01*
X44220805Y11259394D01*
X44277275Y11343909D01*
X44292099Y11418433D01*
X44292098Y11838766D01*
X44277275Y11913291D01*
X44220805Y11997806D01*
X44220801Y11997809D01*
X44174291Y12028886D01*
X44136412Y12076936D01*
X44134010Y12138074D01*
X44168003Y12188947D01*
X44174276Y12193506D01*
X44220805Y12224594D01*
X44277275Y12309109D01*
X44292099Y12383633D01*
X44292098Y12803966D01*
X44292098Y12803967D01*
X44531099Y12803967D01*
X44531099Y12383637D01*
X44531100Y12383630D01*
X44545922Y12309111D01*
X44545922Y12309110D01*
X44545923Y12309109D01*
X44602393Y12224594D01*
X44627360Y12207912D01*
X44648905Y12193516D01*
X44686785Y12145466D01*
X44689187Y12084328D01*
X44655195Y12033454D01*
X44648905Y12028884D01*
X44602395Y11997808D01*
X44602391Y11997804D01*
X44545924Y11913294D01*
X44545922Y11913288D01*
X44531100Y11838777D01*
X44531099Y11838767D01*
X44531099Y11418437D01*
X44531100Y11418430D01*
X44545922Y11343911D01*
X44545922Y11343910D01*
X44545923Y11343909D01*
X44602393Y11259394D01*
X44686908Y11202924D01*
X44761432Y11188100D01*
X45081765Y11188101D01*
X45156290Y11202924D01*
X45213396Y11241081D01*
X45219190Y11242715D01*
X45223450Y11246974D01*
X45248180Y11250891D01*
X45272282Y11257688D01*
X45277933Y11255603D01*
X45283882Y11256545D01*
X45306193Y11245178D01*
X45329686Y11236510D01*
X45338399Y11228768D01*
X45397903Y11169264D01*
X45425680Y11114747D01*
X45426899Y11099260D01*
X45426899Y10841602D01*
X45407992Y10783411D01*
X45358492Y10747447D01*
X45353523Y10745976D01*
X45317816Y10736409D01*
X45317809Y10736406D01*
X45226489Y10683682D01*
X45151918Y10609111D01*
X45099194Y10517791D01*
X45099194Y10517790D01*
X45099193Y10517788D01*
X45099193Y10517787D01*
X45071900Y10415927D01*
X45071900Y10310473D01*
X45099193Y10208613D01*
X45099194Y10208611D01*
X45099194Y10208610D01*
X45151918Y10117290D01*
X45151920Y10117287D01*
X45226487Y10042720D01*
X45317813Y9989993D01*
X45419673Y9962700D01*
X45419675Y9962700D01*
X45525125Y9962700D01*
X45525127Y9962700D01*
X45626987Y9989993D01*
X45718313Y10042720D01*
X45792880Y10117287D01*
X45792883Y10117293D01*
X45793855Y10118558D01*
X45794798Y10119207D01*
X45797468Y10121876D01*
X45797962Y10121382D01*
X45844277Y10153217D01*
X45905442Y10151618D01*
X45946930Y10121475D01*
X45947332Y10121876D01*
X45949866Y10119342D01*
X45950945Y10118558D01*
X45951917Y10117291D01*
X45951918Y10117290D01*
X45951920Y10117287D01*
X46026487Y10042720D01*
X46117813Y9989993D01*
X46219673Y9962700D01*
X46219675Y9962700D01*
X46325125Y9962700D01*
X46325127Y9962700D01*
X46426987Y9989993D01*
X46518313Y10042720D01*
X46592880Y10117287D01*
X46645607Y10208613D01*
X46672900Y10310473D01*
X46672900Y10415927D01*
X46645607Y10517787D01*
X46639171Y10528934D01*
X46608500Y10582059D01*
X46592880Y10609113D01*
X46518313Y10683680D01*
X46491896Y10698932D01*
X46426990Y10736406D01*
X46426983Y10736409D01*
X46391277Y10745976D01*
X46339963Y10779300D01*
X46318037Y10836421D01*
X46317901Y10841602D01*
X46317901Y11461858D01*
X46284332Y11542900D01*
X46222304Y11604929D01*
X46222304Y11604928D01*
X45341094Y12486138D01*
X45313317Y12540655D01*
X45312098Y12556142D01*
X45312098Y12803964D01*
X45312097Y12803971D01*
X45298292Y12873377D01*
X45297275Y12878491D01*
X45282503Y12900599D01*
X46014900Y12900599D01*
X46014900Y12371034D01*
X46021078Y12303036D01*
X46021080Y12303027D01*
X46069841Y12146546D01*
X46069847Y12146532D01*
X46154644Y12006261D01*
X46270559Y11890346D01*
X46410830Y11805549D01*
X46410844Y11805543D01*
X46567330Y11756781D01*
X46635340Y11750601D01*
X46914897Y11750601D01*
X46914899Y11750602D01*
X46914899Y12900599D01*
X47214899Y12900599D01*
X47214899Y11750602D01*
X47214900Y11750601D01*
X47494449Y11750601D01*
X47494465Y11750602D01*
X47562463Y11756780D01*
X47562472Y11756782D01*
X47718953Y11805543D01*
X47718967Y11805549D01*
X47859238Y11890346D01*
X47975153Y12006261D01*
X48059950Y12146532D01*
X48059956Y12146546D01*
X48108718Y12303032D01*
X48114898Y12371036D01*
X48114899Y12371048D01*
X48114899Y12900599D01*
X48114898Y12900600D01*
X47214900Y12900600D01*
X47214899Y12900599D01*
X46914899Y12900599D01*
X46914898Y12900600D01*
X46014901Y12900600D01*
X46014900Y12900599D01*
X45282503Y12900599D01*
X45274438Y12912670D01*
X45240808Y12963002D01*
X45240806Y12963004D01*
X45240805Y12963006D01*
X45174624Y13007226D01*
X45156292Y13019475D01*
X45156290Y13019476D01*
X45156287Y13019477D01*
X45156286Y13019477D01*
X45081775Y13034299D01*
X45081767Y13034300D01*
X45081766Y13034300D01*
X45081765Y13034300D01*
X44761435Y13034300D01*
X44761428Y13034299D01*
X44686909Y13019477D01*
X44602395Y12963008D01*
X44602391Y12963004D01*
X44545924Y12878494D01*
X44545922Y12878488D01*
X44531100Y12803977D01*
X44531099Y12803967D01*
X44292098Y12803967D01*
X44277275Y12878491D01*
X44220805Y12963006D01*
X44154624Y13007226D01*
X44136292Y13019475D01*
X44136290Y13019476D01*
X44136287Y13019477D01*
X44136286Y13019477D01*
X44061775Y13034299D01*
X44061767Y13034300D01*
X44061766Y13034300D01*
X44061765Y13034300D01*
X43741435Y13034300D01*
X43741428Y13034299D01*
X43666909Y13019477D01*
X43657901Y13015745D01*
X43656402Y13019363D01*
X43615373Y13007809D01*
X43557977Y13029009D01*
X43524005Y13079897D01*
X43526432Y13141034D01*
X43539645Y13165521D01*
X43552604Y13183080D01*
X43596411Y13308273D01*
X43599199Y13338000D01*
X43599199Y13380999D01*
X43599198Y13381000D01*
X42379201Y13381000D01*
X42379200Y13380999D01*
X42379200Y13337997D01*
X42381985Y13308279D01*
X42381986Y13308274D01*
X42423162Y13190601D01*
X42424535Y13129431D01*
X42389691Y13079136D01*
X42331939Y13058928D01*
X42329718Y13058903D01*
X39159742Y13058903D01*
X39078700Y13025335D01*
X38848768Y12795403D01*
X38816541Y12717599D01*
X38791871Y12687521D01*
X38794380Y12685012D01*
X38787482Y12678115D01*
X38740131Y12607250D01*
X38740130Y12607248D01*
X38727700Y12544756D01*
X38727700Y12190051D01*
X38740130Y12127559D01*
X38740131Y12127557D01*
X38777505Y12071623D01*
X38787485Y12056688D01*
X38858354Y12009334D01*
X38920850Y11996903D01*
X38920851Y11996903D01*
X39150549Y11996903D01*
X39150550Y11996903D01*
X39150551Y11996904D01*
X39150557Y11996904D01*
X39176359Y12002037D01*
X39184384Y12003633D01*
X39245146Y11996443D01*
X39290076Y11954911D01*
X39302700Y11906536D01*
X39302700Y11627910D01*
X39283793Y11569719D01*
X39245540Y11538186D01*
X39182165Y11508634D01*
X39097564Y11424033D01*
X39047007Y11315614D01*
X39045954Y11311998D01*
X39043947Y11309052D01*
X39043804Y11308743D01*
X39043753Y11308767D01*
X39011520Y11261422D01*
X38953935Y11240744D01*
X38950908Y11240698D01*
X36761086Y11240698D01*
X36702895Y11259605D01*
X36691082Y11269694D01*
X35402296Y12558480D01*
X35374519Y12612997D01*
X35373300Y12628484D01*
X35373300Y13067401D01*
X36143700Y13067401D01*
X36143700Y12979999D01*
X36146455Y12950619D01*
X36189764Y12826848D01*
X36267634Y12721339D01*
X36267636Y12721337D01*
X36373145Y12643467D01*
X36496916Y12600158D01*
X36526296Y12597403D01*
X36526300Y12597402D01*
X36563699Y12597402D01*
X36563700Y12597403D01*
X36563700Y13067401D01*
X36563699Y13067402D01*
X36143701Y13067402D01*
X36143700Y13067401D01*
X35373300Y13067401D01*
X35373300Y14013301D01*
X35392207Y14071492D01*
X35441707Y14107456D01*
X35472300Y14112301D01*
X35720355Y14112301D01*
X35720360Y14112301D01*
X35792379Y14122793D01*
X35903466Y14177100D01*
X35990900Y14264534D01*
X36045207Y14375621D01*
X36055168Y14443987D01*
X36677699Y14443987D01*
X36677699Y14383403D01*
X36677700Y14383402D01*
X36977698Y14383402D01*
X36977699Y14383403D01*
X36977699Y14777660D01*
X36944218Y14772782D01*
X36831783Y14717816D01*
X36743285Y14629318D01*
X36688319Y14516883D01*
X36677699Y14443987D01*
X36055168Y14443987D01*
X36055700Y14447639D01*
X36055700Y14693811D01*
X36064009Y14719387D01*
X36070284Y14745531D01*
X36073357Y14748157D01*
X36074607Y14752002D01*
X36116805Y14785272D01*
X36129244Y14790424D01*
X36170426Y14807481D01*
X37402519Y16039574D01*
X37431638Y16109875D01*
X37443700Y16138994D01*
X37443700Y16273353D01*
X37444189Y16278253D01*
X37454601Y16301976D01*
X37462607Y16326615D01*
X37466731Y16329612D01*
X37468780Y16334279D01*
X37491146Y16347350D01*
X37512107Y16362579D01*
X37521317Y16364983D01*
X37521606Y16365151D01*
X37521864Y16365126D01*
X37523378Y16365520D01*
X37524378Y16365719D01*
X37570073Y16360315D01*
X37582489Y16359076D01*
X37582786Y16358812D01*
X37585140Y16358533D01*
X37630073Y16317004D01*
X37642700Y16268623D01*
X37642700Y14737738D01*
X37623793Y14679547D01*
X37574293Y14643583D01*
X37513107Y14643583D01*
X37473696Y14667734D01*
X37423614Y14717816D01*
X37311179Y14772782D01*
X37277699Y14777660D01*
X37277699Y14332402D01*
X37258792Y14274211D01*
X37209292Y14238247D01*
X37178699Y14233402D01*
X37127700Y14233402D01*
X37127699Y14233401D01*
X37127699Y14182402D01*
X37108792Y14124211D01*
X37059292Y14088247D01*
X37028699Y14083402D01*
X36677700Y14083402D01*
X36677699Y14083401D01*
X36677699Y14022818D01*
X36688210Y13950675D01*
X36677890Y13890367D01*
X36634092Y13847642D01*
X36590244Y13837402D01*
X36526296Y13837402D01*
X36496916Y13834647D01*
X36373145Y13791338D01*
X36267636Y13713468D01*
X36267634Y13713466D01*
X36189764Y13607957D01*
X36146455Y13484186D01*
X36143700Y13454806D01*
X36143700Y13367403D01*
X36143701Y13367402D01*
X36614700Y13367402D01*
X36672891Y13348495D01*
X36708855Y13298995D01*
X36713700Y13268402D01*
X36713700Y13217403D01*
X36713701Y13217402D01*
X36764700Y13217402D01*
X36822891Y13198495D01*
X36858855Y13148995D01*
X36863700Y13118402D01*
X36863700Y12597403D01*
X36863701Y12597402D01*
X36901100Y12597402D01*
X36901103Y12597403D01*
X36930483Y12600158D01*
X37054254Y12643467D01*
X37159763Y12721337D01*
X37159765Y12721339D01*
X37237633Y12826846D01*
X37237789Y12827289D01*
X37238050Y12827633D01*
X37241102Y12833406D01*
X37242059Y12832900D01*
X37274848Y12875974D01*
X37333446Y12893578D01*
X37391201Y12873377D01*
X37413551Y12849606D01*
X37414489Y12848202D01*
X37414491Y12848200D01*
X37414494Y12848196D01*
X37499009Y12791726D01*
X37573533Y12776902D01*
X37893866Y12776903D01*
X37968391Y12791726D01*
X38052906Y12848196D01*
X38109376Y12932711D01*
X38124200Y13007235D01*
X38124199Y13427568D01*
X38109376Y13502093D01*
X38052906Y13586608D01*
X38052191Y13587086D01*
X38051313Y13588200D01*
X38046011Y13593502D01*
X38046638Y13594130D01*
X38041317Y13600882D01*
X38027105Y13611207D01*
X38022846Y13624314D01*
X38014315Y13635137D01*
X38008198Y13669398D01*
X38008198Y13840998D01*
X38027105Y13899189D01*
X38037194Y13911002D01*
X38043640Y13917450D01*
X38043647Y13917454D01*
X38086856Y13982122D01*
X38098199Y14039147D01*
X38098198Y14427656D01*
X38095795Y14439736D01*
X38086856Y14484681D01*
X38086856Y14484682D01*
X38043647Y14549350D01*
X38043643Y14549353D01*
X38036752Y14556244D01*
X38038639Y14558132D01*
X38009814Y14594707D01*
X38003700Y14628959D01*
X38003700Y16268623D01*
X38022607Y16326814D01*
X38072107Y16362778D01*
X38122015Y16365721D01*
X38126180Y16364893D01*
X38126183Y16364891D01*
X38161330Y16357900D01*
X38161332Y16357900D01*
X38485068Y16357900D01*
X38485070Y16357900D01*
X38520217Y16364891D01*
X38520218Y16364893D01*
X38529225Y16368622D01*
X38529955Y16366858D01*
X38577082Y16380151D01*
X38613673Y16371576D01*
X38621274Y16368171D01*
X38626183Y16364891D01*
X38630522Y16364028D01*
X38640720Y16359460D01*
X38653050Y16348307D01*
X38670251Y16339115D01*
X38796017Y16213349D01*
X38823794Y16158832D01*
X38817478Y16105462D01*
X38815200Y16099963D01*
X38815200Y14446840D01*
X38796293Y14388649D01*
X38788153Y14379120D01*
X38740131Y14307250D01*
X38740130Y14307248D01*
X38727700Y14244756D01*
X38727700Y13890051D01*
X38740130Y13827559D01*
X38740131Y13827557D01*
X38785501Y13759656D01*
X38787485Y13756688D01*
X38858354Y13709334D01*
X38920850Y13696903D01*
X38920851Y13696903D01*
X39122363Y13696903D01*
X39180554Y13677996D01*
X39192367Y13667907D01*
X39277286Y13582988D01*
X39389716Y13528024D01*
X39389719Y13528023D01*
X39423199Y13523146D01*
X39423200Y13523146D01*
X39423200Y14761661D01*
X39389720Y14756783D01*
X39384427Y14755147D01*
X39323248Y14756033D01*
X39274273Y14792710D01*
X39256200Y14849735D01*
X39256200Y15885700D01*
X39275107Y15943891D01*
X39324607Y15979855D01*
X39355200Y15984700D01*
X39566261Y15984700D01*
X39615189Y16004967D01*
X39647303Y16018269D01*
X39933696Y16304664D01*
X39988213Y16332441D01*
X40048645Y16322870D01*
X40091910Y16279605D01*
X40102700Y16234660D01*
X40102700Y14707240D01*
X40083793Y14649049D01*
X40034293Y14613085D01*
X39973107Y14613085D01*
X39933696Y14637236D01*
X39869115Y14701817D01*
X39756680Y14756783D01*
X39723200Y14761661D01*
X39723200Y13523146D01*
X39756680Y13528023D01*
X39756683Y13528024D01*
X39869113Y13582988D01*
X39869114Y13582989D01*
X39954033Y13667907D01*
X40008550Y13695684D01*
X40024037Y13696903D01*
X40225549Y13696903D01*
X40225550Y13696903D01*
X40288046Y13709334D01*
X40358915Y13756688D01*
X40406269Y13827557D01*
X40418700Y13890053D01*
X40418700Y14022561D01*
X40436045Y14078538D01*
X40441224Y14086094D01*
X40510130Y14154999D01*
X40510131Y14155000D01*
X40539251Y14225302D01*
X40543700Y14236042D01*
X40543700Y14323763D01*
X40543700Y15756427D01*
X40562607Y15814618D01*
X40612107Y15850582D01*
X40673293Y15850582D01*
X40712701Y15826433D01*
X41001534Y15537600D01*
X41253555Y15285579D01*
X41284158Y15272903D01*
X41330684Y15233167D01*
X41331639Y15231575D01*
X41340109Y15217152D01*
X41346043Y15187320D01*
X41389252Y15122652D01*
X41399714Y15115662D01*
X41411067Y15096332D01*
X41415059Y15078215D01*
X41423482Y15061683D01*
X41424701Y15046196D01*
X41424701Y14874597D01*
X41405794Y14816406D01*
X41380705Y14792283D01*
X41379996Y14791810D01*
X41379992Y14791806D01*
X41323525Y14707296D01*
X41323523Y14707290D01*
X41308701Y14632779D01*
X41308700Y14632769D01*
X41308700Y14212439D01*
X41308701Y14212432D01*
X41323523Y14137913D01*
X41323523Y14137912D01*
X41323524Y14137911D01*
X41379994Y14053396D01*
X41464509Y13996926D01*
X41539033Y13982102D01*
X41859366Y13982103D01*
X41933891Y13996926D01*
X42018406Y14053396D01*
X42019344Y14054801D01*
X42021541Y14056533D01*
X42025301Y14060292D01*
X42025745Y14059848D01*
X42067392Y14092682D01*
X42128530Y14095087D01*
X42179405Y14061097D01*
X42191764Y14038589D01*
X42191798Y14038606D01*
X42192922Y14036479D01*
X42195107Y14032500D01*
X42195266Y14032046D01*
X42273134Y13926539D01*
X42273140Y13926533D01*
X42348915Y13870607D01*
X42384507Y13820839D01*
X42384049Y13759656D01*
X42383574Y13758264D01*
X42381986Y13753727D01*
X42381985Y13753720D01*
X42379199Y13724013D01*
X42379199Y13681001D01*
X42379200Y13681000D01*
X43599197Y13681000D01*
X43599198Y13681001D01*
X43599198Y13724005D01*
X43599197Y13724007D01*
X43598620Y13730165D01*
X46014899Y13730165D01*
X46014899Y13200601D01*
X46014900Y13200600D01*
X46914898Y13200600D01*
X46914899Y13200601D01*
X46914899Y14350599D01*
X47214899Y14350599D01*
X47214899Y13200601D01*
X47214900Y13200600D01*
X48114897Y13200600D01*
X48114898Y13200601D01*
X48114898Y13730151D01*
X48114897Y13730167D01*
X48108719Y13798165D01*
X48108717Y13798174D01*
X48059956Y13954655D01*
X48059950Y13954669D01*
X47975153Y14094940D01*
X47859238Y14210855D01*
X47718967Y14295652D01*
X47718953Y14295658D01*
X47562467Y14344420D01*
X47494463Y14350600D01*
X47214900Y14350600D01*
X47214899Y14350599D01*
X46914899Y14350599D01*
X46914898Y14350600D01*
X46635348Y14350600D01*
X46635332Y14350599D01*
X46567334Y14344421D01*
X46567325Y14344419D01*
X46410844Y14295658D01*
X46410830Y14295652D01*
X46270559Y14210855D01*
X46154644Y14094940D01*
X46069847Y13954669D01*
X46069841Y13954655D01*
X46021079Y13798169D01*
X46014899Y13730165D01*
X43598620Y13730165D01*
X43596412Y13753721D01*
X43596411Y13753727D01*
X43552604Y13878921D01*
X43473840Y13985640D01*
X43473838Y13985642D01*
X43367120Y14064405D01*
X43353805Y14069064D01*
X43305126Y14106131D01*
X43287530Y14164731D01*
X43287938Y14171757D01*
X43289200Y14185207D01*
X43289200Y14272601D01*
X43289199Y14272602D01*
X42818200Y14272602D01*
X42803288Y14277447D01*
X42787607Y14277447D01*
X42774921Y14286664D01*
X42760009Y14291509D01*
X42750792Y14304195D01*
X42738107Y14313411D01*
X42733261Y14328324D01*
X42724045Y14341009D01*
X42719200Y14371602D01*
X42719200Y14473602D01*
X42738107Y14531793D01*
X42787607Y14567757D01*
X42818200Y14572602D01*
X43289199Y14572602D01*
X43289200Y14572603D01*
X43289200Y14660002D01*
X43289199Y14660006D01*
X43286444Y14689386D01*
X43243135Y14813157D01*
X43165265Y14918666D01*
X43165263Y14918668D01*
X43059754Y14996538D01*
X42935983Y15039847D01*
X42906603Y15042602D01*
X42842656Y15042602D01*
X42784465Y15061509D01*
X42748501Y15111009D01*
X42744690Y15155874D01*
X42755199Y15228014D01*
X42755200Y15228015D01*
X42755200Y15288599D01*
X42755199Y15288600D01*
X42404200Y15288600D01*
X42346009Y15307507D01*
X42310045Y15357007D01*
X42305200Y15387600D01*
X42305200Y15438599D01*
X42305199Y15438600D01*
X42254200Y15438600D01*
X42196009Y15457507D01*
X42160045Y15507007D01*
X42155200Y15537600D01*
X42155200Y15588601D01*
X42455200Y15588601D01*
X42455201Y15588600D01*
X42755199Y15588600D01*
X42755200Y15588601D01*
X42755200Y15649185D01*
X42744579Y15722081D01*
X42689613Y15834516D01*
X42601115Y15923014D01*
X42488678Y15977981D01*
X42471491Y15980486D01*
X42455200Y15980676D01*
X42455200Y15588601D01*
X42155200Y15588601D01*
X42155200Y15982858D01*
X42121719Y15977980D01*
X42009284Y15923014D01*
X41920785Y15834515D01*
X41920784Y15834513D01*
X41916534Y15825820D01*
X41873988Y15781849D01*
X41813722Y15771283D01*
X41772596Y15786990D01*
X41756482Y15797757D01*
X41756480Y15797758D01*
X41699456Y15809100D01*
X41510948Y15809100D01*
X41510939Y15809099D01*
X41453921Y15797758D01*
X41400376Y15761981D01*
X41341487Y15745374D01*
X41284084Y15766553D01*
X41275372Y15774294D01*
X41032696Y16016970D01*
X41029069Y16024088D01*
X41022607Y16028783D01*
X41015443Y16050832D01*
X41004919Y16071487D01*
X41003700Y16086974D01*
X41003700Y16268623D01*
X41022607Y16326814D01*
X41072107Y16362778D01*
X41122015Y16365721D01*
X41126180Y16364893D01*
X41126183Y16364891D01*
X41161330Y16357900D01*
X41161332Y16357900D01*
X41485068Y16357900D01*
X41485070Y16357900D01*
X41520217Y16364891D01*
X41520218Y16364893D01*
X41529225Y16368622D01*
X41529955Y16366858D01*
X41577082Y16380151D01*
X41616628Y16367302D01*
X41617175Y16368622D01*
X41626183Y16364891D01*
X41661330Y16357900D01*
X41661332Y16357900D01*
X42133954Y16357900D01*
X42192145Y16338993D01*
X42213982Y16311947D01*
X42216231Y16313487D01*
X42221413Y16305921D01*
X42300720Y16226615D01*
X42403324Y16181311D01*
X42422643Y16179070D01*
X42479801Y16178401D01*
X42623200Y16178401D01*
X42623200Y16948399D01*
X42623199Y16948400D01*
X42492700Y16948400D01*
X42477788Y16953245D01*
X42462107Y16953245D01*
X42449421Y16962462D01*
X42434509Y16967307D01*
X42425292Y16979993D01*
X42412607Y16989209D01*
X42407761Y17004122D01*
X42398545Y17016807D01*
X42393700Y17047400D01*
X42393700Y17149400D01*
X42412607Y17207591D01*
X42462107Y17243555D01*
X42492700Y17248400D01*
X42674200Y17248400D01*
X42732391Y17229493D01*
X42768355Y17179993D01*
X42773200Y17149400D01*
X42773200Y17098401D01*
X42773201Y17098400D01*
X42824200Y17098400D01*
X42882391Y17079493D01*
X42918355Y17029993D01*
X42923200Y16999400D01*
X42923200Y16178402D01*
X42923201Y16178401D01*
X43117990Y16178401D01*
X43117991Y16178402D01*
X43143074Y16181310D01*
X43245677Y16226614D01*
X43324987Y16305924D01*
X43366037Y16398894D01*
X43406837Y16444490D01*
X43466646Y16457396D01*
X43511608Y16441219D01*
X43514250Y16439454D01*
X43514259Y16439449D01*
X43659851Y16379143D01*
X43659850Y16379143D01*
X43743199Y16362565D01*
X43743200Y16362565D01*
X43743200Y16888592D01*
X43777404Y16868844D01*
X43853704Y16848400D01*
X43932696Y16848400D01*
X44008996Y16868844D01*
X44043200Y16888592D01*
X44043200Y16362565D01*
X44126548Y16379143D01*
X44272140Y16439449D01*
X44272149Y16439453D01*
X44403169Y16527000D01*
X44403173Y16527003D01*
X44514597Y16638427D01*
X44514600Y16638431D01*
X44602147Y16769451D01*
X44602151Y16769460D01*
X44662457Y16915051D01*
X44693199Y17069605D01*
X44693200Y17069608D01*
X44693200Y17548399D01*
X44693199Y17548400D01*
X44193200Y17548400D01*
X44193200Y17848400D01*
X44693199Y17848400D01*
X44693200Y17848401D01*
X44693200Y18327193D01*
X44693199Y18327196D01*
X44662457Y18481750D01*
X44602151Y18627341D01*
X44602147Y18627350D01*
X44514600Y18758370D01*
X44514597Y18758374D01*
X44403173Y18869798D01*
X44403169Y18869801D01*
X44272149Y18957348D01*
X44272140Y18957352D01*
X44126554Y19017656D01*
X44126550Y19017657D01*
X44043200Y19034237D01*
X44043200Y18508209D01*
X44008996Y18527956D01*
X43932696Y18548400D01*
X43853704Y18548400D01*
X43777404Y18527956D01*
X43743200Y18508209D01*
X43743200Y19034237D01*
X43659849Y19017657D01*
X43659845Y19017656D01*
X43514259Y18957352D01*
X43514250Y18957348D01*
X43383230Y18869801D01*
X43383226Y18869798D01*
X43271802Y18758374D01*
X43271799Y18758370D01*
X43184252Y18627350D01*
X43184248Y18627341D01*
X43138834Y18517702D01*
X43099097Y18471176D01*
X43039602Y18456893D01*
X42983074Y18480308D01*
X42961634Y18506087D01*
X42923715Y18571765D01*
X42816565Y18678915D01*
X42816562Y18678917D01*
X42816560Y18678919D01*
X42685338Y18754680D01*
X42685340Y18754680D01*
X42612574Y18774177D01*
X42538966Y18793900D01*
X42387434Y18793900D01*
X42313826Y18774177D01*
X42241060Y18754680D01*
X42109839Y18678919D01*
X42002681Y18571761D01*
X41926920Y18440540D01*
X41887508Y18293449D01*
X41854184Y18242135D01*
X41797062Y18220208D01*
X41737962Y18236044D01*
X41721877Y18249068D01*
X41352026Y18618919D01*
X41303505Y18639017D01*
X41303504Y18639017D01*
X41303501Y18639018D01*
X41276313Y18650280D01*
X41252606Y18660100D01*
X37893794Y18660100D01*
X37893793Y18660100D01*
X37842894Y18639018D01*
X37842895Y18639017D01*
X37794371Y18618918D01*
X37424521Y18249069D01*
X37370005Y18221292D01*
X37309573Y18230863D01*
X37266308Y18274128D01*
X37258891Y18293450D01*
X37258700Y18294163D01*
X37258700Y18294166D01*
X37219481Y18440535D01*
X37219479Y18440538D01*
X37219479Y18440540D01*
X37143718Y18571761D01*
X37143716Y18571763D01*
X37143715Y18571765D01*
X37036565Y18678915D01*
X37036562Y18678917D01*
X37036560Y18678919D01*
X36905338Y18754680D01*
X36905340Y18754680D01*
X36832574Y18774177D01*
X36758966Y18793900D01*
X36607434Y18793900D01*
X36533826Y18774177D01*
X36461060Y18754680D01*
X36329839Y18678919D01*
X36222683Y18571763D01*
X36184765Y18506087D01*
X36139295Y18465147D01*
X36078445Y18458752D01*
X36025457Y18489345D01*
X36007565Y18517703D01*
X35962153Y18627338D01*
X35962147Y18627350D01*
X35874600Y18758370D01*
X35874597Y18758374D01*
X35763173Y18869798D01*
X35763169Y18869801D01*
X35632149Y18957348D01*
X35632140Y18957352D01*
X35486554Y19017656D01*
X35486550Y19017657D01*
X35403200Y19034237D01*
X35403200Y18508209D01*
X35368996Y18527956D01*
X35292696Y18548400D01*
X35213704Y18548400D01*
X35137404Y18527956D01*
X35103200Y18508209D01*
X35103200Y19034237D01*
X35019849Y19017657D01*
X35019845Y19017656D01*
X34874259Y18957352D01*
X34874250Y18957348D01*
X34743230Y18869801D01*
X34743226Y18869798D01*
X34631802Y18758374D01*
X34631799Y18758370D01*
X34544252Y18627350D01*
X34544248Y18627341D01*
X34483942Y18481750D01*
X34453200Y18327196D01*
X31231528Y18327196D01*
X31187300Y18417666D01*
X31099866Y18505100D01*
X30988779Y18559407D01*
X30916761Y18569900D01*
X30916757Y18569900D01*
X30246444Y18569900D01*
X30246441Y18569900D01*
X30246440Y18569899D01*
X30222433Y18566402D01*
X30174419Y18559407D01*
X30063333Y18505100D01*
X29993329Y18435096D01*
X29938812Y18407319D01*
X29923326Y18406100D01*
X28650121Y18406100D01*
X28591930Y18425007D01*
X28558657Y18467215D01*
X28558633Y18467272D01*
X28498101Y18613411D01*
X28495247Y18620302D01*
X28494847Y18620900D01*
X28389037Y18779258D01*
X28253858Y18914437D01*
X28215938Y18939774D01*
X28094901Y19020648D01*
X27918284Y19093804D01*
X27730788Y19131100D01*
X27730786Y19131100D01*
X27539614Y19131100D01*
X27539611Y19131100D01*
X27352116Y19093804D01*
X27352114Y19093804D01*
X27175498Y19020648D01*
X27016545Y18914440D01*
X26881360Y18779255D01*
X26775152Y18620302D01*
X26701996Y18443686D01*
X26701996Y18443684D01*
X26664700Y18256189D01*
X26212800Y18256189D01*
X26212800Y20791111D01*
X26485200Y20791111D01*
X26485200Y20610090D01*
X26513516Y20431311D01*
X26569450Y20259160D01*
X26651630Y20097872D01*
X26722624Y20000158D01*
X27191528Y20469064D01*
X27235101Y20393593D01*
X27328193Y20300501D01*
X27403660Y20256930D01*
X26934756Y19788026D01*
X26934756Y19788025D01*
X27032463Y19717036D01*
X27032469Y19717032D01*
X27193759Y19634851D01*
X27365910Y19578917D01*
X27544690Y19550600D01*
X27725710Y19550600D01*
X27904489Y19578917D01*
X28076640Y19634851D01*
X28237930Y19717032D01*
X28237935Y19717036D01*
X28335642Y19788025D01*
X28335642Y19788026D01*
X27866738Y20256930D01*
X27942207Y20300501D01*
X28035299Y20393593D01*
X28078870Y20469062D01*
X28547774Y20000158D01*
X28547775Y20000158D01*
X28618764Y20097865D01*
X28618768Y20097870D01*
X28700949Y20259160D01*
X28756883Y20431311D01*
X28775587Y20549399D01*
X29731600Y20549399D01*
X29731600Y20356336D01*
X29742213Y20267957D01*
X29797680Y20127305D01*
X29889035Y20006836D01*
X30009504Y19915481D01*
X30150156Y19860014D01*
X30238535Y19849401D01*
X30238542Y19849400D01*
X30431599Y19849400D01*
X30431600Y19849401D01*
X30431600Y20549399D01*
X30731600Y20549399D01*
X30731600Y19849401D01*
X30731601Y19849400D01*
X30924658Y19849400D01*
X30924664Y19849401D01*
X31013043Y19860014D01*
X31153695Y19915481D01*
X31274164Y20006836D01*
X31365519Y20127305D01*
X31420986Y20267957D01*
X31431599Y20356336D01*
X31431600Y20356342D01*
X31431600Y20549399D01*
X31431599Y20549400D01*
X30731601Y20549400D01*
X30731600Y20549399D01*
X30431600Y20549399D01*
X30431599Y20549400D01*
X29731601Y20549400D01*
X29731600Y20549399D01*
X28775587Y20549399D01*
X28784535Y20605894D01*
X28784536Y20605897D01*
X28784536Y20605899D01*
X28785200Y20610090D01*
X28785200Y20791111D01*
X28756883Y20969890D01*
X28742283Y21014827D01*
X28733303Y21042465D01*
X29731600Y21042465D01*
X29731600Y20849401D01*
X29731601Y20849400D01*
X30431599Y20849400D01*
X30431600Y20849401D01*
X30431600Y21549399D01*
X30731600Y21549399D01*
X30731600Y20849401D01*
X30731601Y20849400D01*
X31431599Y20849400D01*
X31431600Y20849401D01*
X31431600Y21042459D01*
X31431599Y21042465D01*
X31420986Y21130844D01*
X31365519Y21271496D01*
X31274164Y21391965D01*
X31153695Y21483320D01*
X31013043Y21538787D01*
X30924664Y21549400D01*
X30731601Y21549400D01*
X30731600Y21549399D01*
X30431600Y21549399D01*
X30431599Y21549400D01*
X30238535Y21549400D01*
X30150156Y21538787D01*
X30009504Y21483320D01*
X29889035Y21391965D01*
X29797680Y21271496D01*
X29742213Y21130844D01*
X29731600Y21042465D01*
X28733303Y21042465D01*
X28700949Y21142041D01*
X28618768Y21303331D01*
X28618764Y21303337D01*
X28547775Y21401044D01*
X28547774Y21401044D01*
X28078870Y20932140D01*
X28035299Y21007607D01*
X27942207Y21100699D01*
X27866736Y21144272D01*
X28335642Y21613176D01*
X28237928Y21684170D01*
X28204510Y21701197D01*
X28076640Y21766350D01*
X27904489Y21822284D01*
X27725710Y21850600D01*
X27544690Y21850600D01*
X27365910Y21822284D01*
X27193759Y21766350D01*
X27032469Y21684169D01*
X27032465Y21684167D01*
X26934756Y21613177D01*
X27403661Y21144272D01*
X27328193Y21100699D01*
X27235101Y21007607D01*
X27191528Y20932139D01*
X26722623Y21401044D01*
X26651633Y21303335D01*
X26651631Y21303331D01*
X26569450Y21142041D01*
X26513516Y20969890D01*
X26485200Y20791111D01*
X26212800Y20791111D01*
X26212800Y22377196D01*
X34453200Y22377196D01*
X34453200Y22048401D01*
X34453201Y22048400D01*
X34953200Y22048400D01*
X34953200Y21748400D01*
X34453201Y21748400D01*
X34453200Y21748399D01*
X34453200Y21419605D01*
X34483942Y21265051D01*
X34544248Y21119460D01*
X34544252Y21119451D01*
X34631799Y20988431D01*
X34631802Y20988427D01*
X34743226Y20877003D01*
X34743230Y20877000D01*
X34874250Y20789453D01*
X34874259Y20789449D01*
X35019851Y20729143D01*
X35019850Y20729143D01*
X35103199Y20712565D01*
X35103200Y20712565D01*
X35103200Y21238592D01*
X35137404Y21218844D01*
X35213704Y21198400D01*
X35292696Y21198400D01*
X35368996Y21218844D01*
X35403200Y21238592D01*
X35403200Y20712565D01*
X35486548Y20729143D01*
X35632140Y20789449D01*
X35632149Y20789453D01*
X35763169Y20877000D01*
X35763173Y20877003D01*
X35874597Y20988427D01*
X35874600Y20988431D01*
X35962147Y21119451D01*
X35962151Y21119460D01*
X36022457Y21265051D01*
X36053199Y21419605D01*
X36053200Y21419608D01*
X36053200Y21748399D01*
X36053199Y21748400D01*
X35553200Y21748400D01*
X35553200Y22048400D01*
X36053199Y22048400D01*
X36053200Y22048401D01*
X36053200Y22377193D01*
X36053199Y22377196D01*
X43093200Y22377196D01*
X43093200Y22048401D01*
X43093201Y22048400D01*
X43593200Y22048400D01*
X43593200Y21748400D01*
X43093201Y21748400D01*
X43093200Y21748399D01*
X43093200Y21419605D01*
X43123942Y21265051D01*
X43184248Y21119460D01*
X43184252Y21119451D01*
X43271799Y20988431D01*
X43271802Y20988427D01*
X43383226Y20877003D01*
X43383230Y20877000D01*
X43514250Y20789453D01*
X43514259Y20789449D01*
X43659851Y20729143D01*
X43659850Y20729143D01*
X43743199Y20712565D01*
X43743200Y20712565D01*
X43743200Y21238592D01*
X43777404Y21218844D01*
X43853704Y21198400D01*
X43932696Y21198400D01*
X44008996Y21218844D01*
X44043200Y21238592D01*
X44043200Y20712565D01*
X44126548Y20729143D01*
X44272140Y20789449D01*
X44272149Y20789453D01*
X44403169Y20877000D01*
X44403173Y20877003D01*
X44514597Y20988427D01*
X44514600Y20988431D01*
X44602147Y21119451D01*
X44602151Y21119460D01*
X44662457Y21265051D01*
X44693199Y21419605D01*
X44693200Y21419608D01*
X44693200Y21601799D01*
X45087201Y21601799D01*
X45087201Y21263736D01*
X45097814Y21175357D01*
X45153281Y21034705D01*
X45244636Y20914236D01*
X45365105Y20822881D01*
X45505757Y20767414D01*
X45594136Y20756801D01*
X45594143Y20756800D01*
X45944700Y20756800D01*
X45944701Y20756801D01*
X45944701Y21601799D01*
X46244701Y21601799D01*
X46244701Y20756801D01*
X46244702Y20756800D01*
X46595259Y20756800D01*
X46595265Y20756801D01*
X46683644Y20767414D01*
X46824296Y20822881D01*
X46944765Y20914236D01*
X47036120Y21034705D01*
X47091587Y21175357D01*
X47102200Y21263736D01*
X47102201Y21263742D01*
X47102201Y21601799D01*
X47102200Y21601800D01*
X46244702Y21601800D01*
X46244701Y21601799D01*
X45944701Y21601799D01*
X45944700Y21601800D01*
X45087202Y21601800D01*
X45087201Y21601799D01*
X44693200Y21601799D01*
X44693200Y21748399D01*
X44693199Y21748400D01*
X44193200Y21748400D01*
X44193200Y22048400D01*
X44693199Y22048400D01*
X44693200Y22048401D01*
X44693200Y22239865D01*
X45087201Y22239865D01*
X45087201Y21901801D01*
X45087202Y21901800D01*
X45944700Y21901800D01*
X45944701Y21901801D01*
X45944701Y22746799D01*
X46244701Y22746799D01*
X46244701Y21901801D01*
X46244702Y21901800D01*
X47102200Y21901800D01*
X47102201Y21901801D01*
X47102201Y22239859D01*
X47102200Y22239865D01*
X47091587Y22328244D01*
X47036120Y22468896D01*
X46944765Y22589365D01*
X46824296Y22680720D01*
X46683644Y22736187D01*
X46595265Y22746800D01*
X46244702Y22746800D01*
X46244701Y22746799D01*
X45944701Y22746799D01*
X45944700Y22746800D01*
X45594136Y22746800D01*
X45505757Y22736187D01*
X45365105Y22680720D01*
X45244636Y22589365D01*
X45153281Y22468896D01*
X45097814Y22328244D01*
X45087201Y22239865D01*
X44693200Y22239865D01*
X44693200Y22377193D01*
X44693199Y22377196D01*
X44662457Y22531750D01*
X44602151Y22677341D01*
X44602147Y22677350D01*
X44514600Y22808370D01*
X44514597Y22808374D01*
X44403173Y22919798D01*
X44403169Y22919801D01*
X44272149Y23007348D01*
X44272140Y23007352D01*
X44126554Y23067656D01*
X44126550Y23067657D01*
X44043200Y23084237D01*
X44043200Y22558209D01*
X44008996Y22577956D01*
X43932696Y22598400D01*
X43853704Y22598400D01*
X43777404Y22577956D01*
X43743200Y22558209D01*
X43743200Y23084237D01*
X43659849Y23067657D01*
X43659845Y23067656D01*
X43514259Y23007352D01*
X43514250Y23007348D01*
X43383230Y22919801D01*
X43383226Y22919798D01*
X43271802Y22808374D01*
X43271799Y22808370D01*
X43184252Y22677350D01*
X43184248Y22677341D01*
X43123942Y22531750D01*
X43093200Y22377196D01*
X36053199Y22377196D01*
X36022457Y22531750D01*
X35962151Y22677341D01*
X35962147Y22677350D01*
X35874600Y22808370D01*
X35874597Y22808374D01*
X35763173Y22919798D01*
X35763169Y22919801D01*
X35632149Y23007348D01*
X35632140Y23007352D01*
X35486554Y23067656D01*
X35486550Y23067657D01*
X35403200Y23084237D01*
X35403200Y22558209D01*
X35368996Y22577956D01*
X35292696Y22598400D01*
X35213704Y22598400D01*
X35137404Y22577956D01*
X35103200Y22558209D01*
X35103200Y23084237D01*
X35019849Y23067657D01*
X35019845Y23067656D01*
X34874259Y23007352D01*
X34874250Y23007348D01*
X34743230Y22919801D01*
X34743226Y22919798D01*
X34631802Y22808374D01*
X34631799Y22808370D01*
X34544252Y22677350D01*
X34544248Y22677341D01*
X34483942Y22531750D01*
X34453200Y22377196D01*
X26212800Y22377196D01*
X26212800Y24695720D01*
X26231707Y24753911D01*
X26281207Y24789875D01*
X26311793Y24794719D01*
X73758663Y24794757D01*
X73764642Y24794576D01*
G37*
G04 #@! TD.AperFunction*
G04 #@! TD*
M02*
