M48
; DRILL file {KiCad 9.0.3} date 2025-09-10T23:17:51+0200
; FORMAT={-:-/ absolute / metric / decimal}
; #@! TF.CreationDate,2025-09-10T23:17:51+02:00
; #@! TF.GenerationSoftware,Kicad,Pcbnew,9.0.3
; #@! TF.FileFunction,Plated,1,4,PTH
FMAT,2
METRIC
; #@! TA.AperFunction,Plated,PTH,ComponentDrill
T1C0.200
; #@! TA.AperFunction,Plated,PTH,ViaDrill
T2C0.300
; #@! TA.AperFunction,Plated,PTH,ComponentDrill
T3C0.600
; #@! TA.AperFunction,Plated,PTH,ComponentDrill
T4C1.000
%
G90
G05
T1
X59.08Y10.215
X59.08Y9.115
X59.63Y10.765
X59.63Y9.665
X59.63Y8.565
X60.18Y10.215
X60.18Y9.115
X60.73Y10.765
X60.73Y9.665
X60.73Y8.565
X61.28Y10.215
X61.28Y9.115
T2
X5.283Y7.971
X5.283Y5.939
X5.283Y3.856
X5.283Y1.621
X7.01Y6.65
X7.061Y8.733
X7.061Y1.626
X7.061Y0.605
X8.331Y7.615
X8.433Y3.861
X8.433Y2.54
X9.601Y8.733
X9.601Y6.65
X9.601Y0.605
X10.871Y7.615
X11.328Y3.861
X12.141Y8.733
X12.141Y0.605
X13.411Y7.615
X14.173Y3.861
X14.224Y2.54
X14.63Y8.733
X14.681Y0.605
X15.951Y7.615
X17.069Y3.861
X17.221Y8.733
X17.221Y0.605
X18.44Y7.615
X19.761Y8.733
X19.761Y0.605
X19.914Y3.861
X19.914Y2.642
X20.98Y7.615
X22.301Y8.733
X22.301Y0.605
X22.809Y3.861
X23.52Y7.631
X24.841Y8.733
X24.841Y0.605
X25.654Y2.743
X25.705Y3.861
X26.111Y7.615
X26.67Y17.013
X26.721Y19.401
X26.772Y23.516
X26.772Y22.093
X27.381Y24.481
X27.381Y8.733
X27.381Y0.605
X28.499Y5.944
X28.753Y17.013
X28.753Y14.829
X28.753Y12.289
X28.753Y9.749
X28.804Y22.093
X28.804Y19.401
X28.804Y3.2
X29.334Y5.583
X29.515Y15.896
X29.921Y24.481
X29.921Y13.559
X29.921Y12.289
X29.921Y0.605
X30.124Y4.572
X30.582Y22.093
X30.582Y19.401
X31.344Y4.572
X31.394Y12.289
X31.394Y0.605
X32.004Y4.115
X32.461Y24.481
X32.461Y22.855
X32.461Y20.676
X32.461Y18.339
X32.461Y16.358
X32.664Y4.572
X32.664Y0.605
X33.02Y11.024
X33.071Y13.411
X33.782Y8.073
X33.934Y4.572
X34.036Y14.829
X34.239Y19.807
X34.442Y12.04
X34.544Y4.115
X34.696Y9.398
X35.052Y24.481
X35.204Y4.572
X35.204Y0.605
X35.458Y10.973
X35.458Y8.179
X36.322Y14.219
X36.474Y19.249
X36.678Y12.192
X36.728Y9.804
X37.186Y15.24
X37.49Y6.452
X37.49Y4.161
X37.541Y24.481
X37.541Y22.855
X37.541Y20.823
X37.541Y0.605
X37.948Y12.035
X38.405Y15.24
X38.557Y13.254
X38.71Y7.666
X38.76Y19.249
X39.675Y15.291
X39.776Y8.885
X40.081Y24.481
X40.081Y22.855
X40.081Y20.823
X40.081Y0.605
X40.132Y4.161
X40.894Y13.614
X40.945Y14.986
X41.046Y19.147
X42.012Y13.564
X42.113Y10.719
X42.57Y20.823
X42.621Y22.855
X42.621Y0.605
X42.621Y24.467
X42.774Y16.154
X42.824Y19.147
X42.824Y9.597
X43.332Y15.443
X43.383Y8.733
X43.434Y6.549
X43.891Y14.423
X44.094Y13.564
X44.247Y5.583
X44.348Y10.719
X44.907Y15.439
X44.958Y18.995
X45.161Y4.161
X45.161Y0.605
X45.161Y24.467
X45.212Y8.733
X45.415Y13.661
X45.472Y10.363
X46.076Y23.211
X46.272Y10.363
X46.33Y14.931
X46.38Y18.995
X46.38Y17.471
X46.482Y4.267
X47.041Y16.201
X47.041Y11.125
X47.396Y9.241
X47.498Y3.759
X47.701Y0.605
X47.701Y24.468
X47.752Y17.471
X47.752Y14.931
X48.717Y11.074
X48.87Y3.099
X49.886Y20.879
X49.936Y21.844
X50.241Y9.241
X50.241Y0.605
X50.241Y24.468
X50.495Y5.634
X50.8Y20.874
X50.952Y17.471
X50.952Y14.931
X51.359Y7.666
X51.511Y16.15
X52.222Y17.471
X52.222Y14.931
X52.273Y19.909
X52.324Y23.211
X52.781Y24.481
X52.781Y0.605
X53.137Y19.35
X53.188Y3.099
X53.238Y10.765
X53.238Y7.666
X53.238Y5.583
X53.492Y22.657
X53.492Y13.767
X53.543Y16.251
X54.356Y17.826
X54.407Y3.15
X54.813Y20.93
X54.813Y10.765
X54.864Y15.083
X54.915Y5.583
X54.966Y7.666
X55.321Y24.481
X55.372Y0.605
X55.88Y3.15
X55.931Y11.832
X56.032Y16.251
X56.032Y5.334
X56.693Y7.666
X56.693Y3.15
X56.998Y12.899
X57.048Y20.625
X57.15Y4.318
X57.201Y17.42
X57.709Y9.652
X57.76Y12.04
X57.76Y6.752
X57.861Y24.481
X57.861Y0.605
X58.064Y3.353
X58.115Y14.016
X58.928Y5.583
X59.182Y20.574
X59.233Y3.15
X59.284Y15.185
X59.284Y7.061
X59.588Y18.186
X60.036Y3.353
X60.046Y4.466
X60.401Y24.481
X60.401Y0.605
X60.452Y18.186
X60.452Y14.427
X60.452Y12.04
X60.96Y3.404
X61.265Y18.186
X61.671Y23.059
X61.722Y16.759
X61.722Y7.061
X61.722Y5.537
X61.773Y13.157
X61.824Y20.874
X61.925Y3.15
X62.192Y18.186
X62.636Y4.115
X62.941Y24.481
X62.941Y0.605
X62.992Y18.186
X63.348Y20.874
X63.856Y16.759
X63.856Y14.981
X63.856Y11.227
X63.856Y9.296
X63.856Y7.061
X63.856Y5.537
X64.211Y23.059
X64.77Y3.505
X65.481Y24.481
X65.481Y0.605
X65.583Y3.15
X65.938Y16.759
X65.938Y14.981
X65.938Y13.153
X65.938Y9.296
X65.938Y7.061
X65.938Y5.537
X66.396Y23.059
X66.396Y3.15
X67.361Y23.059
X67.513Y14.981
X67.513Y13.153
X67.513Y11.171
X67.513Y7.057
X67.513Y5.533
X67.564Y16.759
X67.615Y19.401
X68.021Y24.481
X68.021Y3.145
X68.021Y0.605
X68.377Y20.925
X68.58Y21.996
X69.088Y16.048
X69.088Y12.441
X69.139Y8.936
X69.24Y23.059
X69.342Y1.88
X69.799Y20.519
X69.85Y3.81
X70.256Y7.869
X70.307Y14.169
X70.307Y10.765
X70.358Y17.115
X70.561Y24.481
X70.561Y21.941
X70.561Y3.145
X70.561Y0.605
X70.815Y5.537
X70.968Y19.401
X71.882Y12.441
X71.882Y8.885
X71.885Y16.053
X73.101Y19.401
X73.101Y5.685
X73.609Y14.169
X73.609Y10.765
X73.609Y7.869
X73.711Y17.115
X74.625Y12.441
X74.625Y8.885
X75.082Y19.401
X75.895Y18.385
X75.895Y15.845
X75.895Y13.305
X75.895Y10.663
X75.895Y8.225
X75.895Y5.685
T4
X7.315Y20.701
X7.315Y18.161
X9.855Y20.701
X9.855Y18.161
X12.395Y20.701
X12.395Y18.161
X14.935Y20.701
X14.935Y18.161
X17.475Y20.701
X17.475Y18.161
X20.015Y20.701
X20.015Y18.161
X22.555Y20.701
X22.555Y18.161
X25.095Y20.701
X25.095Y18.161
X27.635Y20.701
X27.635Y18.161
T3
G00X35.253Y21.498
M15
G01X35.253Y22.298
M16
G05
G00X35.253Y17.148
M15
G01X35.253Y18.248
M16
G05
G00X43.893Y21.498
M15
G01X43.893Y22.298
M16
G05
G00X43.893Y17.148
M15
G01X43.893Y18.248
M16
G05
M30
