%TF.GenerationSoftware,KiCad,Pcbnew,7.0.7*%
%TF.CreationDate,2024-01-20T15:39:31+01:00*%
%TF.ProjectId,esp-atx-power,6573702d-6174-4782-9d70-6f7765722e6b,1.0.0*%
%TF.SameCoordinates,PX6695f68PY7b6af88*%
%TF.FileFunction,Legend,Bot*%
%TF.FilePolarity,Positive*%
%FSLAX46Y46*%
G04 Gerber Fmt 4.6, Leading zero omitted, Abs format (unit mm)*
G04 Created by KiCad (PCBNEW 7.0.7) date 2024-01-20 15:39:31*
%MOMM*%
%LPD*%
G01*
G04 APERTURE LIST*
%ADD10C,0.154000*%
%ADD11C,0.120000*%
%ADD12C,2.700000*%
%ADD13R,1.700000X1.700000*%
%ADD14O,1.700000X1.700000*%
%ADD15C,0.650000*%
%ADD16O,2.100000X1.000000*%
%ADD17O,1.800000X1.000000*%
%ADD18C,1.000000*%
%ADD19R,1.000000X1.000000*%
G04 APERTURE END LIST*
D10*
X30170446Y9412159D02*
X29599018Y9412159D01*
X29884732Y8412159D02*
X29884732Y9412159D01*
X29265684Y8412159D02*
X29265684Y9412159D01*
X29265684Y9412159D02*
X28932351Y8697874D01*
X28932351Y8697874D02*
X28599018Y9412159D01*
X28599018Y9412159D02*
X28599018Y8412159D01*
X28170446Y8459778D02*
X28027589Y8412159D01*
X28027589Y8412159D02*
X27789494Y8412159D01*
X27789494Y8412159D02*
X27694256Y8459778D01*
X27694256Y8459778D02*
X27646637Y8507398D01*
X27646637Y8507398D02*
X27599018Y8602636D01*
X27599018Y8602636D02*
X27599018Y8697874D01*
X27599018Y8697874D02*
X27646637Y8793112D01*
X27646637Y8793112D02*
X27694256Y8840731D01*
X27694256Y8840731D02*
X27789494Y8888350D01*
X27789494Y8888350D02*
X27979970Y8935969D01*
X27979970Y8935969D02*
X28075208Y8983588D01*
X28075208Y8983588D02*
X28122827Y9031207D01*
X28122827Y9031207D02*
X28170446Y9126445D01*
X28170446Y9126445D02*
X28170446Y9221683D01*
X28170446Y9221683D02*
X28122827Y9316921D01*
X28122827Y9316921D02*
X28075208Y9364540D01*
X28075208Y9364540D02*
X27979970Y9412159D01*
X27979970Y9412159D02*
X27741875Y9412159D01*
X27741875Y9412159D02*
X27599018Y9364540D01*
G36*
X3498417Y38821065D02*
G01*
X3574920Y38782813D01*
X3648467Y38709266D01*
X3686388Y38595505D01*
X3686388Y38446906D01*
X2840388Y38446906D01*
X2840387Y38595507D01*
X2878309Y38709266D01*
X2951857Y38782813D01*
X3028359Y38821064D01*
X3201439Y38864334D01*
X3325338Y38864334D01*
X3498417Y38821065D01*
G37*
G36*
X1888417Y39654398D02*
G01*
X1964920Y39616146D01*
X2038467Y39542599D01*
X2076387Y39428838D01*
X2076388Y39280239D01*
X1230388Y39280239D01*
X1230388Y39428840D01*
X1268309Y39542599D01*
X1341857Y39616147D01*
X1418358Y39654397D01*
X1591439Y39697667D01*
X1715338Y39697667D01*
X1888417Y39654398D01*
G37*
G36*
X3498417Y39821065D02*
G01*
X3574920Y39782813D01*
X3648467Y39709266D01*
X3686388Y39595505D01*
X3686388Y39446906D01*
X2840388Y39446906D01*
X2840387Y39595507D01*
X2878309Y39709266D01*
X2951857Y39782813D01*
X3028359Y39821064D01*
X3201439Y39864334D01*
X3325338Y39864334D01*
X3498417Y39821065D01*
G37*
G36*
X3983245Y37102430D02*
G01*
X933531Y37102430D01*
X933531Y37335658D01*
X2687558Y37335658D01*
X2696704Y37283787D01*
X2737052Y37249931D01*
X2763388Y37245287D01*
X3763388Y37245287D01*
X3812883Y37263302D01*
X3839218Y37308916D01*
X3830072Y37360787D01*
X3789724Y37394643D01*
X3763388Y37399287D01*
X3364198Y37399287D01*
X3364198Y37816715D01*
X3763388Y37816715D01*
X3812883Y37834730D01*
X3839218Y37880344D01*
X3830072Y37932215D01*
X3789724Y37966071D01*
X3763388Y37970715D01*
X2763388Y37970715D01*
X2713893Y37952700D01*
X2687558Y37907086D01*
X2696704Y37855215D01*
X2737052Y37821359D01*
X2763388Y37816715D01*
X3210198Y37816715D01*
X3210198Y37399287D01*
X2763388Y37399287D01*
X2713893Y37381272D01*
X2687558Y37335658D01*
X933531Y37335658D01*
X933531Y37488953D01*
X1076388Y37488953D01*
X1083230Y37470155D01*
X1086704Y37450453D01*
X1092026Y37445987D01*
X1094403Y37439458D01*
X1111727Y37429456D01*
X1127052Y37416597D01*
X1137054Y37414834D01*
X1140017Y37413123D01*
X1143385Y37413717D01*
X1153388Y37411953D01*
X2153388Y37411953D01*
X2202883Y37429968D01*
X2229218Y37475582D01*
X2220072Y37527453D01*
X2179724Y37561309D01*
X2153388Y37565953D01*
X1230388Y37565953D01*
X1230388Y37965143D01*
X1212373Y38014638D01*
X1166759Y38040973D01*
X1114888Y38031827D01*
X1081032Y37991479D01*
X1076388Y37965143D01*
X1076388Y37488953D01*
X933531Y37488953D01*
X933531Y38298477D01*
X1076388Y38298477D01*
X1083230Y38279679D01*
X1086704Y38259977D01*
X1092026Y38255511D01*
X1094403Y38248982D01*
X1111727Y38238980D01*
X1127052Y38226121D01*
X1137054Y38224358D01*
X1140017Y38222647D01*
X1143385Y38223241D01*
X1153388Y38221477D01*
X2153388Y38221477D01*
X2172186Y38228320D01*
X2191888Y38231793D01*
X2196354Y38237116D01*
X2202883Y38239492D01*
X2212885Y38256817D01*
X2225744Y38272141D01*
X2227507Y38282144D01*
X2229218Y38285106D01*
X2228624Y38288475D01*
X2230388Y38298477D01*
X2230388Y38369906D01*
X2686388Y38369906D01*
X2693230Y38351108D01*
X2696704Y38331406D01*
X2702026Y38326940D01*
X2704403Y38320411D01*
X2721727Y38310409D01*
X2737052Y38297550D01*
X2747054Y38295787D01*
X2750017Y38294076D01*
X2753385Y38294670D01*
X2763388Y38292906D01*
X3763388Y38292906D01*
X3782186Y38299749D01*
X3801888Y38303222D01*
X3806354Y38308545D01*
X3812883Y38310921D01*
X3822885Y38328246D01*
X3835744Y38343570D01*
X3837507Y38353573D01*
X3839218Y38356535D01*
X3838624Y38359904D01*
X3840388Y38369906D01*
X3840388Y38608001D01*
X3839812Y38609582D01*
X3836436Y38632351D01*
X3788818Y38775208D01*
X3785956Y38778815D01*
X3785555Y38783399D01*
X3770216Y38805305D01*
X3674978Y38900543D01*
X3673456Y38901253D01*
X3654966Y38914967D01*
X3559728Y38962586D01*
X3556104Y38963004D01*
X3543968Y38968416D01*
X3353492Y39016035D01*
X3349951Y39015666D01*
X3334817Y39018334D01*
X3191960Y39018334D01*
X3188615Y39017117D01*
X3173285Y39016035D01*
X2982809Y38968416D01*
X2979787Y38966376D01*
X2967048Y38962586D01*
X2871811Y38914967D01*
X2870655Y38913747D01*
X2851799Y38900543D01*
X2756561Y38805305D01*
X2754615Y38801134D01*
X2750694Y38798724D01*
X2737960Y38775208D01*
X2690340Y38632351D01*
X2690385Y38630673D01*
X2686388Y38608001D01*
X2686388Y38369906D01*
X2230388Y38369906D01*
X2230388Y38774667D01*
X2212373Y38824162D01*
X2166759Y38850497D01*
X2114888Y38841351D01*
X2081032Y38801003D01*
X2076388Y38774667D01*
X2076388Y38375477D01*
X1754198Y38375477D01*
X1754198Y38631810D01*
X1736183Y38681305D01*
X1690569Y38707640D01*
X1638698Y38698494D01*
X1604842Y38658146D01*
X1600198Y38631810D01*
X1600198Y38375477D01*
X1230388Y38375477D01*
X1230388Y38774667D01*
X1212373Y38824162D01*
X1166759Y38850497D01*
X1114888Y38841351D01*
X1081032Y38801003D01*
X1076388Y38774667D01*
X1076388Y38298477D01*
X933531Y38298477D01*
X933531Y39203239D01*
X1076388Y39203239D01*
X1083230Y39184441D01*
X1086704Y39164739D01*
X1092026Y39160273D01*
X1094403Y39153744D01*
X1111727Y39143742D01*
X1127052Y39130883D01*
X1137054Y39129120D01*
X1140017Y39127409D01*
X1143385Y39128003D01*
X1153388Y39126239D01*
X2153388Y39126239D01*
X2172186Y39133082D01*
X2191888Y39136555D01*
X2196354Y39141878D01*
X2202883Y39144254D01*
X2212885Y39161579D01*
X2225744Y39176903D01*
X2227507Y39186906D01*
X2229218Y39189868D01*
X2228624Y39193237D01*
X2230388Y39203239D01*
X2230388Y39369906D01*
X2686388Y39369906D01*
X2693230Y39351108D01*
X2696704Y39331406D01*
X2702026Y39326940D01*
X2704403Y39320411D01*
X2721727Y39310409D01*
X2737052Y39297550D01*
X2747054Y39295787D01*
X2750017Y39294076D01*
X2753385Y39294670D01*
X2763388Y39292906D01*
X3763388Y39292906D01*
X3782186Y39299749D01*
X3801888Y39303222D01*
X3806354Y39308545D01*
X3812883Y39310921D01*
X3822885Y39328246D01*
X3835744Y39343570D01*
X3837507Y39353573D01*
X3839218Y39356535D01*
X3838624Y39359904D01*
X3840388Y39369906D01*
X3840388Y39608001D01*
X3839812Y39609582D01*
X3836436Y39632351D01*
X3788818Y39775208D01*
X3785956Y39778815D01*
X3785555Y39783399D01*
X3770216Y39805305D01*
X3674978Y39900543D01*
X3673456Y39901253D01*
X3654966Y39914967D01*
X3559728Y39962586D01*
X3556104Y39963004D01*
X3543968Y39968416D01*
X3353492Y40016035D01*
X3349951Y40015666D01*
X3334817Y40018334D01*
X3191960Y40018334D01*
X3188615Y40017117D01*
X3173285Y40016035D01*
X2982809Y39968416D01*
X2979787Y39966376D01*
X2967048Y39962586D01*
X2871811Y39914967D01*
X2870655Y39913747D01*
X2851799Y39900543D01*
X2756561Y39805305D01*
X2754615Y39801134D01*
X2750694Y39798724D01*
X2737960Y39775208D01*
X2690340Y39632351D01*
X2690385Y39630673D01*
X2686388Y39608001D01*
X2686388Y39369906D01*
X2230388Y39369906D01*
X2230388Y39441334D01*
X2229812Y39442915D01*
X2226436Y39465684D01*
X2178818Y39608541D01*
X2175956Y39612148D01*
X2175555Y39616732D01*
X2160216Y39638638D01*
X2064978Y39733876D01*
X2063456Y39734586D01*
X2044966Y39748300D01*
X1949728Y39795919D01*
X1946104Y39796337D01*
X1933968Y39801749D01*
X1743492Y39849368D01*
X1739951Y39848999D01*
X1724817Y39851667D01*
X1581960Y39851667D01*
X1578615Y39850450D01*
X1563285Y39849368D01*
X1372809Y39801749D01*
X1369787Y39799709D01*
X1357048Y39795919D01*
X1261811Y39748300D01*
X1260655Y39747080D01*
X1241799Y39733876D01*
X1146561Y39638638D01*
X1144615Y39634467D01*
X1140694Y39632057D01*
X1127960Y39608541D01*
X1080340Y39465684D01*
X1080385Y39464006D01*
X1076388Y39441334D01*
X1076388Y39203239D01*
X933531Y39203239D01*
X933531Y40161191D01*
X3983245Y40161191D01*
X3983245Y37102430D01*
G37*
X3178341Y34121411D02*
X3178341Y34883315D01*
X2797388Y34502363D02*
X3559293Y34502363D01*
X30170446Y3316159D02*
X29599018Y3316159D01*
X29884732Y2316159D02*
X29884732Y3316159D01*
X28694256Y2411398D02*
X28741875Y2363778D01*
X28741875Y2363778D02*
X28884732Y2316159D01*
X28884732Y2316159D02*
X28979970Y2316159D01*
X28979970Y2316159D02*
X29122827Y2363778D01*
X29122827Y2363778D02*
X29218065Y2459017D01*
X29218065Y2459017D02*
X29265684Y2554255D01*
X29265684Y2554255D02*
X29313303Y2744731D01*
X29313303Y2744731D02*
X29313303Y2887588D01*
X29313303Y2887588D02*
X29265684Y3078064D01*
X29265684Y3078064D02*
X29218065Y3173302D01*
X29218065Y3173302D02*
X29122827Y3268540D01*
X29122827Y3268540D02*
X28979970Y3316159D01*
X28979970Y3316159D02*
X28884732Y3316159D01*
X28884732Y3316159D02*
X28741875Y3268540D01*
X28741875Y3268540D02*
X28694256Y3220921D01*
X28265684Y2316159D02*
X28265684Y3316159D01*
X27694256Y2316159D02*
X28122827Y2887588D01*
X27694256Y3316159D02*
X28265684Y2744731D01*
X37488827Y5348159D02*
X36869780Y5348159D01*
X36869780Y5348159D02*
X37203113Y4967207D01*
X37203113Y4967207D02*
X37060256Y4967207D01*
X37060256Y4967207D02*
X36965018Y4919588D01*
X36965018Y4919588D02*
X36917399Y4871969D01*
X36917399Y4871969D02*
X36869780Y4776731D01*
X36869780Y4776731D02*
X36869780Y4538636D01*
X36869780Y4538636D02*
X36917399Y4443398D01*
X36917399Y4443398D02*
X36965018Y4395778D01*
X36965018Y4395778D02*
X37060256Y4348159D01*
X37060256Y4348159D02*
X37345970Y4348159D01*
X37345970Y4348159D02*
X37441208Y4395778D01*
X37441208Y4395778D02*
X37488827Y4443398D01*
X36584065Y5348159D02*
X36250732Y4348159D01*
X36250732Y4348159D02*
X35917399Y5348159D01*
X35679303Y5348159D02*
X35060256Y5348159D01*
X35060256Y5348159D02*
X35393589Y4967207D01*
X35393589Y4967207D02*
X35250732Y4967207D01*
X35250732Y4967207D02*
X35155494Y4919588D01*
X35155494Y4919588D02*
X35107875Y4871969D01*
X35107875Y4871969D02*
X35060256Y4776731D01*
X35060256Y4776731D02*
X35060256Y4538636D01*
X35060256Y4538636D02*
X35107875Y4443398D01*
X35107875Y4443398D02*
X35155494Y4395778D01*
X35155494Y4395778D02*
X35250732Y4348159D01*
X35250732Y4348159D02*
X35536446Y4348159D01*
X35536446Y4348159D02*
X35631684Y4395778D01*
X35631684Y4395778D02*
X35679303Y4443398D01*
X43299198Y10435911D02*
X43299198Y10769244D01*
X42775388Y10912101D02*
X42775388Y10435911D01*
X42775388Y10435911D02*
X43775388Y10435911D01*
X43775388Y10435911D02*
X43775388Y10912101D01*
X42823008Y11293054D02*
X42775388Y11435911D01*
X42775388Y11435911D02*
X42775388Y11674006D01*
X42775388Y11674006D02*
X42823008Y11769244D01*
X42823008Y11769244D02*
X42870627Y11816863D01*
X42870627Y11816863D02*
X42965865Y11864482D01*
X42965865Y11864482D02*
X43061103Y11864482D01*
X43061103Y11864482D02*
X43156341Y11816863D01*
X43156341Y11816863D02*
X43203960Y11769244D01*
X43203960Y11769244D02*
X43251579Y11674006D01*
X43251579Y11674006D02*
X43299198Y11483530D01*
X43299198Y11483530D02*
X43346817Y11388292D01*
X43346817Y11388292D02*
X43394436Y11340673D01*
X43394436Y11340673D02*
X43489674Y11293054D01*
X43489674Y11293054D02*
X43584912Y11293054D01*
X43584912Y11293054D02*
X43680150Y11340673D01*
X43680150Y11340673D02*
X43727769Y11388292D01*
X43727769Y11388292D02*
X43775388Y11483530D01*
X43775388Y11483530D02*
X43775388Y11721625D01*
X43775388Y11721625D02*
X43727769Y11864482D01*
X42775388Y12293054D02*
X43775388Y12293054D01*
X43775388Y12293054D02*
X43775388Y12674006D01*
X43775388Y12674006D02*
X43727769Y12769244D01*
X43727769Y12769244D02*
X43680150Y12816863D01*
X43680150Y12816863D02*
X43584912Y12864482D01*
X43584912Y12864482D02*
X43442055Y12864482D01*
X43442055Y12864482D02*
X43346817Y12816863D01*
X43346817Y12816863D02*
X43299198Y12769244D01*
X43299198Y12769244D02*
X43251579Y12674006D01*
X43251579Y12674006D02*
X43251579Y12293054D01*
X43775388Y13197816D02*
X43775388Y13816863D01*
X43775388Y13816863D02*
X43394436Y13483530D01*
X43394436Y13483530D02*
X43394436Y13626387D01*
X43394436Y13626387D02*
X43346817Y13721625D01*
X43346817Y13721625D02*
X43299198Y13769244D01*
X43299198Y13769244D02*
X43203960Y13816863D01*
X43203960Y13816863D02*
X42965865Y13816863D01*
X42965865Y13816863D02*
X42870627Y13769244D01*
X42870627Y13769244D02*
X42823008Y13721625D01*
X42823008Y13721625D02*
X42775388Y13626387D01*
X42775388Y13626387D02*
X42775388Y13340673D01*
X42775388Y13340673D02*
X42823008Y13245435D01*
X42823008Y13245435D02*
X42870627Y13197816D01*
X43680150Y14197816D02*
X43727769Y14245435D01*
X43727769Y14245435D02*
X43775388Y14340673D01*
X43775388Y14340673D02*
X43775388Y14578768D01*
X43775388Y14578768D02*
X43727769Y14674006D01*
X43727769Y14674006D02*
X43680150Y14721625D01*
X43680150Y14721625D02*
X43584912Y14769244D01*
X43584912Y14769244D02*
X43489674Y14769244D01*
X43489674Y14769244D02*
X43346817Y14721625D01*
X43346817Y14721625D02*
X42775388Y14150197D01*
X42775388Y14150197D02*
X42775388Y14769244D01*
X43061103Y15912102D02*
X43061103Y16388292D01*
X42775388Y15816864D02*
X43775388Y16150197D01*
X43775388Y16150197D02*
X42775388Y16483530D01*
X43775388Y16674007D02*
X43775388Y17245435D01*
X42775388Y16959721D02*
X43775388Y16959721D01*
X43775388Y17483531D02*
X42775388Y18150197D01*
X43775388Y18150197D02*
X42775388Y17483531D01*
X42775388Y19293055D02*
X43775388Y19293055D01*
X43775388Y19293055D02*
X43775388Y19674007D01*
X43775388Y19674007D02*
X43727769Y19769245D01*
X43727769Y19769245D02*
X43680150Y19816864D01*
X43680150Y19816864D02*
X43584912Y19864483D01*
X43584912Y19864483D02*
X43442055Y19864483D01*
X43442055Y19864483D02*
X43346817Y19816864D01*
X43346817Y19816864D02*
X43299198Y19769245D01*
X43299198Y19769245D02*
X43251579Y19674007D01*
X43251579Y19674007D02*
X43251579Y19293055D01*
X42775388Y20435912D02*
X42823008Y20340674D01*
X42823008Y20340674D02*
X42870627Y20293055D01*
X42870627Y20293055D02*
X42965865Y20245436D01*
X42965865Y20245436D02*
X43251579Y20245436D01*
X43251579Y20245436D02*
X43346817Y20293055D01*
X43346817Y20293055D02*
X43394436Y20340674D01*
X43394436Y20340674D02*
X43442055Y20435912D01*
X43442055Y20435912D02*
X43442055Y20578769D01*
X43442055Y20578769D02*
X43394436Y20674007D01*
X43394436Y20674007D02*
X43346817Y20721626D01*
X43346817Y20721626D02*
X43251579Y20769245D01*
X43251579Y20769245D02*
X42965865Y20769245D01*
X42965865Y20769245D02*
X42870627Y20721626D01*
X42870627Y20721626D02*
X42823008Y20674007D01*
X42823008Y20674007D02*
X42775388Y20578769D01*
X42775388Y20578769D02*
X42775388Y20435912D01*
X43442055Y21102579D02*
X42775388Y21293055D01*
X42775388Y21293055D02*
X43251579Y21483531D01*
X43251579Y21483531D02*
X42775388Y21674007D01*
X42775388Y21674007D02*
X43442055Y21864483D01*
X42823008Y22626388D02*
X42775388Y22531150D01*
X42775388Y22531150D02*
X42775388Y22340674D01*
X42775388Y22340674D02*
X42823008Y22245436D01*
X42823008Y22245436D02*
X42918246Y22197817D01*
X42918246Y22197817D02*
X43299198Y22197817D01*
X43299198Y22197817D02*
X43394436Y22245436D01*
X43394436Y22245436D02*
X43442055Y22340674D01*
X43442055Y22340674D02*
X43442055Y22531150D01*
X43442055Y22531150D02*
X43394436Y22626388D01*
X43394436Y22626388D02*
X43299198Y22674007D01*
X43299198Y22674007D02*
X43203960Y22674007D01*
X43203960Y22674007D02*
X43108722Y22197817D01*
X42775388Y23102579D02*
X43442055Y23102579D01*
X43251579Y23102579D02*
X43346817Y23150198D01*
X43346817Y23150198D02*
X43394436Y23197817D01*
X43394436Y23197817D02*
X43442055Y23293055D01*
X43442055Y23293055D02*
X43442055Y23388293D01*
X42870627Y25054960D02*
X42823008Y25007341D01*
X42823008Y25007341D02*
X42775388Y24864484D01*
X42775388Y24864484D02*
X42775388Y24769246D01*
X42775388Y24769246D02*
X42823008Y24626389D01*
X42823008Y24626389D02*
X42918246Y24531151D01*
X42918246Y24531151D02*
X43013484Y24483532D01*
X43013484Y24483532D02*
X43203960Y24435913D01*
X43203960Y24435913D02*
X43346817Y24435913D01*
X43346817Y24435913D02*
X43537293Y24483532D01*
X43537293Y24483532D02*
X43632531Y24531151D01*
X43632531Y24531151D02*
X43727769Y24626389D01*
X43727769Y24626389D02*
X43775388Y24769246D01*
X43775388Y24769246D02*
X43775388Y24864484D01*
X43775388Y24864484D02*
X43727769Y25007341D01*
X43727769Y25007341D02*
X43680150Y25054960D01*
X42775388Y25626389D02*
X42823008Y25531151D01*
X42823008Y25531151D02*
X42870627Y25483532D01*
X42870627Y25483532D02*
X42965865Y25435913D01*
X42965865Y25435913D02*
X43251579Y25435913D01*
X43251579Y25435913D02*
X43346817Y25483532D01*
X43346817Y25483532D02*
X43394436Y25531151D01*
X43394436Y25531151D02*
X43442055Y25626389D01*
X43442055Y25626389D02*
X43442055Y25769246D01*
X43442055Y25769246D02*
X43394436Y25864484D01*
X43394436Y25864484D02*
X43346817Y25912103D01*
X43346817Y25912103D02*
X43251579Y25959722D01*
X43251579Y25959722D02*
X42965865Y25959722D01*
X42965865Y25959722D02*
X42870627Y25912103D01*
X42870627Y25912103D02*
X42823008Y25864484D01*
X42823008Y25864484D02*
X42775388Y25769246D01*
X42775388Y25769246D02*
X42775388Y25626389D01*
X43442055Y26388294D02*
X42775388Y26388294D01*
X43346817Y26388294D02*
X43394436Y26435913D01*
X43394436Y26435913D02*
X43442055Y26531151D01*
X43442055Y26531151D02*
X43442055Y26674008D01*
X43442055Y26674008D02*
X43394436Y26769246D01*
X43394436Y26769246D02*
X43299198Y26816865D01*
X43299198Y26816865D02*
X42775388Y26816865D01*
X43442055Y27150199D02*
X43442055Y27531151D01*
X43775388Y27293056D02*
X42918246Y27293056D01*
X42918246Y27293056D02*
X42823008Y27340675D01*
X42823008Y27340675D02*
X42775388Y27435913D01*
X42775388Y27435913D02*
X42775388Y27531151D01*
X42775388Y27864485D02*
X43442055Y27864485D01*
X43251579Y27864485D02*
X43346817Y27912104D01*
X43346817Y27912104D02*
X43394436Y27959723D01*
X43394436Y27959723D02*
X43442055Y28054961D01*
X43442055Y28054961D02*
X43442055Y28150199D01*
X42775388Y28626390D02*
X42823008Y28531152D01*
X42823008Y28531152D02*
X42870627Y28483533D01*
X42870627Y28483533D02*
X42965865Y28435914D01*
X42965865Y28435914D02*
X43251579Y28435914D01*
X43251579Y28435914D02*
X43346817Y28483533D01*
X43346817Y28483533D02*
X43394436Y28531152D01*
X43394436Y28531152D02*
X43442055Y28626390D01*
X43442055Y28626390D02*
X43442055Y28769247D01*
X43442055Y28769247D02*
X43394436Y28864485D01*
X43394436Y28864485D02*
X43346817Y28912104D01*
X43346817Y28912104D02*
X43251579Y28959723D01*
X43251579Y28959723D02*
X42965865Y28959723D01*
X42965865Y28959723D02*
X42870627Y28912104D01*
X42870627Y28912104D02*
X42823008Y28864485D01*
X42823008Y28864485D02*
X42775388Y28769247D01*
X42775388Y28769247D02*
X42775388Y28626390D01*
X42775388Y29531152D02*
X42823008Y29435914D01*
X42823008Y29435914D02*
X42918246Y29388295D01*
X42918246Y29388295D02*
X43775388Y29388295D01*
X42775388Y30054962D02*
X42823008Y29959724D01*
X42823008Y29959724D02*
X42918246Y29912105D01*
X42918246Y29912105D02*
X43775388Y29912105D01*
X42823008Y30816867D02*
X42775388Y30721629D01*
X42775388Y30721629D02*
X42775388Y30531153D01*
X42775388Y30531153D02*
X42823008Y30435915D01*
X42823008Y30435915D02*
X42918246Y30388296D01*
X42918246Y30388296D02*
X43299198Y30388296D01*
X43299198Y30388296D02*
X43394436Y30435915D01*
X43394436Y30435915D02*
X43442055Y30531153D01*
X43442055Y30531153D02*
X43442055Y30721629D01*
X43442055Y30721629D02*
X43394436Y30816867D01*
X43394436Y30816867D02*
X43299198Y30864486D01*
X43299198Y30864486D02*
X43203960Y30864486D01*
X43203960Y30864486D02*
X43108722Y30388296D01*
X42775388Y31293058D02*
X43442055Y31293058D01*
X43251579Y31293058D02*
X43346817Y31340677D01*
X43346817Y31340677D02*
X43394436Y31388296D01*
X43394436Y31388296D02*
X43442055Y31483534D01*
X43442055Y31483534D02*
X43442055Y31578772D01*
X41165388Y11007339D02*
X41641579Y10674006D01*
X41165388Y10435911D02*
X42165388Y10435911D01*
X42165388Y10435911D02*
X42165388Y10816863D01*
X42165388Y10816863D02*
X42117769Y10912101D01*
X42117769Y10912101D02*
X42070150Y10959720D01*
X42070150Y10959720D02*
X41974912Y11007339D01*
X41974912Y11007339D02*
X41832055Y11007339D01*
X41832055Y11007339D02*
X41736817Y10959720D01*
X41736817Y10959720D02*
X41689198Y10912101D01*
X41689198Y10912101D02*
X41641579Y10816863D01*
X41641579Y10816863D02*
X41641579Y10435911D01*
X41213008Y11816863D02*
X41165388Y11721625D01*
X41165388Y11721625D02*
X41165388Y11531149D01*
X41165388Y11531149D02*
X41213008Y11435911D01*
X41213008Y11435911D02*
X41308246Y11388292D01*
X41308246Y11388292D02*
X41689198Y11388292D01*
X41689198Y11388292D02*
X41784436Y11435911D01*
X41784436Y11435911D02*
X41832055Y11531149D01*
X41832055Y11531149D02*
X41832055Y11721625D01*
X41832055Y11721625D02*
X41784436Y11816863D01*
X41784436Y11816863D02*
X41689198Y11864482D01*
X41689198Y11864482D02*
X41593960Y11864482D01*
X41593960Y11864482D02*
X41498722Y11388292D01*
X41832055Y12197816D02*
X41165388Y12435911D01*
X41165388Y12435911D02*
X41832055Y12674006D01*
X41165388Y13054959D02*
X41832055Y13054959D01*
X42165388Y13054959D02*
X42117769Y13007340D01*
X42117769Y13007340D02*
X42070150Y13054959D01*
X42070150Y13054959D02*
X42117769Y13102578D01*
X42117769Y13102578D02*
X42165388Y13054959D01*
X42165388Y13054959D02*
X42070150Y13054959D01*
X41213008Y13483530D02*
X41165388Y13578768D01*
X41165388Y13578768D02*
X41165388Y13769244D01*
X41165388Y13769244D02*
X41213008Y13864482D01*
X41213008Y13864482D02*
X41308246Y13912101D01*
X41308246Y13912101D02*
X41355865Y13912101D01*
X41355865Y13912101D02*
X41451103Y13864482D01*
X41451103Y13864482D02*
X41498722Y13769244D01*
X41498722Y13769244D02*
X41498722Y13626387D01*
X41498722Y13626387D02*
X41546341Y13531149D01*
X41546341Y13531149D02*
X41641579Y13483530D01*
X41641579Y13483530D02*
X41689198Y13483530D01*
X41689198Y13483530D02*
X41784436Y13531149D01*
X41784436Y13531149D02*
X41832055Y13626387D01*
X41832055Y13626387D02*
X41832055Y13769244D01*
X41832055Y13769244D02*
X41784436Y13864482D01*
X41165388Y14340673D02*
X41832055Y14340673D01*
X42165388Y14340673D02*
X42117769Y14293054D01*
X42117769Y14293054D02*
X42070150Y14340673D01*
X42070150Y14340673D02*
X42117769Y14388292D01*
X42117769Y14388292D02*
X42165388Y14340673D01*
X42165388Y14340673D02*
X42070150Y14340673D01*
X41165388Y14959720D02*
X41213008Y14864482D01*
X41213008Y14864482D02*
X41260627Y14816863D01*
X41260627Y14816863D02*
X41355865Y14769244D01*
X41355865Y14769244D02*
X41641579Y14769244D01*
X41641579Y14769244D02*
X41736817Y14816863D01*
X41736817Y14816863D02*
X41784436Y14864482D01*
X41784436Y14864482D02*
X41832055Y14959720D01*
X41832055Y14959720D02*
X41832055Y15102577D01*
X41832055Y15102577D02*
X41784436Y15197815D01*
X41784436Y15197815D02*
X41736817Y15245434D01*
X41736817Y15245434D02*
X41641579Y15293053D01*
X41641579Y15293053D02*
X41355865Y15293053D01*
X41355865Y15293053D02*
X41260627Y15245434D01*
X41260627Y15245434D02*
X41213008Y15197815D01*
X41213008Y15197815D02*
X41165388Y15102577D01*
X41165388Y15102577D02*
X41165388Y14959720D01*
X41832055Y15721625D02*
X41165388Y15721625D01*
X41736817Y15721625D02*
X41784436Y15769244D01*
X41784436Y15769244D02*
X41832055Y15864482D01*
X41832055Y15864482D02*
X41832055Y16007339D01*
X41832055Y16007339D02*
X41784436Y16102577D01*
X41784436Y16102577D02*
X41689198Y16150196D01*
X41689198Y16150196D02*
X41165388Y16150196D01*
X41165388Y17912101D02*
X41165388Y17340673D01*
X41165388Y17626387D02*
X42165388Y17626387D01*
X42165388Y17626387D02*
X42022531Y17531149D01*
X42022531Y17531149D02*
X41927293Y17435911D01*
X41927293Y17435911D02*
X41879674Y17340673D01*
X41260627Y18340673D02*
X41213008Y18388292D01*
X41213008Y18388292D02*
X41165388Y18340673D01*
X41165388Y18340673D02*
X41213008Y18293054D01*
X41213008Y18293054D02*
X41260627Y18340673D01*
X41260627Y18340673D02*
X41165388Y18340673D01*
X42165388Y19007339D02*
X42165388Y19102577D01*
X42165388Y19102577D02*
X42117769Y19197815D01*
X42117769Y19197815D02*
X42070150Y19245434D01*
X42070150Y19245434D02*
X41974912Y19293053D01*
X41974912Y19293053D02*
X41784436Y19340672D01*
X41784436Y19340672D02*
X41546341Y19340672D01*
X41546341Y19340672D02*
X41355865Y19293053D01*
X41355865Y19293053D02*
X41260627Y19245434D01*
X41260627Y19245434D02*
X41213008Y19197815D01*
X41213008Y19197815D02*
X41165388Y19102577D01*
X41165388Y19102577D02*
X41165388Y19007339D01*
X41165388Y19007339D02*
X41213008Y18912101D01*
X41213008Y18912101D02*
X41260627Y18864482D01*
X41260627Y18864482D02*
X41355865Y18816863D01*
X41355865Y18816863D02*
X41546341Y18769244D01*
X41546341Y18769244D02*
X41784436Y18769244D01*
X41784436Y18769244D02*
X41974912Y18816863D01*
X41974912Y18816863D02*
X42070150Y18864482D01*
X42070150Y18864482D02*
X42117769Y18912101D01*
X42117769Y18912101D02*
X42165388Y19007339D01*
X41260627Y19769244D02*
X41213008Y19816863D01*
X41213008Y19816863D02*
X41165388Y19769244D01*
X41165388Y19769244D02*
X41213008Y19721625D01*
X41213008Y19721625D02*
X41260627Y19769244D01*
X41260627Y19769244D02*
X41165388Y19769244D01*
X42165388Y20435910D02*
X42165388Y20531148D01*
X42165388Y20531148D02*
X42117769Y20626386D01*
X42117769Y20626386D02*
X42070150Y20674005D01*
X42070150Y20674005D02*
X41974912Y20721624D01*
X41974912Y20721624D02*
X41784436Y20769243D01*
X41784436Y20769243D02*
X41546341Y20769243D01*
X41546341Y20769243D02*
X41355865Y20721624D01*
X41355865Y20721624D02*
X41260627Y20674005D01*
X41260627Y20674005D02*
X41213008Y20626386D01*
X41213008Y20626386D02*
X41165388Y20531148D01*
X41165388Y20531148D02*
X41165388Y20435910D01*
X41165388Y20435910D02*
X41213008Y20340672D01*
X41213008Y20340672D02*
X41260627Y20293053D01*
X41260627Y20293053D02*
X41355865Y20245434D01*
X41355865Y20245434D02*
X41546341Y20197815D01*
X41546341Y20197815D02*
X41784436Y20197815D01*
X41784436Y20197815D02*
X41974912Y20245434D01*
X41974912Y20245434D02*
X42070150Y20293053D01*
X42070150Y20293053D02*
X42117769Y20340672D01*
X42117769Y20340672D02*
X42165388Y20435910D01*
X30170446Y5348159D02*
X29599018Y5348159D01*
X29884732Y4348159D02*
X29884732Y5348159D01*
X29265684Y4348159D02*
X29265684Y5348159D01*
X29265684Y5348159D02*
X29027589Y5348159D01*
X29027589Y5348159D02*
X28884732Y5300540D01*
X28884732Y5300540D02*
X28789494Y5205302D01*
X28789494Y5205302D02*
X28741875Y5110064D01*
X28741875Y5110064D02*
X28694256Y4919588D01*
X28694256Y4919588D02*
X28694256Y4776731D01*
X28694256Y4776731D02*
X28741875Y4586255D01*
X28741875Y4586255D02*
X28789494Y4491017D01*
X28789494Y4491017D02*
X28884732Y4395778D01*
X28884732Y4395778D02*
X29027589Y4348159D01*
X29027589Y4348159D02*
X29265684Y4348159D01*
X28075208Y5348159D02*
X27884732Y5348159D01*
X27884732Y5348159D02*
X27789494Y5300540D01*
X27789494Y5300540D02*
X27694256Y5205302D01*
X27694256Y5205302D02*
X27646637Y5014826D01*
X27646637Y5014826D02*
X27646637Y4681493D01*
X27646637Y4681493D02*
X27694256Y4491017D01*
X27694256Y4491017D02*
X27789494Y4395778D01*
X27789494Y4395778D02*
X27884732Y4348159D01*
X27884732Y4348159D02*
X28075208Y4348159D01*
X28075208Y4348159D02*
X28170446Y4395778D01*
X28170446Y4395778D02*
X28265684Y4491017D01*
X28265684Y4491017D02*
X28313303Y4681493D01*
X28313303Y4681493D02*
X28313303Y5014826D01*
X28313303Y5014826D02*
X28265684Y5205302D01*
X28265684Y5205302D02*
X28170446Y5300540D01*
X28170446Y5300540D02*
X28075208Y5348159D01*
X36822161Y6380159D02*
X37155494Y6856350D01*
X37393589Y6380159D02*
X37393589Y7380159D01*
X37393589Y7380159D02*
X37012637Y7380159D01*
X37012637Y7380159D02*
X36917399Y7332540D01*
X36917399Y7332540D02*
X36869780Y7284921D01*
X36869780Y7284921D02*
X36822161Y7189683D01*
X36822161Y7189683D02*
X36822161Y7046826D01*
X36822161Y7046826D02*
X36869780Y6951588D01*
X36869780Y6951588D02*
X36917399Y6903969D01*
X36917399Y6903969D02*
X37012637Y6856350D01*
X37012637Y6856350D02*
X37393589Y6856350D01*
X36441208Y6427778D02*
X36298351Y6380159D01*
X36298351Y6380159D02*
X36060256Y6380159D01*
X36060256Y6380159D02*
X35965018Y6427778D01*
X35965018Y6427778D02*
X35917399Y6475398D01*
X35917399Y6475398D02*
X35869780Y6570636D01*
X35869780Y6570636D02*
X35869780Y6665874D01*
X35869780Y6665874D02*
X35917399Y6761112D01*
X35917399Y6761112D02*
X35965018Y6808731D01*
X35965018Y6808731D02*
X36060256Y6856350D01*
X36060256Y6856350D02*
X36250732Y6903969D01*
X36250732Y6903969D02*
X36345970Y6951588D01*
X36345970Y6951588D02*
X36393589Y6999207D01*
X36393589Y6999207D02*
X36441208Y7094445D01*
X36441208Y7094445D02*
X36441208Y7189683D01*
X36441208Y7189683D02*
X36393589Y7284921D01*
X36393589Y7284921D02*
X36345970Y7332540D01*
X36345970Y7332540D02*
X36250732Y7380159D01*
X36250732Y7380159D02*
X36012637Y7380159D01*
X36012637Y7380159D02*
X35869780Y7332540D01*
X35584065Y7380159D02*
X35012637Y7380159D01*
X35298351Y6380159D02*
X35298351Y7380159D01*
G36*
X3622539Y9882479D02*
G01*
X3652486Y9852531D01*
X3686388Y9784728D01*
X3686388Y9498953D01*
X3316579Y9498953D01*
X3316579Y9784728D01*
X3350481Y9852533D01*
X3380429Y9882480D01*
X3448232Y9916381D01*
X3554735Y9916381D01*
X3622539Y9882479D01*
G37*
G36*
X3983245Y9202096D02*
G01*
X933531Y9202096D01*
X933531Y9826715D01*
X1076388Y9826715D01*
X1076963Y9825135D01*
X1080340Y9802365D01*
X1127960Y9659508D01*
X1160702Y9618250D01*
X1212303Y9607691D01*
X1258620Y9632771D01*
X1277979Y9681755D01*
X1274057Y9708208D01*
X1230388Y9839210D01*
X1230388Y10046632D01*
X1264291Y10114438D01*
X1294239Y10144385D01*
X1362042Y10178286D01*
X1420926Y10178286D01*
X1488730Y10144384D01*
X1518677Y10114436D01*
X1556928Y10037935D01*
X1602497Y9855659D01*
X1604538Y9852637D01*
X1608327Y9839899D01*
X1655946Y9744661D01*
X1657166Y9743506D01*
X1670370Y9724649D01*
X1717988Y9677030D01*
X1719514Y9676318D01*
X1738001Y9662606D01*
X1833238Y9614987D01*
X1837811Y9614461D01*
X1841338Y9611502D01*
X1867674Y9606858D01*
X1962912Y9606858D01*
X1967237Y9608433D01*
X1971715Y9607363D01*
X1997347Y9614987D01*
X2092585Y9662606D01*
X2093740Y9663827D01*
X2112597Y9677030D01*
X2160216Y9724648D01*
X2160928Y9726175D01*
X2174640Y9744661D01*
X2222259Y9839898D01*
X2222785Y9844472D01*
X2225744Y9847998D01*
X2230388Y9874334D01*
X2230388Y10000081D01*
X2686680Y10000081D01*
X2700319Y9949207D01*
X2719231Y9930300D01*
X3162579Y9619958D01*
X3162579Y9498953D01*
X2763388Y9498953D01*
X2713893Y9480938D01*
X2687558Y9435324D01*
X2696704Y9383453D01*
X2737052Y9349597D01*
X2763388Y9344953D01*
X3763388Y9344953D01*
X3782186Y9351796D01*
X3801888Y9355269D01*
X3806354Y9360592D01*
X3812883Y9362968D01*
X3822885Y9380293D01*
X3835744Y9395617D01*
X3837507Y9405620D01*
X3839218Y9408582D01*
X3838624Y9411951D01*
X3840388Y9421953D01*
X3840388Y9802905D01*
X3838813Y9807231D01*
X3839883Y9811708D01*
X3832259Y9837341D01*
X3784640Y9932578D01*
X3783417Y9933736D01*
X3770216Y9952591D01*
X3722597Y10000209D01*
X3721075Y10000919D01*
X3702585Y10014633D01*
X3607347Y10062252D01*
X3602774Y10062779D01*
X3599248Y10065737D01*
X3572912Y10070381D01*
X3430055Y10070381D01*
X3425729Y10068807D01*
X3421252Y10069876D01*
X3395619Y10062252D01*
X3300382Y10014633D01*
X3299224Y10013411D01*
X3280369Y10000209D01*
X3232751Y9952590D01*
X3232041Y9951069D01*
X3218327Y9932578D01*
X3170708Y9837340D01*
X3170181Y9832768D01*
X3167223Y9829241D01*
X3163369Y9807386D01*
X2807545Y10056462D01*
X2756666Y10070087D01*
X2708933Y10047821D01*
X2686680Y10000081D01*
X2230388Y10000081D01*
X2230388Y10112429D01*
X2229812Y10114010D01*
X2226436Y10136779D01*
X2178818Y10279636D01*
X2146075Y10320894D01*
X2094474Y10331453D01*
X2048157Y10306373D01*
X2028798Y10257390D01*
X2032720Y10230936D01*
X2076387Y10099933D01*
X2076387Y9892511D01*
X2042486Y9824709D01*
X2012539Y9794761D01*
X1944735Y9760858D01*
X1885851Y9760858D01*
X1818048Y9794760D01*
X1788100Y9824707D01*
X1749848Y9901210D01*
X1704280Y10083485D01*
X1702239Y10086507D01*
X1698450Y10099246D01*
X1650831Y10194483D01*
X1649608Y10195641D01*
X1636407Y10214496D01*
X1588788Y10262114D01*
X1587266Y10262824D01*
X1568776Y10276538D01*
X1473538Y10324157D01*
X1468965Y10324684D01*
X1465439Y10327642D01*
X1439103Y10332286D01*
X1343865Y10332286D01*
X1339539Y10330712D01*
X1335062Y10331781D01*
X1309429Y10324157D01*
X1214192Y10276538D01*
X1213034Y10275316D01*
X1194179Y10262114D01*
X1146561Y10214495D01*
X1145851Y10212974D01*
X1132137Y10194484D01*
X1084517Y10099246D01*
X1083990Y10094672D01*
X1081032Y10091146D01*
X1076388Y10064810D01*
X1076388Y9826715D01*
X933531Y9826715D01*
X933531Y11203111D01*
X1076523Y11203111D01*
X1079730Y11195697D01*
X1079036Y11187649D01*
X1089916Y11172150D01*
X1097435Y11154769D01*
X1104656Y11151152D01*
X1109298Y11144540D01*
X1133548Y11133267D01*
X1568833Y11017191D01*
X1133548Y10901115D01*
X1126925Y10896490D01*
X1118901Y10895560D01*
X1105890Y10881798D01*
X1090366Y10870955D01*
X1088266Y10863156D01*
X1082717Y10857286D01*
X1081596Y10838383D01*
X1076673Y10820096D01*
X1080078Y10812772D01*
X1079600Y10804707D01*
X1090893Y10789505D01*
X1098876Y10772333D01*
X1106192Y10768911D01*
X1111009Y10762427D01*
X1135553Y10751809D01*
X2135553Y10513714D01*
X2165568Y10517191D01*
X2686388Y10517191D01*
X2686963Y10515611D01*
X2690340Y10492841D01*
X2737960Y10349984D01*
X2770702Y10308726D01*
X2822303Y10298167D01*
X2868620Y10323247D01*
X2887979Y10372231D01*
X2884057Y10398684D01*
X2840387Y10529686D01*
X2840388Y10737108D01*
X2874291Y10804914D01*
X2904239Y10834861D01*
X2972042Y10868762D01*
X3030926Y10868762D01*
X3098730Y10834860D01*
X3128677Y10804912D01*
X3166928Y10728411D01*
X3212497Y10546135D01*
X3214538Y10543113D01*
X3218327Y10530375D01*
X3265946Y10435137D01*
X3267166Y10433982D01*
X3280370Y10415125D01*
X3327988Y10367506D01*
X3329514Y10366794D01*
X3348001Y10353082D01*
X3443238Y10305463D01*
X3447811Y10304937D01*
X3451338Y10301978D01*
X3477674Y10297334D01*
X3572912Y10297334D01*
X3577237Y10298909D01*
X3581715Y10297839D01*
X3607347Y10305463D01*
X3702585Y10353082D01*
X3703740Y10354303D01*
X3722597Y10367506D01*
X3770216Y10415124D01*
X3770928Y10416651D01*
X3784640Y10435137D01*
X3832259Y10530374D01*
X3832785Y10534948D01*
X3835744Y10538474D01*
X3840388Y10564810D01*
X3840388Y10802905D01*
X3839812Y10804486D01*
X3836436Y10827255D01*
X3788818Y10970112D01*
X3756075Y11011370D01*
X3704474Y11021929D01*
X3658157Y10996849D01*
X3638798Y10947866D01*
X3642720Y10921412D01*
X3686388Y10790409D01*
X3686388Y10582987D01*
X3652486Y10515185D01*
X3622539Y10485237D01*
X3554735Y10451334D01*
X3495851Y10451334D01*
X3428048Y10485236D01*
X3398100Y10515183D01*
X3359848Y10591686D01*
X3314280Y10773961D01*
X3312239Y10776983D01*
X3308450Y10789722D01*
X3260831Y10884959D01*
X3259608Y10886117D01*
X3246407Y10904972D01*
X3198788Y10952590D01*
X3197266Y10953300D01*
X3178776Y10967014D01*
X3083538Y11014633D01*
X3078965Y11015160D01*
X3075439Y11018118D01*
X3049103Y11022762D01*
X2953865Y11022762D01*
X2949539Y11021188D01*
X2945062Y11022257D01*
X2919429Y11014633D01*
X2824192Y10967014D01*
X2823034Y10965792D01*
X2804179Y10952590D01*
X2756561Y10904971D01*
X2755851Y10903450D01*
X2742137Y10884960D01*
X2694517Y10789722D01*
X2693990Y10785148D01*
X2691032Y10781622D01*
X2686388Y10755286D01*
X2686388Y10517191D01*
X2165568Y10517191D01*
X2187875Y10519775D01*
X2224059Y10558049D01*
X2227176Y10610628D01*
X2195767Y10652908D01*
X2171223Y10663526D01*
X1468077Y10830942D01*
X1887514Y10942791D01*
X1893286Y10946823D01*
X1900300Y10947445D01*
X1914368Y10961548D01*
X1930696Y10972951D01*
X1932526Y10979749D01*
X1937499Y10984733D01*
X1939211Y11004580D01*
X1944389Y11023810D01*
X1941421Y11030194D01*
X1942027Y11037209D01*
X1930582Y11053513D01*
X1922187Y11071573D01*
X1915809Y11074557D01*
X1911765Y11080318D01*
X1887514Y11091591D01*
X1468077Y11203441D01*
X2171223Y11370856D01*
X2215199Y11399845D01*
X2230253Y11450318D01*
X2209341Y11498660D01*
X2162249Y11522250D01*
X2135553Y11520668D01*
X1135553Y11282573D01*
X1128808Y11278127D01*
X1120762Y11277413D01*
X1107387Y11264007D01*
X1091577Y11253584D01*
X1089268Y11245843D01*
X1083564Y11240125D01*
X1081936Y11221261D01*
X1076523Y11203111D01*
X933531Y11203111D01*
X933531Y11530562D01*
X2687558Y11530562D01*
X2696704Y11478691D01*
X2737052Y11444835D01*
X2763388Y11440191D01*
X3686388Y11440191D01*
X3686388Y11231477D01*
X3704403Y11181982D01*
X3750017Y11155647D01*
X3801888Y11164793D01*
X3835744Y11205141D01*
X3840388Y11231477D01*
X3840388Y11802905D01*
X3822373Y11852400D01*
X3776759Y11878735D01*
X3724888Y11869589D01*
X3691032Y11829241D01*
X3686388Y11802905D01*
X3686388Y11594191D01*
X2763388Y11594191D01*
X2713893Y11576176D01*
X2687558Y11530562D01*
X933531Y11530562D01*
X933531Y12021592D01*
X3983245Y12021592D01*
X3983245Y9202096D01*
G37*
G36*
X3622539Y3064194D02*
G01*
X3652486Y3034246D01*
X3686388Y2966443D01*
X3686388Y2680668D01*
X3316579Y2680668D01*
X3316579Y2966443D01*
X3350481Y3034248D01*
X3380429Y3064195D01*
X3448232Y3098096D01*
X3554735Y3098096D01*
X3622539Y3064194D01*
G37*
G36*
X3622539Y5207051D02*
G01*
X3652486Y5177103D01*
X3686388Y5109300D01*
X3686388Y4823525D01*
X3316579Y4823525D01*
X3316579Y5109300D01*
X3350481Y5177105D01*
X3380429Y5207052D01*
X3448232Y5240953D01*
X3554735Y5240953D01*
X3622539Y5207051D01*
G37*
G36*
X3983245Y2383811D02*
G01*
X933531Y2383811D01*
X933531Y2617039D01*
X2687558Y2617039D01*
X2696704Y2565168D01*
X2737052Y2531312D01*
X2763388Y2526668D01*
X3763388Y2526668D01*
X3782186Y2533511D01*
X3801888Y2536984D01*
X3806354Y2542307D01*
X3812883Y2544683D01*
X3822885Y2562008D01*
X3835744Y2577332D01*
X3837507Y2587335D01*
X3839218Y2590297D01*
X3838624Y2593666D01*
X3840388Y2603668D01*
X3840388Y2984620D01*
X3838813Y2988946D01*
X3839883Y2993423D01*
X3832259Y3019056D01*
X3784640Y3114293D01*
X3783417Y3115451D01*
X3770216Y3134306D01*
X3722597Y3181924D01*
X3721075Y3182634D01*
X3702585Y3196348D01*
X3607347Y3243967D01*
X3602774Y3244494D01*
X3599248Y3247452D01*
X3572912Y3252096D01*
X3430055Y3252096D01*
X3425729Y3250522D01*
X3421252Y3251591D01*
X3395619Y3243967D01*
X3300382Y3196348D01*
X3299224Y3195126D01*
X3280369Y3181924D01*
X3232751Y3134305D01*
X3232041Y3132784D01*
X3218327Y3114293D01*
X3170708Y3019055D01*
X3170181Y3014483D01*
X3167223Y3010956D01*
X3162579Y2984620D01*
X3162579Y2680668D01*
X2763388Y2680668D01*
X2713893Y2662653D01*
X2687558Y2617039D01*
X933531Y2617039D01*
X933531Y3222715D01*
X1076388Y3222715D01*
X1076963Y3221135D01*
X1080340Y3198365D01*
X1127960Y3055508D01*
X1160702Y3014250D01*
X1212303Y3003691D01*
X1258620Y3028771D01*
X1277979Y3077755D01*
X1274057Y3104208D01*
X1230388Y3235210D01*
X1230388Y3442632D01*
X1264291Y3510438D01*
X1294239Y3540385D01*
X1362042Y3574286D01*
X1420926Y3574286D01*
X1488730Y3540384D01*
X1518677Y3510436D01*
X1556928Y3433935D01*
X1602497Y3251659D01*
X1604538Y3248637D01*
X1608327Y3235899D01*
X1655946Y3140661D01*
X1657166Y3139506D01*
X1670370Y3120649D01*
X1717988Y3073030D01*
X1719514Y3072318D01*
X1738001Y3058606D01*
X1833238Y3010987D01*
X1837811Y3010461D01*
X1841338Y3007502D01*
X1867674Y3002858D01*
X1962912Y3002858D01*
X1967237Y3004433D01*
X1971715Y3003363D01*
X1997347Y3010987D01*
X2092585Y3058606D01*
X2093740Y3059827D01*
X2112597Y3073030D01*
X2160216Y3120648D01*
X2160928Y3122175D01*
X2174640Y3140661D01*
X2222259Y3235898D01*
X2222785Y3240472D01*
X2225744Y3243998D01*
X2230388Y3270334D01*
X2230388Y3508429D01*
X2229812Y3510010D01*
X2226436Y3532779D01*
X2178818Y3675636D01*
X2146075Y3716894D01*
X2094474Y3727453D01*
X2048157Y3702373D01*
X2028798Y3653390D01*
X2032720Y3626936D01*
X2076387Y3495933D01*
X2076387Y3288511D01*
X2042486Y3220709D01*
X2012539Y3190761D01*
X1944735Y3156858D01*
X1885851Y3156858D01*
X1818048Y3190760D01*
X1788100Y3220707D01*
X1749848Y3297210D01*
X1704280Y3479485D01*
X1702239Y3482507D01*
X1698450Y3495246D01*
X1650831Y3590483D01*
X1649608Y3591641D01*
X1636407Y3610496D01*
X1588788Y3658114D01*
X1587266Y3658824D01*
X1568776Y3672538D01*
X1473538Y3720157D01*
X1468965Y3720684D01*
X1465439Y3723642D01*
X1439103Y3728286D01*
X1343865Y3728286D01*
X1339539Y3726712D01*
X1335062Y3727781D01*
X1309429Y3720157D01*
X1214192Y3672538D01*
X1213034Y3671316D01*
X1194179Y3658114D01*
X1146561Y3610495D01*
X1145851Y3608974D01*
X1132137Y3590484D01*
X1084517Y3495246D01*
X1083990Y3490672D01*
X1081032Y3487146D01*
X1076388Y3460810D01*
X1076388Y3222715D01*
X933531Y3222715D01*
X933531Y4599111D01*
X1076523Y4599111D01*
X1079730Y4591697D01*
X1079036Y4583649D01*
X1089916Y4568150D01*
X1097435Y4550769D01*
X1104656Y4547152D01*
X1109298Y4540540D01*
X1133548Y4529267D01*
X1568833Y4413191D01*
X1133548Y4297115D01*
X1126925Y4292490D01*
X1118901Y4291560D01*
X1105890Y4277798D01*
X1090366Y4266955D01*
X1088266Y4259156D01*
X1082717Y4253286D01*
X1081596Y4234383D01*
X1076673Y4216096D01*
X1080078Y4208772D01*
X1079600Y4200707D01*
X1090893Y4185505D01*
X1098876Y4168333D01*
X1106192Y4164911D01*
X1111009Y4158427D01*
X1135553Y4147809D01*
X2135553Y3909714D01*
X2187875Y3915775D01*
X2224059Y3954049D01*
X2227176Y4006628D01*
X2195767Y4048908D01*
X2171223Y4059526D01*
X1904964Y4122921D01*
X2686523Y4122921D01*
X2689730Y4115507D01*
X2689036Y4107459D01*
X2699916Y4091960D01*
X2707435Y4074579D01*
X2714656Y4070962D01*
X2719298Y4064350D01*
X2743548Y4053077D01*
X3178833Y3937001D01*
X2743548Y3820925D01*
X2736925Y3816300D01*
X2728901Y3815370D01*
X2715890Y3801608D01*
X2700366Y3790765D01*
X2698266Y3782966D01*
X2692717Y3777096D01*
X2691596Y3758193D01*
X2686673Y3739906D01*
X2690078Y3732582D01*
X2689600Y3724517D01*
X2700893Y3709315D01*
X2708876Y3692143D01*
X2716192Y3688721D01*
X2721009Y3682237D01*
X2745553Y3671619D01*
X3745553Y3433524D01*
X3797875Y3439585D01*
X3834059Y3477859D01*
X3837176Y3530438D01*
X3805767Y3572718D01*
X3781223Y3583336D01*
X3078077Y3750752D01*
X3497514Y3862601D01*
X3503286Y3866633D01*
X3510300Y3867255D01*
X3524368Y3881358D01*
X3540696Y3892761D01*
X3542526Y3899559D01*
X3547499Y3904543D01*
X3549211Y3924390D01*
X3554389Y3943620D01*
X3551421Y3950004D01*
X3552027Y3957019D01*
X3540582Y3973323D01*
X3532187Y3991383D01*
X3525809Y3994367D01*
X3521765Y4000128D01*
X3497514Y4011401D01*
X3078077Y4123251D01*
X3781223Y4290666D01*
X3825199Y4319655D01*
X3840253Y4370128D01*
X3819341Y4418470D01*
X3772249Y4442060D01*
X3745553Y4440478D01*
X2745553Y4202383D01*
X2738808Y4197937D01*
X2730762Y4197223D01*
X2717387Y4183817D01*
X2701577Y4173394D01*
X2699268Y4165653D01*
X2693564Y4159935D01*
X2691936Y4141071D01*
X2686523Y4122921D01*
X1904964Y4122921D01*
X1468077Y4226942D01*
X1887514Y4338791D01*
X1893286Y4342823D01*
X1900300Y4343445D01*
X1914368Y4357548D01*
X1930696Y4368951D01*
X1932526Y4375749D01*
X1937499Y4380733D01*
X1939211Y4400580D01*
X1944389Y4419810D01*
X1941421Y4426194D01*
X1942027Y4433209D01*
X1930582Y4449513D01*
X1922187Y4467573D01*
X1915809Y4470557D01*
X1911765Y4476318D01*
X1887514Y4487591D01*
X1468077Y4599441D01*
X2171223Y4766856D01*
X2215199Y4795845D01*
X2230253Y4846318D01*
X2209341Y4894660D01*
X2162249Y4918250D01*
X2135553Y4916668D01*
X1135553Y4678573D01*
X1128808Y4674127D01*
X1120762Y4673413D01*
X1107387Y4660007D01*
X1091577Y4649584D01*
X1089268Y4641843D01*
X1083564Y4636125D01*
X1081936Y4617261D01*
X1076523Y4599111D01*
X933531Y4599111D01*
X933531Y5324653D01*
X2686680Y5324653D01*
X2700319Y5273779D01*
X2719231Y5254872D01*
X3162579Y4944530D01*
X3162579Y4823525D01*
X2763388Y4823525D01*
X2713893Y4805510D01*
X2687558Y4759896D01*
X2696704Y4708025D01*
X2737052Y4674169D01*
X2763388Y4669525D01*
X3763388Y4669525D01*
X3782186Y4676368D01*
X3801888Y4679841D01*
X3806354Y4685164D01*
X3812883Y4687540D01*
X3822885Y4704865D01*
X3835744Y4720189D01*
X3837507Y4730192D01*
X3839218Y4733154D01*
X3838624Y4736523D01*
X3840388Y4746525D01*
X3840388Y5127477D01*
X3838813Y5131803D01*
X3839883Y5136280D01*
X3832259Y5161913D01*
X3784640Y5257150D01*
X3783417Y5258308D01*
X3770216Y5277163D01*
X3722597Y5324781D01*
X3721075Y5325491D01*
X3702585Y5339205D01*
X3607347Y5386824D01*
X3602774Y5387351D01*
X3599248Y5390309D01*
X3572912Y5394953D01*
X3430055Y5394953D01*
X3425729Y5393379D01*
X3421252Y5394448D01*
X3395619Y5386824D01*
X3300382Y5339205D01*
X3299224Y5337983D01*
X3280369Y5324781D01*
X3232751Y5277162D01*
X3232041Y5275641D01*
X3218327Y5257150D01*
X3170708Y5161912D01*
X3170181Y5157340D01*
X3167223Y5153813D01*
X3163369Y5131958D01*
X2807545Y5381034D01*
X2756666Y5394659D01*
X2708933Y5372393D01*
X2686680Y5324653D01*
X933531Y5324653D01*
X933531Y5537810D01*
X3983245Y5537810D01*
X3983245Y2383811D01*
G37*
X36869780Y3268540D02*
X36965018Y3316159D01*
X36965018Y3316159D02*
X37107875Y3316159D01*
X37107875Y3316159D02*
X37250732Y3268540D01*
X37250732Y3268540D02*
X37345970Y3173302D01*
X37345970Y3173302D02*
X37393589Y3078064D01*
X37393589Y3078064D02*
X37441208Y2887588D01*
X37441208Y2887588D02*
X37441208Y2744731D01*
X37441208Y2744731D02*
X37393589Y2554255D01*
X37393589Y2554255D02*
X37345970Y2459017D01*
X37345970Y2459017D02*
X37250732Y2363778D01*
X37250732Y2363778D02*
X37107875Y2316159D01*
X37107875Y2316159D02*
X37012637Y2316159D01*
X37012637Y2316159D02*
X36869780Y2363778D01*
X36869780Y2363778D02*
X36822161Y2411398D01*
X36822161Y2411398D02*
X36822161Y2744731D01*
X36822161Y2744731D02*
X37012637Y2744731D01*
X36393589Y2316159D02*
X36393589Y3316159D01*
X36393589Y3316159D02*
X35822161Y2316159D01*
X35822161Y2316159D02*
X35822161Y3316159D01*
X35345970Y2316159D02*
X35345970Y3316159D01*
X35345970Y3316159D02*
X35107875Y3316159D01*
X35107875Y3316159D02*
X34965018Y3268540D01*
X34965018Y3268540D02*
X34869780Y3173302D01*
X34869780Y3173302D02*
X34822161Y3078064D01*
X34822161Y3078064D02*
X34774542Y2887588D01*
X34774542Y2887588D02*
X34774542Y2744731D01*
X34774542Y2744731D02*
X34822161Y2554255D01*
X34822161Y2554255D02*
X34869780Y2459017D01*
X34869780Y2459017D02*
X34965018Y2363778D01*
X34965018Y2363778D02*
X35107875Y2316159D01*
X35107875Y2316159D02*
X35345970Y2316159D01*
X30170446Y7380159D02*
X29599018Y7380159D01*
X29884732Y6380159D02*
X29884732Y7380159D01*
X29265684Y6380159D02*
X29265684Y7380159D01*
X29265684Y7380159D02*
X29027589Y7380159D01*
X29027589Y7380159D02*
X28884732Y7332540D01*
X28884732Y7332540D02*
X28789494Y7237302D01*
X28789494Y7237302D02*
X28741875Y7142064D01*
X28741875Y7142064D02*
X28694256Y6951588D01*
X28694256Y6951588D02*
X28694256Y6808731D01*
X28694256Y6808731D02*
X28741875Y6618255D01*
X28741875Y6618255D02*
X28789494Y6523017D01*
X28789494Y6523017D02*
X28884732Y6427778D01*
X28884732Y6427778D02*
X29027589Y6380159D01*
X29027589Y6380159D02*
X29265684Y6380159D01*
X28265684Y6380159D02*
X28265684Y7380159D01*
G36*
X3622539Y31131194D02*
G01*
X3652486Y31101246D01*
X3686388Y31033443D01*
X3686388Y30747668D01*
X3316579Y30747668D01*
X3316579Y31033443D01*
X3350481Y31101248D01*
X3380429Y31131195D01*
X3448232Y31165096D01*
X3554735Y31165096D01*
X3622539Y31131194D01*
G37*
G36*
X1888417Y33050398D02*
G01*
X1964920Y33012146D01*
X2038467Y32938599D01*
X2076387Y32824838D01*
X2076388Y32676239D01*
X1230388Y32676239D01*
X1230388Y32824840D01*
X1268309Y32938599D01*
X1341856Y33012146D01*
X1418359Y33050397D01*
X1591439Y33093667D01*
X1715338Y33093667D01*
X1888417Y33050398D01*
G37*
G36*
X3622539Y33274051D02*
G01*
X3652486Y33244103D01*
X3686388Y33176300D01*
X3686388Y32890525D01*
X3316579Y32890525D01*
X3316579Y33176300D01*
X3350481Y33244105D01*
X3380429Y33274052D01*
X3448232Y33307953D01*
X3554735Y33307953D01*
X3622539Y33274051D01*
G37*
G36*
X3983245Y30450811D02*
G01*
X933531Y30450811D01*
X933531Y30684039D01*
X2687558Y30684039D01*
X2696704Y30632168D01*
X2737052Y30598312D01*
X2763388Y30593668D01*
X3763388Y30593668D01*
X3782186Y30600511D01*
X3801888Y30603984D01*
X3806354Y30609307D01*
X3812883Y30611683D01*
X3822885Y30629008D01*
X3835744Y30644332D01*
X3837507Y30654335D01*
X3839218Y30657297D01*
X3838624Y30660666D01*
X3840388Y30670668D01*
X3840388Y31051620D01*
X3838813Y31055946D01*
X3839883Y31060423D01*
X3832259Y31086056D01*
X3784640Y31181293D01*
X3783417Y31182451D01*
X3770216Y31201306D01*
X3722597Y31248924D01*
X3721075Y31249634D01*
X3702585Y31263348D01*
X3607347Y31310967D01*
X3602774Y31311494D01*
X3599248Y31314452D01*
X3572912Y31319096D01*
X3430055Y31319096D01*
X3425729Y31317522D01*
X3421252Y31318591D01*
X3395619Y31310967D01*
X3300382Y31263348D01*
X3299224Y31262126D01*
X3280369Y31248924D01*
X3232751Y31201305D01*
X3232041Y31199784D01*
X3218327Y31181293D01*
X3170708Y31086055D01*
X3170181Y31081483D01*
X3167223Y31077956D01*
X3162579Y31051620D01*
X3162579Y30747668D01*
X2763388Y30747668D01*
X2713893Y30729653D01*
X2687558Y30684039D01*
X933531Y30684039D01*
X933531Y30884953D01*
X1076388Y30884953D01*
X1083230Y30866155D01*
X1086704Y30846453D01*
X1092026Y30841987D01*
X1094403Y30835458D01*
X1111727Y30825456D01*
X1127052Y30812597D01*
X1137054Y30810834D01*
X1140017Y30809123D01*
X1143385Y30809717D01*
X1153388Y30807953D01*
X2153388Y30807953D01*
X2202883Y30825968D01*
X2229218Y30871582D01*
X2220072Y30923453D01*
X2179724Y30957309D01*
X2153388Y30961953D01*
X1230388Y30961953D01*
X1230388Y31361143D01*
X1212373Y31410638D01*
X1166759Y31436973D01*
X1114888Y31427827D01*
X1081032Y31387479D01*
X1076388Y31361143D01*
X1076388Y30884953D01*
X933531Y30884953D01*
X933531Y31694477D01*
X1076388Y31694477D01*
X1083230Y31675679D01*
X1086704Y31655977D01*
X1092026Y31651511D01*
X1094403Y31644982D01*
X1111727Y31634980D01*
X1127052Y31622121D01*
X1137054Y31620358D01*
X1140017Y31618647D01*
X1143385Y31619241D01*
X1153388Y31617477D01*
X2153388Y31617477D01*
X2172186Y31624320D01*
X2191888Y31627793D01*
X2196354Y31633116D01*
X2202883Y31635492D01*
X2212885Y31652817D01*
X2225744Y31668141D01*
X2227507Y31678144D01*
X2229218Y31681106D01*
X2228624Y31684475D01*
X2230388Y31694477D01*
X2230388Y32170667D01*
X2223380Y32189921D01*
X2686523Y32189921D01*
X2689730Y32182507D01*
X2689036Y32174459D01*
X2699916Y32158960D01*
X2707435Y32141579D01*
X2714656Y32137962D01*
X2719298Y32131350D01*
X2743548Y32120077D01*
X3178833Y32004001D01*
X2743548Y31887925D01*
X2736925Y31883300D01*
X2728901Y31882370D01*
X2715890Y31868608D01*
X2700366Y31857765D01*
X2698266Y31849966D01*
X2692717Y31844096D01*
X2691596Y31825193D01*
X2686673Y31806906D01*
X2690078Y31799582D01*
X2689600Y31791517D01*
X2700893Y31776315D01*
X2708876Y31759143D01*
X2716192Y31755721D01*
X2721009Y31749237D01*
X2745553Y31738619D01*
X3745553Y31500524D01*
X3797875Y31506585D01*
X3834059Y31544859D01*
X3837176Y31597438D01*
X3805767Y31639718D01*
X3781223Y31650336D01*
X3078077Y31817752D01*
X3497514Y31929601D01*
X3503286Y31933633D01*
X3510300Y31934255D01*
X3524368Y31948358D01*
X3540696Y31959761D01*
X3542526Y31966559D01*
X3547499Y31971543D01*
X3549211Y31991390D01*
X3554389Y32010620D01*
X3551421Y32017004D01*
X3552027Y32024019D01*
X3540582Y32040323D01*
X3532187Y32058383D01*
X3525809Y32061367D01*
X3521765Y32067128D01*
X3497514Y32078401D01*
X3078077Y32190251D01*
X3781223Y32357666D01*
X3825199Y32386655D01*
X3840253Y32437128D01*
X3819341Y32485470D01*
X3772249Y32509060D01*
X3745553Y32507478D01*
X2745553Y32269383D01*
X2738808Y32264937D01*
X2730762Y32264223D01*
X2717387Y32250817D01*
X2701577Y32240394D01*
X2699268Y32232653D01*
X2693564Y32226935D01*
X2691936Y32208071D01*
X2686523Y32189921D01*
X2223380Y32189921D01*
X2212373Y32220162D01*
X2166759Y32246497D01*
X2114888Y32237351D01*
X2081032Y32197003D01*
X2076388Y32170667D01*
X2076388Y31771477D01*
X1754198Y31771477D01*
X1754198Y32027810D01*
X1736183Y32077305D01*
X1690569Y32103640D01*
X1638698Y32094494D01*
X1604842Y32054146D01*
X1600198Y32027810D01*
X1600198Y31771477D01*
X1230388Y31771477D01*
X1230388Y32170667D01*
X1212373Y32220162D01*
X1166759Y32246497D01*
X1114888Y32237351D01*
X1081032Y32197003D01*
X1076388Y32170667D01*
X1076388Y31694477D01*
X933531Y31694477D01*
X933531Y32599239D01*
X1076388Y32599239D01*
X1083230Y32580441D01*
X1086704Y32560739D01*
X1092026Y32556273D01*
X1094403Y32549744D01*
X1111727Y32539742D01*
X1127052Y32526883D01*
X1137054Y32525120D01*
X1140017Y32523409D01*
X1143385Y32524003D01*
X1153388Y32522239D01*
X2153388Y32522239D01*
X2172186Y32529082D01*
X2191888Y32532555D01*
X2196354Y32537878D01*
X2202883Y32540254D01*
X2212885Y32557579D01*
X2225744Y32572903D01*
X2227507Y32582906D01*
X2229218Y32585868D01*
X2228624Y32589237D01*
X2230388Y32599239D01*
X2230388Y32837334D01*
X2229812Y32838915D01*
X2226436Y32861684D01*
X2178818Y33004541D01*
X2175956Y33008148D01*
X2175555Y33012732D01*
X2160216Y33034638D01*
X2064978Y33129876D01*
X2063456Y33130586D01*
X2044966Y33144300D01*
X1949728Y33191919D01*
X1946104Y33192337D01*
X1933968Y33197749D01*
X1743492Y33245368D01*
X1739951Y33244999D01*
X1724817Y33247667D01*
X1581960Y33247667D01*
X1578615Y33246450D01*
X1563285Y33245368D01*
X1372809Y33197749D01*
X1369787Y33195709D01*
X1357048Y33191919D01*
X1261811Y33144300D01*
X1260655Y33143080D01*
X1241799Y33129876D01*
X1146561Y33034638D01*
X1144615Y33030467D01*
X1140694Y33028057D01*
X1127960Y33004541D01*
X1080340Y32861684D01*
X1080385Y32860006D01*
X1076388Y32837334D01*
X1076388Y32599239D01*
X933531Y32599239D01*
X933531Y33391653D01*
X2686680Y33391653D01*
X2700319Y33340779D01*
X2719231Y33321872D01*
X3162579Y33011530D01*
X3162579Y32890525D01*
X2763388Y32890525D01*
X2713893Y32872510D01*
X2687558Y32826896D01*
X2696704Y32775025D01*
X2737052Y32741169D01*
X2763388Y32736525D01*
X3763388Y32736525D01*
X3782186Y32743368D01*
X3801888Y32746841D01*
X3806354Y32752164D01*
X3812883Y32754540D01*
X3822885Y32771865D01*
X3835744Y32787189D01*
X3837507Y32797192D01*
X3839218Y32800154D01*
X3838624Y32803523D01*
X3840388Y32813525D01*
X3840388Y33194477D01*
X3838813Y33198803D01*
X3839883Y33203280D01*
X3832259Y33228913D01*
X3784640Y33324150D01*
X3783417Y33325308D01*
X3770216Y33344163D01*
X3722597Y33391781D01*
X3721075Y33392491D01*
X3702585Y33406205D01*
X3607347Y33453824D01*
X3602774Y33454351D01*
X3599248Y33457309D01*
X3572912Y33461953D01*
X3430055Y33461953D01*
X3425729Y33460379D01*
X3421252Y33461448D01*
X3395619Y33453824D01*
X3300382Y33406205D01*
X3299224Y33404983D01*
X3280369Y33391781D01*
X3232751Y33344162D01*
X3232041Y33342641D01*
X3218327Y33324150D01*
X3170708Y33228912D01*
X3170181Y33224340D01*
X3167223Y33220813D01*
X3163369Y33198958D01*
X2807545Y33448034D01*
X2756666Y33461659D01*
X2708933Y33439393D01*
X2686680Y33391653D01*
X933531Y33391653D01*
X933531Y33604810D01*
X3983245Y33604810D01*
X3983245Y30450811D01*
G37*
X3178341Y40725411D02*
X3178341Y41487315D01*
X2797388Y41106363D02*
X3559293Y41106363D01*
X22869875Y3339389D02*
X22869875Y2625104D01*
X22869875Y2625104D02*
X22917494Y2482247D01*
X22917494Y2482247D02*
X23012732Y2387008D01*
X23012732Y2387008D02*
X23155589Y2339389D01*
X23155589Y2339389D02*
X23250827Y2339389D01*
X21917494Y2339389D02*
X22393684Y2339389D01*
X22393684Y2339389D02*
X22393684Y3339389D01*
X21012732Y2434628D02*
X21060351Y2387008D01*
X21060351Y2387008D02*
X21203208Y2339389D01*
X21203208Y2339389D02*
X21298446Y2339389D01*
X21298446Y2339389D02*
X21441303Y2387008D01*
X21441303Y2387008D02*
X21536541Y2482247D01*
X21536541Y2482247D02*
X21584160Y2577485D01*
X21584160Y2577485D02*
X21631779Y2767961D01*
X21631779Y2767961D02*
X21631779Y2910818D01*
X21631779Y2910818D02*
X21584160Y3101294D01*
X21584160Y3101294D02*
X21536541Y3196532D01*
X21536541Y3196532D02*
X21441303Y3291770D01*
X21441303Y3291770D02*
X21298446Y3339389D01*
X21298446Y3339389D02*
X21203208Y3339389D01*
X21203208Y3339389D02*
X21060351Y3291770D01*
X21060351Y3291770D02*
X21012732Y3244151D01*
X20298446Y3339389D02*
X20298446Y2625104D01*
X20298446Y2625104D02*
X20346065Y2482247D01*
X20346065Y2482247D02*
X20441303Y2387008D01*
X20441303Y2387008D02*
X20584160Y2339389D01*
X20584160Y2339389D02*
X20679398Y2339389D01*
X19346065Y2339389D02*
X19822255Y2339389D01*
X19822255Y2339389D02*
X19822255Y3339389D01*
X18441303Y2434628D02*
X18488922Y2387008D01*
X18488922Y2387008D02*
X18631779Y2339389D01*
X18631779Y2339389D02*
X18727017Y2339389D01*
X18727017Y2339389D02*
X18869874Y2387008D01*
X18869874Y2387008D02*
X18965112Y2482247D01*
X18965112Y2482247D02*
X19012731Y2577485D01*
X19012731Y2577485D02*
X19060350Y2767961D01*
X19060350Y2767961D02*
X19060350Y2910818D01*
X19060350Y2910818D02*
X19012731Y3101294D01*
X19012731Y3101294D02*
X18965112Y3196532D01*
X18965112Y3196532D02*
X18869874Y3291770D01*
X18869874Y3291770D02*
X18727017Y3339389D01*
X18727017Y3339389D02*
X18631779Y3339389D01*
X18631779Y3339389D02*
X18488922Y3291770D01*
X18488922Y3291770D02*
X18441303Y3244151D01*
X17727017Y3339389D02*
X17727017Y2625104D01*
X17727017Y2625104D02*
X17774636Y2482247D01*
X17774636Y2482247D02*
X17869874Y2387008D01*
X17869874Y2387008D02*
X18012731Y2339389D01*
X18012731Y2339389D02*
X18107969Y2339389D01*
X16774636Y2339389D02*
X17250826Y2339389D01*
X17250826Y2339389D02*
X17250826Y3339389D01*
X15869874Y2434628D02*
X15917493Y2387008D01*
X15917493Y2387008D02*
X16060350Y2339389D01*
X16060350Y2339389D02*
X16155588Y2339389D01*
X16155588Y2339389D02*
X16298445Y2387008D01*
X16298445Y2387008D02*
X16393683Y2482247D01*
X16393683Y2482247D02*
X16441302Y2577485D01*
X16441302Y2577485D02*
X16488921Y2767961D01*
X16488921Y2767961D02*
X16488921Y2910818D01*
X16488921Y2910818D02*
X16441302Y3101294D01*
X16441302Y3101294D02*
X16393683Y3196532D01*
X16393683Y3196532D02*
X16298445Y3291770D01*
X16298445Y3291770D02*
X16155588Y3339389D01*
X16155588Y3339389D02*
X16060350Y3339389D01*
X16060350Y3339389D02*
X15917493Y3291770D01*
X15917493Y3291770D02*
X15869874Y3244151D01*
X15155588Y3339389D02*
X15155588Y2625104D01*
X15155588Y2625104D02*
X15203207Y2482247D01*
X15203207Y2482247D02*
X15298445Y2387008D01*
X15298445Y2387008D02*
X15441302Y2339389D01*
X15441302Y2339389D02*
X15536540Y2339389D01*
X14203207Y2339389D02*
X14679397Y2339389D01*
X14679397Y2339389D02*
X14679397Y3339389D01*
X13298445Y2434628D02*
X13346064Y2387008D01*
X13346064Y2387008D02*
X13488921Y2339389D01*
X13488921Y2339389D02*
X13584159Y2339389D01*
X13584159Y2339389D02*
X13727016Y2387008D01*
X13727016Y2387008D02*
X13822254Y2482247D01*
X13822254Y2482247D02*
X13869873Y2577485D01*
X13869873Y2577485D02*
X13917492Y2767961D01*
X13917492Y2767961D02*
X13917492Y2910818D01*
X13917492Y2910818D02*
X13869873Y3101294D01*
X13869873Y3101294D02*
X13822254Y3196532D01*
X13822254Y3196532D02*
X13727016Y3291770D01*
X13727016Y3291770D02*
X13584159Y3339389D01*
X13584159Y3339389D02*
X13488921Y3339389D01*
X13488921Y3339389D02*
X13346064Y3291770D01*
X13346064Y3291770D02*
X13298445Y3244151D01*
D11*
%TO.C,TP203*%
X34101000Y6858000D02*
G75*
G03*
X34101000Y6858000I-700000J0D01*
G01*
%TO.C,TP205*%
X32069000Y4826000D02*
G75*
G03*
X32069000Y4826000I-700000J0D01*
G01*
%TO.C,TP202*%
X34101000Y4826000D02*
G75*
G03*
X34101000Y4826000I-700000J0D01*
G01*
%TO.C,TP206*%
X32069000Y6858000D02*
G75*
G03*
X32069000Y6858000I-700000J0D01*
G01*
%TO.C,TP207*%
X32069000Y8890000D02*
G75*
G03*
X32069000Y8890000I-700000J0D01*
G01*
%TO.C,TP204*%
X32069000Y2794000D02*
G75*
G03*
X32069000Y2794000I-700000J0D01*
G01*
%TO.C,TP201*%
X34101000Y2094000D02*
X34101000Y3494000D01*
X34101000Y3494000D02*
X32701000Y3494000D01*
X32701000Y2094000D02*
X34101000Y2094000D01*
X32701000Y3494000D02*
X32701000Y2094000D01*
%TD*%
%LPC*%
D12*
%TO.C,MH102*%
X42037000Y2794000D03*
%TD*%
%TO.C,MH101*%
X42051000Y39878000D03*
%TD*%
D13*
%TO.C,J104*%
X7747000Y37338000D03*
D14*
X5207000Y37338000D03*
X7747000Y39878000D03*
X5207000Y39878000D03*
%TD*%
D13*
%TO.C,J103*%
X7747000Y30734000D03*
D14*
X5207000Y30734000D03*
X7747000Y33274000D03*
X5207000Y33274000D03*
%TD*%
D15*
%TO.C,J105*%
X6302000Y24162500D03*
X6302000Y18382500D03*
D16*
X6822000Y25592500D03*
D17*
X2622000Y25592500D03*
D16*
X6822000Y16952500D03*
D17*
X2622000Y16952500D03*
%TD*%
D13*
%TO.C,J101*%
X7809000Y2662000D03*
D14*
X5269000Y2662000D03*
X7809000Y5202000D03*
X5269000Y5202000D03*
%TD*%
D13*
%TO.C,J102*%
X7809000Y9266000D03*
D14*
X5269000Y9266000D03*
X7809000Y11806000D03*
X5269000Y11806000D03*
%TD*%
D18*
%TO.C,TP203*%
X33401000Y6858000D03*
%TD*%
%TO.C,TP205*%
X31369000Y4826000D03*
%TD*%
%TO.C,TP202*%
X33401000Y4826000D03*
%TD*%
%TO.C,TP206*%
X31369000Y6858000D03*
%TD*%
%TO.C,TP207*%
X31369000Y8890000D03*
%TD*%
%TO.C,TP204*%
X31369000Y2794000D03*
%TD*%
D19*
%TO.C,TP201*%
X33401000Y2794000D03*
%TD*%
%LPD*%
M02*
