%TF.GenerationSoftware,KiCad,Pcbnew,7.0.7*%
%TF.CreationDate,2024-02-05T14:32:18+01:00*%
%TF.ProjectId,esp-atx-power,6573702d-6174-4782-9d70-6f7765722e6b,1.0.1*%
%TF.SameCoordinates,PX6695f68PY7b6af88*%
%TF.FileFunction,AssemblyDrawing,Top*%
%FSLAX46Y46*%
G04 Gerber Fmt 4.6, Leading zero omitted, Abs format (unit mm)*
G04 Created by KiCad (PCBNEW 7.0.7) date 2024-02-05 14:32:18*
%MOMM*%
%LPD*%
G01*
G04 APERTURE LIST*
%ADD10C,0.060000*%
%ADD11C,0.040000*%
%ADD12C,0.150000*%
%ADD13C,0.120000*%
%ADD14C,0.050000*%
%ADD15C,0.105000*%
%ADD16C,0.075000*%
%ADD17C,0.100000*%
G04 APERTURE END LIST*
D10*
X10468927Y32826382D02*
X10278451Y32693049D01*
X10468927Y32597811D02*
X10068927Y32597811D01*
X10068927Y32597811D02*
X10068927Y32750192D01*
X10068927Y32750192D02*
X10087975Y32788287D01*
X10087975Y32788287D02*
X10107022Y32807334D01*
X10107022Y32807334D02*
X10145118Y32826382D01*
X10145118Y32826382D02*
X10202260Y32826382D01*
X10202260Y32826382D02*
X10240356Y32807334D01*
X10240356Y32807334D02*
X10259403Y32788287D01*
X10259403Y32788287D02*
X10278451Y32750192D01*
X10278451Y32750192D02*
X10278451Y32597811D01*
X10468927Y33207334D02*
X10468927Y32978763D01*
X10468927Y33093049D02*
X10068927Y33093049D01*
X10068927Y33093049D02*
X10126070Y33054953D01*
X10126070Y33054953D02*
X10164165Y33016858D01*
X10164165Y33016858D02*
X10183213Y32978763D01*
X10068927Y33454953D02*
X10068927Y33493048D01*
X10068927Y33493048D02*
X10087975Y33531144D01*
X10087975Y33531144D02*
X10107022Y33550191D01*
X10107022Y33550191D02*
X10145118Y33569239D01*
X10145118Y33569239D02*
X10221308Y33588286D01*
X10221308Y33588286D02*
X10316546Y33588286D01*
X10316546Y33588286D02*
X10392737Y33569239D01*
X10392737Y33569239D02*
X10430832Y33550191D01*
X10430832Y33550191D02*
X10449880Y33531144D01*
X10449880Y33531144D02*
X10468927Y33493048D01*
X10468927Y33493048D02*
X10468927Y33454953D01*
X10468927Y33454953D02*
X10449880Y33416858D01*
X10449880Y33416858D02*
X10430832Y33397810D01*
X10430832Y33397810D02*
X10392737Y33378763D01*
X10392737Y33378763D02*
X10316546Y33359715D01*
X10316546Y33359715D02*
X10221308Y33359715D01*
X10221308Y33359715D02*
X10145118Y33378763D01*
X10145118Y33378763D02*
X10107022Y33397810D01*
X10107022Y33397810D02*
X10087975Y33416858D01*
X10087975Y33416858D02*
X10068927Y33454953D01*
X10202260Y33931143D02*
X10468927Y33931143D01*
X10049880Y33835905D02*
X10335594Y33740667D01*
X10335594Y33740667D02*
X10335594Y33988286D01*
D11*
X24629200Y32477549D02*
X24505391Y32390882D01*
X24629200Y32328977D02*
X24369200Y32328977D01*
X24369200Y32328977D02*
X24369200Y32428025D01*
X24369200Y32428025D02*
X24381581Y32452787D01*
X24381581Y32452787D02*
X24393962Y32465168D01*
X24393962Y32465168D02*
X24418724Y32477549D01*
X24418724Y32477549D02*
X24455867Y32477549D01*
X24455867Y32477549D02*
X24480629Y32465168D01*
X24480629Y32465168D02*
X24493010Y32452787D01*
X24493010Y32452787D02*
X24505391Y32428025D01*
X24505391Y32428025D02*
X24505391Y32328977D01*
X24629200Y32725168D02*
X24629200Y32576596D01*
X24629200Y32650882D02*
X24369200Y32650882D01*
X24369200Y32650882D02*
X24406343Y32626120D01*
X24406343Y32626120D02*
X24431105Y32601358D01*
X24431105Y32601358D02*
X24443486Y32576596D01*
X24369200Y32886120D02*
X24369200Y32910882D01*
X24369200Y32910882D02*
X24381581Y32935644D01*
X24381581Y32935644D02*
X24393962Y32948025D01*
X24393962Y32948025D02*
X24418724Y32960406D01*
X24418724Y32960406D02*
X24468248Y32972787D01*
X24468248Y32972787D02*
X24530153Y32972787D01*
X24530153Y32972787D02*
X24579677Y32960406D01*
X24579677Y32960406D02*
X24604439Y32948025D01*
X24604439Y32948025D02*
X24616820Y32935644D01*
X24616820Y32935644D02*
X24629200Y32910882D01*
X24629200Y32910882D02*
X24629200Y32886120D01*
X24629200Y32886120D02*
X24616820Y32861358D01*
X24616820Y32861358D02*
X24604439Y32848977D01*
X24604439Y32848977D02*
X24579677Y32836596D01*
X24579677Y32836596D02*
X24530153Y32824215D01*
X24530153Y32824215D02*
X24468248Y32824215D01*
X24468248Y32824215D02*
X24418724Y32836596D01*
X24418724Y32836596D02*
X24393962Y32848977D01*
X24393962Y32848977D02*
X24381581Y32861358D01*
X24381581Y32861358D02*
X24369200Y32886120D01*
X24369200Y33208025D02*
X24369200Y33084215D01*
X24369200Y33084215D02*
X24493010Y33071834D01*
X24493010Y33071834D02*
X24480629Y33084215D01*
X24480629Y33084215D02*
X24468248Y33108977D01*
X24468248Y33108977D02*
X24468248Y33170882D01*
X24468248Y33170882D02*
X24480629Y33195644D01*
X24480629Y33195644D02*
X24493010Y33208025D01*
X24493010Y33208025D02*
X24517772Y33220406D01*
X24517772Y33220406D02*
X24579677Y33220406D01*
X24579677Y33220406D02*
X24604439Y33208025D01*
X24604439Y33208025D02*
X24616820Y33195644D01*
X24616820Y33195644D02*
X24629200Y33170882D01*
X24629200Y33170882D02*
X24629200Y33108977D01*
X24629200Y33108977D02*
X24616820Y33084215D01*
X24616820Y33084215D02*
X24604439Y33071834D01*
D12*
X14628714Y18261681D02*
X14628714Y17452158D01*
X14628714Y17452158D02*
X14676333Y17356920D01*
X14676333Y17356920D02*
X14723952Y17309300D01*
X14723952Y17309300D02*
X14819190Y17261681D01*
X14819190Y17261681D02*
X15009666Y17261681D01*
X15009666Y17261681D02*
X15104904Y17309300D01*
X15104904Y17309300D02*
X15152523Y17356920D01*
X15152523Y17356920D02*
X15200142Y17452158D01*
X15200142Y17452158D02*
X15200142Y18261681D01*
X16200142Y17261681D02*
X15628714Y17261681D01*
X15914428Y17261681D02*
X15914428Y18261681D01*
X15914428Y18261681D02*
X15819190Y18118824D01*
X15819190Y18118824D02*
X15723952Y18023586D01*
X15723952Y18023586D02*
X15628714Y17975967D01*
X16819190Y18261681D02*
X16914428Y18261681D01*
X16914428Y18261681D02*
X17009666Y18214062D01*
X17009666Y18214062D02*
X17057285Y18166443D01*
X17057285Y18166443D02*
X17104904Y18071205D01*
X17104904Y18071205D02*
X17152523Y17880729D01*
X17152523Y17880729D02*
X17152523Y17642634D01*
X17152523Y17642634D02*
X17104904Y17452158D01*
X17104904Y17452158D02*
X17057285Y17356920D01*
X17057285Y17356920D02*
X17009666Y17309300D01*
X17009666Y17309300D02*
X16914428Y17261681D01*
X16914428Y17261681D02*
X16819190Y17261681D01*
X16819190Y17261681D02*
X16723952Y17309300D01*
X16723952Y17309300D02*
X16676333Y17356920D01*
X16676333Y17356920D02*
X16628714Y17452158D01*
X16628714Y17452158D02*
X16581095Y17642634D01*
X16581095Y17642634D02*
X16581095Y17880729D01*
X16581095Y17880729D02*
X16628714Y18071205D01*
X16628714Y18071205D02*
X16676333Y18166443D01*
X16676333Y18166443D02*
X16723952Y18214062D01*
X16723952Y18214062D02*
X16819190Y18261681D01*
X18009666Y17928348D02*
X18009666Y17261681D01*
X17771571Y18309300D02*
X17533476Y17595015D01*
X17533476Y17595015D02*
X18152523Y17595015D01*
D11*
X35436652Y20021706D02*
X35436652Y20004870D01*
X35436652Y20004870D02*
X35419816Y19971198D01*
X35419816Y19971198D02*
X35402980Y19954362D01*
X35402980Y19954362D02*
X35369309Y19937527D01*
X35369309Y19937527D02*
X35335637Y19937527D01*
X35335637Y19937527D02*
X35310383Y19945945D01*
X35310383Y19945945D02*
X35268293Y19971198D01*
X35268293Y19971198D02*
X35243040Y19996452D01*
X35243040Y19996452D02*
X35217786Y20038542D01*
X35217786Y20038542D02*
X35209368Y20063796D01*
X35209368Y20063796D02*
X35209368Y20097467D01*
X35209368Y20097467D02*
X35226204Y20131139D01*
X35226204Y20131139D02*
X35243040Y20147975D01*
X35243040Y20147975D02*
X35276711Y20164811D01*
X35276711Y20164811D02*
X35293547Y20164811D01*
X35360891Y20232154D02*
X35360891Y20248990D01*
X35360891Y20248990D02*
X35369309Y20274244D01*
X35369309Y20274244D02*
X35411398Y20316334D01*
X35411398Y20316334D02*
X35436652Y20324752D01*
X35436652Y20324752D02*
X35453488Y20324752D01*
X35453488Y20324752D02*
X35478742Y20316334D01*
X35478742Y20316334D02*
X35495578Y20299498D01*
X35495578Y20299498D02*
X35512414Y20265826D01*
X35512414Y20265826D02*
X35512414Y20063796D01*
X35512414Y20063796D02*
X35621847Y20173229D01*
X35790205Y20341587D02*
X35689190Y20240572D01*
X35739698Y20291080D02*
X35562921Y20467856D01*
X35562921Y20467856D02*
X35571339Y20425767D01*
X35571339Y20425767D02*
X35571339Y20392095D01*
X35571339Y20392095D02*
X35562921Y20366841D01*
X35764951Y20669887D02*
X35731280Y20636215D01*
X35731280Y20636215D02*
X35722862Y20610961D01*
X35722862Y20610961D02*
X35722862Y20594125D01*
X35722862Y20594125D02*
X35731280Y20552036D01*
X35731280Y20552036D02*
X35756533Y20509946D01*
X35756533Y20509946D02*
X35823877Y20442603D01*
X35823877Y20442603D02*
X35849131Y20434185D01*
X35849131Y20434185D02*
X35865967Y20434185D01*
X35865967Y20434185D02*
X35891220Y20442603D01*
X35891220Y20442603D02*
X35924892Y20476274D01*
X35924892Y20476274D02*
X35933310Y20501528D01*
X35933310Y20501528D02*
X35933310Y20518364D01*
X35933310Y20518364D02*
X35924892Y20543618D01*
X35924892Y20543618D02*
X35882803Y20585707D01*
X35882803Y20585707D02*
X35857549Y20594125D01*
X35857549Y20594125D02*
X35840713Y20594125D01*
X35840713Y20594125D02*
X35815459Y20585707D01*
X35815459Y20585707D02*
X35781787Y20552036D01*
X35781787Y20552036D02*
X35773369Y20526782D01*
X35773369Y20526782D02*
X35773369Y20509946D01*
X35773369Y20509946D02*
X35781787Y20484692D01*
D12*
X28511714Y23465181D02*
X28511714Y22655658D01*
X28511714Y22655658D02*
X28559333Y22560420D01*
X28559333Y22560420D02*
X28606952Y22512800D01*
X28606952Y22512800D02*
X28702190Y22465181D01*
X28702190Y22465181D02*
X28892666Y22465181D01*
X28892666Y22465181D02*
X28987904Y22512800D01*
X28987904Y22512800D02*
X29035523Y22560420D01*
X29035523Y22560420D02*
X29083142Y22655658D01*
X29083142Y22655658D02*
X29083142Y23465181D01*
X29511714Y23369943D02*
X29559333Y23417562D01*
X29559333Y23417562D02*
X29654571Y23465181D01*
X29654571Y23465181D02*
X29892666Y23465181D01*
X29892666Y23465181D02*
X29987904Y23417562D01*
X29987904Y23417562D02*
X30035523Y23369943D01*
X30035523Y23369943D02*
X30083142Y23274705D01*
X30083142Y23274705D02*
X30083142Y23179467D01*
X30083142Y23179467D02*
X30035523Y23036610D01*
X30035523Y23036610D02*
X29464095Y22465181D01*
X29464095Y22465181D02*
X30083142Y22465181D01*
X30702190Y23465181D02*
X30797428Y23465181D01*
X30797428Y23465181D02*
X30892666Y23417562D01*
X30892666Y23417562D02*
X30940285Y23369943D01*
X30940285Y23369943D02*
X30987904Y23274705D01*
X30987904Y23274705D02*
X31035523Y23084229D01*
X31035523Y23084229D02*
X31035523Y22846134D01*
X31035523Y22846134D02*
X30987904Y22655658D01*
X30987904Y22655658D02*
X30940285Y22560420D01*
X30940285Y22560420D02*
X30892666Y22512800D01*
X30892666Y22512800D02*
X30797428Y22465181D01*
X30797428Y22465181D02*
X30702190Y22465181D01*
X30702190Y22465181D02*
X30606952Y22512800D01*
X30606952Y22512800D02*
X30559333Y22560420D01*
X30559333Y22560420D02*
X30511714Y22655658D01*
X30511714Y22655658D02*
X30464095Y22846134D01*
X30464095Y22846134D02*
X30464095Y23084229D01*
X30464095Y23084229D02*
X30511714Y23274705D01*
X30511714Y23274705D02*
X30559333Y23369943D01*
X30559333Y23369943D02*
X30606952Y23417562D01*
X30606952Y23417562D02*
X30702190Y23465181D01*
X31987904Y22465181D02*
X31416476Y22465181D01*
X31702190Y22465181D02*
X31702190Y23465181D01*
X31702190Y23465181D02*
X31606952Y23322324D01*
X31606952Y23322324D02*
X31511714Y23227086D01*
X31511714Y23227086D02*
X31416476Y23179467D01*
D13*
X17978855Y23457072D02*
X18626474Y23457072D01*
X18626474Y23457072D02*
X18702664Y23495167D01*
X18702664Y23495167D02*
X18740760Y23533262D01*
X18740760Y23533262D02*
X18778855Y23609453D01*
X18778855Y23609453D02*
X18778855Y23761834D01*
X18778855Y23761834D02*
X18740760Y23838024D01*
X18740760Y23838024D02*
X18702664Y23876119D01*
X18702664Y23876119D02*
X18626474Y23914215D01*
X18626474Y23914215D02*
X17978855Y23914215D01*
X18778855Y24714214D02*
X18778855Y24257071D01*
X18778855Y24485643D02*
X17978855Y24485643D01*
X17978855Y24485643D02*
X18093140Y24409452D01*
X18093140Y24409452D02*
X18169331Y24333262D01*
X18169331Y24333262D02*
X18207426Y24257071D01*
X17978855Y25209453D02*
X17978855Y25285643D01*
X17978855Y25285643D02*
X18016950Y25361834D01*
X18016950Y25361834D02*
X18055045Y25399929D01*
X18055045Y25399929D02*
X18131236Y25438024D01*
X18131236Y25438024D02*
X18283617Y25476119D01*
X18283617Y25476119D02*
X18474093Y25476119D01*
X18474093Y25476119D02*
X18626474Y25438024D01*
X18626474Y25438024D02*
X18702664Y25399929D01*
X18702664Y25399929D02*
X18740760Y25361834D01*
X18740760Y25361834D02*
X18778855Y25285643D01*
X18778855Y25285643D02*
X18778855Y25209453D01*
X18778855Y25209453D02*
X18740760Y25133262D01*
X18740760Y25133262D02*
X18702664Y25095167D01*
X18702664Y25095167D02*
X18626474Y25057072D01*
X18626474Y25057072D02*
X18474093Y25018976D01*
X18474093Y25018976D02*
X18283617Y25018976D01*
X18283617Y25018976D02*
X18131236Y25057072D01*
X18131236Y25057072D02*
X18055045Y25095167D01*
X18055045Y25095167D02*
X18016950Y25133262D01*
X18016950Y25133262D02*
X17978855Y25209453D01*
X18055045Y25780881D02*
X18016950Y25818977D01*
X18016950Y25818977D02*
X17978855Y25895167D01*
X17978855Y25895167D02*
X17978855Y26085643D01*
X17978855Y26085643D02*
X18016950Y26161834D01*
X18016950Y26161834D02*
X18055045Y26199929D01*
X18055045Y26199929D02*
X18131236Y26238024D01*
X18131236Y26238024D02*
X18207426Y26238024D01*
X18207426Y26238024D02*
X18321712Y26199929D01*
X18321712Y26199929D02*
X18778855Y25742786D01*
X18778855Y25742786D02*
X18778855Y26238024D01*
D12*
X26035286Y40486800D02*
X26178143Y40439181D01*
X26178143Y40439181D02*
X26416238Y40439181D01*
X26416238Y40439181D02*
X26511476Y40486800D01*
X26511476Y40486800D02*
X26559095Y40534420D01*
X26559095Y40534420D02*
X26606714Y40629658D01*
X26606714Y40629658D02*
X26606714Y40724896D01*
X26606714Y40724896D02*
X26559095Y40820134D01*
X26559095Y40820134D02*
X26511476Y40867753D01*
X26511476Y40867753D02*
X26416238Y40915372D01*
X26416238Y40915372D02*
X26225762Y40962991D01*
X26225762Y40962991D02*
X26130524Y41010610D01*
X26130524Y41010610D02*
X26082905Y41058229D01*
X26082905Y41058229D02*
X26035286Y41153467D01*
X26035286Y41153467D02*
X26035286Y41248705D01*
X26035286Y41248705D02*
X26082905Y41343943D01*
X26082905Y41343943D02*
X26130524Y41391562D01*
X26130524Y41391562D02*
X26225762Y41439181D01*
X26225762Y41439181D02*
X26463857Y41439181D01*
X26463857Y41439181D02*
X26606714Y41391562D01*
X26940048Y41439181D02*
X27178143Y40439181D01*
X27178143Y40439181D02*
X27368619Y41153467D01*
X27368619Y41153467D02*
X27559095Y40439181D01*
X27559095Y40439181D02*
X27797191Y41439181D01*
X28701952Y40439181D02*
X28130524Y40439181D01*
X28416238Y40439181D02*
X28416238Y41439181D01*
X28416238Y41439181D02*
X28321000Y41296324D01*
X28321000Y41296324D02*
X28225762Y41201086D01*
X28225762Y41201086D02*
X28130524Y41153467D01*
X29321000Y41439181D02*
X29416238Y41439181D01*
X29416238Y41439181D02*
X29511476Y41391562D01*
X29511476Y41391562D02*
X29559095Y41343943D01*
X29559095Y41343943D02*
X29606714Y41248705D01*
X29606714Y41248705D02*
X29654333Y41058229D01*
X29654333Y41058229D02*
X29654333Y40820134D01*
X29654333Y40820134D02*
X29606714Y40629658D01*
X29606714Y40629658D02*
X29559095Y40534420D01*
X29559095Y40534420D02*
X29511476Y40486800D01*
X29511476Y40486800D02*
X29416238Y40439181D01*
X29416238Y40439181D02*
X29321000Y40439181D01*
X29321000Y40439181D02*
X29225762Y40486800D01*
X29225762Y40486800D02*
X29178143Y40534420D01*
X29178143Y40534420D02*
X29130524Y40629658D01*
X29130524Y40629658D02*
X29082905Y40820134D01*
X29082905Y40820134D02*
X29082905Y41058229D01*
X29082905Y41058229D02*
X29130524Y41248705D01*
X29130524Y41248705D02*
X29178143Y41343943D01*
X29178143Y41343943D02*
X29225762Y41391562D01*
X29225762Y41391562D02*
X29321000Y41439181D01*
X30035286Y41343943D02*
X30082905Y41391562D01*
X30082905Y41391562D02*
X30178143Y41439181D01*
X30178143Y41439181D02*
X30416238Y41439181D01*
X30416238Y41439181D02*
X30511476Y41391562D01*
X30511476Y41391562D02*
X30559095Y41343943D01*
X30559095Y41343943D02*
X30606714Y41248705D01*
X30606714Y41248705D02*
X30606714Y41153467D01*
X30606714Y41153467D02*
X30559095Y41010610D01*
X30559095Y41010610D02*
X29987667Y40439181D01*
X29987667Y40439181D02*
X30606714Y40439181D01*
D11*
X20664048Y14550300D02*
X20577381Y14674109D01*
X20515476Y14550300D02*
X20515476Y14810300D01*
X20515476Y14810300D02*
X20614524Y14810300D01*
X20614524Y14810300D02*
X20639286Y14797919D01*
X20639286Y14797919D02*
X20651667Y14785538D01*
X20651667Y14785538D02*
X20664048Y14760776D01*
X20664048Y14760776D02*
X20664048Y14723633D01*
X20664048Y14723633D02*
X20651667Y14698871D01*
X20651667Y14698871D02*
X20639286Y14686490D01*
X20639286Y14686490D02*
X20614524Y14674109D01*
X20614524Y14674109D02*
X20515476Y14674109D01*
X20911667Y14550300D02*
X20763095Y14550300D01*
X20837381Y14550300D02*
X20837381Y14810300D01*
X20837381Y14810300D02*
X20812619Y14773157D01*
X20812619Y14773157D02*
X20787857Y14748395D01*
X20787857Y14748395D02*
X20763095Y14736014D01*
X21159286Y14550300D02*
X21010714Y14550300D01*
X21085000Y14550300D02*
X21085000Y14810300D01*
X21085000Y14810300D02*
X21060238Y14773157D01*
X21060238Y14773157D02*
X21035476Y14748395D01*
X21035476Y14748395D02*
X21010714Y14736014D01*
X21245952Y14810300D02*
X21406905Y14810300D01*
X21406905Y14810300D02*
X21320238Y14711252D01*
X21320238Y14711252D02*
X21357381Y14711252D01*
X21357381Y14711252D02*
X21382143Y14698871D01*
X21382143Y14698871D02*
X21394524Y14686490D01*
X21394524Y14686490D02*
X21406905Y14661728D01*
X21406905Y14661728D02*
X21406905Y14599823D01*
X21406905Y14599823D02*
X21394524Y14575061D01*
X21394524Y14575061D02*
X21382143Y14562680D01*
X21382143Y14562680D02*
X21357381Y14550300D01*
X21357381Y14550300D02*
X21283095Y14550300D01*
X21283095Y14550300D02*
X21258333Y14562680D01*
X21258333Y14562680D02*
X21245952Y14575061D01*
D12*
X25987286Y1116800D02*
X26130143Y1069181D01*
X26130143Y1069181D02*
X26368238Y1069181D01*
X26368238Y1069181D02*
X26463476Y1116800D01*
X26463476Y1116800D02*
X26511095Y1164420D01*
X26511095Y1164420D02*
X26558714Y1259658D01*
X26558714Y1259658D02*
X26558714Y1354896D01*
X26558714Y1354896D02*
X26511095Y1450134D01*
X26511095Y1450134D02*
X26463476Y1497753D01*
X26463476Y1497753D02*
X26368238Y1545372D01*
X26368238Y1545372D02*
X26177762Y1592991D01*
X26177762Y1592991D02*
X26082524Y1640610D01*
X26082524Y1640610D02*
X26034905Y1688229D01*
X26034905Y1688229D02*
X25987286Y1783467D01*
X25987286Y1783467D02*
X25987286Y1878705D01*
X25987286Y1878705D02*
X26034905Y1973943D01*
X26034905Y1973943D02*
X26082524Y2021562D01*
X26082524Y2021562D02*
X26177762Y2069181D01*
X26177762Y2069181D02*
X26415857Y2069181D01*
X26415857Y2069181D02*
X26558714Y2021562D01*
X26892048Y2069181D02*
X27130143Y1069181D01*
X27130143Y1069181D02*
X27320619Y1783467D01*
X27320619Y1783467D02*
X27511095Y1069181D01*
X27511095Y1069181D02*
X27749191Y2069181D01*
X28653952Y1069181D02*
X28082524Y1069181D01*
X28368238Y1069181D02*
X28368238Y2069181D01*
X28368238Y2069181D02*
X28273000Y1926324D01*
X28273000Y1926324D02*
X28177762Y1831086D01*
X28177762Y1831086D02*
X28082524Y1783467D01*
X29273000Y2069181D02*
X29368238Y2069181D01*
X29368238Y2069181D02*
X29463476Y2021562D01*
X29463476Y2021562D02*
X29511095Y1973943D01*
X29511095Y1973943D02*
X29558714Y1878705D01*
X29558714Y1878705D02*
X29606333Y1688229D01*
X29606333Y1688229D02*
X29606333Y1450134D01*
X29606333Y1450134D02*
X29558714Y1259658D01*
X29558714Y1259658D02*
X29511095Y1164420D01*
X29511095Y1164420D02*
X29463476Y1116800D01*
X29463476Y1116800D02*
X29368238Y1069181D01*
X29368238Y1069181D02*
X29273000Y1069181D01*
X29273000Y1069181D02*
X29177762Y1116800D01*
X29177762Y1116800D02*
X29130143Y1164420D01*
X29130143Y1164420D02*
X29082524Y1259658D01*
X29082524Y1259658D02*
X29034905Y1450134D01*
X29034905Y1450134D02*
X29034905Y1688229D01*
X29034905Y1688229D02*
X29082524Y1878705D01*
X29082524Y1878705D02*
X29130143Y1973943D01*
X29130143Y1973943D02*
X29177762Y2021562D01*
X29177762Y2021562D02*
X29273000Y2069181D01*
X30558714Y1069181D02*
X29987286Y1069181D01*
X30273000Y1069181D02*
X30273000Y2069181D01*
X30273000Y2069181D02*
X30177762Y1926324D01*
X30177762Y1926324D02*
X30082524Y1831086D01*
X30082524Y1831086D02*
X29987286Y1783467D01*
D11*
X11404238Y16420235D02*
X11392334Y16408330D01*
X11392334Y16408330D02*
X11356619Y16396426D01*
X11356619Y16396426D02*
X11332810Y16396426D01*
X11332810Y16396426D02*
X11297096Y16408330D01*
X11297096Y16408330D02*
X11273286Y16432140D01*
X11273286Y16432140D02*
X11261381Y16455950D01*
X11261381Y16455950D02*
X11249477Y16503569D01*
X11249477Y16503569D02*
X11249477Y16539283D01*
X11249477Y16539283D02*
X11261381Y16586902D01*
X11261381Y16586902D02*
X11273286Y16610711D01*
X11273286Y16610711D02*
X11297096Y16634521D01*
X11297096Y16634521D02*
X11332810Y16646426D01*
X11332810Y16646426D02*
X11356619Y16646426D01*
X11356619Y16646426D02*
X11392334Y16634521D01*
X11392334Y16634521D02*
X11404238Y16622616D01*
X11642334Y16396426D02*
X11499477Y16396426D01*
X11570905Y16396426D02*
X11570905Y16646426D01*
X11570905Y16646426D02*
X11547096Y16610711D01*
X11547096Y16610711D02*
X11523286Y16586902D01*
X11523286Y16586902D02*
X11499477Y16574997D01*
X11797095Y16646426D02*
X11820905Y16646426D01*
X11820905Y16646426D02*
X11844714Y16634521D01*
X11844714Y16634521D02*
X11856619Y16622616D01*
X11856619Y16622616D02*
X11868524Y16598807D01*
X11868524Y16598807D02*
X11880429Y16551188D01*
X11880429Y16551188D02*
X11880429Y16491664D01*
X11880429Y16491664D02*
X11868524Y16444045D01*
X11868524Y16444045D02*
X11856619Y16420235D01*
X11856619Y16420235D02*
X11844714Y16408330D01*
X11844714Y16408330D02*
X11820905Y16396426D01*
X11820905Y16396426D02*
X11797095Y16396426D01*
X11797095Y16396426D02*
X11773286Y16408330D01*
X11773286Y16408330D02*
X11761381Y16420235D01*
X11761381Y16420235D02*
X11749476Y16444045D01*
X11749476Y16444045D02*
X11737572Y16491664D01*
X11737572Y16491664D02*
X11737572Y16551188D01*
X11737572Y16551188D02*
X11749476Y16598807D01*
X11749476Y16598807D02*
X11761381Y16622616D01*
X11761381Y16622616D02*
X11773286Y16634521D01*
X11773286Y16634521D02*
X11797095Y16646426D01*
X12023286Y16539283D02*
X11999476Y16551188D01*
X11999476Y16551188D02*
X11987571Y16563092D01*
X11987571Y16563092D02*
X11975667Y16586902D01*
X11975667Y16586902D02*
X11975667Y16598807D01*
X11975667Y16598807D02*
X11987571Y16622616D01*
X11987571Y16622616D02*
X11999476Y16634521D01*
X11999476Y16634521D02*
X12023286Y16646426D01*
X12023286Y16646426D02*
X12070905Y16646426D01*
X12070905Y16646426D02*
X12094714Y16634521D01*
X12094714Y16634521D02*
X12106619Y16622616D01*
X12106619Y16622616D02*
X12118524Y16598807D01*
X12118524Y16598807D02*
X12118524Y16586902D01*
X12118524Y16586902D02*
X12106619Y16563092D01*
X12106619Y16563092D02*
X12094714Y16551188D01*
X12094714Y16551188D02*
X12070905Y16539283D01*
X12070905Y16539283D02*
X12023286Y16539283D01*
X12023286Y16539283D02*
X11999476Y16527378D01*
X11999476Y16527378D02*
X11987571Y16515473D01*
X11987571Y16515473D02*
X11975667Y16491664D01*
X11975667Y16491664D02*
X11975667Y16444045D01*
X11975667Y16444045D02*
X11987571Y16420235D01*
X11987571Y16420235D02*
X11999476Y16408330D01*
X11999476Y16408330D02*
X12023286Y16396426D01*
X12023286Y16396426D02*
X12070905Y16396426D01*
X12070905Y16396426D02*
X12094714Y16408330D01*
X12094714Y16408330D02*
X12106619Y16420235D01*
X12106619Y16420235D02*
X12118524Y16444045D01*
X12118524Y16444045D02*
X12118524Y16491664D01*
X12118524Y16491664D02*
X12106619Y16515473D01*
X12106619Y16515473D02*
X12094714Y16527378D01*
X12094714Y16527378D02*
X12070905Y16539283D01*
X10400574Y22945382D02*
X10150574Y22945382D01*
X10150574Y22945382D02*
X10150574Y23004906D01*
X10150574Y23004906D02*
X10162479Y23040620D01*
X10162479Y23040620D02*
X10186289Y23064430D01*
X10186289Y23064430D02*
X10210098Y23076335D01*
X10210098Y23076335D02*
X10257717Y23088239D01*
X10257717Y23088239D02*
X10293431Y23088239D01*
X10293431Y23088239D02*
X10341050Y23076335D01*
X10341050Y23076335D02*
X10364860Y23064430D01*
X10364860Y23064430D02*
X10388670Y23040620D01*
X10388670Y23040620D02*
X10400574Y23004906D01*
X10400574Y23004906D02*
X10400574Y22945382D01*
X10400574Y23326335D02*
X10400574Y23183478D01*
X10400574Y23254906D02*
X10150574Y23254906D01*
X10150574Y23254906D02*
X10186289Y23231097D01*
X10186289Y23231097D02*
X10210098Y23207287D01*
X10210098Y23207287D02*
X10222003Y23183478D01*
X10150574Y23481096D02*
X10150574Y23504906D01*
X10150574Y23504906D02*
X10162479Y23528715D01*
X10162479Y23528715D02*
X10174384Y23540620D01*
X10174384Y23540620D02*
X10198193Y23552525D01*
X10198193Y23552525D02*
X10245812Y23564430D01*
X10245812Y23564430D02*
X10305336Y23564430D01*
X10305336Y23564430D02*
X10352955Y23552525D01*
X10352955Y23552525D02*
X10376765Y23540620D01*
X10376765Y23540620D02*
X10388670Y23528715D01*
X10388670Y23528715D02*
X10400574Y23504906D01*
X10400574Y23504906D02*
X10400574Y23481096D01*
X10400574Y23481096D02*
X10388670Y23457287D01*
X10388670Y23457287D02*
X10376765Y23445382D01*
X10376765Y23445382D02*
X10352955Y23433477D01*
X10352955Y23433477D02*
X10305336Y23421573D01*
X10305336Y23421573D02*
X10245812Y23421573D01*
X10245812Y23421573D02*
X10198193Y23433477D01*
X10198193Y23433477D02*
X10174384Y23445382D01*
X10174384Y23445382D02*
X10162479Y23457287D01*
X10162479Y23457287D02*
X10150574Y23481096D01*
X10400574Y23802525D02*
X10400574Y23659668D01*
X10400574Y23731096D02*
X10150574Y23731096D01*
X10150574Y23731096D02*
X10186289Y23707287D01*
X10186289Y23707287D02*
X10210098Y23683477D01*
X10210098Y23683477D02*
X10222003Y23659668D01*
X36689574Y22580239D02*
X36689574Y22461191D01*
X36689574Y22461191D02*
X36439574Y22461191D01*
X36463384Y22651668D02*
X36451479Y22663572D01*
X36451479Y22663572D02*
X36439574Y22687382D01*
X36439574Y22687382D02*
X36439574Y22746906D01*
X36439574Y22746906D02*
X36451479Y22770715D01*
X36451479Y22770715D02*
X36463384Y22782620D01*
X36463384Y22782620D02*
X36487193Y22794525D01*
X36487193Y22794525D02*
X36511003Y22794525D01*
X36511003Y22794525D02*
X36546717Y22782620D01*
X36546717Y22782620D02*
X36689574Y22639763D01*
X36689574Y22639763D02*
X36689574Y22794525D01*
X36439574Y22949286D02*
X36439574Y22973096D01*
X36439574Y22973096D02*
X36451479Y22996905D01*
X36451479Y22996905D02*
X36463384Y23008810D01*
X36463384Y23008810D02*
X36487193Y23020715D01*
X36487193Y23020715D02*
X36534812Y23032620D01*
X36534812Y23032620D02*
X36594336Y23032620D01*
X36594336Y23032620D02*
X36641955Y23020715D01*
X36641955Y23020715D02*
X36665765Y23008810D01*
X36665765Y23008810D02*
X36677670Y22996905D01*
X36677670Y22996905D02*
X36689574Y22973096D01*
X36689574Y22973096D02*
X36689574Y22949286D01*
X36689574Y22949286D02*
X36677670Y22925477D01*
X36677670Y22925477D02*
X36665765Y22913572D01*
X36665765Y22913572D02*
X36641955Y22901667D01*
X36641955Y22901667D02*
X36594336Y22889763D01*
X36594336Y22889763D02*
X36534812Y22889763D01*
X36534812Y22889763D02*
X36487193Y22901667D01*
X36487193Y22901667D02*
X36463384Y22913572D01*
X36463384Y22913572D02*
X36451479Y22925477D01*
X36451479Y22925477D02*
X36439574Y22949286D01*
X36689574Y23270715D02*
X36689574Y23127858D01*
X36689574Y23199286D02*
X36439574Y23199286D01*
X36439574Y23199286D02*
X36475289Y23175477D01*
X36475289Y23175477D02*
X36499098Y23151667D01*
X36499098Y23151667D02*
X36511003Y23127858D01*
X26379048Y16645800D02*
X26292381Y16769609D01*
X26230476Y16645800D02*
X26230476Y16905800D01*
X26230476Y16905800D02*
X26329524Y16905800D01*
X26329524Y16905800D02*
X26354286Y16893419D01*
X26354286Y16893419D02*
X26366667Y16881038D01*
X26366667Y16881038D02*
X26379048Y16856276D01*
X26379048Y16856276D02*
X26379048Y16819133D01*
X26379048Y16819133D02*
X26366667Y16794371D01*
X26366667Y16794371D02*
X26354286Y16781990D01*
X26354286Y16781990D02*
X26329524Y16769609D01*
X26329524Y16769609D02*
X26230476Y16769609D01*
X26478095Y16881038D02*
X26490476Y16893419D01*
X26490476Y16893419D02*
X26515238Y16905800D01*
X26515238Y16905800D02*
X26577143Y16905800D01*
X26577143Y16905800D02*
X26601905Y16893419D01*
X26601905Y16893419D02*
X26614286Y16881038D01*
X26614286Y16881038D02*
X26626667Y16856276D01*
X26626667Y16856276D02*
X26626667Y16831514D01*
X26626667Y16831514D02*
X26614286Y16794371D01*
X26614286Y16794371D02*
X26465714Y16645800D01*
X26465714Y16645800D02*
X26626667Y16645800D01*
X26787619Y16905800D02*
X26812381Y16905800D01*
X26812381Y16905800D02*
X26837143Y16893419D01*
X26837143Y16893419D02*
X26849524Y16881038D01*
X26849524Y16881038D02*
X26861905Y16856276D01*
X26861905Y16856276D02*
X26874286Y16806752D01*
X26874286Y16806752D02*
X26874286Y16744847D01*
X26874286Y16744847D02*
X26861905Y16695323D01*
X26861905Y16695323D02*
X26849524Y16670561D01*
X26849524Y16670561D02*
X26837143Y16658180D01*
X26837143Y16658180D02*
X26812381Y16645800D01*
X26812381Y16645800D02*
X26787619Y16645800D01*
X26787619Y16645800D02*
X26762857Y16658180D01*
X26762857Y16658180D02*
X26750476Y16670561D01*
X26750476Y16670561D02*
X26738095Y16695323D01*
X26738095Y16695323D02*
X26725714Y16744847D01*
X26725714Y16744847D02*
X26725714Y16806752D01*
X26725714Y16806752D02*
X26738095Y16856276D01*
X26738095Y16856276D02*
X26750476Y16881038D01*
X26750476Y16881038D02*
X26762857Y16893419D01*
X26762857Y16893419D02*
X26787619Y16905800D01*
X27121905Y16645800D02*
X26973333Y16645800D01*
X27047619Y16645800D02*
X27047619Y16905800D01*
X27047619Y16905800D02*
X27022857Y16868657D01*
X27022857Y16868657D02*
X26998095Y16843895D01*
X26998095Y16843895D02*
X26973333Y16831514D01*
D12*
X15581524Y38153181D02*
X15581524Y39153181D01*
X16152952Y38153181D02*
X15724381Y38724610D01*
X16152952Y39153181D02*
X15581524Y38581753D01*
X17105333Y38153181D02*
X16533905Y38153181D01*
X16819619Y38153181D02*
X16819619Y39153181D01*
X16819619Y39153181D02*
X16724381Y39010324D01*
X16724381Y39010324D02*
X16629143Y38915086D01*
X16629143Y38915086D02*
X16533905Y38867467D01*
X17724381Y39153181D02*
X17819619Y39153181D01*
X17819619Y39153181D02*
X17914857Y39105562D01*
X17914857Y39105562D02*
X17962476Y39057943D01*
X17962476Y39057943D02*
X18010095Y38962705D01*
X18010095Y38962705D02*
X18057714Y38772229D01*
X18057714Y38772229D02*
X18057714Y38534134D01*
X18057714Y38534134D02*
X18010095Y38343658D01*
X18010095Y38343658D02*
X17962476Y38248420D01*
X17962476Y38248420D02*
X17914857Y38200800D01*
X17914857Y38200800D02*
X17819619Y38153181D01*
X17819619Y38153181D02*
X17724381Y38153181D01*
X17724381Y38153181D02*
X17629143Y38200800D01*
X17629143Y38200800D02*
X17581524Y38248420D01*
X17581524Y38248420D02*
X17533905Y38343658D01*
X17533905Y38343658D02*
X17486286Y38534134D01*
X17486286Y38534134D02*
X17486286Y38772229D01*
X17486286Y38772229D02*
X17533905Y38962705D01*
X17533905Y38962705D02*
X17581524Y39057943D01*
X17581524Y39057943D02*
X17629143Y39105562D01*
X17629143Y39105562D02*
X17724381Y39153181D01*
X18914857Y38819848D02*
X18914857Y38153181D01*
X18676762Y39200800D02*
X18438667Y38486515D01*
X18438667Y38486515D02*
X19057714Y38486515D01*
D10*
X10468927Y39430382D02*
X10278451Y39297049D01*
X10468927Y39201811D02*
X10068927Y39201811D01*
X10068927Y39201811D02*
X10068927Y39354192D01*
X10068927Y39354192D02*
X10087975Y39392287D01*
X10087975Y39392287D02*
X10107022Y39411334D01*
X10107022Y39411334D02*
X10145118Y39430382D01*
X10145118Y39430382D02*
X10202260Y39430382D01*
X10202260Y39430382D02*
X10240356Y39411334D01*
X10240356Y39411334D02*
X10259403Y39392287D01*
X10259403Y39392287D02*
X10278451Y39354192D01*
X10278451Y39354192D02*
X10278451Y39201811D01*
X10468927Y39811334D02*
X10468927Y39582763D01*
X10468927Y39697049D02*
X10068927Y39697049D01*
X10068927Y39697049D02*
X10126070Y39658953D01*
X10126070Y39658953D02*
X10164165Y39620858D01*
X10164165Y39620858D02*
X10183213Y39582763D01*
X10068927Y40058953D02*
X10068927Y40097048D01*
X10068927Y40097048D02*
X10087975Y40135144D01*
X10087975Y40135144D02*
X10107022Y40154191D01*
X10107022Y40154191D02*
X10145118Y40173239D01*
X10145118Y40173239D02*
X10221308Y40192286D01*
X10221308Y40192286D02*
X10316546Y40192286D01*
X10316546Y40192286D02*
X10392737Y40173239D01*
X10392737Y40173239D02*
X10430832Y40154191D01*
X10430832Y40154191D02*
X10449880Y40135144D01*
X10449880Y40135144D02*
X10468927Y40097048D01*
X10468927Y40097048D02*
X10468927Y40058953D01*
X10468927Y40058953D02*
X10449880Y40020858D01*
X10449880Y40020858D02*
X10430832Y40001810D01*
X10430832Y40001810D02*
X10392737Y39982763D01*
X10392737Y39982763D02*
X10316546Y39963715D01*
X10316546Y39963715D02*
X10221308Y39963715D01*
X10221308Y39963715D02*
X10145118Y39982763D01*
X10145118Y39982763D02*
X10107022Y40001810D01*
X10107022Y40001810D02*
X10087975Y40020858D01*
X10087975Y40020858D02*
X10068927Y40058953D01*
X10068927Y40535143D02*
X10068927Y40458953D01*
X10068927Y40458953D02*
X10087975Y40420857D01*
X10087975Y40420857D02*
X10107022Y40401810D01*
X10107022Y40401810D02*
X10164165Y40363715D01*
X10164165Y40363715D02*
X10240356Y40344667D01*
X10240356Y40344667D02*
X10392737Y40344667D01*
X10392737Y40344667D02*
X10430832Y40363715D01*
X10430832Y40363715D02*
X10449880Y40382762D01*
X10449880Y40382762D02*
X10468927Y40420857D01*
X10468927Y40420857D02*
X10468927Y40497048D01*
X10468927Y40497048D02*
X10449880Y40535143D01*
X10449880Y40535143D02*
X10430832Y40554191D01*
X10430832Y40554191D02*
X10392737Y40573238D01*
X10392737Y40573238D02*
X10297499Y40573238D01*
X10297499Y40573238D02*
X10259403Y40554191D01*
X10259403Y40554191D02*
X10240356Y40535143D01*
X10240356Y40535143D02*
X10221308Y40497048D01*
X10221308Y40497048D02*
X10221308Y40420857D01*
X10221308Y40420857D02*
X10240356Y40382762D01*
X10240356Y40382762D02*
X10259403Y40363715D01*
X10259403Y40363715D02*
X10297499Y40344667D01*
X24946927Y9520382D02*
X24756451Y9387049D01*
X24946927Y9291811D02*
X24546927Y9291811D01*
X24546927Y9291811D02*
X24546927Y9444192D01*
X24546927Y9444192D02*
X24565975Y9482287D01*
X24565975Y9482287D02*
X24585022Y9501334D01*
X24585022Y9501334D02*
X24623118Y9520382D01*
X24623118Y9520382D02*
X24680260Y9520382D01*
X24680260Y9520382D02*
X24718356Y9501334D01*
X24718356Y9501334D02*
X24737403Y9482287D01*
X24737403Y9482287D02*
X24756451Y9444192D01*
X24756451Y9444192D02*
X24756451Y9291811D01*
X24946927Y9901334D02*
X24946927Y9672763D01*
X24946927Y9787049D02*
X24546927Y9787049D01*
X24546927Y9787049D02*
X24604070Y9748953D01*
X24604070Y9748953D02*
X24642165Y9710858D01*
X24642165Y9710858D02*
X24661213Y9672763D01*
X24546927Y10148953D02*
X24546927Y10187048D01*
X24546927Y10187048D02*
X24565975Y10225144D01*
X24565975Y10225144D02*
X24585022Y10244191D01*
X24585022Y10244191D02*
X24623118Y10263239D01*
X24623118Y10263239D02*
X24699308Y10282286D01*
X24699308Y10282286D02*
X24794546Y10282286D01*
X24794546Y10282286D02*
X24870737Y10263239D01*
X24870737Y10263239D02*
X24908832Y10244191D01*
X24908832Y10244191D02*
X24927880Y10225144D01*
X24927880Y10225144D02*
X24946927Y10187048D01*
X24946927Y10187048D02*
X24946927Y10148953D01*
X24946927Y10148953D02*
X24927880Y10110858D01*
X24927880Y10110858D02*
X24908832Y10091810D01*
X24908832Y10091810D02*
X24870737Y10072763D01*
X24870737Y10072763D02*
X24794546Y10053715D01*
X24794546Y10053715D02*
X24699308Y10053715D01*
X24699308Y10053715D02*
X24623118Y10072763D01*
X24623118Y10072763D02*
X24585022Y10091810D01*
X24585022Y10091810D02*
X24565975Y10110858D01*
X24565975Y10110858D02*
X24546927Y10148953D01*
X24946927Y10663238D02*
X24946927Y10434667D01*
X24946927Y10548953D02*
X24546927Y10548953D01*
X24546927Y10548953D02*
X24604070Y10510857D01*
X24604070Y10510857D02*
X24642165Y10472762D01*
X24642165Y10472762D02*
X24661213Y10434667D01*
D11*
X35788238Y26199235D02*
X35776334Y26187330D01*
X35776334Y26187330D02*
X35740619Y26175426D01*
X35740619Y26175426D02*
X35716810Y26175426D01*
X35716810Y26175426D02*
X35681096Y26187330D01*
X35681096Y26187330D02*
X35657286Y26211140D01*
X35657286Y26211140D02*
X35645381Y26234950D01*
X35645381Y26234950D02*
X35633477Y26282569D01*
X35633477Y26282569D02*
X35633477Y26318283D01*
X35633477Y26318283D02*
X35645381Y26365902D01*
X35645381Y26365902D02*
X35657286Y26389711D01*
X35657286Y26389711D02*
X35681096Y26413521D01*
X35681096Y26413521D02*
X35716810Y26425426D01*
X35716810Y26425426D02*
X35740619Y26425426D01*
X35740619Y26425426D02*
X35776334Y26413521D01*
X35776334Y26413521D02*
X35788238Y26401616D01*
X35883477Y26401616D02*
X35895381Y26413521D01*
X35895381Y26413521D02*
X35919191Y26425426D01*
X35919191Y26425426D02*
X35978715Y26425426D01*
X35978715Y26425426D02*
X36002524Y26413521D01*
X36002524Y26413521D02*
X36014429Y26401616D01*
X36014429Y26401616D02*
X36026334Y26377807D01*
X36026334Y26377807D02*
X36026334Y26353997D01*
X36026334Y26353997D02*
X36014429Y26318283D01*
X36014429Y26318283D02*
X35871572Y26175426D01*
X35871572Y26175426D02*
X36026334Y26175426D01*
X36181095Y26425426D02*
X36204905Y26425426D01*
X36204905Y26425426D02*
X36228714Y26413521D01*
X36228714Y26413521D02*
X36240619Y26401616D01*
X36240619Y26401616D02*
X36252524Y26377807D01*
X36252524Y26377807D02*
X36264429Y26330188D01*
X36264429Y26330188D02*
X36264429Y26270664D01*
X36264429Y26270664D02*
X36252524Y26223045D01*
X36252524Y26223045D02*
X36240619Y26199235D01*
X36240619Y26199235D02*
X36228714Y26187330D01*
X36228714Y26187330D02*
X36204905Y26175426D01*
X36204905Y26175426D02*
X36181095Y26175426D01*
X36181095Y26175426D02*
X36157286Y26187330D01*
X36157286Y26187330D02*
X36145381Y26199235D01*
X36145381Y26199235D02*
X36133476Y26223045D01*
X36133476Y26223045D02*
X36121572Y26270664D01*
X36121572Y26270664D02*
X36121572Y26330188D01*
X36121572Y26330188D02*
X36133476Y26377807D01*
X36133476Y26377807D02*
X36145381Y26401616D01*
X36145381Y26401616D02*
X36157286Y26413521D01*
X36157286Y26413521D02*
X36181095Y26425426D01*
X36478714Y26342092D02*
X36478714Y26175426D01*
X36419190Y26437330D02*
X36359667Y26258759D01*
X36359667Y26258759D02*
X36514428Y26258759D01*
D12*
X39751286Y2339181D02*
X39751286Y3339181D01*
X39751286Y3339181D02*
X40084619Y2624896D01*
X40084619Y2624896D02*
X40417952Y3339181D01*
X40417952Y3339181D02*
X40417952Y2339181D01*
X40894143Y2339181D02*
X40894143Y3339181D01*
X40894143Y2862991D02*
X41465571Y2862991D01*
X41465571Y2339181D02*
X41465571Y3339181D01*
X42465571Y2339181D02*
X41894143Y2339181D01*
X42179857Y2339181D02*
X42179857Y3339181D01*
X42179857Y3339181D02*
X42084619Y3196324D01*
X42084619Y3196324D02*
X41989381Y3101086D01*
X41989381Y3101086D02*
X41894143Y3053467D01*
X43084619Y3339181D02*
X43179857Y3339181D01*
X43179857Y3339181D02*
X43275095Y3291562D01*
X43275095Y3291562D02*
X43322714Y3243943D01*
X43322714Y3243943D02*
X43370333Y3148705D01*
X43370333Y3148705D02*
X43417952Y2958229D01*
X43417952Y2958229D02*
X43417952Y2720134D01*
X43417952Y2720134D02*
X43370333Y2529658D01*
X43370333Y2529658D02*
X43322714Y2434420D01*
X43322714Y2434420D02*
X43275095Y2386800D01*
X43275095Y2386800D02*
X43179857Y2339181D01*
X43179857Y2339181D02*
X43084619Y2339181D01*
X43084619Y2339181D02*
X42989381Y2386800D01*
X42989381Y2386800D02*
X42941762Y2434420D01*
X42941762Y2434420D02*
X42894143Y2529658D01*
X42894143Y2529658D02*
X42846524Y2720134D01*
X42846524Y2720134D02*
X42846524Y2958229D01*
X42846524Y2958229D02*
X42894143Y3148705D01*
X42894143Y3148705D02*
X42941762Y3243943D01*
X42941762Y3243943D02*
X42989381Y3291562D01*
X42989381Y3291562D02*
X43084619Y3339181D01*
X43798905Y3243943D02*
X43846524Y3291562D01*
X43846524Y3291562D02*
X43941762Y3339181D01*
X43941762Y3339181D02*
X44179857Y3339181D01*
X44179857Y3339181D02*
X44275095Y3291562D01*
X44275095Y3291562D02*
X44322714Y3243943D01*
X44322714Y3243943D02*
X44370333Y3148705D01*
X44370333Y3148705D02*
X44370333Y3053467D01*
X44370333Y3053467D02*
X44322714Y2910610D01*
X44322714Y2910610D02*
X43751286Y2339181D01*
X43751286Y2339181D02*
X44370333Y2339181D01*
D11*
X35992869Y19055512D02*
X35908689Y19139692D01*
X35908689Y19139692D02*
X36085466Y19316468D01*
X36203317Y19164945D02*
X36220153Y19164945D01*
X36220153Y19164945D02*
X36245407Y19156528D01*
X36245407Y19156528D02*
X36287497Y19114438D01*
X36287497Y19114438D02*
X36295915Y19089184D01*
X36295915Y19089184D02*
X36295915Y19072348D01*
X36295915Y19072348D02*
X36287497Y19047094D01*
X36287497Y19047094D02*
X36270661Y19030258D01*
X36270661Y19030258D02*
X36236989Y19013423D01*
X36236989Y19013423D02*
X36034958Y19013423D01*
X36034958Y19013423D02*
X36144392Y18903989D01*
X36430601Y18971333D02*
X36447437Y18954497D01*
X36447437Y18954497D02*
X36455855Y18929243D01*
X36455855Y18929243D02*
X36455855Y18912408D01*
X36455855Y18912408D02*
X36447437Y18887154D01*
X36447437Y18887154D02*
X36422183Y18845064D01*
X36422183Y18845064D02*
X36380094Y18802974D01*
X36380094Y18802974D02*
X36338004Y18777721D01*
X36338004Y18777721D02*
X36312750Y18769303D01*
X36312750Y18769303D02*
X36295914Y18769303D01*
X36295914Y18769303D02*
X36270661Y18777721D01*
X36270661Y18777721D02*
X36253825Y18794556D01*
X36253825Y18794556D02*
X36245407Y18819810D01*
X36245407Y18819810D02*
X36245407Y18836646D01*
X36245407Y18836646D02*
X36253825Y18861900D01*
X36253825Y18861900D02*
X36279078Y18903990D01*
X36279078Y18903990D02*
X36321168Y18946079D01*
X36321168Y18946079D02*
X36363258Y18971333D01*
X36363258Y18971333D02*
X36388512Y18979751D01*
X36388512Y18979751D02*
X36405348Y18979751D01*
X36405348Y18979751D02*
X36430601Y18971333D01*
X36540034Y18828228D02*
X36556870Y18828228D01*
X36556870Y18828228D02*
X36582124Y18819810D01*
X36582124Y18819810D02*
X36624214Y18777721D01*
X36624214Y18777721D02*
X36632632Y18752467D01*
X36632632Y18752467D02*
X36632632Y18735631D01*
X36632632Y18735631D02*
X36624214Y18710377D01*
X36624214Y18710377D02*
X36607378Y18693541D01*
X36607378Y18693541D02*
X36573706Y18676705D01*
X36573706Y18676705D02*
X36371676Y18676705D01*
X36371676Y18676705D02*
X36481109Y18567272D01*
X26661200Y32475049D02*
X26537391Y32388382D01*
X26661200Y32326477D02*
X26401200Y32326477D01*
X26401200Y32326477D02*
X26401200Y32425525D01*
X26401200Y32425525D02*
X26413581Y32450287D01*
X26413581Y32450287D02*
X26425962Y32462668D01*
X26425962Y32462668D02*
X26450724Y32475049D01*
X26450724Y32475049D02*
X26487867Y32475049D01*
X26487867Y32475049D02*
X26512629Y32462668D01*
X26512629Y32462668D02*
X26525010Y32450287D01*
X26525010Y32450287D02*
X26537391Y32425525D01*
X26537391Y32425525D02*
X26537391Y32326477D01*
X26661200Y32722668D02*
X26661200Y32574096D01*
X26661200Y32648382D02*
X26401200Y32648382D01*
X26401200Y32648382D02*
X26438343Y32623620D01*
X26438343Y32623620D02*
X26463105Y32598858D01*
X26463105Y32598858D02*
X26475486Y32574096D01*
X26401200Y32883620D02*
X26401200Y32908382D01*
X26401200Y32908382D02*
X26413581Y32933144D01*
X26413581Y32933144D02*
X26425962Y32945525D01*
X26425962Y32945525D02*
X26450724Y32957906D01*
X26450724Y32957906D02*
X26500248Y32970287D01*
X26500248Y32970287D02*
X26562153Y32970287D01*
X26562153Y32970287D02*
X26611677Y32957906D01*
X26611677Y32957906D02*
X26636439Y32945525D01*
X26636439Y32945525D02*
X26648820Y32933144D01*
X26648820Y32933144D02*
X26661200Y32908382D01*
X26661200Y32908382D02*
X26661200Y32883620D01*
X26661200Y32883620D02*
X26648820Y32858858D01*
X26648820Y32858858D02*
X26636439Y32846477D01*
X26636439Y32846477D02*
X26611677Y32834096D01*
X26611677Y32834096D02*
X26562153Y32821715D01*
X26562153Y32821715D02*
X26500248Y32821715D01*
X26500248Y32821715D02*
X26450724Y32834096D01*
X26450724Y32834096D02*
X26425962Y32846477D01*
X26425962Y32846477D02*
X26413581Y32858858D01*
X26413581Y32858858D02*
X26401200Y32883620D01*
X26661200Y33094096D02*
X26661200Y33143620D01*
X26661200Y33143620D02*
X26648820Y33168382D01*
X26648820Y33168382D02*
X26636439Y33180763D01*
X26636439Y33180763D02*
X26599296Y33205525D01*
X26599296Y33205525D02*
X26549772Y33217906D01*
X26549772Y33217906D02*
X26450724Y33217906D01*
X26450724Y33217906D02*
X26425962Y33205525D01*
X26425962Y33205525D02*
X26413581Y33193144D01*
X26413581Y33193144D02*
X26401200Y33168382D01*
X26401200Y33168382D02*
X26401200Y33118858D01*
X26401200Y33118858D02*
X26413581Y33094096D01*
X26413581Y33094096D02*
X26425962Y33081715D01*
X26425962Y33081715D02*
X26450724Y33069334D01*
X26450724Y33069334D02*
X26512629Y33069334D01*
X26512629Y33069334D02*
X26537391Y33081715D01*
X26537391Y33081715D02*
X26549772Y33094096D01*
X26549772Y33094096D02*
X26562153Y33118858D01*
X26562153Y33118858D02*
X26562153Y33168382D01*
X26562153Y33168382D02*
X26549772Y33193144D01*
X26549772Y33193144D02*
X26537391Y33205525D01*
X26537391Y33205525D02*
X26512629Y33217906D01*
D10*
X35106927Y32750311D02*
X34706927Y32750311D01*
X34706927Y32750311D02*
X34706927Y32845549D01*
X34706927Y32845549D02*
X34725975Y32902692D01*
X34725975Y32902692D02*
X34764070Y32940787D01*
X34764070Y32940787D02*
X34802165Y32959834D01*
X34802165Y32959834D02*
X34878356Y32978882D01*
X34878356Y32978882D02*
X34935499Y32978882D01*
X34935499Y32978882D02*
X35011689Y32959834D01*
X35011689Y32959834D02*
X35049784Y32940787D01*
X35049784Y32940787D02*
X35087880Y32902692D01*
X35087880Y32902692D02*
X35106927Y32845549D01*
X35106927Y32845549D02*
X35106927Y32750311D01*
X35106927Y33359834D02*
X35106927Y33131263D01*
X35106927Y33245549D02*
X34706927Y33245549D01*
X34706927Y33245549D02*
X34764070Y33207453D01*
X34764070Y33207453D02*
X34802165Y33169358D01*
X34802165Y33169358D02*
X34821213Y33131263D01*
X34706927Y33607453D02*
X34706927Y33645548D01*
X34706927Y33645548D02*
X34725975Y33683644D01*
X34725975Y33683644D02*
X34745022Y33702691D01*
X34745022Y33702691D02*
X34783118Y33721739D01*
X34783118Y33721739D02*
X34859308Y33740786D01*
X34859308Y33740786D02*
X34954546Y33740786D01*
X34954546Y33740786D02*
X35030737Y33721739D01*
X35030737Y33721739D02*
X35068832Y33702691D01*
X35068832Y33702691D02*
X35087880Y33683644D01*
X35087880Y33683644D02*
X35106927Y33645548D01*
X35106927Y33645548D02*
X35106927Y33607453D01*
X35106927Y33607453D02*
X35087880Y33569358D01*
X35087880Y33569358D02*
X35068832Y33550310D01*
X35068832Y33550310D02*
X35030737Y33531263D01*
X35030737Y33531263D02*
X34954546Y33512215D01*
X34954546Y33512215D02*
X34859308Y33512215D01*
X34859308Y33512215D02*
X34783118Y33531263D01*
X34783118Y33531263D02*
X34745022Y33550310D01*
X34745022Y33550310D02*
X34725975Y33569358D01*
X34725975Y33569358D02*
X34706927Y33607453D01*
X34706927Y33874119D02*
X34706927Y34121738D01*
X34706927Y34121738D02*
X34859308Y33988405D01*
X34859308Y33988405D02*
X34859308Y34045548D01*
X34859308Y34045548D02*
X34878356Y34083643D01*
X34878356Y34083643D02*
X34897403Y34102691D01*
X34897403Y34102691D02*
X34935499Y34121738D01*
X34935499Y34121738D02*
X35030737Y34121738D01*
X35030737Y34121738D02*
X35068832Y34102691D01*
X35068832Y34102691D02*
X35087880Y34083643D01*
X35087880Y34083643D02*
X35106927Y34045548D01*
X35106927Y34045548D02*
X35106927Y33931262D01*
X35106927Y33931262D02*
X35087880Y33893167D01*
X35087880Y33893167D02*
X35068832Y33874119D01*
D12*
X39765286Y39423181D02*
X39765286Y40423181D01*
X39765286Y40423181D02*
X40098619Y39708896D01*
X40098619Y39708896D02*
X40431952Y40423181D01*
X40431952Y40423181D02*
X40431952Y39423181D01*
X40908143Y39423181D02*
X40908143Y40423181D01*
X40908143Y39946991D02*
X41479571Y39946991D01*
X41479571Y39423181D02*
X41479571Y40423181D01*
X42479571Y39423181D02*
X41908143Y39423181D01*
X42193857Y39423181D02*
X42193857Y40423181D01*
X42193857Y40423181D02*
X42098619Y40280324D01*
X42098619Y40280324D02*
X42003381Y40185086D01*
X42003381Y40185086D02*
X41908143Y40137467D01*
X43098619Y40423181D02*
X43193857Y40423181D01*
X43193857Y40423181D02*
X43289095Y40375562D01*
X43289095Y40375562D02*
X43336714Y40327943D01*
X43336714Y40327943D02*
X43384333Y40232705D01*
X43384333Y40232705D02*
X43431952Y40042229D01*
X43431952Y40042229D02*
X43431952Y39804134D01*
X43431952Y39804134D02*
X43384333Y39613658D01*
X43384333Y39613658D02*
X43336714Y39518420D01*
X43336714Y39518420D02*
X43289095Y39470800D01*
X43289095Y39470800D02*
X43193857Y39423181D01*
X43193857Y39423181D02*
X43098619Y39423181D01*
X43098619Y39423181D02*
X43003381Y39470800D01*
X43003381Y39470800D02*
X42955762Y39518420D01*
X42955762Y39518420D02*
X42908143Y39613658D01*
X42908143Y39613658D02*
X42860524Y39804134D01*
X42860524Y39804134D02*
X42860524Y40042229D01*
X42860524Y40042229D02*
X42908143Y40232705D01*
X42908143Y40232705D02*
X42955762Y40327943D01*
X42955762Y40327943D02*
X43003381Y40375562D01*
X43003381Y40375562D02*
X43098619Y40423181D01*
X44384333Y39423181D02*
X43812905Y39423181D01*
X44098619Y39423181D02*
X44098619Y40423181D01*
X44098619Y40423181D02*
X44003381Y40280324D01*
X44003381Y40280324D02*
X43908143Y40185086D01*
X43908143Y40185086D02*
X43812905Y40137467D01*
X1891819Y37322286D02*
X2606104Y37322286D01*
X2606104Y37322286D02*
X2748961Y37274667D01*
X2748961Y37274667D02*
X2844200Y37179429D01*
X2844200Y37179429D02*
X2891819Y37036572D01*
X2891819Y37036572D02*
X2891819Y36941334D01*
X2891819Y38322286D02*
X2891819Y37750858D01*
X2891819Y38036572D02*
X1891819Y38036572D01*
X1891819Y38036572D02*
X2034676Y37941334D01*
X2034676Y37941334D02*
X2129914Y37846096D01*
X2129914Y37846096D02*
X2177533Y37750858D01*
X1891819Y38941334D02*
X1891819Y39036572D01*
X1891819Y39036572D02*
X1939438Y39131810D01*
X1939438Y39131810D02*
X1987057Y39179429D01*
X1987057Y39179429D02*
X2082295Y39227048D01*
X2082295Y39227048D02*
X2272771Y39274667D01*
X2272771Y39274667D02*
X2510866Y39274667D01*
X2510866Y39274667D02*
X2701342Y39227048D01*
X2701342Y39227048D02*
X2796580Y39179429D01*
X2796580Y39179429D02*
X2844200Y39131810D01*
X2844200Y39131810D02*
X2891819Y39036572D01*
X2891819Y39036572D02*
X2891819Y38941334D01*
X2891819Y38941334D02*
X2844200Y38846096D01*
X2844200Y38846096D02*
X2796580Y38798477D01*
X2796580Y38798477D02*
X2701342Y38750858D01*
X2701342Y38750858D02*
X2510866Y38703239D01*
X2510866Y38703239D02*
X2272771Y38703239D01*
X2272771Y38703239D02*
X2082295Y38750858D01*
X2082295Y38750858D02*
X1987057Y38798477D01*
X1987057Y38798477D02*
X1939438Y38846096D01*
X1939438Y38846096D02*
X1891819Y38941334D01*
X2225152Y40131810D02*
X2891819Y40131810D01*
X1844200Y39893715D02*
X2558485Y39655620D01*
X2558485Y39655620D02*
X2558485Y40274667D01*
D11*
X28620765Y13883239D02*
X28632670Y13871335D01*
X28632670Y13871335D02*
X28644574Y13835620D01*
X28644574Y13835620D02*
X28644574Y13811811D01*
X28644574Y13811811D02*
X28632670Y13776097D01*
X28632670Y13776097D02*
X28608860Y13752287D01*
X28608860Y13752287D02*
X28585050Y13740382D01*
X28585050Y13740382D02*
X28537431Y13728478D01*
X28537431Y13728478D02*
X28501717Y13728478D01*
X28501717Y13728478D02*
X28454098Y13740382D01*
X28454098Y13740382D02*
X28430289Y13752287D01*
X28430289Y13752287D02*
X28406479Y13776097D01*
X28406479Y13776097D02*
X28394574Y13811811D01*
X28394574Y13811811D02*
X28394574Y13835620D01*
X28394574Y13835620D02*
X28406479Y13871335D01*
X28406479Y13871335D02*
X28418384Y13883239D01*
X28418384Y13978478D02*
X28406479Y13990382D01*
X28406479Y13990382D02*
X28394574Y14014192D01*
X28394574Y14014192D02*
X28394574Y14073716D01*
X28394574Y14073716D02*
X28406479Y14097525D01*
X28406479Y14097525D02*
X28418384Y14109430D01*
X28418384Y14109430D02*
X28442193Y14121335D01*
X28442193Y14121335D02*
X28466003Y14121335D01*
X28466003Y14121335D02*
X28501717Y14109430D01*
X28501717Y14109430D02*
X28644574Y13966573D01*
X28644574Y13966573D02*
X28644574Y14121335D01*
X28644574Y14359430D02*
X28644574Y14216573D01*
X28644574Y14288001D02*
X28394574Y14288001D01*
X28394574Y14288001D02*
X28430289Y14264192D01*
X28430289Y14264192D02*
X28454098Y14240382D01*
X28454098Y14240382D02*
X28466003Y14216573D01*
X28394574Y14585620D02*
X28394574Y14466572D01*
X28394574Y14466572D02*
X28513622Y14454668D01*
X28513622Y14454668D02*
X28501717Y14466572D01*
X28501717Y14466572D02*
X28489812Y14490382D01*
X28489812Y14490382D02*
X28489812Y14549906D01*
X28489812Y14549906D02*
X28501717Y14573715D01*
X28501717Y14573715D02*
X28513622Y14585620D01*
X28513622Y14585620D02*
X28537431Y14597525D01*
X28537431Y14597525D02*
X28596955Y14597525D01*
X28596955Y14597525D02*
X28620765Y14585620D01*
X28620765Y14585620D02*
X28632670Y14573715D01*
X28632670Y14573715D02*
X28644574Y14549906D01*
X28644574Y14549906D02*
X28644574Y14490382D01*
X28644574Y14490382D02*
X28632670Y14466572D01*
X28632670Y14466572D02*
X28620765Y14454668D01*
D12*
X15581524Y3482181D02*
X15581524Y4482181D01*
X16152952Y3482181D02*
X15724381Y4053610D01*
X16152952Y4482181D02*
X15581524Y3910753D01*
X17105333Y3482181D02*
X16533905Y3482181D01*
X16819619Y3482181D02*
X16819619Y4482181D01*
X16819619Y4482181D02*
X16724381Y4339324D01*
X16724381Y4339324D02*
X16629143Y4244086D01*
X16629143Y4244086D02*
X16533905Y4196467D01*
X17724381Y4482181D02*
X17819619Y4482181D01*
X17819619Y4482181D02*
X17914857Y4434562D01*
X17914857Y4434562D02*
X17962476Y4386943D01*
X17962476Y4386943D02*
X18010095Y4291705D01*
X18010095Y4291705D02*
X18057714Y4101229D01*
X18057714Y4101229D02*
X18057714Y3863134D01*
X18057714Y3863134D02*
X18010095Y3672658D01*
X18010095Y3672658D02*
X17962476Y3577420D01*
X17962476Y3577420D02*
X17914857Y3529800D01*
X17914857Y3529800D02*
X17819619Y3482181D01*
X17819619Y3482181D02*
X17724381Y3482181D01*
X17724381Y3482181D02*
X17629143Y3529800D01*
X17629143Y3529800D02*
X17581524Y3577420D01*
X17581524Y3577420D02*
X17533905Y3672658D01*
X17533905Y3672658D02*
X17486286Y3863134D01*
X17486286Y3863134D02*
X17486286Y4101229D01*
X17486286Y4101229D02*
X17533905Y4291705D01*
X17533905Y4291705D02*
X17581524Y4386943D01*
X17581524Y4386943D02*
X17629143Y4434562D01*
X17629143Y4434562D02*
X17724381Y4482181D01*
X19010095Y3482181D02*
X18438667Y3482181D01*
X18724381Y3482181D02*
X18724381Y4482181D01*
X18724381Y4482181D02*
X18629143Y4339324D01*
X18629143Y4339324D02*
X18533905Y4244086D01*
X18533905Y4244086D02*
X18438667Y4196467D01*
D11*
X11421200Y18632049D02*
X11297391Y18545382D01*
X11421200Y18483477D02*
X11161200Y18483477D01*
X11161200Y18483477D02*
X11161200Y18582525D01*
X11161200Y18582525D02*
X11173581Y18607287D01*
X11173581Y18607287D02*
X11185962Y18619668D01*
X11185962Y18619668D02*
X11210724Y18632049D01*
X11210724Y18632049D02*
X11247867Y18632049D01*
X11247867Y18632049D02*
X11272629Y18619668D01*
X11272629Y18619668D02*
X11285010Y18607287D01*
X11285010Y18607287D02*
X11297391Y18582525D01*
X11297391Y18582525D02*
X11297391Y18483477D01*
X11421200Y18879668D02*
X11421200Y18731096D01*
X11421200Y18805382D02*
X11161200Y18805382D01*
X11161200Y18805382D02*
X11198343Y18780620D01*
X11198343Y18780620D02*
X11223105Y18755858D01*
X11223105Y18755858D02*
X11235486Y18731096D01*
X11421200Y19127287D02*
X11421200Y18978715D01*
X11421200Y19053001D02*
X11161200Y19053001D01*
X11161200Y19053001D02*
X11198343Y19028239D01*
X11198343Y19028239D02*
X11223105Y19003477D01*
X11223105Y19003477D02*
X11235486Y18978715D01*
X11421200Y19374906D02*
X11421200Y19226334D01*
X11421200Y19300620D02*
X11161200Y19300620D01*
X11161200Y19300620D02*
X11198343Y19275858D01*
X11198343Y19275858D02*
X11223105Y19251096D01*
X11223105Y19251096D02*
X11235486Y19226334D01*
D12*
X1891819Y30718286D02*
X2606104Y30718286D01*
X2606104Y30718286D02*
X2748961Y30670667D01*
X2748961Y30670667D02*
X2844200Y30575429D01*
X2844200Y30575429D02*
X2891819Y30432572D01*
X2891819Y30432572D02*
X2891819Y30337334D01*
X2891819Y31718286D02*
X2891819Y31146858D01*
X2891819Y31432572D02*
X1891819Y31432572D01*
X1891819Y31432572D02*
X2034676Y31337334D01*
X2034676Y31337334D02*
X2129914Y31242096D01*
X2129914Y31242096D02*
X2177533Y31146858D01*
X1891819Y32337334D02*
X1891819Y32432572D01*
X1891819Y32432572D02*
X1939438Y32527810D01*
X1939438Y32527810D02*
X1987057Y32575429D01*
X1987057Y32575429D02*
X2082295Y32623048D01*
X2082295Y32623048D02*
X2272771Y32670667D01*
X2272771Y32670667D02*
X2510866Y32670667D01*
X2510866Y32670667D02*
X2701342Y32623048D01*
X2701342Y32623048D02*
X2796580Y32575429D01*
X2796580Y32575429D02*
X2844200Y32527810D01*
X2844200Y32527810D02*
X2891819Y32432572D01*
X2891819Y32432572D02*
X2891819Y32337334D01*
X2891819Y32337334D02*
X2844200Y32242096D01*
X2844200Y32242096D02*
X2796580Y32194477D01*
X2796580Y32194477D02*
X2701342Y32146858D01*
X2701342Y32146858D02*
X2510866Y32099239D01*
X2510866Y32099239D02*
X2272771Y32099239D01*
X2272771Y32099239D02*
X2082295Y32146858D01*
X2082295Y32146858D02*
X1987057Y32194477D01*
X1987057Y32194477D02*
X1939438Y32242096D01*
X1939438Y32242096D02*
X1891819Y32337334D01*
X1891819Y33004001D02*
X1891819Y33623048D01*
X1891819Y33623048D02*
X2272771Y33289715D01*
X2272771Y33289715D02*
X2272771Y33432572D01*
X2272771Y33432572D02*
X2320390Y33527810D01*
X2320390Y33527810D02*
X2368009Y33575429D01*
X2368009Y33575429D02*
X2463247Y33623048D01*
X2463247Y33623048D02*
X2701342Y33623048D01*
X2701342Y33623048D02*
X2796580Y33575429D01*
X2796580Y33575429D02*
X2844200Y33527810D01*
X2844200Y33527810D02*
X2891819Y33432572D01*
X2891819Y33432572D02*
X2891819Y33146858D01*
X2891819Y33146858D02*
X2844200Y33051620D01*
X2844200Y33051620D02*
X2796580Y33004001D01*
X2411285Y21817681D02*
X2411285Y21103396D01*
X2411285Y21103396D02*
X2363666Y20960539D01*
X2363666Y20960539D02*
X2268428Y20865300D01*
X2268428Y20865300D02*
X2125571Y20817681D01*
X2125571Y20817681D02*
X2030333Y20817681D01*
X3411285Y20817681D02*
X2839857Y20817681D01*
X3125571Y20817681D02*
X3125571Y21817681D01*
X3125571Y21817681D02*
X3030333Y21674824D01*
X3030333Y21674824D02*
X2935095Y21579586D01*
X2935095Y21579586D02*
X2839857Y21531967D01*
X4030333Y21817681D02*
X4125571Y21817681D01*
X4125571Y21817681D02*
X4220809Y21770062D01*
X4220809Y21770062D02*
X4268428Y21722443D01*
X4268428Y21722443D02*
X4316047Y21627205D01*
X4316047Y21627205D02*
X4363666Y21436729D01*
X4363666Y21436729D02*
X4363666Y21198634D01*
X4363666Y21198634D02*
X4316047Y21008158D01*
X4316047Y21008158D02*
X4268428Y20912920D01*
X4268428Y20912920D02*
X4220809Y20865300D01*
X4220809Y20865300D02*
X4125571Y20817681D01*
X4125571Y20817681D02*
X4030333Y20817681D01*
X4030333Y20817681D02*
X3935095Y20865300D01*
X3935095Y20865300D02*
X3887476Y20912920D01*
X3887476Y20912920D02*
X3839857Y21008158D01*
X3839857Y21008158D02*
X3792238Y21198634D01*
X3792238Y21198634D02*
X3792238Y21436729D01*
X3792238Y21436729D02*
X3839857Y21627205D01*
X3839857Y21627205D02*
X3887476Y21722443D01*
X3887476Y21722443D02*
X3935095Y21770062D01*
X3935095Y21770062D02*
X4030333Y21817681D01*
X5268428Y21817681D02*
X4792238Y21817681D01*
X4792238Y21817681D02*
X4744619Y21341491D01*
X4744619Y21341491D02*
X4792238Y21389110D01*
X4792238Y21389110D02*
X4887476Y21436729D01*
X4887476Y21436729D02*
X5125571Y21436729D01*
X5125571Y21436729D02*
X5220809Y21389110D01*
X5220809Y21389110D02*
X5268428Y21341491D01*
X5268428Y21341491D02*
X5316047Y21246253D01*
X5316047Y21246253D02*
X5316047Y21008158D01*
X5316047Y21008158D02*
X5268428Y20912920D01*
X5268428Y20912920D02*
X5220809Y20865300D01*
X5220809Y20865300D02*
X5125571Y20817681D01*
X5125571Y20817681D02*
X4887476Y20817681D01*
X4887476Y20817681D02*
X4792238Y20865300D01*
X4792238Y20865300D02*
X4744619Y20912920D01*
D11*
X21197238Y20357235D02*
X21185334Y20345330D01*
X21185334Y20345330D02*
X21149619Y20333426D01*
X21149619Y20333426D02*
X21125810Y20333426D01*
X21125810Y20333426D02*
X21090096Y20345330D01*
X21090096Y20345330D02*
X21066286Y20369140D01*
X21066286Y20369140D02*
X21054381Y20392950D01*
X21054381Y20392950D02*
X21042477Y20440569D01*
X21042477Y20440569D02*
X21042477Y20476283D01*
X21042477Y20476283D02*
X21054381Y20523902D01*
X21054381Y20523902D02*
X21066286Y20547711D01*
X21066286Y20547711D02*
X21090096Y20571521D01*
X21090096Y20571521D02*
X21125810Y20583426D01*
X21125810Y20583426D02*
X21149619Y20583426D01*
X21149619Y20583426D02*
X21185334Y20571521D01*
X21185334Y20571521D02*
X21197238Y20559616D01*
X21435334Y20333426D02*
X21292477Y20333426D01*
X21363905Y20333426D02*
X21363905Y20583426D01*
X21363905Y20583426D02*
X21340096Y20547711D01*
X21340096Y20547711D02*
X21316286Y20523902D01*
X21316286Y20523902D02*
X21292477Y20511997D01*
X21590095Y20583426D02*
X21613905Y20583426D01*
X21613905Y20583426D02*
X21637714Y20571521D01*
X21637714Y20571521D02*
X21649619Y20559616D01*
X21649619Y20559616D02*
X21661524Y20535807D01*
X21661524Y20535807D02*
X21673429Y20488188D01*
X21673429Y20488188D02*
X21673429Y20428664D01*
X21673429Y20428664D02*
X21661524Y20381045D01*
X21661524Y20381045D02*
X21649619Y20357235D01*
X21649619Y20357235D02*
X21637714Y20345330D01*
X21637714Y20345330D02*
X21613905Y20333426D01*
X21613905Y20333426D02*
X21590095Y20333426D01*
X21590095Y20333426D02*
X21566286Y20345330D01*
X21566286Y20345330D02*
X21554381Y20357235D01*
X21554381Y20357235D02*
X21542476Y20381045D01*
X21542476Y20381045D02*
X21530572Y20428664D01*
X21530572Y20428664D02*
X21530572Y20488188D01*
X21530572Y20488188D02*
X21542476Y20535807D01*
X21542476Y20535807D02*
X21554381Y20559616D01*
X21554381Y20559616D02*
X21566286Y20571521D01*
X21566286Y20571521D02*
X21590095Y20583426D01*
X21887714Y20500092D02*
X21887714Y20333426D01*
X21828190Y20595330D02*
X21768667Y20416759D01*
X21768667Y20416759D02*
X21923428Y20416759D01*
X34420765Y14607239D02*
X34432670Y14595335D01*
X34432670Y14595335D02*
X34444574Y14559620D01*
X34444574Y14559620D02*
X34444574Y14535811D01*
X34444574Y14535811D02*
X34432670Y14500097D01*
X34432670Y14500097D02*
X34408860Y14476287D01*
X34408860Y14476287D02*
X34385050Y14464382D01*
X34385050Y14464382D02*
X34337431Y14452478D01*
X34337431Y14452478D02*
X34301717Y14452478D01*
X34301717Y14452478D02*
X34254098Y14464382D01*
X34254098Y14464382D02*
X34230289Y14476287D01*
X34230289Y14476287D02*
X34206479Y14500097D01*
X34206479Y14500097D02*
X34194574Y14535811D01*
X34194574Y14535811D02*
X34194574Y14559620D01*
X34194574Y14559620D02*
X34206479Y14595335D01*
X34206479Y14595335D02*
X34218384Y14607239D01*
X34218384Y14702478D02*
X34206479Y14714382D01*
X34206479Y14714382D02*
X34194574Y14738192D01*
X34194574Y14738192D02*
X34194574Y14797716D01*
X34194574Y14797716D02*
X34206479Y14821525D01*
X34206479Y14821525D02*
X34218384Y14833430D01*
X34218384Y14833430D02*
X34242193Y14845335D01*
X34242193Y14845335D02*
X34266003Y14845335D01*
X34266003Y14845335D02*
X34301717Y14833430D01*
X34301717Y14833430D02*
X34444574Y14690573D01*
X34444574Y14690573D02*
X34444574Y14845335D01*
X34444574Y15083430D02*
X34444574Y14940573D01*
X34444574Y15012001D02*
X34194574Y15012001D01*
X34194574Y15012001D02*
X34230289Y14988192D01*
X34230289Y14988192D02*
X34254098Y14964382D01*
X34254098Y14964382D02*
X34266003Y14940573D01*
X34277908Y15297715D02*
X34444574Y15297715D01*
X34182670Y15238191D02*
X34361241Y15178668D01*
X34361241Y15178668D02*
X34361241Y15333429D01*
D12*
X15581524Y10086181D02*
X15581524Y11086181D01*
X16152952Y10086181D02*
X15724381Y10657610D01*
X16152952Y11086181D02*
X15581524Y10514753D01*
X17105333Y10086181D02*
X16533905Y10086181D01*
X16819619Y10086181D02*
X16819619Y11086181D01*
X16819619Y11086181D02*
X16724381Y10943324D01*
X16724381Y10943324D02*
X16629143Y10848086D01*
X16629143Y10848086D02*
X16533905Y10800467D01*
X17724381Y11086181D02*
X17819619Y11086181D01*
X17819619Y11086181D02*
X17914857Y11038562D01*
X17914857Y11038562D02*
X17962476Y10990943D01*
X17962476Y10990943D02*
X18010095Y10895705D01*
X18010095Y10895705D02*
X18057714Y10705229D01*
X18057714Y10705229D02*
X18057714Y10467134D01*
X18057714Y10467134D02*
X18010095Y10276658D01*
X18010095Y10276658D02*
X17962476Y10181420D01*
X17962476Y10181420D02*
X17914857Y10133800D01*
X17914857Y10133800D02*
X17819619Y10086181D01*
X17819619Y10086181D02*
X17724381Y10086181D01*
X17724381Y10086181D02*
X17629143Y10133800D01*
X17629143Y10133800D02*
X17581524Y10181420D01*
X17581524Y10181420D02*
X17533905Y10276658D01*
X17533905Y10276658D02*
X17486286Y10467134D01*
X17486286Y10467134D02*
X17486286Y10705229D01*
X17486286Y10705229D02*
X17533905Y10895705D01*
X17533905Y10895705D02*
X17581524Y10990943D01*
X17581524Y10990943D02*
X17629143Y11038562D01*
X17629143Y11038562D02*
X17724381Y11086181D01*
X18438667Y10990943D02*
X18486286Y11038562D01*
X18486286Y11038562D02*
X18581524Y11086181D01*
X18581524Y11086181D02*
X18819619Y11086181D01*
X18819619Y11086181D02*
X18914857Y11038562D01*
X18914857Y11038562D02*
X18962476Y10990943D01*
X18962476Y10990943D02*
X19010095Y10895705D01*
X19010095Y10895705D02*
X19010095Y10800467D01*
X19010095Y10800467D02*
X18962476Y10657610D01*
X18962476Y10657610D02*
X18391048Y10086181D01*
X18391048Y10086181D02*
X19010095Y10086181D01*
D10*
X36757927Y32750311D02*
X36357927Y32750311D01*
X36357927Y32750311D02*
X36357927Y32845549D01*
X36357927Y32845549D02*
X36376975Y32902692D01*
X36376975Y32902692D02*
X36415070Y32940787D01*
X36415070Y32940787D02*
X36453165Y32959834D01*
X36453165Y32959834D02*
X36529356Y32978882D01*
X36529356Y32978882D02*
X36586499Y32978882D01*
X36586499Y32978882D02*
X36662689Y32959834D01*
X36662689Y32959834D02*
X36700784Y32940787D01*
X36700784Y32940787D02*
X36738880Y32902692D01*
X36738880Y32902692D02*
X36757927Y32845549D01*
X36757927Y32845549D02*
X36757927Y32750311D01*
X36757927Y33359834D02*
X36757927Y33131263D01*
X36757927Y33245549D02*
X36357927Y33245549D01*
X36357927Y33245549D02*
X36415070Y33207453D01*
X36415070Y33207453D02*
X36453165Y33169358D01*
X36453165Y33169358D02*
X36472213Y33131263D01*
X36357927Y33607453D02*
X36357927Y33645548D01*
X36357927Y33645548D02*
X36376975Y33683644D01*
X36376975Y33683644D02*
X36396022Y33702691D01*
X36396022Y33702691D02*
X36434118Y33721739D01*
X36434118Y33721739D02*
X36510308Y33740786D01*
X36510308Y33740786D02*
X36605546Y33740786D01*
X36605546Y33740786D02*
X36681737Y33721739D01*
X36681737Y33721739D02*
X36719832Y33702691D01*
X36719832Y33702691D02*
X36738880Y33683644D01*
X36738880Y33683644D02*
X36757927Y33645548D01*
X36757927Y33645548D02*
X36757927Y33607453D01*
X36757927Y33607453D02*
X36738880Y33569358D01*
X36738880Y33569358D02*
X36719832Y33550310D01*
X36719832Y33550310D02*
X36681737Y33531263D01*
X36681737Y33531263D02*
X36605546Y33512215D01*
X36605546Y33512215D02*
X36510308Y33512215D01*
X36510308Y33512215D02*
X36434118Y33531263D01*
X36434118Y33531263D02*
X36396022Y33550310D01*
X36396022Y33550310D02*
X36376975Y33569358D01*
X36376975Y33569358D02*
X36357927Y33607453D01*
X36491260Y34083643D02*
X36757927Y34083643D01*
X36338880Y33988405D02*
X36624594Y33893167D01*
X36624594Y33893167D02*
X36624594Y34140786D01*
D11*
X10400574Y18754382D02*
X10150574Y18754382D01*
X10150574Y18754382D02*
X10150574Y18813906D01*
X10150574Y18813906D02*
X10162479Y18849620D01*
X10162479Y18849620D02*
X10186289Y18873430D01*
X10186289Y18873430D02*
X10210098Y18885335D01*
X10210098Y18885335D02*
X10257717Y18897239D01*
X10257717Y18897239D02*
X10293431Y18897239D01*
X10293431Y18897239D02*
X10341050Y18885335D01*
X10341050Y18885335D02*
X10364860Y18873430D01*
X10364860Y18873430D02*
X10388670Y18849620D01*
X10388670Y18849620D02*
X10400574Y18813906D01*
X10400574Y18813906D02*
X10400574Y18754382D01*
X10400574Y19135335D02*
X10400574Y18992478D01*
X10400574Y19063906D02*
X10150574Y19063906D01*
X10150574Y19063906D02*
X10186289Y19040097D01*
X10186289Y19040097D02*
X10210098Y19016287D01*
X10210098Y19016287D02*
X10222003Y18992478D01*
X10150574Y19290096D02*
X10150574Y19313906D01*
X10150574Y19313906D02*
X10162479Y19337715D01*
X10162479Y19337715D02*
X10174384Y19349620D01*
X10174384Y19349620D02*
X10198193Y19361525D01*
X10198193Y19361525D02*
X10245812Y19373430D01*
X10245812Y19373430D02*
X10305336Y19373430D01*
X10305336Y19373430D02*
X10352955Y19361525D01*
X10352955Y19361525D02*
X10376765Y19349620D01*
X10376765Y19349620D02*
X10388670Y19337715D01*
X10388670Y19337715D02*
X10400574Y19313906D01*
X10400574Y19313906D02*
X10400574Y19290096D01*
X10400574Y19290096D02*
X10388670Y19266287D01*
X10388670Y19266287D02*
X10376765Y19254382D01*
X10376765Y19254382D02*
X10352955Y19242477D01*
X10352955Y19242477D02*
X10305336Y19230573D01*
X10305336Y19230573D02*
X10245812Y19230573D01*
X10245812Y19230573D02*
X10198193Y19242477D01*
X10198193Y19242477D02*
X10174384Y19254382D01*
X10174384Y19254382D02*
X10162479Y19266287D01*
X10162479Y19266287D02*
X10150574Y19290096D01*
X10174384Y19468668D02*
X10162479Y19480572D01*
X10162479Y19480572D02*
X10150574Y19504382D01*
X10150574Y19504382D02*
X10150574Y19563906D01*
X10150574Y19563906D02*
X10162479Y19587715D01*
X10162479Y19587715D02*
X10174384Y19599620D01*
X10174384Y19599620D02*
X10198193Y19611525D01*
X10198193Y19611525D02*
X10222003Y19611525D01*
X10222003Y19611525D02*
X10257717Y19599620D01*
X10257717Y19599620D02*
X10400574Y19456763D01*
X10400574Y19456763D02*
X10400574Y19611525D01*
X33871765Y9337239D02*
X33883670Y9325335D01*
X33883670Y9325335D02*
X33895574Y9289620D01*
X33895574Y9289620D02*
X33895574Y9265811D01*
X33895574Y9265811D02*
X33883670Y9230097D01*
X33883670Y9230097D02*
X33859860Y9206287D01*
X33859860Y9206287D02*
X33836050Y9194382D01*
X33836050Y9194382D02*
X33788431Y9182478D01*
X33788431Y9182478D02*
X33752717Y9182478D01*
X33752717Y9182478D02*
X33705098Y9194382D01*
X33705098Y9194382D02*
X33681289Y9206287D01*
X33681289Y9206287D02*
X33657479Y9230097D01*
X33657479Y9230097D02*
X33645574Y9265811D01*
X33645574Y9265811D02*
X33645574Y9289620D01*
X33645574Y9289620D02*
X33657479Y9325335D01*
X33657479Y9325335D02*
X33669384Y9337239D01*
X33895574Y9575335D02*
X33895574Y9432478D01*
X33895574Y9503906D02*
X33645574Y9503906D01*
X33645574Y9503906D02*
X33681289Y9480097D01*
X33681289Y9480097D02*
X33705098Y9456287D01*
X33705098Y9456287D02*
X33717003Y9432478D01*
X33645574Y9730096D02*
X33645574Y9753906D01*
X33645574Y9753906D02*
X33657479Y9777715D01*
X33657479Y9777715D02*
X33669384Y9789620D01*
X33669384Y9789620D02*
X33693193Y9801525D01*
X33693193Y9801525D02*
X33740812Y9813430D01*
X33740812Y9813430D02*
X33800336Y9813430D01*
X33800336Y9813430D02*
X33847955Y9801525D01*
X33847955Y9801525D02*
X33871765Y9789620D01*
X33871765Y9789620D02*
X33883670Y9777715D01*
X33883670Y9777715D02*
X33895574Y9753906D01*
X33895574Y9753906D02*
X33895574Y9730096D01*
X33895574Y9730096D02*
X33883670Y9706287D01*
X33883670Y9706287D02*
X33871765Y9694382D01*
X33871765Y9694382D02*
X33847955Y9682477D01*
X33847955Y9682477D02*
X33800336Y9670573D01*
X33800336Y9670573D02*
X33740812Y9670573D01*
X33740812Y9670573D02*
X33693193Y9682477D01*
X33693193Y9682477D02*
X33669384Y9694382D01*
X33669384Y9694382D02*
X33657479Y9706287D01*
X33657479Y9706287D02*
X33645574Y9730096D01*
X33645574Y10039620D02*
X33645574Y9920572D01*
X33645574Y9920572D02*
X33764622Y9908668D01*
X33764622Y9908668D02*
X33752717Y9920572D01*
X33752717Y9920572D02*
X33740812Y9944382D01*
X33740812Y9944382D02*
X33740812Y10003906D01*
X33740812Y10003906D02*
X33752717Y10027715D01*
X33752717Y10027715D02*
X33764622Y10039620D01*
X33764622Y10039620D02*
X33788431Y10051525D01*
X33788431Y10051525D02*
X33847955Y10051525D01*
X33847955Y10051525D02*
X33871765Y10039620D01*
X33871765Y10039620D02*
X33883670Y10027715D01*
X33883670Y10027715D02*
X33895574Y10003906D01*
X33895574Y10003906D02*
X33895574Y9944382D01*
X33895574Y9944382D02*
X33883670Y9920572D01*
X33883670Y9920572D02*
X33871765Y9908668D01*
X26390238Y17690235D02*
X26378334Y17678330D01*
X26378334Y17678330D02*
X26342619Y17666426D01*
X26342619Y17666426D02*
X26318810Y17666426D01*
X26318810Y17666426D02*
X26283096Y17678330D01*
X26283096Y17678330D02*
X26259286Y17702140D01*
X26259286Y17702140D02*
X26247381Y17725950D01*
X26247381Y17725950D02*
X26235477Y17773569D01*
X26235477Y17773569D02*
X26235477Y17809283D01*
X26235477Y17809283D02*
X26247381Y17856902D01*
X26247381Y17856902D02*
X26259286Y17880711D01*
X26259286Y17880711D02*
X26283096Y17904521D01*
X26283096Y17904521D02*
X26318810Y17916426D01*
X26318810Y17916426D02*
X26342619Y17916426D01*
X26342619Y17916426D02*
X26378334Y17904521D01*
X26378334Y17904521D02*
X26390238Y17892616D01*
X26485477Y17892616D02*
X26497381Y17904521D01*
X26497381Y17904521D02*
X26521191Y17916426D01*
X26521191Y17916426D02*
X26580715Y17916426D01*
X26580715Y17916426D02*
X26604524Y17904521D01*
X26604524Y17904521D02*
X26616429Y17892616D01*
X26616429Y17892616D02*
X26628334Y17868807D01*
X26628334Y17868807D02*
X26628334Y17844997D01*
X26628334Y17844997D02*
X26616429Y17809283D01*
X26616429Y17809283D02*
X26473572Y17666426D01*
X26473572Y17666426D02*
X26628334Y17666426D01*
X26783095Y17916426D02*
X26806905Y17916426D01*
X26806905Y17916426D02*
X26830714Y17904521D01*
X26830714Y17904521D02*
X26842619Y17892616D01*
X26842619Y17892616D02*
X26854524Y17868807D01*
X26854524Y17868807D02*
X26866429Y17821188D01*
X26866429Y17821188D02*
X26866429Y17761664D01*
X26866429Y17761664D02*
X26854524Y17714045D01*
X26854524Y17714045D02*
X26842619Y17690235D01*
X26842619Y17690235D02*
X26830714Y17678330D01*
X26830714Y17678330D02*
X26806905Y17666426D01*
X26806905Y17666426D02*
X26783095Y17666426D01*
X26783095Y17666426D02*
X26759286Y17678330D01*
X26759286Y17678330D02*
X26747381Y17690235D01*
X26747381Y17690235D02*
X26735476Y17714045D01*
X26735476Y17714045D02*
X26723572Y17761664D01*
X26723572Y17761664D02*
X26723572Y17821188D01*
X26723572Y17821188D02*
X26735476Y17868807D01*
X26735476Y17868807D02*
X26747381Y17892616D01*
X26747381Y17892616D02*
X26759286Y17904521D01*
X26759286Y17904521D02*
X26783095Y17916426D01*
X27080714Y17916426D02*
X27033095Y17916426D01*
X27033095Y17916426D02*
X27009286Y17904521D01*
X27009286Y17904521D02*
X26997381Y17892616D01*
X26997381Y17892616D02*
X26973571Y17856902D01*
X26973571Y17856902D02*
X26961667Y17809283D01*
X26961667Y17809283D02*
X26961667Y17714045D01*
X26961667Y17714045D02*
X26973571Y17690235D01*
X26973571Y17690235D02*
X26985476Y17678330D01*
X26985476Y17678330D02*
X27009286Y17666426D01*
X27009286Y17666426D02*
X27056905Y17666426D01*
X27056905Y17666426D02*
X27080714Y17678330D01*
X27080714Y17678330D02*
X27092619Y17690235D01*
X27092619Y17690235D02*
X27104524Y17714045D01*
X27104524Y17714045D02*
X27104524Y17773569D01*
X27104524Y17773569D02*
X27092619Y17797378D01*
X27092619Y17797378D02*
X27080714Y17809283D01*
X27080714Y17809283D02*
X27056905Y17821188D01*
X27056905Y17821188D02*
X27009286Y17821188D01*
X27009286Y17821188D02*
X26985476Y17809283D01*
X26985476Y17809283D02*
X26973571Y17797378D01*
X26973571Y17797378D02*
X26961667Y17773569D01*
X32601765Y17246239D02*
X32613670Y17234335D01*
X32613670Y17234335D02*
X32625574Y17198620D01*
X32625574Y17198620D02*
X32625574Y17174811D01*
X32625574Y17174811D02*
X32613670Y17139097D01*
X32613670Y17139097D02*
X32589860Y17115287D01*
X32589860Y17115287D02*
X32566050Y17103382D01*
X32566050Y17103382D02*
X32518431Y17091478D01*
X32518431Y17091478D02*
X32482717Y17091478D01*
X32482717Y17091478D02*
X32435098Y17103382D01*
X32435098Y17103382D02*
X32411289Y17115287D01*
X32411289Y17115287D02*
X32387479Y17139097D01*
X32387479Y17139097D02*
X32375574Y17174811D01*
X32375574Y17174811D02*
X32375574Y17198620D01*
X32375574Y17198620D02*
X32387479Y17234335D01*
X32387479Y17234335D02*
X32399384Y17246239D01*
X32399384Y17341478D02*
X32387479Y17353382D01*
X32387479Y17353382D02*
X32375574Y17377192D01*
X32375574Y17377192D02*
X32375574Y17436716D01*
X32375574Y17436716D02*
X32387479Y17460525D01*
X32387479Y17460525D02*
X32399384Y17472430D01*
X32399384Y17472430D02*
X32423193Y17484335D01*
X32423193Y17484335D02*
X32447003Y17484335D01*
X32447003Y17484335D02*
X32482717Y17472430D01*
X32482717Y17472430D02*
X32625574Y17329573D01*
X32625574Y17329573D02*
X32625574Y17484335D01*
X32625574Y17722430D02*
X32625574Y17579573D01*
X32625574Y17651001D02*
X32375574Y17651001D01*
X32375574Y17651001D02*
X32411289Y17627192D01*
X32411289Y17627192D02*
X32435098Y17603382D01*
X32435098Y17603382D02*
X32447003Y17579573D01*
X32375574Y17877191D02*
X32375574Y17901001D01*
X32375574Y17901001D02*
X32387479Y17924810D01*
X32387479Y17924810D02*
X32399384Y17936715D01*
X32399384Y17936715D02*
X32423193Y17948620D01*
X32423193Y17948620D02*
X32470812Y17960525D01*
X32470812Y17960525D02*
X32530336Y17960525D01*
X32530336Y17960525D02*
X32577955Y17948620D01*
X32577955Y17948620D02*
X32601765Y17936715D01*
X32601765Y17936715D02*
X32613670Y17924810D01*
X32613670Y17924810D02*
X32625574Y17901001D01*
X32625574Y17901001D02*
X32625574Y17877191D01*
X32625574Y17877191D02*
X32613670Y17853382D01*
X32613670Y17853382D02*
X32601765Y17841477D01*
X32601765Y17841477D02*
X32577955Y17829572D01*
X32577955Y17829572D02*
X32530336Y17817668D01*
X32530336Y17817668D02*
X32470812Y17817668D01*
X32470812Y17817668D02*
X32423193Y17829572D01*
X32423193Y17829572D02*
X32399384Y17841477D01*
X32399384Y17841477D02*
X32387479Y17853382D01*
X32387479Y17853382D02*
X32375574Y17877191D01*
D14*
X29812261Y9919086D02*
X29781785Y9934324D01*
X29781785Y9934324D02*
X29751309Y9964800D01*
X29751309Y9964800D02*
X29705595Y10010515D01*
X29705595Y10010515D02*
X29675118Y10025753D01*
X29675118Y10025753D02*
X29644642Y10025753D01*
X29659880Y9949562D02*
X29629404Y9964800D01*
X29629404Y9964800D02*
X29598928Y9995277D01*
X29598928Y9995277D02*
X29583690Y10056229D01*
X29583690Y10056229D02*
X29583690Y10162896D01*
X29583690Y10162896D02*
X29598928Y10223848D01*
X29598928Y10223848D02*
X29629404Y10254324D01*
X29629404Y10254324D02*
X29659880Y10269562D01*
X29659880Y10269562D02*
X29720833Y10269562D01*
X29720833Y10269562D02*
X29751309Y10254324D01*
X29751309Y10254324D02*
X29781785Y10223848D01*
X29781785Y10223848D02*
X29797023Y10162896D01*
X29797023Y10162896D02*
X29797023Y10056229D01*
X29797023Y10056229D02*
X29781785Y9995277D01*
X29781785Y9995277D02*
X29751309Y9964800D01*
X29751309Y9964800D02*
X29720833Y9949562D01*
X29720833Y9949562D02*
X29659880Y9949562D01*
X30101785Y9949562D02*
X29918928Y9949562D01*
X30010356Y9949562D02*
X30010356Y10269562D01*
X30010356Y10269562D02*
X29979880Y10223848D01*
X29979880Y10223848D02*
X29949404Y10193372D01*
X29949404Y10193372D02*
X29918928Y10178134D01*
X30299880Y10269562D02*
X30330357Y10269562D01*
X30330357Y10269562D02*
X30360833Y10254324D01*
X30360833Y10254324D02*
X30376071Y10239086D01*
X30376071Y10239086D02*
X30391309Y10208610D01*
X30391309Y10208610D02*
X30406547Y10147658D01*
X30406547Y10147658D02*
X30406547Y10071467D01*
X30406547Y10071467D02*
X30391309Y10010515D01*
X30391309Y10010515D02*
X30376071Y9980039D01*
X30376071Y9980039D02*
X30360833Y9964800D01*
X30360833Y9964800D02*
X30330357Y9949562D01*
X30330357Y9949562D02*
X30299880Y9949562D01*
X30299880Y9949562D02*
X30269404Y9964800D01*
X30269404Y9964800D02*
X30254166Y9980039D01*
X30254166Y9980039D02*
X30238928Y10010515D01*
X30238928Y10010515D02*
X30223690Y10071467D01*
X30223690Y10071467D02*
X30223690Y10147658D01*
X30223690Y10147658D02*
X30238928Y10208610D01*
X30238928Y10208610D02*
X30254166Y10239086D01*
X30254166Y10239086D02*
X30269404Y10254324D01*
X30269404Y10254324D02*
X30299880Y10269562D01*
X30711309Y9949562D02*
X30528452Y9949562D01*
X30619880Y9949562D02*
X30619880Y10269562D01*
X30619880Y10269562D02*
X30589404Y10223848D01*
X30589404Y10223848D02*
X30558928Y10193372D01*
X30558928Y10193372D02*
X30528452Y10178134D01*
D11*
X35649765Y22580239D02*
X35661670Y22568335D01*
X35661670Y22568335D02*
X35673574Y22532620D01*
X35673574Y22532620D02*
X35673574Y22508811D01*
X35673574Y22508811D02*
X35661670Y22473097D01*
X35661670Y22473097D02*
X35637860Y22449287D01*
X35637860Y22449287D02*
X35614050Y22437382D01*
X35614050Y22437382D02*
X35566431Y22425478D01*
X35566431Y22425478D02*
X35530717Y22425478D01*
X35530717Y22425478D02*
X35483098Y22437382D01*
X35483098Y22437382D02*
X35459289Y22449287D01*
X35459289Y22449287D02*
X35435479Y22473097D01*
X35435479Y22473097D02*
X35423574Y22508811D01*
X35423574Y22508811D02*
X35423574Y22532620D01*
X35423574Y22532620D02*
X35435479Y22568335D01*
X35435479Y22568335D02*
X35447384Y22580239D01*
X35447384Y22675478D02*
X35435479Y22687382D01*
X35435479Y22687382D02*
X35423574Y22711192D01*
X35423574Y22711192D02*
X35423574Y22770716D01*
X35423574Y22770716D02*
X35435479Y22794525D01*
X35435479Y22794525D02*
X35447384Y22806430D01*
X35447384Y22806430D02*
X35471193Y22818335D01*
X35471193Y22818335D02*
X35495003Y22818335D01*
X35495003Y22818335D02*
X35530717Y22806430D01*
X35530717Y22806430D02*
X35673574Y22663573D01*
X35673574Y22663573D02*
X35673574Y22818335D01*
X35423574Y22973096D02*
X35423574Y22996906D01*
X35423574Y22996906D02*
X35435479Y23020715D01*
X35435479Y23020715D02*
X35447384Y23032620D01*
X35447384Y23032620D02*
X35471193Y23044525D01*
X35471193Y23044525D02*
X35518812Y23056430D01*
X35518812Y23056430D02*
X35578336Y23056430D01*
X35578336Y23056430D02*
X35625955Y23044525D01*
X35625955Y23044525D02*
X35649765Y23032620D01*
X35649765Y23032620D02*
X35661670Y23020715D01*
X35661670Y23020715D02*
X35673574Y22996906D01*
X35673574Y22996906D02*
X35673574Y22973096D01*
X35673574Y22973096D02*
X35661670Y22949287D01*
X35661670Y22949287D02*
X35649765Y22937382D01*
X35649765Y22937382D02*
X35625955Y22925477D01*
X35625955Y22925477D02*
X35578336Y22913573D01*
X35578336Y22913573D02*
X35518812Y22913573D01*
X35518812Y22913573D02*
X35471193Y22925477D01*
X35471193Y22925477D02*
X35447384Y22937382D01*
X35447384Y22937382D02*
X35435479Y22949287D01*
X35435479Y22949287D02*
X35423574Y22973096D01*
X35673574Y23294525D02*
X35673574Y23151668D01*
X35673574Y23223096D02*
X35423574Y23223096D01*
X35423574Y23223096D02*
X35459289Y23199287D01*
X35459289Y23199287D02*
X35483098Y23175477D01*
X35483098Y23175477D02*
X35495003Y23151668D01*
X33773200Y32602049D02*
X33649391Y32515382D01*
X33773200Y32453477D02*
X33513200Y32453477D01*
X33513200Y32453477D02*
X33513200Y32552525D01*
X33513200Y32552525D02*
X33525581Y32577287D01*
X33525581Y32577287D02*
X33537962Y32589668D01*
X33537962Y32589668D02*
X33562724Y32602049D01*
X33562724Y32602049D02*
X33599867Y32602049D01*
X33599867Y32602049D02*
X33624629Y32589668D01*
X33624629Y32589668D02*
X33637010Y32577287D01*
X33637010Y32577287D02*
X33649391Y32552525D01*
X33649391Y32552525D02*
X33649391Y32453477D01*
X33773200Y32849668D02*
X33773200Y32701096D01*
X33773200Y32775382D02*
X33513200Y32775382D01*
X33513200Y32775382D02*
X33550343Y32750620D01*
X33550343Y32750620D02*
X33575105Y32725858D01*
X33575105Y32725858D02*
X33587486Y32701096D01*
X33773200Y33097287D02*
X33773200Y32948715D01*
X33773200Y33023001D02*
X33513200Y33023001D01*
X33513200Y33023001D02*
X33550343Y32998239D01*
X33550343Y32998239D02*
X33575105Y32973477D01*
X33575105Y32973477D02*
X33587486Y32948715D01*
X33599867Y33320144D02*
X33773200Y33320144D01*
X33500820Y33258239D02*
X33686534Y33196334D01*
X33686534Y33196334D02*
X33686534Y33357287D01*
X11421200Y23331049D02*
X11297391Y23244382D01*
X11421200Y23182477D02*
X11161200Y23182477D01*
X11161200Y23182477D02*
X11161200Y23281525D01*
X11161200Y23281525D02*
X11173581Y23306287D01*
X11173581Y23306287D02*
X11185962Y23318668D01*
X11185962Y23318668D02*
X11210724Y23331049D01*
X11210724Y23331049D02*
X11247867Y23331049D01*
X11247867Y23331049D02*
X11272629Y23318668D01*
X11272629Y23318668D02*
X11285010Y23306287D01*
X11285010Y23306287D02*
X11297391Y23281525D01*
X11297391Y23281525D02*
X11297391Y23182477D01*
X11421200Y23578668D02*
X11421200Y23430096D01*
X11421200Y23504382D02*
X11161200Y23504382D01*
X11161200Y23504382D02*
X11198343Y23479620D01*
X11198343Y23479620D02*
X11223105Y23454858D01*
X11223105Y23454858D02*
X11235486Y23430096D01*
X11421200Y23826287D02*
X11421200Y23677715D01*
X11421200Y23752001D02*
X11161200Y23752001D01*
X11161200Y23752001D02*
X11198343Y23727239D01*
X11198343Y23727239D02*
X11223105Y23702477D01*
X11223105Y23702477D02*
X11235486Y23677715D01*
X11161200Y23987239D02*
X11161200Y24012001D01*
X11161200Y24012001D02*
X11173581Y24036763D01*
X11173581Y24036763D02*
X11185962Y24049144D01*
X11185962Y24049144D02*
X11210724Y24061525D01*
X11210724Y24061525D02*
X11260248Y24073906D01*
X11260248Y24073906D02*
X11322153Y24073906D01*
X11322153Y24073906D02*
X11371677Y24061525D01*
X11371677Y24061525D02*
X11396439Y24049144D01*
X11396439Y24049144D02*
X11408820Y24036763D01*
X11408820Y24036763D02*
X11421200Y24012001D01*
X11421200Y24012001D02*
X11421200Y23987239D01*
X11421200Y23987239D02*
X11408820Y23962477D01*
X11408820Y23962477D02*
X11396439Y23950096D01*
X11396439Y23950096D02*
X11371677Y23937715D01*
X11371677Y23937715D02*
X11322153Y23925334D01*
X11322153Y23925334D02*
X11260248Y23925334D01*
X11260248Y23925334D02*
X11210724Y23937715D01*
X11210724Y23937715D02*
X11185962Y23950096D01*
X11185962Y23950096D02*
X11173581Y23962477D01*
X11173581Y23962477D02*
X11161200Y23987239D01*
X35788238Y24167235D02*
X35776334Y24155330D01*
X35776334Y24155330D02*
X35740619Y24143426D01*
X35740619Y24143426D02*
X35716810Y24143426D01*
X35716810Y24143426D02*
X35681096Y24155330D01*
X35681096Y24155330D02*
X35657286Y24179140D01*
X35657286Y24179140D02*
X35645381Y24202950D01*
X35645381Y24202950D02*
X35633477Y24250569D01*
X35633477Y24250569D02*
X35633477Y24286283D01*
X35633477Y24286283D02*
X35645381Y24333902D01*
X35645381Y24333902D02*
X35657286Y24357711D01*
X35657286Y24357711D02*
X35681096Y24381521D01*
X35681096Y24381521D02*
X35716810Y24393426D01*
X35716810Y24393426D02*
X35740619Y24393426D01*
X35740619Y24393426D02*
X35776334Y24381521D01*
X35776334Y24381521D02*
X35788238Y24369616D01*
X35883477Y24369616D02*
X35895381Y24381521D01*
X35895381Y24381521D02*
X35919191Y24393426D01*
X35919191Y24393426D02*
X35978715Y24393426D01*
X35978715Y24393426D02*
X36002524Y24381521D01*
X36002524Y24381521D02*
X36014429Y24369616D01*
X36014429Y24369616D02*
X36026334Y24345807D01*
X36026334Y24345807D02*
X36026334Y24321997D01*
X36026334Y24321997D02*
X36014429Y24286283D01*
X36014429Y24286283D02*
X35871572Y24143426D01*
X35871572Y24143426D02*
X36026334Y24143426D01*
X36181095Y24393426D02*
X36204905Y24393426D01*
X36204905Y24393426D02*
X36228714Y24381521D01*
X36228714Y24381521D02*
X36240619Y24369616D01*
X36240619Y24369616D02*
X36252524Y24345807D01*
X36252524Y24345807D02*
X36264429Y24298188D01*
X36264429Y24298188D02*
X36264429Y24238664D01*
X36264429Y24238664D02*
X36252524Y24191045D01*
X36252524Y24191045D02*
X36240619Y24167235D01*
X36240619Y24167235D02*
X36228714Y24155330D01*
X36228714Y24155330D02*
X36204905Y24143426D01*
X36204905Y24143426D02*
X36181095Y24143426D01*
X36181095Y24143426D02*
X36157286Y24155330D01*
X36157286Y24155330D02*
X36145381Y24167235D01*
X36145381Y24167235D02*
X36133476Y24191045D01*
X36133476Y24191045D02*
X36121572Y24238664D01*
X36121572Y24238664D02*
X36121572Y24298188D01*
X36121572Y24298188D02*
X36133476Y24345807D01*
X36133476Y24345807D02*
X36145381Y24369616D01*
X36145381Y24369616D02*
X36157286Y24381521D01*
X36157286Y24381521D02*
X36181095Y24393426D01*
X36359667Y24369616D02*
X36371571Y24381521D01*
X36371571Y24381521D02*
X36395381Y24393426D01*
X36395381Y24393426D02*
X36454905Y24393426D01*
X36454905Y24393426D02*
X36478714Y24381521D01*
X36478714Y24381521D02*
X36490619Y24369616D01*
X36490619Y24369616D02*
X36502524Y24345807D01*
X36502524Y24345807D02*
X36502524Y24321997D01*
X36502524Y24321997D02*
X36490619Y24286283D01*
X36490619Y24286283D02*
X36347762Y24143426D01*
X36347762Y24143426D02*
X36502524Y24143426D01*
D10*
X35366381Y28050168D02*
X35347333Y28031120D01*
X35347333Y28031120D02*
X35290191Y28012073D01*
X35290191Y28012073D02*
X35252095Y28012073D01*
X35252095Y28012073D02*
X35194952Y28031120D01*
X35194952Y28031120D02*
X35156857Y28069216D01*
X35156857Y28069216D02*
X35137810Y28107311D01*
X35137810Y28107311D02*
X35118762Y28183501D01*
X35118762Y28183501D02*
X35118762Y28240644D01*
X35118762Y28240644D02*
X35137810Y28316835D01*
X35137810Y28316835D02*
X35156857Y28354930D01*
X35156857Y28354930D02*
X35194952Y28393025D01*
X35194952Y28393025D02*
X35252095Y28412073D01*
X35252095Y28412073D02*
X35290191Y28412073D01*
X35290191Y28412073D02*
X35347333Y28393025D01*
X35347333Y28393025D02*
X35366381Y28373978D01*
X35518762Y28373978D02*
X35537810Y28393025D01*
X35537810Y28393025D02*
X35575905Y28412073D01*
X35575905Y28412073D02*
X35671143Y28412073D01*
X35671143Y28412073D02*
X35709238Y28393025D01*
X35709238Y28393025D02*
X35728286Y28373978D01*
X35728286Y28373978D02*
X35747333Y28335882D01*
X35747333Y28335882D02*
X35747333Y28297787D01*
X35747333Y28297787D02*
X35728286Y28240644D01*
X35728286Y28240644D02*
X35499714Y28012073D01*
X35499714Y28012073D02*
X35747333Y28012073D01*
X35994952Y28412073D02*
X36033047Y28412073D01*
X36033047Y28412073D02*
X36071143Y28393025D01*
X36071143Y28393025D02*
X36090190Y28373978D01*
X36090190Y28373978D02*
X36109238Y28335882D01*
X36109238Y28335882D02*
X36128285Y28259692D01*
X36128285Y28259692D02*
X36128285Y28164454D01*
X36128285Y28164454D02*
X36109238Y28088263D01*
X36109238Y28088263D02*
X36090190Y28050168D01*
X36090190Y28050168D02*
X36071143Y28031120D01*
X36071143Y28031120D02*
X36033047Y28012073D01*
X36033047Y28012073D02*
X35994952Y28012073D01*
X35994952Y28012073D02*
X35956857Y28031120D01*
X35956857Y28031120D02*
X35937809Y28050168D01*
X35937809Y28050168D02*
X35918762Y28088263D01*
X35918762Y28088263D02*
X35899714Y28164454D01*
X35899714Y28164454D02*
X35899714Y28259692D01*
X35899714Y28259692D02*
X35918762Y28335882D01*
X35918762Y28335882D02*
X35937809Y28373978D01*
X35937809Y28373978D02*
X35956857Y28393025D01*
X35956857Y28393025D02*
X35994952Y28412073D01*
X36490190Y28412073D02*
X36299714Y28412073D01*
X36299714Y28412073D02*
X36280666Y28221597D01*
X36280666Y28221597D02*
X36299714Y28240644D01*
X36299714Y28240644D02*
X36337809Y28259692D01*
X36337809Y28259692D02*
X36433047Y28259692D01*
X36433047Y28259692D02*
X36471142Y28240644D01*
X36471142Y28240644D02*
X36490190Y28221597D01*
X36490190Y28221597D02*
X36509237Y28183501D01*
X36509237Y28183501D02*
X36509237Y28088263D01*
X36509237Y28088263D02*
X36490190Y28050168D01*
X36490190Y28050168D02*
X36471142Y28031120D01*
X36471142Y28031120D02*
X36433047Y28012073D01*
X36433047Y28012073D02*
X36337809Y28012073D01*
X36337809Y28012073D02*
X36299714Y28031120D01*
X36299714Y28031120D02*
X36280666Y28050168D01*
D11*
X27677200Y9296049D02*
X27553391Y9209382D01*
X27677200Y9147477D02*
X27417200Y9147477D01*
X27417200Y9147477D02*
X27417200Y9246525D01*
X27417200Y9246525D02*
X27429581Y9271287D01*
X27429581Y9271287D02*
X27441962Y9283668D01*
X27441962Y9283668D02*
X27466724Y9296049D01*
X27466724Y9296049D02*
X27503867Y9296049D01*
X27503867Y9296049D02*
X27528629Y9283668D01*
X27528629Y9283668D02*
X27541010Y9271287D01*
X27541010Y9271287D02*
X27553391Y9246525D01*
X27553391Y9246525D02*
X27553391Y9147477D01*
X27677200Y9543668D02*
X27677200Y9395096D01*
X27677200Y9469382D02*
X27417200Y9469382D01*
X27417200Y9469382D02*
X27454343Y9444620D01*
X27454343Y9444620D02*
X27479105Y9419858D01*
X27479105Y9419858D02*
X27491486Y9395096D01*
X27417200Y9704620D02*
X27417200Y9729382D01*
X27417200Y9729382D02*
X27429581Y9754144D01*
X27429581Y9754144D02*
X27441962Y9766525D01*
X27441962Y9766525D02*
X27466724Y9778906D01*
X27466724Y9778906D02*
X27516248Y9791287D01*
X27516248Y9791287D02*
X27578153Y9791287D01*
X27578153Y9791287D02*
X27627677Y9778906D01*
X27627677Y9778906D02*
X27652439Y9766525D01*
X27652439Y9766525D02*
X27664820Y9754144D01*
X27664820Y9754144D02*
X27677200Y9729382D01*
X27677200Y9729382D02*
X27677200Y9704620D01*
X27677200Y9704620D02*
X27664820Y9679858D01*
X27664820Y9679858D02*
X27652439Y9667477D01*
X27652439Y9667477D02*
X27627677Y9655096D01*
X27627677Y9655096D02*
X27578153Y9642715D01*
X27578153Y9642715D02*
X27516248Y9642715D01*
X27516248Y9642715D02*
X27466724Y9655096D01*
X27466724Y9655096D02*
X27441962Y9667477D01*
X27441962Y9667477D02*
X27429581Y9679858D01*
X27429581Y9679858D02*
X27417200Y9704620D01*
X27528629Y9939858D02*
X27516248Y9915096D01*
X27516248Y9915096D02*
X27503867Y9902715D01*
X27503867Y9902715D02*
X27479105Y9890334D01*
X27479105Y9890334D02*
X27466724Y9890334D01*
X27466724Y9890334D02*
X27441962Y9902715D01*
X27441962Y9902715D02*
X27429581Y9915096D01*
X27429581Y9915096D02*
X27417200Y9939858D01*
X27417200Y9939858D02*
X27417200Y9989382D01*
X27417200Y9989382D02*
X27429581Y10014144D01*
X27429581Y10014144D02*
X27441962Y10026525D01*
X27441962Y10026525D02*
X27466724Y10038906D01*
X27466724Y10038906D02*
X27479105Y10038906D01*
X27479105Y10038906D02*
X27503867Y10026525D01*
X27503867Y10026525D02*
X27516248Y10014144D01*
X27516248Y10014144D02*
X27528629Y9989382D01*
X27528629Y9989382D02*
X27528629Y9939858D01*
X27528629Y9939858D02*
X27541010Y9915096D01*
X27541010Y9915096D02*
X27553391Y9902715D01*
X27553391Y9902715D02*
X27578153Y9890334D01*
X27578153Y9890334D02*
X27627677Y9890334D01*
X27627677Y9890334D02*
X27652439Y9902715D01*
X27652439Y9902715D02*
X27664820Y9915096D01*
X27664820Y9915096D02*
X27677200Y9939858D01*
X27677200Y9939858D02*
X27677200Y9989382D01*
X27677200Y9989382D02*
X27664820Y10014144D01*
X27664820Y10014144D02*
X27652439Y10026525D01*
X27652439Y10026525D02*
X27627677Y10038906D01*
X27627677Y10038906D02*
X27578153Y10038906D01*
X27578153Y10038906D02*
X27553391Y10026525D01*
X27553391Y10026525D02*
X27541010Y10014144D01*
X27541010Y10014144D02*
X27528629Y9989382D01*
D12*
X1953819Y2646286D02*
X2668104Y2646286D01*
X2668104Y2646286D02*
X2810961Y2598667D01*
X2810961Y2598667D02*
X2906200Y2503429D01*
X2906200Y2503429D02*
X2953819Y2360572D01*
X2953819Y2360572D02*
X2953819Y2265334D01*
X2953819Y3646286D02*
X2953819Y3074858D01*
X2953819Y3360572D02*
X1953819Y3360572D01*
X1953819Y3360572D02*
X2096676Y3265334D01*
X2096676Y3265334D02*
X2191914Y3170096D01*
X2191914Y3170096D02*
X2239533Y3074858D01*
X1953819Y4265334D02*
X1953819Y4360572D01*
X1953819Y4360572D02*
X2001438Y4455810D01*
X2001438Y4455810D02*
X2049057Y4503429D01*
X2049057Y4503429D02*
X2144295Y4551048D01*
X2144295Y4551048D02*
X2334771Y4598667D01*
X2334771Y4598667D02*
X2572866Y4598667D01*
X2572866Y4598667D02*
X2763342Y4551048D01*
X2763342Y4551048D02*
X2858580Y4503429D01*
X2858580Y4503429D02*
X2906200Y4455810D01*
X2906200Y4455810D02*
X2953819Y4360572D01*
X2953819Y4360572D02*
X2953819Y4265334D01*
X2953819Y4265334D02*
X2906200Y4170096D01*
X2906200Y4170096D02*
X2858580Y4122477D01*
X2858580Y4122477D02*
X2763342Y4074858D01*
X2763342Y4074858D02*
X2572866Y4027239D01*
X2572866Y4027239D02*
X2334771Y4027239D01*
X2334771Y4027239D02*
X2144295Y4074858D01*
X2144295Y4074858D02*
X2049057Y4122477D01*
X2049057Y4122477D02*
X2001438Y4170096D01*
X2001438Y4170096D02*
X1953819Y4265334D01*
X2953819Y5551048D02*
X2953819Y4979620D01*
X2953819Y5265334D02*
X1953819Y5265334D01*
X1953819Y5265334D02*
X2096676Y5170096D01*
X2096676Y5170096D02*
X2191914Y5074858D01*
X2191914Y5074858D02*
X2239533Y4979620D01*
D11*
X35788238Y25183235D02*
X35776334Y25171330D01*
X35776334Y25171330D02*
X35740619Y25159426D01*
X35740619Y25159426D02*
X35716810Y25159426D01*
X35716810Y25159426D02*
X35681096Y25171330D01*
X35681096Y25171330D02*
X35657286Y25195140D01*
X35657286Y25195140D02*
X35645381Y25218950D01*
X35645381Y25218950D02*
X35633477Y25266569D01*
X35633477Y25266569D02*
X35633477Y25302283D01*
X35633477Y25302283D02*
X35645381Y25349902D01*
X35645381Y25349902D02*
X35657286Y25373711D01*
X35657286Y25373711D02*
X35681096Y25397521D01*
X35681096Y25397521D02*
X35716810Y25409426D01*
X35716810Y25409426D02*
X35740619Y25409426D01*
X35740619Y25409426D02*
X35776334Y25397521D01*
X35776334Y25397521D02*
X35788238Y25385616D01*
X35883477Y25385616D02*
X35895381Y25397521D01*
X35895381Y25397521D02*
X35919191Y25409426D01*
X35919191Y25409426D02*
X35978715Y25409426D01*
X35978715Y25409426D02*
X36002524Y25397521D01*
X36002524Y25397521D02*
X36014429Y25385616D01*
X36014429Y25385616D02*
X36026334Y25361807D01*
X36026334Y25361807D02*
X36026334Y25337997D01*
X36026334Y25337997D02*
X36014429Y25302283D01*
X36014429Y25302283D02*
X35871572Y25159426D01*
X35871572Y25159426D02*
X36026334Y25159426D01*
X36181095Y25409426D02*
X36204905Y25409426D01*
X36204905Y25409426D02*
X36228714Y25397521D01*
X36228714Y25397521D02*
X36240619Y25385616D01*
X36240619Y25385616D02*
X36252524Y25361807D01*
X36252524Y25361807D02*
X36264429Y25314188D01*
X36264429Y25314188D02*
X36264429Y25254664D01*
X36264429Y25254664D02*
X36252524Y25207045D01*
X36252524Y25207045D02*
X36240619Y25183235D01*
X36240619Y25183235D02*
X36228714Y25171330D01*
X36228714Y25171330D02*
X36204905Y25159426D01*
X36204905Y25159426D02*
X36181095Y25159426D01*
X36181095Y25159426D02*
X36157286Y25171330D01*
X36157286Y25171330D02*
X36145381Y25183235D01*
X36145381Y25183235D02*
X36133476Y25207045D01*
X36133476Y25207045D02*
X36121572Y25254664D01*
X36121572Y25254664D02*
X36121572Y25314188D01*
X36121572Y25314188D02*
X36133476Y25361807D01*
X36133476Y25361807D02*
X36145381Y25385616D01*
X36145381Y25385616D02*
X36157286Y25397521D01*
X36157286Y25397521D02*
X36181095Y25409426D01*
X36347762Y25409426D02*
X36502524Y25409426D01*
X36502524Y25409426D02*
X36419190Y25314188D01*
X36419190Y25314188D02*
X36454905Y25314188D01*
X36454905Y25314188D02*
X36478714Y25302283D01*
X36478714Y25302283D02*
X36490619Y25290378D01*
X36490619Y25290378D02*
X36502524Y25266569D01*
X36502524Y25266569D02*
X36502524Y25207045D01*
X36502524Y25207045D02*
X36490619Y25183235D01*
X36490619Y25183235D02*
X36478714Y25171330D01*
X36478714Y25171330D02*
X36454905Y25159426D01*
X36454905Y25159426D02*
X36383476Y25159426D01*
X36383476Y25159426D02*
X36359667Y25171330D01*
X36359667Y25171330D02*
X36347762Y25183235D01*
D12*
X40428104Y19216953D02*
X40428104Y19693143D01*
X40713819Y19121715D02*
X39713819Y19455048D01*
X39713819Y19455048D02*
X40713819Y19788381D01*
X40190009Y20121715D02*
X40190009Y20455048D01*
X40713819Y20597905D02*
X40713819Y20121715D01*
X40713819Y20121715D02*
X39713819Y20121715D01*
X39713819Y20121715D02*
X39713819Y20597905D01*
X39809057Y20978858D02*
X39761438Y21026477D01*
X39761438Y21026477D02*
X39713819Y21121715D01*
X39713819Y21121715D02*
X39713819Y21359810D01*
X39713819Y21359810D02*
X39761438Y21455048D01*
X39761438Y21455048D02*
X39809057Y21502667D01*
X39809057Y21502667D02*
X39904295Y21550286D01*
X39904295Y21550286D02*
X39999533Y21550286D01*
X39999533Y21550286D02*
X40142390Y21502667D01*
X40142390Y21502667D02*
X40713819Y20931239D01*
X40713819Y20931239D02*
X40713819Y21550286D01*
X39713819Y22169334D02*
X39713819Y22264572D01*
X39713819Y22264572D02*
X39761438Y22359810D01*
X39761438Y22359810D02*
X39809057Y22407429D01*
X39809057Y22407429D02*
X39904295Y22455048D01*
X39904295Y22455048D02*
X40094771Y22502667D01*
X40094771Y22502667D02*
X40332866Y22502667D01*
X40332866Y22502667D02*
X40523342Y22455048D01*
X40523342Y22455048D02*
X40618580Y22407429D01*
X40618580Y22407429D02*
X40666200Y22359810D01*
X40666200Y22359810D02*
X40713819Y22264572D01*
X40713819Y22264572D02*
X40713819Y22169334D01*
X40713819Y22169334D02*
X40666200Y22074096D01*
X40666200Y22074096D02*
X40618580Y22026477D01*
X40618580Y22026477D02*
X40523342Y21978858D01*
X40523342Y21978858D02*
X40332866Y21931239D01*
X40332866Y21931239D02*
X40094771Y21931239D01*
X40094771Y21931239D02*
X39904295Y21978858D01*
X39904295Y21978858D02*
X39809057Y22026477D01*
X39809057Y22026477D02*
X39761438Y22074096D01*
X39761438Y22074096D02*
X39713819Y22169334D01*
X40713819Y23455048D02*
X40713819Y22883620D01*
X40713819Y23169334D02*
X39713819Y23169334D01*
X39713819Y23169334D02*
X39856676Y23074096D01*
X39856676Y23074096D02*
X39951914Y22978858D01*
X39951914Y22978858D02*
X39999533Y22883620D01*
D11*
X12547238Y23024235D02*
X12535334Y23012330D01*
X12535334Y23012330D02*
X12499619Y23000426D01*
X12499619Y23000426D02*
X12475810Y23000426D01*
X12475810Y23000426D02*
X12440096Y23012330D01*
X12440096Y23012330D02*
X12416286Y23036140D01*
X12416286Y23036140D02*
X12404381Y23059950D01*
X12404381Y23059950D02*
X12392477Y23107569D01*
X12392477Y23107569D02*
X12392477Y23143283D01*
X12392477Y23143283D02*
X12404381Y23190902D01*
X12404381Y23190902D02*
X12416286Y23214711D01*
X12416286Y23214711D02*
X12440096Y23238521D01*
X12440096Y23238521D02*
X12475810Y23250426D01*
X12475810Y23250426D02*
X12499619Y23250426D01*
X12499619Y23250426D02*
X12535334Y23238521D01*
X12535334Y23238521D02*
X12547238Y23226616D01*
X12785334Y23000426D02*
X12642477Y23000426D01*
X12713905Y23000426D02*
X12713905Y23250426D01*
X12713905Y23250426D02*
X12690096Y23214711D01*
X12690096Y23214711D02*
X12666286Y23190902D01*
X12666286Y23190902D02*
X12642477Y23178997D01*
X12940095Y23250426D02*
X12963905Y23250426D01*
X12963905Y23250426D02*
X12987714Y23238521D01*
X12987714Y23238521D02*
X12999619Y23226616D01*
X12999619Y23226616D02*
X13011524Y23202807D01*
X13011524Y23202807D02*
X13023429Y23155188D01*
X13023429Y23155188D02*
X13023429Y23095664D01*
X13023429Y23095664D02*
X13011524Y23048045D01*
X13011524Y23048045D02*
X12999619Y23024235D01*
X12999619Y23024235D02*
X12987714Y23012330D01*
X12987714Y23012330D02*
X12963905Y23000426D01*
X12963905Y23000426D02*
X12940095Y23000426D01*
X12940095Y23000426D02*
X12916286Y23012330D01*
X12916286Y23012330D02*
X12904381Y23024235D01*
X12904381Y23024235D02*
X12892476Y23048045D01*
X12892476Y23048045D02*
X12880572Y23095664D01*
X12880572Y23095664D02*
X12880572Y23155188D01*
X12880572Y23155188D02*
X12892476Y23202807D01*
X12892476Y23202807D02*
X12904381Y23226616D01*
X12904381Y23226616D02*
X12916286Y23238521D01*
X12916286Y23238521D02*
X12940095Y23250426D01*
X13106762Y23250426D02*
X13261524Y23250426D01*
X13261524Y23250426D02*
X13178190Y23155188D01*
X13178190Y23155188D02*
X13213905Y23155188D01*
X13213905Y23155188D02*
X13237714Y23143283D01*
X13237714Y23143283D02*
X13249619Y23131378D01*
X13249619Y23131378D02*
X13261524Y23107569D01*
X13261524Y23107569D02*
X13261524Y23048045D01*
X13261524Y23048045D02*
X13249619Y23024235D01*
X13249619Y23024235D02*
X13237714Y23012330D01*
X13237714Y23012330D02*
X13213905Y23000426D01*
X13213905Y23000426D02*
X13142476Y23000426D01*
X13142476Y23000426D02*
X13118667Y23012330D01*
X13118667Y23012330D02*
X13106762Y23024235D01*
X37466652Y17981706D02*
X37466652Y17964870D01*
X37466652Y17964870D02*
X37449816Y17931198D01*
X37449816Y17931198D02*
X37432980Y17914362D01*
X37432980Y17914362D02*
X37399309Y17897527D01*
X37399309Y17897527D02*
X37365637Y17897527D01*
X37365637Y17897527D02*
X37340383Y17905945D01*
X37340383Y17905945D02*
X37298293Y17931198D01*
X37298293Y17931198D02*
X37273040Y17956452D01*
X37273040Y17956452D02*
X37247786Y17998542D01*
X37247786Y17998542D02*
X37239368Y18023796D01*
X37239368Y18023796D02*
X37239368Y18057467D01*
X37239368Y18057467D02*
X37256204Y18091139D01*
X37256204Y18091139D02*
X37273040Y18107975D01*
X37273040Y18107975D02*
X37306711Y18124811D01*
X37306711Y18124811D02*
X37323547Y18124811D01*
X37390891Y18192154D02*
X37390891Y18208990D01*
X37390891Y18208990D02*
X37399309Y18234244D01*
X37399309Y18234244D02*
X37441398Y18276334D01*
X37441398Y18276334D02*
X37466652Y18284752D01*
X37466652Y18284752D02*
X37483488Y18284752D01*
X37483488Y18284752D02*
X37508742Y18276334D01*
X37508742Y18276334D02*
X37525578Y18259498D01*
X37525578Y18259498D02*
X37542414Y18225826D01*
X37542414Y18225826D02*
X37542414Y18023796D01*
X37542414Y18023796D02*
X37651847Y18133229D01*
X37820205Y18301587D02*
X37719190Y18200572D01*
X37769698Y18251080D02*
X37592921Y18427856D01*
X37592921Y18427856D02*
X37601339Y18385767D01*
X37601339Y18385767D02*
X37601339Y18352095D01*
X37601339Y18352095D02*
X37592921Y18326841D01*
X37702354Y18537290D02*
X37820205Y18655141D01*
X37820205Y18655141D02*
X37921220Y18402603D01*
X25520765Y25275239D02*
X25532670Y25263335D01*
X25532670Y25263335D02*
X25544574Y25227620D01*
X25544574Y25227620D02*
X25544574Y25203811D01*
X25544574Y25203811D02*
X25532670Y25168097D01*
X25532670Y25168097D02*
X25508860Y25144287D01*
X25508860Y25144287D02*
X25485050Y25132382D01*
X25485050Y25132382D02*
X25437431Y25120478D01*
X25437431Y25120478D02*
X25401717Y25120478D01*
X25401717Y25120478D02*
X25354098Y25132382D01*
X25354098Y25132382D02*
X25330289Y25144287D01*
X25330289Y25144287D02*
X25306479Y25168097D01*
X25306479Y25168097D02*
X25294574Y25203811D01*
X25294574Y25203811D02*
X25294574Y25227620D01*
X25294574Y25227620D02*
X25306479Y25263335D01*
X25306479Y25263335D02*
X25318384Y25275239D01*
X25318384Y25370478D02*
X25306479Y25382382D01*
X25306479Y25382382D02*
X25294574Y25406192D01*
X25294574Y25406192D02*
X25294574Y25465716D01*
X25294574Y25465716D02*
X25306479Y25489525D01*
X25306479Y25489525D02*
X25318384Y25501430D01*
X25318384Y25501430D02*
X25342193Y25513335D01*
X25342193Y25513335D02*
X25366003Y25513335D01*
X25366003Y25513335D02*
X25401717Y25501430D01*
X25401717Y25501430D02*
X25544574Y25358573D01*
X25544574Y25358573D02*
X25544574Y25513335D01*
X25544574Y25751430D02*
X25544574Y25608573D01*
X25544574Y25680001D02*
X25294574Y25680001D01*
X25294574Y25680001D02*
X25330289Y25656192D01*
X25330289Y25656192D02*
X25354098Y25632382D01*
X25354098Y25632382D02*
X25366003Y25608573D01*
X25318384Y25846668D02*
X25306479Y25858572D01*
X25306479Y25858572D02*
X25294574Y25882382D01*
X25294574Y25882382D02*
X25294574Y25941906D01*
X25294574Y25941906D02*
X25306479Y25965715D01*
X25306479Y25965715D02*
X25318384Y25977620D01*
X25318384Y25977620D02*
X25342193Y25989525D01*
X25342193Y25989525D02*
X25366003Y25989525D01*
X25366003Y25989525D02*
X25401717Y25977620D01*
X25401717Y25977620D02*
X25544574Y25834763D01*
X25544574Y25834763D02*
X25544574Y25989525D01*
X32884200Y9296049D02*
X32760391Y9209382D01*
X32884200Y9147477D02*
X32624200Y9147477D01*
X32624200Y9147477D02*
X32624200Y9246525D01*
X32624200Y9246525D02*
X32636581Y9271287D01*
X32636581Y9271287D02*
X32648962Y9283668D01*
X32648962Y9283668D02*
X32673724Y9296049D01*
X32673724Y9296049D02*
X32710867Y9296049D01*
X32710867Y9296049D02*
X32735629Y9283668D01*
X32735629Y9283668D02*
X32748010Y9271287D01*
X32748010Y9271287D02*
X32760391Y9246525D01*
X32760391Y9246525D02*
X32760391Y9147477D01*
X32884200Y9543668D02*
X32884200Y9395096D01*
X32884200Y9469382D02*
X32624200Y9469382D01*
X32624200Y9469382D02*
X32661343Y9444620D01*
X32661343Y9444620D02*
X32686105Y9419858D01*
X32686105Y9419858D02*
X32698486Y9395096D01*
X32624200Y9704620D02*
X32624200Y9729382D01*
X32624200Y9729382D02*
X32636581Y9754144D01*
X32636581Y9754144D02*
X32648962Y9766525D01*
X32648962Y9766525D02*
X32673724Y9778906D01*
X32673724Y9778906D02*
X32723248Y9791287D01*
X32723248Y9791287D02*
X32785153Y9791287D01*
X32785153Y9791287D02*
X32834677Y9778906D01*
X32834677Y9778906D02*
X32859439Y9766525D01*
X32859439Y9766525D02*
X32871820Y9754144D01*
X32871820Y9754144D02*
X32884200Y9729382D01*
X32884200Y9729382D02*
X32884200Y9704620D01*
X32884200Y9704620D02*
X32871820Y9679858D01*
X32871820Y9679858D02*
X32859439Y9667477D01*
X32859439Y9667477D02*
X32834677Y9655096D01*
X32834677Y9655096D02*
X32785153Y9642715D01*
X32785153Y9642715D02*
X32723248Y9642715D01*
X32723248Y9642715D02*
X32673724Y9655096D01*
X32673724Y9655096D02*
X32648962Y9667477D01*
X32648962Y9667477D02*
X32636581Y9679858D01*
X32636581Y9679858D02*
X32624200Y9704620D01*
X32624200Y9877953D02*
X32624200Y10038906D01*
X32624200Y10038906D02*
X32723248Y9952239D01*
X32723248Y9952239D02*
X32723248Y9989382D01*
X32723248Y9989382D02*
X32735629Y10014144D01*
X32735629Y10014144D02*
X32748010Y10026525D01*
X32748010Y10026525D02*
X32772772Y10038906D01*
X32772772Y10038906D02*
X32834677Y10038906D01*
X32834677Y10038906D02*
X32859439Y10026525D01*
X32859439Y10026525D02*
X32871820Y10014144D01*
X32871820Y10014144D02*
X32884200Y9989382D01*
X32884200Y9989382D02*
X32884200Y9915096D01*
X32884200Y9915096D02*
X32871820Y9890334D01*
X32871820Y9890334D02*
X32859439Y9877953D01*
D15*
X30369000Y14527960D02*
X30369000Y14194627D01*
X30135666Y14894627D02*
X30369000Y14527960D01*
X30369000Y14527960D02*
X30602333Y14894627D01*
X30802333Y14827960D02*
X30835666Y14861294D01*
X30835666Y14861294D02*
X30902333Y14894627D01*
X30902333Y14894627D02*
X31069000Y14894627D01*
X31069000Y14894627D02*
X31135666Y14861294D01*
X31135666Y14861294D02*
X31169000Y14827960D01*
X31169000Y14827960D02*
X31202333Y14761294D01*
X31202333Y14761294D02*
X31202333Y14694627D01*
X31202333Y14694627D02*
X31169000Y14594627D01*
X31169000Y14594627D02*
X30769000Y14194627D01*
X30769000Y14194627D02*
X31202333Y14194627D01*
X31635667Y14894627D02*
X31702333Y14894627D01*
X31702333Y14894627D02*
X31769000Y14861294D01*
X31769000Y14861294D02*
X31802333Y14827960D01*
X31802333Y14827960D02*
X31835667Y14761294D01*
X31835667Y14761294D02*
X31869000Y14627960D01*
X31869000Y14627960D02*
X31869000Y14461294D01*
X31869000Y14461294D02*
X31835667Y14327960D01*
X31835667Y14327960D02*
X31802333Y14261294D01*
X31802333Y14261294D02*
X31769000Y14227960D01*
X31769000Y14227960D02*
X31702333Y14194627D01*
X31702333Y14194627D02*
X31635667Y14194627D01*
X31635667Y14194627D02*
X31569000Y14227960D01*
X31569000Y14227960D02*
X31535667Y14261294D01*
X31535667Y14261294D02*
X31502333Y14327960D01*
X31502333Y14327960D02*
X31469000Y14461294D01*
X31469000Y14461294D02*
X31469000Y14627960D01*
X31469000Y14627960D02*
X31502333Y14761294D01*
X31502333Y14761294D02*
X31535667Y14827960D01*
X31535667Y14827960D02*
X31569000Y14861294D01*
X31569000Y14861294D02*
X31635667Y14894627D01*
X32535667Y14194627D02*
X32135667Y14194627D01*
X32335667Y14194627D02*
X32335667Y14894627D01*
X32335667Y14894627D02*
X32269000Y14794627D01*
X32269000Y14794627D02*
X32202334Y14727960D01*
X32202334Y14727960D02*
X32135667Y14694627D01*
D11*
X11404238Y15404235D02*
X11392334Y15392330D01*
X11392334Y15392330D02*
X11356619Y15380426D01*
X11356619Y15380426D02*
X11332810Y15380426D01*
X11332810Y15380426D02*
X11297096Y15392330D01*
X11297096Y15392330D02*
X11273286Y15416140D01*
X11273286Y15416140D02*
X11261381Y15439950D01*
X11261381Y15439950D02*
X11249477Y15487569D01*
X11249477Y15487569D02*
X11249477Y15523283D01*
X11249477Y15523283D02*
X11261381Y15570902D01*
X11261381Y15570902D02*
X11273286Y15594711D01*
X11273286Y15594711D02*
X11297096Y15618521D01*
X11297096Y15618521D02*
X11332810Y15630426D01*
X11332810Y15630426D02*
X11356619Y15630426D01*
X11356619Y15630426D02*
X11392334Y15618521D01*
X11392334Y15618521D02*
X11404238Y15606616D01*
X11642334Y15380426D02*
X11499477Y15380426D01*
X11570905Y15380426D02*
X11570905Y15630426D01*
X11570905Y15630426D02*
X11547096Y15594711D01*
X11547096Y15594711D02*
X11523286Y15570902D01*
X11523286Y15570902D02*
X11499477Y15558997D01*
X11797095Y15630426D02*
X11820905Y15630426D01*
X11820905Y15630426D02*
X11844714Y15618521D01*
X11844714Y15618521D02*
X11856619Y15606616D01*
X11856619Y15606616D02*
X11868524Y15582807D01*
X11868524Y15582807D02*
X11880429Y15535188D01*
X11880429Y15535188D02*
X11880429Y15475664D01*
X11880429Y15475664D02*
X11868524Y15428045D01*
X11868524Y15428045D02*
X11856619Y15404235D01*
X11856619Y15404235D02*
X11844714Y15392330D01*
X11844714Y15392330D02*
X11820905Y15380426D01*
X11820905Y15380426D02*
X11797095Y15380426D01*
X11797095Y15380426D02*
X11773286Y15392330D01*
X11773286Y15392330D02*
X11761381Y15404235D01*
X11761381Y15404235D02*
X11749476Y15428045D01*
X11749476Y15428045D02*
X11737572Y15475664D01*
X11737572Y15475664D02*
X11737572Y15535188D01*
X11737572Y15535188D02*
X11749476Y15582807D01*
X11749476Y15582807D02*
X11761381Y15606616D01*
X11761381Y15606616D02*
X11773286Y15618521D01*
X11773286Y15618521D02*
X11797095Y15630426D01*
X11963762Y15630426D02*
X12130428Y15630426D01*
X12130428Y15630426D02*
X12023286Y15380426D01*
D16*
X11030409Y20415358D02*
X11435171Y20415358D01*
X11435171Y20415358D02*
X11482790Y20439168D01*
X11482790Y20439168D02*
X11506600Y20462977D01*
X11506600Y20462977D02*
X11530409Y20510596D01*
X11530409Y20510596D02*
X11530409Y20605834D01*
X11530409Y20605834D02*
X11506600Y20653453D01*
X11506600Y20653453D02*
X11482790Y20677263D01*
X11482790Y20677263D02*
X11435171Y20701072D01*
X11435171Y20701072D02*
X11030409Y20701072D01*
X11530409Y21201073D02*
X11530409Y20915359D01*
X11530409Y21058216D02*
X11030409Y21058216D01*
X11030409Y21058216D02*
X11101838Y21010597D01*
X11101838Y21010597D02*
X11149457Y20962978D01*
X11149457Y20962978D02*
X11173266Y20915359D01*
X11030409Y21510596D02*
X11030409Y21558215D01*
X11030409Y21558215D02*
X11054219Y21605834D01*
X11054219Y21605834D02*
X11078028Y21629644D01*
X11078028Y21629644D02*
X11125647Y21653453D01*
X11125647Y21653453D02*
X11220885Y21677263D01*
X11220885Y21677263D02*
X11339933Y21677263D01*
X11339933Y21677263D02*
X11435171Y21653453D01*
X11435171Y21653453D02*
X11482790Y21629644D01*
X11482790Y21629644D02*
X11506600Y21605834D01*
X11506600Y21605834D02*
X11530409Y21558215D01*
X11530409Y21558215D02*
X11530409Y21510596D01*
X11530409Y21510596D02*
X11506600Y21462977D01*
X11506600Y21462977D02*
X11482790Y21439168D01*
X11482790Y21439168D02*
X11435171Y21415358D01*
X11435171Y21415358D02*
X11339933Y21391549D01*
X11339933Y21391549D02*
X11220885Y21391549D01*
X11220885Y21391549D02*
X11125647Y21415358D01*
X11125647Y21415358D02*
X11078028Y21439168D01*
X11078028Y21439168D02*
X11054219Y21462977D01*
X11054219Y21462977D02*
X11030409Y21510596D01*
X11030409Y21843929D02*
X11030409Y22153453D01*
X11030409Y22153453D02*
X11220885Y21986786D01*
X11220885Y21986786D02*
X11220885Y22058215D01*
X11220885Y22058215D02*
X11244695Y22105834D01*
X11244695Y22105834D02*
X11268504Y22129643D01*
X11268504Y22129643D02*
X11316123Y22153453D01*
X11316123Y22153453D02*
X11435171Y22153453D01*
X11435171Y22153453D02*
X11482790Y22129643D01*
X11482790Y22129643D02*
X11506600Y22105834D01*
X11506600Y22105834D02*
X11530409Y22058215D01*
X11530409Y22058215D02*
X11530409Y21915358D01*
X11530409Y21915358D02*
X11506600Y21867739D01*
X11506600Y21867739D02*
X11482790Y21843929D01*
D11*
X30200238Y27850235D02*
X30188334Y27838330D01*
X30188334Y27838330D02*
X30152619Y27826426D01*
X30152619Y27826426D02*
X30128810Y27826426D01*
X30128810Y27826426D02*
X30093096Y27838330D01*
X30093096Y27838330D02*
X30069286Y27862140D01*
X30069286Y27862140D02*
X30057381Y27885950D01*
X30057381Y27885950D02*
X30045477Y27933569D01*
X30045477Y27933569D02*
X30045477Y27969283D01*
X30045477Y27969283D02*
X30057381Y28016902D01*
X30057381Y28016902D02*
X30069286Y28040711D01*
X30069286Y28040711D02*
X30093096Y28064521D01*
X30093096Y28064521D02*
X30128810Y28076426D01*
X30128810Y28076426D02*
X30152619Y28076426D01*
X30152619Y28076426D02*
X30188334Y28064521D01*
X30188334Y28064521D02*
X30200238Y28052616D01*
X30295477Y28052616D02*
X30307381Y28064521D01*
X30307381Y28064521D02*
X30331191Y28076426D01*
X30331191Y28076426D02*
X30390715Y28076426D01*
X30390715Y28076426D02*
X30414524Y28064521D01*
X30414524Y28064521D02*
X30426429Y28052616D01*
X30426429Y28052616D02*
X30438334Y28028807D01*
X30438334Y28028807D02*
X30438334Y28004997D01*
X30438334Y28004997D02*
X30426429Y27969283D01*
X30426429Y27969283D02*
X30283572Y27826426D01*
X30283572Y27826426D02*
X30438334Y27826426D01*
X30593095Y28076426D02*
X30616905Y28076426D01*
X30616905Y28076426D02*
X30640714Y28064521D01*
X30640714Y28064521D02*
X30652619Y28052616D01*
X30652619Y28052616D02*
X30664524Y28028807D01*
X30664524Y28028807D02*
X30676429Y27981188D01*
X30676429Y27981188D02*
X30676429Y27921664D01*
X30676429Y27921664D02*
X30664524Y27874045D01*
X30664524Y27874045D02*
X30652619Y27850235D01*
X30652619Y27850235D02*
X30640714Y27838330D01*
X30640714Y27838330D02*
X30616905Y27826426D01*
X30616905Y27826426D02*
X30593095Y27826426D01*
X30593095Y27826426D02*
X30569286Y27838330D01*
X30569286Y27838330D02*
X30557381Y27850235D01*
X30557381Y27850235D02*
X30545476Y27874045D01*
X30545476Y27874045D02*
X30533572Y27921664D01*
X30533572Y27921664D02*
X30533572Y27981188D01*
X30533572Y27981188D02*
X30545476Y28028807D01*
X30545476Y28028807D02*
X30557381Y28052616D01*
X30557381Y28052616D02*
X30569286Y28064521D01*
X30569286Y28064521D02*
X30593095Y28076426D01*
X30759762Y28076426D02*
X30926428Y28076426D01*
X30926428Y28076426D02*
X30819286Y27826426D01*
X32757200Y32602049D02*
X32633391Y32515382D01*
X32757200Y32453477D02*
X32497200Y32453477D01*
X32497200Y32453477D02*
X32497200Y32552525D01*
X32497200Y32552525D02*
X32509581Y32577287D01*
X32509581Y32577287D02*
X32521962Y32589668D01*
X32521962Y32589668D02*
X32546724Y32602049D01*
X32546724Y32602049D02*
X32583867Y32602049D01*
X32583867Y32602049D02*
X32608629Y32589668D01*
X32608629Y32589668D02*
X32621010Y32577287D01*
X32621010Y32577287D02*
X32633391Y32552525D01*
X32633391Y32552525D02*
X32633391Y32453477D01*
X32757200Y32849668D02*
X32757200Y32701096D01*
X32757200Y32775382D02*
X32497200Y32775382D01*
X32497200Y32775382D02*
X32534343Y32750620D01*
X32534343Y32750620D02*
X32559105Y32725858D01*
X32559105Y32725858D02*
X32571486Y32701096D01*
X32757200Y33097287D02*
X32757200Y32948715D01*
X32757200Y33023001D02*
X32497200Y33023001D01*
X32497200Y33023001D02*
X32534343Y32998239D01*
X32534343Y32998239D02*
X32559105Y32973477D01*
X32559105Y32973477D02*
X32571486Y32948715D01*
X32497200Y33332525D02*
X32497200Y33208715D01*
X32497200Y33208715D02*
X32621010Y33196334D01*
X32621010Y33196334D02*
X32608629Y33208715D01*
X32608629Y33208715D02*
X32596248Y33233477D01*
X32596248Y33233477D02*
X32596248Y33295382D01*
X32596248Y33295382D02*
X32608629Y33320144D01*
X32608629Y33320144D02*
X32621010Y33332525D01*
X32621010Y33332525D02*
X32645772Y33344906D01*
X32645772Y33344906D02*
X32707677Y33344906D01*
X32707677Y33344906D02*
X32732439Y33332525D01*
X32732439Y33332525D02*
X32744820Y33320144D01*
X32744820Y33320144D02*
X32757200Y33295382D01*
X32757200Y33295382D02*
X32757200Y33233477D01*
X32757200Y33233477D02*
X32744820Y33208715D01*
X32744820Y33208715D02*
X32732439Y33196334D01*
X25645200Y32475049D02*
X25521391Y32388382D01*
X25645200Y32326477D02*
X25385200Y32326477D01*
X25385200Y32326477D02*
X25385200Y32425525D01*
X25385200Y32425525D02*
X25397581Y32450287D01*
X25397581Y32450287D02*
X25409962Y32462668D01*
X25409962Y32462668D02*
X25434724Y32475049D01*
X25434724Y32475049D02*
X25471867Y32475049D01*
X25471867Y32475049D02*
X25496629Y32462668D01*
X25496629Y32462668D02*
X25509010Y32450287D01*
X25509010Y32450287D02*
X25521391Y32425525D01*
X25521391Y32425525D02*
X25521391Y32326477D01*
X25645200Y32722668D02*
X25645200Y32574096D01*
X25645200Y32648382D02*
X25385200Y32648382D01*
X25385200Y32648382D02*
X25422343Y32623620D01*
X25422343Y32623620D02*
X25447105Y32598858D01*
X25447105Y32598858D02*
X25459486Y32574096D01*
X25385200Y32883620D02*
X25385200Y32908382D01*
X25385200Y32908382D02*
X25397581Y32933144D01*
X25397581Y32933144D02*
X25409962Y32945525D01*
X25409962Y32945525D02*
X25434724Y32957906D01*
X25434724Y32957906D02*
X25484248Y32970287D01*
X25484248Y32970287D02*
X25546153Y32970287D01*
X25546153Y32970287D02*
X25595677Y32957906D01*
X25595677Y32957906D02*
X25620439Y32945525D01*
X25620439Y32945525D02*
X25632820Y32933144D01*
X25632820Y32933144D02*
X25645200Y32908382D01*
X25645200Y32908382D02*
X25645200Y32883620D01*
X25645200Y32883620D02*
X25632820Y32858858D01*
X25632820Y32858858D02*
X25620439Y32846477D01*
X25620439Y32846477D02*
X25595677Y32834096D01*
X25595677Y32834096D02*
X25546153Y32821715D01*
X25546153Y32821715D02*
X25484248Y32821715D01*
X25484248Y32821715D02*
X25434724Y32834096D01*
X25434724Y32834096D02*
X25409962Y32846477D01*
X25409962Y32846477D02*
X25397581Y32858858D01*
X25397581Y32858858D02*
X25385200Y32883620D01*
X25385200Y33056953D02*
X25385200Y33230287D01*
X25385200Y33230287D02*
X25645200Y33118858D01*
D12*
X1953819Y9250286D02*
X2668104Y9250286D01*
X2668104Y9250286D02*
X2810961Y9202667D01*
X2810961Y9202667D02*
X2906200Y9107429D01*
X2906200Y9107429D02*
X2953819Y8964572D01*
X2953819Y8964572D02*
X2953819Y8869334D01*
X2953819Y10250286D02*
X2953819Y9678858D01*
X2953819Y9964572D02*
X1953819Y9964572D01*
X1953819Y9964572D02*
X2096676Y9869334D01*
X2096676Y9869334D02*
X2191914Y9774096D01*
X2191914Y9774096D02*
X2239533Y9678858D01*
X1953819Y10869334D02*
X1953819Y10964572D01*
X1953819Y10964572D02*
X2001438Y11059810D01*
X2001438Y11059810D02*
X2049057Y11107429D01*
X2049057Y11107429D02*
X2144295Y11155048D01*
X2144295Y11155048D02*
X2334771Y11202667D01*
X2334771Y11202667D02*
X2572866Y11202667D01*
X2572866Y11202667D02*
X2763342Y11155048D01*
X2763342Y11155048D02*
X2858580Y11107429D01*
X2858580Y11107429D02*
X2906200Y11059810D01*
X2906200Y11059810D02*
X2953819Y10964572D01*
X2953819Y10964572D02*
X2953819Y10869334D01*
X2953819Y10869334D02*
X2906200Y10774096D01*
X2906200Y10774096D02*
X2858580Y10726477D01*
X2858580Y10726477D02*
X2763342Y10678858D01*
X2763342Y10678858D02*
X2572866Y10631239D01*
X2572866Y10631239D02*
X2334771Y10631239D01*
X2334771Y10631239D02*
X2144295Y10678858D01*
X2144295Y10678858D02*
X2049057Y10726477D01*
X2049057Y10726477D02*
X2001438Y10774096D01*
X2001438Y10774096D02*
X1953819Y10869334D01*
X2049057Y11583620D02*
X2001438Y11631239D01*
X2001438Y11631239D02*
X1953819Y11726477D01*
X1953819Y11726477D02*
X1953819Y11964572D01*
X1953819Y11964572D02*
X2001438Y12059810D01*
X2001438Y12059810D02*
X2049057Y12107429D01*
X2049057Y12107429D02*
X2144295Y12155048D01*
X2144295Y12155048D02*
X2239533Y12155048D01*
X2239533Y12155048D02*
X2382390Y12107429D01*
X2382390Y12107429D02*
X2953819Y11536001D01*
X2953819Y11536001D02*
X2953819Y12155048D01*
D14*
X28796261Y32209086D02*
X28765785Y32224324D01*
X28765785Y32224324D02*
X28735309Y32254800D01*
X28735309Y32254800D02*
X28689595Y32300515D01*
X28689595Y32300515D02*
X28659118Y32315753D01*
X28659118Y32315753D02*
X28628642Y32315753D01*
X28643880Y32239562D02*
X28613404Y32254800D01*
X28613404Y32254800D02*
X28582928Y32285277D01*
X28582928Y32285277D02*
X28567690Y32346229D01*
X28567690Y32346229D02*
X28567690Y32452896D01*
X28567690Y32452896D02*
X28582928Y32513848D01*
X28582928Y32513848D02*
X28613404Y32544324D01*
X28613404Y32544324D02*
X28643880Y32559562D01*
X28643880Y32559562D02*
X28704833Y32559562D01*
X28704833Y32559562D02*
X28735309Y32544324D01*
X28735309Y32544324D02*
X28765785Y32513848D01*
X28765785Y32513848D02*
X28781023Y32452896D01*
X28781023Y32452896D02*
X28781023Y32346229D01*
X28781023Y32346229D02*
X28765785Y32285277D01*
X28765785Y32285277D02*
X28735309Y32254800D01*
X28735309Y32254800D02*
X28704833Y32239562D01*
X28704833Y32239562D02*
X28643880Y32239562D01*
X29085785Y32239562D02*
X28902928Y32239562D01*
X28994356Y32239562D02*
X28994356Y32559562D01*
X28994356Y32559562D02*
X28963880Y32513848D01*
X28963880Y32513848D02*
X28933404Y32483372D01*
X28933404Y32483372D02*
X28902928Y32468134D01*
X29283880Y32559562D02*
X29314357Y32559562D01*
X29314357Y32559562D02*
X29344833Y32544324D01*
X29344833Y32544324D02*
X29360071Y32529086D01*
X29360071Y32529086D02*
X29375309Y32498610D01*
X29375309Y32498610D02*
X29390547Y32437658D01*
X29390547Y32437658D02*
X29390547Y32361467D01*
X29390547Y32361467D02*
X29375309Y32300515D01*
X29375309Y32300515D02*
X29360071Y32270039D01*
X29360071Y32270039D02*
X29344833Y32254800D01*
X29344833Y32254800D02*
X29314357Y32239562D01*
X29314357Y32239562D02*
X29283880Y32239562D01*
X29283880Y32239562D02*
X29253404Y32254800D01*
X29253404Y32254800D02*
X29238166Y32270039D01*
X29238166Y32270039D02*
X29222928Y32300515D01*
X29222928Y32300515D02*
X29207690Y32361467D01*
X29207690Y32361467D02*
X29207690Y32437658D01*
X29207690Y32437658D02*
X29222928Y32498610D01*
X29222928Y32498610D02*
X29238166Y32529086D01*
X29238166Y32529086D02*
X29253404Y32544324D01*
X29253404Y32544324D02*
X29283880Y32559562D01*
X29512452Y32529086D02*
X29527690Y32544324D01*
X29527690Y32544324D02*
X29558166Y32559562D01*
X29558166Y32559562D02*
X29634357Y32559562D01*
X29634357Y32559562D02*
X29664833Y32544324D01*
X29664833Y32544324D02*
X29680071Y32529086D01*
X29680071Y32529086D02*
X29695309Y32498610D01*
X29695309Y32498610D02*
X29695309Y32468134D01*
X29695309Y32468134D02*
X29680071Y32422420D01*
X29680071Y32422420D02*
X29497214Y32239562D01*
X29497214Y32239562D02*
X29695309Y32239562D01*
D11*
X28168238Y27850235D02*
X28156334Y27838330D01*
X28156334Y27838330D02*
X28120619Y27826426D01*
X28120619Y27826426D02*
X28096810Y27826426D01*
X28096810Y27826426D02*
X28061096Y27838330D01*
X28061096Y27838330D02*
X28037286Y27862140D01*
X28037286Y27862140D02*
X28025381Y27885950D01*
X28025381Y27885950D02*
X28013477Y27933569D01*
X28013477Y27933569D02*
X28013477Y27969283D01*
X28013477Y27969283D02*
X28025381Y28016902D01*
X28025381Y28016902D02*
X28037286Y28040711D01*
X28037286Y28040711D02*
X28061096Y28064521D01*
X28061096Y28064521D02*
X28096810Y28076426D01*
X28096810Y28076426D02*
X28120619Y28076426D01*
X28120619Y28076426D02*
X28156334Y28064521D01*
X28156334Y28064521D02*
X28168238Y28052616D01*
X28263477Y28052616D02*
X28275381Y28064521D01*
X28275381Y28064521D02*
X28299191Y28076426D01*
X28299191Y28076426D02*
X28358715Y28076426D01*
X28358715Y28076426D02*
X28382524Y28064521D01*
X28382524Y28064521D02*
X28394429Y28052616D01*
X28394429Y28052616D02*
X28406334Y28028807D01*
X28406334Y28028807D02*
X28406334Y28004997D01*
X28406334Y28004997D02*
X28394429Y27969283D01*
X28394429Y27969283D02*
X28251572Y27826426D01*
X28251572Y27826426D02*
X28406334Y27826426D01*
X28561095Y28076426D02*
X28584905Y28076426D01*
X28584905Y28076426D02*
X28608714Y28064521D01*
X28608714Y28064521D02*
X28620619Y28052616D01*
X28620619Y28052616D02*
X28632524Y28028807D01*
X28632524Y28028807D02*
X28644429Y27981188D01*
X28644429Y27981188D02*
X28644429Y27921664D01*
X28644429Y27921664D02*
X28632524Y27874045D01*
X28632524Y27874045D02*
X28620619Y27850235D01*
X28620619Y27850235D02*
X28608714Y27838330D01*
X28608714Y27838330D02*
X28584905Y27826426D01*
X28584905Y27826426D02*
X28561095Y27826426D01*
X28561095Y27826426D02*
X28537286Y27838330D01*
X28537286Y27838330D02*
X28525381Y27850235D01*
X28525381Y27850235D02*
X28513476Y27874045D01*
X28513476Y27874045D02*
X28501572Y27921664D01*
X28501572Y27921664D02*
X28501572Y27981188D01*
X28501572Y27981188D02*
X28513476Y28028807D01*
X28513476Y28028807D02*
X28525381Y28052616D01*
X28525381Y28052616D02*
X28537286Y28064521D01*
X28537286Y28064521D02*
X28561095Y28076426D01*
X28787286Y27969283D02*
X28763476Y27981188D01*
X28763476Y27981188D02*
X28751571Y27993092D01*
X28751571Y27993092D02*
X28739667Y28016902D01*
X28739667Y28016902D02*
X28739667Y28028807D01*
X28739667Y28028807D02*
X28751571Y28052616D01*
X28751571Y28052616D02*
X28763476Y28064521D01*
X28763476Y28064521D02*
X28787286Y28076426D01*
X28787286Y28076426D02*
X28834905Y28076426D01*
X28834905Y28076426D02*
X28858714Y28064521D01*
X28858714Y28064521D02*
X28870619Y28052616D01*
X28870619Y28052616D02*
X28882524Y28028807D01*
X28882524Y28028807D02*
X28882524Y28016902D01*
X28882524Y28016902D02*
X28870619Y27993092D01*
X28870619Y27993092D02*
X28858714Y27981188D01*
X28858714Y27981188D02*
X28834905Y27969283D01*
X28834905Y27969283D02*
X28787286Y27969283D01*
X28787286Y27969283D02*
X28763476Y27957378D01*
X28763476Y27957378D02*
X28751571Y27945473D01*
X28751571Y27945473D02*
X28739667Y27921664D01*
X28739667Y27921664D02*
X28739667Y27874045D01*
X28739667Y27874045D02*
X28751571Y27850235D01*
X28751571Y27850235D02*
X28763476Y27838330D01*
X28763476Y27838330D02*
X28787286Y27826426D01*
X28787286Y27826426D02*
X28834905Y27826426D01*
X28834905Y27826426D02*
X28858714Y27838330D01*
X28858714Y27838330D02*
X28870619Y27850235D01*
X28870619Y27850235D02*
X28882524Y27874045D01*
X28882524Y27874045D02*
X28882524Y27921664D01*
X28882524Y27921664D02*
X28870619Y27945473D01*
X28870619Y27945473D02*
X28858714Y27957378D01*
X28858714Y27957378D02*
X28834905Y27969283D01*
X24473765Y25275239D02*
X24485670Y25263335D01*
X24485670Y25263335D02*
X24497574Y25227620D01*
X24497574Y25227620D02*
X24497574Y25203811D01*
X24497574Y25203811D02*
X24485670Y25168097D01*
X24485670Y25168097D02*
X24461860Y25144287D01*
X24461860Y25144287D02*
X24438050Y25132382D01*
X24438050Y25132382D02*
X24390431Y25120478D01*
X24390431Y25120478D02*
X24354717Y25120478D01*
X24354717Y25120478D02*
X24307098Y25132382D01*
X24307098Y25132382D02*
X24283289Y25144287D01*
X24283289Y25144287D02*
X24259479Y25168097D01*
X24259479Y25168097D02*
X24247574Y25203811D01*
X24247574Y25203811D02*
X24247574Y25227620D01*
X24247574Y25227620D02*
X24259479Y25263335D01*
X24259479Y25263335D02*
X24271384Y25275239D01*
X24271384Y25370478D02*
X24259479Y25382382D01*
X24259479Y25382382D02*
X24247574Y25406192D01*
X24247574Y25406192D02*
X24247574Y25465716D01*
X24247574Y25465716D02*
X24259479Y25489525D01*
X24259479Y25489525D02*
X24271384Y25501430D01*
X24271384Y25501430D02*
X24295193Y25513335D01*
X24295193Y25513335D02*
X24319003Y25513335D01*
X24319003Y25513335D02*
X24354717Y25501430D01*
X24354717Y25501430D02*
X24497574Y25358573D01*
X24497574Y25358573D02*
X24497574Y25513335D01*
X24497574Y25751430D02*
X24497574Y25608573D01*
X24497574Y25680001D02*
X24247574Y25680001D01*
X24247574Y25680001D02*
X24283289Y25656192D01*
X24283289Y25656192D02*
X24307098Y25632382D01*
X24307098Y25632382D02*
X24319003Y25608573D01*
X24247574Y25834763D02*
X24247574Y25989525D01*
X24247574Y25989525D02*
X24342812Y25906191D01*
X24342812Y25906191D02*
X24342812Y25941906D01*
X24342812Y25941906D02*
X24354717Y25965715D01*
X24354717Y25965715D02*
X24366622Y25977620D01*
X24366622Y25977620D02*
X24390431Y25989525D01*
X24390431Y25989525D02*
X24449955Y25989525D01*
X24449955Y25989525D02*
X24473765Y25977620D01*
X24473765Y25977620D02*
X24485670Y25965715D01*
X24485670Y25965715D02*
X24497574Y25941906D01*
X24497574Y25941906D02*
X24497574Y25870477D01*
X24497574Y25870477D02*
X24485670Y25846668D01*
X24485670Y25846668D02*
X24473765Y25834763D01*
X33617765Y17246239D02*
X33629670Y17234335D01*
X33629670Y17234335D02*
X33641574Y17198620D01*
X33641574Y17198620D02*
X33641574Y17174811D01*
X33641574Y17174811D02*
X33629670Y17139097D01*
X33629670Y17139097D02*
X33605860Y17115287D01*
X33605860Y17115287D02*
X33582050Y17103382D01*
X33582050Y17103382D02*
X33534431Y17091478D01*
X33534431Y17091478D02*
X33498717Y17091478D01*
X33498717Y17091478D02*
X33451098Y17103382D01*
X33451098Y17103382D02*
X33427289Y17115287D01*
X33427289Y17115287D02*
X33403479Y17139097D01*
X33403479Y17139097D02*
X33391574Y17174811D01*
X33391574Y17174811D02*
X33391574Y17198620D01*
X33391574Y17198620D02*
X33403479Y17234335D01*
X33403479Y17234335D02*
X33415384Y17246239D01*
X33415384Y17341478D02*
X33403479Y17353382D01*
X33403479Y17353382D02*
X33391574Y17377192D01*
X33391574Y17377192D02*
X33391574Y17436716D01*
X33391574Y17436716D02*
X33403479Y17460525D01*
X33403479Y17460525D02*
X33415384Y17472430D01*
X33415384Y17472430D02*
X33439193Y17484335D01*
X33439193Y17484335D02*
X33463003Y17484335D01*
X33463003Y17484335D02*
X33498717Y17472430D01*
X33498717Y17472430D02*
X33641574Y17329573D01*
X33641574Y17329573D02*
X33641574Y17484335D01*
X33641574Y17722430D02*
X33641574Y17579573D01*
X33641574Y17651001D02*
X33391574Y17651001D01*
X33391574Y17651001D02*
X33427289Y17627192D01*
X33427289Y17627192D02*
X33451098Y17603382D01*
X33451098Y17603382D02*
X33463003Y17579573D01*
X33641574Y17960525D02*
X33641574Y17817668D01*
X33641574Y17889096D02*
X33391574Y17889096D01*
X33391574Y17889096D02*
X33427289Y17865287D01*
X33427289Y17865287D02*
X33451098Y17841477D01*
X33451098Y17841477D02*
X33463003Y17817668D01*
X34633765Y17246239D02*
X34645670Y17234335D01*
X34645670Y17234335D02*
X34657574Y17198620D01*
X34657574Y17198620D02*
X34657574Y17174811D01*
X34657574Y17174811D02*
X34645670Y17139097D01*
X34645670Y17139097D02*
X34621860Y17115287D01*
X34621860Y17115287D02*
X34598050Y17103382D01*
X34598050Y17103382D02*
X34550431Y17091478D01*
X34550431Y17091478D02*
X34514717Y17091478D01*
X34514717Y17091478D02*
X34467098Y17103382D01*
X34467098Y17103382D02*
X34443289Y17115287D01*
X34443289Y17115287D02*
X34419479Y17139097D01*
X34419479Y17139097D02*
X34407574Y17174811D01*
X34407574Y17174811D02*
X34407574Y17198620D01*
X34407574Y17198620D02*
X34419479Y17234335D01*
X34419479Y17234335D02*
X34431384Y17246239D01*
X34431384Y17341478D02*
X34419479Y17353382D01*
X34419479Y17353382D02*
X34407574Y17377192D01*
X34407574Y17377192D02*
X34407574Y17436716D01*
X34407574Y17436716D02*
X34419479Y17460525D01*
X34419479Y17460525D02*
X34431384Y17472430D01*
X34431384Y17472430D02*
X34455193Y17484335D01*
X34455193Y17484335D02*
X34479003Y17484335D01*
X34479003Y17484335D02*
X34514717Y17472430D01*
X34514717Y17472430D02*
X34657574Y17329573D01*
X34657574Y17329573D02*
X34657574Y17484335D01*
X34407574Y17639096D02*
X34407574Y17662906D01*
X34407574Y17662906D02*
X34419479Y17686715D01*
X34419479Y17686715D02*
X34431384Y17698620D01*
X34431384Y17698620D02*
X34455193Y17710525D01*
X34455193Y17710525D02*
X34502812Y17722430D01*
X34502812Y17722430D02*
X34562336Y17722430D01*
X34562336Y17722430D02*
X34609955Y17710525D01*
X34609955Y17710525D02*
X34633765Y17698620D01*
X34633765Y17698620D02*
X34645670Y17686715D01*
X34645670Y17686715D02*
X34657574Y17662906D01*
X34657574Y17662906D02*
X34657574Y17639096D01*
X34657574Y17639096D02*
X34645670Y17615287D01*
X34645670Y17615287D02*
X34633765Y17603382D01*
X34633765Y17603382D02*
X34609955Y17591477D01*
X34609955Y17591477D02*
X34562336Y17579573D01*
X34562336Y17579573D02*
X34502812Y17579573D01*
X34502812Y17579573D02*
X34455193Y17591477D01*
X34455193Y17591477D02*
X34431384Y17603382D01*
X34431384Y17603382D02*
X34419479Y17615287D01*
X34419479Y17615287D02*
X34407574Y17639096D01*
X34657574Y17841477D02*
X34657574Y17889096D01*
X34657574Y17889096D02*
X34645670Y17912906D01*
X34645670Y17912906D02*
X34633765Y17924810D01*
X34633765Y17924810D02*
X34598050Y17948620D01*
X34598050Y17948620D02*
X34550431Y17960525D01*
X34550431Y17960525D02*
X34455193Y17960525D01*
X34455193Y17960525D02*
X34431384Y17948620D01*
X34431384Y17948620D02*
X34419479Y17936715D01*
X34419479Y17936715D02*
X34407574Y17912906D01*
X34407574Y17912906D02*
X34407574Y17865287D01*
X34407574Y17865287D02*
X34419479Y17841477D01*
X34419479Y17841477D02*
X34431384Y17829572D01*
X34431384Y17829572D02*
X34455193Y17817668D01*
X34455193Y17817668D02*
X34514717Y17817668D01*
X34514717Y17817668D02*
X34538527Y17829572D01*
X34538527Y17829572D02*
X34550431Y17841477D01*
X34550431Y17841477D02*
X34562336Y17865287D01*
X34562336Y17865287D02*
X34562336Y17912906D01*
X34562336Y17912906D02*
X34550431Y17936715D01*
X34550431Y17936715D02*
X34538527Y17948620D01*
X34538527Y17948620D02*
X34514717Y17960525D01*
D10*
X26470927Y9520382D02*
X26280451Y9387049D01*
X26470927Y9291811D02*
X26070927Y9291811D01*
X26070927Y9291811D02*
X26070927Y9444192D01*
X26070927Y9444192D02*
X26089975Y9482287D01*
X26089975Y9482287D02*
X26109022Y9501334D01*
X26109022Y9501334D02*
X26147118Y9520382D01*
X26147118Y9520382D02*
X26204260Y9520382D01*
X26204260Y9520382D02*
X26242356Y9501334D01*
X26242356Y9501334D02*
X26261403Y9482287D01*
X26261403Y9482287D02*
X26280451Y9444192D01*
X26280451Y9444192D02*
X26280451Y9291811D01*
X26470927Y9901334D02*
X26470927Y9672763D01*
X26470927Y9787049D02*
X26070927Y9787049D01*
X26070927Y9787049D02*
X26128070Y9748953D01*
X26128070Y9748953D02*
X26166165Y9710858D01*
X26166165Y9710858D02*
X26185213Y9672763D01*
X26070927Y10148953D02*
X26070927Y10187048D01*
X26070927Y10187048D02*
X26089975Y10225144D01*
X26089975Y10225144D02*
X26109022Y10244191D01*
X26109022Y10244191D02*
X26147118Y10263239D01*
X26147118Y10263239D02*
X26223308Y10282286D01*
X26223308Y10282286D02*
X26318546Y10282286D01*
X26318546Y10282286D02*
X26394737Y10263239D01*
X26394737Y10263239D02*
X26432832Y10244191D01*
X26432832Y10244191D02*
X26451880Y10225144D01*
X26451880Y10225144D02*
X26470927Y10187048D01*
X26470927Y10187048D02*
X26470927Y10148953D01*
X26470927Y10148953D02*
X26451880Y10110858D01*
X26451880Y10110858D02*
X26432832Y10091810D01*
X26432832Y10091810D02*
X26394737Y10072763D01*
X26394737Y10072763D02*
X26318546Y10053715D01*
X26318546Y10053715D02*
X26223308Y10053715D01*
X26223308Y10053715D02*
X26147118Y10072763D01*
X26147118Y10072763D02*
X26109022Y10091810D01*
X26109022Y10091810D02*
X26089975Y10110858D01*
X26089975Y10110858D02*
X26070927Y10148953D01*
X26109022Y10434667D02*
X26089975Y10453715D01*
X26089975Y10453715D02*
X26070927Y10491810D01*
X26070927Y10491810D02*
X26070927Y10587048D01*
X26070927Y10587048D02*
X26089975Y10625143D01*
X26089975Y10625143D02*
X26109022Y10644191D01*
X26109022Y10644191D02*
X26147118Y10663238D01*
X26147118Y10663238D02*
X26185213Y10663238D01*
X26185213Y10663238D02*
X26242356Y10644191D01*
X26242356Y10644191D02*
X26470927Y10415619D01*
X26470927Y10415619D02*
X26470927Y10663238D01*
D11*
X20664048Y15502800D02*
X20577381Y15626609D01*
X20515476Y15502800D02*
X20515476Y15762800D01*
X20515476Y15762800D02*
X20614524Y15762800D01*
X20614524Y15762800D02*
X20639286Y15750419D01*
X20639286Y15750419D02*
X20651667Y15738038D01*
X20651667Y15738038D02*
X20664048Y15713276D01*
X20664048Y15713276D02*
X20664048Y15676133D01*
X20664048Y15676133D02*
X20651667Y15651371D01*
X20651667Y15651371D02*
X20639286Y15638990D01*
X20639286Y15638990D02*
X20614524Y15626609D01*
X20614524Y15626609D02*
X20515476Y15626609D01*
X20911667Y15502800D02*
X20763095Y15502800D01*
X20837381Y15502800D02*
X20837381Y15762800D01*
X20837381Y15762800D02*
X20812619Y15725657D01*
X20812619Y15725657D02*
X20787857Y15700895D01*
X20787857Y15700895D02*
X20763095Y15688514D01*
X21159286Y15502800D02*
X21010714Y15502800D01*
X21085000Y15502800D02*
X21085000Y15762800D01*
X21085000Y15762800D02*
X21060238Y15725657D01*
X21060238Y15725657D02*
X21035476Y15700895D01*
X21035476Y15700895D02*
X21010714Y15688514D01*
X21258333Y15738038D02*
X21270714Y15750419D01*
X21270714Y15750419D02*
X21295476Y15762800D01*
X21295476Y15762800D02*
X21357381Y15762800D01*
X21357381Y15762800D02*
X21382143Y15750419D01*
X21382143Y15750419D02*
X21394524Y15738038D01*
X21394524Y15738038D02*
X21406905Y15713276D01*
X21406905Y15713276D02*
X21406905Y15688514D01*
X21406905Y15688514D02*
X21394524Y15651371D01*
X21394524Y15651371D02*
X21245952Y15502800D01*
X21245952Y15502800D02*
X21406905Y15502800D01*
X31712765Y32613239D02*
X31724670Y32601335D01*
X31724670Y32601335D02*
X31736574Y32565620D01*
X31736574Y32565620D02*
X31736574Y32541811D01*
X31736574Y32541811D02*
X31724670Y32506097D01*
X31724670Y32506097D02*
X31700860Y32482287D01*
X31700860Y32482287D02*
X31677050Y32470382D01*
X31677050Y32470382D02*
X31629431Y32458478D01*
X31629431Y32458478D02*
X31593717Y32458478D01*
X31593717Y32458478D02*
X31546098Y32470382D01*
X31546098Y32470382D02*
X31522289Y32482287D01*
X31522289Y32482287D02*
X31498479Y32506097D01*
X31498479Y32506097D02*
X31486574Y32541811D01*
X31486574Y32541811D02*
X31486574Y32565620D01*
X31486574Y32565620D02*
X31498479Y32601335D01*
X31498479Y32601335D02*
X31510384Y32613239D01*
X31736574Y32851335D02*
X31736574Y32708478D01*
X31736574Y32779906D02*
X31486574Y32779906D01*
X31486574Y32779906D02*
X31522289Y32756097D01*
X31522289Y32756097D02*
X31546098Y32732287D01*
X31546098Y32732287D02*
X31558003Y32708478D01*
X31486574Y33006096D02*
X31486574Y33029906D01*
X31486574Y33029906D02*
X31498479Y33053715D01*
X31498479Y33053715D02*
X31510384Y33065620D01*
X31510384Y33065620D02*
X31534193Y33077525D01*
X31534193Y33077525D02*
X31581812Y33089430D01*
X31581812Y33089430D02*
X31641336Y33089430D01*
X31641336Y33089430D02*
X31688955Y33077525D01*
X31688955Y33077525D02*
X31712765Y33065620D01*
X31712765Y33065620D02*
X31724670Y33053715D01*
X31724670Y33053715D02*
X31736574Y33029906D01*
X31736574Y33029906D02*
X31736574Y33006096D01*
X31736574Y33006096D02*
X31724670Y32982287D01*
X31724670Y32982287D02*
X31712765Y32970382D01*
X31712765Y32970382D02*
X31688955Y32958477D01*
X31688955Y32958477D02*
X31641336Y32946573D01*
X31641336Y32946573D02*
X31581812Y32946573D01*
X31581812Y32946573D02*
X31534193Y32958477D01*
X31534193Y32958477D02*
X31510384Y32970382D01*
X31510384Y32970382D02*
X31498479Y32982287D01*
X31498479Y32982287D02*
X31486574Y33006096D01*
X31486574Y33303715D02*
X31486574Y33256096D01*
X31486574Y33256096D02*
X31498479Y33232287D01*
X31498479Y33232287D02*
X31510384Y33220382D01*
X31510384Y33220382D02*
X31546098Y33196572D01*
X31546098Y33196572D02*
X31593717Y33184668D01*
X31593717Y33184668D02*
X31688955Y33184668D01*
X31688955Y33184668D02*
X31712765Y33196572D01*
X31712765Y33196572D02*
X31724670Y33208477D01*
X31724670Y33208477D02*
X31736574Y33232287D01*
X31736574Y33232287D02*
X31736574Y33279906D01*
X31736574Y33279906D02*
X31724670Y33303715D01*
X31724670Y33303715D02*
X31712765Y33315620D01*
X31712765Y33315620D02*
X31688955Y33327525D01*
X31688955Y33327525D02*
X31629431Y33327525D01*
X31629431Y33327525D02*
X31605622Y33315620D01*
X31605622Y33315620D02*
X31593717Y33303715D01*
X31593717Y33303715D02*
X31581812Y33279906D01*
X31581812Y33279906D02*
X31581812Y33232287D01*
X31581812Y33232287D02*
X31593717Y33208477D01*
X31593717Y33208477D02*
X31605622Y33196572D01*
X31605622Y33196572D02*
X31629431Y33184668D01*
D12*
X15581524Y31549181D02*
X15581524Y32549181D01*
X16152952Y31549181D02*
X15724381Y32120610D01*
X16152952Y32549181D02*
X15581524Y31977753D01*
X17105333Y31549181D02*
X16533905Y31549181D01*
X16819619Y31549181D02*
X16819619Y32549181D01*
X16819619Y32549181D02*
X16724381Y32406324D01*
X16724381Y32406324D02*
X16629143Y32311086D01*
X16629143Y32311086D02*
X16533905Y32263467D01*
X17724381Y32549181D02*
X17819619Y32549181D01*
X17819619Y32549181D02*
X17914857Y32501562D01*
X17914857Y32501562D02*
X17962476Y32453943D01*
X17962476Y32453943D02*
X18010095Y32358705D01*
X18010095Y32358705D02*
X18057714Y32168229D01*
X18057714Y32168229D02*
X18057714Y31930134D01*
X18057714Y31930134D02*
X18010095Y31739658D01*
X18010095Y31739658D02*
X17962476Y31644420D01*
X17962476Y31644420D02*
X17914857Y31596800D01*
X17914857Y31596800D02*
X17819619Y31549181D01*
X17819619Y31549181D02*
X17724381Y31549181D01*
X17724381Y31549181D02*
X17629143Y31596800D01*
X17629143Y31596800D02*
X17581524Y31644420D01*
X17581524Y31644420D02*
X17533905Y31739658D01*
X17533905Y31739658D02*
X17486286Y31930134D01*
X17486286Y31930134D02*
X17486286Y32168229D01*
X17486286Y32168229D02*
X17533905Y32358705D01*
X17533905Y32358705D02*
X17581524Y32453943D01*
X17581524Y32453943D02*
X17629143Y32501562D01*
X17629143Y32501562D02*
X17724381Y32549181D01*
X18391048Y32549181D02*
X19010095Y32549181D01*
X19010095Y32549181D02*
X18676762Y32168229D01*
X18676762Y32168229D02*
X18819619Y32168229D01*
X18819619Y32168229D02*
X18914857Y32120610D01*
X18914857Y32120610D02*
X18962476Y32072991D01*
X18962476Y32072991D02*
X19010095Y31977753D01*
X19010095Y31977753D02*
X19010095Y31739658D01*
X19010095Y31739658D02*
X18962476Y31644420D01*
X18962476Y31644420D02*
X18914857Y31596800D01*
X18914857Y31596800D02*
X18819619Y31549181D01*
X18819619Y31549181D02*
X18533905Y31549181D01*
X18533905Y31549181D02*
X18438667Y31596800D01*
X18438667Y31596800D02*
X18391048Y31644420D01*
D17*
%TO.C,R104*%
X10699500Y34074000D02*
X10699500Y32474000D01*
X9874500Y34074000D02*
X10699500Y34074000D01*
X10699500Y32474000D02*
X9874500Y32474000D01*
X9874500Y32474000D02*
X9874500Y34074000D01*
%TO.C,R105*%
X24781000Y33293500D02*
X24781000Y32243500D01*
X24241000Y33293500D02*
X24781000Y33293500D01*
X24781000Y32243500D02*
X24241000Y32243500D01*
X24241000Y32243500D02*
X24241000Y33293500D01*
%TO.C,U104*%
X13843000Y19216500D02*
X14843000Y20216500D01*
X13843000Y15216500D02*
X13843000Y19216500D01*
X14843000Y20216500D02*
X18843000Y20216500D01*
X18843000Y20216500D02*
X18843000Y15216500D01*
X18843000Y15216500D02*
X13843000Y15216500D01*
%TO.C,C216*%
X35040670Y20106223D02*
X35747777Y20813330D01*
X35394223Y19752670D02*
X35040670Y20106223D01*
X35747777Y20813330D02*
X36101330Y20459777D01*
X36101330Y20459777D02*
X35394223Y19752670D01*
%TO.C,U201*%
X33726000Y20420000D02*
X32726000Y19420000D01*
X33726000Y26420000D02*
X33726000Y20420000D01*
X32726000Y19420000D02*
X26726000Y19420000D01*
X26726000Y19420000D02*
X26726000Y26420000D01*
X26726000Y26420000D02*
X33726000Y26420000D01*
%TO.C,U102*%
X16565000Y27178500D02*
X16565000Y21478500D01*
X16565000Y27178500D02*
X17565000Y28178500D01*
X16565000Y21478500D02*
X20265000Y21478500D01*
X17565000Y28178500D02*
X20265000Y28178500D01*
X20265000Y28178500D02*
X20265000Y21478500D01*
%TO.C,SW102*%
X31221000Y35365000D02*
X31221000Y35865000D01*
X31221000Y39565000D02*
X31221000Y39065000D01*
X30721000Y36065000D02*
X29721000Y35065000D01*
X30721000Y36215000D02*
X30721000Y36065000D01*
X30721000Y38865000D02*
X30721000Y38715000D01*
X29721000Y35065000D02*
X29571000Y35065000D01*
X29721000Y39865000D02*
X30721000Y38865000D01*
X29571000Y39865000D02*
X29721000Y39865000D01*
X27071000Y35065000D02*
X26921000Y35065000D01*
X26921000Y35065000D02*
X25921000Y36065000D01*
X26921000Y39865000D02*
X27071000Y39865000D01*
X25921000Y36065000D02*
X25921000Y36215000D01*
X25921000Y38715000D02*
X25921000Y38865000D01*
X25921000Y38865000D02*
X26921000Y39865000D01*
X25421000Y35365000D02*
X25421000Y35865000D01*
X25421000Y39565000D02*
X25421000Y39065000D01*
X29321000Y37465000D02*
G75*
G03*
X29321000Y37465000I-1000000J0D01*
G01*
X31571000Y35365000D02*
X30021000Y35365000D01*
X30521000Y35865000D01*
X31571000Y35865000D01*
X31571000Y35365000D01*
X31571000Y39065000D02*
X30521000Y39065000D01*
X30021000Y39565000D01*
X31571000Y39565000D01*
X31571000Y39065000D01*
X26621000Y35365000D02*
X25071000Y35365000D01*
X25071000Y35865000D01*
X26121000Y35865000D01*
X26621000Y35365000D01*
X26121000Y39065000D02*
X25071000Y39065000D01*
X25071000Y39565000D01*
X26621000Y39565000D01*
X26121000Y39065000D01*
X30171000Y38315000D02*
X30171000Y36615000D01*
X29171000Y35615000D01*
X27471000Y35615000D01*
X26471000Y36615000D01*
X26471000Y38315000D01*
X27471000Y39315000D01*
X29171000Y39315000D01*
X30171000Y38315000D01*
X29571000Y39440000D02*
X29896000Y39440000D01*
X30296000Y39040000D01*
X30296000Y38715000D01*
X30871000Y38715000D01*
X30871000Y36215000D01*
X30296000Y36215000D01*
X30296000Y35890000D01*
X29896000Y35490000D01*
X29571000Y35490000D01*
X29571000Y34915000D01*
X27071000Y34915000D01*
X27071000Y35490000D01*
X26746000Y35490000D01*
X26346000Y35890000D01*
X26346000Y36215000D01*
X25771000Y36215000D01*
X25771000Y38715000D01*
X26346000Y38715000D01*
X26346000Y39040000D01*
X26746000Y39440000D01*
X27071000Y39440000D01*
X27071000Y40015000D01*
X29571000Y40015000D01*
X29571000Y39440000D01*
%TO.C,R113*%
X20430000Y14938500D02*
X21480000Y14938500D01*
X20430000Y14398500D02*
X20430000Y14938500D01*
X21480000Y14938500D02*
X21480000Y14398500D01*
X21480000Y14398500D02*
X20430000Y14398500D01*
%TO.C,SW101*%
X25373000Y7053000D02*
X25373000Y6553000D01*
X25373000Y2853000D02*
X25373000Y3353000D01*
X25873000Y6353000D02*
X26873000Y7353000D01*
X25873000Y6203000D02*
X25873000Y6353000D01*
X25873000Y3553000D02*
X25873000Y3703000D01*
X26873000Y7353000D02*
X27023000Y7353000D01*
X26873000Y2553000D02*
X25873000Y3553000D01*
X27023000Y2553000D02*
X26873000Y2553000D01*
X29523000Y7353000D02*
X29673000Y7353000D01*
X29673000Y7353000D02*
X30673000Y6353000D01*
X29673000Y2553000D02*
X29523000Y2553000D01*
X30673000Y6353000D02*
X30673000Y6203000D01*
X30673000Y3703000D02*
X30673000Y3553000D01*
X30673000Y3553000D02*
X29673000Y2553000D01*
X31173000Y7053000D02*
X31173000Y6553000D01*
X31173000Y2853000D02*
X31173000Y3353000D01*
X29273000Y4953000D02*
G75*
G03*
X29273000Y4953000I-1000000J0D01*
G01*
X26073000Y6553000D02*
X25023000Y6553000D01*
X25023000Y7053000D01*
X26573000Y7053000D01*
X26073000Y6553000D01*
X26573000Y2853000D02*
X25023000Y2853000D01*
X25023000Y3353000D01*
X26073000Y3353000D01*
X26573000Y2853000D01*
X31523000Y6553000D02*
X30473000Y6553000D01*
X29973000Y7053000D01*
X31523000Y7053000D01*
X31523000Y6553000D01*
X31523000Y2853000D02*
X29973000Y2853000D01*
X30473000Y3353000D01*
X31523000Y3353000D01*
X31523000Y2853000D01*
X30123000Y5803000D02*
X30123000Y4103000D01*
X29123000Y3103000D01*
X27423000Y3103000D01*
X26423000Y4103000D01*
X26423000Y5803000D01*
X27423000Y6803000D01*
X29123000Y6803000D01*
X30123000Y5803000D01*
X29523000Y6928000D02*
X29848000Y6928000D01*
X30248000Y6528000D01*
X30248000Y6203000D01*
X30823000Y6203000D01*
X30823000Y3703000D01*
X30248000Y3703000D01*
X30248000Y3378000D01*
X29848000Y2978000D01*
X29523000Y2978000D01*
X29523000Y2403000D01*
X27023000Y2403000D01*
X27023000Y2978000D01*
X26698000Y2978000D01*
X26298000Y3378000D01*
X26298000Y3703000D01*
X25723000Y3703000D01*
X25723000Y6203000D01*
X26298000Y6203000D01*
X26298000Y6528000D01*
X26698000Y6928000D01*
X27023000Y6928000D01*
X27023000Y7503000D01*
X29523000Y7503000D01*
X29523000Y6928000D01*
%TO.C,C108*%
X12184000Y16260000D02*
X11184000Y16260000D01*
X12184000Y16760000D02*
X12184000Y16260000D01*
X11184000Y16260000D02*
X11184000Y16760000D01*
X11184000Y16760000D02*
X12184000Y16760000D01*
%TO.C,D101*%
X9987000Y23768000D02*
X10587000Y23768000D01*
X9987000Y23668000D02*
X10587000Y23668000D01*
X9987000Y23568000D02*
X10587000Y23568000D01*
X10587000Y23868000D02*
X9987000Y23868000D01*
X9987000Y23868000D02*
X9987000Y22868000D01*
X9987000Y22868000D02*
X10587000Y22868000D01*
X10587000Y22868000D02*
X10587000Y23868000D01*
%TO.C,L201*%
X36326000Y22360000D02*
X36326000Y23360000D01*
X36826000Y22360000D02*
X36326000Y22360000D01*
X36326000Y23360000D02*
X36826000Y23360000D01*
X36826000Y23360000D02*
X36826000Y22360000D01*
%TO.C,R201*%
X27195000Y16494000D02*
X26145000Y16494000D01*
X27195000Y17034000D02*
X27195000Y16494000D01*
X26145000Y16494000D02*
X26145000Y17034000D01*
X26145000Y17034000D02*
X27195000Y17034000D01*
%TO.C,K104*%
X12192000Y41208000D02*
X12192000Y36008000D01*
X12192000Y36008000D02*
X22352000Y36008000D01*
X14097000Y40148000D02*
X15097000Y41148000D01*
X14097000Y36068000D02*
X14097000Y40148000D01*
X15097000Y41148000D02*
X20447000Y41148000D01*
X20447000Y41148000D02*
X20447000Y36068000D01*
X20447000Y36068000D02*
X14097000Y36068000D01*
X22352000Y41208000D02*
X12192000Y41208000D01*
X22352000Y36008000D02*
X22352000Y41208000D01*
%TO.C,R106*%
X10699500Y40678000D02*
X10699500Y39078000D01*
X9874500Y40678000D02*
X10699500Y40678000D01*
X10699500Y39078000D02*
X9874500Y39078000D01*
X9874500Y39078000D02*
X9874500Y40678000D01*
%TO.C,R101*%
X25177500Y10768000D02*
X25177500Y9168000D01*
X24352500Y10768000D02*
X25177500Y10768000D01*
X25177500Y9168000D02*
X24352500Y9168000D01*
X24352500Y9168000D02*
X24352500Y10768000D01*
%TO.C,C204*%
X36568000Y26039000D02*
X35568000Y26039000D01*
X36568000Y26539000D02*
X36568000Y26039000D01*
X35568000Y26039000D02*
X35568000Y26539000D01*
X35568000Y26539000D02*
X36568000Y26539000D01*
%TO.C,L202*%
X36094223Y19468330D02*
X36801330Y18761223D01*
X35740670Y19114777D02*
X36094223Y19468330D01*
X36801330Y18761223D02*
X36447777Y18407670D01*
X36447777Y18407670D02*
X35740670Y19114777D01*
%TO.C,R109*%
X26273000Y32241000D02*
X26273000Y33291000D01*
X26813000Y32241000D02*
X26273000Y32241000D01*
X26273000Y33291000D02*
X26813000Y33291000D01*
X26813000Y33291000D02*
X26813000Y32241000D01*
%TO.C,D103*%
X35025000Y34226500D02*
X34525000Y34226500D01*
X34525000Y34226500D02*
X34525000Y32626500D01*
X35325000Y33926500D02*
X35025000Y34226500D01*
X35325000Y32626500D02*
X35325000Y33926500D01*
X34525000Y32626500D02*
X35325000Y32626500D01*
%TO.C,J104*%
X8067000Y37018000D02*
X8067000Y37658000D01*
X8067000Y37018000D02*
X3707000Y37018000D01*
X8067000Y37658000D02*
X3707000Y37658000D01*
X8067000Y39558000D02*
X8067000Y40198000D01*
X8067000Y39558000D02*
X3707000Y39558000D01*
X8067000Y40198000D02*
X3707000Y40198000D01*
X3707000Y36703000D02*
X3072000Y36068000D01*
X3707000Y41148000D02*
X3707000Y36703000D01*
X3072000Y36068000D02*
X1167000Y36068000D01*
X1167000Y36068000D02*
X1167000Y41148000D01*
X1167000Y37018000D02*
X-4833000Y37018000D01*
X1167000Y37658000D02*
X-4833000Y37658000D01*
X1167000Y39558000D02*
X-4833000Y39558000D01*
X1167000Y40198000D02*
X-4833000Y40198000D01*
X1167000Y41148000D02*
X3707000Y41148000D01*
X-4833000Y37018000D02*
X-4833000Y37658000D01*
X-4833000Y39558000D02*
X-4833000Y40198000D01*
%TO.C,C215*%
X28281000Y13663000D02*
X28281000Y14663000D01*
X28781000Y13663000D02*
X28281000Y13663000D01*
X28281000Y14663000D02*
X28781000Y14663000D01*
X28781000Y14663000D02*
X28781000Y13663000D01*
%TO.C,K101*%
X22352000Y1337000D02*
X22352000Y6537000D01*
X22352000Y6537000D02*
X12192000Y6537000D01*
X20447000Y2397000D02*
X19447000Y1397000D01*
X20447000Y6477000D02*
X20447000Y2397000D01*
X19447000Y1397000D02*
X14097000Y1397000D01*
X14097000Y1397000D02*
X14097000Y6477000D01*
X14097000Y6477000D02*
X20447000Y6477000D01*
X12192000Y1337000D02*
X22352000Y1337000D01*
X12192000Y6537000D02*
X12192000Y1337000D01*
%TO.C,R111*%
X11033000Y18398000D02*
X11033000Y19448000D01*
X11573000Y18398000D02*
X11033000Y18398000D01*
X11033000Y19448000D02*
X11573000Y19448000D01*
X11573000Y19448000D02*
X11573000Y18398000D01*
%TO.C,J103*%
X8067000Y30414000D02*
X8067000Y31054000D01*
X8067000Y30414000D02*
X3707000Y30414000D01*
X8067000Y31054000D02*
X3707000Y31054000D01*
X8067000Y32954000D02*
X8067000Y33594000D01*
X8067000Y32954000D02*
X3707000Y32954000D01*
X8067000Y33594000D02*
X3707000Y33594000D01*
X3707000Y30099000D02*
X3072000Y29464000D01*
X3707000Y34544000D02*
X3707000Y30099000D01*
X3072000Y29464000D02*
X1167000Y29464000D01*
X1167000Y29464000D02*
X1167000Y34544000D01*
X1167000Y30414000D02*
X-4833000Y30414000D01*
X1167000Y31054000D02*
X-4833000Y31054000D01*
X1167000Y32954000D02*
X-4833000Y32954000D01*
X1167000Y33594000D02*
X-4833000Y33594000D01*
X1167000Y34544000D02*
X3707000Y34544000D01*
X-4833000Y30414000D02*
X-4833000Y31054000D01*
X-4833000Y32954000D02*
X-4833000Y33594000D01*
%TO.C,J105*%
X7372000Y25742500D02*
X22000Y25742500D01*
X7372000Y25742500D02*
X7372000Y16802500D01*
X22000Y25742500D02*
X22000Y16802500D01*
X22000Y16802500D02*
X7372000Y16802500D01*
%TO.C,C104*%
X21977000Y20197000D02*
X20977000Y20197000D01*
X21977000Y20697000D02*
X21977000Y20197000D01*
X20977000Y20197000D02*
X20977000Y20697000D01*
X20977000Y20697000D02*
X21977000Y20697000D01*
%TO.C,C214*%
X34581000Y15387000D02*
X34581000Y14387000D01*
X34081000Y15387000D02*
X34581000Y15387000D01*
X34581000Y14387000D02*
X34081000Y14387000D01*
X34081000Y14387000D02*
X34081000Y15387000D01*
%TO.C,K102*%
X22352000Y7941000D02*
X22352000Y13141000D01*
X22352000Y13141000D02*
X12192000Y13141000D01*
X20447000Y9001000D02*
X19447000Y8001000D01*
X20447000Y13081000D02*
X20447000Y9001000D01*
X19447000Y8001000D02*
X14097000Y8001000D01*
X14097000Y8001000D02*
X14097000Y13081000D01*
X14097000Y13081000D02*
X20447000Y13081000D01*
X12192000Y7941000D02*
X22352000Y7941000D01*
X12192000Y13141000D02*
X12192000Y7941000D01*
%TO.C,D104*%
X36676000Y34226500D02*
X36176000Y34226500D01*
X36176000Y34226500D02*
X36176000Y32626500D01*
X36976000Y33926500D02*
X36676000Y34226500D01*
X36976000Y32626500D02*
X36976000Y33926500D01*
X36176000Y32626500D02*
X36976000Y32626500D01*
%TO.C,D102*%
X10587000Y18777000D02*
X9987000Y18777000D01*
X10587000Y18877000D02*
X9987000Y18877000D01*
X10587000Y18977000D02*
X9987000Y18977000D01*
X9987000Y18677000D02*
X10587000Y18677000D01*
X10587000Y18677000D02*
X10587000Y19677000D01*
X10587000Y19677000D02*
X9987000Y19677000D01*
X9987000Y19677000D02*
X9987000Y18677000D01*
%TO.C,C105*%
X34032000Y10117000D02*
X34032000Y9117000D01*
X33532000Y10117000D02*
X34032000Y10117000D01*
X34032000Y9117000D02*
X33532000Y9117000D01*
X33532000Y9117000D02*
X33532000Y10117000D01*
%TO.C,C206*%
X26170000Y18030000D02*
X27170000Y18030000D01*
X26170000Y17530000D02*
X26170000Y18030000D01*
X27170000Y18030000D02*
X27170000Y17530000D01*
X27170000Y17530000D02*
X26170000Y17530000D01*
%TO.C,C210*%
X32262000Y17026000D02*
X32262000Y18026000D01*
X32762000Y17026000D02*
X32262000Y17026000D01*
X32262000Y18026000D02*
X32762000Y18026000D01*
X32762000Y18026000D02*
X32762000Y17026000D01*
%TO.C,Q101*%
X29497500Y11220000D02*
X29822500Y11545000D01*
X29497500Y8645000D02*
X29497500Y11220000D01*
X29822500Y11545000D02*
X30797500Y11545000D01*
X30797500Y11545000D02*
X30797500Y8645000D01*
X30797500Y8645000D02*
X29497500Y8645000D01*
%TO.C,C201*%
X35810000Y23360000D02*
X35810000Y22360000D01*
X35310000Y23360000D02*
X35810000Y23360000D01*
X35810000Y22360000D02*
X35310000Y22360000D01*
X35310000Y22360000D02*
X35310000Y23360000D01*
%TO.C,R114*%
X33925000Y33418000D02*
X33925000Y32368000D01*
X33385000Y33418000D02*
X33925000Y33418000D01*
X33925000Y32368000D02*
X33385000Y32368000D01*
X33385000Y32368000D02*
X33385000Y33418000D01*
%TO.C,R110*%
X11573000Y24147000D02*
X11573000Y23097000D01*
X11033000Y24147000D02*
X11573000Y24147000D01*
X11573000Y23097000D02*
X11033000Y23097000D01*
X11033000Y23097000D02*
X11033000Y24147000D01*
%TO.C,C202*%
X35568000Y24507000D02*
X36568000Y24507000D01*
X35568000Y24007000D02*
X35568000Y24507000D01*
X36568000Y24507000D02*
X36568000Y24007000D01*
X36568000Y24007000D02*
X35568000Y24007000D01*
%TO.C,C205*%
X36614000Y27794000D02*
X35014000Y27794000D01*
X36614000Y28594000D02*
X36614000Y27794000D01*
X35014000Y27794000D02*
X35014000Y28594000D01*
X35014000Y28594000D02*
X36614000Y28594000D01*
%TO.C,R108*%
X27289000Y9062000D02*
X27289000Y10112000D01*
X27829000Y9062000D02*
X27289000Y9062000D01*
X27289000Y10112000D02*
X27829000Y10112000D01*
X27829000Y10112000D02*
X27829000Y9062000D01*
%TO.C,J101*%
X8129000Y2342000D02*
X8129000Y2982000D01*
X8129000Y2342000D02*
X3769000Y2342000D01*
X8129000Y2982000D02*
X3769000Y2982000D01*
X8129000Y4882000D02*
X8129000Y5522000D01*
X8129000Y4882000D02*
X3769000Y4882000D01*
X8129000Y5522000D02*
X3769000Y5522000D01*
X3769000Y2027000D02*
X3134000Y1392000D01*
X3769000Y6472000D02*
X3769000Y2027000D01*
X3134000Y1392000D02*
X1229000Y1392000D01*
X1229000Y1392000D02*
X1229000Y6472000D01*
X1229000Y2342000D02*
X-4771000Y2342000D01*
X1229000Y2982000D02*
X-4771000Y2982000D01*
X1229000Y4882000D02*
X-4771000Y4882000D01*
X1229000Y5522000D02*
X-4771000Y5522000D01*
X1229000Y6472000D02*
X3769000Y6472000D01*
X-4771000Y2342000D02*
X-4771000Y2982000D01*
X-4771000Y4882000D02*
X-4771000Y5522000D01*
%TO.C,C203*%
X35568000Y25523000D02*
X36568000Y25523000D01*
X35568000Y25023000D02*
X35568000Y25523000D01*
X36568000Y25523000D02*
X36568000Y25023000D01*
X36568000Y25023000D02*
X35568000Y25023000D01*
D12*
%TO.C,AE201*%
X44843000Y29108000D02*
X38893000Y29108000D01*
X38893000Y29108000D02*
X38893000Y13608000D01*
X44843000Y13608000D02*
X44843000Y29108000D01*
X38893000Y13608000D02*
X44843000Y13608000D01*
D17*
%TO.C,C103*%
X13327000Y22864000D02*
X12327000Y22864000D01*
X13327000Y23364000D02*
X13327000Y22864000D01*
X12327000Y22864000D02*
X12327000Y23364000D01*
X12327000Y23364000D02*
X13327000Y23364000D01*
%TO.C,C217*%
X37070670Y18066223D02*
X37777777Y18773330D01*
X37424223Y17712670D02*
X37070670Y18066223D01*
X37777777Y18773330D02*
X38131330Y18419777D01*
X38131330Y18419777D02*
X37424223Y17712670D01*
%TO.C,C212*%
X25181000Y25055000D02*
X25181000Y26055000D01*
X25681000Y25055000D02*
X25181000Y25055000D01*
X25181000Y26055000D02*
X25681000Y26055000D01*
X25681000Y26055000D02*
X25681000Y25055000D01*
%TO.C,R103*%
X33036000Y10112000D02*
X33036000Y9062000D01*
X32496000Y10112000D02*
X33036000Y10112000D01*
X33036000Y9062000D02*
X32496000Y9062000D01*
X32496000Y9062000D02*
X32496000Y10112000D01*
%TO.C,Y201*%
X32969000Y13263000D02*
X32969000Y15763000D01*
X32969000Y14763000D02*
X31969000Y15763000D01*
X32969000Y15763000D02*
X29769000Y15763000D01*
X29769000Y13263000D02*
X32969000Y13263000D01*
X29769000Y15763000D02*
X29769000Y13263000D01*
%TO.C,C107*%
X12184000Y15244000D02*
X11184000Y15244000D01*
X12184000Y15744000D02*
X12184000Y15244000D01*
X11184000Y15244000D02*
X11184000Y15744000D01*
X11184000Y15744000D02*
X12184000Y15744000D01*
%TO.C,U103*%
X10653000Y21802500D02*
X10653000Y20422500D01*
X10653000Y21802500D02*
X10973000Y22122500D01*
X11953000Y22122500D02*
X10973000Y22122500D01*
X11953000Y22122500D02*
X11953000Y20422500D01*
X11953000Y20422500D02*
X10653000Y20422500D01*
%TO.C,C207*%
X29980000Y28190000D02*
X30980000Y28190000D01*
X29980000Y27690000D02*
X29980000Y28190000D01*
X30980000Y28190000D02*
X30980000Y27690000D01*
X30980000Y27690000D02*
X29980000Y27690000D01*
%TO.C,R115*%
X32909000Y33418000D02*
X32909000Y32368000D01*
X32369000Y33418000D02*
X32909000Y33418000D01*
X32909000Y32368000D02*
X32369000Y32368000D01*
X32369000Y32368000D02*
X32369000Y33418000D01*
%TO.C,R107*%
X25797000Y33291000D02*
X25797000Y32241000D01*
X25257000Y33291000D02*
X25797000Y33291000D01*
X25797000Y32241000D02*
X25257000Y32241000D01*
X25257000Y32241000D02*
X25257000Y33291000D01*
%TO.C,J102*%
X8129000Y8946000D02*
X8129000Y9586000D01*
X8129000Y8946000D02*
X3769000Y8946000D01*
X8129000Y9586000D02*
X3769000Y9586000D01*
X8129000Y11486000D02*
X8129000Y12126000D01*
X8129000Y11486000D02*
X3769000Y11486000D01*
X8129000Y12126000D02*
X3769000Y12126000D01*
X3769000Y8631000D02*
X3134000Y7996000D01*
X3769000Y13076000D02*
X3769000Y8631000D01*
X3134000Y7996000D02*
X1229000Y7996000D01*
X1229000Y7996000D02*
X1229000Y13076000D01*
X1229000Y8946000D02*
X-4771000Y8946000D01*
X1229000Y9586000D02*
X-4771000Y9586000D01*
X1229000Y11486000D02*
X-4771000Y11486000D01*
X1229000Y12126000D02*
X-4771000Y12126000D01*
X1229000Y13076000D02*
X3769000Y13076000D01*
X-4771000Y8946000D02*
X-4771000Y9586000D01*
X-4771000Y11486000D02*
X-4771000Y12126000D01*
%TO.C,Q102*%
X28481500Y33510000D02*
X28806500Y33835000D01*
X28481500Y30935000D02*
X28481500Y33510000D01*
X28806500Y33835000D02*
X29781500Y33835000D01*
X29781500Y33835000D02*
X29781500Y30935000D01*
X29781500Y30935000D02*
X28481500Y30935000D01*
%TO.C,C208*%
X28948000Y27690000D02*
X27948000Y27690000D01*
X28948000Y28190000D02*
X28948000Y27690000D01*
X27948000Y27690000D02*
X27948000Y28190000D01*
X27948000Y28190000D02*
X28948000Y28190000D01*
%TO.C,C213*%
X24634000Y26055000D02*
X24634000Y25055000D01*
X24134000Y26055000D02*
X24634000Y26055000D01*
X24634000Y25055000D02*
X24134000Y25055000D01*
X24134000Y25055000D02*
X24134000Y26055000D01*
%TO.C,C211*%
X33278000Y17026000D02*
X33278000Y18026000D01*
X33778000Y17026000D02*
X33278000Y17026000D01*
X33278000Y18026000D02*
X33778000Y18026000D01*
X33778000Y18026000D02*
X33778000Y17026000D01*
%TO.C,C209*%
X34294000Y17026000D02*
X34294000Y18026000D01*
X34794000Y17026000D02*
X34294000Y17026000D01*
X34294000Y18026000D02*
X34794000Y18026000D01*
X34794000Y18026000D02*
X34794000Y17026000D01*
%TO.C,R102*%
X26701500Y10768000D02*
X26701500Y9168000D01*
X25876500Y10768000D02*
X26701500Y10768000D01*
X26701500Y9168000D02*
X25876500Y9168000D01*
X25876500Y9168000D02*
X25876500Y10768000D01*
%TO.C,R112*%
X20430000Y15891000D02*
X21480000Y15891000D01*
X20430000Y15351000D02*
X20430000Y15891000D01*
X21480000Y15891000D02*
X21480000Y15351000D01*
X21480000Y15351000D02*
X20430000Y15351000D01*
%TO.C,C106*%
X31373000Y32393000D02*
X31373000Y33393000D01*
X31873000Y32393000D02*
X31373000Y32393000D01*
X31373000Y33393000D02*
X31873000Y33393000D01*
X31873000Y33393000D02*
X31873000Y32393000D01*
%TO.C,K103*%
X12192000Y34604000D02*
X12192000Y29404000D01*
X12192000Y29404000D02*
X22352000Y29404000D01*
X14097000Y33544000D02*
X15097000Y34544000D01*
X14097000Y29464000D02*
X14097000Y33544000D01*
X15097000Y34544000D02*
X20447000Y34544000D01*
X20447000Y34544000D02*
X20447000Y29464000D01*
X20447000Y29464000D02*
X14097000Y29464000D01*
X22352000Y34604000D02*
X12192000Y34604000D01*
X22352000Y29404000D02*
X22352000Y34604000D01*
%TD*%
M02*
