G04 #@! TF.GenerationSoftware,KiCad,Pcbnew,9.0.6*
G04 #@! TF.CreationDate,2026-01-29T23:38:36+01:00*
G04 #@! TF.ProjectId,esp-atx-power,6573702d-6174-4782-9d70-6f7765722e6b,2.1.0*
G04 #@! TF.SameCoordinates,PX6f6d640PY7445a00*
G04 #@! TF.FileFunction,Copper,L2,Inr*
G04 #@! TF.FilePolarity,Positive*
%FSLAX46Y46*%
G04 Gerber Fmt 4.6, Leading zero omitted, Abs format (unit mm)*
G04 Created by KiCad (PCBNEW 9.0.6) date 2026-01-29 23:38:36*
%MOMM*%
%LPD*%
G01*
G04 APERTURE LIST*
G04 #@! TA.AperFunction,HeatsinkPad*
%ADD10O,1.000000X2.100000*%
G04 #@! TD*
G04 #@! TA.AperFunction,HeatsinkPad*
%ADD11O,1.000000X1.800000*%
G04 #@! TD*
G04 #@! TA.AperFunction,HeatsinkPad*
%ADD12C,0.600000*%
G04 #@! TD*
G04 #@! TA.AperFunction,ComponentPad*
%ADD13R,1.700000X1.700000*%
G04 #@! TD*
G04 #@! TA.AperFunction,ComponentPad*
%ADD14C,1.700000*%
G04 #@! TD*
G04 #@! TA.AperFunction,ViaPad*
%ADD15C,0.450000*%
G04 #@! TD*
G04 #@! TA.AperFunction,ViaPad*
%ADD16C,0.600000*%
G04 #@! TD*
G04 APERTURE END LIST*
D10*
G04 #@! TO.N,GND*
G04 #@! TO.C,J105*
X43893200Y17698400D03*
D11*
X43893200Y21898400D03*
D10*
X35253200Y17698400D03*
D11*
X35253200Y21898400D03*
G04 #@! TD*
D12*
G04 #@! TO.N,GND*
G04 #@! TO.C,U101*
X60730400Y10765000D03*
X59630400Y10765000D03*
X61280400Y10215000D03*
X60180400Y10215000D03*
X59080400Y10215000D03*
X60730400Y9665000D03*
X59630400Y9665000D03*
X61280400Y9115000D03*
X60180400Y9115000D03*
X59080400Y9115000D03*
X60730400Y8565000D03*
X59630400Y8565000D03*
G04 #@! TD*
D13*
G04 #@! TO.N,/PWR_SW_P*
G04 #@! TO.C,J102*
X7315200Y18160600D03*
D14*
X7315200Y20700600D03*
G04 #@! TO.N,/PWR_SW_N*
X9855200Y18160600D03*
X9855200Y20700600D03*
G04 #@! TO.N,/RST_SW_P*
X12395200Y18160600D03*
X12395200Y20700600D03*
G04 #@! TO.N,/RST_SW_N*
X14935200Y18160600D03*
X14935200Y20700600D03*
G04 #@! TO.N,/PWR_LED_N*
X17475200Y18160600D03*
X17475200Y20700600D03*
G04 #@! TO.N,/PWR_LED_P*
X20015200Y18160600D03*
X20015200Y20700600D03*
G04 #@! TO.N,/HDD_LED_N*
X22555200Y18160600D03*
X22555200Y20700600D03*
G04 #@! TO.N,/HDD_LED_P*
X25095200Y18160600D03*
X25095200Y20700600D03*
G04 #@! TO.N,+5VA*
X27635200Y18160600D03*
G04 #@! TO.N,GND*
X27635200Y20700600D03*
G04 #@! TD*
D15*
G04 #@! TO.N,GND*
X24409400Y3048000D03*
X19050000Y3048000D03*
X21691600Y3048000D03*
G04 #@! TO.N,Net-(K102-K)*
X14909800Y5334000D03*
G04 #@! TO.N,Net-(K101-K)*
X9829800Y5334000D03*
G04 #@! TO.N,/HDD_LED*
X26837803Y4572000D03*
G04 #@! TO.N,/PWR_LED*
X26212800Y4572000D03*
G04 #@! TO.N,Net-(K102-K)*
X25552400Y4572000D03*
G04 #@! TO.N,Net-(K101-K)*
X24892000Y4572000D03*
G04 #@! TO.N,/HDD_LED*
X22656800Y3302000D03*
G04 #@! TO.N,/PWR_LED*
X17551400Y3302000D03*
G04 #@! TO.N,/RST_SW*
X12369800Y3302000D03*
G04 #@! TO.N,/PWR_SW*
X7289800Y3302000D03*
D16*
G04 #@! TO.N,+3V3*
X19075400Y6832600D03*
X24130000Y6832600D03*
D15*
G04 #@! TO.N,/EN*
X35204400Y4572000D03*
X62992000Y18186400D03*
D16*
G04 #@! TO.N,+3V3*
X68376800Y20925000D03*
X44246800Y5583400D03*
X49936400Y21844000D03*
X50800000Y20874200D03*
X29334398Y5583400D03*
X69850000Y3810000D03*
X49885600Y20878800D03*
X57048400Y20624800D03*
D15*
G04 #@! TO.N,GND*
X45161200Y4161000D03*
X22301200Y8733000D03*
X64770000Y3505200D03*
X70561200Y605000D03*
X42113200Y10718800D03*
X70967600Y19401000D03*
X28752800Y14829000D03*
X14630400Y8733000D03*
X52273200Y19909000D03*
X67513200Y11171400D03*
X31394400Y605000D03*
X34544000Y4114800D03*
X42773600Y16154400D03*
X75895200Y13305000D03*
X55372000Y605000D03*
X65938400Y13152600D03*
X29514800Y15895800D03*
X32461200Y18338800D03*
X50952400Y14930600D03*
X65481200Y605000D03*
X38557200Y13254200D03*
X67513200Y14981400D03*
X62636400Y4114800D03*
X64211200Y23058600D03*
X69088000Y16048200D03*
X26720800Y19401000D03*
X70815200Y5537200D03*
X75895200Y18385000D03*
X32004000Y4114800D03*
X74625200Y8885400D03*
X44094400Y13563600D03*
X55930800Y11831800D03*
X34239200Y19807400D03*
X63347600Y20874200D03*
X70561200Y3145000D03*
X13970000Y3048000D03*
X70358000Y17115000D03*
X47752000Y17470600D03*
X73609200Y7869400D03*
X69342000Y1879600D03*
X19761200Y8733000D03*
X63855600Y9296400D03*
X73710800Y17115000D03*
X28803600Y19401000D03*
X74625200Y12441400D03*
X69799200Y20518600D03*
X26771600Y22093400D03*
X37541200Y24481000D03*
X47396400Y9241000D03*
X59283600Y15184600D03*
X62941200Y605000D03*
X29921200Y605000D03*
X7061200Y8733000D03*
X28752800Y17013400D03*
X60045600Y4465800D03*
X54965600Y7666200D03*
X61823600Y20874200D03*
X44907200Y15438600D03*
X60401200Y24481000D03*
X75895200Y15845000D03*
X34036000Y14829000D03*
X38709600Y7666200D03*
X59283600Y7061200D03*
X56997600Y12898600D03*
X24841200Y8733000D03*
X34696400Y9398000D03*
X5283200Y5939000D03*
X43332400Y15443200D03*
X52222399Y17470600D03*
X54914800Y5583400D03*
X47040800Y11125200D03*
X61772800Y13157200D03*
X35052000Y24481000D03*
X37490400Y4161000D03*
X62941200Y24481000D03*
X29921200Y24481000D03*
X65938400Y5537200D03*
X37490400Y6451600D03*
X42621200Y22855400D03*
X7061200Y1625600D03*
X50241201Y24467714D03*
X67360800Y23058600D03*
X56692800Y7666200D03*
X51358800Y7666200D03*
X56032400Y5334000D03*
X36677600Y12192000D03*
X7061200Y605000D03*
X71884800Y16052800D03*
X17221200Y605000D03*
X35204400Y605000D03*
X60452000Y14427200D03*
X28803600Y22093400D03*
X23520400Y7631189D03*
X43383200Y8733000D03*
X70307200Y10765000D03*
X29921200Y13559000D03*
X8331200Y7615400D03*
X61722000Y7061200D03*
X31394400Y12289000D03*
X63855600Y7061200D03*
X33070800Y13411200D03*
X56032400Y16251400D03*
X37185600Y15240000D03*
X39674800Y15290800D03*
X73609200Y10765000D03*
X9601200Y605000D03*
X40081200Y22855400D03*
X57759600Y12039600D03*
X53238400Y10765000D03*
X54813200Y20929600D03*
X67513200Y5532600D03*
X44958000Y18994600D03*
X42011600Y13563600D03*
X26670000Y17013400D03*
X54356000Y17826200D03*
X42824400Y9596600D03*
X44348400Y10718800D03*
X47701200Y605000D03*
X65938400Y7061200D03*
X52781200Y605000D03*
X38760400Y19248600D03*
X13411200Y7615400D03*
X42621205Y24467117D03*
X18440400Y7615400D03*
X33020000Y11023600D03*
X27381200Y605000D03*
X65938400Y16759400D03*
X67513200Y13152600D03*
X57200800Y17419800D03*
X48717200Y11074400D03*
X60452000Y12039600D03*
X53187600Y3098800D03*
X24841200Y605000D03*
X26111200Y7615400D03*
X60960000Y3403600D03*
X57708800Y9652000D03*
X30581600Y22093400D03*
X30581600Y19401000D03*
X43434000Y6548600D03*
X68021200Y24481000D03*
X63855600Y16759400D03*
X32461200Y16357600D03*
X50241200Y605000D03*
X35458400Y10972800D03*
X53136800Y19350200D03*
X54813200Y10765000D03*
X40081200Y605000D03*
X52781200Y24481000D03*
X68580000Y21996400D03*
X70256400Y7869400D03*
X36474400Y19248600D03*
X47701205Y24467515D03*
X63855600Y11226800D03*
X16510000Y3048000D03*
X58928000Y5583400D03*
X63855600Y5537200D03*
X61671200Y23058600D03*
X40132000Y4161000D03*
X57861200Y24481000D03*
X42621200Y605000D03*
X69240400Y23058600D03*
X5283200Y3856200D03*
X75895200Y10663400D03*
X40894000Y13614400D03*
X46380400Y18994600D03*
X19761200Y605000D03*
X43891200Y14422600D03*
X73101200Y19401000D03*
X67564000Y16759400D03*
X28752800Y9749000D03*
X59182000Y20574000D03*
X40081200Y24481000D03*
X75082400Y19401000D03*
X61722000Y5537200D03*
X69088000Y12441400D03*
X50952400Y17470600D03*
X73101200Y5685000D03*
X36322000Y14219400D03*
X69138800Y8936200D03*
X45415200Y13660600D03*
X46329600Y14930600D03*
X53492400Y13766800D03*
X63855600Y14981400D03*
X26771600Y23515800D03*
X57759600Y6751800D03*
X27686000Y3835400D03*
X42824400Y19147000D03*
X20980400Y7615400D03*
X58064400Y3352800D03*
X39776400Y8885400D03*
X75895200Y8225000D03*
X42570400Y20823400D03*
X57861200Y605000D03*
X70561200Y24481000D03*
X45161200Y605000D03*
X27381200Y24481000D03*
X55321200Y24481000D03*
X61722000Y16759400D03*
X67614800Y19401000D03*
X34442400Y12039600D03*
X38404800Y15240000D03*
X65481200Y24481000D03*
X29921200Y12289000D03*
X57150000Y4318000D03*
X28752800Y12289000D03*
X67513200Y7056600D03*
X27381200Y8733000D03*
X70307200Y14168600D03*
X12141200Y8733000D03*
X36728400Y9804400D03*
X14681200Y605000D03*
X68021200Y3145000D03*
X53492400Y22656800D03*
X71882000Y12441400D03*
X48869600Y3098800D03*
X32461200Y20675600D03*
X5283200Y7971000D03*
X10871200Y7615400D03*
X17221200Y8733000D03*
X66395600Y23058600D03*
X40081200Y20823400D03*
X37947600Y12035000D03*
X47040800Y16200600D03*
X71882000Y8885400D03*
X73609200Y14168600D03*
X52324000Y23211000D03*
X15951200Y7615400D03*
X32664400Y605000D03*
X37541200Y20823400D03*
X12141200Y605000D03*
X53238400Y5583400D03*
X33782000Y8072600D03*
X51511200Y16149800D03*
X54864000Y15083000D03*
X41046400Y19147000D03*
X65938400Y9296400D03*
X53543200Y16251400D03*
X47752001Y14930600D03*
X75895200Y5685000D03*
X32461200Y24481000D03*
X46075600Y23211000D03*
X40944800Y14986000D03*
X65938400Y14981400D03*
X50495200Y5634200D03*
X45161209Y24467316D03*
X68021200Y605000D03*
X46380400Y17470600D03*
X5283200Y1621000D03*
X45212000Y8733000D03*
X8432800Y3860800D03*
X50241199Y9241000D03*
X37541200Y605000D03*
X9601200Y8733000D03*
X22301200Y605000D03*
X52222400Y14930600D03*
X37541200Y22855400D03*
X58115200Y14016200D03*
X70561200Y21941000D03*
X60401200Y605000D03*
X35458400Y8178800D03*
X11430000Y3073400D03*
X32461200Y22855400D03*
X53238400Y7666200D03*
G04 #@! TO.N,/TCK*
X60452000Y18186400D03*
X31343600Y4572000D03*
G04 #@! TO.N,/TDO*
X59588400Y18186400D03*
X32664400Y4572000D03*
G04 #@! TO.N,/TMS*
X30124400Y4572000D03*
X62191800Y18186400D03*
G04 #@! TO.N,/TDI*
X61264800Y18186400D03*
X33934400Y4572000D03*
G04 #@! TO.N,/TX*
X56692800Y3149600D03*
X46482000Y4267200D03*
G04 #@! TO.N,/RX*
X55880000Y3149600D03*
X47498000Y3759200D03*
G04 #@! TO.N,/PWR_SW*
X66395600Y3149600D03*
G04 #@! TO.N,/RST_SW*
X65582800Y3149600D03*
G04 #@! TO.N,/PWR_LED*
X61925200Y3149600D03*
G04 #@! TO.N,/HDD_LED*
X54406800Y3149600D03*
G04 #@! TO.N,/USB_EDN*
X45472400Y10363200D03*
X59232800Y3149600D03*
G04 #@! TO.N,/USB_EDP*
X46272400Y10363200D03*
X60035799Y3352800D03*
G04 #@! TD*
G04 #@! TA.AperFunction,Conductor*
G04 #@! TO.N,GND*
G36*
X73764642Y24794576D02*
G01*
X74056230Y24776933D01*
X74068094Y24775493D01*
X74352495Y24723369D01*
X74364093Y24720510D01*
X74640134Y24634489D01*
X74651309Y24630252D01*
X74914979Y24511580D01*
X74925552Y24506030D01*
X74948124Y24492385D01*
X75172988Y24356448D01*
X75182826Y24349657D01*
X75410417Y24171350D01*
X75419366Y24163423D01*
X75623822Y23958967D01*
X75631749Y23950018D01*
X75810056Y23722427D01*
X75816847Y23712589D01*
X75966426Y23465159D01*
X75971982Y23454574D01*
X76090650Y23190911D01*
X76094889Y23179733D01*
X76180908Y22903698D01*
X76183769Y22892091D01*
X76235891Y22607697D01*
X76237332Y22595829D01*
X76254975Y22304244D01*
X76255156Y22298470D01*
X76255157Y22297987D01*
X76255157Y22246217D01*
X76255171Y22246046D01*
X76260620Y2869517D01*
X76260371Y2862479D01*
X76259513Y2850403D01*
X76255145Y2836955D01*
X76255144Y2789361D01*
X76254933Y2785890D01*
X76254933Y2785876D01*
X76237320Y2494781D01*
X76235879Y2482914D01*
X76183759Y2198522D01*
X76180898Y2186914D01*
X76094879Y1910877D01*
X76090640Y1899699D01*
X75971973Y1636037D01*
X75966417Y1625452D01*
X75816837Y1378021D01*
X75810046Y1368183D01*
X75631739Y1140592D01*
X75623812Y1131643D01*
X75419357Y927188D01*
X75410408Y919261D01*
X75182817Y740954D01*
X75172979Y734163D01*
X74925548Y584583D01*
X74914963Y579027D01*
X74651301Y460360D01*
X74640123Y456121D01*
X74364086Y370102D01*
X74352478Y367241D01*
X74068086Y315121D01*
X74056219Y313680D01*
X73764647Y296038D01*
X73758668Y295857D01*
X4925000Y295857D01*
X4866809Y314764D01*
X4830845Y364264D01*
X4826000Y394857D01*
X4826000Y3354727D01*
X6889300Y3354727D01*
X6889300Y3249273D01*
X6916593Y3147413D01*
X6916594Y3147411D01*
X6916594Y3147410D01*
X6959404Y3073262D01*
X6969320Y3056087D01*
X7043887Y2981520D01*
X7135213Y2928793D01*
X7237073Y2901500D01*
X7237075Y2901500D01*
X7342525Y2901500D01*
X7342527Y2901500D01*
X7444387Y2928793D01*
X7535713Y2981520D01*
X7610280Y3056087D01*
X7663007Y3147413D01*
X7690300Y3249273D01*
X7690300Y3354727D01*
X11969300Y3354727D01*
X11969300Y3249273D01*
X11996593Y3147413D01*
X11996594Y3147411D01*
X11996594Y3147410D01*
X12039404Y3073262D01*
X12049320Y3056087D01*
X12123887Y2981520D01*
X12215213Y2928793D01*
X12317073Y2901500D01*
X12317075Y2901500D01*
X12422525Y2901500D01*
X12422527Y2901500D01*
X12524387Y2928793D01*
X12615713Y2981520D01*
X12690280Y3056087D01*
X12743007Y3147413D01*
X12770300Y3249273D01*
X12770300Y3354727D01*
X17150900Y3354727D01*
X17150900Y3249273D01*
X17178193Y3147413D01*
X17178194Y3147411D01*
X17178194Y3147410D01*
X17221004Y3073262D01*
X17230920Y3056087D01*
X17305487Y2981520D01*
X17396813Y2928793D01*
X17498673Y2901500D01*
X17498675Y2901500D01*
X17604125Y2901500D01*
X17604127Y2901500D01*
X17705987Y2928793D01*
X17797313Y2981520D01*
X17871880Y3056087D01*
X17924607Y3147413D01*
X17951900Y3249273D01*
X17951900Y3354727D01*
X22256300Y3354727D01*
X22256300Y3249273D01*
X22283593Y3147413D01*
X22283594Y3147411D01*
X22283594Y3147410D01*
X22326404Y3073262D01*
X22336320Y3056087D01*
X22410887Y2981520D01*
X22502213Y2928793D01*
X22604073Y2901500D01*
X22604075Y2901500D01*
X22709525Y2901500D01*
X22709527Y2901500D01*
X22811387Y2928793D01*
X22902713Y2981520D01*
X22977280Y3056087D01*
X23030007Y3147413D01*
X23044721Y3202327D01*
X54006300Y3202327D01*
X54006300Y3096873D01*
X54017482Y3055141D01*
X54033594Y2995011D01*
X54033594Y2995010D01*
X54086318Y2903690D01*
X54086320Y2903687D01*
X54160887Y2829120D01*
X54252213Y2776393D01*
X54354073Y2749100D01*
X54354075Y2749100D01*
X54459525Y2749100D01*
X54459527Y2749100D01*
X54561387Y2776393D01*
X54652713Y2829120D01*
X54727280Y2903687D01*
X54780007Y2995013D01*
X54807300Y3096873D01*
X54807300Y3202327D01*
X55479500Y3202327D01*
X55479500Y3096873D01*
X55490682Y3055141D01*
X55506794Y2995011D01*
X55506794Y2995010D01*
X55559518Y2903690D01*
X55559520Y2903687D01*
X55634087Y2829120D01*
X55725413Y2776393D01*
X55827273Y2749100D01*
X55827275Y2749100D01*
X55932725Y2749100D01*
X55932727Y2749100D01*
X56034587Y2776393D01*
X56125913Y2829120D01*
X56200480Y2903687D01*
X56200662Y2904004D01*
X56200859Y2904181D01*
X56204429Y2908833D01*
X56205291Y2908172D01*
X56246130Y2944945D01*
X56306980Y2951343D01*
X56359969Y2920753D01*
X56372135Y2904006D01*
X56372320Y2903687D01*
X56446887Y2829120D01*
X56538213Y2776393D01*
X56640073Y2749100D01*
X56640075Y2749100D01*
X56745525Y2749100D01*
X56745527Y2749100D01*
X56847387Y2776393D01*
X56938713Y2829120D01*
X57013280Y2903687D01*
X57066007Y2995013D01*
X57093300Y3096873D01*
X57093300Y3202327D01*
X58832300Y3202327D01*
X58832300Y3096873D01*
X58843482Y3055141D01*
X58859594Y2995011D01*
X58859594Y2995010D01*
X58912318Y2903690D01*
X58912320Y2903687D01*
X58986887Y2829120D01*
X59078213Y2776393D01*
X59180073Y2749100D01*
X59180075Y2749100D01*
X59285525Y2749100D01*
X59285527Y2749100D01*
X59387387Y2776393D01*
X59478713Y2829120D01*
X59553280Y2903687D01*
X59606007Y2995013D01*
X59608368Y3003828D01*
X59641691Y3055141D01*
X59698812Y3077068D01*
X59757913Y3061233D01*
X59773993Y3048213D01*
X59789886Y3032320D01*
X59881212Y2979593D01*
X59983072Y2952300D01*
X59983074Y2952300D01*
X60088524Y2952300D01*
X60088526Y2952300D01*
X60190386Y2979593D01*
X60281712Y3032320D01*
X60356279Y3106887D01*
X60409006Y3198213D01*
X60410108Y3202327D01*
X61524700Y3202327D01*
X61524700Y3096873D01*
X61535882Y3055141D01*
X61551994Y2995011D01*
X61551994Y2995010D01*
X61604718Y2903690D01*
X61604720Y2903687D01*
X61679287Y2829120D01*
X61770613Y2776393D01*
X61872473Y2749100D01*
X61872475Y2749100D01*
X61977925Y2749100D01*
X61977927Y2749100D01*
X62079787Y2776393D01*
X62171113Y2829120D01*
X62245680Y2903687D01*
X62298407Y2995013D01*
X62325700Y3096873D01*
X62325700Y3202327D01*
X65182300Y3202327D01*
X65182300Y3096873D01*
X65193482Y3055141D01*
X65209594Y2995011D01*
X65209594Y2995010D01*
X65262318Y2903690D01*
X65262320Y2903687D01*
X65336887Y2829120D01*
X65428213Y2776393D01*
X65530073Y2749100D01*
X65530075Y2749100D01*
X65635525Y2749100D01*
X65635527Y2749100D01*
X65737387Y2776393D01*
X65828713Y2829120D01*
X65903280Y2903687D01*
X65903462Y2904004D01*
X65903659Y2904181D01*
X65907229Y2908833D01*
X65908091Y2908172D01*
X65948930Y2944945D01*
X66009780Y2951343D01*
X66062769Y2920753D01*
X66074935Y2904006D01*
X66075120Y2903687D01*
X66149687Y2829120D01*
X66241013Y2776393D01*
X66342873Y2749100D01*
X66342875Y2749100D01*
X66448325Y2749100D01*
X66448327Y2749100D01*
X66550187Y2776393D01*
X66641513Y2829120D01*
X66716080Y2903687D01*
X66768807Y2995013D01*
X66789775Y3073266D01*
X72003200Y3073266D01*
X72003200Y2821335D01*
X72042608Y2572520D01*
X72120459Y2332921D01*
X72188938Y2198522D01*
X72234830Y2108455D01*
X72382907Y1904644D01*
X72561044Y1726507D01*
X72764855Y1578430D01*
X72989321Y1464059D01*
X73228915Y1386210D01*
X73228916Y1386210D01*
X73228919Y1386209D01*
X73477735Y1346800D01*
X73477738Y1346800D01*
X73729665Y1346800D01*
X73978480Y1386209D01*
X73978481Y1386210D01*
X73978485Y1386210D01*
X74218079Y1464059D01*
X74442545Y1578430D01*
X74646356Y1726507D01*
X74824493Y1904644D01*
X74972570Y2108455D01*
X75086941Y2332921D01*
X75164790Y2572515D01*
X75192882Y2749878D01*
X75204200Y2821335D01*
X75204200Y3073266D01*
X75164791Y3322081D01*
X75152893Y3358700D01*
X75086941Y3561679D01*
X74972570Y3786145D01*
X74824493Y3989956D01*
X74646356Y4168093D01*
X74442545Y4316170D01*
X74442544Y4316171D01*
X74442542Y4316172D01*
X74218079Y4430541D01*
X73978480Y4508392D01*
X73729665Y4547800D01*
X73729662Y4547800D01*
X73477738Y4547800D01*
X73477735Y4547800D01*
X73228919Y4508392D01*
X72989320Y4430541D01*
X72764857Y4316172D01*
X72561045Y4168094D01*
X72382906Y3989955D01*
X72234828Y3786143D01*
X72120459Y3561680D01*
X72042608Y3322081D01*
X72003200Y3073266D01*
X66789775Y3073266D01*
X66796100Y3096873D01*
X66796100Y3202327D01*
X66768807Y3304187D01*
X66716080Y3395513D01*
X66641513Y3470080D01*
X66635565Y3473514D01*
X66550189Y3522806D01*
X66550188Y3522807D01*
X66550187Y3522807D01*
X66448327Y3550100D01*
X66342873Y3550100D01*
X66241013Y3522807D01*
X66241012Y3522807D01*
X66241010Y3522806D01*
X66241009Y3522806D01*
X66149689Y3470082D01*
X66075119Y3395512D01*
X66074935Y3395192D01*
X66074735Y3395012D01*
X66071171Y3390367D01*
X66070309Y3391028D01*
X66029464Y3354253D01*
X65968613Y3347859D01*
X65915626Y3378454D01*
X65903465Y3395192D01*
X65903281Y3395511D01*
X65903280Y3395513D01*
X65828713Y3470080D01*
X65822765Y3473514D01*
X65737389Y3522806D01*
X65737388Y3522807D01*
X65737387Y3522807D01*
X65635527Y3550100D01*
X65530073Y3550100D01*
X65428213Y3522807D01*
X65428212Y3522807D01*
X65428210Y3522806D01*
X65428209Y3522806D01*
X65336889Y3470082D01*
X65262318Y3395511D01*
X65209594Y3304191D01*
X65209594Y3304190D01*
X65209593Y3304188D01*
X65209593Y3304187D01*
X65182300Y3202327D01*
X62325700Y3202327D01*
X62298407Y3304187D01*
X62245680Y3395513D01*
X62171113Y3470080D01*
X62165165Y3473514D01*
X62079789Y3522806D01*
X62079788Y3522807D01*
X62079787Y3522807D01*
X61977927Y3550100D01*
X61872473Y3550100D01*
X61770613Y3522807D01*
X61770612Y3522807D01*
X61770610Y3522806D01*
X61770609Y3522806D01*
X61679289Y3470082D01*
X61604718Y3395511D01*
X61551994Y3304191D01*
X61551994Y3304190D01*
X61551993Y3304188D01*
X61551993Y3304187D01*
X61524700Y3202327D01*
X60410108Y3202327D01*
X60436299Y3300073D01*
X60436299Y3405527D01*
X60409006Y3507387D01*
X60400103Y3522807D01*
X60356280Y3598711D01*
X60356279Y3598713D01*
X60281712Y3673280D01*
X60278376Y3675206D01*
X60190388Y3726006D01*
X60190387Y3726007D01*
X60190386Y3726007D01*
X60088526Y3753300D01*
X59983072Y3753300D01*
X59881212Y3726007D01*
X59881211Y3726007D01*
X59881209Y3726006D01*
X59881208Y3726006D01*
X59789888Y3673282D01*
X59715317Y3598711D01*
X59662593Y3507391D01*
X59662590Y3507384D01*
X59660228Y3498568D01*
X59626901Y3447255D01*
X59569778Y3425332D01*
X59510678Y3441172D01*
X59494604Y3454189D01*
X59478713Y3470080D01*
X59472765Y3473514D01*
X59387389Y3522806D01*
X59387388Y3522807D01*
X59387387Y3522807D01*
X59285527Y3550100D01*
X59180073Y3550100D01*
X59078213Y3522807D01*
X59078212Y3522807D01*
X59078210Y3522806D01*
X59078209Y3522806D01*
X58986889Y3470082D01*
X58912318Y3395511D01*
X58859594Y3304191D01*
X58859594Y3304190D01*
X58859593Y3304188D01*
X58859593Y3304187D01*
X58832300Y3202327D01*
X57093300Y3202327D01*
X57066007Y3304187D01*
X57013280Y3395513D01*
X56938713Y3470080D01*
X56932765Y3473514D01*
X56847389Y3522806D01*
X56847388Y3522807D01*
X56847387Y3522807D01*
X56745527Y3550100D01*
X56640073Y3550100D01*
X56538213Y3522807D01*
X56538212Y3522807D01*
X56538210Y3522806D01*
X56538209Y3522806D01*
X56446889Y3470082D01*
X56372319Y3395512D01*
X56372135Y3395192D01*
X56371935Y3395012D01*
X56368371Y3390367D01*
X56367509Y3391028D01*
X56326664Y3354253D01*
X56265813Y3347859D01*
X56212826Y3378454D01*
X56200665Y3395192D01*
X56200481Y3395511D01*
X56200480Y3395513D01*
X56125913Y3470080D01*
X56119965Y3473514D01*
X56034589Y3522806D01*
X56034588Y3522807D01*
X56034587Y3522807D01*
X55932727Y3550100D01*
X55827273Y3550100D01*
X55725413Y3522807D01*
X55725412Y3522807D01*
X55725410Y3522806D01*
X55725409Y3522806D01*
X55634089Y3470082D01*
X55559518Y3395511D01*
X55506794Y3304191D01*
X55506794Y3304190D01*
X55506793Y3304188D01*
X55506793Y3304187D01*
X55479500Y3202327D01*
X54807300Y3202327D01*
X54780007Y3304187D01*
X54727280Y3395513D01*
X54652713Y3470080D01*
X54646765Y3473514D01*
X54561389Y3522806D01*
X54561388Y3522807D01*
X54561387Y3522807D01*
X54459527Y3550100D01*
X54354073Y3550100D01*
X54252213Y3522807D01*
X54252212Y3522807D01*
X54252210Y3522806D01*
X54252209Y3522806D01*
X54160889Y3470082D01*
X54086318Y3395511D01*
X54033594Y3304191D01*
X54033594Y3304190D01*
X54033593Y3304188D01*
X54033593Y3304187D01*
X54006300Y3202327D01*
X23044721Y3202327D01*
X23057300Y3249273D01*
X23057300Y3354727D01*
X23030007Y3456587D01*
X23020232Y3473517D01*
X22994855Y3517471D01*
X22977280Y3547913D01*
X22902713Y3622480D01*
X22811387Y3675207D01*
X22709527Y3702500D01*
X22604073Y3702500D01*
X22502213Y3675207D01*
X22502212Y3675207D01*
X22502210Y3675206D01*
X22502209Y3675206D01*
X22410889Y3622482D01*
X22336318Y3547911D01*
X22283594Y3456591D01*
X22283594Y3456590D01*
X22283593Y3456588D01*
X22283593Y3456587D01*
X22256300Y3354727D01*
X17951900Y3354727D01*
X17924607Y3456587D01*
X17914832Y3473517D01*
X17889455Y3517471D01*
X17871880Y3547913D01*
X17797313Y3622480D01*
X17705987Y3675207D01*
X17604127Y3702500D01*
X17498673Y3702500D01*
X17396813Y3675207D01*
X17396812Y3675207D01*
X17396810Y3675206D01*
X17396809Y3675206D01*
X17305489Y3622482D01*
X17230918Y3547911D01*
X17178194Y3456591D01*
X17178194Y3456590D01*
X17178193Y3456588D01*
X17178193Y3456587D01*
X17150900Y3354727D01*
X12770300Y3354727D01*
X12743007Y3456587D01*
X12733232Y3473517D01*
X12707855Y3517471D01*
X12690280Y3547913D01*
X12615713Y3622480D01*
X12524387Y3675207D01*
X12422527Y3702500D01*
X12317073Y3702500D01*
X12215213Y3675207D01*
X12215212Y3675207D01*
X12215210Y3675206D01*
X12215209Y3675206D01*
X12123889Y3622482D01*
X12049318Y3547911D01*
X11996594Y3456591D01*
X11996594Y3456590D01*
X11996593Y3456588D01*
X11996593Y3456587D01*
X11969300Y3354727D01*
X7690300Y3354727D01*
X7663007Y3456587D01*
X7653232Y3473517D01*
X7627855Y3517471D01*
X7610280Y3547913D01*
X7535713Y3622480D01*
X7444387Y3675207D01*
X7342527Y3702500D01*
X7237073Y3702500D01*
X7135213Y3675207D01*
X7135212Y3675207D01*
X7135210Y3675206D01*
X7135209Y3675206D01*
X7043889Y3622482D01*
X6969318Y3547911D01*
X6916594Y3456591D01*
X6916594Y3456590D01*
X6916593Y3456588D01*
X6916593Y3456587D01*
X6889300Y3354727D01*
X4826000Y3354727D01*
X4826000Y3811927D01*
X47097500Y3811927D01*
X47097500Y3706473D01*
X47120006Y3622480D01*
X47124794Y3604611D01*
X47124794Y3604610D01*
X47172024Y3522806D01*
X47177520Y3513287D01*
X47252087Y3438720D01*
X47343413Y3385993D01*
X47445273Y3358700D01*
X47445275Y3358700D01*
X47550725Y3358700D01*
X47550727Y3358700D01*
X47652587Y3385993D01*
X47743913Y3438720D01*
X47818480Y3513287D01*
X47871207Y3604613D01*
X47898500Y3706473D01*
X47898500Y3811927D01*
X47884182Y3865363D01*
X69429500Y3865363D01*
X69429500Y3754638D01*
X69458156Y3647694D01*
X69458158Y3647690D01*
X69513513Y3551812D01*
X69513515Y3551810D01*
X69513517Y3551807D01*
X69591807Y3473517D01*
X69591809Y3473516D01*
X69591811Y3473514D01*
X69687689Y3418159D01*
X69687693Y3418157D01*
X69794637Y3389501D01*
X69794639Y3389500D01*
X69794640Y3389500D01*
X69905361Y3389500D01*
X69905361Y3389501D01*
X70012307Y3418157D01*
X70102240Y3470080D01*
X70108188Y3473514D01*
X70108188Y3473515D01*
X70108193Y3473517D01*
X70186483Y3551807D01*
X70241843Y3647693D01*
X70270500Y3754640D01*
X70270500Y3865360D01*
X70241843Y3972307D01*
X70231654Y3989955D01*
X70186486Y4068189D01*
X70186484Y4068191D01*
X70186483Y4068193D01*
X70108193Y4146483D01*
X70108190Y4146485D01*
X70108188Y4146487D01*
X70012310Y4201842D01*
X70012306Y4201844D01*
X69905362Y4230500D01*
X69905360Y4230500D01*
X69794640Y4230500D01*
X69794637Y4230500D01*
X69687693Y4201844D01*
X69687689Y4201842D01*
X69591811Y4146487D01*
X69513513Y4068189D01*
X69458158Y3972311D01*
X69458156Y3972307D01*
X69429500Y3865363D01*
X47884182Y3865363D01*
X47871207Y3913787D01*
X47818480Y4005113D01*
X47743913Y4079680D01*
X47686876Y4112610D01*
X47652589Y4132406D01*
X47652588Y4132407D01*
X47652587Y4132407D01*
X47550727Y4159700D01*
X47445273Y4159700D01*
X47343413Y4132407D01*
X47343412Y4132407D01*
X47343410Y4132406D01*
X47343409Y4132406D01*
X47252089Y4079682D01*
X47177518Y4005111D01*
X47124794Y3913791D01*
X47124794Y3913790D01*
X47124793Y3913788D01*
X47124793Y3913787D01*
X47097500Y3811927D01*
X4826000Y3811927D01*
X4826000Y4624727D01*
X24491500Y4624727D01*
X24491500Y4519273D01*
X24517621Y4421787D01*
X24518794Y4417411D01*
X24518794Y4417410D01*
X24571518Y4326090D01*
X24571520Y4326087D01*
X24646087Y4251520D01*
X24737413Y4198793D01*
X24839273Y4171500D01*
X24839275Y4171500D01*
X24944725Y4171500D01*
X24944727Y4171500D01*
X25046587Y4198793D01*
X25137913Y4251520D01*
X25152198Y4265806D01*
X25206713Y4293581D01*
X25267145Y4284010D01*
X25292200Y4265807D01*
X25306487Y4251520D01*
X25397813Y4198793D01*
X25499673Y4171500D01*
X25499675Y4171500D01*
X25605125Y4171500D01*
X25605127Y4171500D01*
X25706987Y4198793D01*
X25798313Y4251520D01*
X25812598Y4265806D01*
X25867113Y4293581D01*
X25927545Y4284010D01*
X25952600Y4265807D01*
X25966887Y4251520D01*
X26058213Y4198793D01*
X26160073Y4171500D01*
X26160075Y4171500D01*
X26265525Y4171500D01*
X26265527Y4171500D01*
X26367387Y4198793D01*
X26458713Y4251520D01*
X26458716Y4251524D01*
X26458721Y4251526D01*
X26463864Y4255471D01*
X26465529Y4253301D01*
X26509731Y4275870D01*
X26570171Y4266350D01*
X26586174Y4254734D01*
X26586740Y4255471D01*
X26591887Y4251522D01*
X26591889Y4251521D01*
X26591890Y4251520D01*
X26683216Y4198793D01*
X26785076Y4171500D01*
X26785078Y4171500D01*
X26890528Y4171500D01*
X26890530Y4171500D01*
X26992390Y4198793D01*
X27083716Y4251520D01*
X27158283Y4326087D01*
X27211010Y4417413D01*
X27238303Y4519273D01*
X27238303Y4624727D01*
X29723900Y4624727D01*
X29723900Y4519273D01*
X29750021Y4421787D01*
X29751194Y4417411D01*
X29751194Y4417410D01*
X29803918Y4326090D01*
X29803920Y4326087D01*
X29878487Y4251520D01*
X29969813Y4198793D01*
X30071673Y4171500D01*
X30071675Y4171500D01*
X30177125Y4171500D01*
X30177127Y4171500D01*
X30278987Y4198793D01*
X30370313Y4251520D01*
X30444880Y4326087D01*
X30497607Y4417413D01*
X30524900Y4519273D01*
X30524900Y4624727D01*
X30943100Y4624727D01*
X30943100Y4519273D01*
X30969221Y4421787D01*
X30970394Y4417411D01*
X30970394Y4417410D01*
X31023118Y4326090D01*
X31023120Y4326087D01*
X31097687Y4251520D01*
X31189013Y4198793D01*
X31290873Y4171500D01*
X31290875Y4171500D01*
X31396325Y4171500D01*
X31396327Y4171500D01*
X31498187Y4198793D01*
X31589513Y4251520D01*
X31664080Y4326087D01*
X31716807Y4417413D01*
X31744100Y4519273D01*
X31744100Y4624727D01*
X32263900Y4624727D01*
X32263900Y4519273D01*
X32290021Y4421787D01*
X32291194Y4417411D01*
X32291194Y4417410D01*
X32343918Y4326090D01*
X32343920Y4326087D01*
X32418487Y4251520D01*
X32509813Y4198793D01*
X32611673Y4171500D01*
X32611675Y4171500D01*
X32717125Y4171500D01*
X32717127Y4171500D01*
X32818987Y4198793D01*
X32910313Y4251520D01*
X32984880Y4326087D01*
X33037607Y4417413D01*
X33064900Y4519273D01*
X33064900Y4624727D01*
X33533900Y4624727D01*
X33533900Y4519273D01*
X33560021Y4421787D01*
X33561194Y4417411D01*
X33561194Y4417410D01*
X33613918Y4326090D01*
X33613920Y4326087D01*
X33688487Y4251520D01*
X33779813Y4198793D01*
X33881673Y4171500D01*
X33881675Y4171500D01*
X33987125Y4171500D01*
X33987127Y4171500D01*
X34088987Y4198793D01*
X34180313Y4251520D01*
X34254880Y4326087D01*
X34307607Y4417413D01*
X34334900Y4519273D01*
X34334900Y4624727D01*
X34803900Y4624727D01*
X34803900Y4519273D01*
X34830021Y4421787D01*
X34831194Y4417411D01*
X34831194Y4417410D01*
X34883918Y4326090D01*
X34883920Y4326087D01*
X34958487Y4251520D01*
X35049813Y4198793D01*
X35151673Y4171500D01*
X35151675Y4171500D01*
X35257125Y4171500D01*
X35257127Y4171500D01*
X35358987Y4198793D01*
X35450313Y4251520D01*
X35518720Y4319927D01*
X46081500Y4319927D01*
X46081500Y4214473D01*
X46103490Y4132406D01*
X46108794Y4112611D01*
X46108794Y4112610D01*
X46134441Y4068189D01*
X46161520Y4021287D01*
X46236087Y3946720D01*
X46327413Y3893993D01*
X46429273Y3866700D01*
X46429275Y3866700D01*
X46534725Y3866700D01*
X46534727Y3866700D01*
X46636587Y3893993D01*
X46727913Y3946720D01*
X46802480Y4021287D01*
X46855207Y4112613D01*
X46882500Y4214473D01*
X46882500Y4319927D01*
X46855207Y4421787D01*
X46802480Y4513113D01*
X46727913Y4587680D01*
X46663747Y4624726D01*
X46636589Y4640406D01*
X46636588Y4640407D01*
X46636587Y4640407D01*
X46534727Y4667700D01*
X46429273Y4667700D01*
X46327413Y4640407D01*
X46327412Y4640407D01*
X46327410Y4640406D01*
X46327409Y4640406D01*
X46236089Y4587682D01*
X46161518Y4513111D01*
X46108794Y4421791D01*
X46108794Y4421790D01*
X46108793Y4421788D01*
X46108793Y4421787D01*
X46081500Y4319927D01*
X35518720Y4319927D01*
X35524880Y4326087D01*
X35577607Y4417413D01*
X35604900Y4519273D01*
X35604900Y4624727D01*
X35577607Y4726587D01*
X35524880Y4817913D01*
X35450313Y4892480D01*
X35358987Y4945207D01*
X35257127Y4972500D01*
X35151673Y4972500D01*
X35049813Y4945207D01*
X35049812Y4945207D01*
X35049810Y4945206D01*
X35049809Y4945206D01*
X34958489Y4892482D01*
X34883918Y4817911D01*
X34831194Y4726591D01*
X34831194Y4726590D01*
X34831193Y4726588D01*
X34831193Y4726587D01*
X34803900Y4624727D01*
X34334900Y4624727D01*
X34307607Y4726587D01*
X34254880Y4817913D01*
X34180313Y4892480D01*
X34088987Y4945207D01*
X33987127Y4972500D01*
X33881673Y4972500D01*
X33779813Y4945207D01*
X33779812Y4945207D01*
X33779810Y4945206D01*
X33779809Y4945206D01*
X33688489Y4892482D01*
X33613918Y4817911D01*
X33561194Y4726591D01*
X33561194Y4726590D01*
X33561193Y4726588D01*
X33561193Y4726587D01*
X33533900Y4624727D01*
X33064900Y4624727D01*
X33037607Y4726587D01*
X32984880Y4817913D01*
X32910313Y4892480D01*
X32818987Y4945207D01*
X32717127Y4972500D01*
X32611673Y4972500D01*
X32509813Y4945207D01*
X32509812Y4945207D01*
X32509810Y4945206D01*
X32509809Y4945206D01*
X32418489Y4892482D01*
X32343918Y4817911D01*
X32291194Y4726591D01*
X32291194Y4726590D01*
X32291193Y4726588D01*
X32291193Y4726587D01*
X32263900Y4624727D01*
X31744100Y4624727D01*
X31716807Y4726587D01*
X31664080Y4817913D01*
X31589513Y4892480D01*
X31498187Y4945207D01*
X31396327Y4972500D01*
X31290873Y4972500D01*
X31189013Y4945207D01*
X31189012Y4945207D01*
X31189010Y4945206D01*
X31189009Y4945206D01*
X31097689Y4892482D01*
X31023118Y4817911D01*
X30970394Y4726591D01*
X30970394Y4726590D01*
X30970393Y4726588D01*
X30970393Y4726587D01*
X30943100Y4624727D01*
X30524900Y4624727D01*
X30497607Y4726587D01*
X30444880Y4817913D01*
X30370313Y4892480D01*
X30278987Y4945207D01*
X30177127Y4972500D01*
X30071673Y4972500D01*
X29969813Y4945207D01*
X29969812Y4945207D01*
X29969810Y4945206D01*
X29969809Y4945206D01*
X29878489Y4892482D01*
X29803918Y4817911D01*
X29751194Y4726591D01*
X29751194Y4726590D01*
X29751193Y4726588D01*
X29751193Y4726587D01*
X29723900Y4624727D01*
X27238303Y4624727D01*
X27211010Y4726587D01*
X27158283Y4817913D01*
X27083716Y4892480D01*
X26992390Y4945207D01*
X26890530Y4972500D01*
X26785076Y4972500D01*
X26683216Y4945207D01*
X26683215Y4945207D01*
X26683213Y4945206D01*
X26683212Y4945206D01*
X26591887Y4892479D01*
X26586740Y4888529D01*
X26585088Y4890682D01*
X26540746Y4868111D01*
X26480318Y4877709D01*
X26464424Y4889261D01*
X26463863Y4888529D01*
X26458715Y4892479D01*
X26367389Y4945206D01*
X26367388Y4945207D01*
X26367387Y4945207D01*
X26265527Y4972500D01*
X26160073Y4972500D01*
X26058213Y4945207D01*
X26058212Y4945207D01*
X26058210Y4945206D01*
X26058209Y4945206D01*
X25966886Y4892480D01*
X25952602Y4878196D01*
X25898084Y4850419D01*
X25837653Y4859993D01*
X25812598Y4878196D01*
X25798313Y4892480D01*
X25706989Y4945206D01*
X25706988Y4945207D01*
X25706987Y4945207D01*
X25605127Y4972500D01*
X25499673Y4972500D01*
X25397813Y4945207D01*
X25397812Y4945207D01*
X25397810Y4945206D01*
X25397809Y4945206D01*
X25306486Y4892480D01*
X25292202Y4878196D01*
X25237684Y4850419D01*
X25177253Y4859993D01*
X25152198Y4878196D01*
X25137913Y4892480D01*
X25046589Y4945206D01*
X25046588Y4945207D01*
X25046587Y4945207D01*
X24944727Y4972500D01*
X24839273Y4972500D01*
X24737413Y4945207D01*
X24737412Y4945207D01*
X24737410Y4945206D01*
X24737409Y4945206D01*
X24646089Y4892482D01*
X24571518Y4817911D01*
X24518794Y4726591D01*
X24518794Y4726590D01*
X24518793Y4726588D01*
X24518793Y4726587D01*
X24491500Y4624727D01*
X4826000Y4624727D01*
X4826000Y5386727D01*
X9429300Y5386727D01*
X9429300Y5281273D01*
X9456593Y5179413D01*
X9456594Y5179411D01*
X9456594Y5179410D01*
X9509318Y5088090D01*
X9509320Y5088087D01*
X9583887Y5013520D01*
X9675213Y4960793D01*
X9777073Y4933500D01*
X9777075Y4933500D01*
X9882525Y4933500D01*
X9882527Y4933500D01*
X9984387Y4960793D01*
X10075713Y5013520D01*
X10150280Y5088087D01*
X10203007Y5179413D01*
X10230300Y5281273D01*
X10230300Y5386727D01*
X14509300Y5386727D01*
X14509300Y5281273D01*
X14536593Y5179413D01*
X14536594Y5179411D01*
X14536594Y5179410D01*
X14589318Y5088090D01*
X14589320Y5088087D01*
X14663887Y5013520D01*
X14755213Y4960793D01*
X14857073Y4933500D01*
X14857075Y4933500D01*
X14962525Y4933500D01*
X14962527Y4933500D01*
X15064387Y4960793D01*
X15155713Y5013520D01*
X15230280Y5088087D01*
X15283007Y5179413D01*
X15310300Y5281273D01*
X15310300Y5386727D01*
X15283007Y5488587D01*
X15230280Y5579913D01*
X15171430Y5638763D01*
X28913898Y5638763D01*
X28913898Y5528038D01*
X28942554Y5421094D01*
X28942556Y5421090D01*
X28997911Y5325212D01*
X28997913Y5325210D01*
X28997915Y5325207D01*
X29076205Y5246917D01*
X29076207Y5246916D01*
X29076209Y5246914D01*
X29172087Y5191559D01*
X29172091Y5191557D01*
X29279035Y5162901D01*
X29279037Y5162900D01*
X29279038Y5162900D01*
X29389759Y5162900D01*
X29389759Y5162901D01*
X29496705Y5191557D01*
X29592591Y5246917D01*
X29670881Y5325207D01*
X29726241Y5421093D01*
X29754898Y5528040D01*
X29754898Y5638760D01*
X29754897Y5638763D01*
X43826300Y5638763D01*
X43826300Y5528038D01*
X43854956Y5421094D01*
X43854958Y5421090D01*
X43910313Y5325212D01*
X43910315Y5325210D01*
X43910317Y5325207D01*
X43988607Y5246917D01*
X43988609Y5246916D01*
X43988611Y5246914D01*
X44084489Y5191559D01*
X44084493Y5191557D01*
X44191437Y5162901D01*
X44191439Y5162900D01*
X44191440Y5162900D01*
X44302161Y5162900D01*
X44302161Y5162901D01*
X44409107Y5191557D01*
X44504993Y5246917D01*
X44583283Y5325207D01*
X44638643Y5421093D01*
X44667300Y5528040D01*
X44667300Y5638760D01*
X44638643Y5745707D01*
X44638641Y5745711D01*
X44583286Y5841589D01*
X44583284Y5841591D01*
X44583283Y5841593D01*
X44504993Y5919883D01*
X44504990Y5919885D01*
X44504988Y5919887D01*
X44409110Y5975242D01*
X44409106Y5975244D01*
X44302162Y6003900D01*
X44302160Y6003900D01*
X44191440Y6003900D01*
X44191437Y6003900D01*
X44084493Y5975244D01*
X44084489Y5975242D01*
X43988611Y5919887D01*
X43910313Y5841589D01*
X43854958Y5745711D01*
X43854956Y5745707D01*
X43826300Y5638763D01*
X29754897Y5638763D01*
X29726241Y5745707D01*
X29726239Y5745711D01*
X29670884Y5841589D01*
X29670882Y5841591D01*
X29670881Y5841593D01*
X29592591Y5919883D01*
X29592588Y5919885D01*
X29592586Y5919887D01*
X29496708Y5975242D01*
X29496704Y5975244D01*
X29389760Y6003900D01*
X29389758Y6003900D01*
X29279038Y6003900D01*
X29279035Y6003900D01*
X29172091Y5975244D01*
X29172087Y5975242D01*
X29076209Y5919887D01*
X28997911Y5841589D01*
X28942556Y5745711D01*
X28942554Y5745707D01*
X28913898Y5638763D01*
X15171430Y5638763D01*
X15155713Y5654480D01*
X15064387Y5707207D01*
X14962527Y5734500D01*
X14857073Y5734500D01*
X14755213Y5707207D01*
X14755212Y5707207D01*
X14755210Y5707206D01*
X14755209Y5707206D01*
X14663889Y5654482D01*
X14589318Y5579911D01*
X14536594Y5488591D01*
X14536594Y5488590D01*
X14536593Y5488588D01*
X14536593Y5488587D01*
X14509300Y5386727D01*
X10230300Y5386727D01*
X10203007Y5488587D01*
X10150280Y5579913D01*
X10075713Y5654480D01*
X9984387Y5707207D01*
X9882527Y5734500D01*
X9777073Y5734500D01*
X9675213Y5707207D01*
X9675212Y5707207D01*
X9675210Y5707206D01*
X9675209Y5707206D01*
X9583889Y5654482D01*
X9509318Y5579911D01*
X9456594Y5488591D01*
X9456594Y5488590D01*
X9456593Y5488588D01*
X9456593Y5488587D01*
X9429300Y5386727D01*
X4826000Y5386727D01*
X4826000Y6887963D01*
X18654900Y6887963D01*
X18654900Y6777238D01*
X18683556Y6670294D01*
X18683558Y6670290D01*
X18738913Y6574412D01*
X18738915Y6574410D01*
X18738917Y6574407D01*
X18817207Y6496117D01*
X18817209Y6496116D01*
X18817211Y6496114D01*
X18913089Y6440759D01*
X18913093Y6440757D01*
X19020037Y6412101D01*
X19020039Y6412100D01*
X19020040Y6412100D01*
X19130761Y6412100D01*
X19130761Y6412101D01*
X19237707Y6440757D01*
X19333593Y6496117D01*
X19411883Y6574407D01*
X19467243Y6670293D01*
X19495900Y6777240D01*
X19495900Y6887960D01*
X19495899Y6887963D01*
X23709500Y6887963D01*
X23709500Y6777238D01*
X23738156Y6670294D01*
X23738158Y6670290D01*
X23793513Y6574412D01*
X23793515Y6574410D01*
X23793517Y6574407D01*
X23871807Y6496117D01*
X23871809Y6496116D01*
X23871811Y6496114D01*
X23967689Y6440759D01*
X23967693Y6440757D01*
X24074637Y6412101D01*
X24074639Y6412100D01*
X24074640Y6412100D01*
X24185361Y6412100D01*
X24185361Y6412101D01*
X24292307Y6440757D01*
X24388193Y6496117D01*
X24466483Y6574407D01*
X24521843Y6670293D01*
X24550500Y6777240D01*
X24550500Y6887960D01*
X24521843Y6994907D01*
X24521841Y6994911D01*
X24466486Y7090789D01*
X24466484Y7090791D01*
X24466483Y7090793D01*
X24388193Y7169083D01*
X24388190Y7169085D01*
X24388188Y7169087D01*
X24292310Y7224442D01*
X24292306Y7224444D01*
X24185362Y7253100D01*
X24185360Y7253100D01*
X24074640Y7253100D01*
X24074637Y7253100D01*
X23967693Y7224444D01*
X23967689Y7224442D01*
X23871811Y7169087D01*
X23793513Y7090789D01*
X23738158Y6994911D01*
X23738156Y6994907D01*
X23709500Y6887963D01*
X19495899Y6887963D01*
X19467243Y6994907D01*
X19467241Y6994911D01*
X19411886Y7090789D01*
X19411884Y7090791D01*
X19411883Y7090793D01*
X19333593Y7169083D01*
X19333590Y7169085D01*
X19333588Y7169087D01*
X19237710Y7224442D01*
X19237706Y7224444D01*
X19130762Y7253100D01*
X19130760Y7253100D01*
X19020040Y7253100D01*
X19020037Y7253100D01*
X18913093Y7224444D01*
X18913089Y7224442D01*
X18817211Y7169087D01*
X18738913Y7090789D01*
X18683558Y6994911D01*
X18683556Y6994907D01*
X18654900Y6887963D01*
X4826000Y6887963D01*
X4826000Y9146600D01*
X4844907Y9204791D01*
X4894407Y9240755D01*
X4925000Y9245600D01*
X28397199Y9245600D01*
X28397200Y9245600D01*
X28397200Y10415927D01*
X45071900Y10415927D01*
X45071900Y10310473D01*
X45099193Y10208613D01*
X45099194Y10208611D01*
X45099194Y10208610D01*
X45151918Y10117290D01*
X45151920Y10117287D01*
X45226487Y10042720D01*
X45317813Y9989993D01*
X45419673Y9962700D01*
X45419675Y9962700D01*
X45525125Y9962700D01*
X45525127Y9962700D01*
X45626987Y9989993D01*
X45718313Y10042720D01*
X45792880Y10117287D01*
X45792883Y10117293D01*
X45793855Y10118558D01*
X45794798Y10119207D01*
X45797468Y10121876D01*
X45797962Y10121382D01*
X45844277Y10153217D01*
X45905442Y10151618D01*
X45946930Y10121475D01*
X45947332Y10121876D01*
X45949866Y10119342D01*
X45950945Y10118558D01*
X45951917Y10117291D01*
X45951918Y10117290D01*
X45951920Y10117287D01*
X46026487Y10042720D01*
X46117813Y9989993D01*
X46219673Y9962700D01*
X46219675Y9962700D01*
X46325125Y9962700D01*
X46325127Y9962700D01*
X46426987Y9989993D01*
X46518313Y10042720D01*
X46592880Y10117287D01*
X46645607Y10208613D01*
X46672900Y10310473D01*
X46672900Y10415927D01*
X46645607Y10517787D01*
X46592880Y10609113D01*
X46518313Y10683680D01*
X46426987Y10736407D01*
X46325127Y10763700D01*
X46219673Y10763700D01*
X46117813Y10736407D01*
X46117812Y10736407D01*
X46117810Y10736406D01*
X46117809Y10736406D01*
X46026489Y10683682D01*
X45951917Y10609110D01*
X45950941Y10607837D01*
X45949994Y10607187D01*
X45947332Y10604524D01*
X45946838Y10605018D01*
X45900515Y10573182D01*
X45839351Y10574785D01*
X45797868Y10604925D01*
X45797468Y10604524D01*
X45794941Y10607051D01*
X45793859Y10607837D01*
X45792882Y10609110D01*
X45792881Y10609111D01*
X45792880Y10609113D01*
X45718313Y10683680D01*
X45626987Y10736407D01*
X45525127Y10763700D01*
X45419673Y10763700D01*
X45317813Y10736407D01*
X45317812Y10736407D01*
X45317810Y10736406D01*
X45317809Y10736406D01*
X45226489Y10683682D01*
X45151918Y10609111D01*
X45099194Y10517791D01*
X45099194Y10517790D01*
X45099193Y10517788D01*
X45099193Y10517787D01*
X45071900Y10415927D01*
X28397200Y10415927D01*
X28397200Y16459200D01*
X28397199Y16459200D01*
X26311800Y16459200D01*
X26253609Y16478107D01*
X26217645Y16527607D01*
X26212800Y16558200D01*
X26212800Y18256189D01*
X26664700Y18256189D01*
X26664700Y18065012D01*
X26688447Y17945633D01*
X26698512Y17895029D01*
X26701996Y17877517D01*
X26701996Y17877515D01*
X26775152Y17700899D01*
X26877048Y17548399D01*
X26881363Y17541942D01*
X27016542Y17406763D01*
X27175496Y17300554D01*
X27175497Y17300554D01*
X27175498Y17300553D01*
X27215509Y17283980D01*
X27352116Y17227396D01*
X27539614Y17190100D01*
X27539615Y17190100D01*
X27730785Y17190100D01*
X27730786Y17190100D01*
X27918284Y17227396D01*
X28094904Y17300554D01*
X28253858Y17406763D01*
X28389037Y17541942D01*
X28495246Y17700896D01*
X28568404Y17877516D01*
X28605700Y18065014D01*
X28605700Y18256186D01*
X28591575Y18327196D01*
X34453200Y18327196D01*
X34453200Y17848401D01*
X34453201Y17848400D01*
X34953200Y17848400D01*
X34953200Y17548400D01*
X34453201Y17548400D01*
X34453200Y17548399D01*
X34453200Y17069605D01*
X34483942Y16915051D01*
X34544248Y16769460D01*
X34544252Y16769451D01*
X34631799Y16638431D01*
X34631802Y16638427D01*
X34743226Y16527003D01*
X34743230Y16527000D01*
X34874250Y16439453D01*
X34874259Y16439449D01*
X35019851Y16379143D01*
X35019850Y16379143D01*
X35103199Y16362565D01*
X35103200Y16362565D01*
X35103200Y16888592D01*
X35137404Y16868844D01*
X35213704Y16848400D01*
X35292696Y16848400D01*
X35368996Y16868844D01*
X35403200Y16888592D01*
X35403200Y16362565D01*
X35486548Y16379143D01*
X35632140Y16439449D01*
X35632149Y16439453D01*
X35763169Y16527000D01*
X35763173Y16527003D01*
X35874597Y16638427D01*
X35874600Y16638431D01*
X35962147Y16769451D01*
X35962151Y16769460D01*
X36022457Y16915051D01*
X36053199Y17069605D01*
X36053200Y17069608D01*
X36053200Y17548399D01*
X36053199Y17548400D01*
X35553200Y17548400D01*
X35553200Y17848400D01*
X36053199Y17848400D01*
X36076497Y17871698D01*
X36131013Y17899476D01*
X36191445Y17889905D01*
X36217067Y17868595D01*
X36218097Y17869624D01*
X36222683Y17865038D01*
X36222685Y17865035D01*
X36329835Y17757885D01*
X36329837Y17757884D01*
X36329839Y17757882D01*
X36461061Y17682121D01*
X36461059Y17682121D01*
X36461063Y17682120D01*
X36461065Y17682119D01*
X36607434Y17642900D01*
X36607436Y17642900D01*
X36758964Y17642900D01*
X36758966Y17642900D01*
X36905335Y17682119D01*
X36905337Y17682121D01*
X36905339Y17682121D01*
X37036560Y17757882D01*
X37036560Y17757883D01*
X37036565Y17757885D01*
X37143715Y17865035D01*
X37145770Y17868595D01*
X37219479Y17996261D01*
X37219479Y17996263D01*
X37219481Y17996265D01*
X37258700Y18142634D01*
X37258700Y18294166D01*
X41887700Y18294166D01*
X41887700Y18142634D01*
X41908498Y18065014D01*
X41926920Y17996261D01*
X42002681Y17865040D01*
X42002683Y17865038D01*
X42002685Y17865035D01*
X42109835Y17757885D01*
X42109837Y17757884D01*
X42109839Y17757882D01*
X42241061Y17682121D01*
X42241059Y17682121D01*
X42241063Y17682120D01*
X42241065Y17682119D01*
X42387434Y17642900D01*
X42387436Y17642900D01*
X42538964Y17642900D01*
X42538966Y17642900D01*
X42685335Y17682119D01*
X42816565Y17757885D01*
X42923715Y17865035D01*
X42923716Y17865038D01*
X42928303Y17869624D01*
X42930019Y17867908D01*
X42971746Y17896608D01*
X43032911Y17895029D01*
X43069902Y17871699D01*
X43093201Y17848400D01*
X43593200Y17848400D01*
X43593200Y17548400D01*
X43093201Y17548400D01*
X43093200Y17548399D01*
X43093200Y17069605D01*
X43123942Y16915051D01*
X43184248Y16769460D01*
X43184252Y16769451D01*
X43271799Y16638431D01*
X43271802Y16638427D01*
X43383226Y16527003D01*
X43383230Y16527000D01*
X43514250Y16439453D01*
X43514259Y16439449D01*
X43659851Y16379143D01*
X43659850Y16379143D01*
X43743199Y16362565D01*
X43743200Y16362565D01*
X43743200Y16888592D01*
X43777404Y16868844D01*
X43853704Y16848400D01*
X43932696Y16848400D01*
X44008996Y16868844D01*
X44043200Y16888592D01*
X44043200Y16362565D01*
X44126548Y16379143D01*
X44272140Y16439449D01*
X44272149Y16439453D01*
X44403169Y16527000D01*
X44403173Y16527003D01*
X44514597Y16638427D01*
X44514600Y16638431D01*
X44602147Y16769451D01*
X44602151Y16769460D01*
X44662457Y16915051D01*
X44693199Y17069605D01*
X44693200Y17069608D01*
X44693200Y17548399D01*
X44693199Y17548400D01*
X44193200Y17548400D01*
X44193200Y17848400D01*
X44693199Y17848400D01*
X44693200Y17848401D01*
X44693200Y18239127D01*
X59187900Y18239127D01*
X59187900Y18133673D01*
X59215193Y18031813D01*
X59215194Y18031811D01*
X59215194Y18031810D01*
X59267918Y17940490D01*
X59267920Y17940487D01*
X59342487Y17865920D01*
X59433813Y17813193D01*
X59535673Y17785900D01*
X59535675Y17785900D01*
X59641125Y17785900D01*
X59641127Y17785900D01*
X59742987Y17813193D01*
X59834313Y17865920D01*
X59908880Y17940487D01*
X59934465Y17984803D01*
X59979933Y18025741D01*
X60040783Y18032137D01*
X60093771Y18001544D01*
X60105931Y17984808D01*
X60131520Y17940487D01*
X60206087Y17865920D01*
X60297413Y17813193D01*
X60399273Y17785900D01*
X60399275Y17785900D01*
X60504725Y17785900D01*
X60504727Y17785900D01*
X60606587Y17813193D01*
X60697913Y17865920D01*
X60772480Y17940487D01*
X60772662Y17940804D01*
X60772859Y17940981D01*
X60776429Y17945633D01*
X60777291Y17944972D01*
X60818130Y17981745D01*
X60878980Y17988143D01*
X60931969Y17957553D01*
X60944135Y17940806D01*
X60944320Y17940487D01*
X61018887Y17865920D01*
X61110213Y17813193D01*
X61212073Y17785900D01*
X61212075Y17785900D01*
X61317525Y17785900D01*
X61317527Y17785900D01*
X61419387Y17813193D01*
X61510713Y17865920D01*
X61585280Y17940487D01*
X61625095Y18009450D01*
X61641252Y18037433D01*
X61643127Y18036351D01*
X61676567Y18075509D01*
X61736061Y18089796D01*
X61792591Y18066385D01*
X61814134Y18036733D01*
X61815348Y18037433D01*
X61871318Y17940490D01*
X61871320Y17940487D01*
X61945887Y17865920D01*
X62037213Y17813193D01*
X62139073Y17785900D01*
X62139075Y17785900D01*
X62244525Y17785900D01*
X62244527Y17785900D01*
X62346387Y17813193D01*
X62437713Y17865920D01*
X62512280Y17940487D01*
X62512283Y17940494D01*
X62513356Y17941890D01*
X62514398Y17942607D01*
X62516868Y17945076D01*
X62517325Y17944619D01*
X62563780Y17976547D01*
X62624944Y17974947D01*
X62666564Y17944709D01*
X62666932Y17945076D01*
X62669251Y17942757D01*
X62670444Y17941890D01*
X62671518Y17940490D01*
X62671520Y17940487D01*
X62746087Y17865920D01*
X62837413Y17813193D01*
X62939273Y17785900D01*
X62939275Y17785900D01*
X63044725Y17785900D01*
X63044727Y17785900D01*
X63146587Y17813193D01*
X63237913Y17865920D01*
X63312480Y17940487D01*
X63365207Y18031813D01*
X63392500Y18133673D01*
X63392500Y18239127D01*
X63365207Y18340987D01*
X63312480Y18432313D01*
X63237913Y18506880D01*
X63201408Y18527956D01*
X63146589Y18559606D01*
X63146588Y18559607D01*
X63146587Y18559607D01*
X63044727Y18586900D01*
X62939273Y18586900D01*
X62837413Y18559607D01*
X62837412Y18559607D01*
X62837410Y18559606D01*
X62837409Y18559606D01*
X62746089Y18506882D01*
X62671514Y18432307D01*
X62670439Y18430905D01*
X62669396Y18430189D01*
X62666932Y18427724D01*
X62666475Y18428181D01*
X62620013Y18396252D01*
X62558849Y18397856D01*
X62517234Y18428091D01*
X62516868Y18427724D01*
X62514553Y18430039D01*
X62513361Y18430905D01*
X62512285Y18432307D01*
X62512281Y18432311D01*
X62512280Y18432313D01*
X62437713Y18506880D01*
X62401208Y18527956D01*
X62346389Y18559606D01*
X62346388Y18559607D01*
X62346387Y18559607D01*
X62244527Y18586900D01*
X62139073Y18586900D01*
X62037213Y18559607D01*
X62037212Y18559607D01*
X62037210Y18559606D01*
X62037209Y18559606D01*
X61945889Y18506882D01*
X61871318Y18432311D01*
X61815348Y18335367D01*
X61813474Y18336449D01*
X61780023Y18297286D01*
X61720528Y18283006D01*
X61664001Y18306423D01*
X61642463Y18336067D01*
X61641252Y18335367D01*
X61587869Y18427828D01*
X61585280Y18432313D01*
X61510713Y18506880D01*
X61474208Y18527956D01*
X61419389Y18559606D01*
X61419388Y18559607D01*
X61419387Y18559607D01*
X61317527Y18586900D01*
X61212073Y18586900D01*
X61110213Y18559607D01*
X61110212Y18559607D01*
X61110210Y18559606D01*
X61110209Y18559606D01*
X61018889Y18506882D01*
X60944319Y18432312D01*
X60944135Y18431992D01*
X60943935Y18431812D01*
X60940371Y18427167D01*
X60939509Y18427828D01*
X60898664Y18391053D01*
X60837813Y18384659D01*
X60784826Y18415254D01*
X60772665Y18431992D01*
X60772481Y18432311D01*
X60772480Y18432313D01*
X60697913Y18506880D01*
X60661408Y18527956D01*
X60606589Y18559606D01*
X60606588Y18559607D01*
X60606587Y18559607D01*
X60504727Y18586900D01*
X60399273Y18586900D01*
X60297413Y18559607D01*
X60297412Y18559607D01*
X60297410Y18559606D01*
X60297409Y18559606D01*
X60206089Y18506882D01*
X60131518Y18432311D01*
X60105936Y18388001D01*
X60060466Y18347060D01*
X59999616Y18340664D01*
X59946628Y18371257D01*
X59934464Y18388001D01*
X59911469Y18427828D01*
X59908880Y18432313D01*
X59834313Y18506880D01*
X59797808Y18527956D01*
X59742989Y18559606D01*
X59742988Y18559607D01*
X59742987Y18559607D01*
X59641127Y18586900D01*
X59535673Y18586900D01*
X59433813Y18559607D01*
X59433812Y18559607D01*
X59433810Y18559606D01*
X59433809Y18559606D01*
X59342489Y18506882D01*
X59267918Y18432311D01*
X59215194Y18340991D01*
X59215194Y18340990D01*
X59215193Y18340988D01*
X59215193Y18340987D01*
X59187900Y18239127D01*
X44693200Y18239127D01*
X44693200Y18327193D01*
X44693199Y18327196D01*
X44662457Y18481750D01*
X44602151Y18627341D01*
X44602147Y18627350D01*
X44514600Y18758370D01*
X44514597Y18758374D01*
X44403173Y18869798D01*
X44403169Y18869801D01*
X44272149Y18957348D01*
X44272140Y18957352D01*
X44126554Y19017656D01*
X44126550Y19017657D01*
X44043200Y19034237D01*
X44043200Y18508209D01*
X44008996Y18527956D01*
X43932696Y18548400D01*
X43853704Y18548400D01*
X43777404Y18527956D01*
X43743200Y18508209D01*
X43743200Y19034237D01*
X43659849Y19017657D01*
X43659845Y19017656D01*
X43514259Y18957352D01*
X43514250Y18957348D01*
X43383230Y18869801D01*
X43383226Y18869798D01*
X43271802Y18758374D01*
X43271799Y18758370D01*
X43184252Y18627350D01*
X43184248Y18627341D01*
X43138834Y18517702D01*
X43099097Y18471176D01*
X43039602Y18456893D01*
X42983074Y18480308D01*
X42961634Y18506087D01*
X42923715Y18571765D01*
X42816565Y18678915D01*
X42816562Y18678917D01*
X42816560Y18678919D01*
X42685338Y18754680D01*
X42685340Y18754680D01*
X42628547Y18769897D01*
X42538966Y18793900D01*
X42387434Y18793900D01*
X42297852Y18769897D01*
X42241060Y18754680D01*
X42109839Y18678919D01*
X42002681Y18571761D01*
X41926920Y18440540D01*
X41913660Y18391053D01*
X41887700Y18294166D01*
X37258700Y18294166D01*
X37219481Y18440535D01*
X37219479Y18440538D01*
X37219479Y18440540D01*
X37143718Y18571761D01*
X37143716Y18571763D01*
X37143715Y18571765D01*
X37036565Y18678915D01*
X37036562Y18678917D01*
X37036560Y18678919D01*
X36905338Y18754680D01*
X36905340Y18754680D01*
X36848547Y18769897D01*
X36758966Y18793900D01*
X36607434Y18793900D01*
X36517852Y18769897D01*
X36461060Y18754680D01*
X36329839Y18678919D01*
X36222683Y18571763D01*
X36184765Y18506087D01*
X36139295Y18465147D01*
X36078445Y18458752D01*
X36025457Y18489345D01*
X36007565Y18517703D01*
X35962153Y18627338D01*
X35962147Y18627350D01*
X35874600Y18758370D01*
X35874597Y18758374D01*
X35763173Y18869798D01*
X35763169Y18869801D01*
X35632149Y18957348D01*
X35632140Y18957352D01*
X35486554Y19017656D01*
X35486550Y19017657D01*
X35403200Y19034237D01*
X35403200Y18508209D01*
X35368996Y18527956D01*
X35292696Y18548400D01*
X35213704Y18548400D01*
X35137404Y18527956D01*
X35103200Y18508209D01*
X35103200Y19034237D01*
X35019849Y19017657D01*
X35019845Y19017656D01*
X34874259Y18957352D01*
X34874250Y18957348D01*
X34743230Y18869801D01*
X34743226Y18869798D01*
X34631802Y18758374D01*
X34631799Y18758370D01*
X34544252Y18627350D01*
X34544248Y18627341D01*
X34483942Y18481750D01*
X34453200Y18327196D01*
X28591575Y18327196D01*
X28568404Y18443684D01*
X28495246Y18620304D01*
X28389037Y18779258D01*
X28253858Y18914437D01*
X28094904Y19020646D01*
X28094903Y19020647D01*
X28094901Y19020648D01*
X27918284Y19093804D01*
X27730788Y19131100D01*
X27730786Y19131100D01*
X27539614Y19131100D01*
X27539611Y19131100D01*
X27352116Y19093804D01*
X27352114Y19093804D01*
X27175498Y19020648D01*
X27016545Y18914440D01*
X26881360Y18779255D01*
X26775152Y18620302D01*
X26701996Y18443686D01*
X26701996Y18443684D01*
X26664700Y18256189D01*
X26212800Y18256189D01*
X26212800Y20791111D01*
X26485200Y20791111D01*
X26485200Y20610090D01*
X26513516Y20431311D01*
X26569450Y20259160D01*
X26651630Y20097872D01*
X26722624Y20000158D01*
X27191528Y20469064D01*
X27235101Y20393593D01*
X27328193Y20300501D01*
X27403660Y20256930D01*
X26934756Y19788026D01*
X26934756Y19788025D01*
X27032463Y19717036D01*
X27032469Y19717032D01*
X27193759Y19634851D01*
X27365910Y19578917D01*
X27544690Y19550600D01*
X27725710Y19550600D01*
X27904489Y19578917D01*
X28076640Y19634851D01*
X28237930Y19717032D01*
X28237935Y19717036D01*
X28335642Y19788025D01*
X28335642Y19788026D01*
X27866738Y20256930D01*
X27942207Y20300501D01*
X28035299Y20393593D01*
X28078870Y20469062D01*
X28547774Y20000158D01*
X28547775Y20000158D01*
X28618764Y20097865D01*
X28618768Y20097870D01*
X28700949Y20259160D01*
X28756883Y20431311D01*
X28785200Y20610090D01*
X28785200Y20791111D01*
X28756883Y20969890D01*
X28700949Y21142041D01*
X28618768Y21303331D01*
X28618764Y21303337D01*
X28547775Y21401044D01*
X28547774Y21401044D01*
X28078870Y20932140D01*
X28035299Y21007607D01*
X27942207Y21100699D01*
X27866736Y21144272D01*
X28335642Y21613176D01*
X28237928Y21684170D01*
X28204510Y21701197D01*
X28076640Y21766350D01*
X27904489Y21822284D01*
X27725710Y21850600D01*
X27544690Y21850600D01*
X27365910Y21822284D01*
X27193759Y21766350D01*
X27032469Y21684169D01*
X27032465Y21684167D01*
X26934756Y21613177D01*
X27403661Y21144272D01*
X27328193Y21100699D01*
X27235101Y21007607D01*
X27191528Y20932139D01*
X26722623Y21401044D01*
X26651633Y21303335D01*
X26651631Y21303331D01*
X26569450Y21142041D01*
X26513516Y20969890D01*
X26485200Y20791111D01*
X26212800Y20791111D01*
X26212800Y22377196D01*
X34453200Y22377196D01*
X34453200Y22048401D01*
X34453201Y22048400D01*
X34953200Y22048400D01*
X34953200Y21748400D01*
X34453201Y21748400D01*
X34453200Y21748399D01*
X34453200Y21419605D01*
X34483942Y21265051D01*
X34544248Y21119460D01*
X34544252Y21119451D01*
X34631799Y20988431D01*
X34631802Y20988427D01*
X34743226Y20877003D01*
X34743230Y20877000D01*
X34874250Y20789453D01*
X34874259Y20789449D01*
X35019851Y20729143D01*
X35019850Y20729143D01*
X35103199Y20712565D01*
X35103200Y20712565D01*
X35103200Y21238592D01*
X35137404Y21218844D01*
X35213704Y21198400D01*
X35292696Y21198400D01*
X35368996Y21218844D01*
X35403200Y21238592D01*
X35403200Y20712565D01*
X35486548Y20729143D01*
X35632140Y20789449D01*
X35632149Y20789453D01*
X35763169Y20877000D01*
X35763173Y20877003D01*
X35874597Y20988427D01*
X35874600Y20988431D01*
X35962147Y21119451D01*
X35962151Y21119460D01*
X36022457Y21265051D01*
X36053199Y21419605D01*
X36053200Y21419608D01*
X36053200Y21748399D01*
X36053199Y21748400D01*
X35553200Y21748400D01*
X35553200Y22048400D01*
X36053199Y22048400D01*
X36053200Y22048401D01*
X36053200Y22377193D01*
X36053199Y22377196D01*
X43093200Y22377196D01*
X43093200Y22048401D01*
X43093201Y22048400D01*
X43593200Y22048400D01*
X43593200Y21748400D01*
X43093201Y21748400D01*
X43093200Y21748399D01*
X43093200Y21419605D01*
X43123942Y21265051D01*
X43184248Y21119460D01*
X43184252Y21119451D01*
X43271799Y20988431D01*
X43271802Y20988427D01*
X43383226Y20877003D01*
X43383230Y20877000D01*
X43514250Y20789453D01*
X43514259Y20789449D01*
X43659851Y20729143D01*
X43659850Y20729143D01*
X43743199Y20712565D01*
X43743200Y20712565D01*
X43743200Y21238592D01*
X43777404Y21218844D01*
X43853704Y21198400D01*
X43932696Y21198400D01*
X44008996Y21218844D01*
X44043200Y21238592D01*
X44043200Y20712565D01*
X44126548Y20729143D01*
X44272140Y20789449D01*
X44272149Y20789453D01*
X44403169Y20877000D01*
X44403173Y20877003D01*
X44460333Y20934163D01*
X49465100Y20934163D01*
X49465100Y20823438D01*
X49493756Y20716494D01*
X49493758Y20716490D01*
X49549113Y20620612D01*
X49549115Y20620610D01*
X49549117Y20620607D01*
X49627407Y20542317D01*
X49627409Y20542316D01*
X49627411Y20542314D01*
X49723289Y20486959D01*
X49723293Y20486957D01*
X49830237Y20458301D01*
X49830239Y20458300D01*
X49830240Y20458300D01*
X49940961Y20458300D01*
X49940961Y20458301D01*
X50047907Y20486957D01*
X50115305Y20525870D01*
X50143788Y20542314D01*
X50143788Y20542315D01*
X50143793Y20542317D01*
X50222083Y20620607D01*
X50255736Y20678897D01*
X50301205Y20719836D01*
X50362055Y20726232D01*
X50415043Y20695639D01*
X50427206Y20678899D01*
X50463517Y20616007D01*
X50541807Y20537717D01*
X50541809Y20537716D01*
X50541811Y20537714D01*
X50637689Y20482359D01*
X50637693Y20482357D01*
X50744637Y20453701D01*
X50744639Y20453700D01*
X50744640Y20453700D01*
X50855361Y20453700D01*
X50855361Y20453701D01*
X50962307Y20482357D01*
X51058193Y20537717D01*
X51136483Y20616007D01*
X51173524Y20680163D01*
X56627900Y20680163D01*
X56627900Y20569438D01*
X56656556Y20462494D01*
X56656558Y20462490D01*
X56711913Y20366612D01*
X56711915Y20366610D01*
X56711917Y20366607D01*
X56790207Y20288317D01*
X56790209Y20288316D01*
X56790211Y20288314D01*
X56886089Y20232959D01*
X56886093Y20232957D01*
X56993037Y20204301D01*
X56993039Y20204300D01*
X56993040Y20204300D01*
X57103761Y20204300D01*
X57103761Y20204301D01*
X57210707Y20232957D01*
X57306593Y20288317D01*
X57384883Y20366607D01*
X57440243Y20462493D01*
X57468900Y20569440D01*
X57468900Y20680160D01*
X57440243Y20787107D01*
X57438889Y20789453D01*
X57384886Y20882989D01*
X57384884Y20882991D01*
X57384883Y20882993D01*
X57306593Y20961283D01*
X57306590Y20961285D01*
X57306588Y20961287D01*
X57273547Y20980363D01*
X67956300Y20980363D01*
X67956300Y20869638D01*
X67984956Y20762694D01*
X67984958Y20762690D01*
X68040313Y20666812D01*
X68040315Y20666810D01*
X68040317Y20666807D01*
X68118607Y20588517D01*
X68118609Y20588516D01*
X68118611Y20588514D01*
X68214489Y20533159D01*
X68214493Y20533157D01*
X68321437Y20504501D01*
X68321439Y20504500D01*
X68321440Y20504500D01*
X68432161Y20504500D01*
X68432161Y20504501D01*
X68539107Y20533157D01*
X68634993Y20588517D01*
X68713283Y20666807D01*
X68768643Y20762693D01*
X68797300Y20869640D01*
X68797300Y20980360D01*
X68768643Y21087307D01*
X68750084Y21119452D01*
X68713286Y21183189D01*
X68713284Y21183191D01*
X68713283Y21183193D01*
X68634993Y21261483D01*
X68634990Y21261485D01*
X68634988Y21261487D01*
X68539110Y21316842D01*
X68539106Y21316844D01*
X68432162Y21345500D01*
X68432160Y21345500D01*
X68321440Y21345500D01*
X68321437Y21345500D01*
X68214493Y21316844D01*
X68214489Y21316842D01*
X68118611Y21261487D01*
X68040313Y21183189D01*
X67984958Y21087311D01*
X67984956Y21087307D01*
X67956300Y20980363D01*
X57273547Y20980363D01*
X57210710Y21016642D01*
X57210706Y21016644D01*
X57103762Y21045300D01*
X57103760Y21045300D01*
X56993040Y21045300D01*
X56993037Y21045300D01*
X56886093Y21016644D01*
X56886089Y21016642D01*
X56790211Y20961287D01*
X56711913Y20882989D01*
X56656558Y20787111D01*
X56656556Y20787107D01*
X56627900Y20680163D01*
X51173524Y20680163D01*
X51191843Y20711893D01*
X51220500Y20818840D01*
X51220500Y20929560D01*
X51191843Y21036507D01*
X51191841Y21036511D01*
X51136486Y21132389D01*
X51136484Y21132391D01*
X51136483Y21132393D01*
X51058193Y21210683D01*
X51058190Y21210685D01*
X51058188Y21210687D01*
X50962310Y21266042D01*
X50962306Y21266044D01*
X50855362Y21294700D01*
X50855360Y21294700D01*
X50744640Y21294700D01*
X50744637Y21294700D01*
X50637693Y21266044D01*
X50637689Y21266042D01*
X50541811Y21210687D01*
X50463515Y21132391D01*
X50429863Y21074105D01*
X50384393Y21033164D01*
X50323542Y21026770D01*
X50270555Y21057363D01*
X50258391Y21074105D01*
X50222083Y21136993D01*
X50143793Y21215283D01*
X50143790Y21215285D01*
X50056262Y21265820D01*
X50015322Y21311290D01*
X50008927Y21372140D01*
X50039520Y21425128D01*
X50080139Y21447182D01*
X50098707Y21452157D01*
X50194593Y21507517D01*
X50272883Y21585807D01*
X50328243Y21681693D01*
X50356900Y21788640D01*
X50356900Y21899360D01*
X50328243Y22006307D01*
X50303940Y22048401D01*
X50272886Y22102189D01*
X50272884Y22102191D01*
X50272883Y22102193D01*
X50194593Y22180483D01*
X50194590Y22180485D01*
X50194588Y22180487D01*
X50098710Y22235842D01*
X50098706Y22235844D01*
X50068719Y22243879D01*
X72003213Y22243879D01*
X72003213Y21991948D01*
X72042621Y21743133D01*
X72120472Y21503534D01*
X72215595Y21316843D01*
X72234843Y21279068D01*
X72382920Y21075257D01*
X72561057Y20897120D01*
X72764868Y20749043D01*
X72989334Y20634672D01*
X73228928Y20556823D01*
X73228929Y20556823D01*
X73228932Y20556822D01*
X73477748Y20517413D01*
X73477751Y20517413D01*
X73729678Y20517413D01*
X73978493Y20556822D01*
X73978494Y20556823D01*
X73978498Y20556823D01*
X74218092Y20634672D01*
X74442558Y20749043D01*
X74646369Y20897120D01*
X74824506Y21075257D01*
X74972583Y21279068D01*
X75086954Y21503534D01*
X75164803Y21743128D01*
X75172011Y21788638D01*
X75204213Y21991948D01*
X75204213Y22243879D01*
X75164804Y22492694D01*
X75149934Y22538460D01*
X75086954Y22732292D01*
X74972583Y22956758D01*
X74824506Y23160569D01*
X74646369Y23338706D01*
X74442558Y23486783D01*
X74442557Y23486784D01*
X74442555Y23486785D01*
X74218092Y23601154D01*
X73978493Y23679005D01*
X73729678Y23718413D01*
X73729675Y23718413D01*
X73477751Y23718413D01*
X73477748Y23718413D01*
X73228932Y23679005D01*
X72989333Y23601154D01*
X72764870Y23486785D01*
X72561058Y23338707D01*
X72382919Y23160568D01*
X72234841Y22956756D01*
X72120472Y22732293D01*
X72042621Y22492694D01*
X72003213Y22243879D01*
X50068719Y22243879D01*
X49991762Y22264500D01*
X49991760Y22264500D01*
X49881040Y22264500D01*
X49881037Y22264500D01*
X49774093Y22235844D01*
X49774089Y22235842D01*
X49678211Y22180487D01*
X49599913Y22102189D01*
X49544558Y22006311D01*
X49544556Y22006307D01*
X49515900Y21899363D01*
X49515900Y21788638D01*
X49544556Y21681694D01*
X49544558Y21681690D01*
X49599913Y21585812D01*
X49599915Y21585810D01*
X49599917Y21585807D01*
X49678207Y21507517D01*
X49678209Y21507516D01*
X49678211Y21507514D01*
X49765736Y21456981D01*
X49806677Y21411512D01*
X49813073Y21350661D01*
X49782480Y21297673D01*
X49741862Y21275619D01*
X49723290Y21270643D01*
X49723289Y21270642D01*
X49627411Y21215287D01*
X49549113Y21136989D01*
X49493758Y21041111D01*
X49493756Y21041107D01*
X49465100Y20934163D01*
X44460333Y20934163D01*
X44514596Y20988426D01*
X44519423Y20995649D01*
X44519424Y20995651D01*
X44519425Y20995651D01*
X44602147Y21119452D01*
X44602151Y21119460D01*
X44662457Y21265051D01*
X44693199Y21419605D01*
X44693200Y21419608D01*
X44693200Y21748399D01*
X44693199Y21748400D01*
X44193200Y21748400D01*
X44193200Y22048400D01*
X44693199Y22048400D01*
X44693200Y22048401D01*
X44693200Y22377193D01*
X44693199Y22377196D01*
X44662457Y22531750D01*
X44602151Y22677341D01*
X44602147Y22677350D01*
X44514600Y22808370D01*
X44514597Y22808374D01*
X44403173Y22919798D01*
X44403169Y22919801D01*
X44272149Y23007348D01*
X44272140Y23007352D01*
X44126554Y23067656D01*
X44126550Y23067657D01*
X44043200Y23084237D01*
X44043200Y22558209D01*
X44008996Y22577956D01*
X43932696Y22598400D01*
X43853704Y22598400D01*
X43777404Y22577956D01*
X43743200Y22558209D01*
X43743200Y23084237D01*
X43659849Y23067657D01*
X43659845Y23067656D01*
X43514259Y23007352D01*
X43514250Y23007348D01*
X43383230Y22919801D01*
X43383226Y22919798D01*
X43271802Y22808374D01*
X43271799Y22808370D01*
X43184252Y22677350D01*
X43184248Y22677341D01*
X43123942Y22531750D01*
X43093200Y22377196D01*
X36053199Y22377196D01*
X36022457Y22531750D01*
X35962151Y22677341D01*
X35962147Y22677350D01*
X35874600Y22808370D01*
X35874597Y22808374D01*
X35763173Y22919798D01*
X35763169Y22919801D01*
X35632149Y23007348D01*
X35632140Y23007352D01*
X35486554Y23067656D01*
X35486550Y23067657D01*
X35403200Y23084237D01*
X35403200Y22558209D01*
X35368996Y22577956D01*
X35292696Y22598400D01*
X35213704Y22598400D01*
X35137404Y22577956D01*
X35103200Y22558209D01*
X35103200Y23084237D01*
X35019849Y23067657D01*
X35019845Y23067656D01*
X34874259Y23007352D01*
X34874250Y23007348D01*
X34743230Y22919801D01*
X34743226Y22919798D01*
X34631802Y22808374D01*
X34631799Y22808370D01*
X34544252Y22677350D01*
X34544248Y22677341D01*
X34483942Y22531750D01*
X34453200Y22377196D01*
X26212800Y22377196D01*
X26212800Y24695720D01*
X26231707Y24753911D01*
X26281207Y24789875D01*
X26311793Y24794719D01*
X73758663Y24794757D01*
X73764642Y24794576D01*
G37*
G04 #@! TD.AperFunction*
G04 #@! TD*
M02*
