%TF.GenerationSoftware,KiCad,Pcbnew,7.0.7*%
%TF.CreationDate,2024-01-20T15:39:31+01:00*%
%TF.ProjectId,esp-atx-power,6573702d-6174-4782-9d70-6f7765722e6b,1.0.0*%
%TF.SameCoordinates,PX6695f68PY7b6af88*%
%TF.FileFunction,Copper,L3,Inr*%
%TF.FilePolarity,Positive*%
%FSLAX46Y46*%
G04 Gerber Fmt 4.6, Leading zero omitted, Abs format (unit mm)*
G04 Created by KiCad (PCBNEW 7.0.7) date 2024-01-20 15:39:31*
%MOMM*%
%LPD*%
G01*
G04 APERTURE LIST*
%TA.AperFunction,ComponentPad*%
%ADD10R,1.700000X1.700000*%
%TD*%
%TA.AperFunction,ComponentPad*%
%ADD11O,1.700000X1.700000*%
%TD*%
%TA.AperFunction,ComponentPad*%
%ADD12O,2.100000X1.000000*%
%TD*%
%TA.AperFunction,ComponentPad*%
%ADD13O,1.800000X1.000000*%
%TD*%
%TA.AperFunction,ComponentPad*%
%ADD14R,0.500000X0.900000*%
%TD*%
%TA.AperFunction,ViaPad*%
%ADD15C,0.500000*%
%TD*%
%TA.AperFunction,ViaPad*%
%ADD16C,0.450000*%
%TD*%
%TA.AperFunction,ViaPad*%
%ADD17C,0.550000*%
%TD*%
%TA.AperFunction,ViaPad*%
%ADD18C,0.800000*%
%TD*%
%TA.AperFunction,ViaPad*%
%ADD19C,0.600000*%
%TD*%
%TA.AperFunction,Conductor*%
%ADD20C,0.350000*%
%TD*%
%TA.AperFunction,Conductor*%
%ADD21C,0.635000*%
%TD*%
%TA.AperFunction,Conductor*%
%ADD22C,0.254000*%
%TD*%
%TA.AperFunction,Conductor*%
%ADD23C,0.250000*%
%TD*%
%TA.AperFunction,Conductor*%
%ADD24C,0.300000*%
%TD*%
%TA.AperFunction,Conductor*%
%ADD25C,0.200000*%
%TD*%
G04 APERTURE END LIST*
D10*
%TO.N,Net-(J104-Pin_1)*%
%TO.C,J104*%
X7747000Y37338000D03*
D11*
X5207000Y37338000D03*
%TO.N,Net-(J104-Pin_3)*%
X7747000Y39878000D03*
X5207000Y39878000D03*
%TD*%
D10*
%TO.N,Net-(J103-Pin_1)*%
%TO.C,J103*%
X7747000Y30734000D03*
D11*
X5207000Y30734000D03*
%TO.N,Net-(J103-Pin_3)*%
X7747000Y33274000D03*
X5207000Y33274000D03*
%TD*%
D12*
%TO.N,GND*%
%TO.C,J105*%
X6822000Y25592500D03*
D13*
X2622000Y25592500D03*
D12*
X6822000Y16952500D03*
D13*
X2622000Y16952500D03*
%TD*%
D10*
%TO.N,Net-(J101-Pin_1)*%
%TO.C,J101*%
X7809000Y2662000D03*
D11*
X5269000Y2662000D03*
%TO.N,Net-(J101-Pin_3)*%
X7809000Y5202000D03*
X5269000Y5202000D03*
%TD*%
D14*
%TO.N,GND*%
%TO.C,AE201*%
X39243000Y14708000D03*
%TD*%
D10*
%TO.N,Net-(J102-Pin_1)*%
%TO.C,J102*%
X7809000Y9266000D03*
D11*
X5269000Y9266000D03*
%TO.N,Net-(J102-Pin_3)*%
X7809000Y11806000D03*
X5269000Y11806000D03*
%TD*%
D15*
%TO.N,+3V3*%
X13603000Y14802500D03*
D16*
X28085000Y28638500D03*
D17*
X20320000Y34671000D03*
D15*
X21971000Y19826000D03*
D16*
X31006000Y28638500D03*
X26858750Y18603750D03*
D15*
X21971000Y18669000D03*
X21971000Y21082000D03*
X33447000Y18831500D03*
D16*
X32512000Y8317000D03*
X20510500Y38671500D03*
D18*
X36576000Y29210000D03*
D19*
X35773000Y27241500D03*
D16*
X34925000Y31750000D03*
X22225000Y14605000D03*
%TO.N,GND*%
X33655000Y16129000D03*
X37465000Y11049000D03*
X18415000Y36449000D03*
X29845000Y41783000D03*
X18415000Y38989000D03*
X27305000Y5969000D03*
X17145000Y23495000D03*
X31781000Y23558500D03*
X38735000Y9779000D03*
X36195000Y3429000D03*
X33147000Y12446000D03*
X23876000Y36449000D03*
X34671000Y24892000D03*
X35052000Y14351000D03*
X18415000Y12319000D03*
X889000Y16129000D03*
X35052000Y29083000D03*
X4445000Y28448000D03*
X36527363Y20017363D03*
X33655000Y889000D03*
X34671000Y24003000D03*
X34925000Y889000D03*
X24765000Y41783000D03*
X38735000Y17653000D03*
X29576000Y21133000D03*
X18415000Y35179000D03*
X21590000Y35560000D03*
X30907000Y21133000D03*
X9525000Y16129000D03*
X26035000Y41783000D03*
X25781000Y22733000D03*
X30907000Y22288500D03*
X28067000Y12954000D03*
X19685000Y26289000D03*
X2540000Y19939000D03*
X38735000Y40259000D03*
X38735000Y5969000D03*
X889000Y22479000D03*
X37465000Y13589000D03*
X38735000Y2159000D03*
X33782000Y8128000D03*
X26035000Y889000D03*
X37465000Y9779000D03*
X23749000Y11049000D03*
X18415000Y4572000D03*
X1905000Y13970000D03*
X37465000Y21209000D03*
X18415000Y13589000D03*
X9525000Y28448000D03*
X15748000Y17145000D03*
X37592000Y20066000D03*
X38735000Y13589000D03*
X38735000Y28829000D03*
X38735000Y35179000D03*
X889000Y19939000D03*
X3175000Y13970000D03*
X33147000Y29210000D03*
X18415000Y40259000D03*
X25781000Y24003000D03*
X31781000Y22288500D03*
X25400000Y26924000D03*
X35539509Y18377589D03*
X38735000Y31369000D03*
X18415000Y11049000D03*
X17145000Y13716000D03*
X889000Y25019000D03*
X10287000Y24384000D03*
X27305000Y889000D03*
X34544000Y13589000D03*
X19685000Y21971000D03*
X38735000Y27559000D03*
X22225000Y41783000D03*
X15875000Y13716000D03*
X24511000Y22733000D03*
X28575000Y889000D03*
X27686000Y14605000D03*
X12065000Y28448000D03*
X15748000Y18288000D03*
X12065000Y13970000D03*
X30907000Y23558500D03*
X37465000Y22479000D03*
X38735000Y11049000D03*
X4445000Y18669000D03*
X9525000Y13970000D03*
X25146000Y17780000D03*
X33401000Y31115000D03*
X4445000Y16129000D03*
X36195000Y41783000D03*
X22225000Y28829000D03*
X33655000Y38989000D03*
X27305000Y41783000D03*
X32258000Y12446000D03*
X38735000Y36449000D03*
X10795000Y13970000D03*
X27686000Y13779500D03*
X18415000Y2159000D03*
X24511000Y24003000D03*
X33909000Y12954000D03*
X2540000Y22479000D03*
X889000Y18669000D03*
X34918588Y19036809D03*
X36322000Y13589000D03*
X9017000Y26289000D03*
X23876000Y7620000D03*
X38735000Y33909000D03*
X4445000Y23749000D03*
X38735000Y32639000D03*
X38735000Y12319000D03*
X29464000Y17462500D03*
X36161499Y17730844D03*
X38735000Y21209000D03*
X38735000Y37719000D03*
X9271000Y23368000D03*
X9539000Y21272500D03*
X35052000Y21209000D03*
X37352863Y19191863D03*
X18415000Y28829000D03*
X30018000Y28638500D03*
X38735000Y38989000D03*
X19939000Y16637000D03*
X38735000Y22479000D03*
X28448000Y23558500D03*
X24430000Y26924000D03*
X36322000Y16129000D03*
X36195000Y38989000D03*
X23876000Y38989000D03*
X38735000Y8509000D03*
X38735000Y25019000D03*
X31369000Y12446000D03*
X18796000Y15367000D03*
X18415000Y7239000D03*
X26797000Y7874000D03*
X34671000Y12319000D03*
X10795000Y28448000D03*
X9017000Y18542000D03*
X24003000Y13970000D03*
X29576000Y22288500D03*
X38735000Y7239000D03*
X31115000Y889000D03*
X31115000Y41783000D03*
X36195000Y5969000D03*
X38735000Y889000D03*
X13335000Y26289000D03*
X26924000Y28575000D03*
X33782000Y27940000D03*
X14605000Y13970000D03*
X18415000Y30099000D03*
X29637000Y12445481D03*
X35052000Y15240000D03*
X17145000Y28448000D03*
X13335000Y13970000D03*
X24511000Y20320000D03*
X30480000Y17462500D03*
X37465000Y27559000D03*
X29002000Y28638500D03*
X19685000Y889000D03*
X27305000Y3429000D03*
X18415000Y32639000D03*
X38735000Y18796000D03*
X30480000Y18415000D03*
X13335000Y28448000D03*
X23114000Y17653000D03*
X32004000Y28130500D03*
X36195000Y889000D03*
X18415000Y9779000D03*
X37719000Y16256000D03*
X32385000Y889000D03*
X4445000Y13970000D03*
X22225000Y889000D03*
X18415000Y3429000D03*
X29576000Y24713000D03*
X37592000Y28829000D03*
X6985000Y13970000D03*
X38735000Y3429000D03*
X36195000Y36449000D03*
X38735000Y41529000D03*
X4445000Y21209000D03*
X889000Y14859000D03*
X33655000Y26416000D03*
X23876000Y5969000D03*
X31115000Y11049000D03*
X31115000Y36449000D03*
X38735000Y4699000D03*
X37465000Y31369000D03*
X25781000Y21463000D03*
X5715000Y28448000D03*
X36195000Y8509000D03*
X34290000Y19685000D03*
X28575000Y41783000D03*
X37465000Y26289000D03*
X34925000Y41783000D03*
X18415000Y33909000D03*
X18415000Y889000D03*
X38354000Y14859000D03*
X32385000Y41783000D03*
X29845000Y889000D03*
X19685000Y23495000D03*
X38735000Y19939000D03*
X14605000Y28448000D03*
X1905000Y28448000D03*
X28829000Y12700000D03*
X30226000Y31115000D03*
X36322000Y14859000D03*
X29576000Y23558500D03*
X36449000Y21209000D03*
X23495000Y889000D03*
X36322000Y11049000D03*
X36322000Y12319000D03*
X889000Y17399000D03*
X37465000Y12319000D03*
X889000Y26289000D03*
X26035000Y36449000D03*
X4445000Y26289000D03*
X33655000Y41783000D03*
X34671000Y16129000D03*
X28067000Y15494000D03*
X889000Y21209000D03*
X16891000Y17145000D03*
X28448000Y22288500D03*
X12319000Y24130000D03*
X24511000Y12700000D03*
X24765000Y889000D03*
X38608000Y16002000D03*
X35560000Y17018000D03*
X24130000Y30861000D03*
X34671000Y23050500D03*
X25908000Y19177000D03*
X18415000Y8509000D03*
X37465000Y25019000D03*
X10287000Y17526000D03*
X38735000Y26289000D03*
X23495000Y41783000D03*
X30861000Y24713000D03*
X20955000Y41783000D03*
X28575000Y38989000D03*
X37465000Y32639000D03*
X33655000Y11049000D03*
X24511000Y21463000D03*
X16891000Y18288000D03*
X18415000Y31369000D03*
X29464000Y3429000D03*
X32385000Y3937000D03*
X29464000Y16637000D03*
X29591000Y33655000D03*
X37465000Y14859000D03*
X28829000Y16002000D03*
X38735000Y30099000D03*
X23876000Y3429000D03*
X38735000Y23749000D03*
X37465000Y41783000D03*
X18415000Y41783000D03*
X17145000Y26289000D03*
X18415000Y5969000D03*
X6985000Y28448000D03*
X20828000Y19431000D03*
X36947015Y16997576D03*
X15875000Y28448000D03*
X37465000Y23749000D03*
X30480000Y16637000D03*
X37465000Y30099000D03*
X3175000Y28448000D03*
X37465000Y889000D03*
X19685000Y27813000D03*
X32639000Y34036000D03*
X889000Y27559000D03*
X20955000Y889000D03*
X8255000Y28448000D03*
X33655000Y36449000D03*
X30480000Y12446000D03*
X5715000Y13970000D03*
X29464000Y5969000D03*
X28575000Y36449000D03*
X19685000Y41783000D03*
X889000Y23749000D03*
X18415000Y37719000D03*
X33655000Y34036000D03*
X8255000Y13970000D03*
%TO.N,VBUS*%
X12954000Y15494000D03*
X14097000Y22288500D03*
%TO.N,EN*%
X34544000Y10097000D03*
X32812000Y20256500D03*
%TO.N,BOOT*%
X32860132Y21971000D03*
X31623000Y31750000D03*
%TO.N,DTR*%
X26035000Y31496000D03*
X14605000Y21082000D03*
X28829000Y8128000D03*
%TO.N,RTS*%
X26924000Y31435000D03*
X28194000Y8636000D03*
X17717460Y21906540D03*
%TO.N,RX*%
X25400000Y16891000D03*
X16764000Y21844000D03*
%TO.N,TX*%
X15811500Y21272500D03*
X25527000Y16002000D03*
%TO.N,STATUS*%
X36576000Y31750000D03*
X32766000Y22860000D03*
%TO.N,Net-(U201-MTCK{slash}IO39)*%
X27224000Y19494500D03*
%TO.N,Net-(U201-MTD0{slash}IO40)*%
X27813000Y20320000D03*
%TO.N,Net-(U201-MTDI{slash}IO41)*%
X28702000Y20320000D03*
%TO.N,Net-(U201-MTMS{slash}IO42)*%
X29591000Y20320000D03*
%TD*%
D20*
%TO.N,+3V3*%
X35773000Y27241500D02*
X31260000Y27241500D01*
D21*
X26162000Y30099000D02*
X35687000Y30099000D01*
D22*
X33827237Y34671000D02*
X20320000Y34671000D01*
D21*
X23495000Y20320000D02*
X23495000Y27432000D01*
D22*
X20320000Y38481000D02*
X20320000Y34671000D01*
D23*
X31260000Y27241500D02*
X31260000Y28384500D01*
D21*
X35687000Y30099000D02*
X36576000Y29210000D01*
D22*
X34925000Y33573237D02*
X33827237Y34671000D01*
D23*
X26695000Y25343500D02*
X28593000Y27241500D01*
D21*
X23495000Y27432000D02*
X26162000Y30099000D01*
D24*
X33447000Y24729500D02*
X35773000Y27055500D01*
D23*
X28085000Y27749500D02*
X28593000Y27241500D01*
D22*
X21971000Y19826000D02*
X21971000Y20447000D01*
X14619000Y20510500D02*
X13603000Y19494500D01*
D21*
X23001000Y19826000D02*
X23495000Y20320000D01*
D24*
X35773000Y27055500D02*
X35773000Y27241500D01*
D22*
X21907500Y20510500D02*
X14619000Y20510500D01*
D23*
X26858750Y18603750D02*
X26695000Y18767500D01*
X26695000Y18767500D02*
X26695000Y25343500D01*
D22*
X30796000Y10033000D02*
X32512000Y8317000D01*
D20*
X31260000Y27241500D02*
X28593000Y27241500D01*
D22*
X13603000Y19494500D02*
X13603000Y14802500D01*
X22225000Y19572000D02*
X21971000Y19826000D01*
X21971000Y20447000D02*
X21907500Y20510500D01*
X25908000Y10033000D02*
X30796000Y10033000D01*
X20510500Y38671500D02*
X20320000Y38481000D01*
X22225000Y14605000D02*
X22225000Y19572000D01*
D21*
X21971000Y19826000D02*
X23001000Y19826000D01*
D20*
X20320000Y28956000D02*
X21971000Y27305000D01*
X20320000Y34671000D02*
X20320000Y28956000D01*
D24*
X33447000Y18831500D02*
X33447000Y24729500D01*
D22*
X22225000Y14605000D02*
X22225000Y13716000D01*
D23*
X31260000Y28384500D02*
X31006000Y28638500D01*
D20*
X21971000Y27305000D02*
X21971000Y19826000D01*
D22*
X34925000Y31750000D02*
X34925000Y33573237D01*
D23*
X28085000Y28638500D02*
X28085000Y27749500D01*
D22*
X22225000Y13716000D02*
X25908000Y10033000D01*
D25*
%TO.N,VBUS*%
X12954000Y15494000D02*
X12954000Y21145500D01*
X12954000Y21145500D02*
X14097000Y22288500D01*
%TD*%
%TA.AperFunction,Conductor*%
%TO.N,GND*%
G36*
X39313039Y42281159D02*
G01*
X39358794Y42228355D01*
X39370000Y42176844D01*
X39370000Y424500D01*
X39350315Y357461D01*
X39297511Y311706D01*
X39246000Y300500D01*
X18031000Y300500D01*
X17963961Y320185D01*
X17918206Y372989D01*
X17907000Y424500D01*
X17907000Y8636000D01*
X27663965Y8636000D01*
X27671072Y8582015D01*
X27682026Y8498819D01*
X27682027Y8498814D01*
X27734974Y8370985D01*
X27734975Y8370983D01*
X27734976Y8370982D01*
X27819209Y8261209D01*
X27928982Y8176976D01*
X28056817Y8124026D01*
X28194000Y8105965D01*
X28194000Y8105966D01*
X28202059Y8104904D01*
X28201860Y8103399D01*
X28260161Y8086280D01*
X28305916Y8033476D01*
X28316061Y7998148D01*
X28317025Y7990820D01*
X28317027Y7990814D01*
X28369974Y7862985D01*
X28369975Y7862983D01*
X28369976Y7862982D01*
X28454209Y7753209D01*
X28563982Y7668976D01*
X28691817Y7616026D01*
X28814702Y7599848D01*
X28828999Y7597965D01*
X28829000Y7597965D01*
X28829001Y7597965D01*
X28841947Y7599670D01*
X28966183Y7616026D01*
X29094018Y7668976D01*
X29203791Y7753209D01*
X29288024Y7862982D01*
X29340974Y7990817D01*
X29359035Y8128000D01*
X29340974Y8265183D01*
X29288024Y8393017D01*
X29203791Y8502791D01*
X29203789Y8502792D01*
X29203789Y8502793D01*
X29137220Y8553873D01*
X29094018Y8587024D01*
X29094017Y8587025D01*
X29094015Y8587026D01*
X28966186Y8639973D01*
X28966184Y8639974D01*
X28966183Y8639974D01*
X28831203Y8657745D01*
X28820942Y8659096D01*
X28821140Y8660601D01*
X28762839Y8677720D01*
X28717084Y8730524D01*
X28706939Y8765852D01*
X28705974Y8773181D01*
X28705974Y8773182D01*
X28705974Y8773183D01*
X28653024Y8901017D01*
X28568791Y9010791D01*
X28568789Y9010792D01*
X28568789Y9010793D01*
X28459015Y9095026D01*
X28331186Y9147973D01*
X28331184Y9147974D01*
X28331183Y9147974D01*
X28239727Y9160015D01*
X28194001Y9166035D01*
X28193999Y9166035D01*
X28125408Y9157005D01*
X28056817Y9147974D01*
X28056816Y9147974D01*
X28056813Y9147973D01*
X27928985Y9095026D01*
X27819209Y9010791D01*
X27734974Y8901015D01*
X27682027Y8773187D01*
X27682026Y8773184D01*
X27682026Y8773183D01*
X27663965Y8636000D01*
X17907000Y8636000D01*
X17907000Y13462000D01*
X551500Y13462000D01*
X484461Y13481685D01*
X438706Y13534489D01*
X427500Y13586000D01*
X427500Y15494000D01*
X12423965Y15494000D01*
X12442026Y15356819D01*
X12442027Y15356814D01*
X12494974Y15228985D01*
X12494975Y15228983D01*
X12494976Y15228982D01*
X12579209Y15119209D01*
X12688982Y15034976D01*
X12816817Y14982026D01*
X12944110Y14965268D01*
X13008005Y14937002D01*
X13046476Y14878677D01*
X13050862Y14826146D01*
X13047750Y14802506D01*
X13047750Y14802500D01*
X13066670Y14658792D01*
X13066671Y14658788D01*
X13122137Y14524878D01*
X13122138Y14524876D01*
X13122139Y14524875D01*
X13210379Y14409879D01*
X13325375Y14321639D01*
X13459291Y14266170D01*
X13586280Y14249452D01*
X13602999Y14247250D01*
X13603000Y14247250D01*
X13603001Y14247250D01*
X13617977Y14249222D01*
X13746709Y14266170D01*
X13880625Y14321639D01*
X13995621Y14409879D01*
X14083861Y14524875D01*
X14139330Y14658791D01*
X14158250Y14802500D01*
X14139330Y14946209D01*
X14083861Y15080125D01*
X14056123Y15116274D01*
X14030929Y15181443D01*
X14030499Y15191760D01*
X14030499Y19266062D01*
X14050184Y19333101D01*
X14066818Y19353743D01*
X14759757Y20046681D01*
X14821080Y20080166D01*
X14847438Y20083000D01*
X21166998Y20083000D01*
X21234037Y20063315D01*
X21279792Y20010511D01*
X21290996Y19959538D01*
X21291861Y19759517D01*
X21297968Y18346645D01*
X21305088Y18282385D01*
X21305089Y18282377D01*
X21316294Y18231402D01*
X21316295Y18231399D01*
X21316295Y18231398D01*
X21327110Y18193844D01*
X21383788Y18096932D01*
X21383790Y18096929D01*
X21429546Y18044124D01*
X21429556Y18044113D01*
X21474272Y18001952D01*
X21474274Y18001951D01*
X21474278Y18001947D01*
X21574354Y17951061D01*
X21641393Y17931376D01*
X21691150Y17924222D01*
X21754703Y17895198D01*
X21792477Y17836420D01*
X21797500Y17801485D01*
X21797500Y14953193D01*
X21777815Y14886154D01*
X21771877Y14877709D01*
X21765977Y14870021D01*
X21765975Y14870018D01*
X21713027Y14742187D01*
X21713026Y14742182D01*
X21694965Y14605001D01*
X21694965Y14605000D01*
X21713026Y14467819D01*
X21713027Y14467814D01*
X21765975Y14339984D01*
X21765976Y14339982D01*
X21771875Y14332294D01*
X21797069Y14267124D01*
X21797499Y14256808D01*
X21797499Y13743498D01*
X21797109Y13736552D01*
X21792972Y13699834D01*
X21803466Y13644377D01*
X21811877Y13588569D01*
X21814256Y13580860D01*
X21816933Y13573208D01*
X21843302Y13523316D01*
X21867793Y13472459D01*
X21872339Y13465792D01*
X21877147Y13459278D01*
X21877149Y13459274D01*
X21877152Y13459271D01*
X21917061Y13419361D01*
X21955442Y13377997D01*
X21955447Y13377992D01*
X21955451Y13377990D01*
X21962712Y13372199D01*
X21962154Y13371501D01*
X21974051Y13362372D01*
X25586266Y9750158D01*
X25590902Y9744970D01*
X25609053Y9722210D01*
X25613942Y9716080D01*
X25660576Y9684285D01*
X25705986Y9650771D01*
X25705988Y9650771D01*
X25713123Y9646999D01*
X25720423Y9643483D01*
X25774337Y9626854D01*
X25827625Y9608207D01*
X25835526Y9606713D01*
X25843563Y9605501D01*
X25843565Y9605500D01*
X25899981Y9605500D01*
X25956405Y9603389D01*
X25965640Y9604429D01*
X25965739Y9603543D01*
X25980610Y9605500D01*
X30567561Y9605500D01*
X30634600Y9585815D01*
X30655242Y9569181D01*
X31963502Y8260922D01*
X31996987Y8199599D01*
X31998759Y8189433D01*
X32000025Y8179820D01*
X32000025Y8179818D01*
X32052974Y8051985D01*
X32052975Y8051983D01*
X32052976Y8051982D01*
X32137209Y7942209D01*
X32246982Y7857976D01*
X32374817Y7805026D01*
X32497702Y7788848D01*
X32511999Y7786965D01*
X32512000Y7786965D01*
X32512001Y7786965D01*
X32524947Y7788670D01*
X32649183Y7805026D01*
X32777018Y7857976D01*
X32886791Y7942209D01*
X32971024Y8051982D01*
X33023974Y8179817D01*
X33042035Y8317000D01*
X33023974Y8454183D01*
X32971024Y8582017D01*
X32886791Y8691791D01*
X32886789Y8691792D01*
X32886789Y8691793D01*
X32780723Y8773181D01*
X32777018Y8776024D01*
X32777017Y8776025D01*
X32777015Y8776026D01*
X32649181Y8828975D01*
X32639567Y8830241D01*
X32575672Y8858511D01*
X32568078Y8865498D01*
X31847761Y9585815D01*
X31336576Y10097000D01*
X34013965Y10097000D01*
X34032026Y9959819D01*
X34032027Y9959814D01*
X34084974Y9831985D01*
X34084975Y9831983D01*
X34084976Y9831982D01*
X34169209Y9722209D01*
X34278982Y9637976D01*
X34406817Y9585026D01*
X34527168Y9569181D01*
X34543999Y9566965D01*
X34544000Y9566965D01*
X34544001Y9566965D01*
X34556947Y9568670D01*
X34681183Y9585026D01*
X34809018Y9637976D01*
X34918791Y9722209D01*
X35003024Y9831982D01*
X35055974Y9959817D01*
X35074035Y10097000D01*
X35055974Y10234183D01*
X35003024Y10362017D01*
X34918791Y10471791D01*
X34918789Y10471792D01*
X34918789Y10471793D01*
X34809015Y10556026D01*
X34681186Y10608973D01*
X34681184Y10608974D01*
X34681183Y10608974D01*
X34589727Y10621015D01*
X34544001Y10627035D01*
X34543999Y10627035D01*
X34475408Y10618005D01*
X34406817Y10608974D01*
X34406816Y10608974D01*
X34406813Y10608973D01*
X34278985Y10556026D01*
X34169209Y10471791D01*
X34084974Y10362015D01*
X34032027Y10234187D01*
X34032026Y10234182D01*
X34013965Y10097001D01*
X34013965Y10097000D01*
X31336576Y10097000D01*
X31117719Y10315857D01*
X31113101Y10321025D01*
X31090058Y10349920D01*
X31043423Y10381716D01*
X31000242Y10413585D01*
X30998015Y10415229D01*
X30990843Y10419019D01*
X30983582Y10422515D01*
X30929652Y10439151D01*
X30876374Y10457793D01*
X30868447Y10459293D01*
X30860436Y10460500D01*
X30860435Y10460500D01*
X30804008Y10460500D01*
X30747594Y10462612D01*
X30738360Y10461571D01*
X30738260Y10462458D01*
X30723390Y10460500D01*
X26136438Y10460500D01*
X26069399Y10480185D01*
X26048757Y10496819D01*
X22688819Y13856758D01*
X22655334Y13918081D01*
X22652500Y13944439D01*
X22652500Y14256808D01*
X22672185Y14323847D01*
X22678118Y14332287D01*
X22684024Y14339982D01*
X22736974Y14467817D01*
X22755035Y14605000D01*
X22736974Y14742183D01*
X22684024Y14870017D01*
X22684024Y14870018D01*
X22684022Y14870021D01*
X22678123Y14877709D01*
X22652930Y14942878D01*
X22652500Y14953193D01*
X22652500Y16891000D01*
X24869965Y16891000D01*
X24879778Y16816462D01*
X24888026Y16753819D01*
X24888027Y16753814D01*
X24940974Y16625985D01*
X24940975Y16625983D01*
X24940976Y16625982D01*
X25025209Y16516209D01*
X25074102Y16478691D01*
X25115304Y16422263D01*
X25119459Y16352517D01*
X25096992Y16304832D01*
X25079785Y16282407D01*
X25067974Y16267015D01*
X25015027Y16139187D01*
X25015026Y16139182D01*
X24996965Y16002001D01*
X24996965Y16002000D01*
X25015026Y15864819D01*
X25015027Y15864814D01*
X25067974Y15736985D01*
X25067975Y15736983D01*
X25067976Y15736982D01*
X25152209Y15627209D01*
X25261982Y15542976D01*
X25389817Y15490026D01*
X25512702Y15473848D01*
X25526999Y15471965D01*
X25527000Y15471965D01*
X25527001Y15471965D01*
X25539947Y15473670D01*
X25664183Y15490026D01*
X25792018Y15542976D01*
X25901791Y15627209D01*
X25986024Y15736982D01*
X26038974Y15864817D01*
X26057035Y16002000D01*
X26038974Y16139183D01*
X25986024Y16267017D01*
X25901791Y16376791D01*
X25852897Y16414310D01*
X25811696Y16470737D01*
X25807541Y16540483D01*
X25830008Y16588169D01*
X25859024Y16625982D01*
X25911974Y16753817D01*
X25930035Y16891000D01*
X25911974Y17028183D01*
X25869796Y17130011D01*
X25859025Y17156015D01*
X25859024Y17156016D01*
X25859024Y17156017D01*
X25774791Y17265791D01*
X25774789Y17265792D01*
X25774789Y17265793D01*
X25665015Y17350026D01*
X25537186Y17402973D01*
X25537184Y17402974D01*
X25537183Y17402974D01*
X25445727Y17415015D01*
X25400001Y17421035D01*
X25399999Y17421035D01*
X25331408Y17412005D01*
X25262817Y17402974D01*
X25262816Y17402974D01*
X25262813Y17402973D01*
X25134985Y17350026D01*
X25025209Y17265791D01*
X24940974Y17156015D01*
X24888027Y17028187D01*
X24888026Y17028184D01*
X24888026Y17028183D01*
X24869965Y16891000D01*
X22652500Y16891000D01*
X22652500Y17979835D01*
X22672185Y18046874D01*
X22685909Y18064507D01*
X22716108Y18096813D01*
X22766561Y18197109D01*
X22785956Y18264233D01*
X22797959Y18350357D01*
X22796447Y18700109D01*
X26269499Y18700109D01*
X26269500Y18700106D01*
X26276962Y18677142D01*
X26281503Y18658227D01*
X26284470Y18639490D01*
X26285281Y18634373D01*
X26296243Y18612859D01*
X26303688Y18594885D01*
X26311150Y18571921D01*
X26319208Y18560830D01*
X26341830Y18504131D01*
X26346776Y18466566D01*
X26399724Y18338735D01*
X26399725Y18338733D01*
X26399726Y18338732D01*
X26483959Y18228959D01*
X26593732Y18144726D01*
X26721567Y18091776D01*
X26844452Y18075598D01*
X26858749Y18073715D01*
X26858750Y18073715D01*
X26858751Y18073715D01*
X26871697Y18075420D01*
X26995933Y18091776D01*
X27123768Y18144726D01*
X27233541Y18228959D01*
X27317774Y18338732D01*
X27370724Y18466567D01*
X27388785Y18603750D01*
X27388730Y18604164D01*
X27384753Y18634374D01*
X27370724Y18740933D01*
X27331362Y18835961D01*
X27323894Y18905428D01*
X27355169Y18967907D01*
X27398468Y18997970D01*
X27489018Y19035476D01*
X27598791Y19119709D01*
X27683024Y19229482D01*
X27735974Y19357317D01*
X27754035Y19494500D01*
X27735974Y19631683D01*
X27735971Y19631689D01*
X27734227Y19638200D01*
X27735890Y19708050D01*
X27775052Y19765912D01*
X27837814Y19793233D01*
X27950183Y19808026D01*
X28078018Y19860976D01*
X28182013Y19940776D01*
X28247180Y19965970D01*
X28315625Y19951932D01*
X28332986Y19940776D01*
X28436982Y19860976D01*
X28564817Y19808026D01*
X28687702Y19791848D01*
X28701999Y19789965D01*
X28702000Y19789965D01*
X28702001Y19789965D01*
X28714947Y19791670D01*
X28839183Y19808026D01*
X28967018Y19860976D01*
X29031563Y19910504D01*
X29071013Y19940775D01*
X29136182Y19965970D01*
X29204627Y19951932D01*
X29221987Y19940775D01*
X29325980Y19860977D01*
X29325981Y19860977D01*
X29325982Y19860976D01*
X29453817Y19808026D01*
X29576702Y19791848D01*
X29590999Y19789965D01*
X29591000Y19789965D01*
X29591001Y19789965D01*
X29603947Y19791670D01*
X29728183Y19808026D01*
X29856018Y19860976D01*
X29965791Y19945209D01*
X30050024Y20054982D01*
X30102974Y20182817D01*
X30121035Y20320000D01*
X30102974Y20457183D01*
X30051523Y20581398D01*
X30050025Y20585015D01*
X30050024Y20585016D01*
X30050024Y20585017D01*
X29965791Y20694791D01*
X29965789Y20694792D01*
X29965789Y20694793D01*
X29856015Y20779026D01*
X29728186Y20831973D01*
X29728184Y20831974D01*
X29728183Y20831974D01*
X29636727Y20844015D01*
X29591001Y20850035D01*
X29590999Y20850035D01*
X29522408Y20841005D01*
X29453817Y20831974D01*
X29453816Y20831974D01*
X29453813Y20831973D01*
X29325984Y20779026D01*
X29325982Y20779024D01*
X29221986Y20699225D01*
X29156817Y20674031D01*
X29088372Y20688070D01*
X29071014Y20699225D01*
X28967018Y20779024D01*
X28967016Y20779025D01*
X28839186Y20831973D01*
X28839184Y20831974D01*
X28839183Y20831974D01*
X28747727Y20844015D01*
X28702001Y20850035D01*
X28701999Y20850035D01*
X28633408Y20841005D01*
X28564817Y20831974D01*
X28564816Y20831974D01*
X28564813Y20831973D01*
X28436984Y20779026D01*
X28436982Y20779024D01*
X28332986Y20699225D01*
X28267817Y20674031D01*
X28199372Y20688070D01*
X28182014Y20699225D01*
X28078018Y20779024D01*
X28078016Y20779025D01*
X27950186Y20831973D01*
X27950184Y20831974D01*
X27950183Y20831974D01*
X27858727Y20844015D01*
X27813001Y20850035D01*
X27812999Y20850035D01*
X27744408Y20841005D01*
X27675817Y20831974D01*
X27675816Y20831974D01*
X27675813Y20831973D01*
X27547985Y20779026D01*
X27438209Y20694791D01*
X27353971Y20585011D01*
X27351886Y20581398D01*
X27349328Y20578960D01*
X27349029Y20578569D01*
X27348968Y20578616D01*
X27301319Y20533183D01*
X27232712Y20519961D01*
X27167847Y20545929D01*
X27127319Y20602844D01*
X27120500Y20643399D01*
X27120500Y25115890D01*
X27140185Y25182929D01*
X27156819Y25203571D01*
X28682929Y26729681D01*
X28744252Y26763166D01*
X28770610Y26766000D01*
X31225989Y26766000D01*
X34547035Y26766000D01*
X34614074Y26746315D01*
X34659829Y26693511D01*
X34669773Y26624353D01*
X34640748Y26560797D01*
X34634717Y26554321D01*
X33856818Y25776422D01*
X33148804Y25068408D01*
X33143617Y25063773D01*
X33113033Y25039383D01*
X33113029Y25039379D01*
X33079519Y24990229D01*
X33044206Y24942382D01*
X33040216Y24934833D01*
X33036528Y24927174D01*
X33018992Y24870323D01*
X32999353Y24814199D01*
X32997771Y24805841D01*
X32996500Y24797400D01*
X32996500Y24737927D01*
X32994275Y24678491D01*
X32995316Y24669257D01*
X32994485Y24669164D01*
X32996500Y24653865D01*
X32996500Y23501084D01*
X32976815Y23434045D01*
X32924011Y23388290D01*
X32856315Y23378145D01*
X32766002Y23390035D01*
X32765999Y23390035D01*
X32697408Y23381005D01*
X32628817Y23371974D01*
X32628816Y23371974D01*
X32628813Y23371973D01*
X32500985Y23319026D01*
X32391209Y23234791D01*
X32306974Y23125015D01*
X32254027Y22997187D01*
X32254026Y22997182D01*
X32235965Y22860001D01*
X32235965Y22860000D01*
X32254026Y22722819D01*
X32254027Y22722814D01*
X32306974Y22594985D01*
X32391209Y22485209D01*
X32419415Y22463565D01*
X32460617Y22407136D01*
X32464771Y22337390D01*
X32442303Y22289704D01*
X32401108Y22236018D01*
X32401106Y22236016D01*
X32348159Y22108187D01*
X32348158Y22108182D01*
X32331438Y21981182D01*
X32330097Y21971000D01*
X32346817Y21844000D01*
X32348158Y21833819D01*
X32348159Y21833814D01*
X32401106Y21705985D01*
X32401107Y21705983D01*
X32401108Y21705982D01*
X32485341Y21596209D01*
X32595114Y21511976D01*
X32722949Y21459026D01*
X32845834Y21442848D01*
X32860131Y21440965D01*
X32868260Y21440965D01*
X32868259Y21438596D01*
X32925329Y21429707D01*
X32977594Y21383337D01*
X32996500Y21317524D01*
X32996500Y20903640D01*
X32976815Y20836601D01*
X32924011Y20790846D01*
X32856315Y20780701D01*
X32812002Y20786535D01*
X32811999Y20786535D01*
X32754950Y20779024D01*
X32674817Y20768474D01*
X32674816Y20768474D01*
X32674813Y20768473D01*
X32546985Y20715526D01*
X32437209Y20631291D01*
X32352974Y20521515D01*
X32300027Y20393687D01*
X32300026Y20393684D01*
X32300026Y20393683D01*
X32281965Y20256500D01*
X32283883Y20241928D01*
X32300026Y20119319D01*
X32300027Y20119314D01*
X32352974Y19991485D01*
X32352975Y19991483D01*
X32352976Y19991482D01*
X32437209Y19881709D01*
X32546982Y19797476D01*
X32546983Y19797476D01*
X32546984Y19797475D01*
X32565115Y19789965D01*
X32674817Y19744526D01*
X32812000Y19726465D01*
X32856315Y19732300D01*
X32925348Y19721535D01*
X32977604Y19675157D01*
X32996500Y19609361D01*
X32996500Y19190785D01*
X32976815Y19123746D01*
X32970877Y19115300D01*
X32966138Y19109125D01*
X32910671Y18975213D01*
X32910670Y18975209D01*
X32891750Y18831500D01*
X32903673Y18740934D01*
X32910670Y18687792D01*
X32910671Y18687788D01*
X32966137Y18553878D01*
X32966138Y18553876D01*
X32966139Y18553875D01*
X33054379Y18438879D01*
X33169375Y18350639D01*
X33169376Y18350639D01*
X33169377Y18350638D01*
X33179022Y18346643D01*
X33303291Y18295170D01*
X33430280Y18278452D01*
X33446999Y18276250D01*
X33447000Y18276250D01*
X33447001Y18276250D01*
X33461977Y18278222D01*
X33590709Y18295170D01*
X33724625Y18350639D01*
X33839621Y18438879D01*
X33927861Y18553875D01*
X33983330Y18687791D01*
X34002250Y18831500D01*
X33983330Y18975209D01*
X33927861Y19109125D01*
X33923123Y19115300D01*
X33897930Y19180469D01*
X33897500Y19190785D01*
X33897500Y24491536D01*
X33917185Y24558575D01*
X33933814Y24579212D01*
X36054185Y26699584D01*
X36069761Y26711532D01*
X36069391Y26712015D01*
X36075841Y26716964D01*
X36201282Y26813218D01*
X36297536Y26938659D01*
X36358044Y27084738D01*
X36378682Y27241500D01*
X36358044Y27398262D01*
X36297536Y27544341D01*
X36201282Y27669782D01*
X36075841Y27766036D01*
X36056708Y27773961D01*
X35929762Y27826544D01*
X35929760Y27826545D01*
X35773001Y27847182D01*
X35772999Y27847182D01*
X35616239Y27826545D01*
X35616234Y27826543D01*
X35470163Y27766039D01*
X35470162Y27766039D01*
X35456565Y27755606D01*
X35439646Y27742624D01*
X35374480Y27717430D01*
X35364162Y27717000D01*
X31809500Y27717000D01*
X31742461Y27736685D01*
X31696706Y27789489D01*
X31685500Y27841000D01*
X31685500Y28451892D01*
X31685499Y28451896D01*
X31678039Y28474855D01*
X31673495Y28493779D01*
X31672302Y28501314D01*
X31669719Y28517626D01*
X31658753Y28539146D01*
X31651308Y28557122D01*
X31643849Y28580080D01*
X31643849Y28580081D01*
X31629649Y28599625D01*
X31619493Y28616200D01*
X31608528Y28637720D01*
X31554923Y28691325D01*
X31521440Y28752645D01*
X31519667Y28762821D01*
X31518478Y28771851D01*
X31517974Y28775683D01*
X31465024Y28903517D01*
X31380791Y29013291D01*
X31380789Y29013292D01*
X31380789Y29013293D01*
X31271015Y29097526D01*
X31143186Y29150473D01*
X31143184Y29150474D01*
X31143183Y29150474D01*
X31051727Y29162515D01*
X31006001Y29168535D01*
X31005999Y29168535D01*
X30937408Y29159505D01*
X30868817Y29150474D01*
X30868816Y29150474D01*
X30868813Y29150473D01*
X30740985Y29097526D01*
X30631209Y29013291D01*
X30546974Y28903515D01*
X30494027Y28775687D01*
X30494026Y28775684D01*
X30494026Y28775683D01*
X30475965Y28638500D01*
X30489046Y28539140D01*
X30494026Y28501319D01*
X30494027Y28501314D01*
X30546974Y28373485D01*
X30546975Y28373484D01*
X30546976Y28373482D01*
X30631209Y28263709D01*
X30740982Y28179476D01*
X30757952Y28172447D01*
X30812355Y28128608D01*
X30834421Y28062314D01*
X30834500Y28057886D01*
X30834500Y27841000D01*
X30814815Y27773961D01*
X30762011Y27728206D01*
X30710500Y27717000D01*
X28770610Y27717000D01*
X28703571Y27736685D01*
X28682929Y27753319D01*
X28546819Y27889429D01*
X28513334Y27950752D01*
X28510500Y27977110D01*
X28510500Y28287701D01*
X28530185Y28354740D01*
X28536128Y28363192D01*
X28544022Y28373480D01*
X28544024Y28373482D01*
X28596974Y28501317D01*
X28615035Y28638500D01*
X28596974Y28775683D01*
X28544024Y28903517D01*
X28459791Y29013291D01*
X28459789Y29013292D01*
X28459789Y29013293D01*
X28350015Y29097526D01*
X28222186Y29150473D01*
X28222184Y29150474D01*
X28222183Y29150474D01*
X28130727Y29162515D01*
X28085001Y29168535D01*
X28084999Y29168535D01*
X28016408Y29159505D01*
X27947817Y29150474D01*
X27947816Y29150474D01*
X27947813Y29150473D01*
X27819985Y29097526D01*
X27710209Y29013291D01*
X27625974Y28903515D01*
X27573027Y28775687D01*
X27573026Y28775684D01*
X27573026Y28775683D01*
X27554965Y28638500D01*
X27568046Y28539140D01*
X27573026Y28501319D01*
X27573027Y28501314D01*
X27625975Y28373484D01*
X27625977Y28373480D01*
X27633872Y28363192D01*
X27659070Y28298024D01*
X27659500Y28287701D01*
X27659500Y27682106D01*
X27666962Y27659142D01*
X27671503Y27640227D01*
X27673247Y27629218D01*
X27675281Y27616373D01*
X27686243Y27594859D01*
X27693688Y27576885D01*
X27701150Y27553920D01*
X27715340Y27534390D01*
X27725508Y27517797D01*
X27736470Y27496282D01*
X27903570Y27329182D01*
X27937055Y27267859D01*
X27932071Y27198167D01*
X27903570Y27153820D01*
X26405468Y25655720D01*
X26405460Y25655709D01*
X26346472Y25596722D01*
X26335510Y25575207D01*
X26325346Y25558622D01*
X26311152Y25539086D01*
X26311151Y25539083D01*
X26303688Y25516115D01*
X26296243Y25498142D01*
X26285280Y25476627D01*
X26281503Y25452778D01*
X26276962Y25433861D01*
X26269500Y25410896D01*
X26269499Y25410892D01*
X26269499Y18700109D01*
X22796447Y18700109D01*
X22794789Y19083466D01*
X22814184Y19150588D01*
X22866789Y19196571D01*
X22918788Y19208000D01*
X22919086Y19208000D01*
X22934588Y19206289D01*
X22934617Y19206587D01*
X22942371Y19205855D01*
X22942379Y19205853D01*
X23010692Y19208000D01*
X23039882Y19208000D01*
X23046656Y19208857D01*
X23052471Y19209314D01*
X23098445Y19210758D01*
X23117331Y19216246D01*
X23136388Y19220193D01*
X23155912Y19222658D01*
X23198699Y19239600D01*
X23204221Y19241489D01*
X23211430Y19243584D01*
X23248388Y19254320D01*
X23265318Y19264333D01*
X23282791Y19272893D01*
X23283155Y19273038D01*
X23301090Y19280138D01*
X23338330Y19307196D01*
X23343179Y19310380D01*
X23382787Y19333803D01*
X23396705Y19347723D01*
X23411488Y19360348D01*
X23427413Y19371917D01*
X23456747Y19407378D01*
X23460661Y19411679D01*
X23874066Y19825084D01*
X23886236Y19834832D01*
X23886045Y19835063D01*
X23892054Y19840036D01*
X23892059Y19840038D01*
X23938853Y19889870D01*
X23959485Y19910501D01*
X23963664Y19915891D01*
X23967448Y19920322D01*
X23998946Y19953862D01*
X24008426Y19971108D01*
X24019101Y19987359D01*
X24031166Y20002912D01*
X24049435Y20045133D01*
X24051999Y20050367D01*
X24074169Y20090691D01*
X24079063Y20109755D01*
X24085363Y20128156D01*
X24093178Y20146213D01*
X24100378Y20191674D01*
X24101551Y20197339D01*
X24113000Y20241928D01*
X24112999Y20261605D01*
X24114527Y20281010D01*
X24117603Y20300430D01*
X24117604Y20300434D01*
X24113272Y20346254D01*
X24112999Y20352048D01*
X24112999Y27124655D01*
X24132684Y27191693D01*
X24149318Y27212335D01*
X26381665Y29444681D01*
X26442988Y29478166D01*
X26469346Y29481000D01*
X35379654Y29481000D01*
X35446693Y29461315D01*
X35467335Y29444681D01*
X35884238Y29027778D01*
X35912499Y28984069D01*
X35951183Y28882068D01*
X35973174Y28850209D01*
X36047817Y28742071D01*
X36141441Y28659128D01*
X36175150Y28629264D01*
X36312605Y28557122D01*
X36325775Y28550210D01*
X36490944Y28509500D01*
X36661056Y28509500D01*
X36826225Y28550210D01*
X36935400Y28607510D01*
X36976849Y28629264D01*
X36976850Y28629266D01*
X36976852Y28629266D01*
X37104183Y28742071D01*
X37200818Y28882070D01*
X37261140Y29041128D01*
X37281645Y29210000D01*
X37261140Y29378872D01*
X37200818Y29537930D01*
X37104183Y29677929D01*
X36976852Y29790734D01*
X36976849Y29790737D01*
X36826225Y29869791D01*
X36826222Y29869792D01*
X36811968Y29873305D01*
X36753964Y29906020D01*
X36181918Y30478066D01*
X36172170Y30490235D01*
X36171939Y30490043D01*
X36166962Y30496059D01*
X36117130Y30542855D01*
X36096501Y30563484D01*
X36091109Y30567667D01*
X36086668Y30571460D01*
X36053139Y30602945D01*
X36053138Y30602946D01*
X36035894Y30612426D01*
X36019638Y30623106D01*
X36004093Y30635164D01*
X36004089Y30635166D01*
X36004088Y30635167D01*
X35993584Y30639713D01*
X35961860Y30653442D01*
X35956613Y30656012D01*
X35916306Y30678171D01*
X35897247Y30683064D01*
X35878844Y30689365D01*
X35860790Y30697177D01*
X35860787Y30697178D01*
X35860785Y30697179D01*
X35860783Y30697179D01*
X35815352Y30704375D01*
X35809631Y30705560D01*
X35765073Y30717000D01*
X35765072Y30717000D01*
X35745398Y30717000D01*
X35726001Y30718527D01*
X35706566Y30721605D01*
X35660760Y30717275D01*
X35654922Y30717000D01*
X27187183Y30717000D01*
X27120144Y30736685D01*
X27074389Y30789489D01*
X27064445Y30858647D01*
X27093470Y30922203D01*
X27139727Y30955560D01*
X27189018Y30975976D01*
X27298791Y31060209D01*
X27383024Y31169982D01*
X27435974Y31297817D01*
X27454035Y31435000D01*
X27435974Y31572183D01*
X27383024Y31700017D01*
X27344670Y31750000D01*
X31092965Y31750000D01*
X31108913Y31628864D01*
X31111026Y31612819D01*
X31111027Y31612814D01*
X31163974Y31484985D01*
X31163975Y31484983D01*
X31163976Y31484982D01*
X31248209Y31375209D01*
X31357982Y31290976D01*
X31485817Y31238026D01*
X31608702Y31221848D01*
X31622999Y31219965D01*
X31623000Y31219965D01*
X31623001Y31219965D01*
X31635947Y31221670D01*
X31760183Y31238026D01*
X31888018Y31290976D01*
X31997791Y31375209D01*
X32082024Y31484982D01*
X32134974Y31612817D01*
X32153035Y31750000D01*
X32134974Y31887183D01*
X32082024Y32015017D01*
X31997791Y32124791D01*
X31997789Y32124792D01*
X31997789Y32124793D01*
X31888015Y32209026D01*
X31760186Y32261973D01*
X31760184Y32261974D01*
X31760183Y32261974D01*
X31668727Y32274015D01*
X31623001Y32280035D01*
X31622999Y32280035D01*
X31554408Y32271005D01*
X31485817Y32261974D01*
X31485816Y32261974D01*
X31485813Y32261973D01*
X31357985Y32209026D01*
X31248209Y32124791D01*
X31163974Y32015015D01*
X31111027Y31887187D01*
X31111026Y31887184D01*
X31111026Y31887183D01*
X31092965Y31750000D01*
X27344670Y31750000D01*
X27298791Y31809791D01*
X27298789Y31809792D01*
X27298789Y31809793D01*
X27219294Y31870792D01*
X27189018Y31894024D01*
X27189017Y31894025D01*
X27189015Y31894026D01*
X27061186Y31946973D01*
X27061184Y31946974D01*
X27061183Y31946974D01*
X26969727Y31959015D01*
X26924001Y31965035D01*
X26923999Y31965035D01*
X26855408Y31956005D01*
X26786817Y31946974D01*
X26786816Y31946974D01*
X26786813Y31946973D01*
X26658984Y31894026D01*
X26658982Y31894024D01*
X26589293Y31840550D01*
X26524123Y31815356D01*
X26455679Y31829395D01*
X26415432Y31863439D01*
X26409791Y31870791D01*
X26300018Y31955024D01*
X26300017Y31955025D01*
X26300015Y31955026D01*
X26172186Y32007973D01*
X26172184Y32007974D01*
X26172183Y32007974D01*
X26060263Y32022709D01*
X26035001Y32026035D01*
X26034999Y32026035D01*
X26009737Y32022709D01*
X25897817Y32007974D01*
X25897816Y32007974D01*
X25897813Y32007973D01*
X25769985Y31955026D01*
X25660209Y31870791D01*
X25575974Y31761015D01*
X25523027Y31633187D01*
X25523026Y31633184D01*
X25523026Y31633183D01*
X25514995Y31572183D01*
X25504965Y31496001D01*
X25504965Y31496000D01*
X25523026Y31358819D01*
X25523027Y31358814D01*
X25575974Y31230985D01*
X25575975Y31230983D01*
X25575976Y31230982D01*
X25660209Y31121209D01*
X25769982Y31036976D01*
X25897817Y30984026D01*
X26020702Y30967848D01*
X26034999Y30965965D01*
X26035000Y30965965D01*
X26035001Y30965965D01*
X26047947Y30967670D01*
X26172183Y30984026D01*
X26300018Y31036976D01*
X26369704Y31090450D01*
X26434872Y31115644D01*
X26503317Y31101606D01*
X26543564Y31067564D01*
X26549206Y31060212D01*
X26549207Y31060211D01*
X26549209Y31060209D01*
X26658982Y30975976D01*
X26708271Y30955561D01*
X26762672Y30911721D01*
X26784738Y30845427D01*
X26767459Y30777728D01*
X26716323Y30730117D01*
X26660817Y30717000D01*
X26243920Y30717000D01*
X26228413Y30718712D01*
X26228385Y30718414D01*
X26220623Y30719148D01*
X26220622Y30719148D01*
X26152277Y30717000D01*
X26123114Y30717000D01*
X26116353Y30716147D01*
X26110541Y30715690D01*
X26064556Y30714244D01*
X26045653Y30708752D01*
X26026607Y30704808D01*
X26007086Y30702342D01*
X25964322Y30685411D01*
X25958796Y30683519D01*
X25914617Y30670684D01*
X25914610Y30670681D01*
X25897666Y30660661D01*
X25880203Y30652106D01*
X25861912Y30644864D01*
X25824694Y30617824D01*
X25819817Y30614621D01*
X25806887Y30606974D01*
X25780211Y30591197D01*
X25766298Y30577284D01*
X25751510Y30564653D01*
X25735588Y30553085D01*
X25735582Y30553079D01*
X25706255Y30517630D01*
X25702324Y30513309D01*
X23115930Y27926916D01*
X23103761Y27917165D01*
X23103952Y27916935D01*
X23097942Y27911963D01*
X23051145Y27862130D01*
X23030518Y27841504D01*
X23030512Y27841498D01*
X23026332Y27836109D01*
X23022543Y27831673D01*
X22991056Y27798142D01*
X22991050Y27798133D01*
X22981577Y27780902D01*
X22970898Y27764644D01*
X22958834Y27749092D01*
X22958832Y27749088D01*
X22940563Y27706870D01*
X22937993Y27701625D01*
X22915831Y27661311D01*
X22910936Y27642246D01*
X22904637Y27623848D01*
X22896821Y27605786D01*
X22889625Y27560351D01*
X22888440Y27554628D01*
X22877000Y27510077D01*
X22877000Y27490399D01*
X22875473Y27470999D01*
X22872395Y27451568D01*
X22876725Y27405762D01*
X22877000Y27399924D01*
X22877000Y21717848D01*
X22857315Y21650809D01*
X22804511Y21605054D01*
X22735353Y21595110D01*
X22671797Y21624135D01*
X22659291Y21636641D01*
X22653460Y21643369D01*
X22653443Y21643388D01*
X22608727Y21685549D01*
X22608724Y21685551D01*
X22608722Y21685553D01*
X22608717Y21685556D01*
X22608715Y21685557D01*
X22514297Y21733567D01*
X22463461Y21781499D01*
X22446500Y21844098D01*
X22446500Y27240542D01*
X22449334Y27266901D01*
X22450167Y27270729D01*
X22446657Y27319790D01*
X22446500Y27324213D01*
X22446500Y27339011D01*
X22446499Y27339015D01*
X22444392Y27353667D01*
X22443919Y27358071D01*
X22440412Y27407114D01*
X22439044Y27410780D01*
X22432487Y27436474D01*
X22431931Y27440342D01*
X22411491Y27485096D01*
X22409820Y27489131D01*
X22392629Y27535226D01*
X22390278Y27538366D01*
X22376756Y27561156D01*
X22375130Y27564718D01*
X22342928Y27601881D01*
X22340151Y27605328D01*
X22331285Y27617172D01*
X22331284Y27617173D01*
X22331279Y27617180D01*
X22320792Y27627667D01*
X22317798Y27630883D01*
X22285589Y27668055D01*
X22282291Y27670175D01*
X22261651Y27686808D01*
X20831819Y29116640D01*
X20798334Y29177963D01*
X20795500Y29204321D01*
X20795500Y34119500D01*
X20815185Y34186539D01*
X20867989Y34232294D01*
X20919500Y34243500D01*
X33598798Y34243500D01*
X33665837Y34223815D01*
X33686479Y34207181D01*
X34461181Y33432480D01*
X34494666Y33371157D01*
X34497500Y33344799D01*
X34497500Y32098193D01*
X34477815Y32031154D01*
X34471877Y32022709D01*
X34465977Y32015021D01*
X34465975Y32015018D01*
X34413027Y31887187D01*
X34413026Y31887184D01*
X34413026Y31887183D01*
X34394965Y31750000D01*
X34410913Y31628864D01*
X34413026Y31612819D01*
X34413027Y31612814D01*
X34465974Y31484985D01*
X34465975Y31484983D01*
X34465976Y31484982D01*
X34550209Y31375209D01*
X34659982Y31290976D01*
X34787817Y31238026D01*
X34910702Y31221848D01*
X34924999Y31219965D01*
X34925000Y31219965D01*
X34925001Y31219965D01*
X34937947Y31221670D01*
X35062183Y31238026D01*
X35190018Y31290976D01*
X35299791Y31375209D01*
X35384024Y31484982D01*
X35436974Y31612817D01*
X35455035Y31750000D01*
X36045965Y31750000D01*
X36061913Y31628864D01*
X36064026Y31612819D01*
X36064027Y31612814D01*
X36116974Y31484985D01*
X36116975Y31484983D01*
X36116976Y31484982D01*
X36201209Y31375209D01*
X36310982Y31290976D01*
X36438817Y31238026D01*
X36561702Y31221848D01*
X36575999Y31219965D01*
X36576000Y31219965D01*
X36576001Y31219965D01*
X36588947Y31221670D01*
X36713183Y31238026D01*
X36841018Y31290976D01*
X36950791Y31375209D01*
X37035024Y31484982D01*
X37087974Y31612817D01*
X37106035Y31750000D01*
X37087974Y31887183D01*
X37035024Y32015017D01*
X36950791Y32124791D01*
X36950789Y32124792D01*
X36950789Y32124793D01*
X36841015Y32209026D01*
X36713186Y32261973D01*
X36713184Y32261974D01*
X36713183Y32261974D01*
X36621727Y32274015D01*
X36576001Y32280035D01*
X36575999Y32280035D01*
X36507408Y32271005D01*
X36438817Y32261974D01*
X36438816Y32261974D01*
X36438813Y32261973D01*
X36310985Y32209026D01*
X36201209Y32124791D01*
X36116974Y32015015D01*
X36064027Y31887187D01*
X36064026Y31887184D01*
X36064026Y31887183D01*
X36045965Y31750000D01*
X35455035Y31750000D01*
X35436974Y31887183D01*
X35386942Y32007973D01*
X35384024Y32015018D01*
X35384022Y32015021D01*
X35378123Y32022709D01*
X35352930Y32087878D01*
X35352500Y32098193D01*
X35352500Y33545752D01*
X35352889Y33552690D01*
X35357026Y33589403D01*
X35346535Y33644846D01*
X35342328Y33672758D01*
X35338122Y33700669D01*
X35335754Y33708346D01*
X35333069Y33716018D01*
X35333068Y33716026D01*
X35306702Y33765913D01*
X35282207Y33816777D01*
X35282206Y33816778D01*
X35282206Y33816779D01*
X35277669Y33823433D01*
X35272851Y33829961D01*
X35272850Y33829963D01*
X35272848Y33829965D01*
X35232951Y33869863D01*
X35194551Y33911247D01*
X35187287Y33917040D01*
X35187843Y33917738D01*
X35175946Y33926867D01*
X34678313Y34424500D01*
X34148956Y34953857D01*
X34144338Y34959025D01*
X34121295Y34987920D01*
X34074660Y35019716D01*
X34051955Y35036473D01*
X34029252Y35053229D01*
X34022080Y35057019D01*
X34014819Y35060515D01*
X33960889Y35077151D01*
X33907611Y35095793D01*
X33899684Y35097293D01*
X33891673Y35098500D01*
X33891672Y35098500D01*
X33835245Y35098500D01*
X33778831Y35100612D01*
X33769597Y35099571D01*
X33769497Y35100458D01*
X33754627Y35098500D01*
X20871500Y35098500D01*
X20804461Y35118185D01*
X20758706Y35170989D01*
X20747500Y35222500D01*
X20747500Y38129828D01*
X20767185Y38196867D01*
X20796012Y38228202D01*
X20885291Y38296709D01*
X20969524Y38406482D01*
X21022474Y38534317D01*
X21040535Y38671500D01*
X21022474Y38808683D01*
X20969524Y38936517D01*
X20885291Y39046291D01*
X20885289Y39046292D01*
X20885289Y39046293D01*
X20775515Y39130526D01*
X20647686Y39183473D01*
X20647684Y39183474D01*
X20647683Y39183474D01*
X20556227Y39195515D01*
X20510501Y39201535D01*
X20510499Y39201535D01*
X20441908Y39192505D01*
X20373317Y39183474D01*
X20373316Y39183474D01*
X20373313Y39183473D01*
X20245485Y39130526D01*
X20135709Y39046291D01*
X20051474Y38936515D01*
X19998526Y38808686D01*
X19998526Y38808683D01*
X19995803Y38788004D01*
X19975328Y38734356D01*
X19973394Y38731521D01*
X19971284Y38728424D01*
X19937769Y38683012D01*
X19933994Y38675871D01*
X19930485Y38668583D01*
X19913850Y38614654D01*
X19895206Y38561371D01*
X19893710Y38553462D01*
X19892500Y38545432D01*
X19892500Y38489009D01*
X19890388Y38432595D01*
X19891429Y38423360D01*
X19890540Y38423260D01*
X19892500Y38408391D01*
X19892500Y35101326D01*
X19872815Y35034287D01*
X19866876Y35025840D01*
X19817302Y34961234D01*
X19817300Y34961231D01*
X19759313Y34821237D01*
X19759312Y34821235D01*
X19739533Y34671001D01*
X19739533Y34671000D01*
X19759312Y34520766D01*
X19759313Y34520764D01*
X19817302Y34380766D01*
X19817302Y34380765D01*
X19818874Y34378717D01*
X19819662Y34376678D01*
X19821366Y34373727D01*
X19820905Y34373462D01*
X19844070Y34313549D01*
X19844500Y34303229D01*
X19844500Y29020458D01*
X19841666Y28994101D01*
X19840833Y28990275D01*
X19840833Y28990270D01*
X19844342Y28941219D01*
X19844500Y28936793D01*
X19844500Y28921996D01*
X19844501Y28921981D01*
X19846607Y28907320D01*
X19847079Y28902929D01*
X19850022Y28861800D01*
X19850589Y28853885D01*
X19850590Y28853882D01*
X19850591Y28853878D01*
X19851959Y28850209D01*
X19858509Y28824545D01*
X19859067Y28820663D01*
X19859068Y28820659D01*
X19859069Y28820658D01*
X19879499Y28775922D01*
X19881185Y28771851D01*
X19898371Y28725773D01*
X19900718Y28722638D01*
X19914241Y28699848D01*
X19915870Y28696282D01*
X19948079Y28659110D01*
X19950839Y28655685D01*
X19959721Y28643820D01*
X19970204Y28633337D01*
X19973201Y28630118D01*
X19999629Y28599618D01*
X20005413Y28592943D01*
X20005415Y28592942D01*
X20008704Y28590828D01*
X20029349Y28574192D01*
X21459181Y27144360D01*
X21492666Y27083037D01*
X21495500Y27056679D01*
X21495499Y21767627D01*
X21475814Y21700588D01*
X21453108Y21674268D01*
X21408891Y21635617D01*
X21408879Y21635605D01*
X21408876Y21635603D01*
X21408875Y21635601D01*
X21369965Y21593974D01*
X21366895Y21590690D01*
X21366892Y21590686D01*
X21316442Y21490400D01*
X21316438Y21490388D01*
X21297047Y21423282D01*
X21297046Y21423276D01*
X21297045Y21423271D01*
X21285041Y21337145D01*
X21286228Y21062535D01*
X21266834Y20995412D01*
X21214229Y20949430D01*
X21162230Y20938000D01*
X16427322Y20938000D01*
X16360283Y20957685D01*
X16314528Y21010489D01*
X16304584Y21079647D01*
X16312760Y21109451D01*
X16323474Y21135317D01*
X16341535Y21272500D01*
X16342596Y21280558D01*
X16346081Y21280100D01*
X16361220Y21331653D01*
X16414024Y21377408D01*
X16483182Y21387352D01*
X16512987Y21379175D01*
X16626817Y21332026D01*
X16749702Y21315848D01*
X16763999Y21313965D01*
X16764000Y21313965D01*
X16764001Y21313965D01*
X16776947Y21315670D01*
X16901183Y21332026D01*
X17029018Y21384976D01*
X17138791Y21469209D01*
X17169064Y21508662D01*
X17225492Y21549864D01*
X17295238Y21554019D01*
X17342927Y21531551D01*
X17452442Y21447516D01*
X17580277Y21394566D01*
X17697180Y21379175D01*
X17717459Y21376505D01*
X17717460Y21376505D01*
X17717461Y21376505D01*
X17737740Y21379175D01*
X17854643Y21394566D01*
X17982478Y21447516D01*
X18092251Y21531749D01*
X18176484Y21641522D01*
X18229434Y21769357D01*
X18247495Y21906540D01*
X18229434Y22043723D01*
X18176484Y22171557D01*
X18092251Y22281331D01*
X18092249Y22281332D01*
X18092249Y22281333D01*
X18025680Y22332413D01*
X17982478Y22365564D01*
X17982477Y22365565D01*
X17982475Y22365566D01*
X17854646Y22418513D01*
X17854644Y22418514D01*
X17854643Y22418514D01*
X17763187Y22430555D01*
X17717461Y22436575D01*
X17717459Y22436575D01*
X17648868Y22427545D01*
X17580277Y22418514D01*
X17580276Y22418514D01*
X17580273Y22418513D01*
X17452445Y22365566D01*
X17342666Y22281329D01*
X17312395Y22241878D01*
X17255967Y22200675D01*
X17186221Y22196521D01*
X17138533Y22218989D01*
X17057286Y22281333D01*
X17029018Y22303024D01*
X17029017Y22303025D01*
X17029015Y22303026D01*
X16901186Y22355973D01*
X16901184Y22355974D01*
X16901183Y22355974D01*
X16778690Y22372101D01*
X16764001Y22374035D01*
X16763999Y22374035D01*
X16699673Y22365566D01*
X16626817Y22355974D01*
X16626816Y22355974D01*
X16626813Y22355973D01*
X16498985Y22303026D01*
X16389209Y22218791D01*
X16304974Y22109015D01*
X16252027Y21981187D01*
X16252026Y21981184D01*
X16252026Y21981183D01*
X16250685Y21971000D01*
X16232904Y21835942D01*
X16229417Y21836401D01*
X16214280Y21784848D01*
X16161476Y21739093D01*
X16092318Y21729149D01*
X16062514Y21737325D01*
X15989180Y21767700D01*
X15948683Y21784474D01*
X15880091Y21793505D01*
X15811501Y21802535D01*
X15811499Y21802535D01*
X15742908Y21793505D01*
X15674317Y21784474D01*
X15674316Y21784474D01*
X15674313Y21784473D01*
X15546485Y21731526D01*
X15436709Y21647291D01*
X15352474Y21537515D01*
X15299527Y21409687D01*
X15299526Y21409684D01*
X15296758Y21388658D01*
X15268490Y21324762D01*
X15210165Y21286292D01*
X15140300Y21285462D01*
X15081077Y21322536D01*
X15066431Y21342847D01*
X15064024Y21347016D01*
X15064024Y21347017D01*
X14979791Y21456791D01*
X14979789Y21456792D01*
X14979789Y21456793D01*
X14907875Y21511975D01*
X14870018Y21541024D01*
X14870017Y21541025D01*
X14870015Y21541026D01*
X14742186Y21593973D01*
X14742184Y21593974D01*
X14742183Y21593974D01*
X14650727Y21606015D01*
X14605001Y21612035D01*
X14604999Y21612035D01*
X14536408Y21603005D01*
X14467817Y21593974D01*
X14467816Y21593974D01*
X14467813Y21593973D01*
X14339985Y21541026D01*
X14230209Y21456791D01*
X14145974Y21347015D01*
X14093027Y21219187D01*
X14093026Y21219182D01*
X14081985Y21135317D01*
X14074965Y21082000D01*
X14086381Y20995286D01*
X14093026Y20944819D01*
X14093027Y20944814D01*
X14145974Y20816985D01*
X14145975Y20816983D01*
X14145976Y20816982D01*
X14155725Y20804277D01*
X14180920Y20739109D01*
X14166882Y20670664D01*
X14145031Y20641109D01*
X13566181Y20062259D01*
X13504858Y20028774D01*
X13435166Y20033758D01*
X13379233Y20075630D01*
X13354816Y20141094D01*
X13354500Y20149940D01*
X13354500Y20928247D01*
X13374185Y20995286D01*
X13390815Y21015924D01*
X14109107Y21734217D01*
X14170428Y21767700D01*
X14180585Y21769470D01*
X14234183Y21776526D01*
X14362018Y21829476D01*
X14471791Y21913709D01*
X14556024Y22023482D01*
X14608974Y22151317D01*
X14627035Y22288500D01*
X14626876Y22289704D01*
X14624441Y22308205D01*
X14608974Y22425683D01*
X14556024Y22553517D01*
X14471791Y22663291D01*
X14471789Y22663292D01*
X14471789Y22663293D01*
X14362015Y22747526D01*
X14234186Y22800473D01*
X14234184Y22800474D01*
X14234183Y22800474D01*
X14142727Y22812515D01*
X14097001Y22818535D01*
X14096999Y22818535D01*
X14028408Y22809505D01*
X13959817Y22800474D01*
X13959816Y22800474D01*
X13959813Y22800473D01*
X13831985Y22747526D01*
X13722209Y22663291D01*
X13637974Y22553515D01*
X13585026Y22425684D01*
X13577971Y22372101D01*
X13549703Y22308205D01*
X13542713Y22300607D01*
X12648516Y21406409D01*
X12648513Y21406406D01*
X12625949Y21383841D01*
X12625948Y21383840D01*
X12615891Y21364103D01*
X12605731Y21347523D01*
X12592706Y21329595D01*
X12592703Y21329590D01*
X12585854Y21308512D01*
X12578413Y21290548D01*
X12568354Y21270805D01*
X12564887Y21248918D01*
X12560347Y21230009D01*
X12553500Y21208933D01*
X12553500Y21177019D01*
X12553499Y15877380D01*
X12533814Y15810341D01*
X12527876Y15801895D01*
X12494975Y15759017D01*
X12442027Y15631187D01*
X12442026Y15631182D01*
X12423965Y15494001D01*
X12423965Y15494000D01*
X427500Y15494000D01*
X427500Y16702500D01*
X1248634Y16702500D01*
X1248931Y16700554D01*
X1248933Y16700548D01*
X1319562Y16509843D01*
X1319565Y16509836D01*
X1427149Y16337233D01*
X1567264Y16189832D01*
X1567266Y16189831D01*
X1734195Y16073644D01*
X1921092Y15993441D01*
X2120310Y15952500D01*
X2371999Y15952500D01*
X2372000Y16528500D01*
X2391685Y16595539D01*
X2444489Y16641294D01*
X2496000Y16652500D01*
X2748000Y16652500D01*
X2815039Y16632815D01*
X2860794Y16580011D01*
X2872000Y16528500D01*
X2871999Y15952500D01*
X3072713Y15952500D01*
X3224338Y15967919D01*
X3418381Y16028800D01*
X3418391Y16028805D01*
X3596215Y16127506D01*
X3596216Y16127506D01*
X3750530Y16259979D01*
X3750531Y16259980D01*
X3875018Y16420805D01*
X3964588Y16603407D01*
X3990246Y16702500D01*
X5298634Y16702500D01*
X5298931Y16700554D01*
X5298933Y16700548D01*
X5369562Y16509843D01*
X5369565Y16509836D01*
X5477149Y16337233D01*
X5617264Y16189832D01*
X5617266Y16189831D01*
X5784195Y16073644D01*
X5971092Y15993441D01*
X6170310Y15952500D01*
X6572000Y15952500D01*
X6572000Y16528500D01*
X6591685Y16595539D01*
X6644489Y16641294D01*
X6696000Y16652500D01*
X6948000Y16652500D01*
X7015039Y16632815D01*
X7060794Y16580011D01*
X7072000Y16528500D01*
X7072000Y15952500D01*
X7422713Y15952500D01*
X7574338Y15967919D01*
X7768381Y16028800D01*
X7768391Y16028805D01*
X7946215Y16127506D01*
X7946216Y16127506D01*
X8100530Y16259979D01*
X8100531Y16259980D01*
X8225018Y16420805D01*
X8314588Y16603407D01*
X8340246Y16702500D01*
X7776979Y16702500D01*
X7709940Y16722185D01*
X7664185Y16774989D01*
X7654241Y16844147D01*
X7657713Y16860434D01*
X7675894Y16924338D01*
X7675895Y16924340D01*
X7665546Y17036018D01*
X7665546Y17036021D01*
X7665544Y17036025D01*
X7663115Y17044563D01*
X7663701Y17114430D01*
X7701966Y17172890D01*
X7765763Y17201381D01*
X7782381Y17202500D01*
X8345366Y17202500D01*
X8345068Y17204447D01*
X8345066Y17204453D01*
X8274437Y17395158D01*
X8274434Y17395165D01*
X8166850Y17567768D01*
X8026735Y17715169D01*
X8026733Y17715170D01*
X7859804Y17831357D01*
X7672907Y17911560D01*
X7473690Y17952500D01*
X6936713Y17952500D01*
X6869674Y17972185D01*
X6823919Y18024989D01*
X6813975Y18094147D01*
X6822152Y18123953D01*
X6830756Y18144725D01*
X6866584Y18231220D01*
X6886500Y18382500D01*
X6866584Y18533780D01*
X6808192Y18674750D01*
X6715304Y18795804D01*
X6594250Y18888692D01*
X6594249Y18888693D01*
X6594247Y18888694D01*
X6453280Y18947084D01*
X6453278Y18947085D01*
X6339981Y18962000D01*
X6339980Y18962000D01*
X6264020Y18962000D01*
X6264019Y18962000D01*
X6150721Y18947085D01*
X6150719Y18947084D01*
X6009752Y18888694D01*
X5888696Y18795804D01*
X5795806Y18674748D01*
X5737416Y18533781D01*
X5737415Y18533779D01*
X5717500Y18382502D01*
X5717500Y18382499D01*
X5737415Y18231222D01*
X5737416Y18231220D01*
X5795806Y18090253D01*
X5795808Y18090250D01*
X5847277Y18023174D01*
X5872471Y17958005D01*
X5858433Y17889560D01*
X5809619Y17839571D01*
X5809079Y17839269D01*
X5697784Y17777495D01*
X5697783Y17777495D01*
X5543469Y17645022D01*
X5543468Y17645021D01*
X5418981Y17484196D01*
X5329411Y17301594D01*
X5303754Y17202500D01*
X5867021Y17202500D01*
X5934060Y17182815D01*
X5979815Y17130011D01*
X5989759Y17060853D01*
X5986287Y17044566D01*
X5968105Y16980663D01*
X5968104Y16980663D01*
X5978453Y16868983D01*
X5980885Y16860437D01*
X5980299Y16790570D01*
X5942034Y16732110D01*
X5878237Y16703619D01*
X5861619Y16702500D01*
X5298634Y16702500D01*
X3990246Y16702500D01*
X3426979Y16702500D01*
X3359940Y16722185D01*
X3314185Y16774989D01*
X3304241Y16844147D01*
X3307713Y16860434D01*
X3325894Y16924338D01*
X3325895Y16924340D01*
X3315546Y17036018D01*
X3315546Y17036021D01*
X3315544Y17036025D01*
X3313115Y17044563D01*
X3313701Y17114430D01*
X3351966Y17172890D01*
X3415763Y17201381D01*
X3432381Y17202500D01*
X3995366Y17202500D01*
X3995068Y17204447D01*
X3995066Y17204453D01*
X3924437Y17395158D01*
X3924434Y17395165D01*
X3816850Y17567768D01*
X3676735Y17715169D01*
X3676733Y17715170D01*
X3509804Y17831357D01*
X3322907Y17911560D01*
X3123690Y17952500D01*
X2872000Y17952500D01*
X2872000Y17376500D01*
X2852315Y17309461D01*
X2799511Y17263706D01*
X2748000Y17252500D01*
X2496000Y17252500D01*
X2428961Y17272185D01*
X2383206Y17324989D01*
X2372000Y17376500D01*
X2372000Y17952500D01*
X2171287Y17952500D01*
X2019661Y17937082D01*
X1825618Y17876201D01*
X1825608Y17876196D01*
X1647784Y17777495D01*
X1647783Y17777495D01*
X1493469Y17645022D01*
X1493468Y17645021D01*
X1368981Y17484196D01*
X1279411Y17301594D01*
X1253754Y17202500D01*
X1817021Y17202500D01*
X1884060Y17182815D01*
X1929815Y17130011D01*
X1939759Y17060853D01*
X1936287Y17044566D01*
X1918105Y16980663D01*
X1918104Y16980663D01*
X1928453Y16868983D01*
X1930885Y16860437D01*
X1930299Y16790570D01*
X1892034Y16732110D01*
X1828237Y16703619D01*
X1811619Y16702500D01*
X1248634Y16702500D01*
X427500Y16702500D01*
X427500Y25342500D01*
X1248634Y25342500D01*
X1248931Y25340554D01*
X1248933Y25340548D01*
X1319562Y25149843D01*
X1319565Y25149836D01*
X1427149Y24977233D01*
X1567264Y24829832D01*
X1567266Y24829831D01*
X1734195Y24713644D01*
X1921092Y24633441D01*
X2120310Y24592500D01*
X2371999Y24592500D01*
X2372000Y25168500D01*
X2391685Y25235539D01*
X2444489Y25281294D01*
X2496000Y25292500D01*
X2748000Y25292500D01*
X2815039Y25272815D01*
X2860794Y25220011D01*
X2872000Y25168500D01*
X2871999Y24592500D01*
X3072713Y24592500D01*
X3224338Y24607919D01*
X3418381Y24668800D01*
X3418391Y24668805D01*
X3596215Y24767506D01*
X3596216Y24767506D01*
X3750530Y24899979D01*
X3750531Y24899980D01*
X3875018Y25060805D01*
X3964588Y25243407D01*
X3990246Y25342500D01*
X5298634Y25342500D01*
X5298931Y25340554D01*
X5298933Y25340548D01*
X5369562Y25149843D01*
X5369565Y25149836D01*
X5477149Y24977233D01*
X5617264Y24829832D01*
X5617266Y24829831D01*
X5784196Y24713643D01*
X5795804Y24708662D01*
X5849648Y24664136D01*
X5870872Y24597568D01*
X5852737Y24530093D01*
X5845281Y24519225D01*
X5795808Y24454751D01*
X5795806Y24454748D01*
X5737416Y24313781D01*
X5737415Y24313779D01*
X5717500Y24162502D01*
X5717500Y24162499D01*
X5737415Y24011222D01*
X5737416Y24011220D01*
X5795806Y23870253D01*
X5795807Y23870251D01*
X5795808Y23870250D01*
X5888696Y23749196D01*
X6009750Y23656308D01*
X6150720Y23597916D01*
X6207370Y23590458D01*
X6264019Y23583000D01*
X6264020Y23583000D01*
X6339981Y23583000D01*
X6377746Y23587972D01*
X6453280Y23597916D01*
X6594250Y23656308D01*
X6715304Y23749196D01*
X6808192Y23870250D01*
X6866584Y24011220D01*
X6886500Y24162500D01*
X6866584Y24313780D01*
X6822151Y24421049D01*
X6814683Y24490516D01*
X6845958Y24552996D01*
X6906047Y24588648D01*
X6936713Y24592500D01*
X7422713Y24592500D01*
X7574338Y24607919D01*
X7768381Y24668800D01*
X7768391Y24668805D01*
X7946215Y24767506D01*
X7946216Y24767506D01*
X8100530Y24899979D01*
X8100531Y24899980D01*
X8225018Y25060805D01*
X8314588Y25243407D01*
X8340246Y25342500D01*
X7776979Y25342500D01*
X7709940Y25362185D01*
X7664185Y25414989D01*
X7654241Y25484147D01*
X7657713Y25500434D01*
X7675894Y25564338D01*
X7675895Y25564340D01*
X7665546Y25676018D01*
X7665546Y25676021D01*
X7665544Y25676025D01*
X7663115Y25684563D01*
X7663701Y25754430D01*
X7701966Y25812890D01*
X7765763Y25841381D01*
X7782381Y25842500D01*
X8345366Y25842500D01*
X8345068Y25844447D01*
X8345066Y25844453D01*
X8274437Y26035158D01*
X8274434Y26035165D01*
X8166850Y26207768D01*
X8026735Y26355169D01*
X8026733Y26355170D01*
X7859804Y26471357D01*
X7672907Y26551560D01*
X7473690Y26592500D01*
X7072000Y26592500D01*
X7072000Y26016500D01*
X7052315Y25949461D01*
X6999511Y25903706D01*
X6948000Y25892500D01*
X6696000Y25892500D01*
X6628961Y25912185D01*
X6583206Y25964989D01*
X6572000Y26016500D01*
X6572000Y26592500D01*
X6221287Y26592500D01*
X6069661Y26577082D01*
X5875618Y26516201D01*
X5875608Y26516196D01*
X5697784Y26417495D01*
X5697783Y26417495D01*
X5543469Y26285022D01*
X5543468Y26285021D01*
X5418981Y26124196D01*
X5329411Y25941594D01*
X5303754Y25842500D01*
X5867021Y25842500D01*
X5934060Y25822815D01*
X5979815Y25770011D01*
X5989759Y25700853D01*
X5986287Y25684566D01*
X5968105Y25620663D01*
X5968104Y25620663D01*
X5978453Y25508983D01*
X5980885Y25500437D01*
X5980299Y25430570D01*
X5942034Y25372110D01*
X5878237Y25343619D01*
X5861619Y25342500D01*
X5298634Y25342500D01*
X3990246Y25342500D01*
X3426979Y25342500D01*
X3359940Y25362185D01*
X3314185Y25414989D01*
X3304241Y25484147D01*
X3307713Y25500434D01*
X3325894Y25564338D01*
X3325895Y25564340D01*
X3315546Y25676018D01*
X3315546Y25676021D01*
X3315544Y25676025D01*
X3313115Y25684563D01*
X3313701Y25754430D01*
X3351966Y25812890D01*
X3415763Y25841381D01*
X3432381Y25842500D01*
X3995366Y25842500D01*
X3995068Y25844447D01*
X3995066Y25844453D01*
X3924437Y26035158D01*
X3924434Y26035165D01*
X3816850Y26207768D01*
X3676735Y26355169D01*
X3676733Y26355170D01*
X3509804Y26471357D01*
X3322907Y26551560D01*
X3123690Y26592500D01*
X2872000Y26592500D01*
X2872000Y26016500D01*
X2852315Y25949461D01*
X2799511Y25903706D01*
X2748000Y25892500D01*
X2496000Y25892500D01*
X2428961Y25912185D01*
X2383206Y25964989D01*
X2372000Y26016500D01*
X2372000Y26592500D01*
X2171287Y26592500D01*
X2019661Y26577082D01*
X1825618Y26516201D01*
X1825608Y26516196D01*
X1647784Y26417495D01*
X1647783Y26417495D01*
X1493469Y26285022D01*
X1493468Y26285021D01*
X1368981Y26124196D01*
X1279411Y25941594D01*
X1253754Y25842500D01*
X1817021Y25842500D01*
X1884060Y25822815D01*
X1929815Y25770011D01*
X1939759Y25700853D01*
X1936287Y25684566D01*
X1918105Y25620663D01*
X1918104Y25620663D01*
X1928453Y25508983D01*
X1930885Y25500437D01*
X1930299Y25430570D01*
X1892034Y25372110D01*
X1828237Y25343619D01*
X1811619Y25342500D01*
X1248634Y25342500D01*
X427500Y25342500D01*
X427500Y28895500D01*
X447185Y28962539D01*
X499989Y29008294D01*
X551500Y29019500D01*
X17906999Y29019500D01*
X17907000Y29019500D01*
X17907000Y42176845D01*
X17926685Y42243883D01*
X17979489Y42289638D01*
X18031000Y42300844D01*
X39246000Y42300844D01*
X39313039Y42281159D01*
G37*
%TD.AperFunction*%
%TD*%
%TA.AperFunction,Conductor*%
%TO.N,+3V3*%
G36*
X22422574Y21443315D02*
G01*
X22468329Y21390511D01*
X22479533Y21339538D01*
X22479538Y21338464D01*
X22492462Y18349036D01*
X22473067Y18281912D01*
X22420462Y18235929D01*
X22368463Y18224500D01*
X21727465Y18224500D01*
X21660426Y18244185D01*
X21614671Y18296989D01*
X21603466Y18347964D01*
X21590538Y21338466D01*
X21609933Y21405588D01*
X21662538Y21451571D01*
X21714537Y21463000D01*
X22355535Y21463000D01*
X22422574Y21443315D01*
G37*
%TD.AperFunction*%
%TD*%
M02*
