%TF.GenerationSoftware,KiCad,Pcbnew,7.0.7*%
%TF.CreationDate,2024-02-05T14:32:18+01:00*%
%TF.ProjectId,esp-atx-power,6573702d-6174-4782-9d70-6f7765722e6b,1.0.1*%
%TF.SameCoordinates,PX6695f68PY7b6af88*%
%TF.FileFunction,Legend,Top*%
%TF.FilePolarity,Positive*%
%FSLAX46Y46*%
G04 Gerber Fmt 4.6, Leading zero omitted, Abs format (unit mm)*
G04 Created by KiCad (PCBNEW 7.0.7) date 2024-02-05 14:32:18*
%MOMM*%
%LPD*%
G01*
G04 APERTURE LIST*
G04 Aperture macros list*
%AMRoundRect*
0 Rectangle with rounded corners*
0 $1 Rounding radius*
0 $2 $3 $4 $5 $6 $7 $8 $9 X,Y pos of 4 corners*
0 Add a 4 corners polygon primitive as box body*
4,1,4,$2,$3,$4,$5,$6,$7,$8,$9,$2,$3,0*
0 Add four circle primitives for the rounded corners*
1,1,$1+$1,$2,$3*
1,1,$1+$1,$4,$5*
1,1,$1+$1,$6,$7*
1,1,$1+$1,$8,$9*
0 Add four rect primitives between the rounded corners*
20,1,$1+$1,$2,$3,$4,$5,0*
20,1,$1+$1,$4,$5,$6,$7,0*
20,1,$1+$1,$6,$7,$8,$9,0*
20,1,$1+$1,$8,$9,$2,$3,0*%
G04 Aperture macros list end*
%ADD10C,0.154000*%
%ADD11C,0.120000*%
%ADD12C,0.100000*%
%ADD13RoundRect,0.200000X-0.275000X0.200000X-0.275000X-0.200000X0.275000X-0.200000X0.275000X0.200000X0*%
%ADD14RoundRect,0.135000X-0.185000X0.135000X-0.185000X-0.135000X0.185000X-0.135000X0.185000X0.135000X0*%
%ADD15RoundRect,0.062500X-0.337500X-0.062500X0.337500X-0.062500X0.337500X0.062500X-0.337500X0.062500X0*%
%ADD16RoundRect,0.062500X-0.062500X-0.337500X0.062500X-0.337500X0.062500X0.337500X-0.062500X0.337500X0*%
%ADD17R,3.350000X3.350000*%
%ADD18RoundRect,0.140000X0.021213X-0.219203X0.219203X-0.021213X-0.021213X0.219203X-0.219203X0.021213X0*%
%ADD19RoundRect,0.050000X0.350000X0.050000X-0.350000X0.050000X-0.350000X-0.050000X0.350000X-0.050000X0*%
%ADD20RoundRect,0.050000X0.050000X0.350000X-0.050000X0.350000X-0.050000X-0.350000X0.050000X-0.350000X0*%
%ADD21R,4.000000X4.000000*%
%ADD22R,2.000000X1.500000*%
%ADD23R,2.000000X3.800000*%
%ADD24R,1.000000X0.750000*%
%ADD25RoundRect,0.135000X-0.135000X-0.185000X0.135000X-0.185000X0.135000X0.185000X-0.135000X0.185000X0*%
%ADD26RoundRect,0.140000X0.140000X0.170000X-0.140000X0.170000X-0.140000X-0.170000X0.140000X-0.170000X0*%
%ADD27R,0.500000X0.300000*%
%ADD28RoundRect,0.147500X0.172500X-0.147500X0.172500X0.147500X-0.172500X0.147500X-0.172500X-0.147500X0*%
%ADD29RoundRect,0.135000X0.135000X0.185000X-0.135000X0.185000X-0.135000X-0.185000X0.135000X-0.185000X0*%
%ADD30R,3.100000X1.600000*%
%ADD31C,2.700000*%
%ADD32RoundRect,0.147500X-0.226274X-0.017678X-0.017678X-0.226274X0.226274X0.017678X0.017678X0.226274X0*%
%ADD33RoundRect,0.135000X0.185000X-0.135000X0.185000X0.135000X-0.185000X0.135000X-0.185000X-0.135000X0*%
%ADD34RoundRect,0.218750X-0.256250X0.218750X-0.256250X-0.218750X0.256250X-0.218750X0.256250X0.218750X0*%
%ADD35R,1.700000X1.700000*%
%ADD36O,1.700000X1.700000*%
%ADD37RoundRect,0.140000X0.170000X-0.140000X0.170000X0.140000X-0.170000X0.140000X-0.170000X-0.140000X0*%
%ADD38C,0.650000*%
%ADD39R,1.240000X0.600000*%
%ADD40R,1.240000X0.300000*%
%ADD41O,2.100000X1.000000*%
%ADD42O,1.800000X1.000000*%
%ADD43RoundRect,0.140000X-0.170000X0.140000X-0.170000X-0.140000X0.170000X-0.140000X0.170000X0.140000X0*%
%ADD44RoundRect,0.140000X-0.140000X-0.170000X0.140000X-0.170000X0.140000X0.170000X-0.140000X0.170000X0*%
%ADD45RoundRect,0.150000X-0.587500X-0.150000X0.587500X-0.150000X0.587500X0.150000X-0.587500X0.150000X0*%
%ADD46RoundRect,0.225000X0.225000X0.250000X-0.225000X0.250000X-0.225000X-0.250000X0.225000X-0.250000X0*%
%ADD47R,1.400000X1.200000*%
%ADD48R,0.500000X0.375000*%
%ADD49R,0.650000X0.300000*%
G04 APERTURE END LIST*
D10*
X34470388Y38439077D02*
X35470388Y38439077D01*
X35470388Y38439077D02*
X35470388Y38058125D01*
X35470388Y38058125D02*
X35422769Y37962887D01*
X35422769Y37962887D02*
X35375150Y37915268D01*
X35375150Y37915268D02*
X35279912Y37867649D01*
X35279912Y37867649D02*
X35137055Y37867649D01*
X35137055Y37867649D02*
X35041817Y37915268D01*
X35041817Y37915268D02*
X34994198Y37962887D01*
X34994198Y37962887D02*
X34946579Y38058125D01*
X34946579Y38058125D02*
X34946579Y38439077D01*
X35470388Y37534315D02*
X34470388Y37296220D01*
X34470388Y37296220D02*
X35184674Y37105744D01*
X35184674Y37105744D02*
X34470388Y36915268D01*
X34470388Y36915268D02*
X35470388Y36677172D01*
X34470388Y35724792D02*
X34946579Y36058125D01*
X34470388Y36296220D02*
X35470388Y36296220D01*
X35470388Y36296220D02*
X35470388Y35915268D01*
X35470388Y35915268D02*
X35422769Y35820030D01*
X35422769Y35820030D02*
X35375150Y35772411D01*
X35375150Y35772411D02*
X35279912Y35724792D01*
X35279912Y35724792D02*
X35137055Y35724792D01*
X35137055Y35724792D02*
X35041817Y35772411D01*
X35041817Y35772411D02*
X34994198Y35820030D01*
X34994198Y35820030D02*
X34946579Y35915268D01*
X34946579Y35915268D02*
X34946579Y36296220D01*
X36169008Y38457173D02*
X36121388Y38314316D01*
X36121388Y38314316D02*
X36121388Y38076221D01*
X36121388Y38076221D02*
X36169008Y37980983D01*
X36169008Y37980983D02*
X36216627Y37933364D01*
X36216627Y37933364D02*
X36311865Y37885745D01*
X36311865Y37885745D02*
X36407103Y37885745D01*
X36407103Y37885745D02*
X36502341Y37933364D01*
X36502341Y37933364D02*
X36549960Y37980983D01*
X36549960Y37980983D02*
X36597579Y38076221D01*
X36597579Y38076221D02*
X36645198Y38266697D01*
X36645198Y38266697D02*
X36692817Y38361935D01*
X36692817Y38361935D02*
X36740436Y38409554D01*
X36740436Y38409554D02*
X36835674Y38457173D01*
X36835674Y38457173D02*
X36930912Y38457173D01*
X36930912Y38457173D02*
X37026150Y38409554D01*
X37026150Y38409554D02*
X37073769Y38361935D01*
X37073769Y38361935D02*
X37121388Y38266697D01*
X37121388Y38266697D02*
X37121388Y38028602D01*
X37121388Y38028602D02*
X37073769Y37885745D01*
X37121388Y37600030D02*
X37121388Y37028602D01*
X36121388Y37314316D02*
X37121388Y37314316D01*
X36407103Y36742887D02*
X36407103Y36266697D01*
X36121388Y36838125D02*
X37121388Y36504792D01*
X37121388Y36504792D02*
X36121388Y36171459D01*
X37121388Y35980982D02*
X37121388Y35409554D01*
X36121388Y35695268D02*
X37121388Y35695268D01*
X27582905Y1416199D02*
X27916238Y1416199D01*
X28059095Y892389D02*
X27582905Y892389D01*
X27582905Y892389D02*
X27582905Y1892389D01*
X27582905Y1892389D02*
X28059095Y1892389D01*
X28487667Y892389D02*
X28487667Y1892389D01*
X28487667Y1892389D02*
X29059095Y892389D01*
X29059095Y892389D02*
X29059095Y1892389D01*
X26836857Y41040199D02*
X26979714Y40992580D01*
X26979714Y40992580D02*
X27027333Y40944961D01*
X27027333Y40944961D02*
X27074952Y40849723D01*
X27074952Y40849723D02*
X27074952Y40706866D01*
X27074952Y40706866D02*
X27027333Y40611628D01*
X27027333Y40611628D02*
X26979714Y40564008D01*
X26979714Y40564008D02*
X26884476Y40516389D01*
X26884476Y40516389D02*
X26503524Y40516389D01*
X26503524Y40516389D02*
X26503524Y41516389D01*
X26503524Y41516389D02*
X26836857Y41516389D01*
X26836857Y41516389D02*
X26932095Y41468770D01*
X26932095Y41468770D02*
X26979714Y41421151D01*
X26979714Y41421151D02*
X27027333Y41325913D01*
X27027333Y41325913D02*
X27027333Y41230675D01*
X27027333Y41230675D02*
X26979714Y41135437D01*
X26979714Y41135437D02*
X26932095Y41087818D01*
X26932095Y41087818D02*
X26836857Y41040199D01*
X26836857Y41040199D02*
X26503524Y41040199D01*
X27694000Y41516389D02*
X27884476Y41516389D01*
X27884476Y41516389D02*
X27979714Y41468770D01*
X27979714Y41468770D02*
X28074952Y41373532D01*
X28074952Y41373532D02*
X28122571Y41183056D01*
X28122571Y41183056D02*
X28122571Y40849723D01*
X28122571Y40849723D02*
X28074952Y40659247D01*
X28074952Y40659247D02*
X27979714Y40564008D01*
X27979714Y40564008D02*
X27884476Y40516389D01*
X27884476Y40516389D02*
X27694000Y40516389D01*
X27694000Y40516389D02*
X27598762Y40564008D01*
X27598762Y40564008D02*
X27503524Y40659247D01*
X27503524Y40659247D02*
X27455905Y40849723D01*
X27455905Y40849723D02*
X27455905Y41183056D01*
X27455905Y41183056D02*
X27503524Y41373532D01*
X27503524Y41373532D02*
X27598762Y41468770D01*
X27598762Y41468770D02*
X27694000Y41516389D01*
X28741619Y41516389D02*
X28932095Y41516389D01*
X28932095Y41516389D02*
X29027333Y41468770D01*
X29027333Y41468770D02*
X29122571Y41373532D01*
X29122571Y41373532D02*
X29170190Y41183056D01*
X29170190Y41183056D02*
X29170190Y40849723D01*
X29170190Y40849723D02*
X29122571Y40659247D01*
X29122571Y40659247D02*
X29027333Y40564008D01*
X29027333Y40564008D02*
X28932095Y40516389D01*
X28932095Y40516389D02*
X28741619Y40516389D01*
X28741619Y40516389D02*
X28646381Y40564008D01*
X28646381Y40564008D02*
X28551143Y40659247D01*
X28551143Y40659247D02*
X28503524Y40849723D01*
X28503524Y40849723D02*
X28503524Y41183056D01*
X28503524Y41183056D02*
X28551143Y41373532D01*
X28551143Y41373532D02*
X28646381Y41468770D01*
X28646381Y41468770D02*
X28741619Y41516389D01*
X29455905Y41516389D02*
X30027333Y41516389D01*
X29741619Y40516389D02*
X29741619Y41516389D01*
D11*
%TO.C,R104*%
X10809500Y33511258D02*
X10809500Y33036742D01*
X9764500Y33511258D02*
X9764500Y33036742D01*
%TO.C,R105*%
X24891000Y32922141D02*
X24891000Y32614859D01*
X24131000Y32922141D02*
X24131000Y32614859D01*
%TO.C,U104*%
X13733000Y15106500D02*
X13733000Y15831500D01*
X14458000Y20326500D02*
X13733000Y20326500D01*
X14458000Y15106500D02*
X13733000Y15106500D01*
X18228000Y20326500D02*
X18953000Y20326500D01*
X18228000Y15106500D02*
X18953000Y15106500D01*
X18953000Y20326500D02*
X18953000Y19601500D01*
X18953000Y15106500D02*
X18953000Y15831500D01*
%TO.C,C216*%
X35240190Y20461307D02*
X35392693Y20613810D01*
X35749307Y19952190D02*
X35901810Y20104693D01*
%TO.C,U201*%
X33836000Y26530000D02*
X33836000Y25880000D01*
X33186000Y19310000D02*
X33836000Y19310000D01*
X33186000Y26530000D02*
X33836000Y26530000D01*
X27266000Y19310000D02*
X26616000Y19310000D01*
X27266000Y26530000D02*
X26616000Y26530000D01*
X26616000Y19310000D02*
X26616000Y19960000D01*
X26616000Y26530000D02*
X26616000Y25880000D01*
%TO.C,U102*%
X14315000Y28238500D02*
X20325000Y28238500D01*
X16565000Y21418500D02*
X20325000Y21418500D01*
X20325000Y28238500D02*
X20325000Y26978500D01*
X20325000Y21418500D02*
X20325000Y22678500D01*
%TO.C,SW102*%
X31071000Y36465000D02*
X31071000Y38465000D01*
X30071000Y35165000D02*
X29621000Y34715000D01*
X30071000Y39765000D02*
X29621000Y40215000D01*
X29621000Y34715000D02*
X27021000Y34715000D01*
X29621000Y40215000D02*
X27021000Y40215000D01*
X26571000Y35165000D02*
X27021000Y34715000D01*
X26571000Y39765000D02*
X27021000Y40215000D01*
X25571000Y36465000D02*
X25571000Y38465000D01*
%TO.C,R113*%
X20801359Y15048500D02*
X21108641Y15048500D01*
X20801359Y14288500D02*
X21108641Y14288500D01*
%TO.C,SW101*%
X25523000Y5953000D02*
X25523000Y3953000D01*
X26523000Y7253000D02*
X26973000Y7703000D01*
X26523000Y2653000D02*
X26973000Y2203000D01*
X26973000Y7703000D02*
X29573000Y7703000D01*
X26973000Y2203000D02*
X29573000Y2203000D01*
X30023000Y7253000D02*
X29573000Y7703000D01*
X30023000Y2653000D02*
X29573000Y2203000D01*
X31023000Y5953000D02*
X31023000Y3953000D01*
%TO.C,C108*%
X11791836Y16150000D02*
X11576164Y16150000D01*
X11791836Y16870000D02*
X11576164Y16870000D01*
D12*
%TO.C,D101*%
X10337000Y24168000D02*
G75*
G03*
X10337000Y24168000I-50000J0D01*
G01*
D11*
%TO.C,R201*%
X26823641Y16384000D02*
X26516359Y16384000D01*
X26823641Y17144000D02*
X26516359Y17144000D01*
%TO.C,K104*%
X11037000Y41268000D02*
X11037000Y35948000D01*
X11037000Y35948000D02*
X23507000Y35948000D01*
X14737000Y41208000D02*
X14737000Y36008000D01*
X14737000Y36008000D02*
X19807000Y36008000D01*
X16272000Y41208000D02*
X14737000Y41208000D01*
X19807000Y41208000D02*
X18272000Y41208000D01*
X19807000Y36008000D02*
X19807000Y41208000D01*
X23507000Y41268000D02*
X11037000Y41268000D01*
X23507000Y35948000D02*
X23507000Y41268000D01*
X16272000Y41208000D02*
G75*
G03*
X18272000Y41208000I1000000J0D01*
G01*
%TO.C,R106*%
X10809500Y40115258D02*
X10809500Y39640742D01*
X9764500Y40115258D02*
X9764500Y39640742D01*
%TO.C,R101*%
X25287500Y10205258D02*
X25287500Y9730742D01*
X24242500Y10205258D02*
X24242500Y9730742D01*
%TO.C,C204*%
X36175836Y25929000D02*
X35960164Y25929000D01*
X36175836Y26649000D02*
X35960164Y26649000D01*
%TO.C,R109*%
X26163000Y32612359D02*
X26163000Y32919641D01*
X26923000Y32612359D02*
X26923000Y32919641D01*
%TO.C,D103*%
X35660000Y34911500D02*
X34190000Y34911500D01*
X34190000Y34911500D02*
X34190000Y32626500D01*
X35660000Y32626500D02*
X35660000Y34911500D01*
%TO.C,J104*%
X9017000Y36068000D02*
X7747000Y36068000D01*
X9017000Y37338000D02*
X9017000Y36068000D01*
X6704071Y39498000D02*
X6249929Y39498000D01*
X6704071Y40258000D02*
X6249929Y40258000D01*
X6637000Y36958000D02*
X6249929Y36958000D01*
X6637000Y37718000D02*
X6249929Y37718000D01*
X4164071Y36958000D02*
X3767000Y36958000D01*
X4164071Y37718000D02*
X3767000Y37718000D01*
X4164071Y39498000D02*
X3767000Y39498000D01*
X4164071Y40258000D02*
X3767000Y40258000D01*
X3767000Y36008000D02*
X3767000Y41208000D01*
X3767000Y38608000D02*
X1107000Y38608000D01*
X3767000Y41208000D02*
X1107000Y41208000D01*
X1107000Y36008000D02*
X3767000Y36008000D01*
X1107000Y36958000D02*
X-4893000Y36958000D01*
X1107000Y37018000D02*
X-4893000Y37018000D01*
X1107000Y37138000D02*
X-4893000Y37138000D01*
X1107000Y37258000D02*
X-4893000Y37258000D01*
X1107000Y37378000D02*
X-4893000Y37378000D01*
X1107000Y37498000D02*
X-4893000Y37498000D01*
X1107000Y37618000D02*
X-4893000Y37618000D01*
X1107000Y39498000D02*
X-4893000Y39498000D01*
X1107000Y41208000D02*
X1107000Y36008000D01*
X-4893000Y36958000D02*
X-4893000Y37718000D01*
X-4893000Y37718000D02*
X1107000Y37718000D01*
X-4893000Y39498000D02*
X-4893000Y40258000D01*
X-4893000Y40258000D02*
X1107000Y40258000D01*
%TO.C,C215*%
X28171000Y14055164D02*
X28171000Y14270836D01*
X28891000Y14055164D02*
X28891000Y14270836D01*
%TO.C,K101*%
X23507000Y1277000D02*
X23507000Y6597000D01*
X23507000Y6597000D02*
X11037000Y6597000D01*
X19807000Y1337000D02*
X19807000Y6537000D01*
X19807000Y6537000D02*
X14737000Y6537000D01*
X18272000Y1337000D02*
X19807000Y1337000D01*
X14737000Y1337000D02*
X16272000Y1337000D01*
X14737000Y6537000D02*
X14737000Y1337000D01*
X11037000Y1277000D02*
X23507000Y1277000D01*
X11037000Y6597000D02*
X11037000Y1277000D01*
X18272000Y1337000D02*
G75*
G03*
X16272000Y1337000I-1000000J0D01*
G01*
%TO.C,R111*%
X10923000Y18769359D02*
X10923000Y19076641D01*
X11683000Y18769359D02*
X11683000Y19076641D01*
%TO.C,J103*%
X9017000Y29464000D02*
X7747000Y29464000D01*
X9017000Y30734000D02*
X9017000Y29464000D01*
X6704071Y32894000D02*
X6249929Y32894000D01*
X6704071Y33654000D02*
X6249929Y33654000D01*
X6637000Y30354000D02*
X6249929Y30354000D01*
X6637000Y31114000D02*
X6249929Y31114000D01*
X4164071Y30354000D02*
X3767000Y30354000D01*
X4164071Y31114000D02*
X3767000Y31114000D01*
X4164071Y32894000D02*
X3767000Y32894000D01*
X4164071Y33654000D02*
X3767000Y33654000D01*
X3767000Y29404000D02*
X3767000Y34604000D01*
X3767000Y32004000D02*
X1107000Y32004000D01*
X3767000Y34604000D02*
X1107000Y34604000D01*
X1107000Y29404000D02*
X3767000Y29404000D01*
X1107000Y30354000D02*
X-4893000Y30354000D01*
X1107000Y30414000D02*
X-4893000Y30414000D01*
X1107000Y30534000D02*
X-4893000Y30534000D01*
X1107000Y30654000D02*
X-4893000Y30654000D01*
X1107000Y30774000D02*
X-4893000Y30774000D01*
X1107000Y30894000D02*
X-4893000Y30894000D01*
X1107000Y31014000D02*
X-4893000Y31014000D01*
X1107000Y32894000D02*
X-4893000Y32894000D01*
X1107000Y34604000D02*
X1107000Y29404000D01*
X-4893000Y30354000D02*
X-4893000Y31114000D01*
X-4893000Y31114000D02*
X1107000Y31114000D01*
X-4893000Y32894000D02*
X-4893000Y33654000D01*
X-4893000Y33654000D02*
X1107000Y33654000D01*
%TO.C,J105*%
X5547000Y25852500D02*
X3627000Y25852500D01*
X-88000Y25852500D02*
X1617000Y25852500D01*
X3627000Y16692500D02*
X5547000Y16692500D01*
X1617000Y16692500D02*
X-88000Y16692500D01*
X-88000Y16692500D02*
X-88000Y25852500D01*
%TO.C,C104*%
X21584836Y20087000D02*
X21369164Y20087000D01*
X21584836Y20807000D02*
X21369164Y20807000D01*
%TO.C,C214*%
X34691000Y14994836D02*
X34691000Y14779164D01*
X33971000Y14994836D02*
X33971000Y14779164D01*
%TO.C,K102*%
X23507000Y7881000D02*
X23507000Y13201000D01*
X23507000Y13201000D02*
X11037000Y13201000D01*
X19807000Y7941000D02*
X19807000Y13141000D01*
X19807000Y13141000D02*
X14737000Y13141000D01*
X18272000Y7941000D02*
X19807000Y7941000D01*
X14737000Y7941000D02*
X16272000Y7941000D01*
X14737000Y13141000D02*
X14737000Y7941000D01*
X11037000Y7881000D02*
X23507000Y7881000D01*
X11037000Y13201000D02*
X11037000Y7881000D01*
X18272000Y7941000D02*
G75*
G03*
X16272000Y7941000I-1000000J0D01*
G01*
%TO.C,D104*%
X37311000Y34911500D02*
X35841000Y34911500D01*
X35841000Y34911500D02*
X35841000Y32626500D01*
X37311000Y32626500D02*
X37311000Y34911500D01*
D12*
%TO.C,D102*%
X10337000Y18377000D02*
G75*
G03*
X10337000Y18377000I-50000J0D01*
G01*
D11*
%TO.C,C105*%
X34142000Y9724836D02*
X34142000Y9509164D01*
X33422000Y9724836D02*
X33422000Y9509164D01*
%TO.C,C206*%
X26562164Y18140000D02*
X26777836Y18140000D01*
X26562164Y17420000D02*
X26777836Y17420000D01*
%TO.C,C210*%
X32152000Y17418164D02*
X32152000Y17633836D01*
X32872000Y17418164D02*
X32872000Y17633836D01*
%TO.C,Q101*%
X30147500Y11655000D02*
X28472500Y11655000D01*
X30147500Y11655000D02*
X30797500Y11655000D01*
X30147500Y8535000D02*
X29497500Y8535000D01*
X30147500Y8535000D02*
X30797500Y8535000D01*
%TO.C,C201*%
X35920000Y22967836D02*
X35920000Y22752164D01*
X35200000Y22967836D02*
X35200000Y22752164D01*
%TO.C,R114*%
X34035000Y33046641D02*
X34035000Y32739359D01*
X33275000Y33046641D02*
X33275000Y32739359D01*
%TO.C,R110*%
X11683000Y23775641D02*
X11683000Y23468359D01*
X10923000Y23775641D02*
X10923000Y23468359D01*
%TO.C,C202*%
X35960164Y24617000D02*
X36175836Y24617000D01*
X35960164Y23897000D02*
X36175836Y23897000D01*
%TO.C,C205*%
X35954580Y27684000D02*
X35673420Y27684000D01*
X35954580Y28704000D02*
X35673420Y28704000D01*
%TO.C,R108*%
X27179000Y9433359D02*
X27179000Y9740641D01*
X27939000Y9433359D02*
X27939000Y9740641D01*
%TO.C,J101*%
X9079000Y1392000D02*
X7809000Y1392000D01*
X9079000Y2662000D02*
X9079000Y1392000D01*
X6766071Y4822000D02*
X6311929Y4822000D01*
X6766071Y5582000D02*
X6311929Y5582000D01*
X6699000Y2282000D02*
X6311929Y2282000D01*
X6699000Y3042000D02*
X6311929Y3042000D01*
X4226071Y2282000D02*
X3829000Y2282000D01*
X4226071Y3042000D02*
X3829000Y3042000D01*
X4226071Y4822000D02*
X3829000Y4822000D01*
X4226071Y5582000D02*
X3829000Y5582000D01*
X3829000Y1332000D02*
X3829000Y6532000D01*
X3829000Y3932000D02*
X1169000Y3932000D01*
X3829000Y6532000D02*
X1169000Y6532000D01*
X1169000Y1332000D02*
X3829000Y1332000D01*
X1169000Y2282000D02*
X-4831000Y2282000D01*
X1169000Y2342000D02*
X-4831000Y2342000D01*
X1169000Y2462000D02*
X-4831000Y2462000D01*
X1169000Y2582000D02*
X-4831000Y2582000D01*
X1169000Y2702000D02*
X-4831000Y2702000D01*
X1169000Y2822000D02*
X-4831000Y2822000D01*
X1169000Y2942000D02*
X-4831000Y2942000D01*
X1169000Y4822000D02*
X-4831000Y4822000D01*
X1169000Y6532000D02*
X1169000Y1332000D01*
X-4831000Y2282000D02*
X-4831000Y3042000D01*
X-4831000Y3042000D02*
X1169000Y3042000D01*
X-4831000Y4822000D02*
X-4831000Y5582000D01*
X-4831000Y5582000D02*
X1169000Y5582000D01*
%TO.C,C203*%
X35960164Y25633000D02*
X36175836Y25633000D01*
X35960164Y24913000D02*
X36175836Y24913000D01*
%TO.C,C103*%
X12934836Y22754000D02*
X12719164Y22754000D01*
X12934836Y23474000D02*
X12719164Y23474000D01*
%TO.C,C217*%
X37270190Y18421307D02*
X37422693Y18573810D01*
X37779307Y17912190D02*
X37931810Y18064693D01*
%TO.C,C212*%
X25071000Y25447164D02*
X25071000Y25662836D01*
X25791000Y25447164D02*
X25791000Y25662836D01*
%TO.C,R103*%
X33146000Y9740641D02*
X33146000Y9433359D01*
X32386000Y9740641D02*
X32386000Y9433359D01*
%TO.C,Y201*%
X33369000Y12863000D02*
X33369000Y16163000D01*
X33369000Y16163000D02*
X29369000Y16163000D01*
%TO.C,C107*%
X11791836Y15134000D02*
X11576164Y15134000D01*
X11791836Y15854000D02*
X11576164Y15854000D01*
%TO.C,U103*%
X10503000Y20372500D02*
X12103000Y20372500D01*
X12103000Y22172500D02*
X10203000Y22172500D01*
%TO.C,C207*%
X30372164Y28300000D02*
X30587836Y28300000D01*
X30372164Y27580000D02*
X30587836Y27580000D01*
%TO.C,R115*%
X33019000Y33046641D02*
X33019000Y32739359D01*
X32259000Y33046641D02*
X32259000Y32739359D01*
%TO.C,R107*%
X25907000Y32919641D02*
X25907000Y32612359D01*
X25147000Y32919641D02*
X25147000Y32612359D01*
%TO.C,J102*%
X9079000Y7996000D02*
X7809000Y7996000D01*
X9079000Y9266000D02*
X9079000Y7996000D01*
X6766071Y11426000D02*
X6311929Y11426000D01*
X6766071Y12186000D02*
X6311929Y12186000D01*
X6699000Y8886000D02*
X6311929Y8886000D01*
X6699000Y9646000D02*
X6311929Y9646000D01*
X4226071Y8886000D02*
X3829000Y8886000D01*
X4226071Y9646000D02*
X3829000Y9646000D01*
X4226071Y11426000D02*
X3829000Y11426000D01*
X4226071Y12186000D02*
X3829000Y12186000D01*
X3829000Y7936000D02*
X3829000Y13136000D01*
X3829000Y10536000D02*
X1169000Y10536000D01*
X3829000Y13136000D02*
X1169000Y13136000D01*
X1169000Y7936000D02*
X3829000Y7936000D01*
X1169000Y8886000D02*
X-4831000Y8886000D01*
X1169000Y8946000D02*
X-4831000Y8946000D01*
X1169000Y9066000D02*
X-4831000Y9066000D01*
X1169000Y9186000D02*
X-4831000Y9186000D01*
X1169000Y9306000D02*
X-4831000Y9306000D01*
X1169000Y9426000D02*
X-4831000Y9426000D01*
X1169000Y9546000D02*
X-4831000Y9546000D01*
X1169000Y11426000D02*
X-4831000Y11426000D01*
X1169000Y13136000D02*
X1169000Y7936000D01*
X-4831000Y8886000D02*
X-4831000Y9646000D01*
X-4831000Y9646000D02*
X1169000Y9646000D01*
X-4831000Y11426000D02*
X-4831000Y12186000D01*
X-4831000Y12186000D02*
X1169000Y12186000D01*
%TO.C,Q102*%
X29131500Y33945000D02*
X27456500Y33945000D01*
X29131500Y33945000D02*
X29781500Y33945000D01*
X29131500Y30825000D02*
X28481500Y30825000D01*
X29131500Y30825000D02*
X29781500Y30825000D01*
%TO.C,C208*%
X28555836Y27580000D02*
X28340164Y27580000D01*
X28555836Y28300000D02*
X28340164Y28300000D01*
%TO.C,C213*%
X24744000Y25662836D02*
X24744000Y25447164D01*
X24024000Y25662836D02*
X24024000Y25447164D01*
%TO.C,C211*%
X33168000Y17418164D02*
X33168000Y17633836D01*
X33888000Y17418164D02*
X33888000Y17633836D01*
%TO.C,C209*%
X34184000Y17418164D02*
X34184000Y17633836D01*
X34904000Y17418164D02*
X34904000Y17633836D01*
%TO.C,R102*%
X26811500Y10205258D02*
X26811500Y9730742D01*
X25766500Y10205258D02*
X25766500Y9730742D01*
%TO.C,R112*%
X20801359Y16001000D02*
X21108641Y16001000D01*
X20801359Y15241000D02*
X21108641Y15241000D01*
%TO.C,C106*%
X31263000Y32785164D02*
X31263000Y33000836D01*
X31983000Y32785164D02*
X31983000Y33000836D01*
%TO.C,K103*%
X11037000Y34664000D02*
X11037000Y29344000D01*
X11037000Y29344000D02*
X23507000Y29344000D01*
X14737000Y34604000D02*
X14737000Y29404000D01*
X14737000Y29404000D02*
X19807000Y29404000D01*
X16272000Y34604000D02*
X14737000Y34604000D01*
X19807000Y34604000D02*
X18272000Y34604000D01*
X19807000Y29404000D02*
X19807000Y34604000D01*
X23507000Y34664000D02*
X11037000Y34664000D01*
X23507000Y29344000D02*
X23507000Y34664000D01*
X16272000Y34604000D02*
G75*
G03*
X18272000Y34604000I1000000J0D01*
G01*
%TD*%
%LPC*%
D13*
%TO.C,R104*%
X10287000Y34099000D03*
X10287000Y32449000D03*
%TD*%
D14*
%TO.C,R105*%
X24511000Y33278500D03*
X24511000Y32258500D03*
%TD*%
D15*
%TO.C,U104*%
X13893000Y19216500D03*
X13893000Y18716500D03*
X13893000Y18216500D03*
X13893000Y17716500D03*
X13893000Y17216500D03*
X13893000Y16716500D03*
X13893000Y16216500D03*
D16*
X14843000Y15266500D03*
X15343000Y15266500D03*
X15843000Y15266500D03*
X16343000Y15266500D03*
X16843000Y15266500D03*
X17343000Y15266500D03*
X17843000Y15266500D03*
D15*
X18793000Y16216500D03*
X18793000Y16716500D03*
X18793000Y17216500D03*
X18793000Y17716500D03*
X18793000Y18216500D03*
X18793000Y18716500D03*
X18793000Y19216500D03*
D16*
X17843000Y20166500D03*
X17343000Y20166500D03*
X16843000Y20166500D03*
X16343000Y20166500D03*
X15843000Y20166500D03*
X15343000Y20166500D03*
X14843000Y20166500D03*
D17*
X16343000Y17716500D03*
%TD*%
D18*
%TO.C,C216*%
X35231589Y19943589D03*
X35910411Y20622411D03*
%TD*%
D19*
%TO.C,U201*%
X33676000Y20320000D03*
X33676000Y20720000D03*
X33676000Y21120000D03*
X33676000Y21520000D03*
X33676000Y21920000D03*
X33676000Y22320000D03*
X33676000Y22720000D03*
X33676000Y23120000D03*
X33676000Y23520000D03*
X33676000Y23920000D03*
X33676000Y24320000D03*
X33676000Y24720000D03*
X33676000Y25120000D03*
X33676000Y25520000D03*
D20*
X32826000Y26370000D03*
X32426000Y26370000D03*
X32026000Y26370000D03*
X31626000Y26370000D03*
X31226000Y26370000D03*
X30826000Y26370000D03*
X30426000Y26370000D03*
X30026000Y26370000D03*
X29626000Y26370000D03*
X29226000Y26370000D03*
X28826000Y26370000D03*
X28426000Y26370000D03*
X28026000Y26370000D03*
X27626000Y26370000D03*
D19*
X26776000Y25520000D03*
X26776000Y25120000D03*
X26776000Y24720000D03*
X26776000Y24320000D03*
X26776000Y23920000D03*
X26776000Y23520000D03*
X26776000Y23120000D03*
X26776000Y22720000D03*
X26776000Y22320000D03*
X26776000Y21920000D03*
X26776000Y21520000D03*
X26776000Y21120000D03*
X26776000Y20720000D03*
X26776000Y20320000D03*
D20*
X27626000Y19470000D03*
X28026000Y19470000D03*
X28426000Y19470000D03*
X28826000Y19470000D03*
X29226000Y19470000D03*
X29626000Y19470000D03*
X30026000Y19470000D03*
X30426000Y19470000D03*
X30826000Y19470000D03*
X31226000Y19470000D03*
X31626000Y19470000D03*
X32026000Y19470000D03*
X32426000Y19470000D03*
X32826000Y19470000D03*
D21*
X30226000Y22920000D03*
%TD*%
D22*
%TO.C,U102*%
X15265000Y27128500D03*
X15265000Y24828500D03*
D23*
X21565000Y24828500D03*
D22*
X15265000Y22528500D03*
%TD*%
D24*
%TO.C,SW102*%
X31321000Y35590000D03*
X25321000Y35590000D03*
X31321000Y39340000D03*
X25321000Y39340000D03*
%TD*%
D25*
%TO.C,R113*%
X20445000Y14668500D03*
X21465000Y14668500D03*
%TD*%
D24*
%TO.C,SW101*%
X25273000Y6828000D03*
X31273000Y6828000D03*
X25273000Y3078000D03*
X31273000Y3078000D03*
%TD*%
D26*
%TO.C,C108*%
X12164000Y16510000D03*
X11204000Y16510000D03*
%TD*%
D27*
%TO.C,D101*%
X10287000Y23718000D03*
X10287000Y23018000D03*
%TD*%
D28*
%TO.C,L201*%
X36576000Y22375000D03*
X36576000Y23345000D03*
%TD*%
D29*
%TO.C,R201*%
X27180000Y16764000D03*
X26160000Y16764000D03*
%TD*%
D30*
%TO.C,K104*%
X12827000Y39878000D03*
X12827000Y37338000D03*
X21717000Y37338000D03*
X21717000Y39878000D03*
%TD*%
D13*
%TO.C,R106*%
X10287000Y40703000D03*
X10287000Y39053000D03*
%TD*%
%TO.C,R101*%
X24765000Y10793000D03*
X24765000Y9143000D03*
%TD*%
D26*
%TO.C,C204*%
X36548000Y26289000D03*
X35588000Y26289000D03*
%TD*%
D31*
%TO.C,MH102*%
X42037000Y2794000D03*
%TD*%
D32*
%TO.C,L202*%
X35928053Y19280947D03*
X36613947Y18595053D03*
%TD*%
D33*
%TO.C,R109*%
X26543000Y32256000D03*
X26543000Y33276000D03*
%TD*%
D34*
%TO.C,D103*%
X34925000Y34214000D03*
X34925000Y32639000D03*
%TD*%
D31*
%TO.C,MH101*%
X42051000Y39878000D03*
%TD*%
D35*
%TO.C,J104*%
X7747000Y37338000D03*
D36*
X5207000Y37338000D03*
X7747000Y39878000D03*
X5207000Y39878000D03*
%TD*%
D37*
%TO.C,C215*%
X28531000Y13683000D03*
X28531000Y14643000D03*
%TD*%
D30*
%TO.C,K101*%
X21717000Y2667000D03*
X21717000Y5207000D03*
X12827000Y5207000D03*
X12827000Y2667000D03*
%TD*%
D33*
%TO.C,R111*%
X11303000Y18413000D03*
X11303000Y19433000D03*
%TD*%
D35*
%TO.C,J103*%
X7747000Y30734000D03*
D36*
X5207000Y30734000D03*
X7747000Y33274000D03*
X5207000Y33274000D03*
%TD*%
D38*
%TO.C,J105*%
X6302000Y24162500D03*
X6302000Y18382500D03*
D39*
X7422000Y24472500D03*
X7422000Y23672500D03*
D40*
X7422000Y22522500D03*
X7422000Y21522500D03*
X7422000Y21022500D03*
X7422000Y20022500D03*
D39*
X7422000Y18872500D03*
X7422000Y18072500D03*
X7422000Y18072500D03*
X7422000Y18872500D03*
D40*
X7422000Y19522500D03*
X7422000Y20522500D03*
X7422000Y22022500D03*
X7422000Y23022500D03*
D39*
X7422000Y23672500D03*
X7422000Y24472500D03*
D41*
X6822000Y25592500D03*
D42*
X2622000Y25592500D03*
D41*
X6822000Y16952500D03*
D42*
X2622000Y16952500D03*
%TD*%
D26*
%TO.C,C104*%
X21957000Y20447000D03*
X20997000Y20447000D03*
%TD*%
D43*
%TO.C,C214*%
X34331000Y15367000D03*
X34331000Y14407000D03*
%TD*%
D30*
%TO.C,K102*%
X21717000Y9271000D03*
X21717000Y11811000D03*
X12827000Y11811000D03*
X12827000Y9271000D03*
%TD*%
D34*
%TO.C,D104*%
X36576000Y34214000D03*
X36576000Y32639000D03*
%TD*%
D27*
%TO.C,D102*%
X10287000Y18827000D03*
X10287000Y19527000D03*
%TD*%
D43*
%TO.C,C105*%
X33782000Y10097000D03*
X33782000Y9137000D03*
%TD*%
D44*
%TO.C,C206*%
X26190000Y17780000D03*
X27150000Y17780000D03*
%TD*%
D37*
%TO.C,C210*%
X32512000Y17046000D03*
X32512000Y18006000D03*
%TD*%
D45*
%TO.C,Q101*%
X29210000Y11045000D03*
X29210000Y9145000D03*
X31085000Y10095000D03*
%TD*%
D43*
%TO.C,C201*%
X35560000Y23340000D03*
X35560000Y22380000D03*
%TD*%
D14*
%TO.C,R114*%
X33655000Y33403000D03*
X33655000Y32383000D03*
%TD*%
%TO.C,R110*%
X11303000Y24132000D03*
X11303000Y23112000D03*
%TD*%
D44*
%TO.C,C202*%
X35588000Y24257000D03*
X36548000Y24257000D03*
%TD*%
D46*
%TO.C,C205*%
X36589000Y28194000D03*
X35039000Y28194000D03*
%TD*%
D33*
%TO.C,R108*%
X27559000Y9077000D03*
X27559000Y10097000D03*
%TD*%
D35*
%TO.C,J101*%
X7809000Y2662000D03*
D36*
X5269000Y2662000D03*
X7809000Y5202000D03*
X5269000Y5202000D03*
%TD*%
D44*
%TO.C,C203*%
X35588000Y25273000D03*
X36548000Y25273000D03*
%TD*%
D26*
%TO.C,C103*%
X13307000Y23114000D03*
X12347000Y23114000D03*
%TD*%
D18*
%TO.C,C217*%
X37261589Y17903589D03*
X37940411Y18582411D03*
%TD*%
D37*
%TO.C,C212*%
X25431000Y25075000D03*
X25431000Y26035000D03*
%TD*%
D14*
%TO.C,R103*%
X32766000Y10097000D03*
X32766000Y9077000D03*
%TD*%
D47*
%TO.C,Y201*%
X32469000Y15363000D03*
X30269000Y15363000D03*
X30269000Y13663000D03*
X32469000Y13663000D03*
%TD*%
D26*
%TO.C,C107*%
X12164000Y15494000D03*
X11204000Y15494000D03*
%TD*%
D48*
%TO.C,U103*%
X10453000Y21810000D03*
D49*
X10378000Y21272500D03*
D48*
X10453000Y20735000D03*
X12153000Y20735000D03*
D49*
X12228000Y21272500D03*
D48*
X12153000Y21810000D03*
%TD*%
D44*
%TO.C,C207*%
X30000000Y27940000D03*
X30960000Y27940000D03*
%TD*%
D14*
%TO.C,R115*%
X32639000Y33403000D03*
X32639000Y32383000D03*
%TD*%
%TO.C,R107*%
X25527000Y33276000D03*
X25527000Y32256000D03*
%TD*%
D35*
%TO.C,J102*%
X7809000Y9266000D03*
D36*
X5269000Y9266000D03*
X7809000Y11806000D03*
X5269000Y11806000D03*
%TD*%
D45*
%TO.C,Q102*%
X28194000Y33335000D03*
X28194000Y31435000D03*
X30069000Y32385000D03*
%TD*%
D26*
%TO.C,C208*%
X28928000Y27940000D03*
X27968000Y27940000D03*
%TD*%
D43*
%TO.C,C213*%
X24384000Y26035000D03*
X24384000Y25075000D03*
%TD*%
D37*
%TO.C,C211*%
X33528000Y17046000D03*
X33528000Y18006000D03*
%TD*%
%TO.C,C209*%
X34544000Y17046000D03*
X34544000Y18006000D03*
%TD*%
D13*
%TO.C,R102*%
X26289000Y10793000D03*
X26289000Y9143000D03*
%TD*%
D25*
%TO.C,R112*%
X20445000Y15621000D03*
X21465000Y15621000D03*
%TD*%
D37*
%TO.C,C106*%
X31623000Y32413000D03*
X31623000Y33373000D03*
%TD*%
D30*
%TO.C,K103*%
X12827000Y33274000D03*
X12827000Y30734000D03*
X21717000Y30734000D03*
X21717000Y33274000D03*
%TD*%
%LPD*%
M02*
