%TF.GenerationSoftware,KiCad,Pcbnew,9.0.6*%
%TF.CreationDate,2026-01-29T23:47:35+01:00*%
%TF.ProjectId,esp-atx-power,6573702d-6174-4782-9d70-6f7765722e6b,2.1.0*%
%TF.SameCoordinates,PX6f6d640PY7445a00*%
%TF.FileFunction,AssemblyDrawing,Top*%
%FSLAX46Y46*%
G04 Gerber Fmt 4.6, Leading zero omitted, Abs format (unit mm)*
G04 Created by KiCad (PCBNEW 9.0.6) date 2026-01-29 23:47:35*
%MOMM*%
%LPD*%
G01*
G04 APERTURE LIST*
%ADD10C,0.060000*%
%ADD11C,0.040000*%
%ADD12C,0.075000*%
%ADD13C,0.120000*%
%ADD14C,0.150000*%
%ADD15C,0.080000*%
%ADD16C,0.100000*%
%TA.AperFunction,Profile*%
%ADD17C,0.200000*%
%TD*%
G04 APERTURE END LIST*
D10*
X20273327Y14411382D02*
X20082851Y14278049D01*
X20273327Y14182811D02*
X19873327Y14182811D01*
X19873327Y14182811D02*
X19873327Y14335192D01*
X19873327Y14335192D02*
X19892375Y14373287D01*
X19892375Y14373287D02*
X19911422Y14392334D01*
X19911422Y14392334D02*
X19949518Y14411382D01*
X19949518Y14411382D02*
X20006660Y14411382D01*
X20006660Y14411382D02*
X20044756Y14392334D01*
X20044756Y14392334D02*
X20063803Y14373287D01*
X20063803Y14373287D02*
X20082851Y14335192D01*
X20082851Y14335192D02*
X20082851Y14182811D01*
X20273327Y14792334D02*
X20273327Y14563763D01*
X20273327Y14678049D02*
X19873327Y14678049D01*
X19873327Y14678049D02*
X19930470Y14639953D01*
X19930470Y14639953D02*
X19968565Y14601858D01*
X19968565Y14601858D02*
X19987613Y14563763D01*
X19873327Y15039953D02*
X19873327Y15078048D01*
X19873327Y15078048D02*
X19892375Y15116144D01*
X19892375Y15116144D02*
X19911422Y15135191D01*
X19911422Y15135191D02*
X19949518Y15154239D01*
X19949518Y15154239D02*
X20025708Y15173286D01*
X20025708Y15173286D02*
X20120946Y15173286D01*
X20120946Y15173286D02*
X20197137Y15154239D01*
X20197137Y15154239D02*
X20235232Y15135191D01*
X20235232Y15135191D02*
X20254280Y15116144D01*
X20254280Y15116144D02*
X20273327Y15078048D01*
X20273327Y15078048D02*
X20273327Y15039953D01*
X20273327Y15039953D02*
X20254280Y15001858D01*
X20254280Y15001858D02*
X20235232Y14982810D01*
X20235232Y14982810D02*
X20197137Y14963763D01*
X20197137Y14963763D02*
X20120946Y14944715D01*
X20120946Y14944715D02*
X20025708Y14944715D01*
X20025708Y14944715D02*
X19949518Y14963763D01*
X19949518Y14963763D02*
X19911422Y14982810D01*
X19911422Y14982810D02*
X19892375Y15001858D01*
X19892375Y15001858D02*
X19873327Y15039953D01*
X20006660Y15516143D02*
X20273327Y15516143D01*
X19854280Y15420905D02*
X20139994Y15325667D01*
X20139994Y15325667D02*
X20139994Y15573286D01*
D11*
X32731800Y9204049D02*
X32607991Y9117382D01*
X32731800Y9055477D02*
X32471800Y9055477D01*
X32471800Y9055477D02*
X32471800Y9154525D01*
X32471800Y9154525D02*
X32484181Y9179287D01*
X32484181Y9179287D02*
X32496562Y9191668D01*
X32496562Y9191668D02*
X32521324Y9204049D01*
X32521324Y9204049D02*
X32558467Y9204049D01*
X32558467Y9204049D02*
X32583229Y9191668D01*
X32583229Y9191668D02*
X32595610Y9179287D01*
X32595610Y9179287D02*
X32607991Y9154525D01*
X32607991Y9154525D02*
X32607991Y9055477D01*
X32731800Y9451668D02*
X32731800Y9303096D01*
X32731800Y9377382D02*
X32471800Y9377382D01*
X32471800Y9377382D02*
X32508943Y9352620D01*
X32508943Y9352620D02*
X32533705Y9327858D01*
X32533705Y9327858D02*
X32546086Y9303096D01*
X32471800Y9612620D02*
X32471800Y9637382D01*
X32471800Y9637382D02*
X32484181Y9662144D01*
X32484181Y9662144D02*
X32496562Y9674525D01*
X32496562Y9674525D02*
X32521324Y9686906D01*
X32521324Y9686906D02*
X32570848Y9699287D01*
X32570848Y9699287D02*
X32632753Y9699287D01*
X32632753Y9699287D02*
X32682277Y9686906D01*
X32682277Y9686906D02*
X32707039Y9674525D01*
X32707039Y9674525D02*
X32719420Y9662144D01*
X32719420Y9662144D02*
X32731800Y9637382D01*
X32731800Y9637382D02*
X32731800Y9612620D01*
X32731800Y9612620D02*
X32719420Y9587858D01*
X32719420Y9587858D02*
X32707039Y9575477D01*
X32707039Y9575477D02*
X32682277Y9563096D01*
X32682277Y9563096D02*
X32632753Y9550715D01*
X32632753Y9550715D02*
X32570848Y9550715D01*
X32570848Y9550715D02*
X32521324Y9563096D01*
X32521324Y9563096D02*
X32496562Y9575477D01*
X32496562Y9575477D02*
X32484181Y9587858D01*
X32484181Y9587858D02*
X32471800Y9612620D01*
X32471800Y9934525D02*
X32471800Y9810715D01*
X32471800Y9810715D02*
X32595610Y9798334D01*
X32595610Y9798334D02*
X32583229Y9810715D01*
X32583229Y9810715D02*
X32570848Y9835477D01*
X32570848Y9835477D02*
X32570848Y9897382D01*
X32570848Y9897382D02*
X32583229Y9922144D01*
X32583229Y9922144D02*
X32595610Y9934525D01*
X32595610Y9934525D02*
X32620372Y9946906D01*
X32620372Y9946906D02*
X32682277Y9946906D01*
X32682277Y9946906D02*
X32707039Y9934525D01*
X32707039Y9934525D02*
X32719420Y9922144D01*
X32719420Y9922144D02*
X32731800Y9897382D01*
X32731800Y9897382D02*
X32731800Y9835477D01*
X32731800Y9835477D02*
X32719420Y9810715D01*
X32719420Y9810715D02*
X32707039Y9798334D01*
D12*
X40583657Y8071189D02*
X40583657Y7666427D01*
X40583657Y7666427D02*
X40607467Y7618808D01*
X40607467Y7618808D02*
X40631276Y7594998D01*
X40631276Y7594998D02*
X40678895Y7571189D01*
X40678895Y7571189D02*
X40774133Y7571189D01*
X40774133Y7571189D02*
X40821752Y7594998D01*
X40821752Y7594998D02*
X40845562Y7618808D01*
X40845562Y7618808D02*
X40869371Y7666427D01*
X40869371Y7666427D02*
X40869371Y8071189D01*
X41369372Y7571189D02*
X41083658Y7571189D01*
X41226515Y7571189D02*
X41226515Y8071189D01*
X41226515Y8071189D02*
X41178896Y7999760D01*
X41178896Y7999760D02*
X41131277Y7952141D01*
X41131277Y7952141D02*
X41083658Y7928332D01*
X41678895Y8071189D02*
X41726514Y8071189D01*
X41726514Y8071189D02*
X41774133Y8047379D01*
X41774133Y8047379D02*
X41797943Y8023570D01*
X41797943Y8023570D02*
X41821752Y7975951D01*
X41821752Y7975951D02*
X41845562Y7880713D01*
X41845562Y7880713D02*
X41845562Y7761665D01*
X41845562Y7761665D02*
X41821752Y7666427D01*
X41821752Y7666427D02*
X41797943Y7618808D01*
X41797943Y7618808D02*
X41774133Y7594998D01*
X41774133Y7594998D02*
X41726514Y7571189D01*
X41726514Y7571189D02*
X41678895Y7571189D01*
X41678895Y7571189D02*
X41631276Y7594998D01*
X41631276Y7594998D02*
X41607467Y7618808D01*
X41607467Y7618808D02*
X41583657Y7666427D01*
X41583657Y7666427D02*
X41559848Y7761665D01*
X41559848Y7761665D02*
X41559848Y7880713D01*
X41559848Y7880713D02*
X41583657Y7975951D01*
X41583657Y7975951D02*
X41607467Y8023570D01*
X41607467Y8023570D02*
X41631276Y8047379D01*
X41631276Y8047379D02*
X41678895Y8071189D01*
X42274133Y7904522D02*
X42274133Y7571189D01*
X42155085Y8094998D02*
X42036038Y7737856D01*
X42036038Y7737856D02*
X42345561Y7737856D01*
D13*
X47993470Y16636745D02*
X47993470Y15989126D01*
X47993470Y15989126D02*
X48031565Y15912936D01*
X48031565Y15912936D02*
X48069660Y15874840D01*
X48069660Y15874840D02*
X48145851Y15836745D01*
X48145851Y15836745D02*
X48298232Y15836745D01*
X48298232Y15836745D02*
X48374422Y15874840D01*
X48374422Y15874840D02*
X48412517Y15912936D01*
X48412517Y15912936D02*
X48450613Y15989126D01*
X48450613Y15989126D02*
X48450613Y16636745D01*
X49250612Y15836745D02*
X48793469Y15836745D01*
X49022041Y15836745D02*
X49022041Y16636745D01*
X49022041Y16636745D02*
X48945850Y16522460D01*
X48945850Y16522460D02*
X48869660Y16446269D01*
X48869660Y16446269D02*
X48793469Y16408174D01*
X49745851Y16636745D02*
X49822041Y16636745D01*
X49822041Y16636745D02*
X49898232Y16598650D01*
X49898232Y16598650D02*
X49936327Y16560555D01*
X49936327Y16560555D02*
X49974422Y16484364D01*
X49974422Y16484364D02*
X50012517Y16331983D01*
X50012517Y16331983D02*
X50012517Y16141507D01*
X50012517Y16141507D02*
X49974422Y15989126D01*
X49974422Y15989126D02*
X49936327Y15912936D01*
X49936327Y15912936D02*
X49898232Y15874840D01*
X49898232Y15874840D02*
X49822041Y15836745D01*
X49822041Y15836745D02*
X49745851Y15836745D01*
X49745851Y15836745D02*
X49669660Y15874840D01*
X49669660Y15874840D02*
X49631565Y15912936D01*
X49631565Y15912936D02*
X49593470Y15989126D01*
X49593470Y15989126D02*
X49555374Y16141507D01*
X49555374Y16141507D02*
X49555374Y16331983D01*
X49555374Y16331983D02*
X49593470Y16484364D01*
X49593470Y16484364D02*
X49631565Y16560555D01*
X49631565Y16560555D02*
X49669660Y16598650D01*
X49669660Y16598650D02*
X49745851Y16636745D01*
X50317279Y16560555D02*
X50355375Y16598650D01*
X50355375Y16598650D02*
X50431565Y16636745D01*
X50431565Y16636745D02*
X50622041Y16636745D01*
X50622041Y16636745D02*
X50698232Y16598650D01*
X50698232Y16598650D02*
X50736327Y16560555D01*
X50736327Y16560555D02*
X50774422Y16484364D01*
X50774422Y16484364D02*
X50774422Y16408174D01*
X50774422Y16408174D02*
X50736327Y16293888D01*
X50736327Y16293888D02*
X50279184Y15836745D01*
X50279184Y15836745D02*
X50774422Y15836745D01*
D14*
X69596286Y4728200D02*
X69739143Y4680581D01*
X69739143Y4680581D02*
X69977238Y4680581D01*
X69977238Y4680581D02*
X70072476Y4728200D01*
X70072476Y4728200D02*
X70120095Y4775820D01*
X70120095Y4775820D02*
X70167714Y4871058D01*
X70167714Y4871058D02*
X70167714Y4966296D01*
X70167714Y4966296D02*
X70120095Y5061534D01*
X70120095Y5061534D02*
X70072476Y5109153D01*
X70072476Y5109153D02*
X69977238Y5156772D01*
X69977238Y5156772D02*
X69786762Y5204391D01*
X69786762Y5204391D02*
X69691524Y5252010D01*
X69691524Y5252010D02*
X69643905Y5299629D01*
X69643905Y5299629D02*
X69596286Y5394867D01*
X69596286Y5394867D02*
X69596286Y5490105D01*
X69596286Y5490105D02*
X69643905Y5585343D01*
X69643905Y5585343D02*
X69691524Y5632962D01*
X69691524Y5632962D02*
X69786762Y5680581D01*
X69786762Y5680581D02*
X70024857Y5680581D01*
X70024857Y5680581D02*
X70167714Y5632962D01*
X70501048Y5680581D02*
X70739143Y4680581D01*
X70739143Y4680581D02*
X70929619Y5394867D01*
X70929619Y5394867D02*
X71120095Y4680581D01*
X71120095Y4680581D02*
X71358191Y5680581D01*
X72262952Y4680581D02*
X71691524Y4680581D01*
X71977238Y4680581D02*
X71977238Y5680581D01*
X71977238Y5680581D02*
X71882000Y5537724D01*
X71882000Y5537724D02*
X71786762Y5442486D01*
X71786762Y5442486D02*
X71691524Y5394867D01*
X72882000Y5680581D02*
X72977238Y5680581D01*
X72977238Y5680581D02*
X73072476Y5632962D01*
X73072476Y5632962D02*
X73120095Y5585343D01*
X73120095Y5585343D02*
X73167714Y5490105D01*
X73167714Y5490105D02*
X73215333Y5299629D01*
X73215333Y5299629D02*
X73215333Y5061534D01*
X73215333Y5061534D02*
X73167714Y4871058D01*
X73167714Y4871058D02*
X73120095Y4775820D01*
X73120095Y4775820D02*
X73072476Y4728200D01*
X73072476Y4728200D02*
X72977238Y4680581D01*
X72977238Y4680581D02*
X72882000Y4680581D01*
X72882000Y4680581D02*
X72786762Y4728200D01*
X72786762Y4728200D02*
X72739143Y4775820D01*
X72739143Y4775820D02*
X72691524Y4871058D01*
X72691524Y4871058D02*
X72643905Y5061534D01*
X72643905Y5061534D02*
X72643905Y5299629D01*
X72643905Y5299629D02*
X72691524Y5490105D01*
X72691524Y5490105D02*
X72739143Y5585343D01*
X72739143Y5585343D02*
X72786762Y5632962D01*
X72786762Y5632962D02*
X72882000Y5680581D01*
X73596286Y5585343D02*
X73643905Y5632962D01*
X73643905Y5632962D02*
X73739143Y5680581D01*
X73739143Y5680581D02*
X73977238Y5680581D01*
X73977238Y5680581D02*
X74072476Y5632962D01*
X74072476Y5632962D02*
X74120095Y5585343D01*
X74120095Y5585343D02*
X74167714Y5490105D01*
X74167714Y5490105D02*
X74167714Y5394867D01*
X74167714Y5394867D02*
X74120095Y5252010D01*
X74120095Y5252010D02*
X73548667Y4680581D01*
X73548667Y4680581D02*
X74167714Y4680581D01*
D11*
X44120647Y12475600D02*
X44033980Y12599409D01*
X43972075Y12475600D02*
X43972075Y12735600D01*
X43972075Y12735600D02*
X44071123Y12735600D01*
X44071123Y12735600D02*
X44095885Y12723219D01*
X44095885Y12723219D02*
X44108266Y12710838D01*
X44108266Y12710838D02*
X44120647Y12686076D01*
X44120647Y12686076D02*
X44120647Y12648933D01*
X44120647Y12648933D02*
X44108266Y12624171D01*
X44108266Y12624171D02*
X44095885Y12611790D01*
X44095885Y12611790D02*
X44071123Y12599409D01*
X44071123Y12599409D02*
X43972075Y12599409D01*
X44368266Y12475600D02*
X44219694Y12475600D01*
X44293980Y12475600D02*
X44293980Y12735600D01*
X44293980Y12735600D02*
X44269218Y12698457D01*
X44269218Y12698457D02*
X44244456Y12673695D01*
X44244456Y12673695D02*
X44219694Y12661314D01*
X44615885Y12475600D02*
X44467313Y12475600D01*
X44541599Y12475600D02*
X44541599Y12735600D01*
X44541599Y12735600D02*
X44516837Y12698457D01*
X44516837Y12698457D02*
X44492075Y12673695D01*
X44492075Y12673695D02*
X44467313Y12661314D01*
X44702551Y12735600D02*
X44863504Y12735600D01*
X44863504Y12735600D02*
X44776837Y12636552D01*
X44776837Y12636552D02*
X44813980Y12636552D01*
X44813980Y12636552D02*
X44838742Y12624171D01*
X44838742Y12624171D02*
X44851123Y12611790D01*
X44851123Y12611790D02*
X44863504Y12587028D01*
X44863504Y12587028D02*
X44863504Y12525123D01*
X44863504Y12525123D02*
X44851123Y12500361D01*
X44851123Y12500361D02*
X44838742Y12487980D01*
X44838742Y12487980D02*
X44813980Y12475600D01*
X44813980Y12475600D02*
X44739694Y12475600D01*
X44739694Y12475600D02*
X44714932Y12487980D01*
X44714932Y12487980D02*
X44702551Y12500361D01*
D14*
X69599086Y19395600D02*
X69741943Y19347981D01*
X69741943Y19347981D02*
X69980038Y19347981D01*
X69980038Y19347981D02*
X70075276Y19395600D01*
X70075276Y19395600D02*
X70122895Y19443220D01*
X70122895Y19443220D02*
X70170514Y19538458D01*
X70170514Y19538458D02*
X70170514Y19633696D01*
X70170514Y19633696D02*
X70122895Y19728934D01*
X70122895Y19728934D02*
X70075276Y19776553D01*
X70075276Y19776553D02*
X69980038Y19824172D01*
X69980038Y19824172D02*
X69789562Y19871791D01*
X69789562Y19871791D02*
X69694324Y19919410D01*
X69694324Y19919410D02*
X69646705Y19967029D01*
X69646705Y19967029D02*
X69599086Y20062267D01*
X69599086Y20062267D02*
X69599086Y20157505D01*
X69599086Y20157505D02*
X69646705Y20252743D01*
X69646705Y20252743D02*
X69694324Y20300362D01*
X69694324Y20300362D02*
X69789562Y20347981D01*
X69789562Y20347981D02*
X70027657Y20347981D01*
X70027657Y20347981D02*
X70170514Y20300362D01*
X70503848Y20347981D02*
X70741943Y19347981D01*
X70741943Y19347981D02*
X70932419Y20062267D01*
X70932419Y20062267D02*
X71122895Y19347981D01*
X71122895Y19347981D02*
X71360991Y20347981D01*
X72265752Y19347981D02*
X71694324Y19347981D01*
X71980038Y19347981D02*
X71980038Y20347981D01*
X71980038Y20347981D02*
X71884800Y20205124D01*
X71884800Y20205124D02*
X71789562Y20109886D01*
X71789562Y20109886D02*
X71694324Y20062267D01*
X72884800Y20347981D02*
X72980038Y20347981D01*
X72980038Y20347981D02*
X73075276Y20300362D01*
X73075276Y20300362D02*
X73122895Y20252743D01*
X73122895Y20252743D02*
X73170514Y20157505D01*
X73170514Y20157505D02*
X73218133Y19967029D01*
X73218133Y19967029D02*
X73218133Y19728934D01*
X73218133Y19728934D02*
X73170514Y19538458D01*
X73170514Y19538458D02*
X73122895Y19443220D01*
X73122895Y19443220D02*
X73075276Y19395600D01*
X73075276Y19395600D02*
X72980038Y19347981D01*
X72980038Y19347981D02*
X72884800Y19347981D01*
X72884800Y19347981D02*
X72789562Y19395600D01*
X72789562Y19395600D02*
X72741943Y19443220D01*
X72741943Y19443220D02*
X72694324Y19538458D01*
X72694324Y19538458D02*
X72646705Y19728934D01*
X72646705Y19728934D02*
X72646705Y19967029D01*
X72646705Y19967029D02*
X72694324Y20157505D01*
X72694324Y20157505D02*
X72741943Y20252743D01*
X72741943Y20252743D02*
X72789562Y20300362D01*
X72789562Y20300362D02*
X72884800Y20347981D01*
X74170514Y19347981D02*
X73599086Y19347981D01*
X73884800Y19347981D02*
X73884800Y20347981D01*
X73884800Y20347981D02*
X73789562Y20205124D01*
X73789562Y20205124D02*
X73694324Y20109886D01*
X73694324Y20109886D02*
X73599086Y20062267D01*
D11*
X43078964Y10891639D02*
X43090869Y10879735D01*
X43090869Y10879735D02*
X43102773Y10844020D01*
X43102773Y10844020D02*
X43102773Y10820211D01*
X43102773Y10820211D02*
X43090869Y10784497D01*
X43090869Y10784497D02*
X43067059Y10760687D01*
X43067059Y10760687D02*
X43043249Y10748782D01*
X43043249Y10748782D02*
X42995630Y10736878D01*
X42995630Y10736878D02*
X42959916Y10736878D01*
X42959916Y10736878D02*
X42912297Y10748782D01*
X42912297Y10748782D02*
X42888488Y10760687D01*
X42888488Y10760687D02*
X42864678Y10784497D01*
X42864678Y10784497D02*
X42852773Y10820211D01*
X42852773Y10820211D02*
X42852773Y10844020D01*
X42852773Y10844020D02*
X42864678Y10879735D01*
X42864678Y10879735D02*
X42876583Y10891639D01*
X43102773Y11129735D02*
X43102773Y10986878D01*
X43102773Y11058306D02*
X42852773Y11058306D01*
X42852773Y11058306D02*
X42888488Y11034497D01*
X42888488Y11034497D02*
X42912297Y11010687D01*
X42912297Y11010687D02*
X42924202Y10986878D01*
X42852773Y11284496D02*
X42852773Y11308306D01*
X42852773Y11308306D02*
X42864678Y11332115D01*
X42864678Y11332115D02*
X42876583Y11344020D01*
X42876583Y11344020D02*
X42900392Y11355925D01*
X42900392Y11355925D02*
X42948011Y11367830D01*
X42948011Y11367830D02*
X43007535Y11367830D01*
X43007535Y11367830D02*
X43055154Y11355925D01*
X43055154Y11355925D02*
X43078964Y11344020D01*
X43078964Y11344020D02*
X43090869Y11332115D01*
X43090869Y11332115D02*
X43102773Y11308306D01*
X43102773Y11308306D02*
X43102773Y11284496D01*
X43102773Y11284496D02*
X43090869Y11260687D01*
X43090869Y11260687D02*
X43078964Y11248782D01*
X43078964Y11248782D02*
X43055154Y11236877D01*
X43055154Y11236877D02*
X43007535Y11224973D01*
X43007535Y11224973D02*
X42948011Y11224973D01*
X42948011Y11224973D02*
X42900392Y11236877D01*
X42900392Y11236877D02*
X42876583Y11248782D01*
X42876583Y11248782D02*
X42864678Y11260687D01*
X42864678Y11260687D02*
X42852773Y11284496D01*
X42959916Y11510687D02*
X42948011Y11486877D01*
X42948011Y11486877D02*
X42936107Y11474972D01*
X42936107Y11474972D02*
X42912297Y11463068D01*
X42912297Y11463068D02*
X42900392Y11463068D01*
X42900392Y11463068D02*
X42876583Y11474972D01*
X42876583Y11474972D02*
X42864678Y11486877D01*
X42864678Y11486877D02*
X42852773Y11510687D01*
X42852773Y11510687D02*
X42852773Y11558306D01*
X42852773Y11558306D02*
X42864678Y11582115D01*
X42864678Y11582115D02*
X42876583Y11594020D01*
X42876583Y11594020D02*
X42900392Y11605925D01*
X42900392Y11605925D02*
X42912297Y11605925D01*
X42912297Y11605925D02*
X42936107Y11594020D01*
X42936107Y11594020D02*
X42948011Y11582115D01*
X42948011Y11582115D02*
X42959916Y11558306D01*
X42959916Y11558306D02*
X42959916Y11510687D01*
X42959916Y11510687D02*
X42971821Y11486877D01*
X42971821Y11486877D02*
X42983726Y11474972D01*
X42983726Y11474972D02*
X43007535Y11463068D01*
X43007535Y11463068D02*
X43055154Y11463068D01*
X43055154Y11463068D02*
X43078964Y11474972D01*
X43078964Y11474972D02*
X43090869Y11486877D01*
X43090869Y11486877D02*
X43102773Y11510687D01*
X43102773Y11510687D02*
X43102773Y11558306D01*
X43102773Y11558306D02*
X43090869Y11582115D01*
X43090869Y11582115D02*
X43078964Y11594020D01*
X43078964Y11594020D02*
X43055154Y11605925D01*
X43055154Y11605925D02*
X43007535Y11605925D01*
X43007535Y11605925D02*
X42983726Y11594020D01*
X42983726Y11594020D02*
X42971821Y11582115D01*
X42971821Y11582115D02*
X42959916Y11558306D01*
X42977773Y10676878D02*
X42977773Y11665925D01*
X67450565Y21121208D02*
X67462470Y21109304D01*
X67462470Y21109304D02*
X67474374Y21073589D01*
X67474374Y21073589D02*
X67474374Y21049780D01*
X67474374Y21049780D02*
X67462470Y21014066D01*
X67462470Y21014066D02*
X67438660Y20990256D01*
X67438660Y20990256D02*
X67414850Y20978351D01*
X67414850Y20978351D02*
X67367231Y20966447D01*
X67367231Y20966447D02*
X67331517Y20966447D01*
X67331517Y20966447D02*
X67283898Y20978351D01*
X67283898Y20978351D02*
X67260089Y20990256D01*
X67260089Y20990256D02*
X67236279Y21014066D01*
X67236279Y21014066D02*
X67224374Y21049780D01*
X67224374Y21049780D02*
X67224374Y21073589D01*
X67224374Y21073589D02*
X67236279Y21109304D01*
X67236279Y21109304D02*
X67248184Y21121208D01*
X67474374Y21359304D02*
X67474374Y21216447D01*
X67474374Y21287875D02*
X67224374Y21287875D01*
X67224374Y21287875D02*
X67260089Y21264066D01*
X67260089Y21264066D02*
X67283898Y21240256D01*
X67283898Y21240256D02*
X67295803Y21216447D01*
X67224374Y21514065D02*
X67224374Y21537875D01*
X67224374Y21537875D02*
X67236279Y21561684D01*
X67236279Y21561684D02*
X67248184Y21573589D01*
X67248184Y21573589D02*
X67271993Y21585494D01*
X67271993Y21585494D02*
X67319612Y21597399D01*
X67319612Y21597399D02*
X67379136Y21597399D01*
X67379136Y21597399D02*
X67426755Y21585494D01*
X67426755Y21585494D02*
X67450565Y21573589D01*
X67450565Y21573589D02*
X67462470Y21561684D01*
X67462470Y21561684D02*
X67474374Y21537875D01*
X67474374Y21537875D02*
X67474374Y21514065D01*
X67474374Y21514065D02*
X67462470Y21490256D01*
X67462470Y21490256D02*
X67450565Y21478351D01*
X67450565Y21478351D02*
X67426755Y21466446D01*
X67426755Y21466446D02*
X67379136Y21454542D01*
X67379136Y21454542D02*
X67319612Y21454542D01*
X67319612Y21454542D02*
X67271993Y21466446D01*
X67271993Y21466446D02*
X67248184Y21478351D01*
X67248184Y21478351D02*
X67236279Y21490256D01*
X67236279Y21490256D02*
X67224374Y21514065D01*
X67248184Y21692637D02*
X67236279Y21704541D01*
X67236279Y21704541D02*
X67224374Y21728351D01*
X67224374Y21728351D02*
X67224374Y21787875D01*
X67224374Y21787875D02*
X67236279Y21811684D01*
X67236279Y21811684D02*
X67248184Y21823589D01*
X67248184Y21823589D02*
X67271993Y21835494D01*
X67271993Y21835494D02*
X67295803Y21835494D01*
X67295803Y21835494D02*
X67331517Y21823589D01*
X67331517Y21823589D02*
X67474374Y21680732D01*
X67474374Y21680732D02*
X67474374Y21835494D01*
X41532581Y15325026D02*
X41532581Y15575026D01*
X41532581Y15575026D02*
X41592105Y15575026D01*
X41592105Y15575026D02*
X41627819Y15563121D01*
X41627819Y15563121D02*
X41651629Y15539311D01*
X41651629Y15539311D02*
X41663534Y15515502D01*
X41663534Y15515502D02*
X41675438Y15467883D01*
X41675438Y15467883D02*
X41675438Y15432169D01*
X41675438Y15432169D02*
X41663534Y15384550D01*
X41663534Y15384550D02*
X41651629Y15360740D01*
X41651629Y15360740D02*
X41627819Y15336930D01*
X41627819Y15336930D02*
X41592105Y15325026D01*
X41592105Y15325026D02*
X41532581Y15325026D01*
X41913534Y15325026D02*
X41770677Y15325026D01*
X41842105Y15325026D02*
X41842105Y15575026D01*
X41842105Y15575026D02*
X41818296Y15539311D01*
X41818296Y15539311D02*
X41794486Y15515502D01*
X41794486Y15515502D02*
X41770677Y15503597D01*
X42068295Y15575026D02*
X42092105Y15575026D01*
X42092105Y15575026D02*
X42115914Y15563121D01*
X42115914Y15563121D02*
X42127819Y15551216D01*
X42127819Y15551216D02*
X42139724Y15527407D01*
X42139724Y15527407D02*
X42151629Y15479788D01*
X42151629Y15479788D02*
X42151629Y15420264D01*
X42151629Y15420264D02*
X42139724Y15372645D01*
X42139724Y15372645D02*
X42127819Y15348835D01*
X42127819Y15348835D02*
X42115914Y15336930D01*
X42115914Y15336930D02*
X42092105Y15325026D01*
X42092105Y15325026D02*
X42068295Y15325026D01*
X42068295Y15325026D02*
X42044486Y15336930D01*
X42044486Y15336930D02*
X42032581Y15348835D01*
X42032581Y15348835D02*
X42020676Y15372645D01*
X42020676Y15372645D02*
X42008772Y15420264D01*
X42008772Y15420264D02*
X42008772Y15479788D01*
X42008772Y15479788D02*
X42020676Y15527407D01*
X42020676Y15527407D02*
X42032581Y15551216D01*
X42032581Y15551216D02*
X42044486Y15563121D01*
X42044486Y15563121D02*
X42068295Y15575026D01*
X42389724Y15325026D02*
X42246867Y15325026D01*
X42318295Y15325026D02*
X42318295Y15575026D01*
X42318295Y15575026D02*
X42294486Y15539311D01*
X42294486Y15539311D02*
X42270676Y15515502D01*
X42270676Y15515502D02*
X42246867Y15503597D01*
X43078964Y12771239D02*
X43090869Y12759335D01*
X43090869Y12759335D02*
X43102773Y12723620D01*
X43102773Y12723620D02*
X43102773Y12699811D01*
X43102773Y12699811D02*
X43090869Y12664097D01*
X43090869Y12664097D02*
X43067059Y12640287D01*
X43067059Y12640287D02*
X43043249Y12628382D01*
X43043249Y12628382D02*
X42995630Y12616478D01*
X42995630Y12616478D02*
X42959916Y12616478D01*
X42959916Y12616478D02*
X42912297Y12628382D01*
X42912297Y12628382D02*
X42888488Y12640287D01*
X42888488Y12640287D02*
X42864678Y12664097D01*
X42864678Y12664097D02*
X42852773Y12699811D01*
X42852773Y12699811D02*
X42852773Y12723620D01*
X42852773Y12723620D02*
X42864678Y12759335D01*
X42864678Y12759335D02*
X42876583Y12771239D01*
X43102773Y13009335D02*
X43102773Y12866478D01*
X43102773Y12937906D02*
X42852773Y12937906D01*
X42852773Y12937906D02*
X42888488Y12914097D01*
X42888488Y12914097D02*
X42912297Y12890287D01*
X42912297Y12890287D02*
X42924202Y12866478D01*
X42852773Y13164096D02*
X42852773Y13187906D01*
X42852773Y13187906D02*
X42864678Y13211715D01*
X42864678Y13211715D02*
X42876583Y13223620D01*
X42876583Y13223620D02*
X42900392Y13235525D01*
X42900392Y13235525D02*
X42948011Y13247430D01*
X42948011Y13247430D02*
X43007535Y13247430D01*
X43007535Y13247430D02*
X43055154Y13235525D01*
X43055154Y13235525D02*
X43078964Y13223620D01*
X43078964Y13223620D02*
X43090869Y13211715D01*
X43090869Y13211715D02*
X43102773Y13187906D01*
X43102773Y13187906D02*
X43102773Y13164096D01*
X43102773Y13164096D02*
X43090869Y13140287D01*
X43090869Y13140287D02*
X43078964Y13128382D01*
X43078964Y13128382D02*
X43055154Y13116477D01*
X43055154Y13116477D02*
X43007535Y13104573D01*
X43007535Y13104573D02*
X42948011Y13104573D01*
X42948011Y13104573D02*
X42900392Y13116477D01*
X42900392Y13116477D02*
X42876583Y13128382D01*
X42876583Y13128382D02*
X42864678Y13140287D01*
X42864678Y13140287D02*
X42852773Y13164096D01*
X43102773Y13366477D02*
X43102773Y13414096D01*
X43102773Y13414096D02*
X43090869Y13437906D01*
X43090869Y13437906D02*
X43078964Y13449810D01*
X43078964Y13449810D02*
X43043249Y13473620D01*
X43043249Y13473620D02*
X42995630Y13485525D01*
X42995630Y13485525D02*
X42900392Y13485525D01*
X42900392Y13485525D02*
X42876583Y13473620D01*
X42876583Y13473620D02*
X42864678Y13461715D01*
X42864678Y13461715D02*
X42852773Y13437906D01*
X42852773Y13437906D02*
X42852773Y13390287D01*
X42852773Y13390287D02*
X42864678Y13366477D01*
X42864678Y13366477D02*
X42876583Y13354572D01*
X42876583Y13354572D02*
X42900392Y13342668D01*
X42900392Y13342668D02*
X42959916Y13342668D01*
X42959916Y13342668D02*
X42983726Y13354572D01*
X42983726Y13354572D02*
X42995630Y13366477D01*
X42995630Y13366477D02*
X43007535Y13390287D01*
X43007535Y13390287D02*
X43007535Y13437906D01*
X43007535Y13437906D02*
X42995630Y13461715D01*
X42995630Y13461715D02*
X42983726Y13473620D01*
X42983726Y13473620D02*
X42959916Y13485525D01*
X42977773Y12556478D02*
X42977773Y13545525D01*
D14*
X22236324Y9139581D02*
X22236324Y10139581D01*
X22807752Y9139581D02*
X22379181Y9711010D01*
X22807752Y10139581D02*
X22236324Y9568153D01*
X23760133Y9139581D02*
X23188705Y9139581D01*
X23474419Y9139581D02*
X23474419Y10139581D01*
X23474419Y10139581D02*
X23379181Y9996724D01*
X23379181Y9996724D02*
X23283943Y9901486D01*
X23283943Y9901486D02*
X23188705Y9853867D01*
X24379181Y10139581D02*
X24474419Y10139581D01*
X24474419Y10139581D02*
X24569657Y10091962D01*
X24569657Y10091962D02*
X24617276Y10044343D01*
X24617276Y10044343D02*
X24664895Y9949105D01*
X24664895Y9949105D02*
X24712514Y9758629D01*
X24712514Y9758629D02*
X24712514Y9520534D01*
X24712514Y9520534D02*
X24664895Y9330058D01*
X24664895Y9330058D02*
X24617276Y9234820D01*
X24617276Y9234820D02*
X24569657Y9187200D01*
X24569657Y9187200D02*
X24474419Y9139581D01*
X24474419Y9139581D02*
X24379181Y9139581D01*
X24379181Y9139581D02*
X24283943Y9187200D01*
X24283943Y9187200D02*
X24236324Y9234820D01*
X24236324Y9234820D02*
X24188705Y9330058D01*
X24188705Y9330058D02*
X24141086Y9520534D01*
X24141086Y9520534D02*
X24141086Y9758629D01*
X24141086Y9758629D02*
X24188705Y9949105D01*
X24188705Y9949105D02*
X24236324Y10044343D01*
X24236324Y10044343D02*
X24283943Y10091962D01*
X24283943Y10091962D02*
X24379181Y10139581D01*
X25569657Y9806248D02*
X25569657Y9139581D01*
X25331562Y10187200D02*
X25093467Y9472915D01*
X25093467Y9472915D02*
X25712514Y9472915D01*
D10*
X30763527Y14889382D02*
X30763527Y14698906D01*
X30763527Y14698906D02*
X30363527Y14698906D01*
X30763527Y15232239D02*
X30763527Y15003668D01*
X30763527Y15117954D02*
X30363527Y15117954D01*
X30363527Y15117954D02*
X30420670Y15079858D01*
X30420670Y15079858D02*
X30458765Y15041763D01*
X30458765Y15041763D02*
X30477813Y15003668D01*
X30363527Y15479858D02*
X30363527Y15517953D01*
X30363527Y15517953D02*
X30382575Y15556049D01*
X30382575Y15556049D02*
X30401622Y15575096D01*
X30401622Y15575096D02*
X30439718Y15594144D01*
X30439718Y15594144D02*
X30515908Y15613191D01*
X30515908Y15613191D02*
X30611146Y15613191D01*
X30611146Y15613191D02*
X30687337Y15594144D01*
X30687337Y15594144D02*
X30725432Y15575096D01*
X30725432Y15575096D02*
X30744480Y15556049D01*
X30744480Y15556049D02*
X30763527Y15517953D01*
X30763527Y15517953D02*
X30763527Y15479858D01*
X30763527Y15479858D02*
X30744480Y15441763D01*
X30744480Y15441763D02*
X30725432Y15422715D01*
X30725432Y15422715D02*
X30687337Y15403668D01*
X30687337Y15403668D02*
X30611146Y15384620D01*
X30611146Y15384620D02*
X30515908Y15384620D01*
X30515908Y15384620D02*
X30439718Y15403668D01*
X30439718Y15403668D02*
X30401622Y15422715D01*
X30401622Y15422715D02*
X30382575Y15441763D01*
X30382575Y15441763D02*
X30363527Y15479858D01*
X30401622Y15765572D02*
X30382575Y15784620D01*
X30382575Y15784620D02*
X30363527Y15822715D01*
X30363527Y15822715D02*
X30363527Y15917953D01*
X30363527Y15917953D02*
X30382575Y15956048D01*
X30382575Y15956048D02*
X30401622Y15975096D01*
X30401622Y15975096D02*
X30439718Y15994143D01*
X30439718Y15994143D02*
X30477813Y15994143D01*
X30477813Y15994143D02*
X30534956Y15975096D01*
X30534956Y15975096D02*
X30763527Y15746524D01*
X30763527Y15746524D02*
X30763527Y15994143D01*
X25378727Y14411382D02*
X25188251Y14278049D01*
X25378727Y14182811D02*
X24978727Y14182811D01*
X24978727Y14182811D02*
X24978727Y14335192D01*
X24978727Y14335192D02*
X24997775Y14373287D01*
X24997775Y14373287D02*
X25016822Y14392334D01*
X25016822Y14392334D02*
X25054918Y14411382D01*
X25054918Y14411382D02*
X25112060Y14411382D01*
X25112060Y14411382D02*
X25150156Y14392334D01*
X25150156Y14392334D02*
X25169203Y14373287D01*
X25169203Y14373287D02*
X25188251Y14335192D01*
X25188251Y14335192D02*
X25188251Y14182811D01*
X25378727Y14792334D02*
X25378727Y14563763D01*
X25378727Y14678049D02*
X24978727Y14678049D01*
X24978727Y14678049D02*
X25035870Y14639953D01*
X25035870Y14639953D02*
X25073965Y14601858D01*
X25073965Y14601858D02*
X25093013Y14563763D01*
X24978727Y15039953D02*
X24978727Y15078048D01*
X24978727Y15078048D02*
X24997775Y15116144D01*
X24997775Y15116144D02*
X25016822Y15135191D01*
X25016822Y15135191D02*
X25054918Y15154239D01*
X25054918Y15154239D02*
X25131108Y15173286D01*
X25131108Y15173286D02*
X25226346Y15173286D01*
X25226346Y15173286D02*
X25302537Y15154239D01*
X25302537Y15154239D02*
X25340632Y15135191D01*
X25340632Y15135191D02*
X25359680Y15116144D01*
X25359680Y15116144D02*
X25378727Y15078048D01*
X25378727Y15078048D02*
X25378727Y15039953D01*
X25378727Y15039953D02*
X25359680Y15001858D01*
X25359680Y15001858D02*
X25340632Y14982810D01*
X25340632Y14982810D02*
X25302537Y14963763D01*
X25302537Y14963763D02*
X25226346Y14944715D01*
X25226346Y14944715D02*
X25131108Y14944715D01*
X25131108Y14944715D02*
X25054918Y14963763D01*
X25054918Y14963763D02*
X25016822Y14982810D01*
X25016822Y14982810D02*
X24997775Y15001858D01*
X24997775Y15001858D02*
X24978727Y15039953D01*
X24978727Y15516143D02*
X24978727Y15439953D01*
X24978727Y15439953D02*
X24997775Y15401857D01*
X24997775Y15401857D02*
X25016822Y15382810D01*
X25016822Y15382810D02*
X25073965Y15344715D01*
X25073965Y15344715D02*
X25150156Y15325667D01*
X25150156Y15325667D02*
X25302537Y15325667D01*
X25302537Y15325667D02*
X25340632Y15344715D01*
X25340632Y15344715D02*
X25359680Y15363762D01*
X25359680Y15363762D02*
X25378727Y15401857D01*
X25378727Y15401857D02*
X25378727Y15478048D01*
X25378727Y15478048D02*
X25359680Y15516143D01*
X25359680Y15516143D02*
X25340632Y15535191D01*
X25340632Y15535191D02*
X25302537Y15554238D01*
X25302537Y15554238D02*
X25207299Y15554238D01*
X25207299Y15554238D02*
X25169203Y15535191D01*
X25169203Y15535191D02*
X25150156Y15516143D01*
X25150156Y15516143D02*
X25131108Y15478048D01*
X25131108Y15478048D02*
X25131108Y15401857D01*
X25131108Y15401857D02*
X25150156Y15363762D01*
X25150156Y15363762D02*
X25169203Y15344715D01*
X25169203Y15344715D02*
X25207299Y15325667D01*
X30103127Y9606182D02*
X29912651Y9472849D01*
X30103127Y9377611D02*
X29703127Y9377611D01*
X29703127Y9377611D02*
X29703127Y9529992D01*
X29703127Y9529992D02*
X29722175Y9568087D01*
X29722175Y9568087D02*
X29741222Y9587134D01*
X29741222Y9587134D02*
X29779318Y9606182D01*
X29779318Y9606182D02*
X29836460Y9606182D01*
X29836460Y9606182D02*
X29874556Y9587134D01*
X29874556Y9587134D02*
X29893603Y9568087D01*
X29893603Y9568087D02*
X29912651Y9529992D01*
X29912651Y9529992D02*
X29912651Y9377611D01*
X30103127Y9987134D02*
X30103127Y9758563D01*
X30103127Y9872849D02*
X29703127Y9872849D01*
X29703127Y9872849D02*
X29760270Y9834753D01*
X29760270Y9834753D02*
X29798365Y9796658D01*
X29798365Y9796658D02*
X29817413Y9758563D01*
X29703127Y10234753D02*
X29703127Y10272848D01*
X29703127Y10272848D02*
X29722175Y10310944D01*
X29722175Y10310944D02*
X29741222Y10329991D01*
X29741222Y10329991D02*
X29779318Y10349039D01*
X29779318Y10349039D02*
X29855508Y10368086D01*
X29855508Y10368086D02*
X29950746Y10368086D01*
X29950746Y10368086D02*
X30026937Y10349039D01*
X30026937Y10349039D02*
X30065032Y10329991D01*
X30065032Y10329991D02*
X30084080Y10310944D01*
X30084080Y10310944D02*
X30103127Y10272848D01*
X30103127Y10272848D02*
X30103127Y10234753D01*
X30103127Y10234753D02*
X30084080Y10196658D01*
X30084080Y10196658D02*
X30065032Y10177610D01*
X30065032Y10177610D02*
X30026937Y10158563D01*
X30026937Y10158563D02*
X29950746Y10139515D01*
X29950746Y10139515D02*
X29855508Y10139515D01*
X29855508Y10139515D02*
X29779318Y10158563D01*
X29779318Y10158563D02*
X29741222Y10177610D01*
X29741222Y10177610D02*
X29722175Y10196658D01*
X29722175Y10196658D02*
X29703127Y10234753D01*
X30103127Y10749038D02*
X30103127Y10520467D01*
X30103127Y10634753D02*
X29703127Y10634753D01*
X29703127Y10634753D02*
X29760270Y10596657D01*
X29760270Y10596657D02*
X29798365Y10558562D01*
X29798365Y10558562D02*
X29817413Y10520467D01*
D14*
X71317999Y21663094D02*
X71317999Y22663094D01*
X71317999Y22663094D02*
X71651332Y21948809D01*
X71651332Y21948809D02*
X71984665Y22663094D01*
X71984665Y22663094D02*
X71984665Y21663094D01*
X72460856Y21663094D02*
X72460856Y22663094D01*
X72460856Y22186904D02*
X73032284Y22186904D01*
X73032284Y21663094D02*
X73032284Y22663094D01*
X74032284Y21663094D02*
X73460856Y21663094D01*
X73746570Y21663094D02*
X73746570Y22663094D01*
X73746570Y22663094D02*
X73651332Y22520237D01*
X73651332Y22520237D02*
X73556094Y22424999D01*
X73556094Y22424999D02*
X73460856Y22377380D01*
X74651332Y22663094D02*
X74746570Y22663094D01*
X74746570Y22663094D02*
X74841808Y22615475D01*
X74841808Y22615475D02*
X74889427Y22567856D01*
X74889427Y22567856D02*
X74937046Y22472618D01*
X74937046Y22472618D02*
X74984665Y22282142D01*
X74984665Y22282142D02*
X74984665Y22044047D01*
X74984665Y22044047D02*
X74937046Y21853571D01*
X74937046Y21853571D02*
X74889427Y21758333D01*
X74889427Y21758333D02*
X74841808Y21710713D01*
X74841808Y21710713D02*
X74746570Y21663094D01*
X74746570Y21663094D02*
X74651332Y21663094D01*
X74651332Y21663094D02*
X74556094Y21710713D01*
X74556094Y21710713D02*
X74508475Y21758333D01*
X74508475Y21758333D02*
X74460856Y21853571D01*
X74460856Y21853571D02*
X74413237Y22044047D01*
X74413237Y22044047D02*
X74413237Y22282142D01*
X74413237Y22282142D02*
X74460856Y22472618D01*
X74460856Y22472618D02*
X74508475Y22567856D01*
X74508475Y22567856D02*
X74556094Y22615475D01*
X74556094Y22615475D02*
X74651332Y22663094D01*
X75365618Y22567856D02*
X75413237Y22615475D01*
X75413237Y22615475D02*
X75508475Y22663094D01*
X75508475Y22663094D02*
X75746570Y22663094D01*
X75746570Y22663094D02*
X75841808Y22615475D01*
X75841808Y22615475D02*
X75889427Y22567856D01*
X75889427Y22567856D02*
X75937046Y22472618D01*
X75937046Y22472618D02*
X75937046Y22377380D01*
X75937046Y22377380D02*
X75889427Y22234523D01*
X75889427Y22234523D02*
X75317999Y21663094D01*
X75317999Y21663094D02*
X75937046Y21663094D01*
D11*
X57925848Y21167000D02*
X57839181Y21290809D01*
X57777276Y21167000D02*
X57777276Y21427000D01*
X57777276Y21427000D02*
X57876324Y21427000D01*
X57876324Y21427000D02*
X57901086Y21414619D01*
X57901086Y21414619D02*
X57913467Y21402238D01*
X57913467Y21402238D02*
X57925848Y21377476D01*
X57925848Y21377476D02*
X57925848Y21340333D01*
X57925848Y21340333D02*
X57913467Y21315571D01*
X57913467Y21315571D02*
X57901086Y21303190D01*
X57901086Y21303190D02*
X57876324Y21290809D01*
X57876324Y21290809D02*
X57777276Y21290809D01*
X58173467Y21167000D02*
X58024895Y21167000D01*
X58099181Y21167000D02*
X58099181Y21427000D01*
X58099181Y21427000D02*
X58074419Y21389857D01*
X58074419Y21389857D02*
X58049657Y21365095D01*
X58049657Y21365095D02*
X58024895Y21352714D01*
X58334419Y21427000D02*
X58359181Y21427000D01*
X58359181Y21427000D02*
X58383943Y21414619D01*
X58383943Y21414619D02*
X58396324Y21402238D01*
X58396324Y21402238D02*
X58408705Y21377476D01*
X58408705Y21377476D02*
X58421086Y21327952D01*
X58421086Y21327952D02*
X58421086Y21266047D01*
X58421086Y21266047D02*
X58408705Y21216523D01*
X58408705Y21216523D02*
X58396324Y21191761D01*
X58396324Y21191761D02*
X58383943Y21179380D01*
X58383943Y21179380D02*
X58359181Y21167000D01*
X58359181Y21167000D02*
X58334419Y21167000D01*
X58334419Y21167000D02*
X58309657Y21179380D01*
X58309657Y21179380D02*
X58297276Y21191761D01*
X58297276Y21191761D02*
X58284895Y21216523D01*
X58284895Y21216523D02*
X58272514Y21266047D01*
X58272514Y21266047D02*
X58272514Y21327952D01*
X58272514Y21327952D02*
X58284895Y21377476D01*
X58284895Y21377476D02*
X58297276Y21402238D01*
X58297276Y21402238D02*
X58309657Y21414619D01*
X58309657Y21414619D02*
X58334419Y21427000D01*
X58544895Y21167000D02*
X58594419Y21167000D01*
X58594419Y21167000D02*
X58619181Y21179380D01*
X58619181Y21179380D02*
X58631562Y21191761D01*
X58631562Y21191761D02*
X58656324Y21228904D01*
X58656324Y21228904D02*
X58668705Y21278428D01*
X58668705Y21278428D02*
X58668705Y21377476D01*
X58668705Y21377476D02*
X58656324Y21402238D01*
X58656324Y21402238D02*
X58643943Y21414619D01*
X58643943Y21414619D02*
X58619181Y21427000D01*
X58619181Y21427000D02*
X58569657Y21427000D01*
X58569657Y21427000D02*
X58544895Y21414619D01*
X58544895Y21414619D02*
X58532514Y21402238D01*
X58532514Y21402238D02*
X58520133Y21377476D01*
X58520133Y21377476D02*
X58520133Y21315571D01*
X58520133Y21315571D02*
X58532514Y21290809D01*
X58532514Y21290809D02*
X58544895Y21278428D01*
X58544895Y21278428D02*
X58569657Y21266047D01*
X58569657Y21266047D02*
X58619181Y21266047D01*
X58619181Y21266047D02*
X58643943Y21278428D01*
X58643943Y21278428D02*
X58656324Y21290809D01*
X58656324Y21290809D02*
X58668705Y21315571D01*
D10*
X39938381Y10788271D02*
X39747905Y10788271D01*
X39747905Y10788271D02*
X39747905Y11188271D01*
X40281238Y10788271D02*
X40052667Y10788271D01*
X40166953Y10788271D02*
X40166953Y11188271D01*
X40166953Y11188271D02*
X40128857Y11131128D01*
X40128857Y11131128D02*
X40090762Y11093033D01*
X40090762Y11093033D02*
X40052667Y11073985D01*
X40528857Y11188271D02*
X40566952Y11188271D01*
X40566952Y11188271D02*
X40605048Y11169223D01*
X40605048Y11169223D02*
X40624095Y11150176D01*
X40624095Y11150176D02*
X40643143Y11112080D01*
X40643143Y11112080D02*
X40662190Y11035890D01*
X40662190Y11035890D02*
X40662190Y10940652D01*
X40662190Y10940652D02*
X40643143Y10864461D01*
X40643143Y10864461D02*
X40624095Y10826366D01*
X40624095Y10826366D02*
X40605048Y10807318D01*
X40605048Y10807318D02*
X40566952Y10788271D01*
X40566952Y10788271D02*
X40528857Y10788271D01*
X40528857Y10788271D02*
X40490762Y10807318D01*
X40490762Y10807318D02*
X40471714Y10826366D01*
X40471714Y10826366D02*
X40452667Y10864461D01*
X40452667Y10864461D02*
X40433619Y10940652D01*
X40433619Y10940652D02*
X40433619Y11035890D01*
X40433619Y11035890D02*
X40452667Y11112080D01*
X40452667Y11112080D02*
X40471714Y11150176D01*
X40471714Y11150176D02*
X40490762Y11169223D01*
X40490762Y11169223D02*
X40528857Y11188271D01*
X41043142Y10788271D02*
X40814571Y10788271D01*
X40928857Y10788271D02*
X40928857Y11188271D01*
X40928857Y11188271D02*
X40890761Y11131128D01*
X40890761Y11131128D02*
X40852666Y11093033D01*
X40852666Y11093033D02*
X40814571Y11073985D01*
D15*
X56361149Y21534463D02*
X55861149Y21534463D01*
X55861149Y21534463D02*
X55861149Y21653511D01*
X55861149Y21653511D02*
X55884959Y21724939D01*
X55884959Y21724939D02*
X55932578Y21772558D01*
X55932578Y21772558D02*
X55980197Y21796368D01*
X55980197Y21796368D02*
X56075435Y21820177D01*
X56075435Y21820177D02*
X56146863Y21820177D01*
X56146863Y21820177D02*
X56242101Y21796368D01*
X56242101Y21796368D02*
X56289720Y21772558D01*
X56289720Y21772558D02*
X56337340Y21724939D01*
X56337340Y21724939D02*
X56361149Y21653511D01*
X56361149Y21653511D02*
X56361149Y21534463D01*
X56361149Y22296368D02*
X56361149Y22010654D01*
X56361149Y22153511D02*
X55861149Y22153511D01*
X55861149Y22153511D02*
X55932578Y22105892D01*
X55932578Y22105892D02*
X55980197Y22058273D01*
X55980197Y22058273D02*
X56004006Y22010654D01*
X55861149Y22605891D02*
X55861149Y22653510D01*
X55861149Y22653510D02*
X55884959Y22701129D01*
X55884959Y22701129D02*
X55908768Y22724939D01*
X55908768Y22724939D02*
X55956387Y22748748D01*
X55956387Y22748748D02*
X56051625Y22772558D01*
X56051625Y22772558D02*
X56170673Y22772558D01*
X56170673Y22772558D02*
X56265911Y22748748D01*
X56265911Y22748748D02*
X56313530Y22724939D01*
X56313530Y22724939D02*
X56337340Y22701129D01*
X56337340Y22701129D02*
X56361149Y22653510D01*
X56361149Y22653510D02*
X56361149Y22605891D01*
X56361149Y22605891D02*
X56337340Y22558272D01*
X56337340Y22558272D02*
X56313530Y22534463D01*
X56313530Y22534463D02*
X56265911Y22510653D01*
X56265911Y22510653D02*
X56170673Y22486844D01*
X56170673Y22486844D02*
X56051625Y22486844D01*
X56051625Y22486844D02*
X55956387Y22510653D01*
X55956387Y22510653D02*
X55908768Y22534463D01*
X55908768Y22534463D02*
X55884959Y22558272D01*
X55884959Y22558272D02*
X55861149Y22605891D01*
X55861149Y22939224D02*
X55861149Y23248748D01*
X55861149Y23248748D02*
X56051625Y23082081D01*
X56051625Y23082081D02*
X56051625Y23153510D01*
X56051625Y23153510D02*
X56075435Y23201129D01*
X56075435Y23201129D02*
X56099244Y23224938D01*
X56099244Y23224938D02*
X56146863Y23248748D01*
X56146863Y23248748D02*
X56265911Y23248748D01*
X56265911Y23248748D02*
X56313530Y23224938D01*
X56313530Y23224938D02*
X56337340Y23201129D01*
X56337340Y23201129D02*
X56361149Y23153510D01*
X56361149Y23153510D02*
X56361149Y23010653D01*
X56361149Y23010653D02*
X56337340Y22963034D01*
X56337340Y22963034D02*
X56313530Y22939224D01*
D14*
X660686Y21668581D02*
X660686Y22668581D01*
X660686Y22668581D02*
X994019Y21954296D01*
X994019Y21954296D02*
X1327352Y22668581D01*
X1327352Y22668581D02*
X1327352Y21668581D01*
X1803543Y21668581D02*
X1803543Y22668581D01*
X1803543Y22192391D02*
X2374971Y22192391D01*
X2374971Y21668581D02*
X2374971Y22668581D01*
X3374971Y21668581D02*
X2803543Y21668581D01*
X3089257Y21668581D02*
X3089257Y22668581D01*
X3089257Y22668581D02*
X2994019Y22525724D01*
X2994019Y22525724D02*
X2898781Y22430486D01*
X2898781Y22430486D02*
X2803543Y22382867D01*
X3994019Y22668581D02*
X4089257Y22668581D01*
X4089257Y22668581D02*
X4184495Y22620962D01*
X4184495Y22620962D02*
X4232114Y22573343D01*
X4232114Y22573343D02*
X4279733Y22478105D01*
X4279733Y22478105D02*
X4327352Y22287629D01*
X4327352Y22287629D02*
X4327352Y22049534D01*
X4327352Y22049534D02*
X4279733Y21859058D01*
X4279733Y21859058D02*
X4232114Y21763820D01*
X4232114Y21763820D02*
X4184495Y21716200D01*
X4184495Y21716200D02*
X4089257Y21668581D01*
X4089257Y21668581D02*
X3994019Y21668581D01*
X3994019Y21668581D02*
X3898781Y21716200D01*
X3898781Y21716200D02*
X3851162Y21763820D01*
X3851162Y21763820D02*
X3803543Y21859058D01*
X3803543Y21859058D02*
X3755924Y22049534D01*
X3755924Y22049534D02*
X3755924Y22287629D01*
X3755924Y22287629D02*
X3803543Y22478105D01*
X3803543Y22478105D02*
X3851162Y22573343D01*
X3851162Y22573343D02*
X3898781Y22620962D01*
X3898781Y22620962D02*
X3994019Y22668581D01*
X5279733Y21668581D02*
X4708305Y21668581D01*
X4994019Y21668581D02*
X4994019Y22668581D01*
X4994019Y22668581D02*
X4898781Y22525724D01*
X4898781Y22525724D02*
X4803543Y22430486D01*
X4803543Y22430486D02*
X4708305Y22382867D01*
X29131419Y17481925D02*
X28131419Y17481925D01*
X28131419Y17481925D02*
X28131419Y17720020D01*
X28131419Y17720020D02*
X28179038Y17862877D01*
X28179038Y17862877D02*
X28274276Y17958115D01*
X28274276Y17958115D02*
X28369514Y18005734D01*
X28369514Y18005734D02*
X28559990Y18053353D01*
X28559990Y18053353D02*
X28702847Y18053353D01*
X28702847Y18053353D02*
X28893323Y18005734D01*
X28893323Y18005734D02*
X28988561Y17958115D01*
X28988561Y17958115D02*
X29083800Y17862877D01*
X29083800Y17862877D02*
X29131419Y17720020D01*
X29131419Y17720020D02*
X29131419Y17481925D01*
X29131419Y19005734D02*
X29131419Y18434306D01*
X29131419Y18720020D02*
X28131419Y18720020D01*
X28131419Y18720020D02*
X28274276Y18624782D01*
X28274276Y18624782D02*
X28369514Y18529544D01*
X28369514Y18529544D02*
X28417133Y18434306D01*
X28131419Y19624782D02*
X28131419Y19720020D01*
X28131419Y19720020D02*
X28179038Y19815258D01*
X28179038Y19815258D02*
X28226657Y19862877D01*
X28226657Y19862877D02*
X28321895Y19910496D01*
X28321895Y19910496D02*
X28512371Y19958115D01*
X28512371Y19958115D02*
X28750466Y19958115D01*
X28750466Y19958115D02*
X28940942Y19910496D01*
X28940942Y19910496D02*
X29036180Y19862877D01*
X29036180Y19862877D02*
X29083800Y19815258D01*
X29083800Y19815258D02*
X29131419Y19720020D01*
X29131419Y19720020D02*
X29131419Y19624782D01*
X29131419Y19624782D02*
X29083800Y19529544D01*
X29083800Y19529544D02*
X29036180Y19481925D01*
X29036180Y19481925D02*
X28940942Y19434306D01*
X28940942Y19434306D02*
X28750466Y19386687D01*
X28750466Y19386687D02*
X28512371Y19386687D01*
X28512371Y19386687D02*
X28321895Y19434306D01*
X28321895Y19434306D02*
X28226657Y19481925D01*
X28226657Y19481925D02*
X28179038Y19529544D01*
X28179038Y19529544D02*
X28131419Y19624782D01*
X28131419Y20862877D02*
X28131419Y20386687D01*
X28131419Y20386687D02*
X28607609Y20339068D01*
X28607609Y20339068D02*
X28559990Y20386687D01*
X28559990Y20386687D02*
X28512371Y20481925D01*
X28512371Y20481925D02*
X28512371Y20720020D01*
X28512371Y20720020D02*
X28559990Y20815258D01*
X28559990Y20815258D02*
X28607609Y20862877D01*
X28607609Y20862877D02*
X28702847Y20910496D01*
X28702847Y20910496D02*
X28940942Y20910496D01*
X28940942Y20910496D02*
X29036180Y20862877D01*
X29036180Y20862877D02*
X29083800Y20815258D01*
X29083800Y20815258D02*
X29131419Y20720020D01*
X29131419Y20720020D02*
X29131419Y20481925D01*
X29131419Y20481925D02*
X29083800Y20386687D01*
X29083800Y20386687D02*
X29036180Y20339068D01*
X6869324Y9139581D02*
X6869324Y10139581D01*
X7440752Y9139581D02*
X7012181Y9711010D01*
X7440752Y10139581D02*
X6869324Y9568153D01*
X8393133Y9139581D02*
X7821705Y9139581D01*
X8107419Y9139581D02*
X8107419Y10139581D01*
X8107419Y10139581D02*
X8012181Y9996724D01*
X8012181Y9996724D02*
X7916943Y9901486D01*
X7916943Y9901486D02*
X7821705Y9853867D01*
X9012181Y10139581D02*
X9107419Y10139581D01*
X9107419Y10139581D02*
X9202657Y10091962D01*
X9202657Y10091962D02*
X9250276Y10044343D01*
X9250276Y10044343D02*
X9297895Y9949105D01*
X9297895Y9949105D02*
X9345514Y9758629D01*
X9345514Y9758629D02*
X9345514Y9520534D01*
X9345514Y9520534D02*
X9297895Y9330058D01*
X9297895Y9330058D02*
X9250276Y9234820D01*
X9250276Y9234820D02*
X9202657Y9187200D01*
X9202657Y9187200D02*
X9107419Y9139581D01*
X9107419Y9139581D02*
X9012181Y9139581D01*
X9012181Y9139581D02*
X8916943Y9187200D01*
X8916943Y9187200D02*
X8869324Y9234820D01*
X8869324Y9234820D02*
X8821705Y9330058D01*
X8821705Y9330058D02*
X8774086Y9520534D01*
X8774086Y9520534D02*
X8774086Y9758629D01*
X8774086Y9758629D02*
X8821705Y9949105D01*
X8821705Y9949105D02*
X8869324Y10044343D01*
X8869324Y10044343D02*
X8916943Y10091962D01*
X8916943Y10091962D02*
X9012181Y10139581D01*
X10297895Y9139581D02*
X9726467Y9139581D01*
X10012181Y9139581D02*
X10012181Y10139581D01*
X10012181Y10139581D02*
X9916943Y9996724D01*
X9916943Y9996724D02*
X9821705Y9901486D01*
X9821705Y9901486D02*
X9726467Y9853867D01*
D11*
X36932748Y13099202D02*
X36846081Y13223011D01*
X36784176Y13099202D02*
X36784176Y13359202D01*
X36784176Y13359202D02*
X36883224Y13359202D01*
X36883224Y13359202D02*
X36907986Y13346821D01*
X36907986Y13346821D02*
X36920367Y13334440D01*
X36920367Y13334440D02*
X36932748Y13309678D01*
X36932748Y13309678D02*
X36932748Y13272535D01*
X36932748Y13272535D02*
X36920367Y13247773D01*
X36920367Y13247773D02*
X36907986Y13235392D01*
X36907986Y13235392D02*
X36883224Y13223011D01*
X36883224Y13223011D02*
X36784176Y13223011D01*
X37180367Y13099202D02*
X37031795Y13099202D01*
X37106081Y13099202D02*
X37106081Y13359202D01*
X37106081Y13359202D02*
X37081319Y13322059D01*
X37081319Y13322059D02*
X37056557Y13297297D01*
X37056557Y13297297D02*
X37031795Y13284916D01*
X37427986Y13099202D02*
X37279414Y13099202D01*
X37353700Y13099202D02*
X37353700Y13359202D01*
X37353700Y13359202D02*
X37328938Y13322059D01*
X37328938Y13322059D02*
X37304176Y13297297D01*
X37304176Y13297297D02*
X37279414Y13284916D01*
X37675605Y13099202D02*
X37527033Y13099202D01*
X37601319Y13099202D02*
X37601319Y13359202D01*
X37601319Y13359202D02*
X37576557Y13322059D01*
X37576557Y13322059D02*
X37551795Y13297297D01*
X37551795Y13297297D02*
X37527033Y13284916D01*
D14*
X45805885Y1896581D02*
X45805885Y1182296D01*
X45805885Y1182296D02*
X45758266Y1039439D01*
X45758266Y1039439D02*
X45663028Y944200D01*
X45663028Y944200D02*
X45520171Y896581D01*
X45520171Y896581D02*
X45424933Y896581D01*
X46805885Y896581D02*
X46234457Y896581D01*
X46520171Y896581D02*
X46520171Y1896581D01*
X46520171Y1896581D02*
X46424933Y1753724D01*
X46424933Y1753724D02*
X46329695Y1658486D01*
X46329695Y1658486D02*
X46234457Y1610867D01*
X47424933Y1896581D02*
X47520171Y1896581D01*
X47520171Y1896581D02*
X47615409Y1848962D01*
X47615409Y1848962D02*
X47663028Y1801343D01*
X47663028Y1801343D02*
X47710647Y1706105D01*
X47710647Y1706105D02*
X47758266Y1515629D01*
X47758266Y1515629D02*
X47758266Y1277534D01*
X47758266Y1277534D02*
X47710647Y1087058D01*
X47710647Y1087058D02*
X47663028Y991820D01*
X47663028Y991820D02*
X47615409Y944200D01*
X47615409Y944200D02*
X47520171Y896581D01*
X47520171Y896581D02*
X47424933Y896581D01*
X47424933Y896581D02*
X47329695Y944200D01*
X47329695Y944200D02*
X47282076Y991820D01*
X47282076Y991820D02*
X47234457Y1087058D01*
X47234457Y1087058D02*
X47186838Y1277534D01*
X47186838Y1277534D02*
X47186838Y1515629D01*
X47186838Y1515629D02*
X47234457Y1706105D01*
X47234457Y1706105D02*
X47282076Y1801343D01*
X47282076Y1801343D02*
X47329695Y1848962D01*
X47329695Y1848962D02*
X47424933Y1896581D01*
X48091600Y1896581D02*
X48710647Y1896581D01*
X48710647Y1896581D02*
X48377314Y1515629D01*
X48377314Y1515629D02*
X48520171Y1515629D01*
X48520171Y1515629D02*
X48615409Y1468010D01*
X48615409Y1468010D02*
X48663028Y1420391D01*
X48663028Y1420391D02*
X48710647Y1325153D01*
X48710647Y1325153D02*
X48710647Y1087058D01*
X48710647Y1087058D02*
X48663028Y991820D01*
X48663028Y991820D02*
X48615409Y944200D01*
X48615409Y944200D02*
X48520171Y896581D01*
X48520171Y896581D02*
X48234457Y896581D01*
X48234457Y896581D02*
X48139219Y944200D01*
X48139219Y944200D02*
X48091600Y991820D01*
X39028019Y19537686D02*
X39742304Y19537686D01*
X39742304Y19537686D02*
X39885161Y19490067D01*
X39885161Y19490067D02*
X39980400Y19394829D01*
X39980400Y19394829D02*
X40028019Y19251972D01*
X40028019Y19251972D02*
X40028019Y19156734D01*
X40028019Y20537686D02*
X40028019Y19966258D01*
X40028019Y20251972D02*
X39028019Y20251972D01*
X39028019Y20251972D02*
X39170876Y20156734D01*
X39170876Y20156734D02*
X39266114Y20061496D01*
X39266114Y20061496D02*
X39313733Y19966258D01*
X39028019Y21156734D02*
X39028019Y21251972D01*
X39028019Y21251972D02*
X39075638Y21347210D01*
X39075638Y21347210D02*
X39123257Y21394829D01*
X39123257Y21394829D02*
X39218495Y21442448D01*
X39218495Y21442448D02*
X39408971Y21490067D01*
X39408971Y21490067D02*
X39647066Y21490067D01*
X39647066Y21490067D02*
X39837542Y21442448D01*
X39837542Y21442448D02*
X39932780Y21394829D01*
X39932780Y21394829D02*
X39980400Y21347210D01*
X39980400Y21347210D02*
X40028019Y21251972D01*
X40028019Y21251972D02*
X40028019Y21156734D01*
X40028019Y21156734D02*
X39980400Y21061496D01*
X39980400Y21061496D02*
X39932780Y21013877D01*
X39932780Y21013877D02*
X39837542Y20966258D01*
X39837542Y20966258D02*
X39647066Y20918639D01*
X39647066Y20918639D02*
X39408971Y20918639D01*
X39408971Y20918639D02*
X39218495Y20966258D01*
X39218495Y20966258D02*
X39123257Y21013877D01*
X39123257Y21013877D02*
X39075638Y21061496D01*
X39075638Y21061496D02*
X39028019Y21156734D01*
X39028019Y22394829D02*
X39028019Y21918639D01*
X39028019Y21918639D02*
X39504209Y21871020D01*
X39504209Y21871020D02*
X39456590Y21918639D01*
X39456590Y21918639D02*
X39408971Y22013877D01*
X39408971Y22013877D02*
X39408971Y22251972D01*
X39408971Y22251972D02*
X39456590Y22347210D01*
X39456590Y22347210D02*
X39504209Y22394829D01*
X39504209Y22394829D02*
X39599447Y22442448D01*
X39599447Y22442448D02*
X39837542Y22442448D01*
X39837542Y22442448D02*
X39932780Y22394829D01*
X39932780Y22394829D02*
X39980400Y22347210D01*
X39980400Y22347210D02*
X40028019Y22251972D01*
X40028019Y22251972D02*
X40028019Y22013877D01*
X40028019Y22013877D02*
X39980400Y21918639D01*
X39980400Y21918639D02*
X39932780Y21871020D01*
D13*
X46551963Y21464136D02*
X46513867Y21426040D01*
X46513867Y21426040D02*
X46399582Y21387945D01*
X46399582Y21387945D02*
X46323391Y21387945D01*
X46323391Y21387945D02*
X46209105Y21426040D01*
X46209105Y21426040D02*
X46132915Y21502231D01*
X46132915Y21502231D02*
X46094820Y21578421D01*
X46094820Y21578421D02*
X46056724Y21730802D01*
X46056724Y21730802D02*
X46056724Y21845088D01*
X46056724Y21845088D02*
X46094820Y21997469D01*
X46094820Y21997469D02*
X46132915Y22073660D01*
X46132915Y22073660D02*
X46209105Y22149850D01*
X46209105Y22149850D02*
X46323391Y22187945D01*
X46323391Y22187945D02*
X46399582Y22187945D01*
X46399582Y22187945D02*
X46513867Y22149850D01*
X46513867Y22149850D02*
X46551963Y22111755D01*
X47313867Y21387945D02*
X46856724Y21387945D01*
X47085296Y21387945D02*
X47085296Y22187945D01*
X47085296Y22187945D02*
X47009105Y22073660D01*
X47009105Y22073660D02*
X46932915Y21997469D01*
X46932915Y21997469D02*
X46856724Y21959374D01*
X47809106Y22187945D02*
X47885296Y22187945D01*
X47885296Y22187945D02*
X47961487Y22149850D01*
X47961487Y22149850D02*
X47999582Y22111755D01*
X47999582Y22111755D02*
X48037677Y22035564D01*
X48037677Y22035564D02*
X48075772Y21883183D01*
X48075772Y21883183D02*
X48075772Y21692707D01*
X48075772Y21692707D02*
X48037677Y21540326D01*
X48037677Y21540326D02*
X47999582Y21464136D01*
X47999582Y21464136D02*
X47961487Y21426040D01*
X47961487Y21426040D02*
X47885296Y21387945D01*
X47885296Y21387945D02*
X47809106Y21387945D01*
X47809106Y21387945D02*
X47732915Y21426040D01*
X47732915Y21426040D02*
X47694820Y21464136D01*
X47694820Y21464136D02*
X47656725Y21540326D01*
X47656725Y21540326D02*
X47618629Y21692707D01*
X47618629Y21692707D02*
X47618629Y21883183D01*
X47618629Y21883183D02*
X47656725Y22035564D01*
X47656725Y22035564D02*
X47694820Y22111755D01*
X47694820Y22111755D02*
X47732915Y22149850D01*
X47732915Y22149850D02*
X47809106Y22187945D01*
X48761487Y21921279D02*
X48761487Y21387945D01*
X48571011Y22226040D02*
X48380534Y21654612D01*
X48380534Y21654612D02*
X48875773Y21654612D01*
X49345961Y8953336D02*
X49307865Y8915240D01*
X49307865Y8915240D02*
X49193580Y8877145D01*
X49193580Y8877145D02*
X49117389Y8877145D01*
X49117389Y8877145D02*
X49003103Y8915240D01*
X49003103Y8915240D02*
X48926913Y8991431D01*
X48926913Y8991431D02*
X48888818Y9067621D01*
X48888818Y9067621D02*
X48850722Y9220002D01*
X48850722Y9220002D02*
X48850722Y9334288D01*
X48850722Y9334288D02*
X48888818Y9486669D01*
X48888818Y9486669D02*
X48926913Y9562860D01*
X48926913Y9562860D02*
X49003103Y9639050D01*
X49003103Y9639050D02*
X49117389Y9677145D01*
X49117389Y9677145D02*
X49193580Y9677145D01*
X49193580Y9677145D02*
X49307865Y9639050D01*
X49307865Y9639050D02*
X49345961Y9600955D01*
X50107865Y8877145D02*
X49650722Y8877145D01*
X49879294Y8877145D02*
X49879294Y9677145D01*
X49879294Y9677145D02*
X49803103Y9562860D01*
X49803103Y9562860D02*
X49726913Y9486669D01*
X49726913Y9486669D02*
X49650722Y9448574D01*
X50869770Y8877145D02*
X50412627Y8877145D01*
X50641199Y8877145D02*
X50641199Y9677145D01*
X50641199Y9677145D02*
X50565008Y9562860D01*
X50565008Y9562860D02*
X50488818Y9486669D01*
X50488818Y9486669D02*
X50412627Y9448574D01*
X51631675Y8877145D02*
X51174532Y8877145D01*
X51403104Y8877145D02*
X51403104Y9677145D01*
X51403104Y9677145D02*
X51326913Y9562860D01*
X51326913Y9562860D02*
X51250723Y9486669D01*
X51250723Y9486669D02*
X51174532Y9448574D01*
D14*
X11949324Y9139581D02*
X11949324Y10139581D01*
X12520752Y9139581D02*
X12092181Y9711010D01*
X12520752Y10139581D02*
X11949324Y9568153D01*
X13473133Y9139581D02*
X12901705Y9139581D01*
X13187419Y9139581D02*
X13187419Y10139581D01*
X13187419Y10139581D02*
X13092181Y9996724D01*
X13092181Y9996724D02*
X12996943Y9901486D01*
X12996943Y9901486D02*
X12901705Y9853867D01*
X14092181Y10139581D02*
X14187419Y10139581D01*
X14187419Y10139581D02*
X14282657Y10091962D01*
X14282657Y10091962D02*
X14330276Y10044343D01*
X14330276Y10044343D02*
X14377895Y9949105D01*
X14377895Y9949105D02*
X14425514Y9758629D01*
X14425514Y9758629D02*
X14425514Y9520534D01*
X14425514Y9520534D02*
X14377895Y9330058D01*
X14377895Y9330058D02*
X14330276Y9234820D01*
X14330276Y9234820D02*
X14282657Y9187200D01*
X14282657Y9187200D02*
X14187419Y9139581D01*
X14187419Y9139581D02*
X14092181Y9139581D01*
X14092181Y9139581D02*
X13996943Y9187200D01*
X13996943Y9187200D02*
X13949324Y9234820D01*
X13949324Y9234820D02*
X13901705Y9330058D01*
X13901705Y9330058D02*
X13854086Y9520534D01*
X13854086Y9520534D02*
X13854086Y9758629D01*
X13854086Y9758629D02*
X13901705Y9949105D01*
X13901705Y9949105D02*
X13949324Y10044343D01*
X13949324Y10044343D02*
X13996943Y10091962D01*
X13996943Y10091962D02*
X14092181Y10139581D01*
X14806467Y10044343D02*
X14854086Y10091962D01*
X14854086Y10091962D02*
X14949324Y10139581D01*
X14949324Y10139581D02*
X15187419Y10139581D01*
X15187419Y10139581D02*
X15282657Y10091962D01*
X15282657Y10091962D02*
X15330276Y10044343D01*
X15330276Y10044343D02*
X15377895Y9949105D01*
X15377895Y9949105D02*
X15377895Y9853867D01*
X15377895Y9853867D02*
X15330276Y9711010D01*
X15330276Y9711010D02*
X14758848Y9139581D01*
X14758848Y9139581D02*
X15377895Y9139581D01*
D15*
X60526749Y21557563D02*
X60026749Y21557563D01*
X60026749Y21557563D02*
X60026749Y21676611D01*
X60026749Y21676611D02*
X60050559Y21748039D01*
X60050559Y21748039D02*
X60098178Y21795658D01*
X60098178Y21795658D02*
X60145797Y21819468D01*
X60145797Y21819468D02*
X60241035Y21843277D01*
X60241035Y21843277D02*
X60312463Y21843277D01*
X60312463Y21843277D02*
X60407701Y21819468D01*
X60407701Y21819468D02*
X60455320Y21795658D01*
X60455320Y21795658D02*
X60502940Y21748039D01*
X60502940Y21748039D02*
X60526749Y21676611D01*
X60526749Y21676611D02*
X60526749Y21557563D01*
X60526749Y22319468D02*
X60526749Y22033754D01*
X60526749Y22176611D02*
X60026749Y22176611D01*
X60026749Y22176611D02*
X60098178Y22128992D01*
X60098178Y22128992D02*
X60145797Y22081373D01*
X60145797Y22081373D02*
X60169606Y22033754D01*
X60026749Y22628991D02*
X60026749Y22676610D01*
X60026749Y22676610D02*
X60050559Y22724229D01*
X60050559Y22724229D02*
X60074368Y22748039D01*
X60074368Y22748039D02*
X60121987Y22771848D01*
X60121987Y22771848D02*
X60217225Y22795658D01*
X60217225Y22795658D02*
X60336273Y22795658D01*
X60336273Y22795658D02*
X60431511Y22771848D01*
X60431511Y22771848D02*
X60479130Y22748039D01*
X60479130Y22748039D02*
X60502940Y22724229D01*
X60502940Y22724229D02*
X60526749Y22676610D01*
X60526749Y22676610D02*
X60526749Y22628991D01*
X60526749Y22628991D02*
X60502940Y22581372D01*
X60502940Y22581372D02*
X60479130Y22557563D01*
X60479130Y22557563D02*
X60431511Y22533753D01*
X60431511Y22533753D02*
X60336273Y22509944D01*
X60336273Y22509944D02*
X60217225Y22509944D01*
X60217225Y22509944D02*
X60121987Y22533753D01*
X60121987Y22533753D02*
X60074368Y22557563D01*
X60074368Y22557563D02*
X60050559Y22581372D01*
X60050559Y22581372D02*
X60026749Y22628991D01*
X60193416Y23224229D02*
X60526749Y23224229D01*
X60002940Y23105181D02*
X60360082Y22986134D01*
X60360082Y22986134D02*
X60360082Y23295657D01*
D11*
X37055080Y14119828D02*
X37055080Y14369828D01*
X37055080Y14369828D02*
X37114604Y14369828D01*
X37114604Y14369828D02*
X37150318Y14357923D01*
X37150318Y14357923D02*
X37174128Y14334113D01*
X37174128Y14334113D02*
X37186033Y14310304D01*
X37186033Y14310304D02*
X37197937Y14262685D01*
X37197937Y14262685D02*
X37197937Y14226971D01*
X37197937Y14226971D02*
X37186033Y14179352D01*
X37186033Y14179352D02*
X37174128Y14155542D01*
X37174128Y14155542D02*
X37150318Y14131732D01*
X37150318Y14131732D02*
X37114604Y14119828D01*
X37114604Y14119828D02*
X37055080Y14119828D01*
X37436033Y14119828D02*
X37293176Y14119828D01*
X37364604Y14119828D02*
X37364604Y14369828D01*
X37364604Y14369828D02*
X37340795Y14334113D01*
X37340795Y14334113D02*
X37316985Y14310304D01*
X37316985Y14310304D02*
X37293176Y14298399D01*
X37590794Y14369828D02*
X37614604Y14369828D01*
X37614604Y14369828D02*
X37638413Y14357923D01*
X37638413Y14357923D02*
X37650318Y14346018D01*
X37650318Y14346018D02*
X37662223Y14322209D01*
X37662223Y14322209D02*
X37674128Y14274590D01*
X37674128Y14274590D02*
X37674128Y14215066D01*
X37674128Y14215066D02*
X37662223Y14167447D01*
X37662223Y14167447D02*
X37650318Y14143637D01*
X37650318Y14143637D02*
X37638413Y14131732D01*
X37638413Y14131732D02*
X37614604Y14119828D01*
X37614604Y14119828D02*
X37590794Y14119828D01*
X37590794Y14119828D02*
X37566985Y14131732D01*
X37566985Y14131732D02*
X37555080Y14143637D01*
X37555080Y14143637D02*
X37543175Y14167447D01*
X37543175Y14167447D02*
X37531271Y14215066D01*
X37531271Y14215066D02*
X37531271Y14274590D01*
X37531271Y14274590D02*
X37543175Y14322209D01*
X37543175Y14322209D02*
X37555080Y14346018D01*
X37555080Y14346018D02*
X37566985Y14357923D01*
X37566985Y14357923D02*
X37590794Y14369828D01*
X37769366Y14346018D02*
X37781270Y14357923D01*
X37781270Y14357923D02*
X37805080Y14369828D01*
X37805080Y14369828D02*
X37864604Y14369828D01*
X37864604Y14369828D02*
X37888413Y14357923D01*
X37888413Y14357923D02*
X37900318Y14346018D01*
X37900318Y14346018D02*
X37912223Y14322209D01*
X37912223Y14322209D02*
X37912223Y14298399D01*
X37912223Y14298399D02*
X37900318Y14262685D01*
X37900318Y14262685D02*
X37757461Y14119828D01*
X37757461Y14119828D02*
X37912223Y14119828D01*
X39691400Y7275647D02*
X39567591Y7188980D01*
X39691400Y7127075D02*
X39431400Y7127075D01*
X39431400Y7127075D02*
X39431400Y7226123D01*
X39431400Y7226123D02*
X39443781Y7250885D01*
X39443781Y7250885D02*
X39456162Y7263266D01*
X39456162Y7263266D02*
X39480924Y7275647D01*
X39480924Y7275647D02*
X39518067Y7275647D01*
X39518067Y7275647D02*
X39542829Y7263266D01*
X39542829Y7263266D02*
X39555210Y7250885D01*
X39555210Y7250885D02*
X39567591Y7226123D01*
X39567591Y7226123D02*
X39567591Y7127075D01*
X39691400Y7523266D02*
X39691400Y7374694D01*
X39691400Y7448980D02*
X39431400Y7448980D01*
X39431400Y7448980D02*
X39468543Y7424218D01*
X39468543Y7424218D02*
X39493305Y7399456D01*
X39493305Y7399456D02*
X39505686Y7374694D01*
X39691400Y7770885D02*
X39691400Y7622313D01*
X39691400Y7696599D02*
X39431400Y7696599D01*
X39431400Y7696599D02*
X39468543Y7671837D01*
X39468543Y7671837D02*
X39493305Y7647075D01*
X39493305Y7647075D02*
X39505686Y7622313D01*
X39431400Y7993742D02*
X39431400Y7944218D01*
X39431400Y7944218D02*
X39443781Y7919456D01*
X39443781Y7919456D02*
X39456162Y7907075D01*
X39456162Y7907075D02*
X39493305Y7882313D01*
X39493305Y7882313D02*
X39542829Y7869932D01*
X39542829Y7869932D02*
X39641877Y7869932D01*
X39641877Y7869932D02*
X39666639Y7882313D01*
X39666639Y7882313D02*
X39679020Y7894694D01*
X39679020Y7894694D02*
X39691400Y7919456D01*
X39691400Y7919456D02*
X39691400Y7968980D01*
X39691400Y7968980D02*
X39679020Y7993742D01*
X39679020Y7993742D02*
X39666639Y8006123D01*
X39666639Y8006123D02*
X39641877Y8018504D01*
X39641877Y8018504D02*
X39579972Y8018504D01*
X39579972Y8018504D02*
X39555210Y8006123D01*
X39555210Y8006123D02*
X39542829Y7993742D01*
X39542829Y7993742D02*
X39530448Y7968980D01*
X39530448Y7968980D02*
X39530448Y7919456D01*
X39530448Y7919456D02*
X39542829Y7894694D01*
X39542829Y7894694D02*
X39555210Y7882313D01*
X39555210Y7882313D02*
X39579972Y7869932D01*
X69062238Y19300502D02*
X69050334Y19288597D01*
X69050334Y19288597D02*
X69014619Y19276693D01*
X69014619Y19276693D02*
X68990810Y19276693D01*
X68990810Y19276693D02*
X68955096Y19288597D01*
X68955096Y19288597D02*
X68931286Y19312407D01*
X68931286Y19312407D02*
X68919381Y19336217D01*
X68919381Y19336217D02*
X68907477Y19383836D01*
X68907477Y19383836D02*
X68907477Y19419550D01*
X68907477Y19419550D02*
X68919381Y19467169D01*
X68919381Y19467169D02*
X68931286Y19490978D01*
X68931286Y19490978D02*
X68955096Y19514788D01*
X68955096Y19514788D02*
X68990810Y19526693D01*
X68990810Y19526693D02*
X69014619Y19526693D01*
X69014619Y19526693D02*
X69050334Y19514788D01*
X69050334Y19514788D02*
X69062238Y19502883D01*
X69300334Y19276693D02*
X69157477Y19276693D01*
X69228905Y19276693D02*
X69228905Y19526693D01*
X69228905Y19526693D02*
X69205096Y19490978D01*
X69205096Y19490978D02*
X69181286Y19467169D01*
X69181286Y19467169D02*
X69157477Y19455264D01*
X69455095Y19526693D02*
X69478905Y19526693D01*
X69478905Y19526693D02*
X69502714Y19514788D01*
X69502714Y19514788D02*
X69514619Y19502883D01*
X69514619Y19502883D02*
X69526524Y19479074D01*
X69526524Y19479074D02*
X69538429Y19431455D01*
X69538429Y19431455D02*
X69538429Y19371931D01*
X69538429Y19371931D02*
X69526524Y19324312D01*
X69526524Y19324312D02*
X69514619Y19300502D01*
X69514619Y19300502D02*
X69502714Y19288597D01*
X69502714Y19288597D02*
X69478905Y19276693D01*
X69478905Y19276693D02*
X69455095Y19276693D01*
X69455095Y19276693D02*
X69431286Y19288597D01*
X69431286Y19288597D02*
X69419381Y19300502D01*
X69419381Y19300502D02*
X69407476Y19324312D01*
X69407476Y19324312D02*
X69395572Y19371931D01*
X69395572Y19371931D02*
X69395572Y19431455D01*
X69395572Y19431455D02*
X69407476Y19479074D01*
X69407476Y19479074D02*
X69419381Y19502883D01*
X69419381Y19502883D02*
X69431286Y19514788D01*
X69431286Y19514788D02*
X69455095Y19526693D01*
X69764619Y19526693D02*
X69645571Y19526693D01*
X69645571Y19526693D02*
X69633667Y19407645D01*
X69633667Y19407645D02*
X69645571Y19419550D01*
X69645571Y19419550D02*
X69669381Y19431455D01*
X69669381Y19431455D02*
X69728905Y19431455D01*
X69728905Y19431455D02*
X69752714Y19419550D01*
X69752714Y19419550D02*
X69764619Y19407645D01*
X69764619Y19407645D02*
X69776524Y19383836D01*
X69776524Y19383836D02*
X69776524Y19324312D01*
X69776524Y19324312D02*
X69764619Y19300502D01*
X69764619Y19300502D02*
X69752714Y19288597D01*
X69752714Y19288597D02*
X69728905Y19276693D01*
X69728905Y19276693D02*
X69669381Y19276693D01*
X69669381Y19276693D02*
X69645571Y19288597D01*
X69645571Y19288597D02*
X69633667Y19300502D01*
X57827000Y22467449D02*
X57703191Y22380782D01*
X57827000Y22318877D02*
X57567000Y22318877D01*
X57567000Y22318877D02*
X57567000Y22417925D01*
X57567000Y22417925D02*
X57579381Y22442687D01*
X57579381Y22442687D02*
X57591762Y22455068D01*
X57591762Y22455068D02*
X57616524Y22467449D01*
X57616524Y22467449D02*
X57653667Y22467449D01*
X57653667Y22467449D02*
X57678429Y22455068D01*
X57678429Y22455068D02*
X57690810Y22442687D01*
X57690810Y22442687D02*
X57703191Y22417925D01*
X57703191Y22417925D02*
X57703191Y22318877D01*
X57827000Y22715068D02*
X57827000Y22566496D01*
X57827000Y22640782D02*
X57567000Y22640782D01*
X57567000Y22640782D02*
X57604143Y22616020D01*
X57604143Y22616020D02*
X57628905Y22591258D01*
X57628905Y22591258D02*
X57641286Y22566496D01*
X57827000Y22962687D02*
X57827000Y22814115D01*
X57827000Y22888401D02*
X57567000Y22888401D01*
X57567000Y22888401D02*
X57604143Y22863639D01*
X57604143Y22863639D02*
X57628905Y22838877D01*
X57628905Y22838877D02*
X57641286Y22814115D01*
X57653667Y23185544D02*
X57827000Y23185544D01*
X57554620Y23123639D02*
X57740334Y23061734D01*
X57740334Y23061734D02*
X57740334Y23222687D01*
D14*
X62192819Y8917084D02*
X63002342Y8917084D01*
X63002342Y8917084D02*
X63097580Y8964703D01*
X63097580Y8964703D02*
X63145200Y9012322D01*
X63145200Y9012322D02*
X63192819Y9107560D01*
X63192819Y9107560D02*
X63192819Y9298036D01*
X63192819Y9298036D02*
X63145200Y9393274D01*
X63145200Y9393274D02*
X63097580Y9440893D01*
X63097580Y9440893D02*
X63002342Y9488512D01*
X63002342Y9488512D02*
X62192819Y9488512D01*
X63192819Y10488512D02*
X63192819Y9917084D01*
X63192819Y10202798D02*
X62192819Y10202798D01*
X62192819Y10202798D02*
X62335676Y10107560D01*
X62335676Y10107560D02*
X62430914Y10012322D01*
X62430914Y10012322D02*
X62478533Y9917084D01*
X62192819Y11107560D02*
X62192819Y11202798D01*
X62192819Y11202798D02*
X62240438Y11298036D01*
X62240438Y11298036D02*
X62288057Y11345655D01*
X62288057Y11345655D02*
X62383295Y11393274D01*
X62383295Y11393274D02*
X62573771Y11440893D01*
X62573771Y11440893D02*
X62811866Y11440893D01*
X62811866Y11440893D02*
X63002342Y11393274D01*
X63002342Y11393274D02*
X63097580Y11345655D01*
X63097580Y11345655D02*
X63145200Y11298036D01*
X63145200Y11298036D02*
X63192819Y11202798D01*
X63192819Y11202798D02*
X63192819Y11107560D01*
X63192819Y11107560D02*
X63145200Y11012322D01*
X63145200Y11012322D02*
X63097580Y10964703D01*
X63097580Y10964703D02*
X63002342Y10917084D01*
X63002342Y10917084D02*
X62811866Y10869465D01*
X62811866Y10869465D02*
X62573771Y10869465D01*
X62573771Y10869465D02*
X62383295Y10917084D01*
X62383295Y10917084D02*
X62288057Y10964703D01*
X62288057Y10964703D02*
X62240438Y11012322D01*
X62240438Y11012322D02*
X62192819Y11107560D01*
X63192819Y12393274D02*
X63192819Y11821846D01*
X63192819Y12107560D02*
X62192819Y12107560D01*
X62192819Y12107560D02*
X62335676Y12012322D01*
X62335676Y12012322D02*
X62430914Y11917084D01*
X62430914Y11917084D02*
X62478533Y11821846D01*
D11*
X41918248Y14304402D02*
X41831581Y14428211D01*
X41769676Y14304402D02*
X41769676Y14564402D01*
X41769676Y14564402D02*
X41868724Y14564402D01*
X41868724Y14564402D02*
X41893486Y14552021D01*
X41893486Y14552021D02*
X41905867Y14539640D01*
X41905867Y14539640D02*
X41918248Y14514878D01*
X41918248Y14514878D02*
X41918248Y14477735D01*
X41918248Y14477735D02*
X41905867Y14452973D01*
X41905867Y14452973D02*
X41893486Y14440592D01*
X41893486Y14440592D02*
X41868724Y14428211D01*
X41868724Y14428211D02*
X41769676Y14428211D01*
X42165867Y14304402D02*
X42017295Y14304402D01*
X42091581Y14304402D02*
X42091581Y14564402D01*
X42091581Y14564402D02*
X42066819Y14527259D01*
X42066819Y14527259D02*
X42042057Y14502497D01*
X42042057Y14502497D02*
X42017295Y14490116D01*
X42413486Y14304402D02*
X42264914Y14304402D01*
X42339200Y14304402D02*
X42339200Y14564402D01*
X42339200Y14564402D02*
X42314438Y14527259D01*
X42314438Y14527259D02*
X42289676Y14502497D01*
X42289676Y14502497D02*
X42264914Y14490116D01*
X42574438Y14564402D02*
X42599200Y14564402D01*
X42599200Y14564402D02*
X42623962Y14552021D01*
X42623962Y14552021D02*
X42636343Y14539640D01*
X42636343Y14539640D02*
X42648724Y14514878D01*
X42648724Y14514878D02*
X42661105Y14465354D01*
X42661105Y14465354D02*
X42661105Y14403449D01*
X42661105Y14403449D02*
X42648724Y14353925D01*
X42648724Y14353925D02*
X42636343Y14329163D01*
X42636343Y14329163D02*
X42623962Y14316782D01*
X42623962Y14316782D02*
X42599200Y14304402D01*
X42599200Y14304402D02*
X42574438Y14304402D01*
X42574438Y14304402D02*
X42549676Y14316782D01*
X42549676Y14316782D02*
X42537295Y14329163D01*
X42537295Y14329163D02*
X42524914Y14353925D01*
X42524914Y14353925D02*
X42512533Y14403449D01*
X42512533Y14403449D02*
X42512533Y14465354D01*
X42512533Y14465354D02*
X42524914Y14514878D01*
X42524914Y14514878D02*
X42537295Y14539640D01*
X42537295Y14539640D02*
X42549676Y14552021D01*
X42549676Y14552021D02*
X42574438Y14564402D01*
X69051048Y4413733D02*
X68964381Y4537542D01*
X68902476Y4413733D02*
X68902476Y4673733D01*
X68902476Y4673733D02*
X69001524Y4673733D01*
X69001524Y4673733D02*
X69026286Y4661352D01*
X69026286Y4661352D02*
X69038667Y4648971D01*
X69038667Y4648971D02*
X69051048Y4624209D01*
X69051048Y4624209D02*
X69051048Y4587066D01*
X69051048Y4587066D02*
X69038667Y4562304D01*
X69038667Y4562304D02*
X69026286Y4549923D01*
X69026286Y4549923D02*
X69001524Y4537542D01*
X69001524Y4537542D02*
X68902476Y4537542D01*
X69298667Y4413733D02*
X69150095Y4413733D01*
X69224381Y4413733D02*
X69224381Y4673733D01*
X69224381Y4673733D02*
X69199619Y4636590D01*
X69199619Y4636590D02*
X69174857Y4611828D01*
X69174857Y4611828D02*
X69150095Y4599447D01*
X69459619Y4673733D02*
X69484381Y4673733D01*
X69484381Y4673733D02*
X69509143Y4661352D01*
X69509143Y4661352D02*
X69521524Y4648971D01*
X69521524Y4648971D02*
X69533905Y4624209D01*
X69533905Y4624209D02*
X69546286Y4574685D01*
X69546286Y4574685D02*
X69546286Y4512780D01*
X69546286Y4512780D02*
X69533905Y4463256D01*
X69533905Y4463256D02*
X69521524Y4438494D01*
X69521524Y4438494D02*
X69509143Y4426113D01*
X69509143Y4426113D02*
X69484381Y4413733D01*
X69484381Y4413733D02*
X69459619Y4413733D01*
X69459619Y4413733D02*
X69434857Y4426113D01*
X69434857Y4426113D02*
X69422476Y4438494D01*
X69422476Y4438494D02*
X69410095Y4463256D01*
X69410095Y4463256D02*
X69397714Y4512780D01*
X69397714Y4512780D02*
X69397714Y4574685D01*
X69397714Y4574685D02*
X69410095Y4624209D01*
X69410095Y4624209D02*
X69422476Y4648971D01*
X69422476Y4648971D02*
X69434857Y4661352D01*
X69434857Y4661352D02*
X69459619Y4673733D01*
X69694857Y4562304D02*
X69670095Y4574685D01*
X69670095Y4574685D02*
X69657714Y4587066D01*
X69657714Y4587066D02*
X69645333Y4611828D01*
X69645333Y4611828D02*
X69645333Y4624209D01*
X69645333Y4624209D02*
X69657714Y4648971D01*
X69657714Y4648971D02*
X69670095Y4661352D01*
X69670095Y4661352D02*
X69694857Y4673733D01*
X69694857Y4673733D02*
X69744381Y4673733D01*
X69744381Y4673733D02*
X69769143Y4661352D01*
X69769143Y4661352D02*
X69781524Y4648971D01*
X69781524Y4648971D02*
X69793905Y4624209D01*
X69793905Y4624209D02*
X69793905Y4611828D01*
X69793905Y4611828D02*
X69781524Y4587066D01*
X69781524Y4587066D02*
X69769143Y4574685D01*
X69769143Y4574685D02*
X69744381Y4562304D01*
X69744381Y4562304D02*
X69694857Y4562304D01*
X69694857Y4562304D02*
X69670095Y4549923D01*
X69670095Y4549923D02*
X69657714Y4537542D01*
X69657714Y4537542D02*
X69645333Y4512780D01*
X69645333Y4512780D02*
X69645333Y4463256D01*
X69645333Y4463256D02*
X69657714Y4438494D01*
X69657714Y4438494D02*
X69670095Y4426113D01*
X69670095Y4426113D02*
X69694857Y4413733D01*
X69694857Y4413733D02*
X69744381Y4413733D01*
X69744381Y4413733D02*
X69769143Y4426113D01*
X69769143Y4426113D02*
X69781524Y4438494D01*
X69781524Y4438494D02*
X69793905Y4463256D01*
X69793905Y4463256D02*
X69793905Y4512780D01*
X69793905Y4512780D02*
X69781524Y4537542D01*
X69781524Y4537542D02*
X69769143Y4549923D01*
X69769143Y4549923D02*
X69744381Y4562304D01*
D14*
X31378685Y4827381D02*
X31378685Y4113096D01*
X31378685Y4113096D02*
X31331066Y3970239D01*
X31331066Y3970239D02*
X31235828Y3875000D01*
X31235828Y3875000D02*
X31092971Y3827381D01*
X31092971Y3827381D02*
X30997733Y3827381D01*
X32378685Y3827381D02*
X31807257Y3827381D01*
X32092971Y3827381D02*
X32092971Y4827381D01*
X32092971Y4827381D02*
X31997733Y4684524D01*
X31997733Y4684524D02*
X31902495Y4589286D01*
X31902495Y4589286D02*
X31807257Y4541667D01*
X32997733Y4827381D02*
X33092971Y4827381D01*
X33092971Y4827381D02*
X33188209Y4779762D01*
X33188209Y4779762D02*
X33235828Y4732143D01*
X33235828Y4732143D02*
X33283447Y4636905D01*
X33283447Y4636905D02*
X33331066Y4446429D01*
X33331066Y4446429D02*
X33331066Y4208334D01*
X33331066Y4208334D02*
X33283447Y4017858D01*
X33283447Y4017858D02*
X33235828Y3922620D01*
X33235828Y3922620D02*
X33188209Y3875000D01*
X33188209Y3875000D02*
X33092971Y3827381D01*
X33092971Y3827381D02*
X32997733Y3827381D01*
X32997733Y3827381D02*
X32902495Y3875000D01*
X32902495Y3875000D02*
X32854876Y3922620D01*
X32854876Y3922620D02*
X32807257Y4017858D01*
X32807257Y4017858D02*
X32759638Y4208334D01*
X32759638Y4208334D02*
X32759638Y4446429D01*
X32759638Y4446429D02*
X32807257Y4636905D01*
X32807257Y4636905D02*
X32854876Y4732143D01*
X32854876Y4732143D02*
X32902495Y4779762D01*
X32902495Y4779762D02*
X32997733Y4827381D01*
X34283447Y3827381D02*
X33712019Y3827381D01*
X33997733Y3827381D02*
X33997733Y4827381D01*
X33997733Y4827381D02*
X33902495Y4684524D01*
X33902495Y4684524D02*
X33807257Y4589286D01*
X33807257Y4589286D02*
X33712019Y4541667D01*
D10*
X50301581Y10930568D02*
X50282533Y10911520D01*
X50282533Y10911520D02*
X50225391Y10892473D01*
X50225391Y10892473D02*
X50187295Y10892473D01*
X50187295Y10892473D02*
X50130152Y10911520D01*
X50130152Y10911520D02*
X50092057Y10949616D01*
X50092057Y10949616D02*
X50073010Y10987711D01*
X50073010Y10987711D02*
X50053962Y11063901D01*
X50053962Y11063901D02*
X50053962Y11121044D01*
X50053962Y11121044D02*
X50073010Y11197235D01*
X50073010Y11197235D02*
X50092057Y11235330D01*
X50092057Y11235330D02*
X50130152Y11273425D01*
X50130152Y11273425D02*
X50187295Y11292473D01*
X50187295Y11292473D02*
X50225391Y11292473D01*
X50225391Y11292473D02*
X50282533Y11273425D01*
X50282533Y11273425D02*
X50301581Y11254378D01*
X50682533Y10892473D02*
X50453962Y10892473D01*
X50568248Y10892473D02*
X50568248Y11292473D01*
X50568248Y11292473D02*
X50530152Y11235330D01*
X50530152Y11235330D02*
X50492057Y11197235D01*
X50492057Y11197235D02*
X50453962Y11178187D01*
X50930152Y11292473D02*
X50968247Y11292473D01*
X50968247Y11292473D02*
X51006343Y11273425D01*
X51006343Y11273425D02*
X51025390Y11254378D01*
X51025390Y11254378D02*
X51044438Y11216282D01*
X51044438Y11216282D02*
X51063485Y11140092D01*
X51063485Y11140092D02*
X51063485Y11044854D01*
X51063485Y11044854D02*
X51044438Y10968663D01*
X51044438Y10968663D02*
X51025390Y10930568D01*
X51025390Y10930568D02*
X51006343Y10911520D01*
X51006343Y10911520D02*
X50968247Y10892473D01*
X50968247Y10892473D02*
X50930152Y10892473D01*
X50930152Y10892473D02*
X50892057Y10911520D01*
X50892057Y10911520D02*
X50873009Y10930568D01*
X50873009Y10930568D02*
X50853962Y10968663D01*
X50853962Y10968663D02*
X50834914Y11044854D01*
X50834914Y11044854D02*
X50834914Y11140092D01*
X50834914Y11140092D02*
X50853962Y11216282D01*
X50853962Y11216282D02*
X50873009Y11254378D01*
X50873009Y11254378D02*
X50892057Y11273425D01*
X50892057Y11273425D02*
X50930152Y11292473D01*
X51196818Y11292473D02*
X51444437Y11292473D01*
X51444437Y11292473D02*
X51311104Y11140092D01*
X51311104Y11140092D02*
X51368247Y11140092D01*
X51368247Y11140092D02*
X51406342Y11121044D01*
X51406342Y11121044D02*
X51425390Y11101997D01*
X51425390Y11101997D02*
X51444437Y11063901D01*
X51444437Y11063901D02*
X51444437Y10968663D01*
X51444437Y10968663D02*
X51425390Y10930568D01*
X51425390Y10930568D02*
X51406342Y10911520D01*
X51406342Y10911520D02*
X51368247Y10892473D01*
X51368247Y10892473D02*
X51253961Y10892473D01*
X51253961Y10892473D02*
X51215866Y10911520D01*
X51215866Y10911520D02*
X51196818Y10930568D01*
D11*
X65548600Y21110018D02*
X65424791Y21023351D01*
X65548600Y20961446D02*
X65288600Y20961446D01*
X65288600Y20961446D02*
X65288600Y21060494D01*
X65288600Y21060494D02*
X65300981Y21085256D01*
X65300981Y21085256D02*
X65313362Y21097637D01*
X65313362Y21097637D02*
X65338124Y21110018D01*
X65338124Y21110018D02*
X65375267Y21110018D01*
X65375267Y21110018D02*
X65400029Y21097637D01*
X65400029Y21097637D02*
X65412410Y21085256D01*
X65412410Y21085256D02*
X65424791Y21060494D01*
X65424791Y21060494D02*
X65424791Y20961446D01*
X65548600Y21357637D02*
X65548600Y21209065D01*
X65548600Y21283351D02*
X65288600Y21283351D01*
X65288600Y21283351D02*
X65325743Y21258589D01*
X65325743Y21258589D02*
X65350505Y21233827D01*
X65350505Y21233827D02*
X65362886Y21209065D01*
X65288600Y21518589D02*
X65288600Y21543351D01*
X65288600Y21543351D02*
X65300981Y21568113D01*
X65300981Y21568113D02*
X65313362Y21580494D01*
X65313362Y21580494D02*
X65338124Y21592875D01*
X65338124Y21592875D02*
X65387648Y21605256D01*
X65387648Y21605256D02*
X65449553Y21605256D01*
X65449553Y21605256D02*
X65499077Y21592875D01*
X65499077Y21592875D02*
X65523839Y21580494D01*
X65523839Y21580494D02*
X65536220Y21568113D01*
X65536220Y21568113D02*
X65548600Y21543351D01*
X65548600Y21543351D02*
X65548600Y21518589D01*
X65548600Y21518589D02*
X65536220Y21493827D01*
X65536220Y21493827D02*
X65523839Y21481446D01*
X65523839Y21481446D02*
X65499077Y21469065D01*
X65499077Y21469065D02*
X65449553Y21456684D01*
X65449553Y21456684D02*
X65387648Y21456684D01*
X65387648Y21456684D02*
X65338124Y21469065D01*
X65338124Y21469065D02*
X65313362Y21481446D01*
X65313362Y21481446D02*
X65300981Y21493827D01*
X65300981Y21493827D02*
X65288600Y21518589D01*
X65288600Y21691922D02*
X65288600Y21852875D01*
X65288600Y21852875D02*
X65387648Y21766208D01*
X65387648Y21766208D02*
X65387648Y21803351D01*
X65387648Y21803351D02*
X65400029Y21828113D01*
X65400029Y21828113D02*
X65412410Y21840494D01*
X65412410Y21840494D02*
X65437172Y21852875D01*
X65437172Y21852875D02*
X65499077Y21852875D01*
X65499077Y21852875D02*
X65523839Y21840494D01*
X65523839Y21840494D02*
X65536220Y21828113D01*
X65536220Y21828113D02*
X65548600Y21803351D01*
X65548600Y21803351D02*
X65548600Y21729065D01*
X65548600Y21729065D02*
X65536220Y21704303D01*
X65536220Y21704303D02*
X65523839Y21691922D01*
X64554965Y21121208D02*
X64566870Y21109304D01*
X64566870Y21109304D02*
X64578774Y21073589D01*
X64578774Y21073589D02*
X64578774Y21049780D01*
X64578774Y21049780D02*
X64566870Y21014066D01*
X64566870Y21014066D02*
X64543060Y20990256D01*
X64543060Y20990256D02*
X64519250Y20978351D01*
X64519250Y20978351D02*
X64471631Y20966447D01*
X64471631Y20966447D02*
X64435917Y20966447D01*
X64435917Y20966447D02*
X64388298Y20978351D01*
X64388298Y20978351D02*
X64364489Y20990256D01*
X64364489Y20990256D02*
X64340679Y21014066D01*
X64340679Y21014066D02*
X64328774Y21049780D01*
X64328774Y21049780D02*
X64328774Y21073589D01*
X64328774Y21073589D02*
X64340679Y21109304D01*
X64340679Y21109304D02*
X64352584Y21121208D01*
X64578774Y21359304D02*
X64578774Y21216447D01*
X64578774Y21287875D02*
X64328774Y21287875D01*
X64328774Y21287875D02*
X64364489Y21264066D01*
X64364489Y21264066D02*
X64388298Y21240256D01*
X64388298Y21240256D02*
X64400203Y21216447D01*
X64328774Y21514065D02*
X64328774Y21537875D01*
X64328774Y21537875D02*
X64340679Y21561684D01*
X64340679Y21561684D02*
X64352584Y21573589D01*
X64352584Y21573589D02*
X64376393Y21585494D01*
X64376393Y21585494D02*
X64424012Y21597399D01*
X64424012Y21597399D02*
X64483536Y21597399D01*
X64483536Y21597399D02*
X64531155Y21585494D01*
X64531155Y21585494D02*
X64554965Y21573589D01*
X64554965Y21573589D02*
X64566870Y21561684D01*
X64566870Y21561684D02*
X64578774Y21537875D01*
X64578774Y21537875D02*
X64578774Y21514065D01*
X64578774Y21514065D02*
X64566870Y21490256D01*
X64566870Y21490256D02*
X64554965Y21478351D01*
X64554965Y21478351D02*
X64531155Y21466446D01*
X64531155Y21466446D02*
X64483536Y21454542D01*
X64483536Y21454542D02*
X64424012Y21454542D01*
X64424012Y21454542D02*
X64376393Y21466446D01*
X64376393Y21466446D02*
X64352584Y21478351D01*
X64352584Y21478351D02*
X64340679Y21490256D01*
X64340679Y21490256D02*
X64328774Y21514065D01*
X64328774Y21680732D02*
X64328774Y21847398D01*
X64328774Y21847398D02*
X64578774Y21740256D01*
D12*
X38716057Y13489994D02*
X38716057Y13085232D01*
X38716057Y13085232D02*
X38739867Y13037613D01*
X38739867Y13037613D02*
X38763676Y13013803D01*
X38763676Y13013803D02*
X38811295Y12989994D01*
X38811295Y12989994D02*
X38906533Y12989994D01*
X38906533Y12989994D02*
X38954152Y13013803D01*
X38954152Y13013803D02*
X38977962Y13037613D01*
X38977962Y13037613D02*
X39001771Y13085232D01*
X39001771Y13085232D02*
X39001771Y13489994D01*
X39501772Y12989994D02*
X39216058Y12989994D01*
X39358915Y12989994D02*
X39358915Y13489994D01*
X39358915Y13489994D02*
X39311296Y13418565D01*
X39311296Y13418565D02*
X39263677Y13370946D01*
X39263677Y13370946D02*
X39216058Y13347137D01*
X39811295Y13489994D02*
X39858914Y13489994D01*
X39858914Y13489994D02*
X39906533Y13466184D01*
X39906533Y13466184D02*
X39930343Y13442375D01*
X39930343Y13442375D02*
X39954152Y13394756D01*
X39954152Y13394756D02*
X39977962Y13299518D01*
X39977962Y13299518D02*
X39977962Y13180470D01*
X39977962Y13180470D02*
X39954152Y13085232D01*
X39954152Y13085232D02*
X39930343Y13037613D01*
X39930343Y13037613D02*
X39906533Y13013803D01*
X39906533Y13013803D02*
X39858914Y12989994D01*
X39858914Y12989994D02*
X39811295Y12989994D01*
X39811295Y12989994D02*
X39763676Y13013803D01*
X39763676Y13013803D02*
X39739867Y13037613D01*
X39739867Y13037613D02*
X39716057Y13085232D01*
X39716057Y13085232D02*
X39692248Y13180470D01*
X39692248Y13180470D02*
X39692248Y13299518D01*
X39692248Y13299518D02*
X39716057Y13394756D01*
X39716057Y13394756D02*
X39739867Y13442375D01*
X39739867Y13442375D02*
X39763676Y13466184D01*
X39763676Y13466184D02*
X39811295Y13489994D01*
X40144628Y13489994D02*
X40454152Y13489994D01*
X40454152Y13489994D02*
X40287485Y13299518D01*
X40287485Y13299518D02*
X40358914Y13299518D01*
X40358914Y13299518D02*
X40406533Y13275708D01*
X40406533Y13275708D02*
X40430342Y13251899D01*
X40430342Y13251899D02*
X40454152Y13204280D01*
X40454152Y13204280D02*
X40454152Y13085232D01*
X40454152Y13085232D02*
X40430342Y13037613D01*
X40430342Y13037613D02*
X40406533Y13013803D01*
X40406533Y13013803D02*
X40358914Y12989994D01*
X40358914Y12989994D02*
X40216057Y12989994D01*
X40216057Y12989994D02*
X40168438Y13013803D01*
X40168438Y13013803D02*
X40144628Y13037613D01*
D11*
X58843000Y22467449D02*
X58719191Y22380782D01*
X58843000Y22318877D02*
X58583000Y22318877D01*
X58583000Y22318877D02*
X58583000Y22417925D01*
X58583000Y22417925D02*
X58595381Y22442687D01*
X58595381Y22442687D02*
X58607762Y22455068D01*
X58607762Y22455068D02*
X58632524Y22467449D01*
X58632524Y22467449D02*
X58669667Y22467449D01*
X58669667Y22467449D02*
X58694429Y22455068D01*
X58694429Y22455068D02*
X58706810Y22442687D01*
X58706810Y22442687D02*
X58719191Y22417925D01*
X58719191Y22417925D02*
X58719191Y22318877D01*
X58843000Y22715068D02*
X58843000Y22566496D01*
X58843000Y22640782D02*
X58583000Y22640782D01*
X58583000Y22640782D02*
X58620143Y22616020D01*
X58620143Y22616020D02*
X58644905Y22591258D01*
X58644905Y22591258D02*
X58657286Y22566496D01*
X58843000Y22962687D02*
X58843000Y22814115D01*
X58843000Y22888401D02*
X58583000Y22888401D01*
X58583000Y22888401D02*
X58620143Y22863639D01*
X58620143Y22863639D02*
X58644905Y22838877D01*
X58644905Y22838877D02*
X58657286Y22814115D01*
X58583000Y23197925D02*
X58583000Y23074115D01*
X58583000Y23074115D02*
X58706810Y23061734D01*
X58706810Y23061734D02*
X58694429Y23074115D01*
X58694429Y23074115D02*
X58682048Y23098877D01*
X58682048Y23098877D02*
X58682048Y23160782D01*
X58682048Y23160782D02*
X58694429Y23185544D01*
X58694429Y23185544D02*
X58706810Y23197925D01*
X58706810Y23197925D02*
X58731572Y23210306D01*
X58731572Y23210306D02*
X58793477Y23210306D01*
X58793477Y23210306D02*
X58818239Y23197925D01*
X58818239Y23197925D02*
X58830620Y23185544D01*
X58830620Y23185544D02*
X58843000Y23160782D01*
X58843000Y23160782D02*
X58843000Y23098877D01*
X58843000Y23098877D02*
X58830620Y23074115D01*
X58830620Y23074115D02*
X58818239Y23061734D01*
X66485365Y21121208D02*
X66497270Y21109304D01*
X66497270Y21109304D02*
X66509174Y21073589D01*
X66509174Y21073589D02*
X66509174Y21049780D01*
X66509174Y21049780D02*
X66497270Y21014066D01*
X66497270Y21014066D02*
X66473460Y20990256D01*
X66473460Y20990256D02*
X66449650Y20978351D01*
X66449650Y20978351D02*
X66402031Y20966447D01*
X66402031Y20966447D02*
X66366317Y20966447D01*
X66366317Y20966447D02*
X66318698Y20978351D01*
X66318698Y20978351D02*
X66294889Y20990256D01*
X66294889Y20990256D02*
X66271079Y21014066D01*
X66271079Y21014066D02*
X66259174Y21049780D01*
X66259174Y21049780D02*
X66259174Y21073589D01*
X66259174Y21073589D02*
X66271079Y21109304D01*
X66271079Y21109304D02*
X66282984Y21121208D01*
X66509174Y21359304D02*
X66509174Y21216447D01*
X66509174Y21287875D02*
X66259174Y21287875D01*
X66259174Y21287875D02*
X66294889Y21264066D01*
X66294889Y21264066D02*
X66318698Y21240256D01*
X66318698Y21240256D02*
X66330603Y21216447D01*
X66259174Y21514065D02*
X66259174Y21537875D01*
X66259174Y21537875D02*
X66271079Y21561684D01*
X66271079Y21561684D02*
X66282984Y21573589D01*
X66282984Y21573589D02*
X66306793Y21585494D01*
X66306793Y21585494D02*
X66354412Y21597399D01*
X66354412Y21597399D02*
X66413936Y21597399D01*
X66413936Y21597399D02*
X66461555Y21585494D01*
X66461555Y21585494D02*
X66485365Y21573589D01*
X66485365Y21573589D02*
X66497270Y21561684D01*
X66497270Y21561684D02*
X66509174Y21537875D01*
X66509174Y21537875D02*
X66509174Y21514065D01*
X66509174Y21514065D02*
X66497270Y21490256D01*
X66497270Y21490256D02*
X66485365Y21478351D01*
X66485365Y21478351D02*
X66461555Y21466446D01*
X66461555Y21466446D02*
X66413936Y21454542D01*
X66413936Y21454542D02*
X66354412Y21454542D01*
X66354412Y21454542D02*
X66306793Y21466446D01*
X66306793Y21466446D02*
X66282984Y21478351D01*
X66282984Y21478351D02*
X66271079Y21490256D01*
X66271079Y21490256D02*
X66259174Y21514065D01*
X66509174Y21835494D02*
X66509174Y21692637D01*
X66509174Y21764065D02*
X66259174Y21764065D01*
X66259174Y21764065D02*
X66294889Y21740256D01*
X66294889Y21740256D02*
X66318698Y21716446D01*
X66318698Y21716446D02*
X66330603Y21692637D01*
D14*
X71317986Y2492481D02*
X71317986Y3492481D01*
X71317986Y3492481D02*
X71651319Y2778196D01*
X71651319Y2778196D02*
X71984652Y3492481D01*
X71984652Y3492481D02*
X71984652Y2492481D01*
X72460843Y2492481D02*
X72460843Y3492481D01*
X72460843Y3016291D02*
X73032271Y3016291D01*
X73032271Y2492481D02*
X73032271Y3492481D01*
X74032271Y2492481D02*
X73460843Y2492481D01*
X73746557Y2492481D02*
X73746557Y3492481D01*
X73746557Y3492481D02*
X73651319Y3349624D01*
X73651319Y3349624D02*
X73556081Y3254386D01*
X73556081Y3254386D02*
X73460843Y3206767D01*
X74651319Y3492481D02*
X74746557Y3492481D01*
X74746557Y3492481D02*
X74841795Y3444862D01*
X74841795Y3444862D02*
X74889414Y3397243D01*
X74889414Y3397243D02*
X74937033Y3302005D01*
X74937033Y3302005D02*
X74984652Y3111529D01*
X74984652Y3111529D02*
X74984652Y2873434D01*
X74984652Y2873434D02*
X74937033Y2682958D01*
X74937033Y2682958D02*
X74889414Y2587720D01*
X74889414Y2587720D02*
X74841795Y2540100D01*
X74841795Y2540100D02*
X74746557Y2492481D01*
X74746557Y2492481D02*
X74651319Y2492481D01*
X74651319Y2492481D02*
X74556081Y2540100D01*
X74556081Y2540100D02*
X74508462Y2587720D01*
X74508462Y2587720D02*
X74460843Y2682958D01*
X74460843Y2682958D02*
X74413224Y2873434D01*
X74413224Y2873434D02*
X74413224Y3111529D01*
X74413224Y3111529D02*
X74460843Y3302005D01*
X74460843Y3302005D02*
X74508462Y3397243D01*
X74508462Y3397243D02*
X74556081Y3444862D01*
X74556081Y3444862D02*
X74651319Y3492481D01*
X75317986Y3492481D02*
X75937033Y3492481D01*
X75937033Y3492481D02*
X75603700Y3111529D01*
X75603700Y3111529D02*
X75746557Y3111529D01*
X75746557Y3111529D02*
X75841795Y3063910D01*
X75841795Y3063910D02*
X75889414Y3016291D01*
X75889414Y3016291D02*
X75937033Y2921053D01*
X75937033Y2921053D02*
X75937033Y2682958D01*
X75937033Y2682958D02*
X75889414Y2587720D01*
X75889414Y2587720D02*
X75841795Y2540100D01*
X75841795Y2540100D02*
X75746557Y2492481D01*
X75746557Y2492481D02*
X75460843Y2492481D01*
X75460843Y2492481D02*
X75365605Y2540100D01*
X75365605Y2540100D02*
X75317986Y2587720D01*
D11*
X33697000Y9204049D02*
X33573191Y9117382D01*
X33697000Y9055477D02*
X33437000Y9055477D01*
X33437000Y9055477D02*
X33437000Y9154525D01*
X33437000Y9154525D02*
X33449381Y9179287D01*
X33449381Y9179287D02*
X33461762Y9191668D01*
X33461762Y9191668D02*
X33486524Y9204049D01*
X33486524Y9204049D02*
X33523667Y9204049D01*
X33523667Y9204049D02*
X33548429Y9191668D01*
X33548429Y9191668D02*
X33560810Y9179287D01*
X33560810Y9179287D02*
X33573191Y9154525D01*
X33573191Y9154525D02*
X33573191Y9055477D01*
X33697000Y9451668D02*
X33697000Y9303096D01*
X33697000Y9377382D02*
X33437000Y9377382D01*
X33437000Y9377382D02*
X33474143Y9352620D01*
X33474143Y9352620D02*
X33498905Y9327858D01*
X33498905Y9327858D02*
X33511286Y9303096D01*
X33437000Y9612620D02*
X33437000Y9637382D01*
X33437000Y9637382D02*
X33449381Y9662144D01*
X33449381Y9662144D02*
X33461762Y9674525D01*
X33461762Y9674525D02*
X33486524Y9686906D01*
X33486524Y9686906D02*
X33536048Y9699287D01*
X33536048Y9699287D02*
X33597953Y9699287D01*
X33597953Y9699287D02*
X33647477Y9686906D01*
X33647477Y9686906D02*
X33672239Y9674525D01*
X33672239Y9674525D02*
X33684620Y9662144D01*
X33684620Y9662144D02*
X33697000Y9637382D01*
X33697000Y9637382D02*
X33697000Y9612620D01*
X33697000Y9612620D02*
X33684620Y9587858D01*
X33684620Y9587858D02*
X33672239Y9575477D01*
X33672239Y9575477D02*
X33647477Y9563096D01*
X33647477Y9563096D02*
X33597953Y9550715D01*
X33597953Y9550715D02*
X33536048Y9550715D01*
X33536048Y9550715D02*
X33486524Y9563096D01*
X33486524Y9563096D02*
X33461762Y9575477D01*
X33461762Y9575477D02*
X33449381Y9587858D01*
X33449381Y9587858D02*
X33437000Y9612620D01*
X33437000Y9785953D02*
X33437000Y9959287D01*
X33437000Y9959287D02*
X33697000Y9847858D01*
X38603849Y9588799D02*
X38517182Y9712608D01*
X38455277Y9588799D02*
X38455277Y9848799D01*
X38455277Y9848799D02*
X38554325Y9848799D01*
X38554325Y9848799D02*
X38579087Y9836418D01*
X38579087Y9836418D02*
X38591468Y9824037D01*
X38591468Y9824037D02*
X38603849Y9799275D01*
X38603849Y9799275D02*
X38603849Y9762132D01*
X38603849Y9762132D02*
X38591468Y9737370D01*
X38591468Y9737370D02*
X38579087Y9724989D01*
X38579087Y9724989D02*
X38554325Y9712608D01*
X38554325Y9712608D02*
X38455277Y9712608D01*
X38851468Y9588799D02*
X38702896Y9588799D01*
X38777182Y9588799D02*
X38777182Y9848799D01*
X38777182Y9848799D02*
X38752420Y9811656D01*
X38752420Y9811656D02*
X38727658Y9786894D01*
X38727658Y9786894D02*
X38702896Y9774513D01*
X39099087Y9588799D02*
X38950515Y9588799D01*
X39024801Y9588799D02*
X39024801Y9848799D01*
X39024801Y9848799D02*
X39000039Y9811656D01*
X39000039Y9811656D02*
X38975277Y9786894D01*
X38975277Y9786894D02*
X38950515Y9774513D01*
X39247658Y9737370D02*
X39222896Y9749751D01*
X39222896Y9749751D02*
X39210515Y9762132D01*
X39210515Y9762132D02*
X39198134Y9786894D01*
X39198134Y9786894D02*
X39198134Y9799275D01*
X39198134Y9799275D02*
X39210515Y9824037D01*
X39210515Y9824037D02*
X39222896Y9836418D01*
X39222896Y9836418D02*
X39247658Y9848799D01*
X39247658Y9848799D02*
X39297182Y9848799D01*
X39297182Y9848799D02*
X39321944Y9836418D01*
X39321944Y9836418D02*
X39334325Y9824037D01*
X39334325Y9824037D02*
X39346706Y9799275D01*
X39346706Y9799275D02*
X39346706Y9786894D01*
X39346706Y9786894D02*
X39334325Y9762132D01*
X39334325Y9762132D02*
X39321944Y9749751D01*
X39321944Y9749751D02*
X39297182Y9737370D01*
X39297182Y9737370D02*
X39247658Y9737370D01*
X39247658Y9737370D02*
X39222896Y9724989D01*
X39222896Y9724989D02*
X39210515Y9712608D01*
X39210515Y9712608D02*
X39198134Y9687846D01*
X39198134Y9687846D02*
X39198134Y9638322D01*
X39198134Y9638322D02*
X39210515Y9613560D01*
X39210515Y9613560D02*
X39222896Y9601179D01*
X39222896Y9601179D02*
X39247658Y9588799D01*
X39247658Y9588799D02*
X39297182Y9588799D01*
X39297182Y9588799D02*
X39321944Y9601179D01*
X39321944Y9601179D02*
X39334325Y9613560D01*
X39334325Y9613560D02*
X39346706Y9638322D01*
X39346706Y9638322D02*
X39346706Y9687846D01*
X39346706Y9687846D02*
X39334325Y9712608D01*
X39334325Y9712608D02*
X39321944Y9724989D01*
X39321944Y9724989D02*
X39297182Y9737370D01*
X40501448Y9581998D02*
X40414781Y9705807D01*
X40352876Y9581998D02*
X40352876Y9841998D01*
X40352876Y9841998D02*
X40451924Y9841998D01*
X40451924Y9841998D02*
X40476686Y9829617D01*
X40476686Y9829617D02*
X40489067Y9817236D01*
X40489067Y9817236D02*
X40501448Y9792474D01*
X40501448Y9792474D02*
X40501448Y9755331D01*
X40501448Y9755331D02*
X40489067Y9730569D01*
X40489067Y9730569D02*
X40476686Y9718188D01*
X40476686Y9718188D02*
X40451924Y9705807D01*
X40451924Y9705807D02*
X40352876Y9705807D01*
X40749067Y9581998D02*
X40600495Y9581998D01*
X40674781Y9581998D02*
X40674781Y9841998D01*
X40674781Y9841998D02*
X40650019Y9804855D01*
X40650019Y9804855D02*
X40625257Y9780093D01*
X40625257Y9780093D02*
X40600495Y9767712D01*
X40996686Y9581998D02*
X40848114Y9581998D01*
X40922400Y9581998D02*
X40922400Y9841998D01*
X40922400Y9841998D02*
X40897638Y9804855D01*
X40897638Y9804855D02*
X40872876Y9780093D01*
X40872876Y9780093D02*
X40848114Y9767712D01*
X41083352Y9841998D02*
X41256686Y9841998D01*
X41256686Y9841998D02*
X41145257Y9581998D01*
D10*
X51114381Y21847968D02*
X51095333Y21828920D01*
X51095333Y21828920D02*
X51038191Y21809873D01*
X51038191Y21809873D02*
X51000095Y21809873D01*
X51000095Y21809873D02*
X50942952Y21828920D01*
X50942952Y21828920D02*
X50904857Y21867016D01*
X50904857Y21867016D02*
X50885810Y21905111D01*
X50885810Y21905111D02*
X50866762Y21981301D01*
X50866762Y21981301D02*
X50866762Y22038444D01*
X50866762Y22038444D02*
X50885810Y22114635D01*
X50885810Y22114635D02*
X50904857Y22152730D01*
X50904857Y22152730D02*
X50942952Y22190825D01*
X50942952Y22190825D02*
X51000095Y22209873D01*
X51000095Y22209873D02*
X51038191Y22209873D01*
X51038191Y22209873D02*
X51095333Y22190825D01*
X51095333Y22190825D02*
X51114381Y22171778D01*
X51495333Y21809873D02*
X51266762Y21809873D01*
X51381048Y21809873D02*
X51381048Y22209873D01*
X51381048Y22209873D02*
X51342952Y22152730D01*
X51342952Y22152730D02*
X51304857Y22114635D01*
X51304857Y22114635D02*
X51266762Y22095587D01*
X51876285Y21809873D02*
X51647714Y21809873D01*
X51762000Y21809873D02*
X51762000Y22209873D01*
X51762000Y22209873D02*
X51723904Y22152730D01*
X51723904Y22152730D02*
X51685809Y22114635D01*
X51685809Y22114635D02*
X51647714Y22095587D01*
X52123904Y22209873D02*
X52161999Y22209873D01*
X52161999Y22209873D02*
X52200095Y22190825D01*
X52200095Y22190825D02*
X52219142Y22171778D01*
X52219142Y22171778D02*
X52238190Y22133682D01*
X52238190Y22133682D02*
X52257237Y22057492D01*
X52257237Y22057492D02*
X52257237Y21962254D01*
X52257237Y21962254D02*
X52238190Y21886063D01*
X52238190Y21886063D02*
X52219142Y21847968D01*
X52219142Y21847968D02*
X52200095Y21828920D01*
X52200095Y21828920D02*
X52161999Y21809873D01*
X52161999Y21809873D02*
X52123904Y21809873D01*
X52123904Y21809873D02*
X52085809Y21828920D01*
X52085809Y21828920D02*
X52066761Y21847968D01*
X52066761Y21847968D02*
X52047714Y21886063D01*
X52047714Y21886063D02*
X52028666Y21962254D01*
X52028666Y21962254D02*
X52028666Y22057492D01*
X52028666Y22057492D02*
X52047714Y22133682D01*
X52047714Y22133682D02*
X52066761Y22171778D01*
X52066761Y22171778D02*
X52085809Y22190825D01*
X52085809Y22190825D02*
X52123904Y22209873D01*
D14*
X16189485Y24015781D02*
X16189485Y23301496D01*
X16189485Y23301496D02*
X16141866Y23158639D01*
X16141866Y23158639D02*
X16046628Y23063400D01*
X16046628Y23063400D02*
X15903771Y23015781D01*
X15903771Y23015781D02*
X15808533Y23015781D01*
X17189485Y23015781D02*
X16618057Y23015781D01*
X16903771Y23015781D02*
X16903771Y24015781D01*
X16903771Y24015781D02*
X16808533Y23872924D01*
X16808533Y23872924D02*
X16713295Y23777686D01*
X16713295Y23777686D02*
X16618057Y23730067D01*
X17808533Y24015781D02*
X17903771Y24015781D01*
X17903771Y24015781D02*
X17999009Y23968162D01*
X17999009Y23968162D02*
X18046628Y23920543D01*
X18046628Y23920543D02*
X18094247Y23825305D01*
X18094247Y23825305D02*
X18141866Y23634829D01*
X18141866Y23634829D02*
X18141866Y23396734D01*
X18141866Y23396734D02*
X18094247Y23206258D01*
X18094247Y23206258D02*
X18046628Y23111020D01*
X18046628Y23111020D02*
X17999009Y23063400D01*
X17999009Y23063400D02*
X17903771Y23015781D01*
X17903771Y23015781D02*
X17808533Y23015781D01*
X17808533Y23015781D02*
X17713295Y23063400D01*
X17713295Y23063400D02*
X17665676Y23111020D01*
X17665676Y23111020D02*
X17618057Y23206258D01*
X17618057Y23206258D02*
X17570438Y23396734D01*
X17570438Y23396734D02*
X17570438Y23634829D01*
X17570438Y23634829D02*
X17618057Y23825305D01*
X17618057Y23825305D02*
X17665676Y23920543D01*
X17665676Y23920543D02*
X17713295Y23968162D01*
X17713295Y23968162D02*
X17808533Y24015781D01*
X18522819Y23920543D02*
X18570438Y23968162D01*
X18570438Y23968162D02*
X18665676Y24015781D01*
X18665676Y24015781D02*
X18903771Y24015781D01*
X18903771Y24015781D02*
X18999009Y23968162D01*
X18999009Y23968162D02*
X19046628Y23920543D01*
X19046628Y23920543D02*
X19094247Y23825305D01*
X19094247Y23825305D02*
X19094247Y23730067D01*
X19094247Y23730067D02*
X19046628Y23587210D01*
X19046628Y23587210D02*
X18475200Y23015781D01*
X18475200Y23015781D02*
X19094247Y23015781D01*
D10*
X31576327Y9606182D02*
X31385851Y9472849D01*
X31576327Y9377611D02*
X31176327Y9377611D01*
X31176327Y9377611D02*
X31176327Y9529992D01*
X31176327Y9529992D02*
X31195375Y9568087D01*
X31195375Y9568087D02*
X31214422Y9587134D01*
X31214422Y9587134D02*
X31252518Y9606182D01*
X31252518Y9606182D02*
X31309660Y9606182D01*
X31309660Y9606182D02*
X31347756Y9587134D01*
X31347756Y9587134D02*
X31366803Y9568087D01*
X31366803Y9568087D02*
X31385851Y9529992D01*
X31385851Y9529992D02*
X31385851Y9377611D01*
X31576327Y9987134D02*
X31576327Y9758563D01*
X31576327Y9872849D02*
X31176327Y9872849D01*
X31176327Y9872849D02*
X31233470Y9834753D01*
X31233470Y9834753D02*
X31271565Y9796658D01*
X31271565Y9796658D02*
X31290613Y9758563D01*
X31176327Y10234753D02*
X31176327Y10272848D01*
X31176327Y10272848D02*
X31195375Y10310944D01*
X31195375Y10310944D02*
X31214422Y10329991D01*
X31214422Y10329991D02*
X31252518Y10349039D01*
X31252518Y10349039D02*
X31328708Y10368086D01*
X31328708Y10368086D02*
X31423946Y10368086D01*
X31423946Y10368086D02*
X31500137Y10349039D01*
X31500137Y10349039D02*
X31538232Y10329991D01*
X31538232Y10329991D02*
X31557280Y10310944D01*
X31557280Y10310944D02*
X31576327Y10272848D01*
X31576327Y10272848D02*
X31576327Y10234753D01*
X31576327Y10234753D02*
X31557280Y10196658D01*
X31557280Y10196658D02*
X31538232Y10177610D01*
X31538232Y10177610D02*
X31500137Y10158563D01*
X31500137Y10158563D02*
X31423946Y10139515D01*
X31423946Y10139515D02*
X31328708Y10139515D01*
X31328708Y10139515D02*
X31252518Y10158563D01*
X31252518Y10158563D02*
X31214422Y10177610D01*
X31214422Y10177610D02*
X31195375Y10196658D01*
X31195375Y10196658D02*
X31176327Y10234753D01*
X31214422Y10520467D02*
X31195375Y10539515D01*
X31195375Y10539515D02*
X31176327Y10577610D01*
X31176327Y10577610D02*
X31176327Y10672848D01*
X31176327Y10672848D02*
X31195375Y10710943D01*
X31195375Y10710943D02*
X31214422Y10729991D01*
X31214422Y10729991D02*
X31252518Y10749038D01*
X31252518Y10749038D02*
X31290613Y10749038D01*
X31290613Y10749038D02*
X31347756Y10729991D01*
X31347756Y10729991D02*
X31576327Y10501419D01*
X31576327Y10501419D02*
X31576327Y10749038D01*
D11*
X44120647Y11510400D02*
X44033980Y11634209D01*
X43972075Y11510400D02*
X43972075Y11770400D01*
X43972075Y11770400D02*
X44071123Y11770400D01*
X44071123Y11770400D02*
X44095885Y11758019D01*
X44095885Y11758019D02*
X44108266Y11745638D01*
X44108266Y11745638D02*
X44120647Y11720876D01*
X44120647Y11720876D02*
X44120647Y11683733D01*
X44120647Y11683733D02*
X44108266Y11658971D01*
X44108266Y11658971D02*
X44095885Y11646590D01*
X44095885Y11646590D02*
X44071123Y11634209D01*
X44071123Y11634209D02*
X43972075Y11634209D01*
X44368266Y11510400D02*
X44219694Y11510400D01*
X44293980Y11510400D02*
X44293980Y11770400D01*
X44293980Y11770400D02*
X44269218Y11733257D01*
X44269218Y11733257D02*
X44244456Y11708495D01*
X44244456Y11708495D02*
X44219694Y11696114D01*
X44615885Y11510400D02*
X44467313Y11510400D01*
X44541599Y11510400D02*
X44541599Y11770400D01*
X44541599Y11770400D02*
X44516837Y11733257D01*
X44516837Y11733257D02*
X44492075Y11708495D01*
X44492075Y11708495D02*
X44467313Y11696114D01*
X44714932Y11745638D02*
X44727313Y11758019D01*
X44727313Y11758019D02*
X44752075Y11770400D01*
X44752075Y11770400D02*
X44813980Y11770400D01*
X44813980Y11770400D02*
X44838742Y11758019D01*
X44838742Y11758019D02*
X44851123Y11745638D01*
X44851123Y11745638D02*
X44863504Y11720876D01*
X44863504Y11720876D02*
X44863504Y11696114D01*
X44863504Y11696114D02*
X44851123Y11658971D01*
X44851123Y11658971D02*
X44702551Y11510400D01*
X44702551Y11510400D02*
X44863504Y11510400D01*
X69062238Y5430168D02*
X69050334Y5418263D01*
X69050334Y5418263D02*
X69014619Y5406359D01*
X69014619Y5406359D02*
X68990810Y5406359D01*
X68990810Y5406359D02*
X68955096Y5418263D01*
X68955096Y5418263D02*
X68931286Y5442073D01*
X68931286Y5442073D02*
X68919381Y5465883D01*
X68919381Y5465883D02*
X68907477Y5513502D01*
X68907477Y5513502D02*
X68907477Y5549216D01*
X68907477Y5549216D02*
X68919381Y5596835D01*
X68919381Y5596835D02*
X68931286Y5620644D01*
X68931286Y5620644D02*
X68955096Y5644454D01*
X68955096Y5644454D02*
X68990810Y5656359D01*
X68990810Y5656359D02*
X69014619Y5656359D01*
X69014619Y5656359D02*
X69050334Y5644454D01*
X69050334Y5644454D02*
X69062238Y5632549D01*
X69300334Y5406359D02*
X69157477Y5406359D01*
X69228905Y5406359D02*
X69228905Y5656359D01*
X69228905Y5656359D02*
X69205096Y5620644D01*
X69205096Y5620644D02*
X69181286Y5596835D01*
X69181286Y5596835D02*
X69157477Y5584930D01*
X69455095Y5656359D02*
X69478905Y5656359D01*
X69478905Y5656359D02*
X69502714Y5644454D01*
X69502714Y5644454D02*
X69514619Y5632549D01*
X69514619Y5632549D02*
X69526524Y5608740D01*
X69526524Y5608740D02*
X69538429Y5561121D01*
X69538429Y5561121D02*
X69538429Y5501597D01*
X69538429Y5501597D02*
X69526524Y5453978D01*
X69526524Y5453978D02*
X69514619Y5430168D01*
X69514619Y5430168D02*
X69502714Y5418263D01*
X69502714Y5418263D02*
X69478905Y5406359D01*
X69478905Y5406359D02*
X69455095Y5406359D01*
X69455095Y5406359D02*
X69431286Y5418263D01*
X69431286Y5418263D02*
X69419381Y5430168D01*
X69419381Y5430168D02*
X69407476Y5453978D01*
X69407476Y5453978D02*
X69395572Y5501597D01*
X69395572Y5501597D02*
X69395572Y5561121D01*
X69395572Y5561121D02*
X69407476Y5608740D01*
X69407476Y5608740D02*
X69419381Y5632549D01*
X69419381Y5632549D02*
X69431286Y5644454D01*
X69431286Y5644454D02*
X69455095Y5656359D01*
X69752714Y5656359D02*
X69705095Y5656359D01*
X69705095Y5656359D02*
X69681286Y5644454D01*
X69681286Y5644454D02*
X69669381Y5632549D01*
X69669381Y5632549D02*
X69645571Y5596835D01*
X69645571Y5596835D02*
X69633667Y5549216D01*
X69633667Y5549216D02*
X69633667Y5453978D01*
X69633667Y5453978D02*
X69645571Y5430168D01*
X69645571Y5430168D02*
X69657476Y5418263D01*
X69657476Y5418263D02*
X69681286Y5406359D01*
X69681286Y5406359D02*
X69728905Y5406359D01*
X69728905Y5406359D02*
X69752714Y5418263D01*
X69752714Y5418263D02*
X69764619Y5430168D01*
X69764619Y5430168D02*
X69776524Y5453978D01*
X69776524Y5453978D02*
X69776524Y5513502D01*
X69776524Y5513502D02*
X69764619Y5537311D01*
X69764619Y5537311D02*
X69752714Y5549216D01*
X69752714Y5549216D02*
X69728905Y5561121D01*
X69728905Y5561121D02*
X69681286Y5561121D01*
X69681286Y5561121D02*
X69657476Y5549216D01*
X69657476Y5549216D02*
X69645571Y5537311D01*
X69645571Y5537311D02*
X69633667Y5513502D01*
D14*
X17130924Y9139581D02*
X17130924Y10139581D01*
X17702352Y9139581D02*
X17273781Y9711010D01*
X17702352Y10139581D02*
X17130924Y9568153D01*
X18654733Y9139581D02*
X18083305Y9139581D01*
X18369019Y9139581D02*
X18369019Y10139581D01*
X18369019Y10139581D02*
X18273781Y9996724D01*
X18273781Y9996724D02*
X18178543Y9901486D01*
X18178543Y9901486D02*
X18083305Y9853867D01*
X19273781Y10139581D02*
X19369019Y10139581D01*
X19369019Y10139581D02*
X19464257Y10091962D01*
X19464257Y10091962D02*
X19511876Y10044343D01*
X19511876Y10044343D02*
X19559495Y9949105D01*
X19559495Y9949105D02*
X19607114Y9758629D01*
X19607114Y9758629D02*
X19607114Y9520534D01*
X19607114Y9520534D02*
X19559495Y9330058D01*
X19559495Y9330058D02*
X19511876Y9234820D01*
X19511876Y9234820D02*
X19464257Y9187200D01*
X19464257Y9187200D02*
X19369019Y9139581D01*
X19369019Y9139581D02*
X19273781Y9139581D01*
X19273781Y9139581D02*
X19178543Y9187200D01*
X19178543Y9187200D02*
X19130924Y9234820D01*
X19130924Y9234820D02*
X19083305Y9330058D01*
X19083305Y9330058D02*
X19035686Y9520534D01*
X19035686Y9520534D02*
X19035686Y9758629D01*
X19035686Y9758629D02*
X19083305Y9949105D01*
X19083305Y9949105D02*
X19130924Y10044343D01*
X19130924Y10044343D02*
X19178543Y10091962D01*
X19178543Y10091962D02*
X19273781Y10139581D01*
X19940448Y10139581D02*
X20559495Y10139581D01*
X20559495Y10139581D02*
X20226162Y9758629D01*
X20226162Y9758629D02*
X20369019Y9758629D01*
X20369019Y9758629D02*
X20464257Y9711010D01*
X20464257Y9711010D02*
X20511876Y9663391D01*
X20511876Y9663391D02*
X20559495Y9568153D01*
X20559495Y9568153D02*
X20559495Y9330058D01*
X20559495Y9330058D02*
X20511876Y9234820D01*
X20511876Y9234820D02*
X20464257Y9187200D01*
X20464257Y9187200D02*
X20369019Y9139581D01*
X20369019Y9139581D02*
X20083305Y9139581D01*
X20083305Y9139581D02*
X19988067Y9187200D01*
X19988067Y9187200D02*
X19940448Y9234820D01*
X666186Y2492481D02*
X666186Y3492481D01*
X666186Y3492481D02*
X999519Y2778196D01*
X999519Y2778196D02*
X1332852Y3492481D01*
X1332852Y3492481D02*
X1332852Y2492481D01*
X1809043Y2492481D02*
X1809043Y3492481D01*
X1809043Y3016291D02*
X2380471Y3016291D01*
X2380471Y2492481D02*
X2380471Y3492481D01*
X3380471Y2492481D02*
X2809043Y2492481D01*
X3094757Y2492481D02*
X3094757Y3492481D01*
X3094757Y3492481D02*
X2999519Y3349624D01*
X2999519Y3349624D02*
X2904281Y3254386D01*
X2904281Y3254386D02*
X2809043Y3206767D01*
X3999519Y3492481D02*
X4094757Y3492481D01*
X4094757Y3492481D02*
X4189995Y3444862D01*
X4189995Y3444862D02*
X4237614Y3397243D01*
X4237614Y3397243D02*
X4285233Y3302005D01*
X4285233Y3302005D02*
X4332852Y3111529D01*
X4332852Y3111529D02*
X4332852Y2873434D01*
X4332852Y2873434D02*
X4285233Y2682958D01*
X4285233Y2682958D02*
X4237614Y2587720D01*
X4237614Y2587720D02*
X4189995Y2540100D01*
X4189995Y2540100D02*
X4094757Y2492481D01*
X4094757Y2492481D02*
X3999519Y2492481D01*
X3999519Y2492481D02*
X3904281Y2540100D01*
X3904281Y2540100D02*
X3856662Y2587720D01*
X3856662Y2587720D02*
X3809043Y2682958D01*
X3809043Y2682958D02*
X3761424Y2873434D01*
X3761424Y2873434D02*
X3761424Y3111529D01*
X3761424Y3111529D02*
X3809043Y3302005D01*
X3809043Y3302005D02*
X3856662Y3397243D01*
X3856662Y3397243D02*
X3904281Y3444862D01*
X3904281Y3444862D02*
X3999519Y3492481D01*
X5189995Y3159148D02*
X5189995Y2492481D01*
X4951900Y3540100D02*
X4713805Y2825815D01*
X4713805Y2825815D02*
X5332852Y2825815D01*
D16*
%TO.C,R104*%
X19678900Y15659000D02*
X20503900Y15659000D01*
X19678900Y14059000D02*
X19678900Y15659000D01*
X20503900Y15659000D02*
X20503900Y14059000D01*
X20503900Y14059000D02*
X19678900Y14059000D01*
%TO.C,R105*%
X32343600Y10020000D02*
X32883600Y10020000D01*
X32343600Y8970000D02*
X32343600Y10020000D01*
X32883600Y10020000D02*
X32883600Y8970000D01*
X32883600Y8970000D02*
X32343600Y8970000D01*
%TO.C,U104*%
X40390800Y8398598D02*
X40390800Y7198598D01*
X42190800Y8398598D02*
X40390800Y8398598D01*
X42490800Y8098598D02*
X42190800Y8398598D01*
X42490800Y7198598D02*
X40390800Y7198598D01*
X42490800Y7198598D02*
X42490800Y8098598D01*
%TO.C,U102*%
X46014899Y18050600D02*
X52714899Y18050600D01*
X46014899Y15350600D02*
X46014899Y18050600D01*
X47014899Y14350600D02*
X46014899Y15350600D01*
X47014899Y14350600D02*
X52714899Y14350600D01*
X52714899Y14350600D02*
X52714899Y18050600D01*
%TO.C,SW102*%
X68982000Y10985400D02*
X68982000Y10485400D01*
X68982000Y6785400D02*
X68982000Y7285400D01*
X69482000Y10285400D02*
X70482000Y11285400D01*
X69482000Y10135400D02*
X69482000Y10285400D01*
X69482000Y7485400D02*
X69482000Y7635400D01*
X70482000Y11285400D02*
X70632000Y11285400D01*
X70482000Y6485400D02*
X69482000Y7485400D01*
X70632000Y6485400D02*
X70482000Y6485400D01*
X73132000Y11285400D02*
X73282000Y11285400D01*
X73282000Y11285400D02*
X74282000Y10285400D01*
X73282000Y6485400D02*
X73132000Y6485400D01*
X74282000Y10285400D02*
X74282000Y10135400D01*
X74282000Y7635400D02*
X74282000Y7485400D01*
X74282000Y7485400D02*
X73282000Y6485400D01*
X74782000Y10985400D02*
X74782000Y10485400D01*
X74782000Y6785400D02*
X74782000Y7285400D01*
X72882000Y8885400D02*
G75*
G02*
X70882000Y8885400I-1000000J0D01*
G01*
X70882000Y8885400D02*
G75*
G02*
X72882000Y8885400I1000000J0D01*
G01*
X69682000Y10485400D02*
X68632000Y10485400D01*
X68632000Y10985400D01*
X70182000Y10985400D01*
X69682000Y10485400D01*
X70182000Y6785400D02*
X68632000Y6785400D01*
X68632000Y7285400D01*
X69682000Y7285400D01*
X70182000Y6785400D01*
X75132000Y10485400D02*
X74082000Y10485400D01*
X73582000Y10985400D01*
X75132000Y10985400D01*
X75132000Y10485400D01*
X75132000Y6785400D02*
X73582000Y6785400D01*
X74082000Y7285400D01*
X75132000Y7285400D01*
X75132000Y6785400D01*
X73732000Y9735400D02*
X73732000Y8035400D01*
X72732000Y7035400D01*
X71032000Y7035400D01*
X70032000Y8035400D01*
X70032000Y9735400D01*
X71032000Y10735400D01*
X72732000Y10735400D01*
X73732000Y9735400D01*
X73132000Y10860400D02*
X73457000Y10860400D01*
X73857000Y10460400D01*
X73857000Y10135400D01*
X74432000Y10135400D01*
X74432000Y7635400D01*
X73857000Y7635400D01*
X73857000Y7310400D01*
X73457000Y6910400D01*
X73132000Y6910400D01*
X73132000Y6335400D01*
X70632000Y6335400D01*
X70632000Y6910400D01*
X70307000Y6910400D01*
X69907000Y7310400D01*
X69907000Y7635400D01*
X69332000Y7635400D01*
X69332000Y10135400D01*
X69907000Y10135400D01*
X69907000Y10460400D01*
X70307000Y10860400D01*
X70632000Y10860400D01*
X70632000Y11435400D01*
X73132000Y11435400D01*
X73132000Y10860400D01*
%TO.C,R113*%
X43886599Y12863800D02*
X44936599Y12863800D01*
X43886599Y12323800D02*
X43886599Y12863800D01*
X44936599Y12863800D02*
X44936599Y12323800D01*
X44936599Y12323800D02*
X43886599Y12323800D01*
%TO.C,D106*%
X32585200Y15682801D02*
X35385200Y15682801D01*
X32585200Y13882799D02*
X32585200Y15682801D01*
X33735200Y15182800D02*
X34335199Y14782800D01*
X33735200Y14782800D02*
X33235200Y14782800D01*
X33735200Y14382800D02*
X33735200Y15182800D01*
X34335199Y14782800D02*
X33735200Y14382800D01*
X34335199Y14782800D02*
X34335200Y15332800D01*
X34335199Y14782800D02*
X34335200Y14232800D01*
X34735200Y14782800D02*
X34335199Y14782800D01*
X35385200Y15682801D02*
X35385200Y13882799D01*
X35385200Y13882799D02*
X32585200Y13882799D01*
%TO.C,SW101*%
X68984800Y18152800D02*
X68984800Y17652800D01*
X68984800Y13952800D02*
X68984800Y14452800D01*
X69484800Y17452800D02*
X70484800Y18452800D01*
X69484800Y17302800D02*
X69484800Y17452800D01*
X69484800Y14652800D02*
X69484800Y14802800D01*
X70484800Y18452800D02*
X70634800Y18452800D01*
X70484800Y13652800D02*
X69484800Y14652800D01*
X70634800Y13652800D02*
X70484800Y13652800D01*
X73134800Y18452800D02*
X73284800Y18452800D01*
X73284800Y18452800D02*
X74284800Y17452800D01*
X73284800Y13652800D02*
X73134800Y13652800D01*
X74284800Y17452800D02*
X74284800Y17302800D01*
X74284800Y14802800D02*
X74284800Y14652800D01*
X74284800Y14652800D02*
X73284800Y13652800D01*
X74784800Y18152800D02*
X74784800Y17652800D01*
X74784800Y13952800D02*
X74784800Y14452800D01*
X72884800Y16052800D02*
G75*
G02*
X70884800Y16052800I-1000000J0D01*
G01*
X70884800Y16052800D02*
G75*
G02*
X72884800Y16052800I1000000J0D01*
G01*
X69684800Y17652800D02*
X68634800Y17652800D01*
X68634800Y18152800D01*
X70184800Y18152800D01*
X69684800Y17652800D01*
X70184800Y13952800D02*
X68634800Y13952800D01*
X68634800Y14452800D01*
X69684800Y14452800D01*
X70184800Y13952800D01*
X75134800Y17652800D02*
X74084800Y17652800D01*
X73584800Y18152800D01*
X75134800Y18152800D01*
X75134800Y17652800D01*
X75134800Y13952800D02*
X73584800Y13952800D01*
X74084800Y14452800D01*
X75134800Y14452800D01*
X75134800Y13952800D01*
X73734800Y16902800D02*
X73734800Y15202800D01*
X72734800Y14202800D01*
X71034800Y14202800D01*
X70034800Y15202800D01*
X70034800Y16902800D01*
X71034800Y17902800D01*
X72734800Y17902800D01*
X73734800Y16902800D01*
X73134800Y18027800D02*
X73459800Y18027800D01*
X73859800Y17627800D01*
X73859800Y17302800D01*
X74434800Y17302800D01*
X74434800Y14802800D01*
X73859800Y14802800D01*
X73859800Y14477800D01*
X73459800Y14077800D01*
X73134800Y14077800D01*
X73134800Y13502800D01*
X70634800Y13502800D01*
X70634800Y14077800D01*
X70309800Y14077800D01*
X69909800Y14477800D01*
X69909800Y14802800D01*
X69334800Y14802800D01*
X69334800Y17302800D01*
X69909800Y17302800D01*
X69909800Y17627800D01*
X70309800Y18027800D01*
X70634800Y18027800D01*
X70634800Y18602800D01*
X73134800Y18602800D01*
X73134800Y18027800D01*
X42739199Y11621400D02*
X43239199Y11621400D01*
X43239199Y11721400D02*
G75*
G02*
X43239199Y11621400I0J-50000D01*
G01*
X43239199Y11721400D02*
X42739199Y11721400D01*
X42739199Y11721400D02*
G75*
G03*
X42739199Y11621400I0J-50000D01*
G01*
X42789199Y10671400D02*
X42789199Y11671400D01*
X42689199Y11671400D02*
G75*
G02*
X42789199Y11671400I50000J0D01*
G01*
X42689199Y11671400D02*
X42689199Y10671400D01*
X42689199Y10671400D02*
G75*
G03*
X42789199Y10671400I50000J0D01*
G01*
X43189199Y11671400D02*
X43189199Y10671400D01*
X43289199Y10671400D02*
G75*
G02*
X43189199Y10671400I-50000J0D01*
G01*
X43289199Y10671400D02*
X43289199Y11671400D01*
X43289199Y11671400D02*
G75*
G03*
X43189199Y11671400I-50000J0D01*
G01*
X43239199Y10721400D02*
X42739199Y10721400D01*
X42739199Y10621400D02*
G75*
G02*
X42739199Y10721400I0J50000D01*
G01*
X42739199Y10621400D02*
X43239199Y10621400D01*
X43239199Y10621400D02*
G75*
G03*
X43239199Y10721400I0J50000D01*
G01*
%TO.C,C102*%
X67110800Y21900969D02*
X67610800Y21900969D01*
X67110800Y20900969D02*
X67110800Y21900969D01*
X67610800Y21900969D02*
X67610800Y20900969D01*
X67610800Y20900969D02*
X67110800Y20900969D01*
%TO.C,D101*%
X42155200Y15738600D02*
X42155200Y15138600D01*
X42255200Y15738600D02*
X42255200Y15138600D01*
X42355200Y15738600D02*
X42355200Y15138600D01*
X42455200Y15138600D02*
X41455200Y15138600D01*
X41455200Y15738600D01*
X42455200Y15738600D01*
X42455200Y15138600D01*
X42739199Y13501000D02*
X43239199Y13501000D01*
X43239199Y13601000D02*
G75*
G02*
X43239199Y13501000I0J-50000D01*
G01*
X43239199Y13601000D02*
X42739199Y13601000D01*
X42739199Y13601000D02*
G75*
G03*
X42739199Y13501000I0J-50000D01*
G01*
X42789199Y12551000D02*
X42789199Y13551000D01*
X42689199Y13551000D02*
G75*
G02*
X42789199Y13551000I50000J0D01*
G01*
X42689199Y13551000D02*
X42689199Y12551000D01*
X42689199Y12551000D02*
G75*
G03*
X42789199Y12551000I50000J0D01*
G01*
X43189199Y13551000D02*
X43189199Y12551000D01*
X43289199Y12551000D02*
G75*
G02*
X43189199Y12551000I-50000J0D01*
G01*
X43289199Y12551000D02*
X43289199Y13551000D01*
X43289199Y13551000D02*
G75*
G03*
X43189199Y13551000I-50000J0D01*
G01*
X43239199Y12601000D02*
X42739199Y12601000D01*
X42739199Y12501000D02*
G75*
G02*
X42739199Y12601000I0J50000D01*
G01*
X42739199Y12501000D02*
X43239199Y12501000D01*
X43239199Y12501000D02*
G75*
G03*
X43239199Y12601000I0J50000D01*
G01*
%TO.C,K104*%
X25976800Y10544400D02*
X25976800Y7694400D01*
X21876800Y7694400D01*
X21876800Y11494400D01*
X25026800Y11494400D01*
X25976800Y10544400D01*
%TO.C,L102*%
X30181600Y16137000D02*
X30981600Y16137000D01*
X30181600Y14537000D02*
X30181600Y16137000D01*
X30981600Y16137000D02*
X30981600Y14537000D01*
X30981600Y14537000D02*
X30181600Y14537000D01*
%TO.C,R106*%
X24784300Y15659000D02*
X25609300Y15659000D01*
X24784300Y14059000D02*
X24784300Y15659000D01*
X25609300Y15659000D02*
X25609300Y14059000D01*
X25609300Y14059000D02*
X24784300Y14059000D01*
%TO.C,R101*%
X29508700Y10853800D02*
X30333700Y10853800D01*
X29508700Y9253800D02*
X29508700Y10853800D01*
X30333700Y10853800D02*
X30333700Y9253800D01*
X30333700Y9253800D02*
X29508700Y9253800D01*
%TO.C,R109*%
X57691800Y21555200D02*
X58741800Y21555200D01*
X57691800Y21015200D02*
X57691800Y21555200D01*
X58741800Y21555200D02*
X58741800Y21015200D01*
X58741800Y21015200D02*
X57691800Y21015200D01*
%TO.C,L101*%
X39586000Y11370198D02*
X41186000Y11370198D01*
X39586000Y10570198D02*
X39586000Y11370198D01*
X41186000Y11370198D02*
X41186000Y10570198D01*
X41186000Y10570198D02*
X39586000Y10570198D01*
%TO.C,D103*%
X55534000Y23379700D02*
X55534000Y21379700D01*
X55534000Y21379700D02*
X56734000Y21379700D01*
X56434000Y23379700D02*
X55534000Y23379700D01*
X56734000Y23079700D02*
X56434000Y23379700D01*
X56734000Y21379700D02*
X56734000Y23079700D01*
%TO.C,D105*%
X29681600Y20699400D02*
X31481600Y20699400D01*
X29681600Y17899400D02*
X29681600Y20699400D01*
X30181600Y19549400D02*
X30981600Y19549400D01*
X30581600Y19549400D02*
X30581600Y20049400D01*
X30581600Y18949400D02*
X30031600Y18949400D01*
X30581600Y18949400D02*
X30181600Y19549400D01*
X30581600Y18949400D02*
X31131600Y18949400D01*
X30581600Y18549400D02*
X30581600Y18949400D01*
X30981600Y19549400D02*
X30581600Y18949400D01*
X31481600Y20699400D02*
X31481600Y17899400D01*
X31481600Y17899400D02*
X29681600Y17899400D01*
%TO.C,K101*%
X10609800Y7694400D02*
X7459800Y7694400D01*
X6509800Y8644400D01*
X6509800Y11494400D01*
X10609800Y11494400D01*
X10609800Y7694400D01*
%TO.C,R111*%
X36698700Y13487402D02*
X37748700Y13487402D01*
X36698700Y12947402D02*
X36698700Y13487402D01*
X37748700Y13487402D02*
X37748700Y12947402D01*
X37748700Y12947402D02*
X36698700Y12947402D01*
%TO.C,J103*%
X42016600Y3651400D02*
X42016600Y1851400D01*
X42016600Y1851400D02*
X42216600Y1651400D01*
X42216600Y3851400D02*
X42016600Y3651400D01*
X42216600Y1651400D02*
X42216600Y1051400D01*
X42216600Y1051400D02*
X43716600Y1051400D01*
X43716600Y4851400D02*
X43716600Y651400D01*
X43716600Y4851400D02*
X50466600Y4851400D01*
X43716600Y3851400D02*
X42216600Y3851400D01*
X43716600Y651400D02*
X50466600Y651400D01*
X44716600Y4851400D02*
X45216600Y4144293D01*
X45216600Y4144293D02*
X45716600Y4851400D01*
X50466600Y4851400D02*
X50466600Y651400D01*
X50466600Y3851400D02*
X51966600Y3851400D01*
X51966600Y3851400D02*
X52166600Y3651400D01*
X51966600Y1651400D02*
X51966600Y1051400D01*
X51966600Y1051400D02*
X50466600Y1051400D01*
X52166600Y3651400D02*
X52166600Y1851400D01*
X52166600Y1851400D02*
X51966600Y1651400D01*
%TO.C,C104*%
X45847201Y22551800D02*
X45847201Y20951800D01*
X45847201Y20951800D02*
X48647201Y20951800D01*
X48647201Y20951800D02*
X49047201Y21351800D01*
X49047201Y22551800D02*
X45847201Y22551800D01*
X49047201Y21351800D02*
X49047201Y22551800D01*
%TO.C,C111*%
X48641199Y10041000D02*
X48641199Y8441000D01*
X48641199Y8441000D02*
X51441199Y8441000D01*
X51441199Y8441000D02*
X51841199Y8841000D01*
X51841199Y10041000D02*
X48641199Y10041000D01*
X51841199Y8841000D02*
X51841199Y10041000D01*
%TO.C,K102*%
X15689800Y7694400D02*
X12539800Y7694400D01*
X11589800Y8644400D01*
X11589800Y11494400D01*
X15689800Y11494400D01*
X15689800Y7694400D01*
%TO.C,D104*%
X59699600Y23402800D02*
X59699600Y21402800D01*
X59699600Y21402800D02*
X60899600Y21402800D01*
X60599600Y23402800D02*
X59699600Y23402800D01*
X60899600Y23102800D02*
X60599600Y23402800D01*
X60899600Y21402800D02*
X60899600Y23102800D01*
%TO.C,D102*%
X37077699Y13933402D02*
X37077699Y14533402D01*
X37177699Y13933402D02*
X37177699Y14533402D01*
X37277699Y13933402D02*
X37277699Y14533402D01*
X36977699Y14533402D02*
X37977699Y14533402D01*
X37977699Y13933402D01*
X36977699Y13933402D01*
X36977699Y14533402D01*
%TO.C,R116*%
X39303200Y8091598D02*
X39843200Y8091598D01*
X39303200Y7041598D02*
X39303200Y8091598D01*
X39843200Y8091598D02*
X39843200Y7041598D01*
X39843200Y7041598D02*
X39303200Y7041598D01*
%TO.C,C105*%
X68842000Y19640267D02*
X69842000Y19640267D01*
X68842000Y19140267D02*
X68842000Y19640267D01*
X69842000Y19640267D02*
X69842000Y19140267D01*
X69842000Y19140267D02*
X68842000Y19140267D01*
%TO.C,R114*%
X57438800Y23283400D02*
X57978800Y23283400D01*
X57438800Y22233400D02*
X57438800Y23283400D01*
X57978800Y23283400D02*
X57978800Y22233400D01*
X57978800Y22233400D02*
X57438800Y22233400D01*
%TO.C,U101*%
X53480400Y19625000D02*
X53480400Y1625000D01*
X53480400Y1625000D02*
X67780400Y1625000D01*
X65880400Y19625000D02*
X53480400Y19625000D01*
X66380400Y19125000D02*
X65880400Y19625000D01*
X66880400Y19625000D02*
X66380400Y19125000D01*
X67780400Y19625000D02*
X66880400Y19625000D01*
X67780400Y19625000D02*
X67780400Y1625000D01*
%TO.C,R110*%
X41684200Y14692602D02*
X42734200Y14692602D01*
X41684200Y14152602D02*
X41684200Y14692602D01*
X42734200Y14692602D02*
X42734200Y14152602D01*
X42734200Y14152602D02*
X41684200Y14152602D01*
%TO.C,R108*%
X68817000Y4801933D02*
X69867000Y4801933D01*
X68817000Y4261933D02*
X68817000Y4801933D01*
X69867000Y4801933D02*
X69867000Y4261933D01*
X69867000Y4261933D02*
X68817000Y4261933D01*
%TO.C,J101*%
X29489400Y5987200D02*
X35839400Y5987200D01*
X29489400Y3012200D02*
X29489400Y5987200D01*
X29924400Y7032200D02*
X30324400Y7032200D01*
X29924400Y5987200D02*
X29924400Y7032200D01*
X29924400Y2577200D02*
X29489400Y3012200D01*
X29924400Y2577200D02*
X29924400Y1532200D01*
X29924400Y1532200D02*
X30324400Y1532200D01*
X30324400Y7032200D02*
X30324400Y5987200D01*
X30324400Y1532200D02*
X30324400Y2577200D01*
X31194400Y7032200D02*
X31594400Y7032200D01*
X31194400Y5987200D02*
X31194400Y7032200D01*
X31194400Y2577200D02*
X31194400Y1532200D01*
X31194400Y1532200D02*
X31594400Y1532200D01*
X31594400Y7032200D02*
X31594400Y5987200D01*
X31594400Y1532200D02*
X31594400Y2577200D01*
X32464400Y7032200D02*
X32864400Y7032200D01*
X32464400Y5987200D02*
X32464400Y7032200D01*
X32464400Y2577200D02*
X32464400Y1532200D01*
X32464400Y1532200D02*
X32864400Y1532200D01*
X32864400Y7032200D02*
X32864400Y5987200D01*
X32864400Y1532200D02*
X32864400Y2577200D01*
X33734400Y7032200D02*
X34134400Y7032200D01*
X33734400Y5987200D02*
X33734400Y7032200D01*
X33734400Y2577200D02*
X33734400Y1532200D01*
X33734400Y1532200D02*
X34134400Y1532200D01*
X34134400Y7032200D02*
X34134400Y5987200D01*
X34134400Y1532200D02*
X34134400Y2577200D01*
X35004400Y7032200D02*
X35404400Y7032200D01*
X35004400Y5987200D02*
X35004400Y7032200D01*
X35004400Y2577200D02*
X35004400Y1532200D01*
X35004400Y1532200D02*
X35404400Y1532200D01*
X35404400Y7032200D02*
X35404400Y5987200D01*
X35404400Y1532200D02*
X35404400Y2577200D01*
X35839400Y5987200D02*
X35839400Y2577200D01*
X35839400Y2577200D02*
X29924400Y2577200D01*
%TO.C,C103*%
X49949200Y11474400D02*
X51549200Y11474400D01*
X49949200Y10674400D02*
X49949200Y11474400D01*
X51549200Y11474400D02*
X51549200Y10674400D01*
X51549200Y10674400D02*
X49949200Y10674400D01*
%TO.C,R103*%
X65160400Y21925969D02*
X65700400Y21925969D01*
X65160400Y20875969D02*
X65160400Y21925969D01*
X65700400Y21925969D02*
X65700400Y20875969D01*
X65700400Y20875969D02*
X65160400Y20875969D01*
%TO.C,C107*%
X64215200Y21900969D02*
X64715200Y21900969D01*
X64215200Y20900969D02*
X64215200Y21900969D01*
X64715200Y21900969D02*
X64715200Y20900969D01*
X64715200Y20900969D02*
X64215200Y20900969D01*
%TO.C,U103*%
X38723200Y12567403D02*
X38723200Y13867403D01*
X40103200Y13867403D02*
X38723200Y13867403D01*
X40103200Y13867403D02*
X40423200Y13547403D01*
X40423200Y12567403D02*
X38723200Y12567403D01*
X40423200Y12567403D02*
X40423200Y13547403D01*
X40423200Y12567403D02*
X40423200Y13547403D01*
%TO.C,R115*%
X58454800Y23283400D02*
X58994800Y23283400D01*
X58454800Y22233400D02*
X58454800Y23283400D01*
X58994800Y23283400D02*
X58994800Y22233400D01*
X58994800Y22233400D02*
X58454800Y22233400D01*
%TO.C,C101*%
X66145600Y21900969D02*
X66645600Y21900969D01*
X66145600Y20900969D02*
X66145600Y21900969D01*
X66645600Y21900969D02*
X66645600Y20900969D01*
X66645600Y20900969D02*
X66145600Y20900969D01*
%TO.C,R107*%
X33308800Y10020000D02*
X33848800Y10020000D01*
X33308800Y8970000D02*
X33308800Y10020000D01*
X33848800Y10020000D02*
X33848800Y8970000D01*
X33848800Y8970000D02*
X33308800Y8970000D01*
%TO.C,R118*%
X38369801Y9976999D02*
X39419801Y9976999D01*
X38369801Y9436999D02*
X38369801Y9976999D01*
X39419801Y9976999D02*
X39419801Y9436999D01*
X39419801Y9436999D02*
X38369801Y9436999D01*
%TO.C,R117*%
X40267400Y9970198D02*
X41317400Y9970198D01*
X40267400Y9430198D02*
X40267400Y9970198D01*
X41317400Y9970198D02*
X41317400Y9430198D01*
X41317400Y9430198D02*
X40267400Y9430198D01*
%TO.C,C110*%
X50762000Y22391800D02*
X52362000Y22391800D01*
X50762000Y21591800D02*
X50762000Y22391800D01*
X52362000Y22391800D02*
X52362000Y21591800D01*
X52362000Y21591800D02*
X50762000Y21591800D01*
%TO.C,R102*%
X30981900Y10853800D02*
X31806900Y10853800D01*
X30981900Y9253800D02*
X30981900Y10853800D01*
X31806900Y10853800D02*
X31806900Y9253800D01*
X31806900Y9253800D02*
X30981900Y9253800D01*
%TO.C,R112*%
X43886599Y11898600D02*
X44936599Y11898600D01*
X43886599Y11358600D02*
X43886599Y11898600D01*
X44936599Y11898600D02*
X44936599Y11358600D01*
X44936599Y11358600D02*
X43886599Y11358600D01*
%TO.C,C106*%
X68842000Y5769933D02*
X69842000Y5769933D01*
X68842000Y5269933D02*
X68842000Y5769933D01*
X69842000Y5769933D02*
X69842000Y5269933D01*
X69842000Y5269933D02*
X68842000Y5269933D01*
%TO.C,K103*%
X20871400Y10544400D02*
X20871400Y7694400D01*
X16771400Y7694400D01*
X16771400Y11494400D01*
X19921400Y11494400D01*
X20871400Y10544400D01*
%TD*%
X42484199Y12126400D02*
X43494199Y10216400D01*
X42484199Y10216400D02*
X43494199Y12126400D01*
X42484199Y14006000D02*
X43494199Y12096000D01*
X42484199Y12096000D02*
X43494199Y14006000D01*
D17*
X-44Y2789400D02*
X2031Y22301200D01*
X2793956Y-4644D02*
G75*
G02*
X-44Y2789356I44J2794044D01*
G01*
X76555656Y22301257D02*
X76561144Y2789356D01*
X73761657Y25095257D02*
G75*
G02*
X76555657Y22301257I-57J-2794057D01*
G01*
X2794000Y25095200D02*
X73761600Y25095257D01*
X76555644Y2789356D02*
G75*
G02*
X73761644Y-4644I-2794044J44D01*
G01*
X0Y22301200D02*
G75*
G02*
X2794000Y25095200I2794000J0D01*
G01*
X73761644Y-4643D02*
X2794000Y-4644D01*
M02*
