%TF.GenerationSoftware,KiCad,Pcbnew,9.0.3*%
%TF.CreationDate,2025-09-10T23:17:51+02:00*%
%TF.ProjectId,esp-atx-power,6573702d-6174-4782-9d70-6f7765722e6b,2.0.0*%
%TF.SameCoordinates,PX6f6d640PY7445a00*%
%TF.FileFunction,Drillmap*%
%TF.FilePolarity,Positive*%
%FSLAX45Y45*%
G04 Gerber Fmt 4.5, Leading zero omitted, Abs format (unit mm)*
G04 Created by KiCad (PCBNEW 9.0.3) date 2025-09-10 23:17:51*
%MOMM*%
%LPD*%
G01*
G04 APERTURE LIST*
%ADD10C,0.200000*%
%ADD11C,0.100000*%
G04 APERTURE END LIST*
D10*
X-4Y278940D02*
X203Y2230120D01*
X279396Y-464D02*
G75*
G02*
X-4Y278936I4J279404D01*
G01*
X7655566Y2230126D02*
X7656114Y278936D01*
X7376166Y2509526D02*
G75*
G02*
X7655566Y2230126I-6J-279406D01*
G01*
X279400Y2509520D02*
X7376160Y2509526D01*
X7655564Y278936D02*
G75*
G02*
X7376164Y-464I-279404J4D01*
G01*
X0Y2230120D02*
G75*
G02*
X279400Y2509520I279400J0D01*
G01*
X7376164Y-464D02*
X279400Y-464D01*
D11*
X5898040Y1031500D02*
X5918040Y1011500D01*
X5918040Y1031500D02*
X5898040Y1011500D01*
X5898040Y921500D02*
X5918040Y901500D01*
X5918040Y921500D02*
X5898040Y901500D01*
X5953040Y1086500D02*
X5973040Y1066500D01*
X5973040Y1086500D02*
X5953040Y1066500D01*
X5953040Y976500D02*
X5973040Y956500D01*
X5973040Y976500D02*
X5953040Y956500D01*
X5953040Y866500D02*
X5973040Y846500D01*
X5973040Y866500D02*
X5953040Y846500D01*
X6008040Y1031500D02*
X6028040Y1011500D01*
X6028040Y1031500D02*
X6008040Y1011500D01*
X6008040Y921500D02*
X6028040Y901500D01*
X6028040Y921500D02*
X6008040Y901500D01*
X6063040Y1086500D02*
X6083040Y1066500D01*
X6083040Y1086500D02*
X6063040Y1066500D01*
X6063040Y976500D02*
X6083040Y956500D01*
X6083040Y976500D02*
X6063040Y956500D01*
X6063040Y866500D02*
X6083040Y846500D01*
X6083040Y866500D02*
X6063040Y846500D01*
X6118040Y1031500D02*
X6138040Y1011500D01*
X6138040Y1031500D02*
X6118040Y1011500D01*
X6118040Y921500D02*
X6138040Y901500D01*
X6138040Y921500D02*
X6118040Y901500D01*
X543320Y797100D02*
G75*
G02*
X513320Y797100I-15000J0D01*
G01*
X513320Y797100D02*
G75*
G02*
X543320Y797100I15000J0D01*
G01*
X543320Y593900D02*
G75*
G02*
X513320Y593900I-15000J0D01*
G01*
X513320Y593900D02*
G75*
G02*
X543320Y593900I15000J0D01*
G01*
X543320Y385620D02*
G75*
G02*
X513320Y385620I-15000J0D01*
G01*
X513320Y385620D02*
G75*
G02*
X543320Y385620I15000J0D01*
G01*
X543320Y162100D02*
G75*
G02*
X513320Y162100I-15000J0D01*
G01*
X513320Y162100D02*
G75*
G02*
X543320Y162100I15000J0D01*
G01*
X716040Y665020D02*
G75*
G02*
X686040Y665020I-15000J0D01*
G01*
X686040Y665020D02*
G75*
G02*
X716040Y665020I15000J0D01*
G01*
X721120Y873300D02*
G75*
G02*
X691120Y873300I-15000J0D01*
G01*
X691120Y873300D02*
G75*
G02*
X721120Y873300I15000J0D01*
G01*
X721120Y162560D02*
G75*
G02*
X691120Y162560I-15000J0D01*
G01*
X691120Y162560D02*
G75*
G02*
X721120Y162560I15000J0D01*
G01*
X721120Y60500D02*
G75*
G02*
X691120Y60500I-15000J0D01*
G01*
X691120Y60500D02*
G75*
G02*
X721120Y60500I15000J0D01*
G01*
X848120Y761540D02*
G75*
G02*
X818120Y761540I-15000J0D01*
G01*
X818120Y761540D02*
G75*
G02*
X848120Y761540I15000J0D01*
G01*
X858280Y386080D02*
G75*
G02*
X828280Y386080I-15000J0D01*
G01*
X828280Y386080D02*
G75*
G02*
X858280Y386080I15000J0D01*
G01*
X858280Y254000D02*
G75*
G02*
X828280Y254000I-15000J0D01*
G01*
X828280Y254000D02*
G75*
G02*
X858280Y254000I15000J0D01*
G01*
X975120Y873300D02*
G75*
G02*
X945120Y873300I-15000J0D01*
G01*
X945120Y873300D02*
G75*
G02*
X975120Y873300I15000J0D01*
G01*
X975120Y665020D02*
G75*
G02*
X945120Y665020I-15000J0D01*
G01*
X945120Y665020D02*
G75*
G02*
X975120Y665020I15000J0D01*
G01*
X975120Y60500D02*
G75*
G02*
X945120Y60500I-15000J0D01*
G01*
X945120Y60500D02*
G75*
G02*
X975120Y60500I15000J0D01*
G01*
X1102120Y761540D02*
G75*
G02*
X1072120Y761540I-15000J0D01*
G01*
X1072120Y761540D02*
G75*
G02*
X1102120Y761540I15000J0D01*
G01*
X1147840Y386080D02*
G75*
G02*
X1117840Y386080I-15000J0D01*
G01*
X1117840Y386080D02*
G75*
G02*
X1147840Y386080I15000J0D01*
G01*
X1229120Y873300D02*
G75*
G02*
X1199120Y873300I-15000J0D01*
G01*
X1199120Y873300D02*
G75*
G02*
X1229120Y873300I15000J0D01*
G01*
X1229120Y60500D02*
G75*
G02*
X1199120Y60500I-15000J0D01*
G01*
X1199120Y60500D02*
G75*
G02*
X1229120Y60500I15000J0D01*
G01*
X1356120Y761540D02*
G75*
G02*
X1326120Y761540I-15000J0D01*
G01*
X1326120Y761540D02*
G75*
G02*
X1356120Y761540I15000J0D01*
G01*
X1432320Y386080D02*
G75*
G02*
X1402320Y386080I-15000J0D01*
G01*
X1402320Y386080D02*
G75*
G02*
X1432320Y386080I15000J0D01*
G01*
X1437400Y254000D02*
G75*
G02*
X1407400Y254000I-15000J0D01*
G01*
X1407400Y254000D02*
G75*
G02*
X1437400Y254000I15000J0D01*
G01*
X1478040Y873300D02*
G75*
G02*
X1448040Y873300I-15000J0D01*
G01*
X1448040Y873300D02*
G75*
G02*
X1478040Y873300I15000J0D01*
G01*
X1483120Y60500D02*
G75*
G02*
X1453120Y60500I-15000J0D01*
G01*
X1453120Y60500D02*
G75*
G02*
X1483120Y60500I15000J0D01*
G01*
X1610120Y761540D02*
G75*
G02*
X1580120Y761540I-15000J0D01*
G01*
X1580120Y761540D02*
G75*
G02*
X1610120Y761540I15000J0D01*
G01*
X1721880Y386080D02*
G75*
G02*
X1691880Y386080I-15000J0D01*
G01*
X1691880Y386080D02*
G75*
G02*
X1721880Y386080I15000J0D01*
G01*
X1737120Y873300D02*
G75*
G02*
X1707120Y873300I-15000J0D01*
G01*
X1707120Y873300D02*
G75*
G02*
X1737120Y873300I15000J0D01*
G01*
X1737120Y60500D02*
G75*
G02*
X1707120Y60500I-15000J0D01*
G01*
X1707120Y60500D02*
G75*
G02*
X1737120Y60500I15000J0D01*
G01*
X1859040Y761540D02*
G75*
G02*
X1829040Y761540I-15000J0D01*
G01*
X1829040Y761540D02*
G75*
G02*
X1859040Y761540I15000J0D01*
G01*
X1991120Y873300D02*
G75*
G02*
X1961120Y873300I-15000J0D01*
G01*
X1961120Y873300D02*
G75*
G02*
X1991120Y873300I15000J0D01*
G01*
X1991120Y60500D02*
G75*
G02*
X1961120Y60500I-15000J0D01*
G01*
X1961120Y60500D02*
G75*
G02*
X1991120Y60500I15000J0D01*
G01*
X2006360Y386080D02*
G75*
G02*
X1976360Y386080I-15000J0D01*
G01*
X1976360Y386080D02*
G75*
G02*
X2006360Y386080I15000J0D01*
G01*
X2006360Y264160D02*
G75*
G02*
X1976360Y264160I-15000J0D01*
G01*
X1976360Y264160D02*
G75*
G02*
X2006360Y264160I15000J0D01*
G01*
X2113040Y761540D02*
G75*
G02*
X2083040Y761540I-15000J0D01*
G01*
X2083040Y761540D02*
G75*
G02*
X2113040Y761540I15000J0D01*
G01*
X2245120Y873300D02*
G75*
G02*
X2215120Y873300I-15000J0D01*
G01*
X2215120Y873300D02*
G75*
G02*
X2245120Y873300I15000J0D01*
G01*
X2245120Y60500D02*
G75*
G02*
X2215120Y60500I-15000J0D01*
G01*
X2215120Y60500D02*
G75*
G02*
X2245120Y60500I15000J0D01*
G01*
X2295920Y386080D02*
G75*
G02*
X2265920Y386080I-15000J0D01*
G01*
X2265920Y386080D02*
G75*
G02*
X2295920Y386080I15000J0D01*
G01*
X2367040Y763119D02*
G75*
G02*
X2337040Y763119I-15000J0D01*
G01*
X2337040Y763119D02*
G75*
G02*
X2367040Y763119I15000J0D01*
G01*
X2499120Y873300D02*
G75*
G02*
X2469120Y873300I-15000J0D01*
G01*
X2469120Y873300D02*
G75*
G02*
X2499120Y873300I15000J0D01*
G01*
X2499120Y60500D02*
G75*
G02*
X2469120Y60500I-15000J0D01*
G01*
X2469120Y60500D02*
G75*
G02*
X2499120Y60500I15000J0D01*
G01*
X2580400Y274320D02*
G75*
G02*
X2550400Y274320I-15000J0D01*
G01*
X2550400Y274320D02*
G75*
G02*
X2580400Y274320I15000J0D01*
G01*
X2585480Y386080D02*
G75*
G02*
X2555480Y386080I-15000J0D01*
G01*
X2555480Y386080D02*
G75*
G02*
X2585480Y386080I15000J0D01*
G01*
X2626120Y761540D02*
G75*
G02*
X2596120Y761540I-15000J0D01*
G01*
X2596120Y761540D02*
G75*
G02*
X2626120Y761540I15000J0D01*
G01*
X2682000Y1701340D02*
G75*
G02*
X2652000Y1701340I-15000J0D01*
G01*
X2652000Y1701340D02*
G75*
G02*
X2682000Y1701340I15000J0D01*
G01*
X2687080Y1940100D02*
G75*
G02*
X2657080Y1940100I-15000J0D01*
G01*
X2657080Y1940100D02*
G75*
G02*
X2687080Y1940100I15000J0D01*
G01*
X2692160Y2351580D02*
G75*
G02*
X2662160Y2351580I-15000J0D01*
G01*
X2662160Y2351580D02*
G75*
G02*
X2692160Y2351580I15000J0D01*
G01*
X2692160Y2209340D02*
G75*
G02*
X2662160Y2209340I-15000J0D01*
G01*
X2662160Y2209340D02*
G75*
G02*
X2692160Y2209340I15000J0D01*
G01*
X2753120Y2448100D02*
G75*
G02*
X2723120Y2448100I-15000J0D01*
G01*
X2723120Y2448100D02*
G75*
G02*
X2753120Y2448100I15000J0D01*
G01*
X2753120Y873300D02*
G75*
G02*
X2723120Y873300I-15000J0D01*
G01*
X2723120Y873300D02*
G75*
G02*
X2753120Y873300I15000J0D01*
G01*
X2753120Y60500D02*
G75*
G02*
X2723120Y60500I-15000J0D01*
G01*
X2723120Y60500D02*
G75*
G02*
X2753120Y60500I15000J0D01*
G01*
X2864880Y594360D02*
G75*
G02*
X2834880Y594360I-15000J0D01*
G01*
X2834880Y594360D02*
G75*
G02*
X2864880Y594360I15000J0D01*
G01*
X2890280Y1701340D02*
G75*
G02*
X2860280Y1701340I-15000J0D01*
G01*
X2860280Y1701340D02*
G75*
G02*
X2890280Y1701340I15000J0D01*
G01*
X2890280Y1482900D02*
G75*
G02*
X2860280Y1482900I-15000J0D01*
G01*
X2860280Y1482900D02*
G75*
G02*
X2890280Y1482900I15000J0D01*
G01*
X2890280Y1228900D02*
G75*
G02*
X2860280Y1228900I-15000J0D01*
G01*
X2860280Y1228900D02*
G75*
G02*
X2890280Y1228900I15000J0D01*
G01*
X2890280Y974900D02*
G75*
G02*
X2860280Y974900I-15000J0D01*
G01*
X2860280Y974900D02*
G75*
G02*
X2890280Y974900I15000J0D01*
G01*
X2895360Y2209340D02*
G75*
G02*
X2865360Y2209340I-15000J0D01*
G01*
X2865360Y2209340D02*
G75*
G02*
X2895360Y2209340I15000J0D01*
G01*
X2895360Y1940100D02*
G75*
G02*
X2865360Y1940100I-15000J0D01*
G01*
X2865360Y1940100D02*
G75*
G02*
X2895360Y1940100I15000J0D01*
G01*
X2895360Y320040D02*
G75*
G02*
X2865360Y320040I-15000J0D01*
G01*
X2865360Y320040D02*
G75*
G02*
X2895360Y320040I15000J0D01*
G01*
X2948440Y558340D02*
G75*
G02*
X2918440Y558340I-15000J0D01*
G01*
X2918440Y558340D02*
G75*
G02*
X2948440Y558340I15000J0D01*
G01*
X2966480Y1589580D02*
G75*
G02*
X2936480Y1589580I-15000J0D01*
G01*
X2936480Y1589580D02*
G75*
G02*
X2966480Y1589580I15000J0D01*
G01*
X3007120Y2448100D02*
G75*
G02*
X2977120Y2448100I-15000J0D01*
G01*
X2977120Y2448100D02*
G75*
G02*
X3007120Y2448100I15000J0D01*
G01*
X3007120Y1355900D02*
G75*
G02*
X2977120Y1355900I-15000J0D01*
G01*
X2977120Y1355900D02*
G75*
G02*
X3007120Y1355900I15000J0D01*
G01*
X3007120Y1228900D02*
G75*
G02*
X2977120Y1228900I-15000J0D01*
G01*
X2977120Y1228900D02*
G75*
G02*
X3007120Y1228900I15000J0D01*
G01*
X3007120Y60500D02*
G75*
G02*
X2977120Y60500I-15000J0D01*
G01*
X2977120Y60500D02*
G75*
G02*
X3007120Y60500I15000J0D01*
G01*
X3027440Y457200D02*
G75*
G02*
X2997440Y457200I-15000J0D01*
G01*
X2997440Y457200D02*
G75*
G02*
X3027440Y457200I15000J0D01*
G01*
X3073160Y2209340D02*
G75*
G02*
X3043160Y2209340I-15000J0D01*
G01*
X3043160Y2209340D02*
G75*
G02*
X3073160Y2209340I15000J0D01*
G01*
X3073160Y1940100D02*
G75*
G02*
X3043160Y1940100I-15000J0D01*
G01*
X3043160Y1940100D02*
G75*
G02*
X3073160Y1940100I15000J0D01*
G01*
X3149360Y457200D02*
G75*
G02*
X3119360Y457200I-15000J0D01*
G01*
X3119360Y457200D02*
G75*
G02*
X3149360Y457200I15000J0D01*
G01*
X3154440Y1228900D02*
G75*
G02*
X3124440Y1228900I-15000J0D01*
G01*
X3124440Y1228900D02*
G75*
G02*
X3154440Y1228900I15000J0D01*
G01*
X3154440Y60500D02*
G75*
G02*
X3124440Y60500I-15000J0D01*
G01*
X3124440Y60500D02*
G75*
G02*
X3154440Y60500I15000J0D01*
G01*
X3215400Y411480D02*
G75*
G02*
X3185400Y411480I-15000J0D01*
G01*
X3185400Y411480D02*
G75*
G02*
X3215400Y411480I15000J0D01*
G01*
X3261120Y2448100D02*
G75*
G02*
X3231120Y2448100I-15000J0D01*
G01*
X3231120Y2448100D02*
G75*
G02*
X3261120Y2448100I15000J0D01*
G01*
X3261120Y2285540D02*
G75*
G02*
X3231120Y2285540I-15000J0D01*
G01*
X3231120Y2285540D02*
G75*
G02*
X3261120Y2285540I15000J0D01*
G01*
X3261120Y2067560D02*
G75*
G02*
X3231120Y2067560I-15000J0D01*
G01*
X3231120Y2067560D02*
G75*
G02*
X3261120Y2067560I15000J0D01*
G01*
X3261120Y1833880D02*
G75*
G02*
X3231120Y1833880I-15000J0D01*
G01*
X3231120Y1833880D02*
G75*
G02*
X3261120Y1833880I15000J0D01*
G01*
X3261120Y1635760D02*
G75*
G02*
X3231120Y1635760I-15000J0D01*
G01*
X3231120Y1635760D02*
G75*
G02*
X3261120Y1635760I15000J0D01*
G01*
X3281440Y457200D02*
G75*
G02*
X3251440Y457200I-15000J0D01*
G01*
X3251440Y457200D02*
G75*
G02*
X3281440Y457200I15000J0D01*
G01*
X3281440Y60500D02*
G75*
G02*
X3251440Y60500I-15000J0D01*
G01*
X3251440Y60500D02*
G75*
G02*
X3281440Y60500I15000J0D01*
G01*
X3317000Y1102360D02*
G75*
G02*
X3287000Y1102360I-15000J0D01*
G01*
X3287000Y1102360D02*
G75*
G02*
X3317000Y1102360I15000J0D01*
G01*
X3322080Y1341120D02*
G75*
G02*
X3292080Y1341120I-15000J0D01*
G01*
X3292080Y1341120D02*
G75*
G02*
X3322080Y1341120I15000J0D01*
G01*
X3393200Y807260D02*
G75*
G02*
X3363200Y807260I-15000J0D01*
G01*
X3363200Y807260D02*
G75*
G02*
X3393200Y807260I15000J0D01*
G01*
X3408440Y457200D02*
G75*
G02*
X3378440Y457200I-15000J0D01*
G01*
X3378440Y457200D02*
G75*
G02*
X3408440Y457200I15000J0D01*
G01*
X3418600Y1482900D02*
G75*
G02*
X3388600Y1482900I-15000J0D01*
G01*
X3388600Y1482900D02*
G75*
G02*
X3418600Y1482900I15000J0D01*
G01*
X3438920Y1980740D02*
G75*
G02*
X3408920Y1980740I-15000J0D01*
G01*
X3408920Y1980740D02*
G75*
G02*
X3438920Y1980740I15000J0D01*
G01*
X3459240Y1203960D02*
G75*
G02*
X3429240Y1203960I-15000J0D01*
G01*
X3429240Y1203960D02*
G75*
G02*
X3459240Y1203960I15000J0D01*
G01*
X3469400Y411480D02*
G75*
G02*
X3439400Y411480I-15000J0D01*
G01*
X3439400Y411480D02*
G75*
G02*
X3469400Y411480I15000J0D01*
G01*
X3484640Y939800D02*
G75*
G02*
X3454640Y939800I-15000J0D01*
G01*
X3454640Y939800D02*
G75*
G02*
X3484640Y939800I15000J0D01*
G01*
X3520200Y2448100D02*
G75*
G02*
X3490200Y2448100I-15000J0D01*
G01*
X3490200Y2448100D02*
G75*
G02*
X3520200Y2448100I15000J0D01*
G01*
X3535440Y457200D02*
G75*
G02*
X3505440Y457200I-15000J0D01*
G01*
X3505440Y457200D02*
G75*
G02*
X3535440Y457200I15000J0D01*
G01*
X3535440Y60500D02*
G75*
G02*
X3505440Y60500I-15000J0D01*
G01*
X3505440Y60500D02*
G75*
G02*
X3535440Y60500I15000J0D01*
G01*
X3560840Y1097280D02*
G75*
G02*
X3530840Y1097280I-15000J0D01*
G01*
X3530840Y1097280D02*
G75*
G02*
X3560840Y1097280I15000J0D01*
G01*
X3560840Y817880D02*
G75*
G02*
X3530840Y817880I-15000J0D01*
G01*
X3530840Y817880D02*
G75*
G02*
X3560840Y817880I15000J0D01*
G01*
X3647200Y1421940D02*
G75*
G02*
X3617200Y1421940I-15000J0D01*
G01*
X3617200Y1421940D02*
G75*
G02*
X3647200Y1421940I15000J0D01*
G01*
X3662440Y1924860D02*
G75*
G02*
X3632440Y1924860I-15000J0D01*
G01*
X3632440Y1924860D02*
G75*
G02*
X3662440Y1924860I15000J0D01*
G01*
X3682760Y1219200D02*
G75*
G02*
X3652760Y1219200I-15000J0D01*
G01*
X3652760Y1219200D02*
G75*
G02*
X3682760Y1219200I15000J0D01*
G01*
X3687840Y980440D02*
G75*
G02*
X3657840Y980440I-15000J0D01*
G01*
X3657840Y980440D02*
G75*
G02*
X3687840Y980440I15000J0D01*
G01*
X3733560Y1524000D02*
G75*
G02*
X3703560Y1524000I-15000J0D01*
G01*
X3703560Y1524000D02*
G75*
G02*
X3733560Y1524000I15000J0D01*
G01*
X3764040Y645160D02*
G75*
G02*
X3734040Y645160I-15000J0D01*
G01*
X3734040Y645160D02*
G75*
G02*
X3764040Y645160I15000J0D01*
G01*
X3764040Y416100D02*
G75*
G02*
X3734040Y416100I-15000J0D01*
G01*
X3734040Y416100D02*
G75*
G02*
X3764040Y416100I15000J0D01*
G01*
X3769120Y2448100D02*
G75*
G02*
X3739120Y2448100I-15000J0D01*
G01*
X3739120Y2448100D02*
G75*
G02*
X3769120Y2448100I15000J0D01*
G01*
X3769120Y2285540D02*
G75*
G02*
X3739120Y2285540I-15000J0D01*
G01*
X3739120Y2285540D02*
G75*
G02*
X3769120Y2285540I15000J0D01*
G01*
X3769120Y2082340D02*
G75*
G02*
X3739120Y2082340I-15000J0D01*
G01*
X3739120Y2082340D02*
G75*
G02*
X3769120Y2082340I15000J0D01*
G01*
X3769120Y60500D02*
G75*
G02*
X3739120Y60500I-15000J0D01*
G01*
X3739120Y60500D02*
G75*
G02*
X3769120Y60500I15000J0D01*
G01*
X3809760Y1203500D02*
G75*
G02*
X3779760Y1203500I-15000J0D01*
G01*
X3779760Y1203500D02*
G75*
G02*
X3809760Y1203500I15000J0D01*
G01*
X3855480Y1524000D02*
G75*
G02*
X3825480Y1524000I-15000J0D01*
G01*
X3825480Y1524000D02*
G75*
G02*
X3855480Y1524000I15000J0D01*
G01*
X3870720Y1325420D02*
G75*
G02*
X3840720Y1325420I-15000J0D01*
G01*
X3840720Y1325420D02*
G75*
G02*
X3870720Y1325420I15000J0D01*
G01*
X3885960Y766620D02*
G75*
G02*
X3855960Y766620I-15000J0D01*
G01*
X3855960Y766620D02*
G75*
G02*
X3885960Y766620I15000J0D01*
G01*
X3891040Y1924860D02*
G75*
G02*
X3861040Y1924860I-15000J0D01*
G01*
X3861040Y1924860D02*
G75*
G02*
X3891040Y1924860I15000J0D01*
G01*
X3982480Y1529080D02*
G75*
G02*
X3952480Y1529080I-15000J0D01*
G01*
X3952480Y1529080D02*
G75*
G02*
X3982480Y1529080I15000J0D01*
G01*
X3992640Y888540D02*
G75*
G02*
X3962640Y888540I-15000J0D01*
G01*
X3962640Y888540D02*
G75*
G02*
X3992640Y888540I15000J0D01*
G01*
X4023120Y2448100D02*
G75*
G02*
X3993120Y2448100I-15000J0D01*
G01*
X3993120Y2448100D02*
G75*
G02*
X4023120Y2448100I15000J0D01*
G01*
X4023120Y2285540D02*
G75*
G02*
X3993120Y2285540I-15000J0D01*
G01*
X3993120Y2285540D02*
G75*
G02*
X4023120Y2285540I15000J0D01*
G01*
X4023120Y2082340D02*
G75*
G02*
X3993120Y2082340I-15000J0D01*
G01*
X3993120Y2082340D02*
G75*
G02*
X4023120Y2082340I15000J0D01*
G01*
X4023120Y60500D02*
G75*
G02*
X3993120Y60500I-15000J0D01*
G01*
X3993120Y60500D02*
G75*
G02*
X4023120Y60500I15000J0D01*
G01*
X4028200Y416100D02*
G75*
G02*
X3998200Y416100I-15000J0D01*
G01*
X3998200Y416100D02*
G75*
G02*
X4028200Y416100I15000J0D01*
G01*
X4104400Y1361440D02*
G75*
G02*
X4074400Y1361440I-15000J0D01*
G01*
X4074400Y1361440D02*
G75*
G02*
X4104400Y1361440I15000J0D01*
G01*
X4109480Y1498600D02*
G75*
G02*
X4079480Y1498600I-15000J0D01*
G01*
X4079480Y1498600D02*
G75*
G02*
X4109480Y1498600I15000J0D01*
G01*
X4119640Y1914700D02*
G75*
G02*
X4089640Y1914700I-15000J0D01*
G01*
X4089640Y1914700D02*
G75*
G02*
X4119640Y1914700I15000J0D01*
G01*
X4216160Y1356360D02*
G75*
G02*
X4186160Y1356360I-15000J0D01*
G01*
X4186160Y1356360D02*
G75*
G02*
X4216160Y1356360I15000J0D01*
G01*
X4226320Y1071880D02*
G75*
G02*
X4196320Y1071880I-15000J0D01*
G01*
X4196320Y1071880D02*
G75*
G02*
X4226320Y1071880I15000J0D01*
G01*
X4272040Y2082340D02*
G75*
G02*
X4242040Y2082340I-15000J0D01*
G01*
X4242040Y2082340D02*
G75*
G02*
X4272040Y2082340I15000J0D01*
G01*
X4277120Y2285540D02*
G75*
G02*
X4247120Y2285540I-15000J0D01*
G01*
X4247120Y2285540D02*
G75*
G02*
X4277120Y2285540I15000J0D01*
G01*
X4277120Y60500D02*
G75*
G02*
X4247120Y60500I-15000J0D01*
G01*
X4247120Y60500D02*
G75*
G02*
X4277120Y60500I15000J0D01*
G01*
X4277121Y2446712D02*
G75*
G02*
X4247121Y2446712I-15000J0D01*
G01*
X4247121Y2446712D02*
G75*
G02*
X4277121Y2446712I15000J0D01*
G01*
X4292360Y1615440D02*
G75*
G02*
X4262360Y1615440I-15000J0D01*
G01*
X4262360Y1615440D02*
G75*
G02*
X4292360Y1615440I15000J0D01*
G01*
X4297440Y1914700D02*
G75*
G02*
X4267440Y1914700I-15000J0D01*
G01*
X4267440Y1914700D02*
G75*
G02*
X4297440Y1914700I15000J0D01*
G01*
X4297440Y959660D02*
G75*
G02*
X4267440Y959660I-15000J0D01*
G01*
X4267440Y959660D02*
G75*
G02*
X4297440Y959660I15000J0D01*
G01*
X4348240Y1544320D02*
G75*
G02*
X4318240Y1544320I-15000J0D01*
G01*
X4318240Y1544320D02*
G75*
G02*
X4348240Y1544320I15000J0D01*
G01*
X4353320Y873300D02*
G75*
G02*
X4323320Y873300I-15000J0D01*
G01*
X4323320Y873300D02*
G75*
G02*
X4353320Y873300I15000J0D01*
G01*
X4358400Y654860D02*
G75*
G02*
X4328400Y654860I-15000J0D01*
G01*
X4328400Y654860D02*
G75*
G02*
X4358400Y654860I15000J0D01*
G01*
X4404120Y1442260D02*
G75*
G02*
X4374120Y1442260I-15000J0D01*
G01*
X4374120Y1442260D02*
G75*
G02*
X4404120Y1442260I15000J0D01*
G01*
X4424440Y1356360D02*
G75*
G02*
X4394440Y1356360I-15000J0D01*
G01*
X4394440Y1356360D02*
G75*
G02*
X4424440Y1356360I15000J0D01*
G01*
X4439680Y558340D02*
G75*
G02*
X4409680Y558340I-15000J0D01*
G01*
X4409680Y558340D02*
G75*
G02*
X4439680Y558340I15000J0D01*
G01*
X4449840Y1071880D02*
G75*
G02*
X4419840Y1071880I-15000J0D01*
G01*
X4419840Y1071880D02*
G75*
G02*
X4449840Y1071880I15000J0D01*
G01*
X4505720Y1543860D02*
G75*
G02*
X4475720Y1543860I-15000J0D01*
G01*
X4475720Y1543860D02*
G75*
G02*
X4505720Y1543860I15000J0D01*
G01*
X4510800Y1899460D02*
G75*
G02*
X4480800Y1899460I-15000J0D01*
G01*
X4480800Y1899460D02*
G75*
G02*
X4510800Y1899460I15000J0D01*
G01*
X4531120Y416100D02*
G75*
G02*
X4501120Y416100I-15000J0D01*
G01*
X4501120Y416100D02*
G75*
G02*
X4531120Y416100I15000J0D01*
G01*
X4531120Y60500D02*
G75*
G02*
X4501120Y60500I-15000J0D01*
G01*
X4501120Y60500D02*
G75*
G02*
X4531120Y60500I15000J0D01*
G01*
X4531121Y2446732D02*
G75*
G02*
X4501121Y2446732I-15000J0D01*
G01*
X4501121Y2446732D02*
G75*
G02*
X4531121Y2446732I15000J0D01*
G01*
X4536200Y873300D02*
G75*
G02*
X4506200Y873300I-15000J0D01*
G01*
X4506200Y873300D02*
G75*
G02*
X4536200Y873300I15000J0D01*
G01*
X4556520Y1366060D02*
G75*
G02*
X4526520Y1366060I-15000J0D01*
G01*
X4526520Y1366060D02*
G75*
G02*
X4556520Y1366060I15000J0D01*
G01*
X4562240Y1036320D02*
G75*
G02*
X4532240Y1036320I-15000J0D01*
G01*
X4532240Y1036320D02*
G75*
G02*
X4562240Y1036320I15000J0D01*
G01*
X4622560Y2321100D02*
G75*
G02*
X4592560Y2321100I-15000J0D01*
G01*
X4592560Y2321100D02*
G75*
G02*
X4622560Y2321100I15000J0D01*
G01*
X4642240Y1036320D02*
G75*
G02*
X4612240Y1036320I-15000J0D01*
G01*
X4612240Y1036320D02*
G75*
G02*
X4642240Y1036320I15000J0D01*
G01*
X4647960Y1493060D02*
G75*
G02*
X4617960Y1493060I-15000J0D01*
G01*
X4617960Y1493060D02*
G75*
G02*
X4647960Y1493060I15000J0D01*
G01*
X4653040Y1899460D02*
G75*
G02*
X4623040Y1899460I-15000J0D01*
G01*
X4623040Y1899460D02*
G75*
G02*
X4653040Y1899460I15000J0D01*
G01*
X4653040Y1747060D02*
G75*
G02*
X4623040Y1747060I-15000J0D01*
G01*
X4623040Y1747060D02*
G75*
G02*
X4653040Y1747060I15000J0D01*
G01*
X4663200Y426720D02*
G75*
G02*
X4633200Y426720I-15000J0D01*
G01*
X4633200Y426720D02*
G75*
G02*
X4663200Y426720I15000J0D01*
G01*
X4719080Y1620060D02*
G75*
G02*
X4689080Y1620060I-15000J0D01*
G01*
X4689080Y1620060D02*
G75*
G02*
X4719080Y1620060I15000J0D01*
G01*
X4719080Y1112520D02*
G75*
G02*
X4689080Y1112520I-15000J0D01*
G01*
X4689080Y1112520D02*
G75*
G02*
X4719080Y1112520I15000J0D01*
G01*
X4754640Y924100D02*
G75*
G02*
X4724640Y924100I-15000J0D01*
G01*
X4724640Y924100D02*
G75*
G02*
X4754640Y924100I15000J0D01*
G01*
X4764800Y375920D02*
G75*
G02*
X4734800Y375920I-15000J0D01*
G01*
X4734800Y375920D02*
G75*
G02*
X4764800Y375920I15000J0D01*
G01*
X4785120Y60500D02*
G75*
G02*
X4755120Y60500I-15000J0D01*
G01*
X4755120Y60500D02*
G75*
G02*
X4785120Y60500I15000J0D01*
G01*
X4785121Y2446752D02*
G75*
G02*
X4755121Y2446752I-15000J0D01*
G01*
X4755121Y2446752D02*
G75*
G02*
X4785121Y2446752I15000J0D01*
G01*
X4790200Y1747060D02*
G75*
G02*
X4760200Y1747060I-15000J0D01*
G01*
X4760200Y1747060D02*
G75*
G02*
X4790200Y1747060I15000J0D01*
G01*
X4790200Y1493060D02*
G75*
G02*
X4760200Y1493060I-15000J0D01*
G01*
X4760200Y1493060D02*
G75*
G02*
X4790200Y1493060I15000J0D01*
G01*
X4886720Y1107440D02*
G75*
G02*
X4856720Y1107440I-15000J0D01*
G01*
X4856720Y1107440D02*
G75*
G02*
X4886720Y1107440I15000J0D01*
G01*
X4901960Y309880D02*
G75*
G02*
X4871960Y309880I-15000J0D01*
G01*
X4871960Y309880D02*
G75*
G02*
X4901960Y309880I15000J0D01*
G01*
X5003560Y2087880D02*
G75*
G02*
X4973560Y2087880I-15000J0D01*
G01*
X4973560Y2087880D02*
G75*
G02*
X5003560Y2087880I15000J0D01*
G01*
X5008640Y2184400D02*
G75*
G02*
X4978640Y2184400I-15000J0D01*
G01*
X4978640Y2184400D02*
G75*
G02*
X5008640Y2184400I15000J0D01*
G01*
X5039120Y924100D02*
G75*
G02*
X5009120Y924100I-15000J0D01*
G01*
X5009120Y924100D02*
G75*
G02*
X5039120Y924100I15000J0D01*
G01*
X5039120Y60500D02*
G75*
G02*
X5009120Y60500I-15000J0D01*
G01*
X5009120Y60500D02*
G75*
G02*
X5039120Y60500I15000J0D01*
G01*
X5039120Y2446771D02*
G75*
G02*
X5009120Y2446771I-15000J0D01*
G01*
X5009120Y2446771D02*
G75*
G02*
X5039120Y2446771I15000J0D01*
G01*
X5064520Y563420D02*
G75*
G02*
X5034520Y563420I-15000J0D01*
G01*
X5034520Y563420D02*
G75*
G02*
X5064520Y563420I15000J0D01*
G01*
X5095000Y2087420D02*
G75*
G02*
X5065000Y2087420I-15000J0D01*
G01*
X5065000Y2087420D02*
G75*
G02*
X5095000Y2087420I15000J0D01*
G01*
X5110240Y1747060D02*
G75*
G02*
X5080240Y1747060I-15000J0D01*
G01*
X5080240Y1747060D02*
G75*
G02*
X5110240Y1747060I15000J0D01*
G01*
X5110240Y1493060D02*
G75*
G02*
X5080240Y1493060I-15000J0D01*
G01*
X5080240Y1493060D02*
G75*
G02*
X5110240Y1493060I15000J0D01*
G01*
X5150880Y766620D02*
G75*
G02*
X5120880Y766620I-15000J0D01*
G01*
X5120880Y766620D02*
G75*
G02*
X5150880Y766620I15000J0D01*
G01*
X5166120Y1614980D02*
G75*
G02*
X5136120Y1614980I-15000J0D01*
G01*
X5136120Y1614980D02*
G75*
G02*
X5166120Y1614980I15000J0D01*
G01*
X5237240Y1747060D02*
G75*
G02*
X5207240Y1747060I-15000J0D01*
G01*
X5207240Y1747060D02*
G75*
G02*
X5237240Y1747060I15000J0D01*
G01*
X5237240Y1493060D02*
G75*
G02*
X5207240Y1493060I-15000J0D01*
G01*
X5207240Y1493060D02*
G75*
G02*
X5237240Y1493060I15000J0D01*
G01*
X5242320Y1990900D02*
G75*
G02*
X5212320Y1990900I-15000J0D01*
G01*
X5212320Y1990900D02*
G75*
G02*
X5242320Y1990900I15000J0D01*
G01*
X5247400Y2321100D02*
G75*
G02*
X5217400Y2321100I-15000J0D01*
G01*
X5217400Y2321100D02*
G75*
G02*
X5247400Y2321100I15000J0D01*
G01*
X5293120Y2448100D02*
G75*
G02*
X5263120Y2448100I-15000J0D01*
G01*
X5263120Y2448100D02*
G75*
G02*
X5293120Y2448100I15000J0D01*
G01*
X5293120Y60500D02*
G75*
G02*
X5263120Y60500I-15000J0D01*
G01*
X5263120Y60500D02*
G75*
G02*
X5293120Y60500I15000J0D01*
G01*
X5328680Y1935020D02*
G75*
G02*
X5298680Y1935020I-15000J0D01*
G01*
X5298680Y1935020D02*
G75*
G02*
X5328680Y1935020I15000J0D01*
G01*
X5333760Y309880D02*
G75*
G02*
X5303760Y309880I-15000J0D01*
G01*
X5303760Y309880D02*
G75*
G02*
X5333760Y309880I15000J0D01*
G01*
X5338840Y1076500D02*
G75*
G02*
X5308840Y1076500I-15000J0D01*
G01*
X5308840Y1076500D02*
G75*
G02*
X5338840Y1076500I15000J0D01*
G01*
X5338840Y766620D02*
G75*
G02*
X5308840Y766620I-15000J0D01*
G01*
X5308840Y766620D02*
G75*
G02*
X5338840Y766620I15000J0D01*
G01*
X5338840Y558340D02*
G75*
G02*
X5308840Y558340I-15000J0D01*
G01*
X5308840Y558340D02*
G75*
G02*
X5338840Y558340I15000J0D01*
G01*
X5364240Y2265680D02*
G75*
G02*
X5334240Y2265680I-15000J0D01*
G01*
X5334240Y2265680D02*
G75*
G02*
X5364240Y2265680I15000J0D01*
G01*
X5364240Y1376680D02*
G75*
G02*
X5334240Y1376680I-15000J0D01*
G01*
X5334240Y1376680D02*
G75*
G02*
X5364240Y1376680I15000J0D01*
G01*
X5369320Y1625140D02*
G75*
G02*
X5339320Y1625140I-15000J0D01*
G01*
X5339320Y1625140D02*
G75*
G02*
X5369320Y1625140I15000J0D01*
G01*
X5450600Y1782620D02*
G75*
G02*
X5420600Y1782620I-15000J0D01*
G01*
X5420600Y1782620D02*
G75*
G02*
X5450600Y1782620I15000J0D01*
G01*
X5455680Y314960D02*
G75*
G02*
X5425680Y314960I-15000J0D01*
G01*
X5425680Y314960D02*
G75*
G02*
X5455680Y314960I15000J0D01*
G01*
X5496320Y2092960D02*
G75*
G02*
X5466320Y2092960I-15000J0D01*
G01*
X5466320Y2092960D02*
G75*
G02*
X5496320Y2092960I15000J0D01*
G01*
X5496320Y1076500D02*
G75*
G02*
X5466320Y1076500I-15000J0D01*
G01*
X5466320Y1076500D02*
G75*
G02*
X5496320Y1076500I15000J0D01*
G01*
X5501400Y1508300D02*
G75*
G02*
X5471400Y1508300I-15000J0D01*
G01*
X5471400Y1508300D02*
G75*
G02*
X5501400Y1508300I15000J0D01*
G01*
X5506480Y558340D02*
G75*
G02*
X5476480Y558340I-15000J0D01*
G01*
X5476480Y558340D02*
G75*
G02*
X5506480Y558340I15000J0D01*
G01*
X5511560Y766620D02*
G75*
G02*
X5481560Y766620I-15000J0D01*
G01*
X5481560Y766620D02*
G75*
G02*
X5511560Y766620I15000J0D01*
G01*
X5547120Y2448100D02*
G75*
G02*
X5517120Y2448100I-15000J0D01*
G01*
X5517120Y2448100D02*
G75*
G02*
X5547120Y2448100I15000J0D01*
G01*
X5552200Y60500D02*
G75*
G02*
X5522200Y60500I-15000J0D01*
G01*
X5522200Y60500D02*
G75*
G02*
X5552200Y60500I15000J0D01*
G01*
X5603000Y314960D02*
G75*
G02*
X5573000Y314960I-15000J0D01*
G01*
X5573000Y314960D02*
G75*
G02*
X5603000Y314960I15000J0D01*
G01*
X5608080Y1183180D02*
G75*
G02*
X5578080Y1183180I-15000J0D01*
G01*
X5578080Y1183180D02*
G75*
G02*
X5608080Y1183180I15000J0D01*
G01*
X5618240Y1625140D02*
G75*
G02*
X5588240Y1625140I-15000J0D01*
G01*
X5588240Y1625140D02*
G75*
G02*
X5618240Y1625140I15000J0D01*
G01*
X5618240Y533400D02*
G75*
G02*
X5588240Y533400I-15000J0D01*
G01*
X5588240Y533400D02*
G75*
G02*
X5618240Y533400I15000J0D01*
G01*
X5684280Y766620D02*
G75*
G02*
X5654280Y766620I-15000J0D01*
G01*
X5654280Y766620D02*
G75*
G02*
X5684280Y766620I15000J0D01*
G01*
X5684280Y314960D02*
G75*
G02*
X5654280Y314960I-15000J0D01*
G01*
X5654280Y314960D02*
G75*
G02*
X5684280Y314960I15000J0D01*
G01*
X5714760Y1289860D02*
G75*
G02*
X5684760Y1289860I-15000J0D01*
G01*
X5684760Y1289860D02*
G75*
G02*
X5714760Y1289860I15000J0D01*
G01*
X5719840Y2062480D02*
G75*
G02*
X5689840Y2062480I-15000J0D01*
G01*
X5689840Y2062480D02*
G75*
G02*
X5719840Y2062480I15000J0D01*
G01*
X5730000Y431800D02*
G75*
G02*
X5700000Y431800I-15000J0D01*
G01*
X5700000Y431800D02*
G75*
G02*
X5730000Y431800I15000J0D01*
G01*
X5735080Y1741980D02*
G75*
G02*
X5705080Y1741980I-15000J0D01*
G01*
X5705080Y1741980D02*
G75*
G02*
X5735080Y1741980I15000J0D01*
G01*
X5785880Y965200D02*
G75*
G02*
X5755880Y965200I-15000J0D01*
G01*
X5755880Y965200D02*
G75*
G02*
X5785880Y965200I15000J0D01*
G01*
X5790960Y1203960D02*
G75*
G02*
X5760960Y1203960I-15000J0D01*
G01*
X5760960Y1203960D02*
G75*
G02*
X5790960Y1203960I15000J0D01*
G01*
X5790960Y675180D02*
G75*
G02*
X5760960Y675180I-15000J0D01*
G01*
X5760960Y675180D02*
G75*
G02*
X5790960Y675180I15000J0D01*
G01*
X5801120Y2448100D02*
G75*
G02*
X5771120Y2448100I-15000J0D01*
G01*
X5771120Y2448100D02*
G75*
G02*
X5801120Y2448100I15000J0D01*
G01*
X5801120Y60500D02*
G75*
G02*
X5771120Y60500I-15000J0D01*
G01*
X5771120Y60500D02*
G75*
G02*
X5801120Y60500I15000J0D01*
G01*
X5821440Y335280D02*
G75*
G02*
X5791440Y335280I-15000J0D01*
G01*
X5791440Y335280D02*
G75*
G02*
X5821440Y335280I15000J0D01*
G01*
X5826520Y1401620D02*
G75*
G02*
X5796520Y1401620I-15000J0D01*
G01*
X5796520Y1401620D02*
G75*
G02*
X5826520Y1401620I15000J0D01*
G01*
X5907800Y558340D02*
G75*
G02*
X5877800Y558340I-15000J0D01*
G01*
X5877800Y558340D02*
G75*
G02*
X5907800Y558340I15000J0D01*
G01*
X5933200Y2057400D02*
G75*
G02*
X5903200Y2057400I-15000J0D01*
G01*
X5903200Y2057400D02*
G75*
G02*
X5933200Y2057400I15000J0D01*
G01*
X5938280Y314960D02*
G75*
G02*
X5908280Y314960I-15000J0D01*
G01*
X5908280Y314960D02*
G75*
G02*
X5938280Y314960I15000J0D01*
G01*
X5943360Y1518460D02*
G75*
G02*
X5913360Y1518460I-15000J0D01*
G01*
X5913360Y1518460D02*
G75*
G02*
X5943360Y1518460I15000J0D01*
G01*
X5943360Y706120D02*
G75*
G02*
X5913360Y706120I-15000J0D01*
G01*
X5913360Y706120D02*
G75*
G02*
X5943360Y706120I15000J0D01*
G01*
X5973840Y1818640D02*
G75*
G02*
X5943840Y1818640I-15000J0D01*
G01*
X5943840Y1818640D02*
G75*
G02*
X5973840Y1818640I15000J0D01*
G01*
X6018580Y335280D02*
G75*
G02*
X5988580Y335280I-15000J0D01*
G01*
X5988580Y335280D02*
G75*
G02*
X6018580Y335280I15000J0D01*
G01*
X6019560Y446580D02*
G75*
G02*
X5989560Y446580I-15000J0D01*
G01*
X5989560Y446580D02*
G75*
G02*
X6019560Y446580I15000J0D01*
G01*
X6055120Y2448100D02*
G75*
G02*
X6025120Y2448100I-15000J0D01*
G01*
X6025120Y2448100D02*
G75*
G02*
X6055120Y2448100I15000J0D01*
G01*
X6055120Y60500D02*
G75*
G02*
X6025120Y60500I-15000J0D01*
G01*
X6025120Y60500D02*
G75*
G02*
X6055120Y60500I15000J0D01*
G01*
X6060200Y1818640D02*
G75*
G02*
X6030200Y1818640I-15000J0D01*
G01*
X6030200Y1818640D02*
G75*
G02*
X6060200Y1818640I15000J0D01*
G01*
X6060200Y1442720D02*
G75*
G02*
X6030200Y1442720I-15000J0D01*
G01*
X6030200Y1442720D02*
G75*
G02*
X6060200Y1442720I15000J0D01*
G01*
X6060200Y1203960D02*
G75*
G02*
X6030200Y1203960I-15000J0D01*
G01*
X6030200Y1203960D02*
G75*
G02*
X6060200Y1203960I15000J0D01*
G01*
X6111000Y340360D02*
G75*
G02*
X6081000Y340360I-15000J0D01*
G01*
X6081000Y340360D02*
G75*
G02*
X6111000Y340360I15000J0D01*
G01*
X6141480Y1818640D02*
G75*
G02*
X6111480Y1818640I-15000J0D01*
G01*
X6111480Y1818640D02*
G75*
G02*
X6141480Y1818640I15000J0D01*
G01*
X6182120Y2305860D02*
G75*
G02*
X6152120Y2305860I-15000J0D01*
G01*
X6152120Y2305860D02*
G75*
G02*
X6182120Y2305860I15000J0D01*
G01*
X6187200Y1675940D02*
G75*
G02*
X6157200Y1675940I-15000J0D01*
G01*
X6157200Y1675940D02*
G75*
G02*
X6187200Y1675940I15000J0D01*
G01*
X6187200Y706120D02*
G75*
G02*
X6157200Y706120I-15000J0D01*
G01*
X6157200Y706120D02*
G75*
G02*
X6187200Y706120I15000J0D01*
G01*
X6187200Y553720D02*
G75*
G02*
X6157200Y553720I-15000J0D01*
G01*
X6157200Y553720D02*
G75*
G02*
X6187200Y553720I15000J0D01*
G01*
X6192280Y1315720D02*
G75*
G02*
X6162280Y1315720I-15000J0D01*
G01*
X6162280Y1315720D02*
G75*
G02*
X6192280Y1315720I15000J0D01*
G01*
X6197360Y2087420D02*
G75*
G02*
X6167360Y2087420I-15000J0D01*
G01*
X6167360Y2087420D02*
G75*
G02*
X6197360Y2087420I15000J0D01*
G01*
X6207520Y314960D02*
G75*
G02*
X6177520Y314960I-15000J0D01*
G01*
X6177520Y314960D02*
G75*
G02*
X6207520Y314960I15000J0D01*
G01*
X6234180Y1818640D02*
G75*
G02*
X6204180Y1818640I-15000J0D01*
G01*
X6204180Y1818640D02*
G75*
G02*
X6234180Y1818640I15000J0D01*
G01*
X6278640Y411480D02*
G75*
G02*
X6248640Y411480I-15000J0D01*
G01*
X6248640Y411480D02*
G75*
G02*
X6278640Y411480I15000J0D01*
G01*
X6309120Y2448100D02*
G75*
G02*
X6279120Y2448100I-15000J0D01*
G01*
X6279120Y2448100D02*
G75*
G02*
X6309120Y2448100I15000J0D01*
G01*
X6309120Y60500D02*
G75*
G02*
X6279120Y60500I-15000J0D01*
G01*
X6279120Y60500D02*
G75*
G02*
X6309120Y60500I15000J0D01*
G01*
X6314200Y1818640D02*
G75*
G02*
X6284200Y1818640I-15000J0D01*
G01*
X6284200Y1818640D02*
G75*
G02*
X6314200Y1818640I15000J0D01*
G01*
X6349760Y2087420D02*
G75*
G02*
X6319760Y2087420I-15000J0D01*
G01*
X6319760Y2087420D02*
G75*
G02*
X6349760Y2087420I15000J0D01*
G01*
X6400560Y1675940D02*
G75*
G02*
X6370560Y1675940I-15000J0D01*
G01*
X6370560Y1675940D02*
G75*
G02*
X6400560Y1675940I15000J0D01*
G01*
X6400560Y1498140D02*
G75*
G02*
X6370560Y1498140I-15000J0D01*
G01*
X6370560Y1498140D02*
G75*
G02*
X6400560Y1498140I15000J0D01*
G01*
X6400560Y1122680D02*
G75*
G02*
X6370560Y1122680I-15000J0D01*
G01*
X6370560Y1122680D02*
G75*
G02*
X6400560Y1122680I15000J0D01*
G01*
X6400560Y929640D02*
G75*
G02*
X6370560Y929640I-15000J0D01*
G01*
X6370560Y929640D02*
G75*
G02*
X6400560Y929640I15000J0D01*
G01*
X6400560Y706120D02*
G75*
G02*
X6370560Y706120I-15000J0D01*
G01*
X6370560Y706120D02*
G75*
G02*
X6400560Y706120I15000J0D01*
G01*
X6400560Y553720D02*
G75*
G02*
X6370560Y553720I-15000J0D01*
G01*
X6370560Y553720D02*
G75*
G02*
X6400560Y553720I15000J0D01*
G01*
X6436120Y2305860D02*
G75*
G02*
X6406120Y2305860I-15000J0D01*
G01*
X6406120Y2305860D02*
G75*
G02*
X6436120Y2305860I15000J0D01*
G01*
X6492000Y350520D02*
G75*
G02*
X6462000Y350520I-15000J0D01*
G01*
X6462000Y350520D02*
G75*
G02*
X6492000Y350520I15000J0D01*
G01*
X6563120Y2448100D02*
G75*
G02*
X6533120Y2448100I-15000J0D01*
G01*
X6533120Y2448100D02*
G75*
G02*
X6563120Y2448100I15000J0D01*
G01*
X6563120Y60500D02*
G75*
G02*
X6533120Y60500I-15000J0D01*
G01*
X6533120Y60500D02*
G75*
G02*
X6563120Y60500I15000J0D01*
G01*
X6573280Y314960D02*
G75*
G02*
X6543280Y314960I-15000J0D01*
G01*
X6543280Y314960D02*
G75*
G02*
X6573280Y314960I15000J0D01*
G01*
X6608840Y1675940D02*
G75*
G02*
X6578840Y1675940I-15000J0D01*
G01*
X6578840Y1675940D02*
G75*
G02*
X6608840Y1675940I15000J0D01*
G01*
X6608840Y1498140D02*
G75*
G02*
X6578840Y1498140I-15000J0D01*
G01*
X6578840Y1498140D02*
G75*
G02*
X6608840Y1498140I15000J0D01*
G01*
X6608840Y1315260D02*
G75*
G02*
X6578840Y1315260I-15000J0D01*
G01*
X6578840Y1315260D02*
G75*
G02*
X6608840Y1315260I15000J0D01*
G01*
X6608840Y929640D02*
G75*
G02*
X6578840Y929640I-15000J0D01*
G01*
X6578840Y929640D02*
G75*
G02*
X6608840Y929640I15000J0D01*
G01*
X6608840Y706120D02*
G75*
G02*
X6578840Y706120I-15000J0D01*
G01*
X6578840Y706120D02*
G75*
G02*
X6608840Y706120I15000J0D01*
G01*
X6608840Y553720D02*
G75*
G02*
X6578840Y553720I-15000J0D01*
G01*
X6578840Y553720D02*
G75*
G02*
X6608840Y553720I15000J0D01*
G01*
X6654560Y2305860D02*
G75*
G02*
X6624560Y2305860I-15000J0D01*
G01*
X6624560Y2305860D02*
G75*
G02*
X6654560Y2305860I15000J0D01*
G01*
X6654560Y314960D02*
G75*
G02*
X6624560Y314960I-15000J0D01*
G01*
X6624560Y314960D02*
G75*
G02*
X6654560Y314960I15000J0D01*
G01*
X6751080Y2305860D02*
G75*
G02*
X6721080Y2305860I-15000J0D01*
G01*
X6721080Y2305860D02*
G75*
G02*
X6751080Y2305860I15000J0D01*
G01*
X6766320Y1498140D02*
G75*
G02*
X6736320Y1498140I-15000J0D01*
G01*
X6736320Y1498140D02*
G75*
G02*
X6766320Y1498140I15000J0D01*
G01*
X6766320Y1315260D02*
G75*
G02*
X6736320Y1315260I-15000J0D01*
G01*
X6736320Y1315260D02*
G75*
G02*
X6766320Y1315260I15000J0D01*
G01*
X6766320Y1117140D02*
G75*
G02*
X6736320Y1117140I-15000J0D01*
G01*
X6736320Y1117140D02*
G75*
G02*
X6766320Y1117140I15000J0D01*
G01*
X6766320Y705660D02*
G75*
G02*
X6736320Y705660I-15000J0D01*
G01*
X6736320Y705660D02*
G75*
G02*
X6766320Y705660I15000J0D01*
G01*
X6766320Y553260D02*
G75*
G02*
X6736320Y553260I-15000J0D01*
G01*
X6736320Y553260D02*
G75*
G02*
X6766320Y553260I15000J0D01*
G01*
X6771400Y1675940D02*
G75*
G02*
X6741400Y1675940I-15000J0D01*
G01*
X6741400Y1675940D02*
G75*
G02*
X6771400Y1675940I15000J0D01*
G01*
X6776480Y1940100D02*
G75*
G02*
X6746480Y1940100I-15000J0D01*
G01*
X6746480Y1940100D02*
G75*
G02*
X6776480Y1940100I15000J0D01*
G01*
X6817120Y2448100D02*
G75*
G02*
X6787120Y2448100I-15000J0D01*
G01*
X6787120Y2448100D02*
G75*
G02*
X6817120Y2448100I15000J0D01*
G01*
X6817120Y314500D02*
G75*
G02*
X6787120Y314500I-15000J0D01*
G01*
X6787120Y314500D02*
G75*
G02*
X6817120Y314500I15000J0D01*
G01*
X6817120Y60500D02*
G75*
G02*
X6787120Y60500I-15000J0D01*
G01*
X6787120Y60500D02*
G75*
G02*
X6817120Y60500I15000J0D01*
G01*
X6852680Y2092500D02*
G75*
G02*
X6822680Y2092500I-15000J0D01*
G01*
X6822680Y2092500D02*
G75*
G02*
X6852680Y2092500I15000J0D01*
G01*
X6873000Y2199640D02*
G75*
G02*
X6843000Y2199640I-15000J0D01*
G01*
X6843000Y2199640D02*
G75*
G02*
X6873000Y2199640I15000J0D01*
G01*
X6923800Y1604820D02*
G75*
G02*
X6893800Y1604820I-15000J0D01*
G01*
X6893800Y1604820D02*
G75*
G02*
X6923800Y1604820I15000J0D01*
G01*
X6923800Y1244140D02*
G75*
G02*
X6893800Y1244140I-15000J0D01*
G01*
X6893800Y1244140D02*
G75*
G02*
X6923800Y1244140I15000J0D01*
G01*
X6928880Y893620D02*
G75*
G02*
X6898880Y893620I-15000J0D01*
G01*
X6898880Y893620D02*
G75*
G02*
X6928880Y893620I15000J0D01*
G01*
X6939040Y2305860D02*
G75*
G02*
X6909040Y2305860I-15000J0D01*
G01*
X6909040Y2305860D02*
G75*
G02*
X6939040Y2305860I15000J0D01*
G01*
X6949200Y187960D02*
G75*
G02*
X6919200Y187960I-15000J0D01*
G01*
X6919200Y187960D02*
G75*
G02*
X6949200Y187960I15000J0D01*
G01*
X6994920Y2051860D02*
G75*
G02*
X6964920Y2051860I-15000J0D01*
G01*
X6964920Y2051860D02*
G75*
G02*
X6994920Y2051860I15000J0D01*
G01*
X7000000Y381000D02*
G75*
G02*
X6970000Y381000I-15000J0D01*
G01*
X6970000Y381000D02*
G75*
G02*
X7000000Y381000I15000J0D01*
G01*
X7040640Y786940D02*
G75*
G02*
X7010640Y786940I-15000J0D01*
G01*
X7010640Y786940D02*
G75*
G02*
X7040640Y786940I15000J0D01*
G01*
X7045720Y1416860D02*
G75*
G02*
X7015720Y1416860I-15000J0D01*
G01*
X7015720Y1416860D02*
G75*
G02*
X7045720Y1416860I15000J0D01*
G01*
X7045720Y1076500D02*
G75*
G02*
X7015720Y1076500I-15000J0D01*
G01*
X7015720Y1076500D02*
G75*
G02*
X7045720Y1076500I15000J0D01*
G01*
X7050800Y1711500D02*
G75*
G02*
X7020800Y1711500I-15000J0D01*
G01*
X7020800Y1711500D02*
G75*
G02*
X7050800Y1711500I15000J0D01*
G01*
X7071120Y2448100D02*
G75*
G02*
X7041120Y2448100I-15000J0D01*
G01*
X7041120Y2448100D02*
G75*
G02*
X7071120Y2448100I15000J0D01*
G01*
X7071120Y2194100D02*
G75*
G02*
X7041120Y2194100I-15000J0D01*
G01*
X7041120Y2194100D02*
G75*
G02*
X7071120Y2194100I15000J0D01*
G01*
X7071120Y314500D02*
G75*
G02*
X7041120Y314500I-15000J0D01*
G01*
X7041120Y314500D02*
G75*
G02*
X7071120Y314500I15000J0D01*
G01*
X7071120Y60500D02*
G75*
G02*
X7041120Y60500I-15000J0D01*
G01*
X7041120Y60500D02*
G75*
G02*
X7071120Y60500I15000J0D01*
G01*
X7096520Y553720D02*
G75*
G02*
X7066520Y553720I-15000J0D01*
G01*
X7066520Y553720D02*
G75*
G02*
X7096520Y553720I15000J0D01*
G01*
X7111760Y1940100D02*
G75*
G02*
X7081760Y1940100I-15000J0D01*
G01*
X7081760Y1940100D02*
G75*
G02*
X7111760Y1940100I15000J0D01*
G01*
X7203200Y1244140D02*
G75*
G02*
X7173200Y1244140I-15000J0D01*
G01*
X7173200Y1244140D02*
G75*
G02*
X7203200Y1244140I15000J0D01*
G01*
X7203200Y888540D02*
G75*
G02*
X7173200Y888540I-15000J0D01*
G01*
X7173200Y888540D02*
G75*
G02*
X7203200Y888540I15000J0D01*
G01*
X7203480Y1605280D02*
G75*
G02*
X7173480Y1605280I-15000J0D01*
G01*
X7173480Y1605280D02*
G75*
G02*
X7203480Y1605280I15000J0D01*
G01*
X7325120Y1940100D02*
G75*
G02*
X7295120Y1940100I-15000J0D01*
G01*
X7295120Y1940100D02*
G75*
G02*
X7325120Y1940100I15000J0D01*
G01*
X7325120Y568500D02*
G75*
G02*
X7295120Y568500I-15000J0D01*
G01*
X7295120Y568500D02*
G75*
G02*
X7325120Y568500I15000J0D01*
G01*
X7375920Y1416860D02*
G75*
G02*
X7345920Y1416860I-15000J0D01*
G01*
X7345920Y1416860D02*
G75*
G02*
X7375920Y1416860I15000J0D01*
G01*
X7375920Y1076500D02*
G75*
G02*
X7345920Y1076500I-15000J0D01*
G01*
X7345920Y1076500D02*
G75*
G02*
X7375920Y1076500I15000J0D01*
G01*
X7375920Y786940D02*
G75*
G02*
X7345920Y786940I-15000J0D01*
G01*
X7345920Y786940D02*
G75*
G02*
X7375920Y786940I15000J0D01*
G01*
X7386080Y1711500D02*
G75*
G02*
X7356080Y1711500I-15000J0D01*
G01*
X7356080Y1711500D02*
G75*
G02*
X7386080Y1711500I15000J0D01*
G01*
X7477520Y1244140D02*
G75*
G02*
X7447520Y1244140I-15000J0D01*
G01*
X7447520Y1244140D02*
G75*
G02*
X7477520Y1244140I15000J0D01*
G01*
X7477520Y888540D02*
G75*
G02*
X7447520Y888540I-15000J0D01*
G01*
X7447520Y888540D02*
G75*
G02*
X7477520Y888540I15000J0D01*
G01*
X7523240Y1940100D02*
G75*
G02*
X7493240Y1940100I-15000J0D01*
G01*
X7493240Y1940100D02*
G75*
G02*
X7523240Y1940100I15000J0D01*
G01*
X7604520Y1838500D02*
G75*
G02*
X7574520Y1838500I-15000J0D01*
G01*
X7574520Y1838500D02*
G75*
G02*
X7604520Y1838500I15000J0D01*
G01*
X7604520Y1584500D02*
G75*
G02*
X7574520Y1584500I-15000J0D01*
G01*
X7574520Y1584500D02*
G75*
G02*
X7604520Y1584500I15000J0D01*
G01*
X7604520Y1330500D02*
G75*
G02*
X7574520Y1330500I-15000J0D01*
G01*
X7574520Y1330500D02*
G75*
G02*
X7604520Y1330500I15000J0D01*
G01*
X7604520Y1066340D02*
G75*
G02*
X7574520Y1066340I-15000J0D01*
G01*
X7574520Y1066340D02*
G75*
G02*
X7604520Y1066340I15000J0D01*
G01*
X7604520Y822500D02*
G75*
G02*
X7574520Y822500I-15000J0D01*
G01*
X7574520Y822500D02*
G75*
G02*
X7604520Y822500I15000J0D01*
G01*
X7604520Y568500D02*
G75*
G02*
X7574520Y568500I-15000J0D01*
G01*
X7574520Y568500D02*
G75*
G02*
X7604520Y568500I15000J0D01*
G01*
X3525320Y2219840D02*
X3525320Y2159840D01*
X3495320Y2189840D02*
X3555320Y2189840D01*
X3555320Y2149840D02*
X3555320Y2229840D01*
X3495320Y2229840D02*
G75*
G02*
X3555320Y2229840I30000J0D01*
G01*
X3495320Y2229840D02*
X3495320Y2149840D01*
X3495320Y2149840D02*
G75*
G03*
X3555320Y2149840I30000J0D01*
G01*
X3525320Y1799840D02*
X3525320Y1739840D01*
X3495320Y1769840D02*
X3555320Y1769840D01*
X3555320Y1714840D02*
X3555320Y1824840D01*
X3495320Y1824840D02*
G75*
G02*
X3555320Y1824840I30000J0D01*
G01*
X3495320Y1824840D02*
X3495320Y1714840D01*
X3495320Y1714840D02*
G75*
G03*
X3555320Y1714840I30000J0D01*
G01*
X4389320Y2219840D02*
X4389320Y2159840D01*
X4359320Y2189840D02*
X4419320Y2189840D01*
X4419320Y2149840D02*
X4419320Y2229840D01*
X4359320Y2229840D02*
G75*
G02*
X4419320Y2229840I30000J0D01*
G01*
X4359320Y2229840D02*
X4359320Y2149840D01*
X4359320Y2149840D02*
G75*
G03*
X4419320Y2149840I30000J0D01*
G01*
X4389320Y1799840D02*
X4389320Y1739840D01*
X4359320Y1769840D02*
X4419320Y1769840D01*
X4419320Y1714840D02*
X4419320Y1824840D01*
X4359320Y1824840D02*
G75*
G02*
X4419320Y1824840I30000J0D01*
G01*
X4359320Y1824840D02*
X4359320Y1714840D01*
X4359320Y1714840D02*
G75*
G03*
X4419320Y1714840I30000J0D01*
G01*
X766876Y2034704D02*
X766876Y2105416D01*
X696164Y2105416D01*
X696164Y2034704D01*
X766876Y2034704D01*
X766876Y1780704D02*
X766876Y1851416D01*
X696164Y1851416D01*
X696164Y1780704D01*
X766876Y1780704D01*
X1020876Y2034704D02*
X1020876Y2105416D01*
X950164Y2105416D01*
X950164Y2034704D01*
X1020876Y2034704D01*
X1020876Y1780704D02*
X1020876Y1851416D01*
X950164Y1851416D01*
X950164Y1780704D01*
X1020876Y1780704D01*
X1274876Y2034704D02*
X1274876Y2105416D01*
X1204164Y2105416D01*
X1204164Y2034704D01*
X1274876Y2034704D01*
X1274876Y1780704D02*
X1274876Y1851416D01*
X1204164Y1851416D01*
X1204164Y1780704D01*
X1274876Y1780704D01*
X1528876Y2034704D02*
X1528876Y2105416D01*
X1458164Y2105416D01*
X1458164Y2034704D01*
X1528876Y2034704D01*
X1528876Y1780704D02*
X1528876Y1851416D01*
X1458164Y1851416D01*
X1458164Y1780704D01*
X1528876Y1780704D01*
X1782876Y2034704D02*
X1782876Y2105416D01*
X1712164Y2105416D01*
X1712164Y2034704D01*
X1782876Y2034704D01*
X1782876Y1780704D02*
X1782876Y1851416D01*
X1712164Y1851416D01*
X1712164Y1780704D01*
X1782876Y1780704D01*
X2036876Y2034704D02*
X2036876Y2105416D01*
X1966164Y2105416D01*
X1966164Y2034704D01*
X2036876Y2034704D01*
X2036876Y1780704D02*
X2036876Y1851416D01*
X1966164Y1851416D01*
X1966164Y1780704D01*
X2036876Y1780704D01*
X2290876Y2034704D02*
X2290876Y2105416D01*
X2220164Y2105416D01*
X2220164Y2034704D01*
X2290876Y2034704D01*
X2290876Y1780704D02*
X2290876Y1851416D01*
X2220164Y1851416D01*
X2220164Y1780704D01*
X2290876Y1780704D01*
X2544876Y2034704D02*
X2544876Y2105416D01*
X2474164Y2105416D01*
X2474164Y2034704D01*
X2544876Y2034704D01*
X2544876Y1780704D02*
X2544876Y1851416D01*
X2474164Y1851416D01*
X2474164Y1780704D01*
X2544876Y1780704D01*
X2798876Y2034704D02*
X2798876Y2105416D01*
X2728164Y2105416D01*
X2728164Y2034704D01*
X2798876Y2034704D01*
X2798876Y1780704D02*
X2798876Y1851416D01*
X2728164Y1851416D01*
X2728164Y1780704D01*
X2798876Y1780704D01*
D10*
X250772Y-321948D02*
X250772Y-121948D01*
X250772Y-121948D02*
X298391Y-121948D01*
X298391Y-121948D02*
X326963Y-131472D01*
X326963Y-131472D02*
X346011Y-150520D01*
X346011Y-150520D02*
X355534Y-169567D01*
X355534Y-169567D02*
X365058Y-207662D01*
X365058Y-207662D02*
X365058Y-236234D01*
X365058Y-236234D02*
X355534Y-274329D01*
X355534Y-274329D02*
X346011Y-293377D01*
X346011Y-293377D02*
X326963Y-312424D01*
X326963Y-312424D02*
X298391Y-321948D01*
X298391Y-321948D02*
X250772Y-321948D01*
X450772Y-321948D02*
X450772Y-188615D01*
X450772Y-226710D02*
X460296Y-207662D01*
X460296Y-207662D02*
X469820Y-198139D01*
X469820Y-198139D02*
X488868Y-188615D01*
X488868Y-188615D02*
X507915Y-188615D01*
X574582Y-321948D02*
X574582Y-188615D01*
X574582Y-121948D02*
X565058Y-131472D01*
X565058Y-131472D02*
X574582Y-140996D01*
X574582Y-140996D02*
X584106Y-131472D01*
X584106Y-131472D02*
X574582Y-121948D01*
X574582Y-121948D02*
X574582Y-140996D01*
X698391Y-321948D02*
X679344Y-312424D01*
X679344Y-312424D02*
X669820Y-293377D01*
X669820Y-293377D02*
X669820Y-121948D01*
X803153Y-321948D02*
X784106Y-312424D01*
X784106Y-312424D02*
X774582Y-293377D01*
X774582Y-293377D02*
X774582Y-121948D01*
X1031725Y-321948D02*
X1031725Y-121948D01*
X1031725Y-121948D02*
X1098392Y-264805D01*
X1098392Y-264805D02*
X1165058Y-121948D01*
X1165058Y-121948D02*
X1165058Y-321948D01*
X1346011Y-321948D02*
X1346011Y-217186D01*
X1346011Y-217186D02*
X1336487Y-198139D01*
X1336487Y-198139D02*
X1317439Y-188615D01*
X1317439Y-188615D02*
X1279344Y-188615D01*
X1279344Y-188615D02*
X1260296Y-198139D01*
X1346011Y-312424D02*
X1326963Y-321948D01*
X1326963Y-321948D02*
X1279344Y-321948D01*
X1279344Y-321948D02*
X1260296Y-312424D01*
X1260296Y-312424D02*
X1250772Y-293377D01*
X1250772Y-293377D02*
X1250772Y-274329D01*
X1250772Y-274329D02*
X1260296Y-255281D01*
X1260296Y-255281D02*
X1279344Y-245758D01*
X1279344Y-245758D02*
X1326963Y-245758D01*
X1326963Y-245758D02*
X1346011Y-236234D01*
X1441249Y-188615D02*
X1441249Y-388615D01*
X1441249Y-198139D02*
X1460296Y-188615D01*
X1460296Y-188615D02*
X1498391Y-188615D01*
X1498391Y-188615D02*
X1517439Y-198139D01*
X1517439Y-198139D02*
X1526963Y-207662D01*
X1526963Y-207662D02*
X1536487Y-226710D01*
X1536487Y-226710D02*
X1536487Y-283853D01*
X1536487Y-283853D02*
X1526963Y-302901D01*
X1526963Y-302901D02*
X1517439Y-312424D01*
X1517439Y-312424D02*
X1498391Y-321948D01*
X1498391Y-321948D02*
X1460296Y-321948D01*
X1460296Y-321948D02*
X1441249Y-312424D01*
X1622201Y-302901D02*
X1631725Y-312424D01*
X1631725Y-312424D02*
X1622201Y-321948D01*
X1622201Y-321948D02*
X1612677Y-312424D01*
X1612677Y-312424D02*
X1622201Y-302901D01*
X1622201Y-302901D02*
X1622201Y-321948D01*
X1622201Y-198139D02*
X1631725Y-207662D01*
X1631725Y-207662D02*
X1622201Y-217186D01*
X1622201Y-217186D02*
X1612677Y-207662D01*
X1612677Y-207662D02*
X1622201Y-198139D01*
X1622201Y-198139D02*
X1622201Y-217186D01*
D11*
X-30004Y-640464D02*
X-10004Y-660464D01*
X-10004Y-640464D02*
X-30004Y-660464D01*
D10*
X288868Y-541948D02*
X307915Y-541948D01*
X307915Y-541948D02*
X326963Y-551472D01*
X326963Y-551472D02*
X336487Y-560996D01*
X336487Y-560996D02*
X346011Y-580043D01*
X346011Y-580043D02*
X355534Y-618139D01*
X355534Y-618139D02*
X355534Y-665758D01*
X355534Y-665758D02*
X346011Y-703853D01*
X346011Y-703853D02*
X336487Y-722900D01*
X336487Y-722900D02*
X326963Y-732424D01*
X326963Y-732424D02*
X307915Y-741948D01*
X307915Y-741948D02*
X288868Y-741948D01*
X288868Y-741948D02*
X269820Y-732424D01*
X269820Y-732424D02*
X260296Y-722900D01*
X260296Y-722900D02*
X250772Y-703853D01*
X250772Y-703853D02*
X241249Y-665758D01*
X241249Y-665758D02*
X241249Y-618139D01*
X241249Y-618139D02*
X250772Y-580043D01*
X250772Y-580043D02*
X260296Y-560996D01*
X260296Y-560996D02*
X269820Y-551472D01*
X269820Y-551472D02*
X288868Y-541948D01*
X441249Y-722900D02*
X450772Y-732424D01*
X450772Y-732424D02*
X441249Y-741948D01*
X441249Y-741948D02*
X431725Y-732424D01*
X431725Y-732424D02*
X441249Y-722900D01*
X441249Y-722900D02*
X441249Y-741948D01*
X526963Y-560996D02*
X536487Y-551472D01*
X536487Y-551472D02*
X555534Y-541948D01*
X555534Y-541948D02*
X603153Y-541948D01*
X603153Y-541948D02*
X622201Y-551472D01*
X622201Y-551472D02*
X631725Y-560996D01*
X631725Y-560996D02*
X641249Y-580043D01*
X641249Y-580043D02*
X641249Y-599091D01*
X641249Y-599091D02*
X631725Y-627662D01*
X631725Y-627662D02*
X517439Y-741948D01*
X517439Y-741948D02*
X641249Y-741948D01*
X765058Y-541948D02*
X784106Y-541948D01*
X784106Y-541948D02*
X803153Y-551472D01*
X803153Y-551472D02*
X812677Y-560996D01*
X812677Y-560996D02*
X822201Y-580043D01*
X822201Y-580043D02*
X831725Y-618139D01*
X831725Y-618139D02*
X831725Y-665758D01*
X831725Y-665758D02*
X822201Y-703853D01*
X822201Y-703853D02*
X812677Y-722900D01*
X812677Y-722900D02*
X803153Y-732424D01*
X803153Y-732424D02*
X784106Y-741948D01*
X784106Y-741948D02*
X765058Y-741948D01*
X765058Y-741948D02*
X746010Y-732424D01*
X746010Y-732424D02*
X736487Y-722900D01*
X736487Y-722900D02*
X726963Y-703853D01*
X726963Y-703853D02*
X717439Y-665758D01*
X717439Y-665758D02*
X717439Y-618139D01*
X717439Y-618139D02*
X726963Y-580043D01*
X726963Y-580043D02*
X736487Y-560996D01*
X736487Y-560996D02*
X746010Y-551472D01*
X746010Y-551472D02*
X765058Y-541948D01*
X955534Y-541948D02*
X974582Y-541948D01*
X974582Y-541948D02*
X993630Y-551472D01*
X993630Y-551472D02*
X1003153Y-560996D01*
X1003153Y-560996D02*
X1012677Y-580043D01*
X1012677Y-580043D02*
X1022201Y-618139D01*
X1022201Y-618139D02*
X1022201Y-665758D01*
X1022201Y-665758D02*
X1012677Y-703853D01*
X1012677Y-703853D02*
X1003153Y-722900D01*
X1003153Y-722900D02*
X993630Y-732424D01*
X993630Y-732424D02*
X974582Y-741948D01*
X974582Y-741948D02*
X955534Y-741948D01*
X955534Y-741948D02*
X936487Y-732424D01*
X936487Y-732424D02*
X926963Y-722900D01*
X926963Y-722900D02*
X917439Y-703853D01*
X917439Y-703853D02*
X907915Y-665758D01*
X907915Y-665758D02*
X907915Y-618139D01*
X907915Y-618139D02*
X917439Y-580043D01*
X917439Y-580043D02*
X926963Y-560996D01*
X926963Y-560996D02*
X936487Y-551472D01*
X936487Y-551472D02*
X955534Y-541948D01*
X1107915Y-741948D02*
X1107915Y-608615D01*
X1107915Y-627662D02*
X1117439Y-618139D01*
X1117439Y-618139D02*
X1136487Y-608615D01*
X1136487Y-608615D02*
X1165058Y-608615D01*
X1165058Y-608615D02*
X1184106Y-618139D01*
X1184106Y-618139D02*
X1193630Y-637186D01*
X1193630Y-637186D02*
X1193630Y-741948D01*
X1193630Y-637186D02*
X1203153Y-618139D01*
X1203153Y-618139D02*
X1222201Y-608615D01*
X1222201Y-608615D02*
X1250772Y-608615D01*
X1250772Y-608615D02*
X1269820Y-618139D01*
X1269820Y-618139D02*
X1279344Y-637186D01*
X1279344Y-637186D02*
X1279344Y-741948D01*
X1374582Y-741948D02*
X1374582Y-608615D01*
X1374582Y-627662D02*
X1384106Y-618139D01*
X1384106Y-618139D02*
X1403153Y-608615D01*
X1403153Y-608615D02*
X1431725Y-608615D01*
X1431725Y-608615D02*
X1450772Y-618139D01*
X1450772Y-618139D02*
X1460296Y-637186D01*
X1460296Y-637186D02*
X1460296Y-741948D01*
X1460296Y-637186D02*
X1469820Y-618139D01*
X1469820Y-618139D02*
X1488868Y-608615D01*
X1488868Y-608615D02*
X1517439Y-608615D01*
X1517439Y-608615D02*
X1536487Y-618139D01*
X1536487Y-618139D02*
X1546011Y-637186D01*
X1546011Y-637186D02*
X1546011Y-741948D01*
X1936487Y-532424D02*
X1765058Y-789567D01*
X2193630Y-541948D02*
X2212677Y-541948D01*
X2212677Y-541948D02*
X2231725Y-551472D01*
X2231725Y-551472D02*
X2241249Y-560996D01*
X2241249Y-560996D02*
X2250773Y-580043D01*
X2250773Y-580043D02*
X2260296Y-618139D01*
X2260296Y-618139D02*
X2260296Y-665758D01*
X2260296Y-665758D02*
X2250773Y-703853D01*
X2250773Y-703853D02*
X2241249Y-722900D01*
X2241249Y-722900D02*
X2231725Y-732424D01*
X2231725Y-732424D02*
X2212677Y-741948D01*
X2212677Y-741948D02*
X2193630Y-741948D01*
X2193630Y-741948D02*
X2174582Y-732424D01*
X2174582Y-732424D02*
X2165058Y-722900D01*
X2165058Y-722900D02*
X2155535Y-703853D01*
X2155535Y-703853D02*
X2146011Y-665758D01*
X2146011Y-665758D02*
X2146011Y-618139D01*
X2146011Y-618139D02*
X2155535Y-580043D01*
X2155535Y-580043D02*
X2165058Y-560996D01*
X2165058Y-560996D02*
X2174582Y-551472D01*
X2174582Y-551472D02*
X2193630Y-541948D01*
X2346011Y-722900D02*
X2355535Y-732424D01*
X2355535Y-732424D02*
X2346011Y-741948D01*
X2346011Y-741948D02*
X2336487Y-732424D01*
X2336487Y-732424D02*
X2346011Y-722900D01*
X2346011Y-722900D02*
X2346011Y-741948D01*
X2479344Y-541948D02*
X2498392Y-541948D01*
X2498392Y-541948D02*
X2517439Y-551472D01*
X2517439Y-551472D02*
X2526963Y-560996D01*
X2526963Y-560996D02*
X2536487Y-580043D01*
X2536487Y-580043D02*
X2546011Y-618139D01*
X2546011Y-618139D02*
X2546011Y-665758D01*
X2546011Y-665758D02*
X2536487Y-703853D01*
X2536487Y-703853D02*
X2526963Y-722900D01*
X2526963Y-722900D02*
X2517439Y-732424D01*
X2517439Y-732424D02*
X2498392Y-741948D01*
X2498392Y-741948D02*
X2479344Y-741948D01*
X2479344Y-741948D02*
X2460296Y-732424D01*
X2460296Y-732424D02*
X2450773Y-722900D01*
X2450773Y-722900D02*
X2441249Y-703853D01*
X2441249Y-703853D02*
X2431725Y-665758D01*
X2431725Y-665758D02*
X2431725Y-618139D01*
X2431725Y-618139D02*
X2441249Y-580043D01*
X2441249Y-580043D02*
X2450773Y-560996D01*
X2450773Y-560996D02*
X2460296Y-551472D01*
X2460296Y-551472D02*
X2479344Y-541948D01*
X2669820Y-541948D02*
X2688868Y-541948D01*
X2688868Y-541948D02*
X2707916Y-551472D01*
X2707916Y-551472D02*
X2717439Y-560996D01*
X2717439Y-560996D02*
X2726963Y-580043D01*
X2726963Y-580043D02*
X2736487Y-618139D01*
X2736487Y-618139D02*
X2736487Y-665758D01*
X2736487Y-665758D02*
X2726963Y-703853D01*
X2726963Y-703853D02*
X2717439Y-722900D01*
X2717439Y-722900D02*
X2707916Y-732424D01*
X2707916Y-732424D02*
X2688868Y-741948D01*
X2688868Y-741948D02*
X2669820Y-741948D01*
X2669820Y-741948D02*
X2650773Y-732424D01*
X2650773Y-732424D02*
X2641249Y-722900D01*
X2641249Y-722900D02*
X2631725Y-703853D01*
X2631725Y-703853D02*
X2622201Y-665758D01*
X2622201Y-665758D02*
X2622201Y-618139D01*
X2622201Y-618139D02*
X2631725Y-580043D01*
X2631725Y-580043D02*
X2641249Y-560996D01*
X2641249Y-560996D02*
X2650773Y-551472D01*
X2650773Y-551472D02*
X2669820Y-541948D01*
X2803154Y-541948D02*
X2936487Y-541948D01*
X2936487Y-541948D02*
X2850773Y-741948D01*
X3022201Y-741948D02*
X3060296Y-741948D01*
X3060296Y-741948D02*
X3079344Y-732424D01*
X3079344Y-732424D02*
X3088868Y-722900D01*
X3088868Y-722900D02*
X3107915Y-694329D01*
X3107915Y-694329D02*
X3117439Y-656234D01*
X3117439Y-656234D02*
X3117439Y-580043D01*
X3117439Y-580043D02*
X3107915Y-560996D01*
X3107915Y-560996D02*
X3098392Y-551472D01*
X3098392Y-551472D02*
X3079344Y-541948D01*
X3079344Y-541948D02*
X3041249Y-541948D01*
X3041249Y-541948D02*
X3022201Y-551472D01*
X3022201Y-551472D02*
X3012677Y-560996D01*
X3012677Y-560996D02*
X3003154Y-580043D01*
X3003154Y-580043D02*
X3003154Y-627662D01*
X3003154Y-627662D02*
X3012677Y-646710D01*
X3012677Y-646710D02*
X3022201Y-656234D01*
X3022201Y-656234D02*
X3041249Y-665758D01*
X3041249Y-665758D02*
X3079344Y-665758D01*
X3079344Y-665758D02*
X3098392Y-656234D01*
X3098392Y-656234D02*
X3107915Y-646710D01*
X3107915Y-646710D02*
X3117439Y-627662D01*
X3193630Y-541948D02*
X3193630Y-580043D01*
X3269820Y-541948D02*
X3269820Y-580043D01*
X3565058Y-818139D02*
X3555535Y-808615D01*
X3555535Y-808615D02*
X3536487Y-780043D01*
X3536487Y-780043D02*
X3526963Y-760996D01*
X3526963Y-760996D02*
X3517439Y-732424D01*
X3517439Y-732424D02*
X3507916Y-684805D01*
X3507916Y-684805D02*
X3507916Y-646710D01*
X3507916Y-646710D02*
X3517439Y-599091D01*
X3517439Y-599091D02*
X3526963Y-570520D01*
X3526963Y-570520D02*
X3536487Y-551472D01*
X3536487Y-551472D02*
X3555535Y-522900D01*
X3555535Y-522900D02*
X3565058Y-513377D01*
X3746011Y-741948D02*
X3631725Y-741948D01*
X3688868Y-741948D02*
X3688868Y-541948D01*
X3688868Y-541948D02*
X3669820Y-570520D01*
X3669820Y-570520D02*
X3650773Y-589567D01*
X3650773Y-589567D02*
X3631725Y-599091D01*
X3822201Y-560996D02*
X3831725Y-551472D01*
X3831725Y-551472D02*
X3850773Y-541948D01*
X3850773Y-541948D02*
X3898392Y-541948D01*
X3898392Y-541948D02*
X3917439Y-551472D01*
X3917439Y-551472D02*
X3926963Y-560996D01*
X3926963Y-560996D02*
X3936487Y-580043D01*
X3936487Y-580043D02*
X3936487Y-599091D01*
X3936487Y-599091D02*
X3926963Y-627662D01*
X3926963Y-627662D02*
X3812677Y-741948D01*
X3812677Y-741948D02*
X3936487Y-741948D01*
X4174582Y-741948D02*
X4174582Y-541948D01*
X4260297Y-741948D02*
X4260297Y-637186D01*
X4260297Y-637186D02*
X4250773Y-618139D01*
X4250773Y-618139D02*
X4231725Y-608615D01*
X4231725Y-608615D02*
X4203154Y-608615D01*
X4203154Y-608615D02*
X4184106Y-618139D01*
X4184106Y-618139D02*
X4174582Y-627662D01*
X4384106Y-741948D02*
X4365059Y-732424D01*
X4365059Y-732424D02*
X4355535Y-722900D01*
X4355535Y-722900D02*
X4346011Y-703853D01*
X4346011Y-703853D02*
X4346011Y-646710D01*
X4346011Y-646710D02*
X4355535Y-627662D01*
X4355535Y-627662D02*
X4365059Y-618139D01*
X4365059Y-618139D02*
X4384106Y-608615D01*
X4384106Y-608615D02*
X4412678Y-608615D01*
X4412678Y-608615D02*
X4431725Y-618139D01*
X4431725Y-618139D02*
X4441249Y-627662D01*
X4441249Y-627662D02*
X4450773Y-646710D01*
X4450773Y-646710D02*
X4450773Y-703853D01*
X4450773Y-703853D02*
X4441249Y-722900D01*
X4441249Y-722900D02*
X4431725Y-732424D01*
X4431725Y-732424D02*
X4412678Y-741948D01*
X4412678Y-741948D02*
X4384106Y-741948D01*
X4565059Y-741948D02*
X4546011Y-732424D01*
X4546011Y-732424D02*
X4536487Y-713377D01*
X4536487Y-713377D02*
X4536487Y-541948D01*
X4717440Y-732424D02*
X4698392Y-741948D01*
X4698392Y-741948D02*
X4660297Y-741948D01*
X4660297Y-741948D02*
X4641249Y-732424D01*
X4641249Y-732424D02*
X4631725Y-713377D01*
X4631725Y-713377D02*
X4631725Y-637186D01*
X4631725Y-637186D02*
X4641249Y-618139D01*
X4641249Y-618139D02*
X4660297Y-608615D01*
X4660297Y-608615D02*
X4698392Y-608615D01*
X4698392Y-608615D02*
X4717440Y-618139D01*
X4717440Y-618139D02*
X4726963Y-637186D01*
X4726963Y-637186D02*
X4726963Y-656234D01*
X4726963Y-656234D02*
X4631725Y-675282D01*
X4803154Y-732424D02*
X4822201Y-741948D01*
X4822201Y-741948D02*
X4860297Y-741948D01*
X4860297Y-741948D02*
X4879344Y-732424D01*
X4879344Y-732424D02*
X4888868Y-713377D01*
X4888868Y-713377D02*
X4888868Y-703853D01*
X4888868Y-703853D02*
X4879344Y-684805D01*
X4879344Y-684805D02*
X4860297Y-675282D01*
X4860297Y-675282D02*
X4831725Y-675282D01*
X4831725Y-675282D02*
X4812678Y-665758D01*
X4812678Y-665758D02*
X4803154Y-646710D01*
X4803154Y-646710D02*
X4803154Y-637186D01*
X4803154Y-637186D02*
X4812678Y-618139D01*
X4812678Y-618139D02*
X4831725Y-608615D01*
X4831725Y-608615D02*
X4860297Y-608615D01*
X4860297Y-608615D02*
X4879344Y-618139D01*
X4955535Y-818139D02*
X4965059Y-808615D01*
X4965059Y-808615D02*
X4984106Y-780043D01*
X4984106Y-780043D02*
X4993630Y-760996D01*
X4993630Y-760996D02*
X5003154Y-732424D01*
X5003154Y-732424D02*
X5012678Y-684805D01*
X5012678Y-684805D02*
X5012678Y-646710D01*
X5012678Y-646710D02*
X5003154Y-599091D01*
X5003154Y-599091D02*
X4993630Y-570520D01*
X4993630Y-570520D02*
X4984106Y-551472D01*
X4984106Y-551472D02*
X4965059Y-522900D01*
X4965059Y-522900D02*
X4955535Y-513377D01*
D11*
X-10004Y-914464D02*
G75*
G02*
X-40004Y-914464I-15000J0D01*
G01*
X-40004Y-914464D02*
G75*
G02*
X-10004Y-914464I15000J0D01*
G01*
D10*
X288868Y-805948D02*
X307915Y-805948D01*
X307915Y-805948D02*
X326963Y-815472D01*
X326963Y-815472D02*
X336487Y-824996D01*
X336487Y-824996D02*
X346011Y-844043D01*
X346011Y-844043D02*
X355534Y-882139D01*
X355534Y-882139D02*
X355534Y-929758D01*
X355534Y-929758D02*
X346011Y-967853D01*
X346011Y-967853D02*
X336487Y-986900D01*
X336487Y-986900D02*
X326963Y-996424D01*
X326963Y-996424D02*
X307915Y-1005948D01*
X307915Y-1005948D02*
X288868Y-1005948D01*
X288868Y-1005948D02*
X269820Y-996424D01*
X269820Y-996424D02*
X260296Y-986900D01*
X260296Y-986900D02*
X250772Y-967853D01*
X250772Y-967853D02*
X241249Y-929758D01*
X241249Y-929758D02*
X241249Y-882139D01*
X241249Y-882139D02*
X250772Y-844043D01*
X250772Y-844043D02*
X260296Y-824996D01*
X260296Y-824996D02*
X269820Y-815472D01*
X269820Y-815472D02*
X288868Y-805948D01*
X441249Y-986900D02*
X450772Y-996424D01*
X450772Y-996424D02*
X441249Y-1005948D01*
X441249Y-1005948D02*
X431725Y-996424D01*
X431725Y-996424D02*
X441249Y-986900D01*
X441249Y-986900D02*
X441249Y-1005948D01*
X517439Y-805948D02*
X641249Y-805948D01*
X641249Y-805948D02*
X574582Y-882139D01*
X574582Y-882139D02*
X603153Y-882139D01*
X603153Y-882139D02*
X622201Y-891662D01*
X622201Y-891662D02*
X631725Y-901186D01*
X631725Y-901186D02*
X641249Y-920234D01*
X641249Y-920234D02*
X641249Y-967853D01*
X641249Y-967853D02*
X631725Y-986900D01*
X631725Y-986900D02*
X622201Y-996424D01*
X622201Y-996424D02*
X603153Y-1005948D01*
X603153Y-1005948D02*
X546011Y-1005948D01*
X546011Y-1005948D02*
X526963Y-996424D01*
X526963Y-996424D02*
X517439Y-986900D01*
X765058Y-805948D02*
X784106Y-805948D01*
X784106Y-805948D02*
X803153Y-815472D01*
X803153Y-815472D02*
X812677Y-824996D01*
X812677Y-824996D02*
X822201Y-844043D01*
X822201Y-844043D02*
X831725Y-882139D01*
X831725Y-882139D02*
X831725Y-929758D01*
X831725Y-929758D02*
X822201Y-967853D01*
X822201Y-967853D02*
X812677Y-986900D01*
X812677Y-986900D02*
X803153Y-996424D01*
X803153Y-996424D02*
X784106Y-1005948D01*
X784106Y-1005948D02*
X765058Y-1005948D01*
X765058Y-1005948D02*
X746010Y-996424D01*
X746010Y-996424D02*
X736487Y-986900D01*
X736487Y-986900D02*
X726963Y-967853D01*
X726963Y-967853D02*
X717439Y-929758D01*
X717439Y-929758D02*
X717439Y-882139D01*
X717439Y-882139D02*
X726963Y-844043D01*
X726963Y-844043D02*
X736487Y-824996D01*
X736487Y-824996D02*
X746010Y-815472D01*
X746010Y-815472D02*
X765058Y-805948D01*
X955534Y-805948D02*
X974582Y-805948D01*
X974582Y-805948D02*
X993630Y-815472D01*
X993630Y-815472D02*
X1003153Y-824996D01*
X1003153Y-824996D02*
X1012677Y-844043D01*
X1012677Y-844043D02*
X1022201Y-882139D01*
X1022201Y-882139D02*
X1022201Y-929758D01*
X1022201Y-929758D02*
X1012677Y-967853D01*
X1012677Y-967853D02*
X1003153Y-986900D01*
X1003153Y-986900D02*
X993630Y-996424D01*
X993630Y-996424D02*
X974582Y-1005948D01*
X974582Y-1005948D02*
X955534Y-1005948D01*
X955534Y-1005948D02*
X936487Y-996424D01*
X936487Y-996424D02*
X926963Y-986900D01*
X926963Y-986900D02*
X917439Y-967853D01*
X917439Y-967853D02*
X907915Y-929758D01*
X907915Y-929758D02*
X907915Y-882139D01*
X907915Y-882139D02*
X917439Y-844043D01*
X917439Y-844043D02*
X926963Y-824996D01*
X926963Y-824996D02*
X936487Y-815472D01*
X936487Y-815472D02*
X955534Y-805948D01*
X1107915Y-1005948D02*
X1107915Y-872615D01*
X1107915Y-891662D02*
X1117439Y-882139D01*
X1117439Y-882139D02*
X1136487Y-872615D01*
X1136487Y-872615D02*
X1165058Y-872615D01*
X1165058Y-872615D02*
X1184106Y-882139D01*
X1184106Y-882139D02*
X1193630Y-901186D01*
X1193630Y-901186D02*
X1193630Y-1005948D01*
X1193630Y-901186D02*
X1203153Y-882139D01*
X1203153Y-882139D02*
X1222201Y-872615D01*
X1222201Y-872615D02*
X1250772Y-872615D01*
X1250772Y-872615D02*
X1269820Y-882139D01*
X1269820Y-882139D02*
X1279344Y-901186D01*
X1279344Y-901186D02*
X1279344Y-1005948D01*
X1374582Y-1005948D02*
X1374582Y-872615D01*
X1374582Y-891662D02*
X1384106Y-882139D01*
X1384106Y-882139D02*
X1403153Y-872615D01*
X1403153Y-872615D02*
X1431725Y-872615D01*
X1431725Y-872615D02*
X1450772Y-882139D01*
X1450772Y-882139D02*
X1460296Y-901186D01*
X1460296Y-901186D02*
X1460296Y-1005948D01*
X1460296Y-901186D02*
X1469820Y-882139D01*
X1469820Y-882139D02*
X1488868Y-872615D01*
X1488868Y-872615D02*
X1517439Y-872615D01*
X1517439Y-872615D02*
X1536487Y-882139D01*
X1536487Y-882139D02*
X1546011Y-901186D01*
X1546011Y-901186D02*
X1546011Y-1005948D01*
X1936487Y-796424D02*
X1765058Y-1053567D01*
X2193630Y-805948D02*
X2212677Y-805948D01*
X2212677Y-805948D02*
X2231725Y-815472D01*
X2231725Y-815472D02*
X2241249Y-824996D01*
X2241249Y-824996D02*
X2250773Y-844043D01*
X2250773Y-844043D02*
X2260296Y-882139D01*
X2260296Y-882139D02*
X2260296Y-929758D01*
X2260296Y-929758D02*
X2250773Y-967853D01*
X2250773Y-967853D02*
X2241249Y-986900D01*
X2241249Y-986900D02*
X2231725Y-996424D01*
X2231725Y-996424D02*
X2212677Y-1005948D01*
X2212677Y-1005948D02*
X2193630Y-1005948D01*
X2193630Y-1005948D02*
X2174582Y-996424D01*
X2174582Y-996424D02*
X2165058Y-986900D01*
X2165058Y-986900D02*
X2155535Y-967853D01*
X2155535Y-967853D02*
X2146011Y-929758D01*
X2146011Y-929758D02*
X2146011Y-882139D01*
X2146011Y-882139D02*
X2155535Y-844043D01*
X2155535Y-844043D02*
X2165058Y-824996D01*
X2165058Y-824996D02*
X2174582Y-815472D01*
X2174582Y-815472D02*
X2193630Y-805948D01*
X2346011Y-986900D02*
X2355535Y-996424D01*
X2355535Y-996424D02*
X2346011Y-1005948D01*
X2346011Y-1005948D02*
X2336487Y-996424D01*
X2336487Y-996424D02*
X2346011Y-986900D01*
X2346011Y-986900D02*
X2346011Y-1005948D01*
X2479344Y-805948D02*
X2498392Y-805948D01*
X2498392Y-805948D02*
X2517439Y-815472D01*
X2517439Y-815472D02*
X2526963Y-824996D01*
X2526963Y-824996D02*
X2536487Y-844043D01*
X2536487Y-844043D02*
X2546011Y-882139D01*
X2546011Y-882139D02*
X2546011Y-929758D01*
X2546011Y-929758D02*
X2536487Y-967853D01*
X2536487Y-967853D02*
X2526963Y-986900D01*
X2526963Y-986900D02*
X2517439Y-996424D01*
X2517439Y-996424D02*
X2498392Y-1005948D01*
X2498392Y-1005948D02*
X2479344Y-1005948D01*
X2479344Y-1005948D02*
X2460296Y-996424D01*
X2460296Y-996424D02*
X2450773Y-986900D01*
X2450773Y-986900D02*
X2441249Y-967853D01*
X2441249Y-967853D02*
X2431725Y-929758D01*
X2431725Y-929758D02*
X2431725Y-882139D01*
X2431725Y-882139D02*
X2441249Y-844043D01*
X2441249Y-844043D02*
X2450773Y-824996D01*
X2450773Y-824996D02*
X2460296Y-815472D01*
X2460296Y-815472D02*
X2479344Y-805948D01*
X2736487Y-1005948D02*
X2622201Y-1005948D01*
X2679344Y-1005948D02*
X2679344Y-805948D01*
X2679344Y-805948D02*
X2660296Y-834520D01*
X2660296Y-834520D02*
X2641249Y-853567D01*
X2641249Y-853567D02*
X2622201Y-863091D01*
X2926963Y-1005948D02*
X2812677Y-1005948D01*
X2869820Y-1005948D02*
X2869820Y-805948D01*
X2869820Y-805948D02*
X2850773Y-834520D01*
X2850773Y-834520D02*
X2831725Y-853567D01*
X2831725Y-853567D02*
X2812677Y-863091D01*
X3041249Y-891662D02*
X3022201Y-882139D01*
X3022201Y-882139D02*
X3012677Y-872615D01*
X3012677Y-872615D02*
X3003154Y-853567D01*
X3003154Y-853567D02*
X3003154Y-844043D01*
X3003154Y-844043D02*
X3012677Y-824996D01*
X3012677Y-824996D02*
X3022201Y-815472D01*
X3022201Y-815472D02*
X3041249Y-805948D01*
X3041249Y-805948D02*
X3079344Y-805948D01*
X3079344Y-805948D02*
X3098392Y-815472D01*
X3098392Y-815472D02*
X3107915Y-824996D01*
X3107915Y-824996D02*
X3117439Y-844043D01*
X3117439Y-844043D02*
X3117439Y-853567D01*
X3117439Y-853567D02*
X3107915Y-872615D01*
X3107915Y-872615D02*
X3098392Y-882139D01*
X3098392Y-882139D02*
X3079344Y-891662D01*
X3079344Y-891662D02*
X3041249Y-891662D01*
X3041249Y-891662D02*
X3022201Y-901186D01*
X3022201Y-901186D02*
X3012677Y-910710D01*
X3012677Y-910710D02*
X3003154Y-929758D01*
X3003154Y-929758D02*
X3003154Y-967853D01*
X3003154Y-967853D02*
X3012677Y-986900D01*
X3012677Y-986900D02*
X3022201Y-996424D01*
X3022201Y-996424D02*
X3041249Y-1005948D01*
X3041249Y-1005948D02*
X3079344Y-1005948D01*
X3079344Y-1005948D02*
X3098392Y-996424D01*
X3098392Y-996424D02*
X3107915Y-986900D01*
X3107915Y-986900D02*
X3117439Y-967853D01*
X3117439Y-967853D02*
X3117439Y-929758D01*
X3117439Y-929758D02*
X3107915Y-910710D01*
X3107915Y-910710D02*
X3098392Y-901186D01*
X3098392Y-901186D02*
X3079344Y-891662D01*
X3193630Y-805948D02*
X3193630Y-844043D01*
X3269820Y-805948D02*
X3269820Y-844043D01*
X3565058Y-1082139D02*
X3555535Y-1072615D01*
X3555535Y-1072615D02*
X3536487Y-1044043D01*
X3536487Y-1044043D02*
X3526963Y-1024996D01*
X3526963Y-1024996D02*
X3517439Y-996424D01*
X3517439Y-996424D02*
X3507916Y-948805D01*
X3507916Y-948805D02*
X3507916Y-910710D01*
X3507916Y-910710D02*
X3517439Y-863091D01*
X3517439Y-863091D02*
X3526963Y-834520D01*
X3526963Y-834520D02*
X3536487Y-815472D01*
X3536487Y-815472D02*
X3555535Y-786900D01*
X3555535Y-786900D02*
X3565058Y-777377D01*
X3622201Y-805948D02*
X3746011Y-805948D01*
X3746011Y-805948D02*
X3679344Y-882139D01*
X3679344Y-882139D02*
X3707916Y-882139D01*
X3707916Y-882139D02*
X3726963Y-891662D01*
X3726963Y-891662D02*
X3736487Y-901186D01*
X3736487Y-901186D02*
X3746011Y-920234D01*
X3746011Y-920234D02*
X3746011Y-967853D01*
X3746011Y-967853D02*
X3736487Y-986900D01*
X3736487Y-986900D02*
X3726963Y-996424D01*
X3726963Y-996424D02*
X3707916Y-1005948D01*
X3707916Y-1005948D02*
X3650773Y-1005948D01*
X3650773Y-1005948D02*
X3631725Y-996424D01*
X3631725Y-996424D02*
X3622201Y-986900D01*
X3869820Y-805948D02*
X3888868Y-805948D01*
X3888868Y-805948D02*
X3907916Y-815472D01*
X3907916Y-815472D02*
X3917439Y-824996D01*
X3917439Y-824996D02*
X3926963Y-844043D01*
X3926963Y-844043D02*
X3936487Y-882139D01*
X3936487Y-882139D02*
X3936487Y-929758D01*
X3936487Y-929758D02*
X3926963Y-967853D01*
X3926963Y-967853D02*
X3917439Y-986900D01*
X3917439Y-986900D02*
X3907916Y-996424D01*
X3907916Y-996424D02*
X3888868Y-1005948D01*
X3888868Y-1005948D02*
X3869820Y-1005948D01*
X3869820Y-1005948D02*
X3850773Y-996424D01*
X3850773Y-996424D02*
X3841249Y-986900D01*
X3841249Y-986900D02*
X3831725Y-967853D01*
X3831725Y-967853D02*
X3822201Y-929758D01*
X3822201Y-929758D02*
X3822201Y-882139D01*
X3822201Y-882139D02*
X3831725Y-844043D01*
X3831725Y-844043D02*
X3841249Y-824996D01*
X3841249Y-824996D02*
X3850773Y-815472D01*
X3850773Y-815472D02*
X3869820Y-805948D01*
X4003154Y-805948D02*
X4126963Y-805948D01*
X4126963Y-805948D02*
X4060296Y-882139D01*
X4060296Y-882139D02*
X4088868Y-882139D01*
X4088868Y-882139D02*
X4107916Y-891662D01*
X4107916Y-891662D02*
X4117439Y-901186D01*
X4117439Y-901186D02*
X4126963Y-920234D01*
X4126963Y-920234D02*
X4126963Y-967853D01*
X4126963Y-967853D02*
X4117439Y-986900D01*
X4117439Y-986900D02*
X4107916Y-996424D01*
X4107916Y-996424D02*
X4088868Y-1005948D01*
X4088868Y-1005948D02*
X4031725Y-1005948D01*
X4031725Y-1005948D02*
X4012677Y-996424D01*
X4012677Y-996424D02*
X4003154Y-986900D01*
X4365059Y-1005948D02*
X4365059Y-805948D01*
X4450773Y-1005948D02*
X4450773Y-901186D01*
X4450773Y-901186D02*
X4441249Y-882139D01*
X4441249Y-882139D02*
X4422201Y-872615D01*
X4422201Y-872615D02*
X4393630Y-872615D01*
X4393630Y-872615D02*
X4374582Y-882139D01*
X4374582Y-882139D02*
X4365059Y-891662D01*
X4574582Y-1005948D02*
X4555535Y-996424D01*
X4555535Y-996424D02*
X4546011Y-986900D01*
X4546011Y-986900D02*
X4536487Y-967853D01*
X4536487Y-967853D02*
X4536487Y-910710D01*
X4536487Y-910710D02*
X4546011Y-891662D01*
X4546011Y-891662D02*
X4555535Y-882139D01*
X4555535Y-882139D02*
X4574582Y-872615D01*
X4574582Y-872615D02*
X4603154Y-872615D01*
X4603154Y-872615D02*
X4622201Y-882139D01*
X4622201Y-882139D02*
X4631725Y-891662D01*
X4631725Y-891662D02*
X4641249Y-910710D01*
X4641249Y-910710D02*
X4641249Y-967853D01*
X4641249Y-967853D02*
X4631725Y-986900D01*
X4631725Y-986900D02*
X4622201Y-996424D01*
X4622201Y-996424D02*
X4603154Y-1005948D01*
X4603154Y-1005948D02*
X4574582Y-1005948D01*
X4755535Y-1005948D02*
X4736487Y-996424D01*
X4736487Y-996424D02*
X4726963Y-977377D01*
X4726963Y-977377D02*
X4726963Y-805948D01*
X4907916Y-996424D02*
X4888868Y-1005948D01*
X4888868Y-1005948D02*
X4850773Y-1005948D01*
X4850773Y-1005948D02*
X4831725Y-996424D01*
X4831725Y-996424D02*
X4822201Y-977377D01*
X4822201Y-977377D02*
X4822201Y-901186D01*
X4822201Y-901186D02*
X4831725Y-882139D01*
X4831725Y-882139D02*
X4850773Y-872615D01*
X4850773Y-872615D02*
X4888868Y-872615D01*
X4888868Y-872615D02*
X4907916Y-882139D01*
X4907916Y-882139D02*
X4917440Y-901186D01*
X4917440Y-901186D02*
X4917440Y-920234D01*
X4917440Y-920234D02*
X4822201Y-939281D01*
X4993630Y-996424D02*
X5012678Y-1005948D01*
X5012678Y-1005948D02*
X5050773Y-1005948D01*
X5050773Y-1005948D02*
X5069821Y-996424D01*
X5069821Y-996424D02*
X5079344Y-977377D01*
X5079344Y-977377D02*
X5079344Y-967853D01*
X5079344Y-967853D02*
X5069821Y-948805D01*
X5069821Y-948805D02*
X5050773Y-939281D01*
X5050773Y-939281D02*
X5022201Y-939281D01*
X5022201Y-939281D02*
X5003154Y-929758D01*
X5003154Y-929758D02*
X4993630Y-910710D01*
X4993630Y-910710D02*
X4993630Y-901186D01*
X4993630Y-901186D02*
X5003154Y-882139D01*
X5003154Y-882139D02*
X5022201Y-872615D01*
X5022201Y-872615D02*
X5050773Y-872615D01*
X5050773Y-872615D02*
X5069821Y-882139D01*
X5146011Y-1082139D02*
X5155535Y-1072615D01*
X5155535Y-1072615D02*
X5174582Y-1044043D01*
X5174582Y-1044043D02*
X5184106Y-1024996D01*
X5184106Y-1024996D02*
X5193630Y-996424D01*
X5193630Y-996424D02*
X5203154Y-948805D01*
X5203154Y-948805D02*
X5203154Y-910710D01*
X5203154Y-910710D02*
X5193630Y-863091D01*
X5193630Y-863091D02*
X5184106Y-834520D01*
X5184106Y-834520D02*
X5174582Y-815472D01*
X5174582Y-815472D02*
X5155535Y-786900D01*
X5155535Y-786900D02*
X5146011Y-777377D01*
D11*
X-40004Y-1148464D02*
X-40004Y-1208464D01*
X-70004Y-1178464D02*
X-10004Y-1178464D01*
D10*
X288868Y-1069948D02*
X307915Y-1069948D01*
X307915Y-1069948D02*
X326963Y-1079472D01*
X326963Y-1079472D02*
X336487Y-1088996D01*
X336487Y-1088996D02*
X346011Y-1108043D01*
X346011Y-1108043D02*
X355534Y-1146139D01*
X355534Y-1146139D02*
X355534Y-1193758D01*
X355534Y-1193758D02*
X346011Y-1231853D01*
X346011Y-1231853D02*
X336487Y-1250901D01*
X336487Y-1250901D02*
X326963Y-1260424D01*
X326963Y-1260424D02*
X307915Y-1269948D01*
X307915Y-1269948D02*
X288868Y-1269948D01*
X288868Y-1269948D02*
X269820Y-1260424D01*
X269820Y-1260424D02*
X260296Y-1250901D01*
X260296Y-1250901D02*
X250772Y-1231853D01*
X250772Y-1231853D02*
X241249Y-1193758D01*
X241249Y-1193758D02*
X241249Y-1146139D01*
X241249Y-1146139D02*
X250772Y-1108043D01*
X250772Y-1108043D02*
X260296Y-1088996D01*
X260296Y-1088996D02*
X269820Y-1079472D01*
X269820Y-1079472D02*
X288868Y-1069948D01*
X441249Y-1250901D02*
X450772Y-1260424D01*
X450772Y-1260424D02*
X441249Y-1269948D01*
X441249Y-1269948D02*
X431725Y-1260424D01*
X431725Y-1260424D02*
X441249Y-1250901D01*
X441249Y-1250901D02*
X441249Y-1269948D01*
X622201Y-1069948D02*
X584106Y-1069948D01*
X584106Y-1069948D02*
X565058Y-1079472D01*
X565058Y-1079472D02*
X555534Y-1088996D01*
X555534Y-1088996D02*
X536487Y-1117567D01*
X536487Y-1117567D02*
X526963Y-1155662D01*
X526963Y-1155662D02*
X526963Y-1231853D01*
X526963Y-1231853D02*
X536487Y-1250901D01*
X536487Y-1250901D02*
X546011Y-1260424D01*
X546011Y-1260424D02*
X565058Y-1269948D01*
X565058Y-1269948D02*
X603153Y-1269948D01*
X603153Y-1269948D02*
X622201Y-1260424D01*
X622201Y-1260424D02*
X631725Y-1250901D01*
X631725Y-1250901D02*
X641249Y-1231853D01*
X641249Y-1231853D02*
X641249Y-1184234D01*
X641249Y-1184234D02*
X631725Y-1165186D01*
X631725Y-1165186D02*
X622201Y-1155662D01*
X622201Y-1155662D02*
X603153Y-1146139D01*
X603153Y-1146139D02*
X565058Y-1146139D01*
X565058Y-1146139D02*
X546011Y-1155662D01*
X546011Y-1155662D02*
X536487Y-1165186D01*
X536487Y-1165186D02*
X526963Y-1184234D01*
X765058Y-1069948D02*
X784106Y-1069948D01*
X784106Y-1069948D02*
X803153Y-1079472D01*
X803153Y-1079472D02*
X812677Y-1088996D01*
X812677Y-1088996D02*
X822201Y-1108043D01*
X822201Y-1108043D02*
X831725Y-1146139D01*
X831725Y-1146139D02*
X831725Y-1193758D01*
X831725Y-1193758D02*
X822201Y-1231853D01*
X822201Y-1231853D02*
X812677Y-1250901D01*
X812677Y-1250901D02*
X803153Y-1260424D01*
X803153Y-1260424D02*
X784106Y-1269948D01*
X784106Y-1269948D02*
X765058Y-1269948D01*
X765058Y-1269948D02*
X746010Y-1260424D01*
X746010Y-1260424D02*
X736487Y-1250901D01*
X736487Y-1250901D02*
X726963Y-1231853D01*
X726963Y-1231853D02*
X717439Y-1193758D01*
X717439Y-1193758D02*
X717439Y-1146139D01*
X717439Y-1146139D02*
X726963Y-1108043D01*
X726963Y-1108043D02*
X736487Y-1088996D01*
X736487Y-1088996D02*
X746010Y-1079472D01*
X746010Y-1079472D02*
X765058Y-1069948D01*
X955534Y-1069948D02*
X974582Y-1069948D01*
X974582Y-1069948D02*
X993630Y-1079472D01*
X993630Y-1079472D02*
X1003153Y-1088996D01*
X1003153Y-1088996D02*
X1012677Y-1108043D01*
X1012677Y-1108043D02*
X1022201Y-1146139D01*
X1022201Y-1146139D02*
X1022201Y-1193758D01*
X1022201Y-1193758D02*
X1012677Y-1231853D01*
X1012677Y-1231853D02*
X1003153Y-1250901D01*
X1003153Y-1250901D02*
X993630Y-1260424D01*
X993630Y-1260424D02*
X974582Y-1269948D01*
X974582Y-1269948D02*
X955534Y-1269948D01*
X955534Y-1269948D02*
X936487Y-1260424D01*
X936487Y-1260424D02*
X926963Y-1250901D01*
X926963Y-1250901D02*
X917439Y-1231853D01*
X917439Y-1231853D02*
X907915Y-1193758D01*
X907915Y-1193758D02*
X907915Y-1146139D01*
X907915Y-1146139D02*
X917439Y-1108043D01*
X917439Y-1108043D02*
X926963Y-1088996D01*
X926963Y-1088996D02*
X936487Y-1079472D01*
X936487Y-1079472D02*
X955534Y-1069948D01*
X1107915Y-1269948D02*
X1107915Y-1136615D01*
X1107915Y-1155662D02*
X1117439Y-1146139D01*
X1117439Y-1146139D02*
X1136487Y-1136615D01*
X1136487Y-1136615D02*
X1165058Y-1136615D01*
X1165058Y-1136615D02*
X1184106Y-1146139D01*
X1184106Y-1146139D02*
X1193630Y-1165186D01*
X1193630Y-1165186D02*
X1193630Y-1269948D01*
X1193630Y-1165186D02*
X1203153Y-1146139D01*
X1203153Y-1146139D02*
X1222201Y-1136615D01*
X1222201Y-1136615D02*
X1250772Y-1136615D01*
X1250772Y-1136615D02*
X1269820Y-1146139D01*
X1269820Y-1146139D02*
X1279344Y-1165186D01*
X1279344Y-1165186D02*
X1279344Y-1269948D01*
X1374582Y-1269948D02*
X1374582Y-1136615D01*
X1374582Y-1155662D02*
X1384106Y-1146139D01*
X1384106Y-1146139D02*
X1403153Y-1136615D01*
X1403153Y-1136615D02*
X1431725Y-1136615D01*
X1431725Y-1136615D02*
X1450772Y-1146139D01*
X1450772Y-1146139D02*
X1460296Y-1165186D01*
X1460296Y-1165186D02*
X1460296Y-1269948D01*
X1460296Y-1165186D02*
X1469820Y-1146139D01*
X1469820Y-1146139D02*
X1488868Y-1136615D01*
X1488868Y-1136615D02*
X1517439Y-1136615D01*
X1517439Y-1136615D02*
X1536487Y-1146139D01*
X1536487Y-1146139D02*
X1546011Y-1165186D01*
X1546011Y-1165186D02*
X1546011Y-1269948D01*
X1936487Y-1060424D02*
X1765058Y-1317567D01*
X2193630Y-1069948D02*
X2212677Y-1069948D01*
X2212677Y-1069948D02*
X2231725Y-1079472D01*
X2231725Y-1079472D02*
X2241249Y-1088996D01*
X2241249Y-1088996D02*
X2250773Y-1108043D01*
X2250773Y-1108043D02*
X2260296Y-1146139D01*
X2260296Y-1146139D02*
X2260296Y-1193758D01*
X2260296Y-1193758D02*
X2250773Y-1231853D01*
X2250773Y-1231853D02*
X2241249Y-1250901D01*
X2241249Y-1250901D02*
X2231725Y-1260424D01*
X2231725Y-1260424D02*
X2212677Y-1269948D01*
X2212677Y-1269948D02*
X2193630Y-1269948D01*
X2193630Y-1269948D02*
X2174582Y-1260424D01*
X2174582Y-1260424D02*
X2165058Y-1250901D01*
X2165058Y-1250901D02*
X2155535Y-1231853D01*
X2155535Y-1231853D02*
X2146011Y-1193758D01*
X2146011Y-1193758D02*
X2146011Y-1146139D01*
X2146011Y-1146139D02*
X2155535Y-1108043D01*
X2155535Y-1108043D02*
X2165058Y-1088996D01*
X2165058Y-1088996D02*
X2174582Y-1079472D01*
X2174582Y-1079472D02*
X2193630Y-1069948D01*
X2346011Y-1250901D02*
X2355535Y-1260424D01*
X2355535Y-1260424D02*
X2346011Y-1269948D01*
X2346011Y-1269948D02*
X2336487Y-1260424D01*
X2336487Y-1260424D02*
X2346011Y-1250901D01*
X2346011Y-1250901D02*
X2346011Y-1269948D01*
X2479344Y-1069948D02*
X2498392Y-1069948D01*
X2498392Y-1069948D02*
X2517439Y-1079472D01*
X2517439Y-1079472D02*
X2526963Y-1088996D01*
X2526963Y-1088996D02*
X2536487Y-1108043D01*
X2536487Y-1108043D02*
X2546011Y-1146139D01*
X2546011Y-1146139D02*
X2546011Y-1193758D01*
X2546011Y-1193758D02*
X2536487Y-1231853D01*
X2536487Y-1231853D02*
X2526963Y-1250901D01*
X2526963Y-1250901D02*
X2517439Y-1260424D01*
X2517439Y-1260424D02*
X2498392Y-1269948D01*
X2498392Y-1269948D02*
X2479344Y-1269948D01*
X2479344Y-1269948D02*
X2460296Y-1260424D01*
X2460296Y-1260424D02*
X2450773Y-1250901D01*
X2450773Y-1250901D02*
X2441249Y-1231853D01*
X2441249Y-1231853D02*
X2431725Y-1193758D01*
X2431725Y-1193758D02*
X2431725Y-1146139D01*
X2431725Y-1146139D02*
X2441249Y-1108043D01*
X2441249Y-1108043D02*
X2450773Y-1088996D01*
X2450773Y-1088996D02*
X2460296Y-1079472D01*
X2460296Y-1079472D02*
X2479344Y-1069948D01*
X2622201Y-1088996D02*
X2631725Y-1079472D01*
X2631725Y-1079472D02*
X2650773Y-1069948D01*
X2650773Y-1069948D02*
X2698392Y-1069948D01*
X2698392Y-1069948D02*
X2717439Y-1079472D01*
X2717439Y-1079472D02*
X2726963Y-1088996D01*
X2726963Y-1088996D02*
X2736487Y-1108043D01*
X2736487Y-1108043D02*
X2736487Y-1127091D01*
X2736487Y-1127091D02*
X2726963Y-1155662D01*
X2726963Y-1155662D02*
X2612677Y-1269948D01*
X2612677Y-1269948D02*
X2736487Y-1269948D01*
X2803154Y-1069948D02*
X2926963Y-1069948D01*
X2926963Y-1069948D02*
X2860296Y-1146139D01*
X2860296Y-1146139D02*
X2888868Y-1146139D01*
X2888868Y-1146139D02*
X2907915Y-1155662D01*
X2907915Y-1155662D02*
X2917439Y-1165186D01*
X2917439Y-1165186D02*
X2926963Y-1184234D01*
X2926963Y-1184234D02*
X2926963Y-1231853D01*
X2926963Y-1231853D02*
X2917439Y-1250901D01*
X2917439Y-1250901D02*
X2907915Y-1260424D01*
X2907915Y-1260424D02*
X2888868Y-1269948D01*
X2888868Y-1269948D02*
X2831725Y-1269948D01*
X2831725Y-1269948D02*
X2812677Y-1260424D01*
X2812677Y-1260424D02*
X2803154Y-1250901D01*
X3098392Y-1069948D02*
X3060296Y-1069948D01*
X3060296Y-1069948D02*
X3041249Y-1079472D01*
X3041249Y-1079472D02*
X3031725Y-1088996D01*
X3031725Y-1088996D02*
X3012677Y-1117567D01*
X3012677Y-1117567D02*
X3003154Y-1155662D01*
X3003154Y-1155662D02*
X3003154Y-1231853D01*
X3003154Y-1231853D02*
X3012677Y-1250901D01*
X3012677Y-1250901D02*
X3022201Y-1260424D01*
X3022201Y-1260424D02*
X3041249Y-1269948D01*
X3041249Y-1269948D02*
X3079344Y-1269948D01*
X3079344Y-1269948D02*
X3098392Y-1260424D01*
X3098392Y-1260424D02*
X3107915Y-1250901D01*
X3107915Y-1250901D02*
X3117439Y-1231853D01*
X3117439Y-1231853D02*
X3117439Y-1184234D01*
X3117439Y-1184234D02*
X3107915Y-1165186D01*
X3107915Y-1165186D02*
X3098392Y-1155662D01*
X3098392Y-1155662D02*
X3079344Y-1146139D01*
X3079344Y-1146139D02*
X3041249Y-1146139D01*
X3041249Y-1146139D02*
X3022201Y-1155662D01*
X3022201Y-1155662D02*
X3012677Y-1165186D01*
X3012677Y-1165186D02*
X3003154Y-1184234D01*
X3193630Y-1069948D02*
X3193630Y-1108043D01*
X3269820Y-1069948D02*
X3269820Y-1108043D01*
X3565058Y-1346139D02*
X3555535Y-1336615D01*
X3555535Y-1336615D02*
X3536487Y-1308043D01*
X3536487Y-1308043D02*
X3526963Y-1288996D01*
X3526963Y-1288996D02*
X3517439Y-1260424D01*
X3517439Y-1260424D02*
X3507916Y-1212805D01*
X3507916Y-1212805D02*
X3507916Y-1174710D01*
X3507916Y-1174710D02*
X3517439Y-1127091D01*
X3517439Y-1127091D02*
X3526963Y-1098520D01*
X3526963Y-1098520D02*
X3536487Y-1079472D01*
X3536487Y-1079472D02*
X3555535Y-1050901D01*
X3555535Y-1050901D02*
X3565058Y-1041377D01*
X3679344Y-1069948D02*
X3698392Y-1069948D01*
X3698392Y-1069948D02*
X3717439Y-1079472D01*
X3717439Y-1079472D02*
X3726963Y-1088996D01*
X3726963Y-1088996D02*
X3736487Y-1108043D01*
X3736487Y-1108043D02*
X3746011Y-1146139D01*
X3746011Y-1146139D02*
X3746011Y-1193758D01*
X3746011Y-1193758D02*
X3736487Y-1231853D01*
X3736487Y-1231853D02*
X3726963Y-1250901D01*
X3726963Y-1250901D02*
X3717439Y-1260424D01*
X3717439Y-1260424D02*
X3698392Y-1269948D01*
X3698392Y-1269948D02*
X3679344Y-1269948D01*
X3679344Y-1269948D02*
X3660296Y-1260424D01*
X3660296Y-1260424D02*
X3650773Y-1250901D01*
X3650773Y-1250901D02*
X3641249Y-1231853D01*
X3641249Y-1231853D02*
X3631725Y-1193758D01*
X3631725Y-1193758D02*
X3631725Y-1146139D01*
X3631725Y-1146139D02*
X3641249Y-1108043D01*
X3641249Y-1108043D02*
X3650773Y-1088996D01*
X3650773Y-1088996D02*
X3660296Y-1079472D01*
X3660296Y-1079472D02*
X3679344Y-1069948D01*
X3984106Y-1269948D02*
X3984106Y-1069948D01*
X4069820Y-1269948D02*
X4069820Y-1165186D01*
X4069820Y-1165186D02*
X4060297Y-1146139D01*
X4060297Y-1146139D02*
X4041249Y-1136615D01*
X4041249Y-1136615D02*
X4012677Y-1136615D01*
X4012677Y-1136615D02*
X3993630Y-1146139D01*
X3993630Y-1146139D02*
X3984106Y-1155662D01*
X4193630Y-1269948D02*
X4174582Y-1260424D01*
X4174582Y-1260424D02*
X4165058Y-1250901D01*
X4165058Y-1250901D02*
X4155535Y-1231853D01*
X4155535Y-1231853D02*
X4155535Y-1174710D01*
X4155535Y-1174710D02*
X4165058Y-1155662D01*
X4165058Y-1155662D02*
X4174582Y-1146139D01*
X4174582Y-1146139D02*
X4193630Y-1136615D01*
X4193630Y-1136615D02*
X4222201Y-1136615D01*
X4222201Y-1136615D02*
X4241249Y-1146139D01*
X4241249Y-1146139D02*
X4250773Y-1155662D01*
X4250773Y-1155662D02*
X4260297Y-1174710D01*
X4260297Y-1174710D02*
X4260297Y-1231853D01*
X4260297Y-1231853D02*
X4250773Y-1250901D01*
X4250773Y-1250901D02*
X4241249Y-1260424D01*
X4241249Y-1260424D02*
X4222201Y-1269948D01*
X4222201Y-1269948D02*
X4193630Y-1269948D01*
X4374582Y-1269948D02*
X4355535Y-1260424D01*
X4355535Y-1260424D02*
X4346011Y-1241377D01*
X4346011Y-1241377D02*
X4346011Y-1069948D01*
X4526963Y-1260424D02*
X4507916Y-1269948D01*
X4507916Y-1269948D02*
X4469820Y-1269948D01*
X4469820Y-1269948D02*
X4450773Y-1260424D01*
X4450773Y-1260424D02*
X4441249Y-1241377D01*
X4441249Y-1241377D02*
X4441249Y-1165186D01*
X4441249Y-1165186D02*
X4450773Y-1146139D01*
X4450773Y-1146139D02*
X4469820Y-1136615D01*
X4469820Y-1136615D02*
X4507916Y-1136615D01*
X4507916Y-1136615D02*
X4526963Y-1146139D01*
X4526963Y-1146139D02*
X4536487Y-1165186D01*
X4536487Y-1165186D02*
X4536487Y-1184234D01*
X4536487Y-1184234D02*
X4441249Y-1203282D01*
X4612678Y-1260424D02*
X4631725Y-1269948D01*
X4631725Y-1269948D02*
X4669820Y-1269948D01*
X4669820Y-1269948D02*
X4688868Y-1260424D01*
X4688868Y-1260424D02*
X4698392Y-1241377D01*
X4698392Y-1241377D02*
X4698392Y-1231853D01*
X4698392Y-1231853D02*
X4688868Y-1212805D01*
X4688868Y-1212805D02*
X4669820Y-1203282D01*
X4669820Y-1203282D02*
X4641249Y-1203282D01*
X4641249Y-1203282D02*
X4622201Y-1193758D01*
X4622201Y-1193758D02*
X4612678Y-1174710D01*
X4612678Y-1174710D02*
X4612678Y-1165186D01*
X4612678Y-1165186D02*
X4622201Y-1146139D01*
X4622201Y-1146139D02*
X4641249Y-1136615D01*
X4641249Y-1136615D02*
X4669820Y-1136615D01*
X4669820Y-1136615D02*
X4688868Y-1146139D01*
X4936487Y-1193758D02*
X5088868Y-1193758D01*
X5012678Y-1269948D02*
X5012678Y-1117567D01*
X5422202Y-1136615D02*
X5422202Y-1269948D01*
X5374582Y-1060424D02*
X5326963Y-1203282D01*
X5326963Y-1203282D02*
X5450773Y-1203282D01*
X5669821Y-1260424D02*
X5688868Y-1269948D01*
X5688868Y-1269948D02*
X5726963Y-1269948D01*
X5726963Y-1269948D02*
X5746011Y-1260424D01*
X5746011Y-1260424D02*
X5755535Y-1241377D01*
X5755535Y-1241377D02*
X5755535Y-1231853D01*
X5755535Y-1231853D02*
X5746011Y-1212805D01*
X5746011Y-1212805D02*
X5726963Y-1203282D01*
X5726963Y-1203282D02*
X5698392Y-1203282D01*
X5698392Y-1203282D02*
X5679344Y-1193758D01*
X5679344Y-1193758D02*
X5669821Y-1174710D01*
X5669821Y-1174710D02*
X5669821Y-1165186D01*
X5669821Y-1165186D02*
X5679344Y-1146139D01*
X5679344Y-1146139D02*
X5698392Y-1136615D01*
X5698392Y-1136615D02*
X5726963Y-1136615D01*
X5726963Y-1136615D02*
X5746011Y-1146139D01*
X5869821Y-1269948D02*
X5850773Y-1260424D01*
X5850773Y-1260424D02*
X5841249Y-1241377D01*
X5841249Y-1241377D02*
X5841249Y-1069948D01*
X5974582Y-1269948D02*
X5955535Y-1260424D01*
X5955535Y-1260424D02*
X5946011Y-1250901D01*
X5946011Y-1250901D02*
X5936487Y-1231853D01*
X5936487Y-1231853D02*
X5936487Y-1174710D01*
X5936487Y-1174710D02*
X5946011Y-1155662D01*
X5946011Y-1155662D02*
X5955535Y-1146139D01*
X5955535Y-1146139D02*
X5974582Y-1136615D01*
X5974582Y-1136615D02*
X6003154Y-1136615D01*
X6003154Y-1136615D02*
X6022202Y-1146139D01*
X6022202Y-1146139D02*
X6031725Y-1155662D01*
X6031725Y-1155662D02*
X6041249Y-1174710D01*
X6041249Y-1174710D02*
X6041249Y-1231853D01*
X6041249Y-1231853D02*
X6031725Y-1250901D01*
X6031725Y-1250901D02*
X6022202Y-1260424D01*
X6022202Y-1260424D02*
X6003154Y-1269948D01*
X6003154Y-1269948D02*
X5974582Y-1269948D01*
X6098392Y-1136615D02*
X6174582Y-1136615D01*
X6126963Y-1069948D02*
X6126963Y-1241377D01*
X6126963Y-1241377D02*
X6136487Y-1260424D01*
X6136487Y-1260424D02*
X6155535Y-1269948D01*
X6155535Y-1269948D02*
X6174582Y-1269948D01*
X6231725Y-1260424D02*
X6250773Y-1269948D01*
X6250773Y-1269948D02*
X6288868Y-1269948D01*
X6288868Y-1269948D02*
X6307916Y-1260424D01*
X6307916Y-1260424D02*
X6317440Y-1241377D01*
X6317440Y-1241377D02*
X6317440Y-1231853D01*
X6317440Y-1231853D02*
X6307916Y-1212805D01*
X6307916Y-1212805D02*
X6288868Y-1203282D01*
X6288868Y-1203282D02*
X6260297Y-1203282D01*
X6260297Y-1203282D02*
X6241249Y-1193758D01*
X6241249Y-1193758D02*
X6231725Y-1174710D01*
X6231725Y-1174710D02*
X6231725Y-1165186D01*
X6231725Y-1165186D02*
X6241249Y-1146139D01*
X6241249Y-1146139D02*
X6260297Y-1136615D01*
X6260297Y-1136615D02*
X6288868Y-1136615D01*
X6288868Y-1136615D02*
X6307916Y-1146139D01*
X6384106Y-1346139D02*
X6393630Y-1336615D01*
X6393630Y-1336615D02*
X6412678Y-1308043D01*
X6412678Y-1308043D02*
X6422202Y-1288996D01*
X6422202Y-1288996D02*
X6431725Y-1260424D01*
X6431725Y-1260424D02*
X6441249Y-1212805D01*
X6441249Y-1212805D02*
X6441249Y-1174710D01*
X6441249Y-1174710D02*
X6431725Y-1127091D01*
X6431725Y-1127091D02*
X6422202Y-1098520D01*
X6422202Y-1098520D02*
X6412678Y-1079472D01*
X6412678Y-1079472D02*
X6393630Y-1050901D01*
X6393630Y-1050901D02*
X6384106Y-1041377D01*
D11*
X-24649Y-1477820D02*
X-24649Y-1407109D01*
X-95360Y-1407109D01*
X-95360Y-1477820D01*
X-24649Y-1477820D01*
D10*
X355534Y-1533948D02*
X241249Y-1533948D01*
X298391Y-1533948D02*
X298391Y-1333948D01*
X298391Y-1333948D02*
X279344Y-1362520D01*
X279344Y-1362520D02*
X260296Y-1381567D01*
X260296Y-1381567D02*
X241249Y-1391091D01*
X441249Y-1514900D02*
X450772Y-1524424D01*
X450772Y-1524424D02*
X441249Y-1533948D01*
X441249Y-1533948D02*
X431725Y-1524424D01*
X431725Y-1524424D02*
X441249Y-1514900D01*
X441249Y-1514900D02*
X441249Y-1533948D01*
X574582Y-1333948D02*
X593630Y-1333948D01*
X593630Y-1333948D02*
X612677Y-1343472D01*
X612677Y-1343472D02*
X622201Y-1352996D01*
X622201Y-1352996D02*
X631725Y-1372043D01*
X631725Y-1372043D02*
X641249Y-1410139D01*
X641249Y-1410139D02*
X641249Y-1457758D01*
X641249Y-1457758D02*
X631725Y-1495853D01*
X631725Y-1495853D02*
X622201Y-1514900D01*
X622201Y-1514900D02*
X612677Y-1524424D01*
X612677Y-1524424D02*
X593630Y-1533948D01*
X593630Y-1533948D02*
X574582Y-1533948D01*
X574582Y-1533948D02*
X555534Y-1524424D01*
X555534Y-1524424D02*
X546011Y-1514900D01*
X546011Y-1514900D02*
X536487Y-1495853D01*
X536487Y-1495853D02*
X526963Y-1457758D01*
X526963Y-1457758D02*
X526963Y-1410139D01*
X526963Y-1410139D02*
X536487Y-1372043D01*
X536487Y-1372043D02*
X546011Y-1352996D01*
X546011Y-1352996D02*
X555534Y-1343472D01*
X555534Y-1343472D02*
X574582Y-1333948D01*
X765058Y-1333948D02*
X784106Y-1333948D01*
X784106Y-1333948D02*
X803153Y-1343472D01*
X803153Y-1343472D02*
X812677Y-1352996D01*
X812677Y-1352996D02*
X822201Y-1372043D01*
X822201Y-1372043D02*
X831725Y-1410139D01*
X831725Y-1410139D02*
X831725Y-1457758D01*
X831725Y-1457758D02*
X822201Y-1495853D01*
X822201Y-1495853D02*
X812677Y-1514900D01*
X812677Y-1514900D02*
X803153Y-1524424D01*
X803153Y-1524424D02*
X784106Y-1533948D01*
X784106Y-1533948D02*
X765058Y-1533948D01*
X765058Y-1533948D02*
X746010Y-1524424D01*
X746010Y-1524424D02*
X736487Y-1514900D01*
X736487Y-1514900D02*
X726963Y-1495853D01*
X726963Y-1495853D02*
X717439Y-1457758D01*
X717439Y-1457758D02*
X717439Y-1410139D01*
X717439Y-1410139D02*
X726963Y-1372043D01*
X726963Y-1372043D02*
X736487Y-1352996D01*
X736487Y-1352996D02*
X746010Y-1343472D01*
X746010Y-1343472D02*
X765058Y-1333948D01*
X955534Y-1333948D02*
X974582Y-1333948D01*
X974582Y-1333948D02*
X993630Y-1343472D01*
X993630Y-1343472D02*
X1003153Y-1352996D01*
X1003153Y-1352996D02*
X1012677Y-1372043D01*
X1012677Y-1372043D02*
X1022201Y-1410139D01*
X1022201Y-1410139D02*
X1022201Y-1457758D01*
X1022201Y-1457758D02*
X1012677Y-1495853D01*
X1012677Y-1495853D02*
X1003153Y-1514900D01*
X1003153Y-1514900D02*
X993630Y-1524424D01*
X993630Y-1524424D02*
X974582Y-1533948D01*
X974582Y-1533948D02*
X955534Y-1533948D01*
X955534Y-1533948D02*
X936487Y-1524424D01*
X936487Y-1524424D02*
X926963Y-1514900D01*
X926963Y-1514900D02*
X917439Y-1495853D01*
X917439Y-1495853D02*
X907915Y-1457758D01*
X907915Y-1457758D02*
X907915Y-1410139D01*
X907915Y-1410139D02*
X917439Y-1372043D01*
X917439Y-1372043D02*
X926963Y-1352996D01*
X926963Y-1352996D02*
X936487Y-1343472D01*
X936487Y-1343472D02*
X955534Y-1333948D01*
X1107915Y-1533948D02*
X1107915Y-1400615D01*
X1107915Y-1419662D02*
X1117439Y-1410139D01*
X1117439Y-1410139D02*
X1136487Y-1400615D01*
X1136487Y-1400615D02*
X1165058Y-1400615D01*
X1165058Y-1400615D02*
X1184106Y-1410139D01*
X1184106Y-1410139D02*
X1193630Y-1429186D01*
X1193630Y-1429186D02*
X1193630Y-1533948D01*
X1193630Y-1429186D02*
X1203153Y-1410139D01*
X1203153Y-1410139D02*
X1222201Y-1400615D01*
X1222201Y-1400615D02*
X1250772Y-1400615D01*
X1250772Y-1400615D02*
X1269820Y-1410139D01*
X1269820Y-1410139D02*
X1279344Y-1429186D01*
X1279344Y-1429186D02*
X1279344Y-1533948D01*
X1374582Y-1533948D02*
X1374582Y-1400615D01*
X1374582Y-1419662D02*
X1384106Y-1410139D01*
X1384106Y-1410139D02*
X1403153Y-1400615D01*
X1403153Y-1400615D02*
X1431725Y-1400615D01*
X1431725Y-1400615D02*
X1450772Y-1410139D01*
X1450772Y-1410139D02*
X1460296Y-1429186D01*
X1460296Y-1429186D02*
X1460296Y-1533948D01*
X1460296Y-1429186D02*
X1469820Y-1410139D01*
X1469820Y-1410139D02*
X1488868Y-1400615D01*
X1488868Y-1400615D02*
X1517439Y-1400615D01*
X1517439Y-1400615D02*
X1536487Y-1410139D01*
X1536487Y-1410139D02*
X1546011Y-1429186D01*
X1546011Y-1429186D02*
X1546011Y-1533948D01*
X1936487Y-1324424D02*
X1765058Y-1581567D01*
X2193630Y-1333948D02*
X2212677Y-1333948D01*
X2212677Y-1333948D02*
X2231725Y-1343472D01*
X2231725Y-1343472D02*
X2241249Y-1352996D01*
X2241249Y-1352996D02*
X2250773Y-1372043D01*
X2250773Y-1372043D02*
X2260296Y-1410139D01*
X2260296Y-1410139D02*
X2260296Y-1457758D01*
X2260296Y-1457758D02*
X2250773Y-1495853D01*
X2250773Y-1495853D02*
X2241249Y-1514900D01*
X2241249Y-1514900D02*
X2231725Y-1524424D01*
X2231725Y-1524424D02*
X2212677Y-1533948D01*
X2212677Y-1533948D02*
X2193630Y-1533948D01*
X2193630Y-1533948D02*
X2174582Y-1524424D01*
X2174582Y-1524424D02*
X2165058Y-1514900D01*
X2165058Y-1514900D02*
X2155535Y-1495853D01*
X2155535Y-1495853D02*
X2146011Y-1457758D01*
X2146011Y-1457758D02*
X2146011Y-1410139D01*
X2146011Y-1410139D02*
X2155535Y-1372043D01*
X2155535Y-1372043D02*
X2165058Y-1352996D01*
X2165058Y-1352996D02*
X2174582Y-1343472D01*
X2174582Y-1343472D02*
X2193630Y-1333948D01*
X2346011Y-1514900D02*
X2355535Y-1524424D01*
X2355535Y-1524424D02*
X2346011Y-1533948D01*
X2346011Y-1533948D02*
X2336487Y-1524424D01*
X2336487Y-1524424D02*
X2346011Y-1514900D01*
X2346011Y-1514900D02*
X2346011Y-1533948D01*
X2479344Y-1333948D02*
X2498392Y-1333948D01*
X2498392Y-1333948D02*
X2517439Y-1343472D01*
X2517439Y-1343472D02*
X2526963Y-1352996D01*
X2526963Y-1352996D02*
X2536487Y-1372043D01*
X2536487Y-1372043D02*
X2546011Y-1410139D01*
X2546011Y-1410139D02*
X2546011Y-1457758D01*
X2546011Y-1457758D02*
X2536487Y-1495853D01*
X2536487Y-1495853D02*
X2526963Y-1514900D01*
X2526963Y-1514900D02*
X2517439Y-1524424D01*
X2517439Y-1524424D02*
X2498392Y-1533948D01*
X2498392Y-1533948D02*
X2479344Y-1533948D01*
X2479344Y-1533948D02*
X2460296Y-1524424D01*
X2460296Y-1524424D02*
X2450773Y-1514900D01*
X2450773Y-1514900D02*
X2441249Y-1495853D01*
X2441249Y-1495853D02*
X2431725Y-1457758D01*
X2431725Y-1457758D02*
X2431725Y-1410139D01*
X2431725Y-1410139D02*
X2441249Y-1372043D01*
X2441249Y-1372043D02*
X2450773Y-1352996D01*
X2450773Y-1352996D02*
X2460296Y-1343472D01*
X2460296Y-1343472D02*
X2479344Y-1333948D01*
X2612677Y-1333948D02*
X2736487Y-1333948D01*
X2736487Y-1333948D02*
X2669820Y-1410139D01*
X2669820Y-1410139D02*
X2698392Y-1410139D01*
X2698392Y-1410139D02*
X2717439Y-1419662D01*
X2717439Y-1419662D02*
X2726963Y-1429186D01*
X2726963Y-1429186D02*
X2736487Y-1448234D01*
X2736487Y-1448234D02*
X2736487Y-1495853D01*
X2736487Y-1495853D02*
X2726963Y-1514900D01*
X2726963Y-1514900D02*
X2717439Y-1524424D01*
X2717439Y-1524424D02*
X2698392Y-1533948D01*
X2698392Y-1533948D02*
X2641249Y-1533948D01*
X2641249Y-1533948D02*
X2622201Y-1524424D01*
X2622201Y-1524424D02*
X2612677Y-1514900D01*
X2831725Y-1533948D02*
X2869820Y-1533948D01*
X2869820Y-1533948D02*
X2888868Y-1524424D01*
X2888868Y-1524424D02*
X2898392Y-1514900D01*
X2898392Y-1514900D02*
X2917439Y-1486329D01*
X2917439Y-1486329D02*
X2926963Y-1448234D01*
X2926963Y-1448234D02*
X2926963Y-1372043D01*
X2926963Y-1372043D02*
X2917439Y-1352996D01*
X2917439Y-1352996D02*
X2907915Y-1343472D01*
X2907915Y-1343472D02*
X2888868Y-1333948D01*
X2888868Y-1333948D02*
X2850773Y-1333948D01*
X2850773Y-1333948D02*
X2831725Y-1343472D01*
X2831725Y-1343472D02*
X2822201Y-1352996D01*
X2822201Y-1352996D02*
X2812677Y-1372043D01*
X2812677Y-1372043D02*
X2812677Y-1419662D01*
X2812677Y-1419662D02*
X2822201Y-1438710D01*
X2822201Y-1438710D02*
X2831725Y-1448234D01*
X2831725Y-1448234D02*
X2850773Y-1457758D01*
X2850773Y-1457758D02*
X2888868Y-1457758D01*
X2888868Y-1457758D02*
X2907915Y-1448234D01*
X2907915Y-1448234D02*
X2917439Y-1438710D01*
X2917439Y-1438710D02*
X2926963Y-1419662D01*
X3098392Y-1400615D02*
X3098392Y-1533948D01*
X3050773Y-1324424D02*
X3003154Y-1467281D01*
X3003154Y-1467281D02*
X3126963Y-1467281D01*
X3193630Y-1333948D02*
X3193630Y-1372043D01*
X3269820Y-1333948D02*
X3269820Y-1372043D01*
X3565058Y-1610139D02*
X3555535Y-1600615D01*
X3555535Y-1600615D02*
X3536487Y-1572043D01*
X3536487Y-1572043D02*
X3526963Y-1552996D01*
X3526963Y-1552996D02*
X3517439Y-1524424D01*
X3517439Y-1524424D02*
X3507916Y-1476805D01*
X3507916Y-1476805D02*
X3507916Y-1438710D01*
X3507916Y-1438710D02*
X3517439Y-1391091D01*
X3517439Y-1391091D02*
X3526963Y-1362520D01*
X3526963Y-1362520D02*
X3536487Y-1343472D01*
X3536487Y-1343472D02*
X3555535Y-1314901D01*
X3555535Y-1314901D02*
X3565058Y-1305377D01*
X3746011Y-1533948D02*
X3631725Y-1533948D01*
X3688868Y-1533948D02*
X3688868Y-1333948D01*
X3688868Y-1333948D02*
X3669820Y-1362520D01*
X3669820Y-1362520D02*
X3650773Y-1381567D01*
X3650773Y-1381567D02*
X3631725Y-1391091D01*
X3860296Y-1419662D02*
X3841249Y-1410139D01*
X3841249Y-1410139D02*
X3831725Y-1400615D01*
X3831725Y-1400615D02*
X3822201Y-1381567D01*
X3822201Y-1381567D02*
X3822201Y-1372043D01*
X3822201Y-1372043D02*
X3831725Y-1352996D01*
X3831725Y-1352996D02*
X3841249Y-1343472D01*
X3841249Y-1343472D02*
X3860296Y-1333948D01*
X3860296Y-1333948D02*
X3898392Y-1333948D01*
X3898392Y-1333948D02*
X3917439Y-1343472D01*
X3917439Y-1343472D02*
X3926963Y-1352996D01*
X3926963Y-1352996D02*
X3936487Y-1372043D01*
X3936487Y-1372043D02*
X3936487Y-1381567D01*
X3936487Y-1381567D02*
X3926963Y-1400615D01*
X3926963Y-1400615D02*
X3917439Y-1410139D01*
X3917439Y-1410139D02*
X3898392Y-1419662D01*
X3898392Y-1419662D02*
X3860296Y-1419662D01*
X3860296Y-1419662D02*
X3841249Y-1429186D01*
X3841249Y-1429186D02*
X3831725Y-1438710D01*
X3831725Y-1438710D02*
X3822201Y-1457758D01*
X3822201Y-1457758D02*
X3822201Y-1495853D01*
X3822201Y-1495853D02*
X3831725Y-1514900D01*
X3831725Y-1514900D02*
X3841249Y-1524424D01*
X3841249Y-1524424D02*
X3860296Y-1533948D01*
X3860296Y-1533948D02*
X3898392Y-1533948D01*
X3898392Y-1533948D02*
X3917439Y-1524424D01*
X3917439Y-1524424D02*
X3926963Y-1514900D01*
X3926963Y-1514900D02*
X3936487Y-1495853D01*
X3936487Y-1495853D02*
X3936487Y-1457758D01*
X3936487Y-1457758D02*
X3926963Y-1438710D01*
X3926963Y-1438710D02*
X3917439Y-1429186D01*
X3917439Y-1429186D02*
X3898392Y-1419662D01*
X4174582Y-1533948D02*
X4174582Y-1333948D01*
X4260297Y-1533948D02*
X4260297Y-1429186D01*
X4260297Y-1429186D02*
X4250773Y-1410139D01*
X4250773Y-1410139D02*
X4231725Y-1400615D01*
X4231725Y-1400615D02*
X4203154Y-1400615D01*
X4203154Y-1400615D02*
X4184106Y-1410139D01*
X4184106Y-1410139D02*
X4174582Y-1419662D01*
X4384106Y-1533948D02*
X4365059Y-1524424D01*
X4365059Y-1524424D02*
X4355535Y-1514900D01*
X4355535Y-1514900D02*
X4346011Y-1495853D01*
X4346011Y-1495853D02*
X4346011Y-1438710D01*
X4346011Y-1438710D02*
X4355535Y-1419662D01*
X4355535Y-1419662D02*
X4365059Y-1410139D01*
X4365059Y-1410139D02*
X4384106Y-1400615D01*
X4384106Y-1400615D02*
X4412678Y-1400615D01*
X4412678Y-1400615D02*
X4431725Y-1410139D01*
X4431725Y-1410139D02*
X4441249Y-1419662D01*
X4441249Y-1419662D02*
X4450773Y-1438710D01*
X4450773Y-1438710D02*
X4450773Y-1495853D01*
X4450773Y-1495853D02*
X4441249Y-1514900D01*
X4441249Y-1514900D02*
X4431725Y-1524424D01*
X4431725Y-1524424D02*
X4412678Y-1533948D01*
X4412678Y-1533948D02*
X4384106Y-1533948D01*
X4565059Y-1533948D02*
X4546011Y-1524424D01*
X4546011Y-1524424D02*
X4536487Y-1505377D01*
X4536487Y-1505377D02*
X4536487Y-1333948D01*
X4717440Y-1524424D02*
X4698392Y-1533948D01*
X4698392Y-1533948D02*
X4660297Y-1533948D01*
X4660297Y-1533948D02*
X4641249Y-1524424D01*
X4641249Y-1524424D02*
X4631725Y-1505377D01*
X4631725Y-1505377D02*
X4631725Y-1429186D01*
X4631725Y-1429186D02*
X4641249Y-1410139D01*
X4641249Y-1410139D02*
X4660297Y-1400615D01*
X4660297Y-1400615D02*
X4698392Y-1400615D01*
X4698392Y-1400615D02*
X4717440Y-1410139D01*
X4717440Y-1410139D02*
X4726963Y-1429186D01*
X4726963Y-1429186D02*
X4726963Y-1448234D01*
X4726963Y-1448234D02*
X4631725Y-1467281D01*
X4803154Y-1524424D02*
X4822201Y-1533948D01*
X4822201Y-1533948D02*
X4860297Y-1533948D01*
X4860297Y-1533948D02*
X4879344Y-1524424D01*
X4879344Y-1524424D02*
X4888868Y-1505377D01*
X4888868Y-1505377D02*
X4888868Y-1495853D01*
X4888868Y-1495853D02*
X4879344Y-1476805D01*
X4879344Y-1476805D02*
X4860297Y-1467281D01*
X4860297Y-1467281D02*
X4831725Y-1467281D01*
X4831725Y-1467281D02*
X4812678Y-1457758D01*
X4812678Y-1457758D02*
X4803154Y-1438710D01*
X4803154Y-1438710D02*
X4803154Y-1429186D01*
X4803154Y-1429186D02*
X4812678Y-1410139D01*
X4812678Y-1410139D02*
X4831725Y-1400615D01*
X4831725Y-1400615D02*
X4860297Y-1400615D01*
X4860297Y-1400615D02*
X4879344Y-1410139D01*
X4955535Y-1610139D02*
X4965059Y-1600615D01*
X4965059Y-1600615D02*
X4984106Y-1572043D01*
X4984106Y-1572043D02*
X4993630Y-1552996D01*
X4993630Y-1552996D02*
X5003154Y-1524424D01*
X5003154Y-1524424D02*
X5012678Y-1476805D01*
X5012678Y-1476805D02*
X5012678Y-1438710D01*
X5012678Y-1438710D02*
X5003154Y-1391091D01*
X5003154Y-1391091D02*
X4993630Y-1362520D01*
X4993630Y-1362520D02*
X4984106Y-1343472D01*
X4984106Y-1343472D02*
X4965059Y-1314901D01*
X4965059Y-1314901D02*
X4955535Y-1305377D01*
M02*
