G04 #@! TF.GenerationSoftware,KiCad,Pcbnew,9.0.6*
G04 #@! TF.CreationDate,2026-01-29T23:38:36+01:00*
G04 #@! TF.ProjectId,esp-atx-power,6573702d-6174-4782-9d70-6f7765722e6b,2.1.0*
G04 #@! TF.SameCoordinates,PX6f6d640PY7445a00*
G04 #@! TF.FileFunction,Legend,Top*
G04 #@! TF.FilePolarity,Positive*
%FSLAX46Y46*%
G04 Gerber Fmt 4.6, Leading zero omitted, Abs format (unit mm)*
G04 Created by KiCad (PCBNEW 9.0.6) date 2026-01-29 23:38:36*
%MOMM*%
%LPD*%
G01*
G04 APERTURE LIST*
G04 Aperture macros list*
%AMRoundRect*
0 Rectangle with rounded corners*
0 $1 Rounding radius*
0 $2 $3 $4 $5 $6 $7 $8 $9 X,Y pos of 4 corners*
0 Add a 4 corners polygon primitive as box body*
4,1,4,$2,$3,$4,$5,$6,$7,$8,$9,$2,$3,0*
0 Add four circle primitives for the rounded corners*
1,1,$1+$1,$2,$3*
1,1,$1+$1,$4,$5*
1,1,$1+$1,$6,$7*
1,1,$1+$1,$8,$9*
0 Add four rect primitives between the rounded corners*
20,1,$1+$1,$2,$3,$4,$5,0*
20,1,$1+$1,$4,$5,$6,$7,0*
20,1,$1+$1,$6,$7,$8,$9,0*
20,1,$1+$1,$8,$9,$2,$3,0*%
G04 Aperture macros list end*
%ADD10C,0.154000*%
%ADD11C,0.120000*%
%ADD12C,0.160000*%
%ADD13RoundRect,0.162500X-0.162500X0.612500X-0.162500X-0.612500X0.162500X-0.612500X0.162500X0.612500X0*%
%ADD14RoundRect,0.162500X0.162500X-0.612500X0.162500X0.612500X-0.162500X0.612500X-0.162500X-0.612500X0*%
%ADD15RoundRect,0.225000X0.300000X-0.225000X0.300000X0.225000X-0.300000X0.225000X-0.300000X-0.225000X0*%
%ADD16RoundRect,0.160000X-0.210000X0.160000X-0.210000X-0.160000X0.210000X-0.160000X0.210000X0.160000X0*%
%ADD17RoundRect,0.066667X-0.133333X0.318333X-0.133333X-0.318333X0.133333X-0.318333X0.133333X0.318333X0*%
%ADD18RoundRect,0.400000X0.400000X-0.650000X0.400000X0.650000X-0.400000X0.650000X-0.400000X-0.650000X0*%
%ADD19RoundRect,0.525000X1.425000X-0.525000X1.425000X0.525000X-1.425000X0.525000X-1.425000X-0.525000X0*%
%ADD20RoundRect,0.050000X0.500000X0.375000X-0.500000X0.375000X-0.500000X-0.375000X0.500000X-0.375000X0*%
%ADD21RoundRect,0.160000X-0.160000X-0.210000X0.160000X-0.210000X0.160000X0.210000X-0.160000X0.210000X0*%
%ADD22RoundRect,0.272727X0.327273X0.327273X-0.327273X0.327273X-0.327273X-0.327273X0.327273X-0.327273X0*%
%ADD23RoundRect,0.050000X-0.500000X-0.375000X0.500000X-0.375000X0.500000X0.375000X-0.500000X0.375000X0*%
%ADD24RoundRect,0.165000X-0.195000X0.165000X-0.195000X-0.165000X0.195000X-0.165000X0.195000X0.165000X0*%
%ADD25RoundRect,0.165000X0.195000X-0.165000X0.195000X0.165000X-0.195000X0.165000X-0.195000X-0.165000X0*%
%ADD26RoundRect,0.100000X0.100000X0.200000X-0.100000X0.200000X-0.100000X-0.200000X0.100000X-0.200000X0*%
%ADD27RoundRect,0.243750X-0.281250X0.243750X-0.281250X-0.243750X0.281250X-0.243750X0.281250X0.243750X0*%
%ADD28RoundRect,0.225000X-0.300000X0.225000X-0.300000X-0.225000X0.300000X-0.225000X0.300000X0.225000X0*%
%ADD29C,2.800000*%
%ADD30RoundRect,0.160000X0.160000X0.210000X-0.160000X0.210000X-0.160000X-0.210000X0.160000X-0.210000X0*%
%ADD31RoundRect,0.243750X-0.243750X-0.281250X0.243750X-0.281250X0.243750X0.281250X-0.243750X0.281250X0*%
%ADD32RoundRect,0.268750X-0.481250X0.268750X-0.481250X-0.268750X0.481250X-0.268750X0.481250X0.268750X0*%
%ADD33RoundRect,0.272727X0.327273X-0.327273X0.327273X0.327273X-0.327273X0.327273X-0.327273X-0.327273X0*%
%ADD34RoundRect,0.225000X-0.225000X-0.625000X0.225000X-0.625000X0.225000X0.625000X-0.225000X0.625000X0*%
%ADD35RoundRect,0.261906X-0.838094X-1.288094X0.838094X-1.288094X0.838094X1.288094X-0.838094X1.288094X0*%
%ADD36C,0.750000*%
%ADD37RoundRect,0.050000X0.300000X0.620000X-0.300000X0.620000X-0.300000X-0.620000X0.300000X-0.620000X0*%
%ADD38RoundRect,0.050000X0.150000X0.620000X-0.150000X0.620000X-0.150000X-0.620000X0.150000X-0.620000X0*%
%ADD39O,1.100000X2.200000*%
%ADD40O,1.100000X1.900000*%
%ADD41RoundRect,0.267985X0.489515X0.477015X-0.489515X0.477015X-0.489515X-0.477015X0.489515X-0.477015X0*%
%ADD42RoundRect,0.100000X-0.100000X-0.200000X0.100000X-0.200000X0.100000X0.200000X-0.100000X0.200000X0*%
%ADD43RoundRect,0.165000X-0.165000X-0.195000X0.165000X-0.195000X0.165000X0.195000X-0.165000X0.195000X0*%
%ADD44RoundRect,0.050000X-0.450000X0.750000X-0.450000X-0.750000X0.450000X-0.750000X0.450000X0.750000X0*%
%ADD45C,0.700000*%
%ADD46RoundRect,0.050000X-1.450000X1.450000X-1.450000X-1.450000X1.450000X-1.450000X1.450000X1.450000X0*%
%ADD47RoundRect,0.050000X0.370000X-1.200000X0.370000X1.200000X-0.370000X1.200000X-0.370000X-1.200000X0*%
%ADD48RoundRect,0.250000X0.250000X0.275000X-0.250000X0.275000X-0.250000X-0.275000X0.250000X-0.275000X0*%
%ADD49RoundRect,0.160000X0.210000X-0.160000X0.210000X0.160000X-0.210000X0.160000X-0.210000X-0.160000X0*%
%ADD50RoundRect,0.118750X-0.118750X0.181250X-0.118750X-0.181250X0.118750X-0.181250X0.118750X0.181250X0*%
%ADD51RoundRect,0.100000X-0.100000X0.275000X-0.100000X-0.275000X0.100000X-0.275000X0.100000X0.275000X0*%
%ADD52RoundRect,0.250000X-0.250000X-0.275000X0.250000X-0.275000X0.250000X0.275000X-0.250000X0.275000X0*%
%ADD53RoundRect,0.050000X0.850000X-0.850000X0.850000X0.850000X-0.850000X0.850000X-0.850000X-0.850000X0*%
%ADD54C,1.800000*%
G04 APERTURE END LIST*
D10*
X54759811Y21022324D02*
X53759811Y21022324D01*
X53759811Y21022324D02*
X53759811Y21403276D01*
X53759811Y21403276D02*
X53807430Y21498514D01*
X53807430Y21498514D02*
X53855049Y21546133D01*
X53855049Y21546133D02*
X53950287Y21593752D01*
X53950287Y21593752D02*
X54093144Y21593752D01*
X54093144Y21593752D02*
X54188382Y21546133D01*
X54188382Y21546133D02*
X54236001Y21498514D01*
X54236001Y21498514D02*
X54283620Y21403276D01*
X54283620Y21403276D02*
X54283620Y21022324D01*
X53759811Y21927086D02*
X54759811Y22165181D01*
X54759811Y22165181D02*
X54045525Y22355657D01*
X54045525Y22355657D02*
X54759811Y22546133D01*
X54759811Y22546133D02*
X53759811Y22784228D01*
X54759811Y23736609D02*
X54283620Y23403276D01*
X54759811Y23165181D02*
X53759811Y23165181D01*
X53759811Y23165181D02*
X53759811Y23546133D01*
X53759811Y23546133D02*
X53807430Y23641371D01*
X53807430Y23641371D02*
X53855049Y23688990D01*
X53855049Y23688990D02*
X53950287Y23736609D01*
X53950287Y23736609D02*
X54093144Y23736609D01*
X54093144Y23736609D02*
X54188382Y23688990D01*
X54188382Y23688990D02*
X54236001Y23641371D01*
X54236001Y23641371D02*
X54283620Y23546133D01*
X54283620Y23546133D02*
X54283620Y23165181D01*
X62687792Y20885828D02*
X62735411Y21028685D01*
X62735411Y21028685D02*
X62735411Y21266780D01*
X62735411Y21266780D02*
X62687792Y21362018D01*
X62687792Y21362018D02*
X62640172Y21409637D01*
X62640172Y21409637D02*
X62544934Y21457256D01*
X62544934Y21457256D02*
X62449696Y21457256D01*
X62449696Y21457256D02*
X62354458Y21409637D01*
X62354458Y21409637D02*
X62306839Y21362018D01*
X62306839Y21362018D02*
X62259220Y21266780D01*
X62259220Y21266780D02*
X62211601Y21076304D01*
X62211601Y21076304D02*
X62163982Y20981066D01*
X62163982Y20981066D02*
X62116363Y20933447D01*
X62116363Y20933447D02*
X62021125Y20885828D01*
X62021125Y20885828D02*
X61925887Y20885828D01*
X61925887Y20885828D02*
X61830649Y20933447D01*
X61830649Y20933447D02*
X61783030Y20981066D01*
X61783030Y20981066D02*
X61735411Y21076304D01*
X61735411Y21076304D02*
X61735411Y21314399D01*
X61735411Y21314399D02*
X61783030Y21457256D01*
X61735411Y21742971D02*
X61735411Y22314399D01*
X62735411Y22028685D02*
X61735411Y22028685D01*
X62449696Y22600114D02*
X62449696Y23076304D01*
X62735411Y22504876D02*
X61735411Y22838209D01*
X61735411Y22838209D02*
X62735411Y23171542D01*
X61735411Y23362019D02*
X61735411Y23933447D01*
X62735411Y23647733D02*
X61735411Y23647733D01*
X71146705Y19754999D02*
X71480038Y19754999D01*
X71622895Y19231189D02*
X71146705Y19231189D01*
X71146705Y19231189D02*
X71146705Y20231189D01*
X71146705Y20231189D02*
X71622895Y20231189D01*
X72051467Y19231189D02*
X72051467Y20231189D01*
X72051467Y20231189D02*
X72622895Y19231189D01*
X72622895Y19231189D02*
X72622895Y20231189D01*
X71490057Y5226199D02*
X71632914Y5178580D01*
X71632914Y5178580D02*
X71680533Y5130961D01*
X71680533Y5130961D02*
X71728152Y5035723D01*
X71728152Y5035723D02*
X71728152Y4892866D01*
X71728152Y4892866D02*
X71680533Y4797628D01*
X71680533Y4797628D02*
X71632914Y4750008D01*
X71632914Y4750008D02*
X71537676Y4702389D01*
X71537676Y4702389D02*
X71156724Y4702389D01*
X71156724Y4702389D02*
X71156724Y5702389D01*
X71156724Y5702389D02*
X71490057Y5702389D01*
X71490057Y5702389D02*
X71585295Y5654770D01*
X71585295Y5654770D02*
X71632914Y5607151D01*
X71632914Y5607151D02*
X71680533Y5511913D01*
X71680533Y5511913D02*
X71680533Y5416675D01*
X71680533Y5416675D02*
X71632914Y5321437D01*
X71632914Y5321437D02*
X71585295Y5273818D01*
X71585295Y5273818D02*
X71490057Y5226199D01*
X71490057Y5226199D02*
X71156724Y5226199D01*
X72347200Y5702389D02*
X72537676Y5702389D01*
X72537676Y5702389D02*
X72632914Y5654770D01*
X72632914Y5654770D02*
X72728152Y5559532D01*
X72728152Y5559532D02*
X72775771Y5369056D01*
X72775771Y5369056D02*
X72775771Y5035723D01*
X72775771Y5035723D02*
X72728152Y4845247D01*
X72728152Y4845247D02*
X72632914Y4750008D01*
X72632914Y4750008D02*
X72537676Y4702389D01*
X72537676Y4702389D02*
X72347200Y4702389D01*
X72347200Y4702389D02*
X72251962Y4750008D01*
X72251962Y4750008D02*
X72156724Y4845247D01*
X72156724Y4845247D02*
X72109105Y5035723D01*
X72109105Y5035723D02*
X72109105Y5369056D01*
X72109105Y5369056D02*
X72156724Y5559532D01*
X72156724Y5559532D02*
X72251962Y5654770D01*
X72251962Y5654770D02*
X72347200Y5702389D01*
X73394819Y5702389D02*
X73585295Y5702389D01*
X73585295Y5702389D02*
X73680533Y5654770D01*
X73680533Y5654770D02*
X73775771Y5559532D01*
X73775771Y5559532D02*
X73823390Y5369056D01*
X73823390Y5369056D02*
X73823390Y5035723D01*
X73823390Y5035723D02*
X73775771Y4845247D01*
X73775771Y4845247D02*
X73680533Y4750008D01*
X73680533Y4750008D02*
X73585295Y4702389D01*
X73585295Y4702389D02*
X73394819Y4702389D01*
X73394819Y4702389D02*
X73299581Y4750008D01*
X73299581Y4750008D02*
X73204343Y4845247D01*
X73204343Y4845247D02*
X73156724Y5035723D01*
X73156724Y5035723D02*
X73156724Y5369056D01*
X73156724Y5369056D02*
X73204343Y5559532D01*
X73204343Y5559532D02*
X73299581Y5654770D01*
X73299581Y5654770D02*
X73394819Y5702389D01*
X74109105Y5702389D02*
X74680533Y5702389D01*
X74394819Y4702389D02*
X74394819Y5702389D01*
D11*
G04 #@! TO.C,K104*
X26086800Y11604400D02*
X26086800Y7584400D01*
X25731800Y11604400D02*
X26086800Y11604400D01*
X21766800Y11604400D02*
X22121800Y11604400D01*
X26086800Y7584400D02*
X25731800Y7584400D01*
X22121800Y7584400D02*
X21766800Y7584400D01*
X21766800Y7584400D02*
X21766800Y11604400D01*
X24656800Y12344400D02*
X24186800Y12004400D01*
X24186800Y12684400D01*
X24656800Y12344400D01*
G36*
X24656800Y12344400D02*
G01*
X24186800Y12004400D01*
X24186800Y12684400D01*
X24656800Y12344400D01*
G37*
G04 #@! TO.C,K103*
X20981400Y11604400D02*
X20981400Y7584400D01*
X20626400Y11604400D02*
X20981400Y11604400D01*
X16661400Y11604400D02*
X17016400Y11604400D01*
X20981400Y7584400D02*
X20626400Y7584400D01*
X17016400Y7584400D02*
X16661400Y7584400D01*
X16661400Y7584400D02*
X16661400Y11604400D01*
X19551400Y12344400D02*
X19081400Y12004400D01*
X19081400Y12684400D01*
X19551400Y12344400D01*
G36*
X19551400Y12344400D02*
G01*
X19081400Y12004400D01*
X19081400Y12684400D01*
X19551400Y12344400D01*
G37*
G04 #@! TO.C,K102*
X11479800Y7584400D02*
X11479800Y11604400D01*
X11834800Y7584400D02*
X11479800Y7584400D01*
X15799800Y7584400D02*
X15444800Y7584400D01*
X11479800Y11604400D02*
X11834800Y11604400D01*
X15444800Y11604400D02*
X15799800Y11604400D01*
X15799800Y11604400D02*
X15799800Y7584400D01*
X13379800Y6504400D02*
X12909800Y6844400D01*
X13379800Y7184400D01*
X13379800Y6504400D01*
G36*
X13379800Y6504400D02*
G01*
X12909800Y6844400D01*
X13379800Y7184400D01*
X13379800Y6504400D01*
G37*
G04 #@! TO.C,K101*
X6399800Y7584400D02*
X6399800Y11604400D01*
X6754800Y7584400D02*
X6399800Y7584400D01*
X10719800Y7584400D02*
X10364800Y7584400D01*
X6399800Y11604400D02*
X6754800Y11604400D01*
X10364800Y11604400D02*
X10719800Y11604400D01*
X10719800Y11604400D02*
X10719800Y7584400D01*
X8299800Y6504400D02*
X7829800Y6844400D01*
X8299800Y7184400D01*
X8299800Y6504400D01*
G36*
X8299800Y6504400D02*
G01*
X7829800Y6844400D01*
X8299800Y7184400D01*
X8299800Y6504400D01*
G37*
G04 #@! TO.C,R104*
X20613900Y14621742D02*
X20613900Y15096258D01*
X19568900Y14621742D02*
X19568900Y15096258D01*
G04 #@! TO.C,R105*
X32233600Y9648641D02*
X32233600Y9341359D01*
X32993600Y9648641D02*
X32993600Y9341359D01*
G04 #@! TO.C,U104*
X40280800Y7148598D02*
X40280800Y8448598D01*
X42600800Y7148598D02*
X42600800Y8198598D01*
X42880800Y8558598D02*
X42600800Y8558598D01*
X42600800Y8838598D01*
X42880800Y8558598D01*
G36*
X42880800Y8558598D02*
G01*
X42600800Y8558598D01*
X42600800Y8838598D01*
X42880800Y8558598D01*
G37*
G04 #@! TO.C,U102*
X45954899Y18110600D02*
X47214899Y18110600D01*
X45954899Y14350600D02*
X45954899Y18110600D01*
X52774899Y18110600D02*
X51514899Y18110600D01*
X52774899Y14350600D02*
X52774899Y18110600D01*
X46054899Y13070600D02*
X45724899Y12830600D01*
X45724899Y13310600D01*
X46054899Y13070600D01*
G36*
X46054899Y13070600D02*
G01*
X45724899Y12830600D01*
X45724899Y13310600D01*
X46054899Y13070600D01*
G37*
G04 #@! TO.C,SW102*
X69132000Y7885400D02*
X69132000Y9885400D01*
X70132000Y11185400D02*
X70582000Y11635400D01*
X70132000Y6585400D02*
X70582000Y6135400D01*
X73182000Y11635400D02*
X70582000Y11635400D01*
X73182000Y6135400D02*
X70582000Y6135400D01*
X73632000Y11185400D02*
X73182000Y11635400D01*
X73632000Y6585400D02*
X73182000Y6135400D01*
X74632000Y7885400D02*
X74632000Y9885400D01*
G04 #@! TO.C,R113*
X44257958Y12973800D02*
X44565240Y12973800D01*
X44257958Y12213800D02*
X44565240Y12213800D01*
G04 #@! TO.C,D106*
X36195200Y15782800D02*
X32335200Y15782800D01*
X36195200Y13782800D02*
X32335200Y13782800D01*
X36195200Y13782800D02*
X36195200Y15782800D01*
G04 #@! TO.C,SW101*
X69134800Y17052800D02*
X69134800Y15052800D01*
X70134800Y18352800D02*
X70584800Y18802800D01*
X70134800Y13752800D02*
X70584800Y13302800D01*
X70584800Y18802800D02*
X73184800Y18802800D01*
X70584800Y13302800D02*
X73184800Y13302800D01*
X73634800Y18352800D02*
X73184800Y18802800D01*
X73634800Y13752800D02*
X73184800Y13302800D01*
X74634800Y17052800D02*
X74634800Y15052800D01*
G04 #@! TO.C,C108*
X42629199Y11279236D02*
X42629199Y11063564D01*
X43349199Y11279236D02*
X43349199Y11063564D01*
G04 #@! TO.C,C102*
X67000800Y21293133D02*
X67000800Y21508805D01*
X67720800Y21293133D02*
X67720800Y21508805D01*
G04 #@! TO.C,D101*
D12*
X42835200Y15438600D02*
G75*
G02*
X42675200Y15438600I-80000J0D01*
G01*
X42675200Y15438600D02*
G75*
G02*
X42835200Y15438600I80000J0D01*
G01*
D11*
G04 #@! TO.C,C109*
X42629199Y12943164D02*
X42629199Y13158836D01*
X43349199Y12943164D02*
X43349199Y13158836D01*
G04 #@! TO.C,L102*
X30071600Y15499779D02*
X30071600Y15174221D01*
X31091600Y15499779D02*
X31091600Y15174221D01*
G04 #@! TO.C,R106*
X25719300Y14621742D02*
X25719300Y15096258D01*
X24674300Y14621742D02*
X24674300Y15096258D01*
G04 #@! TO.C,R101*
X29398700Y10291058D02*
X29398700Y9816542D01*
X30443700Y10291058D02*
X30443700Y9816542D01*
G04 #@! TO.C,R109*
X58370441Y21665200D02*
X58063159Y21665200D01*
X58370441Y20905200D02*
X58063159Y20905200D01*
G04 #@! TO.C,L101*
X40223221Y11480198D02*
X40548779Y11480198D01*
X40223221Y10460198D02*
X40548779Y10460198D01*
G04 #@! TO.C,D103*
X55174000Y24064700D02*
X55174000Y21379700D01*
X57094000Y24064700D02*
X55174000Y24064700D01*
X57094000Y21379700D02*
X57094000Y24064700D01*
G04 #@! TO.C,D105*
X29581600Y17089400D02*
X29581600Y20949400D01*
X29581600Y17089400D02*
X31581600Y17089400D01*
X31581600Y17089400D02*
X31581600Y20949400D01*
G04 #@! TO.C,R111*
X37070059Y13597402D02*
X37377341Y13597402D01*
X37070059Y12837402D02*
X37377341Y12837402D01*
G04 #@! TO.C,J103*
X43606600Y4961400D02*
X44556600Y4961400D01*
X43606600Y4511400D02*
X43606600Y4961400D01*
X43606600Y991400D02*
X43606600Y541400D01*
X43606600Y541400D02*
X50576600Y541400D01*
X44556600Y4961400D02*
X44556600Y6451400D01*
X50576600Y4961400D02*
X49626600Y4961400D01*
X50576600Y4511400D02*
X50576600Y4961400D01*
X50576600Y541400D02*
X50576600Y991400D01*
G04 #@! TO.C,C104*
X45847201Y20796800D02*
X49767201Y20796800D01*
X49767201Y22706800D02*
X45847201Y22706800D01*
X49767201Y20796800D02*
X49767201Y22706800D01*
G04 #@! TO.C,C111*
X48641199Y8286000D02*
X52561199Y8286000D01*
X52561199Y10196000D02*
X48641199Y10196000D01*
X52561199Y8286000D02*
X52561199Y10196000D01*
G04 #@! TO.C,D104*
X59339600Y24087800D02*
X59339600Y21402800D01*
X61259600Y24087800D02*
X59339600Y24087800D01*
X61259600Y21402800D02*
X61259600Y24087800D01*
G04 #@! TO.C,D102*
D12*
X36757699Y14233402D02*
G75*
G02*
X36597699Y14233402I-80000J0D01*
G01*
X36597699Y14233402D02*
G75*
G02*
X36757699Y14233402I80000J0D01*
G01*
D11*
G04 #@! TO.C,R116*
X39193200Y7720239D02*
X39193200Y7412957D01*
X39953200Y7720239D02*
X39953200Y7412957D01*
G04 #@! TO.C,C105*
X69234164Y19750267D02*
X69449836Y19750267D01*
X69234164Y19030267D02*
X69449836Y19030267D01*
G04 #@! TO.C,R114*
X57328800Y22912041D02*
X57328800Y22604759D01*
X58088800Y22912041D02*
X58088800Y22604759D01*
G04 #@! TO.C,U101*
X53370400Y19735000D02*
X53370400Y1515000D01*
X53670400Y19735000D02*
X53370400Y19735000D01*
X53670400Y1515000D02*
X53370400Y1515000D01*
X67890400Y19735000D02*
X67090400Y19735000D01*
X67890400Y19735000D02*
X67890400Y1515000D01*
X67890400Y1515000D02*
X67090400Y1515000D01*
X67580400Y20025000D02*
X67080400Y20025000D01*
X67080400Y20525000D01*
X67580400Y20025000D01*
G36*
X67580400Y20025000D02*
G01*
X67080400Y20025000D01*
X67080400Y20525000D01*
X67580400Y20025000D01*
G37*
G04 #@! TO.C,R110*
X42362841Y14802602D02*
X42055559Y14802602D01*
X42362841Y14042602D02*
X42055559Y14042602D01*
G04 #@! TO.C,R108*
X69188359Y4911933D02*
X69495641Y4911933D01*
X69188359Y4151933D02*
X69495641Y4151933D01*
G04 #@! TO.C,J101*
X29379400Y6097200D02*
X29444400Y6097200D01*
X29379400Y2467200D02*
X29379400Y6097200D01*
X29379400Y2467200D02*
X29444400Y2467200D01*
X29444400Y1192200D02*
X29444400Y2467200D01*
X35884400Y6097200D02*
X35949400Y6097200D01*
X35884400Y2467200D02*
X35949400Y2467200D01*
X35949400Y2467200D02*
X35949400Y6097200D01*
G04 #@! TO.C,C103*
X50889780Y11584400D02*
X50608620Y11584400D01*
X50889780Y10564400D02*
X50608620Y10564400D01*
G04 #@! TO.C,R103*
X65050400Y21247328D02*
X65050400Y21554610D01*
X65810400Y21247328D02*
X65810400Y21554610D01*
G04 #@! TO.C,C107*
X64105200Y21293133D02*
X64105200Y21508805D01*
X64825200Y21293133D02*
X64825200Y21508805D01*
G04 #@! TO.C,U103*
X38583200Y12567403D02*
X38583200Y13867403D01*
X40563200Y12567403D02*
X40563200Y13617403D01*
X40843200Y13987403D02*
X40563200Y13987403D01*
X40563200Y14267403D01*
X40843200Y13987403D01*
G36*
X40843200Y13987403D02*
G01*
X40563200Y13987403D01*
X40563200Y14267403D01*
X40843200Y13987403D01*
G37*
G04 #@! TO.C,R115*
X58344800Y22912041D02*
X58344800Y22604759D01*
X59104800Y22912041D02*
X59104800Y22604759D01*
G04 #@! TO.C,C101*
X66035600Y21508805D02*
X66035600Y21293133D01*
X66755600Y21508805D02*
X66755600Y21293133D01*
G04 #@! TO.C,R107*
X33198800Y9648641D02*
X33198800Y9341359D01*
X33958800Y9648641D02*
X33958800Y9341359D01*
G04 #@! TO.C,R118*
X39048442Y10086999D02*
X38741160Y10086999D01*
X39048442Y9326999D02*
X38741160Y9326999D01*
G04 #@! TO.C,R117*
X40638759Y10080198D02*
X40946041Y10080198D01*
X40638759Y9320198D02*
X40946041Y9320198D01*
G04 #@! TO.C,C110*
X51421420Y22501800D02*
X51702580Y22501800D01*
X51421420Y21481800D02*
X51702580Y21481800D01*
G04 #@! TO.C,R102*
X30871900Y10291058D02*
X30871900Y9816542D01*
X31916900Y10291058D02*
X31916900Y9816542D01*
G04 #@! TO.C,R112*
X44257958Y12008600D02*
X44565240Y12008600D01*
X44257958Y11248600D02*
X44565240Y11248600D01*
G04 #@! TO.C,C106*
X69234164Y5879933D02*
X69449836Y5879933D01*
X69234164Y5159933D02*
X69449836Y5159933D01*
G04 #@! TD*
%LPC*%
D13*
G04 #@! TO.C,K104*
X25196800Y12344400D03*
X22656800Y12344400D03*
X22656800Y6844400D03*
X25196800Y6844400D03*
G04 #@! TD*
G04 #@! TO.C,K103*
X20091400Y12344400D03*
X17551400Y12344400D03*
X17551400Y6844400D03*
X20091400Y6844400D03*
G04 #@! TD*
D14*
G04 #@! TO.C,K102*
X12369800Y6844400D03*
X14909800Y6844400D03*
X14909800Y12344400D03*
X12369800Y12344400D03*
G04 #@! TD*
G04 #@! TO.C,K101*
X7289800Y6844400D03*
X9829800Y6844400D03*
X9829800Y12344400D03*
X7289800Y12344400D03*
G04 #@! TD*
D15*
G04 #@! TO.C,R104*
X20091400Y14034000D03*
X20091400Y15684000D03*
G04 #@! TD*
D16*
G04 #@! TO.C,R105*
X32613600Y10005000D03*
X32613600Y8985000D03*
G04 #@! TD*
D17*
G04 #@! TO.C,U104*
X42190800Y8538598D03*
X41690800Y8538598D03*
X41190800Y8538598D03*
X40690800Y8538598D03*
X40690800Y7058598D03*
X41190800Y7058598D03*
X41690800Y7058598D03*
X42190800Y7058598D03*
G04 #@! TD*
D18*
G04 #@! TO.C,U102*
X47064899Y13050600D03*
X49364899Y13050600D03*
D19*
X49364899Y19350600D03*
D18*
X51664899Y13050600D03*
G04 #@! TD*
D20*
G04 #@! TO.C,SW102*
X74882000Y7010400D03*
X68882000Y7010400D03*
X74882000Y10760400D03*
X68882000Y10760400D03*
G04 #@! TD*
D21*
G04 #@! TO.C,R113*
X43901599Y12593800D03*
X44921599Y12593800D03*
G04 #@! TD*
D22*
G04 #@! TO.C,D106*
X35385199Y14782800D03*
X32585201Y14782800D03*
G04 #@! TD*
D23*
G04 #@! TO.C,SW101*
X68884800Y17927800D03*
X74884800Y17927800D03*
X68884800Y14177800D03*
X74884800Y14177800D03*
G04 #@! TD*
D24*
G04 #@! TO.C,C108*
X42989199Y11651400D03*
X42989199Y10691400D03*
G04 #@! TD*
D25*
G04 #@! TO.C,C102*
X67360800Y20920969D03*
X67360800Y21880969D03*
G04 #@! TD*
D26*
G04 #@! TO.C,D101*
X42305200Y15438600D03*
X41605200Y15438600D03*
G04 #@! TD*
D25*
G04 #@! TO.C,C109*
X42989199Y12571000D03*
X42989199Y13531000D03*
G04 #@! TD*
D27*
G04 #@! TO.C,L102*
X30581600Y16124500D03*
X30581600Y14549500D03*
G04 #@! TD*
D15*
G04 #@! TO.C,R106*
X25196800Y14034000D03*
X25196800Y15684000D03*
G04 #@! TD*
D28*
G04 #@! TO.C,R101*
X29921200Y10878800D03*
X29921200Y9228800D03*
G04 #@! TD*
D29*
G04 #@! TO.C,MH102*
X73603713Y22117913D03*
G04 #@! TD*
D30*
G04 #@! TO.C,R109*
X58726799Y21285200D03*
X57706801Y21285200D03*
G04 #@! TD*
D31*
G04 #@! TO.C,L101*
X39598500Y10970198D03*
X41173500Y10970198D03*
G04 #@! TD*
D32*
G04 #@! TO.C,D103*
X56134000Y23317200D03*
X56134000Y21442200D03*
G04 #@! TD*
D29*
G04 #@! TO.C,MH101*
X2946400Y22123400D03*
G04 #@! TD*
D33*
G04 #@! TO.C,D105*
X30581600Y17899400D03*
X30581600Y20699400D03*
G04 #@! TD*
D21*
G04 #@! TO.C,R111*
X36713700Y13217402D03*
X37733700Y13217402D03*
G04 #@! TD*
D34*
G04 #@! TO.C,J103*
X45216600Y5651400D03*
X46466600Y5651400D03*
X47716600Y5651400D03*
X48966600Y5651400D03*
D35*
X42666600Y2751400D03*
X51516600Y2751400D03*
G04 #@! TD*
D36*
G04 #@! TO.C,J105*
X42463200Y18218400D03*
X36683200Y18218400D03*
D37*
X42773200Y17098400D03*
X41973200Y17098400D03*
D38*
X40823200Y17098400D03*
X39823200Y17098400D03*
X39323200Y17098400D03*
X38323200Y17098400D03*
D37*
X37173200Y17098400D03*
X36373200Y17098400D03*
X36373200Y17098400D03*
X37173200Y17098400D03*
D38*
X37823200Y17098400D03*
X38823200Y17098400D03*
X40323200Y17098400D03*
X41323200Y17098400D03*
D37*
X41973200Y17098400D03*
X42773200Y17098400D03*
D39*
X43893200Y17698400D03*
D40*
X43893200Y21898400D03*
D39*
X35253200Y17698400D03*
D40*
X35253200Y21898400D03*
G04 #@! TD*
D41*
G04 #@! TO.C,C104*
X48799701Y21751800D03*
X46094701Y21751800D03*
G04 #@! TD*
G04 #@! TO.C,C111*
X51593699Y9241000D03*
X48888699Y9241000D03*
G04 #@! TD*
D32*
G04 #@! TO.C,D104*
X60299600Y23340300D03*
X60299600Y21465300D03*
G04 #@! TD*
D42*
G04 #@! TO.C,D102*
X37127699Y14233402D03*
X37827699Y14233402D03*
G04 #@! TD*
D16*
G04 #@! TO.C,R116*
X39573200Y8076598D03*
X39573200Y7056598D03*
G04 #@! TD*
D43*
G04 #@! TO.C,C105*
X68862000Y19390267D03*
X69822000Y19390267D03*
G04 #@! TD*
D16*
G04 #@! TO.C,R114*
X57708800Y23268399D03*
X57708800Y22248401D03*
G04 #@! TD*
D44*
G04 #@! TO.C,U101*
X66380400Y19375000D03*
X64880400Y19375000D03*
X63380400Y19375000D03*
X61880400Y19375000D03*
X60380400Y19375000D03*
X58880400Y19375000D03*
X57380400Y19375000D03*
X55880400Y19375000D03*
X54380400Y19375000D03*
X54380400Y1875000D03*
X55880400Y1875000D03*
X57380400Y1875000D03*
X58880400Y1875000D03*
X60380400Y1875000D03*
X61880400Y1875000D03*
X63380400Y1875000D03*
X64880400Y1875000D03*
X66380400Y1875000D03*
D45*
X60730400Y10765000D03*
X59630400Y10765000D03*
X61280400Y10215000D03*
X60180400Y10215000D03*
X59080400Y10215000D03*
X60730400Y9665000D03*
D46*
X60180400Y9665000D03*
D45*
X59630400Y9665000D03*
X61280400Y9115000D03*
X60180400Y9115000D03*
X59080400Y9115000D03*
X60730400Y8565000D03*
X59630400Y8565000D03*
G04 #@! TD*
D30*
G04 #@! TO.C,R110*
X42719200Y14422602D03*
X41699200Y14422602D03*
G04 #@! TD*
D21*
G04 #@! TO.C,R108*
X68832000Y4531933D03*
X69852000Y4531933D03*
G04 #@! TD*
D47*
G04 #@! TO.C,J101*
X30124400Y2332200D03*
X30124400Y6232200D03*
X31394400Y2332200D03*
X31394400Y6232200D03*
X32664400Y2332200D03*
X32664400Y6232200D03*
X33934400Y2332200D03*
X33934400Y6232200D03*
X35204400Y2332200D03*
X35204400Y6232200D03*
G04 #@! TD*
D48*
G04 #@! TO.C,C103*
X51524200Y11074400D03*
X49974200Y11074400D03*
G04 #@! TD*
D49*
G04 #@! TO.C,R103*
X65430400Y20890969D03*
X65430400Y21910969D03*
G04 #@! TD*
D25*
G04 #@! TO.C,C107*
X64465200Y20920969D03*
X64465200Y21880969D03*
G04 #@! TD*
D50*
G04 #@! TO.C,U103*
X40110700Y14067403D03*
D51*
X39573200Y14142403D03*
D50*
X39035700Y14067403D03*
X39035700Y12367403D03*
D51*
X39573200Y12292403D03*
D50*
X40110700Y12367403D03*
G04 #@! TD*
D16*
G04 #@! TO.C,R115*
X58724800Y23268399D03*
X58724800Y22248401D03*
G04 #@! TD*
D24*
G04 #@! TO.C,C101*
X66395600Y21880969D03*
X66395600Y20920969D03*
G04 #@! TD*
D29*
G04 #@! TO.C,MH103*
X73603700Y2947300D03*
G04 #@! TD*
D16*
G04 #@! TO.C,R107*
X33578800Y10005000D03*
X33578800Y8985000D03*
G04 #@! TD*
D30*
G04 #@! TO.C,R118*
X39404801Y9706999D03*
X38384801Y9706999D03*
G04 #@! TD*
D21*
G04 #@! TO.C,R117*
X40282400Y9700198D03*
X41302400Y9700198D03*
G04 #@! TD*
D52*
G04 #@! TO.C,C110*
X50787000Y21991800D03*
X52337000Y21991800D03*
G04 #@! TD*
D53*
G04 #@! TO.C,J102*
X7315200Y18160600D03*
D54*
X7315200Y20700600D03*
X9855200Y18160600D03*
X9855200Y20700600D03*
X12395200Y18160600D03*
X12395200Y20700600D03*
X14935200Y18160600D03*
X14935200Y20700600D03*
X17475200Y18160600D03*
X17475200Y20700600D03*
X20015200Y18160600D03*
X20015200Y20700600D03*
X22555200Y18160600D03*
X22555200Y20700600D03*
X25095200Y18160600D03*
X25095200Y20700600D03*
X27635200Y18160600D03*
X27635200Y20700600D03*
G04 #@! TD*
D28*
G04 #@! TO.C,R102*
X31394400Y10878800D03*
X31394400Y9228800D03*
G04 #@! TD*
D21*
G04 #@! TO.C,R112*
X43901599Y11628600D03*
X44921599Y11628600D03*
G04 #@! TD*
D43*
G04 #@! TO.C,C106*
X68862000Y5519933D03*
X69822000Y5519933D03*
G04 #@! TD*
D29*
G04 #@! TO.C,MH104*
X2951900Y2947300D03*
G04 #@! TD*
%LPD*%
M02*
