G04 #@! TF.GenerationSoftware,KiCad,Pcbnew,9.0.3*
G04 #@! TF.CreationDate,2025-09-10T23:17:51+02:00*
G04 #@! TF.ProjectId,esp-atx-power,6573702d-6174-4782-9d70-6f7765722e6b,2.0.0*
G04 #@! TF.SameCoordinates,PX6f6d640PY7445a00*
G04 #@! TF.FileFunction,Legend,Bot*
G04 #@! TF.FilePolarity,Positive*
%FSLAX46Y46*%
G04 Gerber Fmt 4.6, Leading zero omitted, Abs format (unit mm)*
G04 Created by KiCad (PCBNEW 9.0.3) date 2025-09-10 23:17:51*
%MOMM*%
%LPD*%
G01*
G04 APERTURE LIST*
G04 Aperture macros list*
%AMRoundRect*
0 Rectangle with rounded corners*
0 $1 Rounding radius*
0 $2 $3 $4 $5 $6 $7 $8 $9 X,Y pos of 4 corners*
0 Add a 4 corners polygon primitive as box body*
4,1,4,$2,$3,$4,$5,$6,$7,$8,$9,$2,$3,0*
0 Add four circle primitives for the rounded corners*
1,1,$1+$1,$2,$3*
1,1,$1+$1,$4,$5*
1,1,$1+$1,$6,$7*
1,1,$1+$1,$8,$9*
0 Add four rect primitives between the rounded corners*
20,1,$1+$1,$2,$3,$4,$5,0*
20,1,$1+$1,$4,$5,$6,$7,0*
20,1,$1+$1,$6,$7,$8,$9,0*
20,1,$1+$1,$8,$9,$2,$3,0*%
G04 Aperture macros list end*
%ADD10C,0.153000*%
%ADD11C,0.154000*%
%ADD12C,2.800000*%
%ADD13C,0.750000*%
%ADD14O,1.100000X2.200000*%
%ADD15O,1.100000X1.900000*%
%ADD16RoundRect,0.050000X0.850000X-0.850000X0.850000X0.850000X-0.850000X0.850000X-0.850000X-0.850000X0*%
%ADD17C,1.800000*%
G04 APERTURE END LIST*
D10*
X17475200Y19710400D02*
X17475200Y19151600D01*
X21285200Y24384000D02*
X21285200Y13208000D01*
X31496000Y8575657D02*
X31496000Y955657D01*
X33528000Y8575657D02*
X33528000Y955657D01*
X45034200Y4509152D02*
X45034200Y1003952D01*
X29464000Y8575657D02*
X39624000Y8575657D01*
X39624000Y955657D01*
X29464000Y955657D01*
X29464000Y8575657D01*
X47117000Y4515176D02*
X47117000Y959176D01*
X9855200Y19710400D02*
X9855200Y19151600D01*
X22555200Y19710400D02*
X22555200Y19151600D01*
X7315200Y19710400D02*
X7315200Y19151600D01*
X12395200Y19710400D02*
X12395200Y19151600D01*
X26365200Y24384000D02*
X26365200Y13208000D01*
X43053000Y4521200D02*
X51231800Y4521200D01*
X51231800Y965200D01*
X43053000Y965200D01*
X43053000Y4521200D01*
X25095200Y19710400D02*
X25095200Y19151600D01*
X11125200Y24384000D02*
X11125200Y13208000D01*
X16205200Y24384000D02*
X16205200Y13208000D01*
X5943600Y24384000D02*
X5943600Y13208000D01*
X49149000Y4509152D02*
X49149000Y965200D01*
X29464000Y4765657D02*
X39624000Y4765657D01*
X20015200Y19710400D02*
X20015200Y19151600D01*
X37592000Y8575657D02*
X37592000Y955657D01*
X14935200Y19710400D02*
X14935200Y19151600D01*
X35560000Y8575657D02*
X35560000Y955657D01*
D11*
X29959211Y7996513D02*
X29959211Y7425085D01*
X30959211Y7710799D02*
X29959211Y7710799D01*
X30959211Y7091751D02*
X29959211Y7091751D01*
X29959211Y7091751D02*
X30673496Y6758418D01*
X30673496Y6758418D02*
X29959211Y6425085D01*
X29959211Y6425085D02*
X30959211Y6425085D01*
X30911592Y5996513D02*
X30959211Y5853656D01*
X30959211Y5853656D02*
X30959211Y5615561D01*
X30959211Y5615561D02*
X30911592Y5520323D01*
X30911592Y5520323D02*
X30863972Y5472704D01*
X30863972Y5472704D02*
X30768734Y5425085D01*
X30768734Y5425085D02*
X30673496Y5425085D01*
X30673496Y5425085D02*
X30578258Y5472704D01*
X30578258Y5472704D02*
X30530639Y5520323D01*
X30530639Y5520323D02*
X30483020Y5615561D01*
X30483020Y5615561D02*
X30435401Y5806037D01*
X30435401Y5806037D02*
X30387782Y5901275D01*
X30387782Y5901275D02*
X30340163Y5948894D01*
X30340163Y5948894D02*
X30244925Y5996513D01*
X30244925Y5996513D02*
X30149687Y5996513D01*
X30149687Y5996513D02*
X30054449Y5948894D01*
X30054449Y5948894D02*
X30006830Y5901275D01*
X30006830Y5901275D02*
X29959211Y5806037D01*
X29959211Y5806037D02*
X29959211Y5567942D01*
X29959211Y5567942D02*
X30006830Y5425085D01*
G36*
X23152961Y13447817D02*
G01*
X23004362Y13447817D01*
X22890603Y13485737D01*
X22817053Y13559287D01*
X22778802Y13635789D01*
X22735533Y13808868D01*
X22735533Y13932767D01*
X22778802Y14105847D01*
X22817054Y14182350D01*
X22890601Y14255897D01*
X23004362Y14293817D01*
X23152961Y14293817D01*
X23152961Y13447817D01*
G37*
G36*
X22986294Y15057761D02*
G01*
X22837695Y15057761D01*
X22723936Y15095681D01*
X22650386Y15169231D01*
X22612135Y15245733D01*
X22568866Y15418812D01*
X22568866Y15542711D01*
X22612135Y15715791D01*
X22650387Y15792294D01*
X22723934Y15865841D01*
X22837695Y15903761D01*
X22986294Y15903761D01*
X22986294Y15057761D01*
G37*
G36*
X23986294Y15057761D02*
G01*
X23837695Y15057761D01*
X23723936Y15095681D01*
X23650386Y15169231D01*
X23612135Y15245733D01*
X23568866Y15418812D01*
X23568866Y15542711D01*
X23612135Y15715791D01*
X23650387Y15792294D01*
X23723934Y15865841D01*
X23837695Y15903761D01*
X23986294Y15903761D01*
X23986294Y15057761D01*
G37*
G36*
X25299024Y13182706D02*
G01*
X22303755Y13182706D01*
X22303755Y13942246D01*
X22581533Y13942246D01*
X22581533Y13799389D01*
X22581791Y13796770D01*
X22581624Y13795646D01*
X22582456Y13790018D01*
X22583013Y13784367D01*
X22583446Y13783321D01*
X22583832Y13780714D01*
X22631451Y13590238D01*
X22631847Y13589128D01*
X22631887Y13588576D01*
X22634273Y13582340D01*
X22636530Y13576023D01*
X22636860Y13575577D01*
X22637281Y13574478D01*
X22684900Y13479240D01*
X22688970Y13472775D01*
X22689748Y13470897D01*
X22691485Y13468780D01*
X22692942Y13466466D01*
X22694474Y13465137D01*
X22699323Y13459228D01*
X22794562Y13363989D01*
X22806230Y13354413D01*
X22808786Y13353354D01*
X22810876Y13351542D01*
X22824659Y13345387D01*
X22967516Y13297769D01*
X22974965Y13296075D01*
X22976844Y13295297D01*
X22979566Y13295029D01*
X22982235Y13294422D01*
X22984262Y13294567D01*
X22991866Y13293817D01*
X23229961Y13293817D01*
X23244983Y13295297D01*
X23272740Y13306794D01*
X23293984Y13328038D01*
X23305481Y13355795D01*
X23306961Y13370817D01*
X23306961Y14370817D01*
X23305481Y14385839D01*
X23583013Y14385839D01*
X23583013Y14355795D01*
X23594510Y14328038D01*
X23615754Y14306794D01*
X23643511Y14295297D01*
X23658533Y14293817D01*
X24057723Y14293817D01*
X24057723Y13971627D01*
X23801390Y13971627D01*
X23786368Y13970147D01*
X23758611Y13958650D01*
X23737367Y13937406D01*
X23725870Y13909649D01*
X23725870Y13879605D01*
X23737367Y13851848D01*
X23758611Y13830604D01*
X23786368Y13819107D01*
X23801390Y13817627D01*
X24057723Y13817627D01*
X24057723Y13447817D01*
X23658533Y13447817D01*
X23643511Y13446337D01*
X23615754Y13434840D01*
X23594510Y13413596D01*
X23583013Y13385839D01*
X23583013Y13355795D01*
X23594510Y13328038D01*
X23615754Y13306794D01*
X23643511Y13295297D01*
X23658533Y13293817D01*
X24134723Y13293817D01*
X24149745Y13295297D01*
X24177502Y13306794D01*
X24198746Y13328038D01*
X24210243Y13355795D01*
X24211723Y13370817D01*
X24211723Y13385839D01*
X24392537Y13385839D01*
X24392537Y13355795D01*
X24404034Y13328038D01*
X24425278Y13306794D01*
X24453035Y13295297D01*
X24468057Y13293817D01*
X24944247Y13293817D01*
X24959269Y13295297D01*
X24987026Y13306794D01*
X25008270Y13328038D01*
X25019767Y13355795D01*
X25021247Y13370817D01*
X25021247Y14370817D01*
X25019767Y14385839D01*
X25008270Y14413596D01*
X24987026Y14434840D01*
X24959269Y14446337D01*
X24929225Y14446337D01*
X24901468Y14434840D01*
X24880224Y14413596D01*
X24868727Y14385839D01*
X24867247Y14370817D01*
X24867247Y13447817D01*
X24468057Y13447817D01*
X24453035Y13446337D01*
X24425278Y13434840D01*
X24404034Y13413596D01*
X24392537Y13385839D01*
X24211723Y13385839D01*
X24211723Y14370817D01*
X24210243Y14385839D01*
X24198746Y14413596D01*
X24177502Y14434840D01*
X24149745Y14446337D01*
X24134723Y14447817D01*
X23658533Y14447817D01*
X23643511Y14446337D01*
X23615754Y14434840D01*
X23594510Y14413596D01*
X23583013Y14385839D01*
X23305481Y14385839D01*
X23293984Y14413596D01*
X23272740Y14434840D01*
X23244983Y14446337D01*
X23229961Y14447817D01*
X22991866Y14447817D01*
X22984262Y14447068D01*
X22982235Y14447212D01*
X22979566Y14446606D01*
X22976844Y14446337D01*
X22974965Y14445560D01*
X22967516Y14443865D01*
X22824659Y14396247D01*
X22810876Y14390092D01*
X22808785Y14388280D01*
X22806231Y14387221D01*
X22794562Y14377645D01*
X22699324Y14282407D01*
X22694474Y14276499D01*
X22692942Y14275169D01*
X22691487Y14272859D01*
X22689748Y14270739D01*
X22688968Y14268859D01*
X22684900Y14262395D01*
X22637281Y14167157D01*
X22636860Y14166059D01*
X22636530Y14165612D01*
X22634273Y14159296D01*
X22631887Y14153059D01*
X22631847Y14152508D01*
X22631451Y14151397D01*
X22583832Y13960921D01*
X22583446Y13958315D01*
X22583013Y13957268D01*
X22582456Y13951618D01*
X22581624Y13945989D01*
X22581791Y13944866D01*
X22581533Y13942246D01*
X22303755Y13942246D01*
X22303755Y15552190D01*
X22414866Y15552190D01*
X22414866Y15409333D01*
X22415124Y15406714D01*
X22414957Y15405590D01*
X22415789Y15399962D01*
X22416346Y15394311D01*
X22416779Y15393265D01*
X22417165Y15390658D01*
X22464784Y15200182D01*
X22465180Y15199072D01*
X22465220Y15198520D01*
X22467606Y15192284D01*
X22469863Y15185967D01*
X22470193Y15185521D01*
X22470614Y15184422D01*
X22518233Y15089184D01*
X22522303Y15082719D01*
X22523081Y15080841D01*
X22524818Y15078724D01*
X22526275Y15076410D01*
X22527807Y15075081D01*
X22532656Y15069172D01*
X22627895Y14973933D01*
X22639563Y14964357D01*
X22642119Y14963298D01*
X22644209Y14961486D01*
X22657992Y14955331D01*
X22800849Y14907713D01*
X22808298Y14906019D01*
X22810177Y14905241D01*
X22812899Y14904973D01*
X22815568Y14904366D01*
X22817595Y14904511D01*
X22825199Y14903761D01*
X23063294Y14903761D01*
X23078316Y14905241D01*
X23106073Y14916738D01*
X23127317Y14937982D01*
X23138814Y14965739D01*
X23140294Y14980761D01*
X23140294Y15552190D01*
X23414866Y15552190D01*
X23414866Y15409333D01*
X23415124Y15406714D01*
X23414957Y15405590D01*
X23415789Y15399962D01*
X23416346Y15394311D01*
X23416779Y15393265D01*
X23417165Y15390658D01*
X23464784Y15200182D01*
X23465180Y15199072D01*
X23465220Y15198520D01*
X23467606Y15192284D01*
X23469863Y15185967D01*
X23470193Y15185521D01*
X23470614Y15184422D01*
X23518233Y15089184D01*
X23522303Y15082719D01*
X23523081Y15080841D01*
X23524818Y15078724D01*
X23526275Y15076410D01*
X23527807Y15075081D01*
X23532656Y15069172D01*
X23627895Y14973933D01*
X23639563Y14964357D01*
X23642119Y14963298D01*
X23644209Y14961486D01*
X23657992Y14955331D01*
X23800849Y14907713D01*
X23808298Y14906019D01*
X23810177Y14905241D01*
X23812899Y14904973D01*
X23815568Y14904366D01*
X23817595Y14904511D01*
X23825199Y14903761D01*
X24063294Y14903761D01*
X24078316Y14905241D01*
X24106073Y14916738D01*
X24127317Y14937982D01*
X24138814Y14965739D01*
X24140294Y14980761D01*
X24140294Y15980761D01*
X24462485Y15980761D01*
X24462485Y14980761D01*
X24463965Y14965739D01*
X24475462Y14937982D01*
X24496706Y14916738D01*
X24524463Y14905241D01*
X24554507Y14905241D01*
X24582264Y14916738D01*
X24603508Y14937982D01*
X24615005Y14965739D01*
X24616485Y14980761D01*
X24616485Y15427571D01*
X25033913Y15427571D01*
X25033913Y14980761D01*
X25035393Y14965739D01*
X25046890Y14937982D01*
X25068134Y14916738D01*
X25095891Y14905241D01*
X25125935Y14905241D01*
X25153692Y14916738D01*
X25174936Y14937982D01*
X25186433Y14965739D01*
X25187913Y14980761D01*
X25187913Y15980761D01*
X25186433Y15995783D01*
X25174936Y16023540D01*
X25153692Y16044784D01*
X25125935Y16056281D01*
X25095891Y16056281D01*
X25068134Y16044784D01*
X25046890Y16023540D01*
X25035393Y15995783D01*
X25033913Y15980761D01*
X25033913Y15581571D01*
X24616485Y15581571D01*
X24616485Y15980761D01*
X24615005Y15995783D01*
X24603508Y16023540D01*
X24582264Y16044784D01*
X24554507Y16056281D01*
X24524463Y16056281D01*
X24496706Y16044784D01*
X24475462Y16023540D01*
X24463965Y15995783D01*
X24462485Y15980761D01*
X24140294Y15980761D01*
X24138814Y15995783D01*
X24127317Y16023540D01*
X24106073Y16044784D01*
X24078316Y16056281D01*
X24063294Y16057761D01*
X23825199Y16057761D01*
X23817595Y16057012D01*
X23815568Y16057156D01*
X23812899Y16056550D01*
X23810177Y16056281D01*
X23808298Y16055504D01*
X23800849Y16053809D01*
X23657992Y16006191D01*
X23644209Y16000036D01*
X23642118Y15998224D01*
X23639564Y15997165D01*
X23627895Y15987589D01*
X23532657Y15892351D01*
X23527807Y15886443D01*
X23526275Y15885113D01*
X23524820Y15882803D01*
X23523081Y15880683D01*
X23522301Y15878803D01*
X23518233Y15872339D01*
X23470614Y15777101D01*
X23470193Y15776003D01*
X23469863Y15775556D01*
X23467606Y15769240D01*
X23465220Y15763003D01*
X23465180Y15762452D01*
X23464784Y15761341D01*
X23417165Y15570865D01*
X23416779Y15568259D01*
X23416346Y15567212D01*
X23415789Y15561562D01*
X23414957Y15555933D01*
X23415124Y15554810D01*
X23414866Y15552190D01*
X23140294Y15552190D01*
X23140294Y15980761D01*
X23138814Y15995783D01*
X23127317Y16023540D01*
X23106073Y16044784D01*
X23078316Y16056281D01*
X23063294Y16057761D01*
X22825199Y16057761D01*
X22817595Y16057012D01*
X22815568Y16057156D01*
X22812899Y16056550D01*
X22810177Y16056281D01*
X22808298Y16055504D01*
X22800849Y16053809D01*
X22657992Y16006191D01*
X22644209Y16000036D01*
X22642118Y15998224D01*
X22639564Y15997165D01*
X22627895Y15987589D01*
X22532657Y15892351D01*
X22527807Y15886443D01*
X22526275Y15885113D01*
X22524820Y15882803D01*
X22523081Y15880683D01*
X22522301Y15878803D01*
X22518233Y15872339D01*
X22470614Y15777101D01*
X22470193Y15776003D01*
X22469863Y15775556D01*
X22467606Y15769240D01*
X22465220Y15763003D01*
X22465180Y15762452D01*
X22464784Y15761341D01*
X22417165Y15570865D01*
X22416779Y15568259D01*
X22416346Y15567212D01*
X22415789Y15561562D01*
X22414957Y15555933D01*
X22415124Y15554810D01*
X22414866Y15552190D01*
X22303755Y15552190D01*
X22303755Y16168872D01*
X25299024Y16168872D01*
X25299024Y13182706D01*
G37*
G36*
X29762065Y20324189D02*
G01*
X29613466Y20324189D01*
X29499707Y20362109D01*
X29426157Y20435659D01*
X29387906Y20512161D01*
X29344637Y20685240D01*
X29344637Y20809139D01*
X29387906Y20982219D01*
X29426158Y21058722D01*
X29499705Y21132269D01*
X29613466Y21170189D01*
X29762065Y21170189D01*
X29762065Y20324189D01*
G37*
G36*
X32122414Y20059078D02*
G01*
X29079526Y20059078D01*
X29079526Y20818618D01*
X29190637Y20818618D01*
X29190637Y20675761D01*
X29190895Y20673142D01*
X29190728Y20672018D01*
X29191560Y20666390D01*
X29192117Y20660739D01*
X29192550Y20659693D01*
X29192936Y20657086D01*
X29240555Y20466610D01*
X29240951Y20465500D01*
X29240991Y20464948D01*
X29243377Y20458712D01*
X29245634Y20452395D01*
X29245964Y20451949D01*
X29246385Y20450850D01*
X29294004Y20355612D01*
X29298074Y20349147D01*
X29298852Y20347269D01*
X29300589Y20345152D01*
X29302046Y20342838D01*
X29303578Y20341509D01*
X29308427Y20335600D01*
X29403666Y20240361D01*
X29415334Y20230785D01*
X29417890Y20229726D01*
X29419980Y20227914D01*
X29433763Y20221759D01*
X29576620Y20174141D01*
X29584069Y20172447D01*
X29585948Y20171669D01*
X29588670Y20171401D01*
X29591339Y20170794D01*
X29593366Y20170939D01*
X29600970Y20170189D01*
X29839065Y20170189D01*
X29854087Y20171669D01*
X29881844Y20183166D01*
X29903088Y20204410D01*
X29914585Y20232167D01*
X29916065Y20247189D01*
X29916065Y21247189D01*
X30238256Y21247189D01*
X30238256Y20247189D01*
X30238636Y20243326D01*
X30238444Y20241811D01*
X30238979Y20239849D01*
X30239736Y20232167D01*
X30243653Y20222709D01*
X30246349Y20212826D01*
X30249354Y20208945D01*
X30251233Y20204410D01*
X30258475Y20197168D01*
X30264745Y20189072D01*
X30269005Y20186638D01*
X30272477Y20183166D01*
X30281938Y20179248D01*
X30290830Y20174166D01*
X30295700Y20173547D01*
X30300234Y20171669D01*
X30310471Y20171669D01*
X30320634Y20170377D01*
X30325371Y20171669D01*
X30330278Y20171669D01*
X30339736Y20175587D01*
X30349619Y20178282D01*
X30353500Y20181288D01*
X30358035Y20183166D01*
X30365277Y20190409D01*
X30373373Y20196678D01*
X30377842Y20202974D01*
X30379279Y20204410D01*
X30379862Y20205820D01*
X30382111Y20208986D01*
X30809684Y20957240D01*
X30809684Y20247189D01*
X30811164Y20232167D01*
X30822661Y20204410D01*
X30843905Y20183166D01*
X30871662Y20171669D01*
X30901706Y20171669D01*
X30929463Y20183166D01*
X30950707Y20204410D01*
X30962204Y20232167D01*
X30963684Y20247189D01*
X30963684Y20675761D01*
X31238256Y20675761D01*
X31238256Y20342428D01*
X31239735Y20327417D01*
X31239735Y20327407D01*
X31242705Y20320238D01*
X31251233Y20299649D01*
X31251237Y20299645D01*
X31260808Y20287981D01*
X31308427Y20240361D01*
X31320096Y20230786D01*
X31322650Y20229728D01*
X31324742Y20227914D01*
X31338525Y20221759D01*
X31481382Y20174141D01*
X31488831Y20172447D01*
X31490710Y20171669D01*
X31493432Y20171401D01*
X31496101Y20170794D01*
X31498128Y20170939D01*
X31505732Y20170189D01*
X31600970Y20170189D01*
X31608573Y20170939D01*
X31610600Y20170794D01*
X31613269Y20171401D01*
X31615992Y20171669D01*
X31617868Y20172447D01*
X31625320Y20174140D01*
X31768176Y20221759D01*
X31781959Y20227914D01*
X31784047Y20229726D01*
X31786606Y20230785D01*
X31798275Y20240361D01*
X31893513Y20335600D01*
X31898358Y20341506D01*
X31899894Y20342837D01*
X31901352Y20345155D01*
X31903088Y20347269D01*
X31903865Y20349146D01*
X31907936Y20355612D01*
X31955555Y20450849D01*
X31955976Y20451950D01*
X31956306Y20452395D01*
X31958557Y20458697D01*
X31960949Y20464947D01*
X31960988Y20465500D01*
X31961385Y20466610D01*
X32009004Y20657086D01*
X32009389Y20659692D01*
X32009823Y20660739D01*
X32010380Y20666402D01*
X32011211Y20672018D01*
X32011044Y20673138D01*
X32011303Y20675761D01*
X32011303Y20818618D01*
X32011044Y20821242D01*
X32011211Y20822361D01*
X32010380Y20827978D01*
X32009823Y20833640D01*
X32009389Y20834688D01*
X32009004Y20837293D01*
X31961385Y21027769D01*
X31960988Y21028880D01*
X31960949Y21029432D01*
X31958557Y21035683D01*
X31956306Y21041984D01*
X31955976Y21042430D01*
X31955555Y21043530D01*
X31907936Y21138767D01*
X31903865Y21145234D01*
X31903088Y21147110D01*
X31901353Y21149224D01*
X31899894Y21151542D01*
X31898356Y21152876D01*
X31893512Y21158779D01*
X31798274Y21254017D01*
X31786606Y21263593D01*
X31784047Y21264653D01*
X31781959Y21266464D01*
X31768176Y21272619D01*
X31625320Y21320238D01*
X31617868Y21321932D01*
X31615992Y21322709D01*
X31613269Y21322978D01*
X31610600Y21323584D01*
X31608573Y21323440D01*
X31600970Y21324189D01*
X31458113Y21324189D01*
X31443091Y21322709D01*
X31440534Y21321651D01*
X31437775Y21321454D01*
X31423677Y21316060D01*
X31328440Y21268441D01*
X31315665Y21260399D01*
X31295980Y21237703D01*
X31286480Y21209201D01*
X31288610Y21179233D01*
X31302046Y21152360D01*
X31324742Y21132675D01*
X31353244Y21123175D01*
X31383212Y21125305D01*
X31397310Y21130699D01*
X31476290Y21170189D01*
X31588473Y21170189D01*
X31702233Y21132270D01*
X31775782Y21058721D01*
X31814033Y20982219D01*
X31857303Y20809139D01*
X31857303Y20685240D01*
X31814033Y20512160D01*
X31775782Y20435658D01*
X31702231Y20362108D01*
X31588473Y20324189D01*
X31518228Y20324189D01*
X31404469Y20362109D01*
X31392256Y20374323D01*
X31392256Y20598761D01*
X31505732Y20598761D01*
X31520754Y20600241D01*
X31548511Y20611738D01*
X31569755Y20632982D01*
X31581252Y20660739D01*
X31581252Y20690783D01*
X31569755Y20718540D01*
X31548511Y20739784D01*
X31520754Y20751281D01*
X31505732Y20752761D01*
X31315256Y20752761D01*
X31300234Y20751281D01*
X31272477Y20739784D01*
X31251233Y20718540D01*
X31239736Y20690783D01*
X31238256Y20675761D01*
X30963684Y20675761D01*
X30963684Y21247189D01*
X30963303Y21251053D01*
X30963496Y21252567D01*
X30962960Y21254530D01*
X30962204Y21262211D01*
X30958286Y21271670D01*
X30955591Y21281552D01*
X30952585Y21285434D01*
X30950707Y21289968D01*
X30943464Y21297211D01*
X30937195Y21305306D01*
X30932934Y21307741D01*
X30929463Y21311212D01*
X30920001Y21315131D01*
X30911110Y21320212D01*
X30906239Y21320832D01*
X30901706Y21322709D01*
X30891469Y21322709D01*
X30881306Y21324001D01*
X30876569Y21322709D01*
X30871662Y21322709D01*
X30862203Y21318792D01*
X30852321Y21316096D01*
X30848439Y21313091D01*
X30843905Y21311212D01*
X30836662Y21303970D01*
X30828567Y21297700D01*
X30824097Y21291405D01*
X30822661Y21289968D01*
X30822077Y21288559D01*
X30819829Y21285392D01*
X30392256Y20537139D01*
X30392256Y21247189D01*
X30390776Y21262211D01*
X30379279Y21289968D01*
X30358035Y21311212D01*
X30330278Y21322709D01*
X30300234Y21322709D01*
X30272477Y21311212D01*
X30251233Y21289968D01*
X30239736Y21262211D01*
X30238256Y21247189D01*
X29916065Y21247189D01*
X29914585Y21262211D01*
X29903088Y21289968D01*
X29881844Y21311212D01*
X29854087Y21322709D01*
X29839065Y21324189D01*
X29600970Y21324189D01*
X29593366Y21323440D01*
X29591339Y21323584D01*
X29588670Y21322978D01*
X29585948Y21322709D01*
X29584069Y21321932D01*
X29576620Y21320237D01*
X29433763Y21272619D01*
X29419980Y21266464D01*
X29417889Y21264652D01*
X29415335Y21263593D01*
X29403666Y21254017D01*
X29308428Y21158779D01*
X29303578Y21152871D01*
X29302046Y21151541D01*
X29300591Y21149231D01*
X29298852Y21147111D01*
X29298072Y21145231D01*
X29294004Y21138767D01*
X29246385Y21043529D01*
X29245964Y21042431D01*
X29245634Y21041984D01*
X29243377Y21035668D01*
X29240991Y21029431D01*
X29240951Y21028880D01*
X29240555Y21027769D01*
X29192936Y20837293D01*
X29192550Y20834687D01*
X29192117Y20833640D01*
X29191560Y20827990D01*
X29190728Y20822361D01*
X29190895Y20821238D01*
X29190637Y20818618D01*
X29079526Y20818618D01*
X29079526Y21435300D01*
X32122414Y21435300D01*
X32122414Y20059078D01*
G37*
X20437789Y23117342D02*
X19675885Y23117342D01*
X20056837Y22736389D02*
X20056837Y23498294D01*
X48612211Y2933528D02*
X48136020Y3266861D01*
X48612211Y3504956D02*
X47612211Y3504956D01*
X47612211Y3504956D02*
X47612211Y3124004D01*
X47612211Y3124004D02*
X47659830Y3028766D01*
X47659830Y3028766D02*
X47707449Y2981147D01*
X47707449Y2981147D02*
X47802687Y2933528D01*
X47802687Y2933528D02*
X47945544Y2933528D01*
X47945544Y2933528D02*
X48040782Y2981147D01*
X48040782Y2981147D02*
X48088401Y3028766D01*
X48088401Y3028766D02*
X48136020Y3124004D01*
X48136020Y3124004D02*
X48136020Y3504956D01*
X47612211Y2600194D02*
X48612211Y1933528D01*
X47612211Y1933528D02*
X48612211Y2600194D01*
G36*
X30985559Y17468278D02*
G01*
X29086493Y17468278D01*
X29086493Y18646759D01*
X29197604Y18646759D01*
X29200950Y18632039D01*
X29534283Y17632040D01*
X29540438Y17618257D01*
X29544039Y17614105D01*
X29546502Y17609179D01*
X29553799Y17602851D01*
X29560122Y17595560D01*
X29565042Y17593100D01*
X29569199Y17589495D01*
X29578358Y17586442D01*
X29586994Y17582124D01*
X29592482Y17581734D01*
X29597702Y17579994D01*
X29607332Y17580679D01*
X29616962Y17579994D01*
X29622181Y17581734D01*
X29627670Y17582124D01*
X29636309Y17586444D01*
X29645464Y17589495D01*
X29649616Y17593097D01*
X29654542Y17595559D01*
X29660873Y17602860D01*
X29668161Y17609180D01*
X29670620Y17614099D01*
X29674226Y17618256D01*
X29680381Y17632039D01*
X29831354Y18084961D01*
X30149380Y18084961D01*
X30149380Y17846866D01*
X30150860Y17831844D01*
X30151918Y17829288D01*
X30152115Y17826529D01*
X30157509Y17812431D01*
X30205128Y17717193D01*
X30209197Y17710729D01*
X30209976Y17708850D01*
X30211713Y17706733D01*
X30213170Y17704419D01*
X30214702Y17703090D01*
X30219551Y17697181D01*
X30267170Y17649561D01*
X30273075Y17644716D01*
X30274408Y17643179D01*
X30276726Y17641720D01*
X30278839Y17639986D01*
X30280714Y17639210D01*
X30287183Y17635137D01*
X30382420Y17587518D01*
X30396518Y17582124D01*
X30399277Y17581928D01*
X30401834Y17580869D01*
X30416856Y17579389D01*
X30654951Y17579389D01*
X30669973Y17580869D01*
X30672529Y17581928D01*
X30675288Y17582124D01*
X30689386Y17587518D01*
X30784624Y17635137D01*
X30791091Y17639209D01*
X30792968Y17639986D01*
X30795083Y17641722D01*
X30797398Y17643179D01*
X30798727Y17644713D01*
X30804637Y17649561D01*
X30852256Y17697181D01*
X30861831Y17708850D01*
X30873328Y17736607D01*
X30873328Y17766650D01*
X30861830Y17794407D01*
X30840586Y17815651D01*
X30812829Y17827148D01*
X30782785Y17827148D01*
X30755029Y17815650D01*
X30743360Y17806075D01*
X30704576Y17767291D01*
X30636774Y17733389D01*
X30435033Y17733389D01*
X30367231Y17767290D01*
X30337282Y17797240D01*
X30303380Y17865044D01*
X30303380Y18066784D01*
X30337282Y18134589D01*
X30367230Y18164536D01*
X30435033Y18198437D01*
X30636774Y18198437D01*
X30704578Y18164535D01*
X30743360Y18125752D01*
X30755029Y18116176D01*
X30758611Y18114693D01*
X30761612Y18112237D01*
X30772388Y18108986D01*
X30782786Y18104679D01*
X30786663Y18104679D01*
X30790375Y18103559D01*
X30801573Y18104679D01*
X30812829Y18104679D01*
X30816412Y18106164D01*
X30820270Y18106549D01*
X30830189Y18111870D01*
X30840586Y18116176D01*
X30843326Y18118917D01*
X30846745Y18120750D01*
X30853877Y18129468D01*
X30861831Y18137421D01*
X30863313Y18141002D01*
X30865770Y18144003D01*
X30869022Y18154784D01*
X30873328Y18165178D01*
X30873328Y18169054D01*
X30874448Y18172766D01*
X30874426Y18187861D01*
X30826807Y18664051D01*
X30825709Y18669527D01*
X30825709Y18671411D01*
X30824976Y18673181D01*
X30823839Y18678851D01*
X30818520Y18688768D01*
X30814212Y18699168D01*
X30811470Y18701910D01*
X30809638Y18705326D01*
X30800926Y18712454D01*
X30792968Y18720412D01*
X30789385Y18721896D01*
X30786385Y18724351D01*
X30775608Y18727603D01*
X30765211Y18731909D01*
X30759454Y18732477D01*
X30757622Y18733029D01*
X30755746Y18732842D01*
X30750189Y18733389D01*
X30273999Y18733389D01*
X30258977Y18731909D01*
X30231220Y18720412D01*
X30209976Y18699168D01*
X30198479Y18671411D01*
X30198479Y18641367D01*
X30209976Y18613610D01*
X30231220Y18592366D01*
X30258977Y18580869D01*
X30273999Y18579389D01*
X30680505Y18579389D01*
X30704782Y18336610D01*
X30689386Y18344308D01*
X30675288Y18349702D01*
X30672529Y18349899D01*
X30669973Y18350957D01*
X30654951Y18352437D01*
X30416856Y18352437D01*
X30401834Y18350957D01*
X30399277Y18349899D01*
X30396518Y18349702D01*
X30382420Y18344308D01*
X30287183Y18296689D01*
X30280718Y18292620D01*
X30278839Y18291841D01*
X30276721Y18290104D01*
X30274408Y18288647D01*
X30273077Y18287113D01*
X30267170Y18282265D01*
X30219552Y18234646D01*
X30214702Y18228738D01*
X30213170Y18227408D01*
X30211715Y18225098D01*
X30209976Y18222978D01*
X30209196Y18221098D01*
X30205128Y18214634D01*
X30157509Y18119396D01*
X30152115Y18105298D01*
X30151918Y18102540D01*
X30150860Y18099983D01*
X30149380Y18084961D01*
X29831354Y18084961D01*
X30013713Y18632039D01*
X30017060Y18646758D01*
X30014930Y18676726D01*
X30001494Y18703598D01*
X29978797Y18723283D01*
X29950295Y18732784D01*
X29920327Y18730654D01*
X29893455Y18717218D01*
X29873771Y18694521D01*
X29867616Y18680738D01*
X29607331Y17899885D01*
X29347048Y18680739D01*
X29340893Y18694522D01*
X29321209Y18717219D01*
X29294337Y18730654D01*
X29264369Y18732784D01*
X29235866Y18723283D01*
X29213169Y18703599D01*
X29199734Y18676727D01*
X29197604Y18646759D01*
X29086493Y18646759D01*
X29086493Y18844500D01*
X30985559Y18844500D01*
X30985559Y17468278D01*
G37*
X31991211Y7948894D02*
X31991211Y7377466D01*
X32991211Y7663180D02*
X31991211Y7663180D01*
X32895972Y6472704D02*
X32943592Y6520323D01*
X32943592Y6520323D02*
X32991211Y6663180D01*
X32991211Y6663180D02*
X32991211Y6758418D01*
X32991211Y6758418D02*
X32943592Y6901275D01*
X32943592Y6901275D02*
X32848353Y6996513D01*
X32848353Y6996513D02*
X32753115Y7044132D01*
X32753115Y7044132D02*
X32562639Y7091751D01*
X32562639Y7091751D02*
X32419782Y7091751D01*
X32419782Y7091751D02*
X32229306Y7044132D01*
X32229306Y7044132D02*
X32134068Y6996513D01*
X32134068Y6996513D02*
X32038830Y6901275D01*
X32038830Y6901275D02*
X31991211Y6758418D01*
X31991211Y6758418D02*
X31991211Y6663180D01*
X31991211Y6663180D02*
X32038830Y6520323D01*
X32038830Y6520323D02*
X32086449Y6472704D01*
X32991211Y6044132D02*
X31991211Y6044132D01*
X32991211Y5472704D02*
X32419782Y5901275D01*
X31991211Y5472704D02*
X32562639Y6044132D01*
X29959211Y4073828D02*
X29959211Y3454781D01*
X29959211Y3454781D02*
X30340163Y3788114D01*
X30340163Y3788114D02*
X30340163Y3645257D01*
X30340163Y3645257D02*
X30387782Y3550019D01*
X30387782Y3550019D02*
X30435401Y3502400D01*
X30435401Y3502400D02*
X30530639Y3454781D01*
X30530639Y3454781D02*
X30768734Y3454781D01*
X30768734Y3454781D02*
X30863972Y3502400D01*
X30863972Y3502400D02*
X30911592Y3550019D01*
X30911592Y3550019D02*
X30959211Y3645257D01*
X30959211Y3645257D02*
X30959211Y3930971D01*
X30959211Y3930971D02*
X30911592Y4026209D01*
X30911592Y4026209D02*
X30863972Y4073828D01*
X29959211Y3169066D02*
X30959211Y2835733D01*
X30959211Y2835733D02*
X29959211Y2502400D01*
X29959211Y2264304D02*
X29959211Y1645257D01*
X29959211Y1645257D02*
X30340163Y1978590D01*
X30340163Y1978590D02*
X30340163Y1835733D01*
X30340163Y1835733D02*
X30387782Y1740495D01*
X30387782Y1740495D02*
X30435401Y1692876D01*
X30435401Y1692876D02*
X30530639Y1645257D01*
X30530639Y1645257D02*
X30768734Y1645257D01*
X30768734Y1645257D02*
X30863972Y1692876D01*
X30863972Y1692876D02*
X30911592Y1740495D01*
X30911592Y1740495D02*
X30959211Y1835733D01*
X30959211Y1835733D02*
X30959211Y2121447D01*
X30959211Y2121447D02*
X30911592Y2216685D01*
X30911592Y2216685D02*
X30863972Y2264304D01*
X69205789Y20755343D02*
X68872456Y20755343D01*
X68729599Y20231533D02*
X69205789Y20231533D01*
X69205789Y20231533D02*
X69205789Y21231533D01*
X69205789Y21231533D02*
X68729599Y21231533D01*
X68348646Y20279152D02*
X68205789Y20231533D01*
X68205789Y20231533D02*
X67967694Y20231533D01*
X67967694Y20231533D02*
X67872456Y20279152D01*
X67872456Y20279152D02*
X67824837Y20326772D01*
X67824837Y20326772D02*
X67777218Y20422010D01*
X67777218Y20422010D02*
X67777218Y20517248D01*
X67777218Y20517248D02*
X67824837Y20612486D01*
X67824837Y20612486D02*
X67872456Y20660105D01*
X67872456Y20660105D02*
X67967694Y20707724D01*
X67967694Y20707724D02*
X68158170Y20755343D01*
X68158170Y20755343D02*
X68253408Y20802962D01*
X68253408Y20802962D02*
X68301027Y20850581D01*
X68301027Y20850581D02*
X68348646Y20945819D01*
X68348646Y20945819D02*
X68348646Y21041057D01*
X68348646Y21041057D02*
X68301027Y21136295D01*
X68301027Y21136295D02*
X68253408Y21183914D01*
X68253408Y21183914D02*
X68158170Y21231533D01*
X68158170Y21231533D02*
X67920075Y21231533D01*
X67920075Y21231533D02*
X67777218Y21183914D01*
X67348646Y20231533D02*
X67348646Y21231533D01*
X67348646Y21231533D02*
X66967694Y21231533D01*
X66967694Y21231533D02*
X66872456Y21183914D01*
X66872456Y21183914D02*
X66824837Y21136295D01*
X66824837Y21136295D02*
X66777218Y21041057D01*
X66777218Y21041057D02*
X66777218Y20898200D01*
X66777218Y20898200D02*
X66824837Y20802962D01*
X66824837Y20802962D02*
X66872456Y20755343D01*
X66872456Y20755343D02*
X66967694Y20707724D01*
X66967694Y20707724D02*
X67348646Y20707724D01*
X66443884Y21231533D02*
X65824837Y21231533D01*
X65824837Y21231533D02*
X66158170Y20850581D01*
X66158170Y20850581D02*
X66015313Y20850581D01*
X66015313Y20850581D02*
X65920075Y20802962D01*
X65920075Y20802962D02*
X65872456Y20755343D01*
X65872456Y20755343D02*
X65824837Y20660105D01*
X65824837Y20660105D02*
X65824837Y20422010D01*
X65824837Y20422010D02*
X65872456Y20326772D01*
X65872456Y20326772D02*
X65920075Y20279152D01*
X65920075Y20279152D02*
X66015313Y20231533D01*
X66015313Y20231533D02*
X66301027Y20231533D01*
X66301027Y20231533D02*
X66396265Y20279152D01*
X66396265Y20279152D02*
X66443884Y20326772D01*
X65443884Y21136295D02*
X65396265Y21183914D01*
X65396265Y21183914D02*
X65301027Y21231533D01*
X65301027Y21231533D02*
X65062932Y21231533D01*
X65062932Y21231533D02*
X64967694Y21183914D01*
X64967694Y21183914D02*
X64920075Y21136295D01*
X64920075Y21136295D02*
X64872456Y21041057D01*
X64872456Y21041057D02*
X64872456Y20945819D01*
X64872456Y20945819D02*
X64920075Y20802962D01*
X64920075Y20802962D02*
X65491503Y20231533D01*
X65491503Y20231533D02*
X64872456Y20231533D01*
X63729598Y20517248D02*
X63253408Y20517248D01*
X63824836Y20231533D02*
X63491503Y21231533D01*
X63491503Y21231533D02*
X63158170Y20231533D01*
X62967693Y21231533D02*
X62396265Y21231533D01*
X62681979Y20231533D02*
X62681979Y21231533D01*
X62158169Y21231533D02*
X61491503Y20231533D01*
X61491503Y21231533D02*
X62158169Y20231533D01*
X60348645Y20231533D02*
X60348645Y21231533D01*
X60348645Y21231533D02*
X59967693Y21231533D01*
X59967693Y21231533D02*
X59872455Y21183914D01*
X59872455Y21183914D02*
X59824836Y21136295D01*
X59824836Y21136295D02*
X59777217Y21041057D01*
X59777217Y21041057D02*
X59777217Y20898200D01*
X59777217Y20898200D02*
X59824836Y20802962D01*
X59824836Y20802962D02*
X59872455Y20755343D01*
X59872455Y20755343D02*
X59967693Y20707724D01*
X59967693Y20707724D02*
X60348645Y20707724D01*
X59205788Y20231533D02*
X59301026Y20279152D01*
X59301026Y20279152D02*
X59348645Y20326772D01*
X59348645Y20326772D02*
X59396264Y20422010D01*
X59396264Y20422010D02*
X59396264Y20707724D01*
X59396264Y20707724D02*
X59348645Y20802962D01*
X59348645Y20802962D02*
X59301026Y20850581D01*
X59301026Y20850581D02*
X59205788Y20898200D01*
X59205788Y20898200D02*
X59062931Y20898200D01*
X59062931Y20898200D02*
X58967693Y20850581D01*
X58967693Y20850581D02*
X58920074Y20802962D01*
X58920074Y20802962D02*
X58872455Y20707724D01*
X58872455Y20707724D02*
X58872455Y20422010D01*
X58872455Y20422010D02*
X58920074Y20326772D01*
X58920074Y20326772D02*
X58967693Y20279152D01*
X58967693Y20279152D02*
X59062931Y20231533D01*
X59062931Y20231533D02*
X59205788Y20231533D01*
X58539121Y20898200D02*
X58348645Y20231533D01*
X58348645Y20231533D02*
X58158169Y20707724D01*
X58158169Y20707724D02*
X57967693Y20231533D01*
X57967693Y20231533D02*
X57777217Y20898200D01*
X57015312Y20279152D02*
X57110550Y20231533D01*
X57110550Y20231533D02*
X57301026Y20231533D01*
X57301026Y20231533D02*
X57396264Y20279152D01*
X57396264Y20279152D02*
X57443883Y20374391D01*
X57443883Y20374391D02*
X57443883Y20755343D01*
X57443883Y20755343D02*
X57396264Y20850581D01*
X57396264Y20850581D02*
X57301026Y20898200D01*
X57301026Y20898200D02*
X57110550Y20898200D01*
X57110550Y20898200D02*
X57015312Y20850581D01*
X57015312Y20850581D02*
X56967693Y20755343D01*
X56967693Y20755343D02*
X56967693Y20660105D01*
X56967693Y20660105D02*
X57443883Y20564867D01*
X56539121Y20231533D02*
X56539121Y20898200D01*
X56539121Y20707724D02*
X56491502Y20802962D01*
X56491502Y20802962D02*
X56443883Y20850581D01*
X56443883Y20850581D02*
X56348645Y20898200D01*
X56348645Y20898200D02*
X56253407Y20898200D01*
X54586740Y20326772D02*
X54634359Y20279152D01*
X54634359Y20279152D02*
X54777216Y20231533D01*
X54777216Y20231533D02*
X54872454Y20231533D01*
X54872454Y20231533D02*
X55015311Y20279152D01*
X55015311Y20279152D02*
X55110549Y20374391D01*
X55110549Y20374391D02*
X55158168Y20469629D01*
X55158168Y20469629D02*
X55205787Y20660105D01*
X55205787Y20660105D02*
X55205787Y20802962D01*
X55205787Y20802962D02*
X55158168Y20993438D01*
X55158168Y20993438D02*
X55110549Y21088676D01*
X55110549Y21088676D02*
X55015311Y21183914D01*
X55015311Y21183914D02*
X54872454Y21231533D01*
X54872454Y21231533D02*
X54777216Y21231533D01*
X54777216Y21231533D02*
X54634359Y21183914D01*
X54634359Y21183914D02*
X54586740Y21136295D01*
X54015311Y20231533D02*
X54110549Y20279152D01*
X54110549Y20279152D02*
X54158168Y20326772D01*
X54158168Y20326772D02*
X54205787Y20422010D01*
X54205787Y20422010D02*
X54205787Y20707724D01*
X54205787Y20707724D02*
X54158168Y20802962D01*
X54158168Y20802962D02*
X54110549Y20850581D01*
X54110549Y20850581D02*
X54015311Y20898200D01*
X54015311Y20898200D02*
X53872454Y20898200D01*
X53872454Y20898200D02*
X53777216Y20850581D01*
X53777216Y20850581D02*
X53729597Y20802962D01*
X53729597Y20802962D02*
X53681978Y20707724D01*
X53681978Y20707724D02*
X53681978Y20422010D01*
X53681978Y20422010D02*
X53729597Y20326772D01*
X53729597Y20326772D02*
X53777216Y20279152D01*
X53777216Y20279152D02*
X53872454Y20231533D01*
X53872454Y20231533D02*
X54015311Y20231533D01*
X53253406Y20898200D02*
X53253406Y20231533D01*
X53253406Y20802962D02*
X53205787Y20850581D01*
X53205787Y20850581D02*
X53110549Y20898200D01*
X53110549Y20898200D02*
X52967692Y20898200D01*
X52967692Y20898200D02*
X52872454Y20850581D01*
X52872454Y20850581D02*
X52824835Y20755343D01*
X52824835Y20755343D02*
X52824835Y20231533D01*
X52491501Y20898200D02*
X52110549Y20898200D01*
X52348644Y21231533D02*
X52348644Y20374391D01*
X52348644Y20374391D02*
X52301025Y20279152D01*
X52301025Y20279152D02*
X52205787Y20231533D01*
X52205787Y20231533D02*
X52110549Y20231533D01*
X51777215Y20231533D02*
X51777215Y20898200D01*
X51777215Y20707724D02*
X51729596Y20802962D01*
X51729596Y20802962D02*
X51681977Y20850581D01*
X51681977Y20850581D02*
X51586739Y20898200D01*
X51586739Y20898200D02*
X51491501Y20898200D01*
X51015310Y20231533D02*
X51110548Y20279152D01*
X51110548Y20279152D02*
X51158167Y20326772D01*
X51158167Y20326772D02*
X51205786Y20422010D01*
X51205786Y20422010D02*
X51205786Y20707724D01*
X51205786Y20707724D02*
X51158167Y20802962D01*
X51158167Y20802962D02*
X51110548Y20850581D01*
X51110548Y20850581D02*
X51015310Y20898200D01*
X51015310Y20898200D02*
X50872453Y20898200D01*
X50872453Y20898200D02*
X50777215Y20850581D01*
X50777215Y20850581D02*
X50729596Y20802962D01*
X50729596Y20802962D02*
X50681977Y20707724D01*
X50681977Y20707724D02*
X50681977Y20422010D01*
X50681977Y20422010D02*
X50729596Y20326772D01*
X50729596Y20326772D02*
X50777215Y20279152D01*
X50777215Y20279152D02*
X50872453Y20231533D01*
X50872453Y20231533D02*
X51015310Y20231533D01*
X50110548Y20231533D02*
X50205786Y20279152D01*
X50205786Y20279152D02*
X50253405Y20374391D01*
X50253405Y20374391D02*
X50253405Y21231533D01*
X49586738Y20231533D02*
X49681976Y20279152D01*
X49681976Y20279152D02*
X49729595Y20374391D01*
X49729595Y20374391D02*
X49729595Y21231533D01*
X48824833Y20279152D02*
X48920071Y20231533D01*
X48920071Y20231533D02*
X49110547Y20231533D01*
X49110547Y20231533D02*
X49205785Y20279152D01*
X49205785Y20279152D02*
X49253404Y20374391D01*
X49253404Y20374391D02*
X49253404Y20755343D01*
X49253404Y20755343D02*
X49205785Y20850581D01*
X49205785Y20850581D02*
X49110547Y20898200D01*
X49110547Y20898200D02*
X48920071Y20898200D01*
X48920071Y20898200D02*
X48824833Y20850581D01*
X48824833Y20850581D02*
X48777214Y20755343D01*
X48777214Y20755343D02*
X48777214Y20660105D01*
X48777214Y20660105D02*
X49253404Y20564867D01*
X48348642Y20231533D02*
X48348642Y20898200D01*
X48348642Y20707724D02*
X48301023Y20802962D01*
X48301023Y20802962D02*
X48253404Y20850581D01*
X48253404Y20850581D02*
X48158166Y20898200D01*
X48158166Y20898200D02*
X48062928Y20898200D01*
X68634361Y18621589D02*
X68967694Y19097780D01*
X69205789Y18621589D02*
X69205789Y19621589D01*
X69205789Y19621589D02*
X68824837Y19621589D01*
X68824837Y19621589D02*
X68729599Y19573970D01*
X68729599Y19573970D02*
X68681980Y19526351D01*
X68681980Y19526351D02*
X68634361Y19431113D01*
X68634361Y19431113D02*
X68634361Y19288256D01*
X68634361Y19288256D02*
X68681980Y19193018D01*
X68681980Y19193018D02*
X68729599Y19145399D01*
X68729599Y19145399D02*
X68824837Y19097780D01*
X68824837Y19097780D02*
X69205789Y19097780D01*
X67824837Y18669208D02*
X67920075Y18621589D01*
X67920075Y18621589D02*
X68110551Y18621589D01*
X68110551Y18621589D02*
X68205789Y18669208D01*
X68205789Y18669208D02*
X68253408Y18764447D01*
X68253408Y18764447D02*
X68253408Y19145399D01*
X68253408Y19145399D02*
X68205789Y19240637D01*
X68205789Y19240637D02*
X68110551Y19288256D01*
X68110551Y19288256D02*
X67920075Y19288256D01*
X67920075Y19288256D02*
X67824837Y19240637D01*
X67824837Y19240637D02*
X67777218Y19145399D01*
X67777218Y19145399D02*
X67777218Y19050161D01*
X67777218Y19050161D02*
X68253408Y18954923D01*
X67443884Y19288256D02*
X67205789Y18621589D01*
X67205789Y18621589D02*
X66967694Y19288256D01*
X66586741Y18621589D02*
X66586741Y19288256D01*
X66586741Y19621589D02*
X66634360Y19573970D01*
X66634360Y19573970D02*
X66586741Y19526351D01*
X66586741Y19526351D02*
X66539122Y19573970D01*
X66539122Y19573970D02*
X66586741Y19621589D01*
X66586741Y19621589D02*
X66586741Y19526351D01*
X66158170Y18669208D02*
X66062932Y18621589D01*
X66062932Y18621589D02*
X65872456Y18621589D01*
X65872456Y18621589D02*
X65777218Y18669208D01*
X65777218Y18669208D02*
X65729599Y18764447D01*
X65729599Y18764447D02*
X65729599Y18812066D01*
X65729599Y18812066D02*
X65777218Y18907304D01*
X65777218Y18907304D02*
X65872456Y18954923D01*
X65872456Y18954923D02*
X66015313Y18954923D01*
X66015313Y18954923D02*
X66110551Y19002542D01*
X66110551Y19002542D02*
X66158170Y19097780D01*
X66158170Y19097780D02*
X66158170Y19145399D01*
X66158170Y19145399D02*
X66110551Y19240637D01*
X66110551Y19240637D02*
X66015313Y19288256D01*
X66015313Y19288256D02*
X65872456Y19288256D01*
X65872456Y19288256D02*
X65777218Y19240637D01*
X65301027Y18621589D02*
X65301027Y19288256D01*
X65301027Y19621589D02*
X65348646Y19573970D01*
X65348646Y19573970D02*
X65301027Y19526351D01*
X65301027Y19526351D02*
X65253408Y19573970D01*
X65253408Y19573970D02*
X65301027Y19621589D01*
X65301027Y19621589D02*
X65301027Y19526351D01*
X64681980Y18621589D02*
X64777218Y18669208D01*
X64777218Y18669208D02*
X64824837Y18716828D01*
X64824837Y18716828D02*
X64872456Y18812066D01*
X64872456Y18812066D02*
X64872456Y19097780D01*
X64872456Y19097780D02*
X64824837Y19193018D01*
X64824837Y19193018D02*
X64777218Y19240637D01*
X64777218Y19240637D02*
X64681980Y19288256D01*
X64681980Y19288256D02*
X64539123Y19288256D01*
X64539123Y19288256D02*
X64443885Y19240637D01*
X64443885Y19240637D02*
X64396266Y19193018D01*
X64396266Y19193018D02*
X64348647Y19097780D01*
X64348647Y19097780D02*
X64348647Y18812066D01*
X64348647Y18812066D02*
X64396266Y18716828D01*
X64396266Y18716828D02*
X64443885Y18669208D01*
X64443885Y18669208D02*
X64539123Y18621589D01*
X64539123Y18621589D02*
X64681980Y18621589D01*
X63920075Y19288256D02*
X63920075Y18621589D01*
X63920075Y19193018D02*
X63872456Y19240637D01*
X63872456Y19240637D02*
X63777218Y19288256D01*
X63777218Y19288256D02*
X63634361Y19288256D01*
X63634361Y19288256D02*
X63539123Y19240637D01*
X63539123Y19240637D02*
X63491504Y19145399D01*
X63491504Y19145399D02*
X63491504Y18621589D01*
X62301027Y19526351D02*
X62253408Y19573970D01*
X62253408Y19573970D02*
X62158170Y19621589D01*
X62158170Y19621589D02*
X61920075Y19621589D01*
X61920075Y19621589D02*
X61824837Y19573970D01*
X61824837Y19573970D02*
X61777218Y19526351D01*
X61777218Y19526351D02*
X61729599Y19431113D01*
X61729599Y19431113D02*
X61729599Y19335875D01*
X61729599Y19335875D02*
X61777218Y19193018D01*
X61777218Y19193018D02*
X62348646Y18621589D01*
X62348646Y18621589D02*
X61729599Y18621589D01*
X61301027Y18716828D02*
X61253408Y18669208D01*
X61253408Y18669208D02*
X61301027Y18621589D01*
X61301027Y18621589D02*
X61348646Y18669208D01*
X61348646Y18669208D02*
X61301027Y18716828D01*
X61301027Y18716828D02*
X61301027Y18621589D01*
X60634361Y19621589D02*
X60539123Y19621589D01*
X60539123Y19621589D02*
X60443885Y19573970D01*
X60443885Y19573970D02*
X60396266Y19526351D01*
X60396266Y19526351D02*
X60348647Y19431113D01*
X60348647Y19431113D02*
X60301028Y19240637D01*
X60301028Y19240637D02*
X60301028Y19002542D01*
X60301028Y19002542D02*
X60348647Y18812066D01*
X60348647Y18812066D02*
X60396266Y18716828D01*
X60396266Y18716828D02*
X60443885Y18669208D01*
X60443885Y18669208D02*
X60539123Y18621589D01*
X60539123Y18621589D02*
X60634361Y18621589D01*
X60634361Y18621589D02*
X60729599Y18669208D01*
X60729599Y18669208D02*
X60777218Y18716828D01*
X60777218Y18716828D02*
X60824837Y18812066D01*
X60824837Y18812066D02*
X60872456Y19002542D01*
X60872456Y19002542D02*
X60872456Y19240637D01*
X60872456Y19240637D02*
X60824837Y19431113D01*
X60824837Y19431113D02*
X60777218Y19526351D01*
X60777218Y19526351D02*
X60729599Y19573970D01*
X60729599Y19573970D02*
X60634361Y19621589D01*
X59872456Y18716828D02*
X59824837Y18669208D01*
X59824837Y18669208D02*
X59872456Y18621589D01*
X59872456Y18621589D02*
X59920075Y18669208D01*
X59920075Y18669208D02*
X59872456Y18716828D01*
X59872456Y18716828D02*
X59872456Y18621589D01*
X59205790Y19621589D02*
X59110552Y19621589D01*
X59110552Y19621589D02*
X59015314Y19573970D01*
X59015314Y19573970D02*
X58967695Y19526351D01*
X58967695Y19526351D02*
X58920076Y19431113D01*
X58920076Y19431113D02*
X58872457Y19240637D01*
X58872457Y19240637D02*
X58872457Y19002542D01*
X58872457Y19002542D02*
X58920076Y18812066D01*
X58920076Y18812066D02*
X58967695Y18716828D01*
X58967695Y18716828D02*
X59015314Y18669208D01*
X59015314Y18669208D02*
X59110552Y18621589D01*
X59110552Y18621589D02*
X59205790Y18621589D01*
X59205790Y18621589D02*
X59301028Y18669208D01*
X59301028Y18669208D02*
X59348647Y18716828D01*
X59348647Y18716828D02*
X59396266Y18812066D01*
X59396266Y18812066D02*
X59443885Y19002542D01*
X59443885Y19002542D02*
X59443885Y19240637D01*
X59443885Y19240637D02*
X59396266Y19431113D01*
X59396266Y19431113D02*
X59348647Y19526351D01*
X59348647Y19526351D02*
X59301028Y19573970D01*
X59301028Y19573970D02*
X59205790Y19621589D01*
X43548211Y4004956D02*
X43548211Y3385909D01*
X43548211Y3385909D02*
X43929163Y3719242D01*
X43929163Y3719242D02*
X43929163Y3576385D01*
X43929163Y3576385D02*
X43976782Y3481147D01*
X43976782Y3481147D02*
X44024401Y3433528D01*
X44024401Y3433528D02*
X44119639Y3385909D01*
X44119639Y3385909D02*
X44357734Y3385909D01*
X44357734Y3385909D02*
X44452972Y3433528D01*
X44452972Y3433528D02*
X44500592Y3481147D01*
X44500592Y3481147D02*
X44548211Y3576385D01*
X44548211Y3576385D02*
X44548211Y3862099D01*
X44548211Y3862099D02*
X44500592Y3957337D01*
X44500592Y3957337D02*
X44452972Y4004956D01*
X43548211Y3100194D02*
X44548211Y2766861D01*
X44548211Y2766861D02*
X43548211Y2433528D01*
X43548211Y2195432D02*
X43548211Y1576385D01*
X43548211Y1576385D02*
X43929163Y1909718D01*
X43929163Y1909718D02*
X43929163Y1766861D01*
X43929163Y1766861D02*
X43976782Y1671623D01*
X43976782Y1671623D02*
X44024401Y1624004D01*
X44024401Y1624004D02*
X44119639Y1576385D01*
X44119639Y1576385D02*
X44357734Y1576385D01*
X44357734Y1576385D02*
X44452972Y1624004D01*
X44452972Y1624004D02*
X44500592Y1671623D01*
X44500592Y1671623D02*
X44548211Y1766861D01*
X44548211Y1766861D02*
X44548211Y2052575D01*
X44548211Y2052575D02*
X44500592Y2147813D01*
X44500592Y2147813D02*
X44452972Y2195432D01*
X49742630Y3528766D02*
X49695011Y3624004D01*
X49695011Y3624004D02*
X49695011Y3766861D01*
X49695011Y3766861D02*
X49742630Y3909718D01*
X49742630Y3909718D02*
X49837868Y4004956D01*
X49837868Y4004956D02*
X49933106Y4052575D01*
X49933106Y4052575D02*
X50123582Y4100194D01*
X50123582Y4100194D02*
X50266439Y4100194D01*
X50266439Y4100194D02*
X50456915Y4052575D01*
X50456915Y4052575D02*
X50552153Y4004956D01*
X50552153Y4004956D02*
X50647392Y3909718D01*
X50647392Y3909718D02*
X50695011Y3766861D01*
X50695011Y3766861D02*
X50695011Y3671623D01*
X50695011Y3671623D02*
X50647392Y3528766D01*
X50647392Y3528766D02*
X50599772Y3481147D01*
X50599772Y3481147D02*
X50266439Y3481147D01*
X50266439Y3481147D02*
X50266439Y3671623D01*
X50695011Y3052575D02*
X49695011Y3052575D01*
X49695011Y3052575D02*
X50695011Y2481147D01*
X50695011Y2481147D02*
X49695011Y2481147D01*
X50695011Y2004956D02*
X49695011Y2004956D01*
X49695011Y2004956D02*
X49695011Y1766861D01*
X49695011Y1766861D02*
X49742630Y1624004D01*
X49742630Y1624004D02*
X49837868Y1528766D01*
X49837868Y1528766D02*
X49933106Y1481147D01*
X49933106Y1481147D02*
X50123582Y1433528D01*
X50123582Y1433528D02*
X50266439Y1433528D01*
X50266439Y1433528D02*
X50456915Y1481147D01*
X50456915Y1481147D02*
X50552153Y1528766D01*
X50552153Y1528766D02*
X50647392Y1624004D01*
X50647392Y1624004D02*
X50695011Y1766861D01*
X50695011Y1766861D02*
X50695011Y2004956D01*
X34074011Y7972704D02*
X34074011Y7401276D01*
X35074011Y7686990D02*
X34074011Y7686990D01*
X35074011Y7067942D02*
X34074011Y7067942D01*
X34074011Y7067942D02*
X34074011Y6829847D01*
X34074011Y6829847D02*
X34121630Y6686990D01*
X34121630Y6686990D02*
X34216868Y6591752D01*
X34216868Y6591752D02*
X34312106Y6544133D01*
X34312106Y6544133D02*
X34502582Y6496514D01*
X34502582Y6496514D02*
X34645439Y6496514D01*
X34645439Y6496514D02*
X34835915Y6544133D01*
X34835915Y6544133D02*
X34931153Y6591752D01*
X34931153Y6591752D02*
X35026392Y6686990D01*
X35026392Y6686990D02*
X35074011Y6829847D01*
X35074011Y6829847D02*
X35074011Y7067942D01*
X34074011Y5877466D02*
X34074011Y5686990D01*
X34074011Y5686990D02*
X34121630Y5591752D01*
X34121630Y5591752D02*
X34216868Y5496514D01*
X34216868Y5496514D02*
X34407344Y5448895D01*
X34407344Y5448895D02*
X34740677Y5448895D01*
X34740677Y5448895D02*
X34931153Y5496514D01*
X34931153Y5496514D02*
X35026392Y5591752D01*
X35026392Y5591752D02*
X35074011Y5686990D01*
X35074011Y5686990D02*
X35074011Y5877466D01*
X35074011Y5877466D02*
X35026392Y5972704D01*
X35026392Y5972704D02*
X34931153Y6067942D01*
X34931153Y6067942D02*
X34740677Y6115561D01*
X34740677Y6115561D02*
X34407344Y6115561D01*
X34407344Y6115561D02*
X34216868Y6067942D01*
X34216868Y6067942D02*
X34121630Y5972704D01*
X34121630Y5972704D02*
X34074011Y5877466D01*
X39087211Y7210800D02*
X38611020Y7544133D01*
X39087211Y7782228D02*
X38087211Y7782228D01*
X38087211Y7782228D02*
X38087211Y7401276D01*
X38087211Y7401276D02*
X38134830Y7306038D01*
X38134830Y7306038D02*
X38182449Y7258419D01*
X38182449Y7258419D02*
X38277687Y7210800D01*
X38277687Y7210800D02*
X38420544Y7210800D01*
X38420544Y7210800D02*
X38515782Y7258419D01*
X38515782Y7258419D02*
X38563401Y7306038D01*
X38563401Y7306038D02*
X38611020Y7401276D01*
X38611020Y7401276D02*
X38611020Y7782228D01*
X39039592Y6829847D02*
X39087211Y6686990D01*
X39087211Y6686990D02*
X39087211Y6448895D01*
X39087211Y6448895D02*
X39039592Y6353657D01*
X39039592Y6353657D02*
X38991972Y6306038D01*
X38991972Y6306038D02*
X38896734Y6258419D01*
X38896734Y6258419D02*
X38801496Y6258419D01*
X38801496Y6258419D02*
X38706258Y6306038D01*
X38706258Y6306038D02*
X38658639Y6353657D01*
X38658639Y6353657D02*
X38611020Y6448895D01*
X38611020Y6448895D02*
X38563401Y6639371D01*
X38563401Y6639371D02*
X38515782Y6734609D01*
X38515782Y6734609D02*
X38468163Y6782228D01*
X38468163Y6782228D02*
X38372925Y6829847D01*
X38372925Y6829847D02*
X38277687Y6829847D01*
X38277687Y6829847D02*
X38182449Y6782228D01*
X38182449Y6782228D02*
X38134830Y6734609D01*
X38134830Y6734609D02*
X38087211Y6639371D01*
X38087211Y6639371D02*
X38087211Y6401276D01*
X38087211Y6401276D02*
X38134830Y6258419D01*
X38087211Y5972704D02*
X38087211Y5401276D01*
X39087211Y5686990D02*
X38087211Y5686990D01*
X22977789Y23117342D02*
X22215885Y23117342D01*
X17897789Y23117342D02*
X17135885Y23117342D01*
X45580211Y3528766D02*
X45580211Y2957338D01*
X46580211Y3243052D02*
X45580211Y3243052D01*
X45580211Y2719242D02*
X46580211Y2052576D01*
X45580211Y2052576D02*
X46580211Y2719242D01*
G36*
X14707247Y15533952D02*
G01*
X14421472Y15533952D01*
X14353669Y15567854D01*
X14323721Y15597801D01*
X14289819Y15665606D01*
X14289819Y15772108D01*
X14323721Y15839913D01*
X14353669Y15869860D01*
X14421472Y15903761D01*
X14707247Y15903761D01*
X14707247Y15533952D01*
G37*
G36*
X14972358Y13182706D02*
G01*
X12216664Y13182706D01*
X12216664Y14367939D01*
X12683492Y14367939D01*
X12685532Y14352982D01*
X12923627Y13352982D01*
X12925403Y13347829D01*
X12925649Y13345979D01*
X12926617Y13344307D01*
X12928546Y13338711D01*
X12935098Y13329657D01*
X12940702Y13319978D01*
X12943842Y13317575D01*
X12946160Y13314372D01*
X12955687Y13308509D01*
X12964560Y13301718D01*
X12968375Y13300701D01*
X12971746Y13298626D01*
X12982793Y13296856D01*
X12993589Y13293976D01*
X12997507Y13294497D01*
X13001411Y13293871D01*
X13012284Y13296460D01*
X13023371Y13297933D01*
X13026794Y13299915D01*
X13030638Y13300830D01*
X13039693Y13307383D01*
X13049372Y13312986D01*
X13051774Y13316125D01*
X13054978Y13318443D01*
X13060841Y13327972D01*
X13067632Y13336844D01*
X13069709Y13342384D01*
X13070723Y13344030D01*
X13071018Y13345873D01*
X13072933Y13350977D01*
X13189009Y13786263D01*
X13305085Y13350977D01*
X13306999Y13345872D01*
X13307295Y13344030D01*
X13308307Y13342385D01*
X13310386Y13336843D01*
X13317180Y13327967D01*
X13323040Y13318444D01*
X13326242Y13316127D01*
X13328646Y13312986D01*
X13338327Y13307382D01*
X13347380Y13300830D01*
X13351223Y13299915D01*
X13354647Y13297933D01*
X13365733Y13296460D01*
X13376607Y13293871D01*
X13380509Y13294497D01*
X13384429Y13293976D01*
X13395235Y13296858D01*
X13406272Y13298627D01*
X13409637Y13300698D01*
X13413459Y13301717D01*
X13422340Y13308515D01*
X13431858Y13314372D01*
X13434175Y13317574D01*
X13437316Y13319978D01*
X13442921Y13329661D01*
X13449472Y13338712D01*
X13451399Y13344304D01*
X13452369Y13345978D01*
X13452615Y13347831D01*
X13454391Y13352982D01*
X13526665Y13656532D01*
X13873914Y13656532D01*
X13873914Y13561294D01*
X13875394Y13546272D01*
X13876452Y13543716D01*
X13876649Y13540957D01*
X13882043Y13526859D01*
X13929662Y13431621D01*
X13933731Y13425157D01*
X13934510Y13423278D01*
X13936247Y13421161D01*
X13937704Y13418847D01*
X13939236Y13417518D01*
X13944085Y13411609D01*
X13991704Y13363989D01*
X13997609Y13359144D01*
X13998942Y13357607D01*
X14001260Y13356148D01*
X14003373Y13354414D01*
X14005248Y13353638D01*
X14011717Y13349565D01*
X14106954Y13301946D01*
X14121052Y13296552D01*
X14123811Y13296356D01*
X14126368Y13295297D01*
X14141390Y13293817D01*
X14379485Y13293817D01*
X14387088Y13294567D01*
X14389115Y13294422D01*
X14391784Y13295029D01*
X14394507Y13295297D01*
X14396383Y13296075D01*
X14403835Y13297768D01*
X14546691Y13345387D01*
X14560474Y13351542D01*
X14583171Y13371226D01*
X14596607Y13398098D01*
X14598736Y13428066D01*
X14589236Y13456568D01*
X14569551Y13479265D01*
X14542679Y13492701D01*
X14512711Y13494831D01*
X14497992Y13491484D01*
X14366988Y13447817D01*
X14159567Y13447817D01*
X14091765Y13481718D01*
X14061816Y13511668D01*
X14027914Y13579472D01*
X14027914Y13638355D01*
X14061816Y13706160D01*
X14091764Y13736107D01*
X14168265Y13774357D01*
X14350541Y13819926D01*
X14351651Y13820323D01*
X14352203Y13820362D01*
X14358439Y13822749D01*
X14364756Y13825005D01*
X14365202Y13825336D01*
X14366301Y13825756D01*
X14461539Y13873375D01*
X14468002Y13877444D01*
X14469883Y13878223D01*
X14472002Y13879963D01*
X14474313Y13881417D01*
X14475642Y13882950D01*
X14481551Y13887799D01*
X14529170Y13935417D01*
X14534017Y13941325D01*
X14535552Y13942655D01*
X14537008Y13944969D01*
X14538746Y13947086D01*
X14539524Y13948966D01*
X14543594Y13955430D01*
X14591213Y14050667D01*
X14596607Y14064765D01*
X14596803Y14067525D01*
X14597862Y14070081D01*
X14599342Y14085103D01*
X14599342Y14180341D01*
X14597862Y14195363D01*
X14596803Y14197920D01*
X14596607Y14200679D01*
X14591213Y14214777D01*
X14543594Y14310014D01*
X14539524Y14316479D01*
X14538746Y14318358D01*
X14537008Y14320476D01*
X14535552Y14322789D01*
X14534017Y14324120D01*
X14529170Y14330027D01*
X14481551Y14377645D01*
X14475642Y14382495D01*
X14474313Y14384027D01*
X14472002Y14385482D01*
X14469883Y14387221D01*
X14468002Y14388001D01*
X14461539Y14392069D01*
X14366301Y14439688D01*
X14352203Y14445082D01*
X14349444Y14445279D01*
X14346888Y14446337D01*
X14331866Y14447817D01*
X14093771Y14447817D01*
X14086167Y14447068D01*
X14084140Y14447212D01*
X14081471Y14446606D01*
X14078749Y14446337D01*
X14076870Y14445560D01*
X14069421Y14443865D01*
X13926564Y14396247D01*
X13912781Y14390092D01*
X13890084Y14370408D01*
X13876649Y14343536D01*
X13874519Y14313568D01*
X13884020Y14285065D01*
X13903704Y14262368D01*
X13930576Y14248933D01*
X13960544Y14246803D01*
X13975264Y14250149D01*
X14106267Y14293817D01*
X14313689Y14293817D01*
X14381493Y14259915D01*
X14411440Y14229967D01*
X14445342Y14162164D01*
X14445342Y14103280D01*
X14411440Y14035478D01*
X14381493Y14005530D01*
X14304990Y13967278D01*
X14122715Y13921709D01*
X14121604Y13921313D01*
X14121052Y13921273D01*
X14114801Y13918882D01*
X14108500Y13916630D01*
X14108054Y13916301D01*
X14106954Y13915879D01*
X14011717Y13868260D01*
X14005252Y13864191D01*
X14003373Y13863412D01*
X14001255Y13861675D01*
X13998942Y13860218D01*
X13997611Y13858684D01*
X13991704Y13853836D01*
X13944086Y13806217D01*
X13939236Y13800309D01*
X13937704Y13798979D01*
X13936249Y13796669D01*
X13934510Y13794549D01*
X13933730Y13792669D01*
X13929662Y13786205D01*
X13882043Y13690967D01*
X13876649Y13676869D01*
X13876452Y13674111D01*
X13875394Y13671554D01*
X13873914Y13656532D01*
X13526665Y13656532D01*
X13692486Y14352982D01*
X13694526Y14367939D01*
X13689770Y14397604D01*
X13674025Y14423191D01*
X13649685Y14440804D01*
X13620458Y14447763D01*
X13590793Y14443008D01*
X13565207Y14427262D01*
X13547593Y14402923D01*
X13542674Y14388652D01*
X13375258Y13685507D01*
X13263409Y14104943D01*
X13262089Y14108460D01*
X13261893Y14109942D01*
X13260873Y14111703D01*
X13258108Y14119076D01*
X13251935Y14127141D01*
X13246840Y14135942D01*
X13242878Y14138975D01*
X13239848Y14142934D01*
X13231053Y14148026D01*
X13222983Y14154203D01*
X13218163Y14155489D01*
X13213847Y14157987D01*
X13203772Y14159326D01*
X13193953Y14161944D01*
X13189009Y14161288D01*
X13184065Y14161944D01*
X13174248Y14159326D01*
X13164171Y14157987D01*
X13159851Y14155487D01*
X13155036Y14154202D01*
X13146970Y14148029D01*
X13138170Y14142934D01*
X13135138Y14138974D01*
X13131178Y14135942D01*
X13126084Y14127145D01*
X13119910Y14119077D01*
X13117143Y14111700D01*
X13116125Y14109941D01*
X13115928Y14108461D01*
X13114609Y14104943D01*
X13002759Y13685507D01*
X12835344Y14388652D01*
X12830425Y14402922D01*
X12812811Y14427262D01*
X12787225Y14443007D01*
X12757560Y14447763D01*
X12728333Y14440804D01*
X12703993Y14423190D01*
X12688248Y14397604D01*
X12683492Y14367939D01*
X12216664Y14367939D01*
X12216664Y15995783D01*
X12327775Y15995783D01*
X12327775Y15965739D01*
X12339272Y15937982D01*
X12360516Y15916738D01*
X12388273Y15905241D01*
X12403295Y15903761D01*
X12612009Y15903761D01*
X12612009Y14980761D01*
X12613489Y14965739D01*
X12624986Y14937982D01*
X12646230Y14916738D01*
X12673987Y14905241D01*
X12704031Y14905241D01*
X12731788Y14916738D01*
X12753032Y14937982D01*
X12764529Y14965739D01*
X12766009Y14980761D01*
X12766009Y15266476D01*
X13183438Y15266476D01*
X13183438Y15171238D01*
X13184918Y15156216D01*
X13185976Y15153660D01*
X13186173Y15150901D01*
X13191567Y15136803D01*
X13239186Y15041565D01*
X13243255Y15035101D01*
X13244034Y15033222D01*
X13245771Y15031105D01*
X13247228Y15028791D01*
X13248760Y15027462D01*
X13253609Y15021553D01*
X13301228Y14973933D01*
X13307133Y14969088D01*
X13308466Y14967551D01*
X13310784Y14966092D01*
X13312897Y14964358D01*
X13314772Y14963582D01*
X13321241Y14959509D01*
X13416478Y14911890D01*
X13430576Y14906496D01*
X13433335Y14906300D01*
X13435892Y14905241D01*
X13450914Y14903761D01*
X13689009Y14903761D01*
X13696612Y14904511D01*
X13698639Y14904366D01*
X13701308Y14904973D01*
X13704031Y14905241D01*
X13705907Y14906019D01*
X13713359Y14907712D01*
X13856215Y14955331D01*
X13869998Y14961486D01*
X13892695Y14981170D01*
X13906131Y15008042D01*
X13908260Y15038010D01*
X13898760Y15066512D01*
X13879075Y15089209D01*
X13852203Y15102645D01*
X13822235Y15104775D01*
X13807516Y15101428D01*
X13676512Y15057761D01*
X13469091Y15057761D01*
X13401289Y15091662D01*
X13371340Y15121612D01*
X13337438Y15189416D01*
X13337438Y15248299D01*
X13371340Y15316104D01*
X13401288Y15346051D01*
X13477789Y15384301D01*
X13660065Y15429870D01*
X13661175Y15430267D01*
X13661727Y15430306D01*
X13667963Y15432693D01*
X13674280Y15434949D01*
X13674726Y15435280D01*
X13675825Y15435700D01*
X13771063Y15483319D01*
X13777526Y15487388D01*
X13779407Y15488167D01*
X13781526Y15489907D01*
X13783837Y15491361D01*
X13785166Y15492894D01*
X13791075Y15497743D01*
X13838694Y15545361D01*
X13843541Y15551269D01*
X13845076Y15552599D01*
X13846532Y15554913D01*
X13848270Y15557030D01*
X13849048Y15558910D01*
X13853118Y15565374D01*
X13900737Y15660611D01*
X13906131Y15674709D01*
X13906327Y15677469D01*
X13907386Y15680025D01*
X13908866Y15695047D01*
X13908866Y15790285D01*
X14135819Y15790285D01*
X14135819Y15647428D01*
X14137299Y15632406D01*
X14138357Y15629850D01*
X14138554Y15627091D01*
X14143948Y15612993D01*
X14191567Y15517755D01*
X14195635Y15511292D01*
X14196415Y15509411D01*
X14198154Y15507292D01*
X14199609Y15504981D01*
X14201141Y15503652D01*
X14205991Y15497743D01*
X14253609Y15450124D01*
X14259516Y15445277D01*
X14260847Y15443742D01*
X14263160Y15442286D01*
X14265278Y15440548D01*
X14267157Y15439770D01*
X14273622Y15435700D01*
X14368859Y15388081D01*
X14382957Y15382687D01*
X14385716Y15382491D01*
X14388273Y15381432D01*
X14398586Y15380416D01*
X14149738Y15024918D01*
X14142336Y15011762D01*
X14135837Y14982430D01*
X14141058Y14952843D01*
X14157205Y14927507D01*
X14181818Y14910278D01*
X14211150Y14903779D01*
X14240737Y14909000D01*
X14266073Y14925147D01*
X14275900Y14936604D01*
X14586242Y15379952D01*
X14707247Y15379952D01*
X14707247Y14980761D01*
X14708727Y14965739D01*
X14720224Y14937982D01*
X14741468Y14916738D01*
X14769225Y14905241D01*
X14799269Y14905241D01*
X14827026Y14916738D01*
X14848270Y14937982D01*
X14859767Y14965739D01*
X14861247Y14980761D01*
X14861247Y15980761D01*
X14859767Y15995783D01*
X14848270Y16023540D01*
X14827026Y16044784D01*
X14799269Y16056281D01*
X14784247Y16057761D01*
X14403295Y16057761D01*
X14388273Y16056281D01*
X14385716Y16055223D01*
X14382957Y16055026D01*
X14368859Y16049632D01*
X14273622Y16002013D01*
X14267157Y15997944D01*
X14265278Y15997165D01*
X14263160Y15995428D01*
X14260847Y15993971D01*
X14259516Y15992437D01*
X14253609Y15987589D01*
X14205991Y15939970D01*
X14201141Y15934062D01*
X14199609Y15932732D01*
X14198154Y15930422D01*
X14196415Y15928302D01*
X14195635Y15926422D01*
X14191567Y15919958D01*
X14143948Y15824720D01*
X14138554Y15810622D01*
X14138357Y15807864D01*
X14137299Y15805307D01*
X14135819Y15790285D01*
X13908866Y15790285D01*
X13907386Y15805307D01*
X13906327Y15807864D01*
X13906131Y15810623D01*
X13900737Y15824721D01*
X13853118Y15919958D01*
X13849048Y15926423D01*
X13848270Y15928302D01*
X13846532Y15930420D01*
X13845076Y15932733D01*
X13843541Y15934064D01*
X13838694Y15939971D01*
X13791075Y15987589D01*
X13785166Y15992439D01*
X13783837Y15993971D01*
X13781526Y15995426D01*
X13779407Y15997165D01*
X13777526Y15997945D01*
X13771063Y16002013D01*
X13675825Y16049632D01*
X13661727Y16055026D01*
X13658968Y16055223D01*
X13656412Y16056281D01*
X13641390Y16057761D01*
X13403295Y16057761D01*
X13395691Y16057012D01*
X13393664Y16057156D01*
X13390995Y16056550D01*
X13388273Y16056281D01*
X13386394Y16055504D01*
X13378945Y16053809D01*
X13236088Y16006191D01*
X13222305Y16000036D01*
X13199608Y15980352D01*
X13186173Y15953480D01*
X13184043Y15923512D01*
X13193544Y15895009D01*
X13213228Y15872312D01*
X13240100Y15858877D01*
X13270068Y15856747D01*
X13284788Y15860093D01*
X13415791Y15903761D01*
X13623213Y15903761D01*
X13691017Y15869859D01*
X13720964Y15839911D01*
X13754866Y15772108D01*
X13754866Y15713224D01*
X13720964Y15645422D01*
X13691017Y15615474D01*
X13614514Y15577222D01*
X13432239Y15531653D01*
X13431128Y15531257D01*
X13430576Y15531217D01*
X13424325Y15528826D01*
X13418024Y15526574D01*
X13417578Y15526245D01*
X13416478Y15525823D01*
X13321241Y15478204D01*
X13314776Y15474135D01*
X13312897Y15473356D01*
X13310779Y15471619D01*
X13308466Y15470162D01*
X13307135Y15468628D01*
X13301228Y15463780D01*
X13253610Y15416161D01*
X13248760Y15410253D01*
X13247228Y15408923D01*
X13245773Y15406613D01*
X13244034Y15404493D01*
X13243254Y15402613D01*
X13239186Y15396149D01*
X13191567Y15300911D01*
X13186173Y15286813D01*
X13185976Y15284055D01*
X13184918Y15281498D01*
X13183438Y15266476D01*
X12766009Y15266476D01*
X12766009Y15903761D01*
X12974723Y15903761D01*
X12989745Y15905241D01*
X13017502Y15916738D01*
X13038746Y15937982D01*
X13050243Y15965739D01*
X13050243Y15995783D01*
X13038746Y16023540D01*
X13017502Y16044784D01*
X12989745Y16056281D01*
X12974723Y16057761D01*
X12403295Y16057761D01*
X12388273Y16056281D01*
X12360516Y16044784D01*
X12339272Y16023540D01*
X12327775Y15995783D01*
X12216664Y15995783D01*
X12216664Y16168872D01*
X14972358Y16168872D01*
X14972358Y13182706D01*
G37*
G36*
X7647875Y15533952D02*
G01*
X7362100Y15533952D01*
X7294297Y15567854D01*
X7264349Y15597801D01*
X7230447Y15665606D01*
X7230447Y15772108D01*
X7264349Y15839913D01*
X7294297Y15869860D01*
X7362100Y15903761D01*
X7647875Y15903761D01*
X7647875Y15533952D01*
G37*
G36*
X9790732Y15533952D02*
G01*
X9504957Y15533952D01*
X9437154Y15567854D01*
X9407206Y15597801D01*
X9373304Y15665606D01*
X9373304Y15772108D01*
X9407206Y15839913D01*
X9437154Y15869860D01*
X9504957Y15903761D01*
X9790732Y15903761D01*
X9790732Y15533952D01*
G37*
G36*
X10055843Y13182706D02*
G01*
X6965336Y13182706D01*
X6965336Y14367939D01*
X7552692Y14367939D01*
X7554732Y14352982D01*
X7792827Y13352982D01*
X7794603Y13347829D01*
X7794849Y13345979D01*
X7795817Y13344307D01*
X7797746Y13338711D01*
X7804298Y13329657D01*
X7809902Y13319978D01*
X7813042Y13317575D01*
X7815360Y13314372D01*
X7824887Y13308509D01*
X7833760Y13301718D01*
X7837575Y13300701D01*
X7840946Y13298626D01*
X7851993Y13296856D01*
X7862789Y13293976D01*
X7866707Y13294497D01*
X7870611Y13293871D01*
X7881484Y13296460D01*
X7892571Y13297933D01*
X7895994Y13299915D01*
X7899838Y13300830D01*
X7908893Y13307383D01*
X7918572Y13312986D01*
X7920974Y13316125D01*
X7924178Y13318443D01*
X7930041Y13327972D01*
X7936832Y13336844D01*
X7938909Y13342384D01*
X7939923Y13344030D01*
X7940218Y13345873D01*
X7942133Y13350977D01*
X8058209Y13786263D01*
X8174285Y13350977D01*
X8176199Y13345872D01*
X8176495Y13344030D01*
X8177507Y13342385D01*
X8179586Y13336843D01*
X8186380Y13327967D01*
X8192240Y13318444D01*
X8195442Y13316127D01*
X8197846Y13312986D01*
X8207527Y13307382D01*
X8216580Y13300830D01*
X8220423Y13299915D01*
X8223847Y13297933D01*
X8234933Y13296460D01*
X8245807Y13293871D01*
X8249709Y13294497D01*
X8253629Y13293976D01*
X8264435Y13296858D01*
X8275472Y13298627D01*
X8278837Y13300698D01*
X8282659Y13301717D01*
X8291540Y13308515D01*
X8301058Y13314372D01*
X8303375Y13317574D01*
X8306516Y13319978D01*
X8312121Y13329661D01*
X8318672Y13338712D01*
X8320599Y13344304D01*
X8321569Y13345978D01*
X8321815Y13347831D01*
X8323591Y13352982D01*
X8395865Y13656532D01*
X8743114Y13656532D01*
X8743114Y13561294D01*
X8744594Y13546272D01*
X8745652Y13543716D01*
X8745849Y13540957D01*
X8751243Y13526859D01*
X8798862Y13431621D01*
X8802931Y13425157D01*
X8803710Y13423278D01*
X8805447Y13421161D01*
X8806904Y13418847D01*
X8808436Y13417518D01*
X8813285Y13411609D01*
X8860904Y13363989D01*
X8866809Y13359144D01*
X8868142Y13357607D01*
X8870460Y13356148D01*
X8872573Y13354414D01*
X8874448Y13353638D01*
X8880917Y13349565D01*
X8976154Y13301946D01*
X8990252Y13296552D01*
X8993011Y13296356D01*
X8995568Y13295297D01*
X9010590Y13293817D01*
X9248685Y13293817D01*
X9256288Y13294567D01*
X9258315Y13294422D01*
X9260984Y13295029D01*
X9263707Y13295297D01*
X9265583Y13296075D01*
X9273035Y13297768D01*
X9415891Y13345387D01*
X9429674Y13351542D01*
X9452371Y13371226D01*
X9465807Y13398098D01*
X9467936Y13428066D01*
X9458436Y13456568D01*
X9438751Y13479265D01*
X9411879Y13492701D01*
X9381911Y13494831D01*
X9367192Y13491484D01*
X9236188Y13447817D01*
X9028767Y13447817D01*
X8960965Y13481718D01*
X8931016Y13511668D01*
X8897114Y13579472D01*
X8897114Y13638355D01*
X8931016Y13706160D01*
X8960964Y13736107D01*
X9037465Y13774357D01*
X9219741Y13819926D01*
X9220851Y13820323D01*
X9221403Y13820362D01*
X9227639Y13822749D01*
X9233956Y13825005D01*
X9234402Y13825336D01*
X9235501Y13825756D01*
X9330739Y13873375D01*
X9337202Y13877444D01*
X9339083Y13878223D01*
X9341202Y13879963D01*
X9343513Y13881417D01*
X9344842Y13882950D01*
X9350751Y13887799D01*
X9398370Y13935417D01*
X9403217Y13941325D01*
X9404752Y13942655D01*
X9406208Y13944969D01*
X9407946Y13947086D01*
X9408724Y13948966D01*
X9412794Y13955430D01*
X9460413Y14050667D01*
X9465807Y14064765D01*
X9466003Y14067525D01*
X9467062Y14070081D01*
X9468542Y14085103D01*
X9468542Y14180341D01*
X9467062Y14195363D01*
X9466003Y14197920D01*
X9465807Y14200679D01*
X9460413Y14214777D01*
X9412794Y14310014D01*
X9408724Y14316479D01*
X9407946Y14318358D01*
X9406208Y14320476D01*
X9404752Y14322789D01*
X9403217Y14324120D01*
X9398370Y14330027D01*
X9350751Y14377645D01*
X9344842Y14382495D01*
X9343513Y14384027D01*
X9341202Y14385482D01*
X9339083Y14387221D01*
X9337202Y14388001D01*
X9330739Y14392069D01*
X9235501Y14439688D01*
X9221403Y14445082D01*
X9218644Y14445279D01*
X9216088Y14446337D01*
X9201066Y14447817D01*
X8962971Y14447817D01*
X8955367Y14447068D01*
X8953340Y14447212D01*
X8950671Y14446606D01*
X8947949Y14446337D01*
X8946070Y14445560D01*
X8938621Y14443865D01*
X8795764Y14396247D01*
X8781981Y14390092D01*
X8759284Y14370408D01*
X8745849Y14343536D01*
X8743719Y14313568D01*
X8753220Y14285065D01*
X8772904Y14262368D01*
X8799776Y14248933D01*
X8829744Y14246803D01*
X8844464Y14250149D01*
X8975467Y14293817D01*
X9182889Y14293817D01*
X9250693Y14259915D01*
X9280640Y14229967D01*
X9314542Y14162164D01*
X9314542Y14103280D01*
X9280640Y14035478D01*
X9250693Y14005530D01*
X9174190Y13967278D01*
X8991915Y13921709D01*
X8990804Y13921313D01*
X8990252Y13921273D01*
X8984001Y13918882D01*
X8977700Y13916630D01*
X8977254Y13916301D01*
X8976154Y13915879D01*
X8880917Y13868260D01*
X8874452Y13864191D01*
X8872573Y13863412D01*
X8870455Y13861675D01*
X8868142Y13860218D01*
X8866811Y13858684D01*
X8860904Y13853836D01*
X8813286Y13806217D01*
X8808436Y13800309D01*
X8806904Y13798979D01*
X8805449Y13796669D01*
X8803710Y13794549D01*
X8802930Y13792669D01*
X8798862Y13786205D01*
X8751243Y13690967D01*
X8745849Y13676869D01*
X8745652Y13674111D01*
X8744594Y13671554D01*
X8743114Y13656532D01*
X8395865Y13656532D01*
X8561686Y14352982D01*
X8563726Y14367939D01*
X8558970Y14397604D01*
X8543225Y14423191D01*
X8518885Y14440804D01*
X8489658Y14447763D01*
X8459993Y14443008D01*
X8434407Y14427262D01*
X8416793Y14402923D01*
X8411874Y14388652D01*
X8244458Y13685507D01*
X8132609Y14104943D01*
X8131289Y14108460D01*
X8131093Y14109942D01*
X8130073Y14111703D01*
X8127308Y14119076D01*
X8121135Y14127141D01*
X8116040Y14135942D01*
X8112078Y14138975D01*
X8109048Y14142934D01*
X8100253Y14148026D01*
X8092183Y14154203D01*
X8087363Y14155489D01*
X8083047Y14157987D01*
X8072972Y14159326D01*
X8063153Y14161944D01*
X8058209Y14161288D01*
X8053265Y14161944D01*
X8043448Y14159326D01*
X8033371Y14157987D01*
X8029051Y14155487D01*
X8024236Y14154202D01*
X8016170Y14148029D01*
X8007370Y14142934D01*
X8004338Y14138974D01*
X8000378Y14135942D01*
X7995284Y14127145D01*
X7989110Y14119077D01*
X7986343Y14111700D01*
X7985325Y14109941D01*
X7985128Y14108461D01*
X7983809Y14104943D01*
X7871959Y13685507D01*
X7704544Y14388652D01*
X7699625Y14402922D01*
X7682011Y14427262D01*
X7656425Y14443007D01*
X7626760Y14447763D01*
X7597533Y14440804D01*
X7573193Y14423190D01*
X7557448Y14397604D01*
X7552692Y14367939D01*
X6965336Y14367939D01*
X6965336Y15790285D01*
X7076447Y15790285D01*
X7076447Y15647428D01*
X7077927Y15632406D01*
X7078985Y15629850D01*
X7079182Y15627091D01*
X7084576Y15612993D01*
X7132195Y15517755D01*
X7136263Y15511292D01*
X7137043Y15509411D01*
X7138782Y15507292D01*
X7140237Y15504981D01*
X7141769Y15503652D01*
X7146619Y15497743D01*
X7194237Y15450124D01*
X7200144Y15445277D01*
X7201475Y15443742D01*
X7203788Y15442286D01*
X7205906Y15440548D01*
X7207785Y15439770D01*
X7214250Y15435700D01*
X7309487Y15388081D01*
X7323585Y15382687D01*
X7326344Y15382491D01*
X7328901Y15381432D01*
X7339214Y15380416D01*
X7090366Y15024918D01*
X7082964Y15011762D01*
X7076465Y14982430D01*
X7081686Y14952843D01*
X7097833Y14927507D01*
X7122446Y14910278D01*
X7151778Y14903779D01*
X7181365Y14909000D01*
X7206701Y14925147D01*
X7216528Y14936604D01*
X7526870Y15379952D01*
X7647875Y15379952D01*
X7647875Y14980761D01*
X7649355Y14965739D01*
X7660852Y14937982D01*
X7682096Y14916738D01*
X7709853Y14905241D01*
X7739897Y14905241D01*
X7767654Y14916738D01*
X7788898Y14937982D01*
X7800395Y14965739D01*
X7801875Y14980761D01*
X7801875Y15977883D01*
X8028882Y15977883D01*
X8030922Y15962926D01*
X8269017Y14962926D01*
X8270793Y14957773D01*
X8271039Y14955923D01*
X8272007Y14954251D01*
X8273936Y14948655D01*
X8280488Y14939601D01*
X8286092Y14929922D01*
X8289232Y14927519D01*
X8291550Y14924316D01*
X8301077Y14918453D01*
X8309950Y14911662D01*
X8313765Y14910645D01*
X8317136Y14908570D01*
X8328183Y14906800D01*
X8338979Y14903920D01*
X8342897Y14904441D01*
X8346801Y14903815D01*
X8357674Y14906404D01*
X8368761Y14907877D01*
X8372184Y14909859D01*
X8376028Y14910774D01*
X8385083Y14917327D01*
X8394762Y14922930D01*
X8397164Y14926069D01*
X8400368Y14928387D01*
X8406231Y14937916D01*
X8413022Y14946788D01*
X8415099Y14952328D01*
X8416113Y14953974D01*
X8416408Y14955817D01*
X8418323Y14960921D01*
X8534399Y15396207D01*
X8650475Y14960921D01*
X8652389Y14955816D01*
X8652685Y14953974D01*
X8653697Y14952329D01*
X8655776Y14946787D01*
X8662570Y14937911D01*
X8668430Y14928388D01*
X8671632Y14926071D01*
X8674036Y14922930D01*
X8683717Y14917326D01*
X8692770Y14910774D01*
X8696613Y14909859D01*
X8700037Y14907877D01*
X8711123Y14906404D01*
X8721997Y14903815D01*
X8725899Y14904441D01*
X8729819Y14903920D01*
X8740625Y14906802D01*
X8751662Y14908571D01*
X8755027Y14910642D01*
X8758849Y14911661D01*
X8767730Y14918459D01*
X8777248Y14924316D01*
X8779565Y14927518D01*
X8782706Y14929922D01*
X8788311Y14939605D01*
X8794862Y14948656D01*
X8796789Y14954248D01*
X8797759Y14955922D01*
X8798005Y14957775D01*
X8799781Y14962926D01*
X8996771Y15790285D01*
X9219304Y15790285D01*
X9219304Y15647428D01*
X9220784Y15632406D01*
X9221842Y15629850D01*
X9222039Y15627091D01*
X9227433Y15612993D01*
X9275052Y15517755D01*
X9279120Y15511292D01*
X9279900Y15509411D01*
X9281639Y15507292D01*
X9283094Y15504981D01*
X9284626Y15503652D01*
X9289476Y15497743D01*
X9337094Y15450124D01*
X9343001Y15445277D01*
X9344332Y15443742D01*
X9346645Y15442286D01*
X9348763Y15440548D01*
X9350642Y15439770D01*
X9357107Y15435700D01*
X9452344Y15388081D01*
X9466442Y15382687D01*
X9469201Y15382491D01*
X9471758Y15381432D01*
X9486780Y15379952D01*
X9790732Y15379952D01*
X9790732Y14980761D01*
X9792212Y14965739D01*
X9803709Y14937982D01*
X9824953Y14916738D01*
X9852710Y14905241D01*
X9882754Y14905241D01*
X9910511Y14916738D01*
X9931755Y14937982D01*
X9943252Y14965739D01*
X9944732Y14980761D01*
X9944732Y15980761D01*
X9943252Y15995783D01*
X9931755Y16023540D01*
X9910511Y16044784D01*
X9882754Y16056281D01*
X9867732Y16057761D01*
X9486780Y16057761D01*
X9471758Y16056281D01*
X9469201Y16055223D01*
X9466442Y16055026D01*
X9452344Y16049632D01*
X9357107Y16002013D01*
X9350642Y15997944D01*
X9348763Y15997165D01*
X9346645Y15995428D01*
X9344332Y15993971D01*
X9343001Y15992437D01*
X9337094Y15987589D01*
X9289476Y15939970D01*
X9284626Y15934062D01*
X9283094Y15932732D01*
X9281639Y15930422D01*
X9279900Y15928302D01*
X9279120Y15926422D01*
X9275052Y15919958D01*
X9227433Y15824720D01*
X9222039Y15810622D01*
X9221842Y15807864D01*
X9220784Y15805307D01*
X9219304Y15790285D01*
X8996771Y15790285D01*
X9037876Y15962926D01*
X9039916Y15977883D01*
X9035160Y16007548D01*
X9019415Y16033135D01*
X8995075Y16050748D01*
X8965848Y16057707D01*
X8936183Y16052952D01*
X8910597Y16037206D01*
X8892983Y16012867D01*
X8888064Y15998596D01*
X8720648Y15295451D01*
X8608799Y15714887D01*
X8607479Y15718404D01*
X8607283Y15719886D01*
X8606263Y15721647D01*
X8603498Y15729020D01*
X8597325Y15737085D01*
X8592230Y15745886D01*
X8588268Y15748919D01*
X8585238Y15752878D01*
X8576443Y15757970D01*
X8568373Y15764147D01*
X8563553Y15765433D01*
X8559237Y15767931D01*
X8549162Y15769270D01*
X8539343Y15771888D01*
X8534399Y15771232D01*
X8529455Y15771888D01*
X8519638Y15769270D01*
X8509561Y15767931D01*
X8505241Y15765431D01*
X8500426Y15764146D01*
X8492360Y15757973D01*
X8483560Y15752878D01*
X8480528Y15748918D01*
X8476568Y15745886D01*
X8471474Y15737089D01*
X8465300Y15729021D01*
X8462533Y15721644D01*
X8461515Y15719885D01*
X8461318Y15718405D01*
X8459999Y15714887D01*
X8348149Y15295451D01*
X8180734Y15998596D01*
X8175815Y16012866D01*
X8158201Y16037206D01*
X8132615Y16052951D01*
X8102950Y16057707D01*
X8073723Y16050748D01*
X8049383Y16033134D01*
X8033638Y16007548D01*
X8028882Y15977883D01*
X7801875Y15977883D01*
X7801875Y15980761D01*
X7800395Y15995783D01*
X7788898Y16023540D01*
X7767654Y16044784D01*
X7739897Y16056281D01*
X7724875Y16057761D01*
X7343923Y16057761D01*
X7328901Y16056281D01*
X7326344Y16055223D01*
X7323585Y16055026D01*
X7309487Y16049632D01*
X7214250Y16002013D01*
X7207785Y15997944D01*
X7205906Y15997165D01*
X7203788Y15995428D01*
X7201475Y15993971D01*
X7200144Y15992437D01*
X7194237Y15987589D01*
X7146619Y15939970D01*
X7141769Y15934062D01*
X7140237Y15932732D01*
X7138782Y15930422D01*
X7137043Y15928302D01*
X7136263Y15926422D01*
X7132195Y15919958D01*
X7084576Y15824720D01*
X7079182Y15810622D01*
X7078985Y15807864D01*
X7077927Y15805307D01*
X7076447Y15790285D01*
X6965336Y15790285D01*
X6965336Y16168872D01*
X10055843Y16168872D01*
X10055843Y13182706D01*
G37*
X32038830Y3597638D02*
X31991211Y3692876D01*
X31991211Y3692876D02*
X31991211Y3835733D01*
X31991211Y3835733D02*
X32038830Y3978590D01*
X32038830Y3978590D02*
X32134068Y4073828D01*
X32134068Y4073828D02*
X32229306Y4121447D01*
X32229306Y4121447D02*
X32419782Y4169066D01*
X32419782Y4169066D02*
X32562639Y4169066D01*
X32562639Y4169066D02*
X32753115Y4121447D01*
X32753115Y4121447D02*
X32848353Y4073828D01*
X32848353Y4073828D02*
X32943592Y3978590D01*
X32943592Y3978590D02*
X32991211Y3835733D01*
X32991211Y3835733D02*
X32991211Y3740495D01*
X32991211Y3740495D02*
X32943592Y3597638D01*
X32943592Y3597638D02*
X32895972Y3550019D01*
X32895972Y3550019D02*
X32562639Y3550019D01*
X32562639Y3550019D02*
X32562639Y3740495D01*
X32991211Y3121447D02*
X31991211Y3121447D01*
X31991211Y3121447D02*
X32991211Y2550019D01*
X32991211Y2550019D02*
X31991211Y2550019D01*
X32991211Y2073828D02*
X31991211Y2073828D01*
X31991211Y2073828D02*
X31991211Y1835733D01*
X31991211Y1835733D02*
X32038830Y1692876D01*
X32038830Y1692876D02*
X32134068Y1597638D01*
X32134068Y1597638D02*
X32229306Y1550019D01*
X32229306Y1550019D02*
X32419782Y1502400D01*
X32419782Y1502400D02*
X32562639Y1502400D01*
X32562639Y1502400D02*
X32753115Y1550019D01*
X32753115Y1550019D02*
X32848353Y1597638D01*
X32848353Y1597638D02*
X32943592Y1692876D01*
X32943592Y1692876D02*
X32991211Y1835733D01*
X32991211Y1835733D02*
X32991211Y2073828D01*
X34070830Y3597638D02*
X34023211Y3692876D01*
X34023211Y3692876D02*
X34023211Y3835733D01*
X34023211Y3835733D02*
X34070830Y3978590D01*
X34070830Y3978590D02*
X34166068Y4073828D01*
X34166068Y4073828D02*
X34261306Y4121447D01*
X34261306Y4121447D02*
X34451782Y4169066D01*
X34451782Y4169066D02*
X34594639Y4169066D01*
X34594639Y4169066D02*
X34785115Y4121447D01*
X34785115Y4121447D02*
X34880353Y4073828D01*
X34880353Y4073828D02*
X34975592Y3978590D01*
X34975592Y3978590D02*
X35023211Y3835733D01*
X35023211Y3835733D02*
X35023211Y3740495D01*
X35023211Y3740495D02*
X34975592Y3597638D01*
X34975592Y3597638D02*
X34927972Y3550019D01*
X34927972Y3550019D02*
X34594639Y3550019D01*
X34594639Y3550019D02*
X34594639Y3740495D01*
X35023211Y3121447D02*
X34023211Y3121447D01*
X34023211Y3121447D02*
X35023211Y2550019D01*
X35023211Y2550019D02*
X34023211Y2550019D01*
X35023211Y2073828D02*
X34023211Y2073828D01*
X34023211Y2073828D02*
X34023211Y1835733D01*
X34023211Y1835733D02*
X34070830Y1692876D01*
X34070830Y1692876D02*
X34166068Y1597638D01*
X34166068Y1597638D02*
X34261306Y1550019D01*
X34261306Y1550019D02*
X34451782Y1502400D01*
X34451782Y1502400D02*
X34594639Y1502400D01*
X34594639Y1502400D02*
X34785115Y1550019D01*
X34785115Y1550019D02*
X34880353Y1597638D01*
X34880353Y1597638D02*
X34975592Y1692876D01*
X34975592Y1692876D02*
X35023211Y1835733D01*
X35023211Y1835733D02*
X35023211Y2073828D01*
X36106011Y7686989D02*
X36106011Y7115561D01*
X37106011Y7401275D02*
X36106011Y7401275D01*
X37106011Y6782227D02*
X36106011Y6782227D01*
X36106011Y6782227D02*
X36106011Y6544132D01*
X36106011Y6544132D02*
X36153630Y6401275D01*
X36153630Y6401275D02*
X36248868Y6306037D01*
X36248868Y6306037D02*
X36344106Y6258418D01*
X36344106Y6258418D02*
X36534582Y6210799D01*
X36534582Y6210799D02*
X36677439Y6210799D01*
X36677439Y6210799D02*
X36867915Y6258418D01*
X36867915Y6258418D02*
X36963153Y6306037D01*
X36963153Y6306037D02*
X37058392Y6401275D01*
X37058392Y6401275D02*
X37106011Y6544132D01*
X37106011Y6544132D02*
X37106011Y6782227D01*
X37106011Y5782227D02*
X36106011Y5782227D01*
G36*
X18072961Y13447817D02*
G01*
X17924362Y13447817D01*
X17810603Y13485737D01*
X17737053Y13559287D01*
X17698802Y13635789D01*
X17655533Y13808868D01*
X17655533Y13932767D01*
X17698802Y14105847D01*
X17737054Y14182350D01*
X17810601Y14255897D01*
X17924362Y14293817D01*
X18072961Y14293817D01*
X18072961Y13447817D01*
G37*
G36*
X17858675Y15533952D02*
G01*
X17572900Y15533952D01*
X17505097Y15567854D01*
X17475149Y15597801D01*
X17441247Y15665606D01*
X17441247Y15772108D01*
X17475149Y15839913D01*
X17505097Y15869860D01*
X17572900Y15903761D01*
X17858675Y15903761D01*
X17858675Y15533952D01*
G37*
G36*
X20001532Y15533952D02*
G01*
X19715757Y15533952D01*
X19647954Y15567854D01*
X19618006Y15597801D01*
X19584104Y15665606D01*
X19584104Y15772108D01*
X19618006Y15839913D01*
X19647954Y15869860D01*
X19715757Y15903761D01*
X20001532Y15903761D01*
X20001532Y15533952D01*
G37*
G36*
X20266643Y13182706D02*
G01*
X17176136Y13182706D01*
X17176136Y13942246D01*
X17501533Y13942246D01*
X17501533Y13799389D01*
X17501791Y13796770D01*
X17501624Y13795646D01*
X17502456Y13790018D01*
X17503013Y13784367D01*
X17503446Y13783321D01*
X17503832Y13780714D01*
X17551451Y13590238D01*
X17551847Y13589128D01*
X17551887Y13588576D01*
X17554273Y13582340D01*
X17556530Y13576023D01*
X17556860Y13575577D01*
X17557281Y13574478D01*
X17604900Y13479240D01*
X17608970Y13472775D01*
X17609748Y13470897D01*
X17611485Y13468780D01*
X17612942Y13466466D01*
X17614474Y13465137D01*
X17619323Y13459228D01*
X17714562Y13363989D01*
X17726230Y13354413D01*
X17728786Y13353354D01*
X17730876Y13351542D01*
X17744659Y13345387D01*
X17887516Y13297769D01*
X17894965Y13296075D01*
X17896844Y13295297D01*
X17899566Y13295029D01*
X17902235Y13294422D01*
X17904262Y13294567D01*
X17911866Y13293817D01*
X18149961Y13293817D01*
X18164983Y13295297D01*
X18192740Y13306794D01*
X18213984Y13328038D01*
X18225481Y13355795D01*
X18226961Y13370817D01*
X18226961Y14370817D01*
X18225481Y14385839D01*
X18503013Y14385839D01*
X18503013Y14355795D01*
X18514510Y14328038D01*
X18535754Y14306794D01*
X18563511Y14295297D01*
X18578533Y14293817D01*
X18977723Y14293817D01*
X18977723Y13971627D01*
X18721390Y13971627D01*
X18706368Y13970147D01*
X18678611Y13958650D01*
X18657367Y13937406D01*
X18645870Y13909649D01*
X18645870Y13879605D01*
X18657367Y13851848D01*
X18678611Y13830604D01*
X18706368Y13819107D01*
X18721390Y13817627D01*
X18977723Y13817627D01*
X18977723Y13447817D01*
X18578533Y13447817D01*
X18563511Y13446337D01*
X18535754Y13434840D01*
X18514510Y13413596D01*
X18503013Y13385839D01*
X18503013Y13355795D01*
X18514510Y13328038D01*
X18535754Y13306794D01*
X18563511Y13295297D01*
X18578533Y13293817D01*
X19054723Y13293817D01*
X19069745Y13295297D01*
X19097502Y13306794D01*
X19118746Y13328038D01*
X19130243Y13355795D01*
X19131723Y13370817D01*
X19131723Y13385839D01*
X19312537Y13385839D01*
X19312537Y13355795D01*
X19324034Y13328038D01*
X19345278Y13306794D01*
X19373035Y13295297D01*
X19388057Y13293817D01*
X19864247Y13293817D01*
X19879269Y13295297D01*
X19907026Y13306794D01*
X19928270Y13328038D01*
X19939767Y13355795D01*
X19941247Y13370817D01*
X19941247Y14370817D01*
X19939767Y14385839D01*
X19928270Y14413596D01*
X19907026Y14434840D01*
X19879269Y14446337D01*
X19849225Y14446337D01*
X19821468Y14434840D01*
X19800224Y14413596D01*
X19788727Y14385839D01*
X19787247Y14370817D01*
X19787247Y13447817D01*
X19388057Y13447817D01*
X19373035Y13446337D01*
X19345278Y13434840D01*
X19324034Y13413596D01*
X19312537Y13385839D01*
X19131723Y13385839D01*
X19131723Y14370817D01*
X19130243Y14385839D01*
X19118746Y14413596D01*
X19097502Y14434840D01*
X19069745Y14446337D01*
X19054723Y14447817D01*
X18578533Y14447817D01*
X18563511Y14446337D01*
X18535754Y14434840D01*
X18514510Y14413596D01*
X18503013Y14385839D01*
X18225481Y14385839D01*
X18213984Y14413596D01*
X18192740Y14434840D01*
X18164983Y14446337D01*
X18149961Y14447817D01*
X17911866Y14447817D01*
X17904262Y14447068D01*
X17902235Y14447212D01*
X17899566Y14446606D01*
X17896844Y14446337D01*
X17894965Y14445560D01*
X17887516Y14443865D01*
X17744659Y14396247D01*
X17730876Y14390092D01*
X17728785Y14388280D01*
X17726231Y14387221D01*
X17714562Y14377645D01*
X17619324Y14282407D01*
X17614474Y14276499D01*
X17612942Y14275169D01*
X17611487Y14272859D01*
X17609748Y14270739D01*
X17608968Y14268859D01*
X17604900Y14262395D01*
X17557281Y14167157D01*
X17556860Y14166059D01*
X17556530Y14165612D01*
X17554273Y14159296D01*
X17551887Y14153059D01*
X17551847Y14152508D01*
X17551451Y14151397D01*
X17503832Y13960921D01*
X17503446Y13958315D01*
X17503013Y13957268D01*
X17502456Y13951618D01*
X17501624Y13945989D01*
X17501791Y13944866D01*
X17501533Y13942246D01*
X17176136Y13942246D01*
X17176136Y15790285D01*
X17287247Y15790285D01*
X17287247Y15647428D01*
X17288727Y15632406D01*
X17289785Y15629850D01*
X17289982Y15627091D01*
X17295376Y15612993D01*
X17342995Y15517755D01*
X17347063Y15511292D01*
X17347843Y15509411D01*
X17349582Y15507292D01*
X17351037Y15504981D01*
X17352569Y15503652D01*
X17357419Y15497743D01*
X17405037Y15450124D01*
X17410944Y15445277D01*
X17412275Y15443742D01*
X17414588Y15442286D01*
X17416706Y15440548D01*
X17418585Y15439770D01*
X17425050Y15435700D01*
X17520287Y15388081D01*
X17534385Y15382687D01*
X17537144Y15382491D01*
X17539701Y15381432D01*
X17550014Y15380416D01*
X17301166Y15024918D01*
X17293764Y15011762D01*
X17287265Y14982430D01*
X17292486Y14952843D01*
X17308633Y14927507D01*
X17333246Y14910278D01*
X17362578Y14903779D01*
X17392165Y14909000D01*
X17417501Y14925147D01*
X17427328Y14936604D01*
X17737670Y15379952D01*
X17858675Y15379952D01*
X17858675Y14980761D01*
X17860155Y14965739D01*
X17871652Y14937982D01*
X17892896Y14916738D01*
X17920653Y14905241D01*
X17950697Y14905241D01*
X17978454Y14916738D01*
X17999698Y14937982D01*
X18011195Y14965739D01*
X18012675Y14980761D01*
X18012675Y15977883D01*
X18239682Y15977883D01*
X18241722Y15962926D01*
X18479817Y14962926D01*
X18481593Y14957773D01*
X18481839Y14955923D01*
X18482807Y14954251D01*
X18484736Y14948655D01*
X18491288Y14939601D01*
X18496892Y14929922D01*
X18500032Y14927519D01*
X18502350Y14924316D01*
X18511877Y14918453D01*
X18520750Y14911662D01*
X18524565Y14910645D01*
X18527936Y14908570D01*
X18538983Y14906800D01*
X18549779Y14903920D01*
X18553697Y14904441D01*
X18557601Y14903815D01*
X18568474Y14906404D01*
X18579561Y14907877D01*
X18582984Y14909859D01*
X18586828Y14910774D01*
X18595883Y14917327D01*
X18605562Y14922930D01*
X18607964Y14926069D01*
X18611168Y14928387D01*
X18617031Y14937916D01*
X18623822Y14946788D01*
X18625899Y14952328D01*
X18626913Y14953974D01*
X18627208Y14955817D01*
X18629123Y14960921D01*
X18745199Y15396207D01*
X18861275Y14960921D01*
X18863189Y14955816D01*
X18863485Y14953974D01*
X18864497Y14952329D01*
X18866576Y14946787D01*
X18873370Y14937911D01*
X18879230Y14928388D01*
X18882432Y14926071D01*
X18884836Y14922930D01*
X18894517Y14917326D01*
X18903570Y14910774D01*
X18907413Y14909859D01*
X18910837Y14907877D01*
X18921923Y14906404D01*
X18932797Y14903815D01*
X18936699Y14904441D01*
X18940619Y14903920D01*
X18951425Y14906802D01*
X18962462Y14908571D01*
X18965827Y14910642D01*
X18969649Y14911661D01*
X18978530Y14918459D01*
X18988048Y14924316D01*
X18990365Y14927518D01*
X18993506Y14929922D01*
X18999111Y14939605D01*
X19005662Y14948656D01*
X19007589Y14954248D01*
X19008559Y14955922D01*
X19008805Y14957775D01*
X19010581Y14962926D01*
X19207571Y15790285D01*
X19430104Y15790285D01*
X19430104Y15647428D01*
X19431584Y15632406D01*
X19432642Y15629850D01*
X19432839Y15627091D01*
X19438233Y15612993D01*
X19485852Y15517755D01*
X19489920Y15511292D01*
X19490700Y15509411D01*
X19492439Y15507292D01*
X19493894Y15504981D01*
X19495426Y15503652D01*
X19500276Y15497743D01*
X19547894Y15450124D01*
X19553801Y15445277D01*
X19555132Y15443742D01*
X19557445Y15442286D01*
X19559563Y15440548D01*
X19561442Y15439770D01*
X19567907Y15435700D01*
X19663144Y15388081D01*
X19677242Y15382687D01*
X19680001Y15382491D01*
X19682558Y15381432D01*
X19697580Y15379952D01*
X20001532Y15379952D01*
X20001532Y14980761D01*
X20003012Y14965739D01*
X20014509Y14937982D01*
X20035753Y14916738D01*
X20063510Y14905241D01*
X20093554Y14905241D01*
X20121311Y14916738D01*
X20142555Y14937982D01*
X20154052Y14965739D01*
X20155532Y14980761D01*
X20155532Y15980761D01*
X20154052Y15995783D01*
X20142555Y16023540D01*
X20121311Y16044784D01*
X20093554Y16056281D01*
X20078532Y16057761D01*
X19697580Y16057761D01*
X19682558Y16056281D01*
X19680001Y16055223D01*
X19677242Y16055026D01*
X19663144Y16049632D01*
X19567907Y16002013D01*
X19561442Y15997944D01*
X19559563Y15997165D01*
X19557445Y15995428D01*
X19555132Y15993971D01*
X19553801Y15992437D01*
X19547894Y15987589D01*
X19500276Y15939970D01*
X19495426Y15934062D01*
X19493894Y15932732D01*
X19492439Y15930422D01*
X19490700Y15928302D01*
X19489920Y15926422D01*
X19485852Y15919958D01*
X19438233Y15824720D01*
X19432839Y15810622D01*
X19432642Y15807864D01*
X19431584Y15805307D01*
X19430104Y15790285D01*
X19207571Y15790285D01*
X19248676Y15962926D01*
X19250716Y15977883D01*
X19245960Y16007548D01*
X19230215Y16033135D01*
X19205875Y16050748D01*
X19176648Y16057707D01*
X19146983Y16052952D01*
X19121397Y16037206D01*
X19103783Y16012867D01*
X19098864Y15998596D01*
X18931448Y15295451D01*
X18819599Y15714887D01*
X18818279Y15718404D01*
X18818083Y15719886D01*
X18817063Y15721647D01*
X18814298Y15729020D01*
X18808125Y15737085D01*
X18803030Y15745886D01*
X18799068Y15748919D01*
X18796038Y15752878D01*
X18787243Y15757970D01*
X18779173Y15764147D01*
X18774353Y15765433D01*
X18770037Y15767931D01*
X18759962Y15769270D01*
X18750143Y15771888D01*
X18745199Y15771232D01*
X18740255Y15771888D01*
X18730438Y15769270D01*
X18720361Y15767931D01*
X18716041Y15765431D01*
X18711226Y15764146D01*
X18703160Y15757973D01*
X18694360Y15752878D01*
X18691328Y15748918D01*
X18687368Y15745886D01*
X18682274Y15737089D01*
X18676100Y15729021D01*
X18673333Y15721644D01*
X18672315Y15719885D01*
X18672118Y15718405D01*
X18670799Y15714887D01*
X18558949Y15295451D01*
X18391534Y15998596D01*
X18386615Y16012866D01*
X18369001Y16037206D01*
X18343415Y16052951D01*
X18313750Y16057707D01*
X18284523Y16050748D01*
X18260183Y16033134D01*
X18244438Y16007548D01*
X18239682Y15977883D01*
X18012675Y15977883D01*
X18012675Y15980761D01*
X18011195Y15995783D01*
X17999698Y16023540D01*
X17978454Y16044784D01*
X17950697Y16056281D01*
X17935675Y16057761D01*
X17554723Y16057761D01*
X17539701Y16056281D01*
X17537144Y16055223D01*
X17534385Y16055026D01*
X17520287Y16049632D01*
X17425050Y16002013D01*
X17418585Y15997944D01*
X17416706Y15997165D01*
X17414588Y15995428D01*
X17412275Y15993971D01*
X17410944Y15992437D01*
X17405037Y15987589D01*
X17357419Y15939970D01*
X17352569Y15934062D01*
X17351037Y15932732D01*
X17349582Y15930422D01*
X17347843Y15928302D01*
X17347063Y15926422D01*
X17342995Y15919958D01*
X17295376Y15824720D01*
X17289982Y15810622D01*
X17289785Y15807864D01*
X17288727Y15805307D01*
X17287247Y15790285D01*
X17176136Y15790285D01*
X17176136Y16168872D01*
X20266643Y16168872D01*
X20266643Y13182706D01*
G37*
X36902811Y3097638D02*
X36236144Y2573829D01*
X36236144Y3097638D02*
X36902811Y2573829D01*
X25517789Y23117342D02*
X24755885Y23117342D01*
X25136837Y22736389D02*
X25136837Y23498294D01*
X19136075Y2069389D02*
X19136075Y1355104D01*
X19136075Y1355104D02*
X19183694Y1212247D01*
X19183694Y1212247D02*
X19278932Y1117008D01*
X19278932Y1117008D02*
X19421789Y1069389D01*
X19421789Y1069389D02*
X19517027Y1069389D01*
X18183694Y1069389D02*
X18659884Y1069389D01*
X18659884Y1069389D02*
X18659884Y2069389D01*
X17278932Y1164628D02*
X17326551Y1117008D01*
X17326551Y1117008D02*
X17469408Y1069389D01*
X17469408Y1069389D02*
X17564646Y1069389D01*
X17564646Y1069389D02*
X17707503Y1117008D01*
X17707503Y1117008D02*
X17802741Y1212247D01*
X17802741Y1212247D02*
X17850360Y1307485D01*
X17850360Y1307485D02*
X17897979Y1497961D01*
X17897979Y1497961D02*
X17897979Y1640818D01*
X17897979Y1640818D02*
X17850360Y1831294D01*
X17850360Y1831294D02*
X17802741Y1926532D01*
X17802741Y1926532D02*
X17707503Y2021770D01*
X17707503Y2021770D02*
X17564646Y2069389D01*
X17564646Y2069389D02*
X17469408Y2069389D01*
X17469408Y2069389D02*
X17326551Y2021770D01*
X17326551Y2021770D02*
X17278932Y1974151D01*
X16564646Y2069389D02*
X16564646Y1355104D01*
X16564646Y1355104D02*
X16612265Y1212247D01*
X16612265Y1212247D02*
X16707503Y1117008D01*
X16707503Y1117008D02*
X16850360Y1069389D01*
X16850360Y1069389D02*
X16945598Y1069389D01*
X15612265Y1069389D02*
X16088455Y1069389D01*
X16088455Y1069389D02*
X16088455Y2069389D01*
X14707503Y1164628D02*
X14755122Y1117008D01*
X14755122Y1117008D02*
X14897979Y1069389D01*
X14897979Y1069389D02*
X14993217Y1069389D01*
X14993217Y1069389D02*
X15136074Y1117008D01*
X15136074Y1117008D02*
X15231312Y1212247D01*
X15231312Y1212247D02*
X15278931Y1307485D01*
X15278931Y1307485D02*
X15326550Y1497961D01*
X15326550Y1497961D02*
X15326550Y1640818D01*
X15326550Y1640818D02*
X15278931Y1831294D01*
X15278931Y1831294D02*
X15231312Y1926532D01*
X15231312Y1926532D02*
X15136074Y2021770D01*
X15136074Y2021770D02*
X14993217Y2069389D01*
X14993217Y2069389D02*
X14897979Y2069389D01*
X14897979Y2069389D02*
X14755122Y2021770D01*
X14755122Y2021770D02*
X14707503Y1974151D01*
X13993217Y2069389D02*
X13993217Y1355104D01*
X13993217Y1355104D02*
X14040836Y1212247D01*
X14040836Y1212247D02*
X14136074Y1117008D01*
X14136074Y1117008D02*
X14278931Y1069389D01*
X14278931Y1069389D02*
X14374169Y1069389D01*
X13040836Y1069389D02*
X13517026Y1069389D01*
X13517026Y1069389D02*
X13517026Y2069389D01*
X12136074Y1164628D02*
X12183693Y1117008D01*
X12183693Y1117008D02*
X12326550Y1069389D01*
X12326550Y1069389D02*
X12421788Y1069389D01*
X12421788Y1069389D02*
X12564645Y1117008D01*
X12564645Y1117008D02*
X12659883Y1212247D01*
X12659883Y1212247D02*
X12707502Y1307485D01*
X12707502Y1307485D02*
X12755121Y1497961D01*
X12755121Y1497961D02*
X12755121Y1640818D01*
X12755121Y1640818D02*
X12707502Y1831294D01*
X12707502Y1831294D02*
X12659883Y1926532D01*
X12659883Y1926532D02*
X12564645Y2021770D01*
X12564645Y2021770D02*
X12421788Y2069389D01*
X12421788Y2069389D02*
X12326550Y2069389D01*
X12326550Y2069389D02*
X12183693Y2021770D01*
X12183693Y2021770D02*
X12136074Y1974151D01*
X11421788Y2069389D02*
X11421788Y1355104D01*
X11421788Y1355104D02*
X11469407Y1212247D01*
X11469407Y1212247D02*
X11564645Y1117008D01*
X11564645Y1117008D02*
X11707502Y1069389D01*
X11707502Y1069389D02*
X11802740Y1069389D01*
X10469407Y1069389D02*
X10945597Y1069389D01*
X10945597Y1069389D02*
X10945597Y2069389D01*
X9564645Y1164628D02*
X9612264Y1117008D01*
X9612264Y1117008D02*
X9755121Y1069389D01*
X9755121Y1069389D02*
X9850359Y1069389D01*
X9850359Y1069389D02*
X9993216Y1117008D01*
X9993216Y1117008D02*
X10088454Y1212247D01*
X10088454Y1212247D02*
X10136073Y1307485D01*
X10136073Y1307485D02*
X10183692Y1497961D01*
X10183692Y1497961D02*
X10183692Y1640818D01*
X10183692Y1640818D02*
X10136073Y1831294D01*
X10136073Y1831294D02*
X10088454Y1926532D01*
X10088454Y1926532D02*
X9993216Y2021770D01*
X9993216Y2021770D02*
X9850359Y2069389D01*
X9850359Y2069389D02*
X9755121Y2069389D01*
X9755121Y2069389D02*
X9612264Y2021770D01*
X9612264Y2021770D02*
X9564645Y1974151D01*
X38134830Y3597638D02*
X38087211Y3692876D01*
X38087211Y3692876D02*
X38087211Y3835733D01*
X38087211Y3835733D02*
X38134830Y3978590D01*
X38134830Y3978590D02*
X38230068Y4073828D01*
X38230068Y4073828D02*
X38325306Y4121447D01*
X38325306Y4121447D02*
X38515782Y4169066D01*
X38515782Y4169066D02*
X38658639Y4169066D01*
X38658639Y4169066D02*
X38849115Y4121447D01*
X38849115Y4121447D02*
X38944353Y4073828D01*
X38944353Y4073828D02*
X39039592Y3978590D01*
X39039592Y3978590D02*
X39087211Y3835733D01*
X39087211Y3835733D02*
X39087211Y3740495D01*
X39087211Y3740495D02*
X39039592Y3597638D01*
X39039592Y3597638D02*
X38991972Y3550019D01*
X38991972Y3550019D02*
X38658639Y3550019D01*
X38658639Y3550019D02*
X38658639Y3740495D01*
X39087211Y3121447D02*
X38087211Y3121447D01*
X38087211Y3121447D02*
X39087211Y2550019D01*
X39087211Y2550019D02*
X38087211Y2550019D01*
X39087211Y2073828D02*
X38087211Y2073828D01*
X38087211Y2073828D02*
X38087211Y1835733D01*
X38087211Y1835733D02*
X38134830Y1692876D01*
X38134830Y1692876D02*
X38230068Y1597638D01*
X38230068Y1597638D02*
X38325306Y1550019D01*
X38325306Y1550019D02*
X38515782Y1502400D01*
X38515782Y1502400D02*
X38658639Y1502400D01*
X38658639Y1502400D02*
X38849115Y1550019D01*
X38849115Y1550019D02*
X38944353Y1597638D01*
X38944353Y1597638D02*
X39039592Y1692876D01*
X39039592Y1692876D02*
X39087211Y1835733D01*
X39087211Y1835733D02*
X39087211Y2073828D01*
%LPC*%
D12*
G04 #@! TO.C,MH102*
X73603713Y22117913D03*
G04 #@! TD*
G04 #@! TO.C,MH101*
X2946400Y22123400D03*
G04 #@! TD*
D13*
G04 #@! TO.C,J105*
X42463200Y18218400D03*
X36683200Y18218400D03*
D14*
X43893200Y17698400D03*
D15*
X43893200Y21898400D03*
D14*
X35253200Y17698400D03*
D15*
X35253200Y21898400D03*
G04 #@! TD*
D12*
G04 #@! TO.C,MH103*
X73603700Y2947300D03*
G04 #@! TD*
D16*
G04 #@! TO.C,J102*
X7315200Y18160600D03*
D17*
X7315200Y20700600D03*
X9855200Y18160600D03*
X9855200Y20700600D03*
X12395200Y18160600D03*
X12395200Y20700600D03*
X14935200Y18160600D03*
X14935200Y20700600D03*
X17475200Y18160600D03*
X17475200Y20700600D03*
X20015200Y18160600D03*
X20015200Y20700600D03*
X22555200Y18160600D03*
X22555200Y20700600D03*
X25095200Y18160600D03*
X25095200Y20700600D03*
X27635200Y18160600D03*
X27635200Y20700600D03*
G04 #@! TD*
D12*
G04 #@! TO.C,MH104*
X2951900Y2947300D03*
G04 #@! TD*
%LPD*%
M02*
