%TF.GenerationSoftware,KiCad,Pcbnew,7.0.7*%
%TF.CreationDate,2024-01-20T15:39:31+01:00*%
%TF.ProjectId,esp-atx-power,6573702d-6174-4782-9d70-6f7765722e6b,1.0.0*%
%TF.SameCoordinates,PX6695f68PY7b6af88*%
%TF.FileFunction,Copper,L1,Top*%
%TF.FilePolarity,Positive*%
%FSLAX46Y46*%
G04 Gerber Fmt 4.6, Leading zero omitted, Abs format (unit mm)*
G04 Created by KiCad (PCBNEW 7.0.7) date 2024-01-20 15:39:31*
%MOMM*%
%LPD*%
G01*
G04 APERTURE LIST*
G04 Aperture macros list*
%AMRoundRect*
0 Rectangle with rounded corners*
0 $1 Rounding radius*
0 $2 $3 $4 $5 $6 $7 $8 $9 X,Y pos of 4 corners*
0 Add a 4 corners polygon primitive as box body*
4,1,4,$2,$3,$4,$5,$6,$7,$8,$9,$2,$3,0*
0 Add four circle primitives for the rounded corners*
1,1,$1+$1,$2,$3*
1,1,$1+$1,$4,$5*
1,1,$1+$1,$6,$7*
1,1,$1+$1,$8,$9*
0 Add four rect primitives between the rounded corners*
20,1,$1+$1,$2,$3,$4,$5,0*
20,1,$1+$1,$4,$5,$6,$7,0*
20,1,$1+$1,$6,$7,$8,$9,0*
20,1,$1+$1,$8,$9,$2,$3,0*%
G04 Aperture macros list end*
%TA.AperFunction,SMDPad,CuDef*%
%ADD10RoundRect,0.200000X-0.275000X0.200000X-0.275000X-0.200000X0.275000X-0.200000X0.275000X0.200000X0*%
%TD*%
%TA.AperFunction,SMDPad,CuDef*%
%ADD11RoundRect,0.135000X-0.185000X0.135000X-0.185000X-0.135000X0.185000X-0.135000X0.185000X0.135000X0*%
%TD*%
%TA.AperFunction,SMDPad,CuDef*%
%ADD12RoundRect,0.062500X-0.337500X-0.062500X0.337500X-0.062500X0.337500X0.062500X-0.337500X0.062500X0*%
%TD*%
%TA.AperFunction,SMDPad,CuDef*%
%ADD13RoundRect,0.062500X-0.062500X-0.337500X0.062500X-0.337500X0.062500X0.337500X-0.062500X0.337500X0*%
%TD*%
%TA.AperFunction,SMDPad,CuDef*%
%ADD14R,3.350000X3.350000*%
%TD*%
%TA.AperFunction,SMDPad,CuDef*%
%ADD15RoundRect,0.140000X0.021213X-0.219203X0.219203X-0.021213X-0.021213X0.219203X-0.219203X0.021213X0*%
%TD*%
%TA.AperFunction,SMDPad,CuDef*%
%ADD16RoundRect,0.050000X0.350000X0.050000X-0.350000X0.050000X-0.350000X-0.050000X0.350000X-0.050000X0*%
%TD*%
%TA.AperFunction,SMDPad,CuDef*%
%ADD17RoundRect,0.050000X0.050000X0.350000X-0.050000X0.350000X-0.050000X-0.350000X0.050000X-0.350000X0*%
%TD*%
%TA.AperFunction,SMDPad,CuDef*%
%ADD18R,4.000000X4.000000*%
%TD*%
%TA.AperFunction,SMDPad,CuDef*%
%ADD19R,2.000000X1.500000*%
%TD*%
%TA.AperFunction,SMDPad,CuDef*%
%ADD20R,2.000000X3.800000*%
%TD*%
%TA.AperFunction,SMDPad,CuDef*%
%ADD21R,1.000000X0.750000*%
%TD*%
%TA.AperFunction,SMDPad,CuDef*%
%ADD22RoundRect,0.135000X-0.135000X-0.185000X0.135000X-0.185000X0.135000X0.185000X-0.135000X0.185000X0*%
%TD*%
%TA.AperFunction,SMDPad,CuDef*%
%ADD23RoundRect,0.140000X0.140000X0.170000X-0.140000X0.170000X-0.140000X-0.170000X0.140000X-0.170000X0*%
%TD*%
%TA.AperFunction,SMDPad,CuDef*%
%ADD24R,0.500000X0.300000*%
%TD*%
%TA.AperFunction,SMDPad,CuDef*%
%ADD25RoundRect,0.147500X0.172500X-0.147500X0.172500X0.147500X-0.172500X0.147500X-0.172500X-0.147500X0*%
%TD*%
%TA.AperFunction,SMDPad,CuDef*%
%ADD26RoundRect,0.135000X0.135000X0.185000X-0.135000X0.185000X-0.135000X-0.185000X0.135000X-0.185000X0*%
%TD*%
%TA.AperFunction,SMDPad,CuDef*%
%ADD27R,3.100000X1.600000*%
%TD*%
%TA.AperFunction,SMDPad,CuDef*%
%ADD28RoundRect,0.147500X-0.226274X-0.017678X-0.017678X-0.226274X0.226274X0.017678X0.017678X0.226274X0*%
%TD*%
%TA.AperFunction,SMDPad,CuDef*%
%ADD29RoundRect,0.135000X0.185000X-0.135000X0.185000X0.135000X-0.185000X0.135000X-0.185000X-0.135000X0*%
%TD*%
%TA.AperFunction,SMDPad,CuDef*%
%ADD30RoundRect,0.218750X-0.256250X0.218750X-0.256250X-0.218750X0.256250X-0.218750X0.256250X0.218750X0*%
%TD*%
%TA.AperFunction,ComponentPad*%
%ADD31R,1.700000X1.700000*%
%TD*%
%TA.AperFunction,ComponentPad*%
%ADD32O,1.700000X1.700000*%
%TD*%
%TA.AperFunction,SMDPad,CuDef*%
%ADD33RoundRect,0.140000X0.170000X-0.140000X0.170000X0.140000X-0.170000X0.140000X-0.170000X-0.140000X0*%
%TD*%
%TA.AperFunction,SMDPad,CuDef*%
%ADD34R,1.240000X0.600000*%
%TD*%
%TA.AperFunction,SMDPad,CuDef*%
%ADD35R,1.240000X0.300000*%
%TD*%
%TA.AperFunction,ComponentPad*%
%ADD36O,2.100000X1.000000*%
%TD*%
%TA.AperFunction,ComponentPad*%
%ADD37O,1.800000X1.000000*%
%TD*%
%TA.AperFunction,SMDPad,CuDef*%
%ADD38RoundRect,0.140000X-0.170000X0.140000X-0.170000X-0.140000X0.170000X-0.140000X0.170000X0.140000X0*%
%TD*%
%TA.AperFunction,SMDPad,CuDef*%
%ADD39RoundRect,0.140000X-0.140000X-0.170000X0.140000X-0.170000X0.140000X0.170000X-0.140000X0.170000X0*%
%TD*%
%TA.AperFunction,SMDPad,CuDef*%
%ADD40RoundRect,0.150000X-0.587500X-0.150000X0.587500X-0.150000X0.587500X0.150000X-0.587500X0.150000X0*%
%TD*%
%TA.AperFunction,SMDPad,CuDef*%
%ADD41RoundRect,0.225000X0.225000X0.250000X-0.225000X0.250000X-0.225000X-0.250000X0.225000X-0.250000X0*%
%TD*%
%TA.AperFunction,ConnectorPad*%
%ADD42R,0.500000X0.500000*%
%TD*%
%TA.AperFunction,ComponentPad*%
%ADD43R,0.500000X0.900000*%
%TD*%
%TA.AperFunction,SMDPad,CuDef*%
%ADD44R,1.400000X1.200000*%
%TD*%
%TA.AperFunction,SMDPad,CuDef*%
%ADD45R,0.500000X0.375000*%
%TD*%
%TA.AperFunction,SMDPad,CuDef*%
%ADD46R,0.650000X0.300000*%
%TD*%
%TA.AperFunction,ViaPad*%
%ADD47C,0.500000*%
%TD*%
%TA.AperFunction,ViaPad*%
%ADD48C,0.450000*%
%TD*%
%TA.AperFunction,ViaPad*%
%ADD49C,0.550000*%
%TD*%
%TA.AperFunction,ViaPad*%
%ADD50C,0.800000*%
%TD*%
%TA.AperFunction,ViaPad*%
%ADD51C,0.600000*%
%TD*%
%TA.AperFunction,Conductor*%
%ADD52C,0.200000*%
%TD*%
%TA.AperFunction,Conductor*%
%ADD53C,0.254000*%
%TD*%
%TA.AperFunction,Conductor*%
%ADD54C,0.300000*%
%TD*%
%TA.AperFunction,Conductor*%
%ADD55C,0.250000*%
%TD*%
%TA.AperFunction,Conductor*%
%ADD56C,0.635000*%
%TD*%
%TA.AperFunction,Conductor*%
%ADD57C,0.400000*%
%TD*%
%TA.AperFunction,Conductor*%
%ADD58C,0.510000*%
%TD*%
%TA.AperFunction,Conductor*%
%ADD59C,0.600000*%
%TD*%
%TA.AperFunction,Conductor*%
%ADD60C,0.349300*%
%TD*%
G04 APERTURE END LIST*
%TA.AperFunction,EtchedComponent*%
%TO.C,AE201*%
G36*
X44393000Y25958000D02*
G01*
X41753000Y25958000D01*
X41753000Y23958000D01*
X44393000Y23958000D01*
X44393000Y21258000D01*
X41753000Y21258000D01*
X41753000Y19258000D01*
X44393000Y19258000D01*
X44393000Y14258000D01*
X39236215Y14258000D01*
X38993000Y14258000D01*
X38993000Y14682844D01*
X39096957Y14682844D01*
X39109065Y14640181D01*
X39113419Y14632269D01*
X39146203Y14594326D01*
X39188605Y14570258D01*
X39236215Y14560417D01*
X39284622Y14565153D01*
X39329416Y14584815D01*
X39366186Y14619755D01*
X39383092Y14652647D01*
X39390982Y14700733D01*
X39384408Y14750318D01*
X39364313Y14795628D01*
X39331643Y14830888D01*
X39299417Y14847782D01*
X39251158Y14856222D01*
X39201632Y14849691D01*
X39156447Y14829132D01*
X39121213Y14795489D01*
X39110600Y14776878D01*
X39097700Y14731363D01*
X39096957Y14682844D01*
X38993000Y14682844D01*
X38993000Y15158000D01*
X43893000Y15158000D01*
X43893000Y16558000D01*
X38993000Y16558000D01*
X38993000Y17058000D01*
X43893000Y17058000D01*
X43893000Y18758000D01*
X41253000Y18758000D01*
X41253000Y21758000D01*
X43893000Y21758000D01*
X43893000Y23458000D01*
X41253000Y23458000D01*
X41253000Y26458000D01*
X43893000Y26458000D01*
X43893000Y28158000D01*
X39953000Y28158000D01*
X39953000Y28658000D01*
X44393000Y28658000D01*
X44393000Y25958000D01*
G37*
%TD.AperFunction*%
%TD*%
D10*
%TO.P,R104,1*%
%TO.N,Net-(K103-A)*%
X10287000Y34099000D03*
%TO.P,R104,2*%
%TO.N,Net-(J103-Pin_3)*%
X10287000Y32449000D03*
%TD*%
D11*
%TO.P,R105,1*%
%TO.N,GND*%
X24511000Y33278500D03*
%TO.P,R105,2*%
%TO.N,PWR_LED*%
X24511000Y32258500D03*
%TD*%
D12*
%TO.P,U104,1,~{DCD}*%
%TO.N,unconnected-(U104-~{DCD}-Pad1)*%
X13893000Y19216500D03*
%TO.P,U104,2,~{RI}/CLK*%
%TO.N,unconnected-(U104-~{RI}{slash}CLK-Pad2)*%
X13893000Y18716500D03*
%TO.P,U104,3,GND*%
%TO.N,GND*%
X13893000Y18216500D03*
%TO.P,U104,4,D+*%
%TO.N,USB_DP*%
X13893000Y17716500D03*
%TO.P,U104,5,D-*%
%TO.N,USB_DN*%
X13893000Y17216500D03*
%TO.P,U104,6,VDD*%
%TO.N,+3V3*%
X13893000Y16716500D03*
%TO.P,U104,7,VREGIN*%
X13893000Y16216500D03*
D13*
%TO.P,U104,8,VBUS*%
%TO.N,VBUS*%
X14843000Y15266500D03*
%TO.P,U104,9,~{RST}*%
%TO.N,Net-(U104-~{RST})*%
X15343000Y15266500D03*
%TO.P,U104,10,NC*%
%TO.N,unconnected-(U104-NC-Pad10)*%
X15843000Y15266500D03*
%TO.P,U104,11,~{SUSPEND}*%
%TO.N,Net-(U104-~{SUSPEND})*%
X16343000Y15266500D03*
%TO.P,U104,12,SUSPEND*%
%TO.N,unconnected-(U104-SUSPEND-Pad12)*%
X16843000Y15266500D03*
%TO.P,U104,13,CHREN*%
%TO.N,unconnected-(U104-CHREN-Pad13)*%
X17343000Y15266500D03*
%TO.P,U104,14,CHR1*%
%TO.N,unconnected-(U104-CHR1-Pad14)*%
X17843000Y15266500D03*
D12*
%TO.P,U104,15,CHR0*%
%TO.N,unconnected-(U104-CHR0-Pad15)*%
X18793000Y16216500D03*
%TO.P,U104,16,~{WAKEUP}/GPIO.3*%
%TO.N,unconnected-(U104-~{WAKEUP}{slash}GPIO.3-Pad16)*%
X18793000Y16716500D03*
%TO.P,U104,17,RS485/GPIO.2*%
%TO.N,unconnected-(U104-RS485{slash}GPIO.2-Pad17)*%
X18793000Y17216500D03*
%TO.P,U104,18,~{RXT}/GPIO.1*%
%TO.N,unconnected-(U104-~{RXT}{slash}GPIO.1-Pad18)*%
X18793000Y17716500D03*
%TO.P,U104,19,~{TXT}/GPIO.0*%
%TO.N,unconnected-(U104-~{TXT}{slash}GPIO.0-Pad19)*%
X18793000Y18216500D03*
%TO.P,U104,20,GPIO.6*%
%TO.N,unconnected-(U104-GPIO.6-Pad20)*%
X18793000Y18716500D03*
%TO.P,U104,21,GPIO.5*%
%TO.N,unconnected-(U104-GPIO.5-Pad21)*%
X18793000Y19216500D03*
D13*
%TO.P,U104,22,GPIO.4*%
%TO.N,unconnected-(U104-GPIO.4-Pad22)*%
X17843000Y20166500D03*
%TO.P,U104,23,~{CTS}*%
%TO.N,unconnected-(U104-~{CTS}-Pad23)*%
X17343000Y20166500D03*
%TO.P,U104,24,~{RTS}*%
%TO.N,RTS*%
X16843000Y20166500D03*
%TO.P,U104,25,RXD*%
%TO.N,RX*%
X16343000Y20166500D03*
%TO.P,U104,26,TXD*%
%TO.N,TX*%
X15843000Y20166500D03*
%TO.P,U104,27,~{DSR}*%
%TO.N,unconnected-(U104-~{DSR}-Pad27)*%
X15343000Y20166500D03*
%TO.P,U104,28,~{DTR}*%
%TO.N,DTR*%
X14843000Y20166500D03*
D14*
%TO.P,U104,29,GND*%
%TO.N,GND*%
X16343000Y17716500D03*
%TD*%
D15*
%TO.P,C216,1*%
%TO.N,/ESP32/LNA_IN*%
X35231589Y19943589D03*
%TO.P,C216,2*%
%TO.N,GND*%
X35910411Y20622411D03*
%TD*%
D16*
%TO.P,U201,1,VDDA*%
%TO.N,+3V3*%
X33676000Y20320000D03*
%TO.P,U201,2,LNA_IN*%
%TO.N,/ESP32/LNA_IN*%
X33676000Y20720000D03*
%TO.P,U201,3,VDD3P3*%
%TO.N,Net-(C201-Pad2)*%
X33676000Y21120000D03*
%TO.P,U201,4,VDD3P3*%
X33676000Y21520000D03*
%TO.P,U201,5,IO0/BOOT*%
%TO.N,BOOT*%
X33676000Y21920000D03*
%TO.P,U201,6,IO1*%
%TO.N,STATUS*%
X33676000Y22320000D03*
%TO.P,U201,7,IO2*%
%TO.N,unconnected-(U201-IO2-Pad7)*%
X33676000Y22720000D03*
%TO.P,U201,8,IO3*%
%TO.N,unconnected-(U201-IO3-Pad8)*%
X33676000Y23120000D03*
%TO.P,U201,9,IO4*%
%TO.N,unconnected-(U201-IO4-Pad9)*%
X33676000Y23520000D03*
%TO.P,U201,10,IO5*%
%TO.N,unconnected-(U201-IO5-Pad10)*%
X33676000Y23920000D03*
%TO.P,U201,11,IO6*%
%TO.N,unconnected-(U201-IO6-Pad11)*%
X33676000Y24320000D03*
%TO.P,U201,12,IO7*%
%TO.N,unconnected-(U201-IO7-Pad12)*%
X33676000Y24720000D03*
%TO.P,U201,13,IO8*%
%TO.N,unconnected-(U201-IO8-Pad13)*%
X33676000Y25120000D03*
%TO.P,U201,14,IO9*%
%TO.N,unconnected-(U201-IO9-Pad14)*%
X33676000Y25520000D03*
D17*
%TO.P,U201,15,IO10*%
%TO.N,unconnected-(U201-IO10-Pad15)*%
X32826000Y26370000D03*
%TO.P,U201,16,IO11*%
%TO.N,unconnected-(U201-IO11-Pad16)*%
X32426000Y26370000D03*
%TO.P,U201,17,IO12*%
%TO.N,unconnected-(U201-IO12-Pad17)*%
X32026000Y26370000D03*
%TO.P,U201,18,IO13*%
%TO.N,unconnected-(U201-IO13-Pad18)*%
X31626000Y26370000D03*
%TO.P,U201,19,IO14*%
%TO.N,unconnected-(U201-IO14-Pad19)*%
X31226000Y26370000D03*
%TO.P,U201,20,VDD3P3_RTC*%
%TO.N,+3V3*%
X30826000Y26370000D03*
%TO.P,U201,21,IO15/32K_P*%
%TO.N,unconnected-(U201-IO15{slash}32K_P-Pad21)*%
X30426000Y26370000D03*
%TO.P,U201,22,IO16/32K_N*%
%TO.N,unconnected-(U201-IO16{slash}32K_N-Pad22)*%
X30026000Y26370000D03*
%TO.P,U201,23,IO17/DAC_1*%
%TO.N,unconnected-(U201-IO17{slash}DAC_1-Pad23)*%
X29626000Y26370000D03*
%TO.P,U201,24,IO18/DAC_2*%
%TO.N,unconnected-(U201-IO18{slash}DAC_2-Pad24)*%
X29226000Y26370000D03*
%TO.P,U201,25,IO19/USB_DN*%
%TO.N,unconnected-(U201-IO19{slash}USB_DN-Pad25)*%
X28826000Y26370000D03*
%TO.P,U201,26,IO20/USB_DP*%
%TO.N,PWR_LED*%
X28426000Y26370000D03*
%TO.P,U201,27,VDD3P3_RTC_IO*%
%TO.N,+3V3*%
X28026000Y26370000D03*
%TO.P,U201,28,IO21*%
%TO.N,HDD_LED*%
X27626000Y26370000D03*
D16*
%TO.P,U201,29,IO26/SPICS1*%
%TO.N,unconnected-(U201-IO26{slash}SPICS1-Pad29)*%
X26776000Y25520000D03*
%TO.P,U201,30,VDD_SPI*%
%TO.N,Net-(U201-VDD_SPI)*%
X26776000Y25120000D03*
%TO.P,U201,31,SPIHD*%
%TO.N,unconnected-(U201-SPIHD-Pad31)*%
X26776000Y24720000D03*
%TO.P,U201,32,SPIWP*%
%TO.N,unconnected-(U201-SPIWP-Pad32)*%
X26776000Y24320000D03*
%TO.P,U201,33,SPICS0*%
%TO.N,unconnected-(U201-SPICS0-Pad33)*%
X26776000Y23920000D03*
%TO.P,U201,34,SPICLK*%
%TO.N,unconnected-(U201-SPICLK-Pad34)*%
X26776000Y23520000D03*
%TO.P,U201,35,SPIQ*%
%TO.N,unconnected-(U201-SPIQ-Pad35)*%
X26776000Y23120000D03*
%TO.P,U201,36,SPID*%
%TO.N,unconnected-(U201-SPID-Pad36)*%
X26776000Y22720000D03*
%TO.P,U201,37,IO33*%
%TO.N,unconnected-(U201-IO33-Pad37)*%
X26776000Y22320000D03*
%TO.P,U201,38,IO34*%
%TO.N,unconnected-(U201-IO34-Pad38)*%
X26776000Y21920000D03*
%TO.P,U201,39,IO35*%
%TO.N,unconnected-(U201-IO35-Pad39)*%
X26776000Y21520000D03*
%TO.P,U201,40,IO36*%
%TO.N,unconnected-(U201-IO36-Pad40)*%
X26776000Y21120000D03*
%TO.P,U201,41,IO37*%
%TO.N,PWR_SW*%
X26776000Y20720000D03*
%TO.P,U201,42,IO38*%
%TO.N,RST_SW*%
X26776000Y20320000D03*
D17*
%TO.P,U201,43,MTCK/IO39*%
%TO.N,Net-(U201-MTCK{slash}IO39)*%
X27626000Y19470000D03*
%TO.P,U201,44,MTD0/IO40*%
%TO.N,Net-(U201-MTD0{slash}IO40)*%
X28026000Y19470000D03*
%TO.P,U201,45,VDD3P3_CPU*%
%TO.N,+3V3*%
X28426000Y19470000D03*
%TO.P,U201,46,MTDI/IO41*%
%TO.N,Net-(U201-MTDI{slash}IO41)*%
X28826000Y19470000D03*
%TO.P,U201,47,MTMS/IO42*%
%TO.N,Net-(U201-MTMS{slash}IO42)*%
X29226000Y19470000D03*
%TO.P,U201,48,TXD0*%
%TO.N,Net-(U201-TXD0)*%
X29626000Y19470000D03*
%TO.P,U201,49,RXD0*%
%TO.N,TX*%
X30026000Y19470000D03*
%TO.P,U201,50,IO45*%
%TO.N,unconnected-(U201-IO45-Pad50)*%
X30426000Y19470000D03*
%TO.P,U201,51,VDDA*%
%TO.N,+3V3*%
X30826000Y19470000D03*
%TO.P,U201,52,XTAL_N*%
%TO.N,/ESP32/XTAL_N*%
X31226000Y19470000D03*
%TO.P,U201,53,XTAL_P*%
%TO.N,/ESP32/XTAL_P*%
X31626000Y19470000D03*
%TO.P,U201,54,VDDA*%
%TO.N,+3V3*%
X32026000Y19470000D03*
%TO.P,U201,55,IO46*%
%TO.N,unconnected-(U201-IO46-Pad55)*%
X32426000Y19470000D03*
%TO.P,U201,56,EN*%
%TO.N,EN*%
X32826000Y19470000D03*
D18*
%TO.P,U201,57,GND*%
%TO.N,GND*%
X30226000Y22920000D03*
%TD*%
D19*
%TO.P,U102,1,GND*%
%TO.N,GND*%
X15265000Y27128500D03*
%TO.P,U102,2,VO*%
%TO.N,+3V3*%
X15265000Y24828500D03*
D20*
X21565000Y24828500D03*
D19*
%TO.P,U102,3,VI*%
%TO.N,VBUS*%
X15265000Y22528500D03*
%TD*%
D21*
%TO.P,SW102,1,1*%
%TO.N,BOOT*%
X31321000Y35590000D03*
X25321000Y35590000D03*
%TO.P,SW102,2,2*%
%TO.N,GND*%
X31321000Y39340000D03*
X25321000Y39340000D03*
%TD*%
D22*
%TO.P,R113,1*%
%TO.N,Net-(U104-~{RST})*%
X20445000Y14668500D03*
%TO.P,R113,2*%
%TO.N,+3V3*%
X21465000Y14668500D03*
%TD*%
D21*
%TO.P,SW101,1,1*%
%TO.N,EN*%
X25273000Y6828000D03*
X31273000Y6828000D03*
%TO.P,SW101,2,2*%
%TO.N,GND*%
X25273000Y3078000D03*
X31273000Y3078000D03*
%TD*%
D23*
%TO.P,C108,1*%
%TO.N,+3V3*%
X12164000Y16510000D03*
%TO.P,C108,2*%
%TO.N,GND*%
X11204000Y16510000D03*
%TD*%
D24*
%TO.P,D101,1,A1*%
%TO.N,GND*%
X10287000Y23718000D03*
%TO.P,D101,2,A2*%
%TO.N,/USB_IN_CC1*%
X10287000Y23018000D03*
%TD*%
D25*
%TO.P,L201,1,1*%
%TO.N,Net-(C201-Pad2)*%
X36576000Y22375000D03*
%TO.P,L201,2,2*%
%TO.N,+3V3*%
X36576000Y23345000D03*
%TD*%
D26*
%TO.P,R201,1*%
%TO.N,Net-(U201-TXD0)*%
X27180000Y16764000D03*
%TO.P,R201,2*%
%TO.N,RX*%
X26160000Y16764000D03*
%TD*%
D27*
%TO.P,K104,1,A*%
%TO.N,Net-(K104-A)*%
X12827000Y39878000D03*
%TO.P,K104,2,K*%
%TO.N,Net-(J104-Pin_1)*%
X12827000Y37338000D03*
%TO.P,K104,3,D1*%
%TO.N,HDD_LED*%
X21717000Y37338000D03*
%TO.P,K104,4,D2*%
%TO.N,+3V3*%
X21717000Y39878000D03*
%TD*%
D10*
%TO.P,R106,1*%
%TO.N,Net-(K104-A)*%
X10287000Y40703000D03*
%TO.P,R106,2*%
%TO.N,Net-(J104-Pin_3)*%
X10287000Y39053000D03*
%TD*%
%TO.P,R101,1*%
%TO.N,GND*%
X24765000Y10793000D03*
%TO.P,R101,2*%
%TO.N,Net-(K101-K)*%
X24765000Y9143000D03*
%TD*%
D23*
%TO.P,C204,1*%
%TO.N,+3V3*%
X36548000Y26289000D03*
%TO.P,C204,2*%
%TO.N,GND*%
X35588000Y26289000D03*
%TD*%
D28*
%TO.P,L202,1,1*%
%TO.N,/ESP32/LNA_IN*%
X35928053Y19280947D03*
%TO.P,L202,2,2*%
%TO.N,Net-(AE201-FEED)*%
X36613947Y18595053D03*
%TD*%
D29*
%TO.P,R109,1*%
%TO.N,DTR*%
X26543000Y32256000D03*
%TO.P,R109,2*%
%TO.N,Net-(Q102-B)*%
X26543000Y33276000D03*
%TD*%
D30*
%TO.P,D103,1,K*%
%TO.N,Net-(D103-K)*%
X34925000Y34214000D03*
%TO.P,D103,2,A*%
%TO.N,+3V3*%
X34925000Y32639000D03*
%TD*%
D31*
%TO.P,J104,1,Pin_1*%
%TO.N,Net-(J104-Pin_1)*%
X7747000Y37338000D03*
D32*
%TO.P,J104,2,Pin_2*%
X5207000Y37338000D03*
%TO.P,J104,3,Pin_3*%
%TO.N,Net-(J104-Pin_3)*%
X7747000Y39878000D03*
%TO.P,J104,4,Pin_4*%
X5207000Y39878000D03*
%TD*%
D33*
%TO.P,C215,1*%
%TO.N,/ESP32/XTAL_N*%
X28531000Y13683000D03*
%TO.P,C215,2*%
%TO.N,GND*%
X28531000Y14643000D03*
%TD*%
D27*
%TO.P,K101,1,A*%
%TO.N,PWR_SW*%
X21717000Y2667000D03*
%TO.P,K101,2,K*%
%TO.N,Net-(K101-K)*%
X21717000Y5207000D03*
%TO.P,K101,3,D1*%
%TO.N,Net-(J101-Pin_3)*%
X12827000Y5207000D03*
%TO.P,K101,4,D2*%
%TO.N,Net-(J101-Pin_1)*%
X12827000Y2667000D03*
%TD*%
D29*
%TO.P,R111,1*%
%TO.N,GND*%
X11303000Y18413000D03*
%TO.P,R111,2*%
%TO.N,/USB_IN_CC2*%
X11303000Y19433000D03*
%TD*%
D31*
%TO.P,J103,1,Pin_1*%
%TO.N,Net-(J103-Pin_1)*%
X7747000Y30734000D03*
D32*
%TO.P,J103,2,Pin_2*%
X5207000Y30734000D03*
%TO.P,J103,3,Pin_3*%
%TO.N,Net-(J103-Pin_3)*%
X7747000Y33274000D03*
%TO.P,J103,4,Pin_4*%
X5207000Y33274000D03*
%TD*%
D34*
%TO.P,J105,A1,GND*%
%TO.N,GND*%
X7422000Y24472500D03*
%TO.P,J105,A4,VBUS*%
%TO.N,VBUS*%
X7422000Y23672500D03*
D35*
%TO.P,J105,A5,CC1*%
%TO.N,/USB_IN_CC1*%
X7422000Y22522500D03*
%TO.P,J105,A6,D+*%
%TO.N,/USB_IN_DP*%
X7422000Y21522500D03*
%TO.P,J105,A7,D-*%
%TO.N,/USB_IN_DN*%
X7422000Y21022500D03*
%TO.P,J105,A8,SBU1*%
%TO.N,unconnected-(J105-SBU1-PadA8)*%
X7422000Y20022500D03*
D34*
%TO.P,J105,A9,VBUS*%
%TO.N,VBUS*%
X7422000Y18872500D03*
%TO.P,J105,A12,GND*%
%TO.N,GND*%
X7422000Y18072500D03*
%TO.P,J105,B1,GND*%
X7422000Y18072500D03*
%TO.P,J105,B4,VBUS*%
%TO.N,VBUS*%
X7422000Y18872500D03*
D35*
%TO.P,J105,B5,CC2*%
%TO.N,/USB_IN_CC2*%
X7422000Y19522500D03*
%TO.P,J105,B6,D+*%
%TO.N,/USB_IN_DP*%
X7422000Y20522500D03*
%TO.P,J105,B7,D-*%
%TO.N,/USB_IN_DN*%
X7422000Y22022500D03*
%TO.P,J105,B8,SBU2*%
%TO.N,unconnected-(J105-SBU2-PadB8)*%
X7422000Y23022500D03*
D34*
%TO.P,J105,B9,VBUS*%
%TO.N,VBUS*%
X7422000Y23672500D03*
%TO.P,J105,B12,GND*%
%TO.N,GND*%
X7422000Y24472500D03*
D36*
%TO.P,J105,S1,SHIELD*%
X6822000Y25592500D03*
D37*
X2622000Y25592500D03*
D36*
X6822000Y16952500D03*
D37*
X2622000Y16952500D03*
%TD*%
D23*
%TO.P,C104,1*%
%TO.N,+3V3*%
X21957000Y20447000D03*
%TO.P,C104,2*%
%TO.N,GND*%
X20997000Y20447000D03*
%TD*%
D38*
%TO.P,C214,1*%
%TO.N,/ESP32/XTAL_P*%
X34331000Y15367000D03*
%TO.P,C214,2*%
%TO.N,GND*%
X34331000Y14407000D03*
%TD*%
D27*
%TO.P,K102,1,A*%
%TO.N,RST_SW*%
X21717000Y9271000D03*
%TO.P,K102,2,K*%
%TO.N,Net-(K102-K)*%
X21717000Y11811000D03*
%TO.P,K102,3,D1*%
%TO.N,Net-(J102-Pin_3)*%
X12827000Y11811000D03*
%TO.P,K102,4,D2*%
%TO.N,Net-(J102-Pin_1)*%
X12827000Y9271000D03*
%TD*%
D30*
%TO.P,D104,1,K*%
%TO.N,Net-(D104-K)*%
X36576000Y34214000D03*
%TO.P,D104,2,A*%
%TO.N,STATUS*%
X36576000Y32639000D03*
%TD*%
D24*
%TO.P,D102,1,A1*%
%TO.N,GND*%
X10287000Y18827000D03*
%TO.P,D102,2,A2*%
%TO.N,/USB_IN_CC2*%
X10287000Y19527000D03*
%TD*%
D38*
%TO.P,C105,1*%
%TO.N,EN*%
X33782000Y10097000D03*
%TO.P,C105,2*%
%TO.N,GND*%
X33782000Y9137000D03*
%TD*%
D39*
%TO.P,C206,1*%
%TO.N,GND*%
X26190000Y17780000D03*
%TO.P,C206,2*%
%TO.N,+3V3*%
X27150000Y17780000D03*
%TD*%
D33*
%TO.P,C210,1*%
%TO.N,GND*%
X32512000Y17046000D03*
%TO.P,C210,2*%
%TO.N,+3V3*%
X32512000Y18006000D03*
%TD*%
D40*
%TO.P,Q101,1,B*%
%TO.N,Net-(Q101-B)*%
X29210000Y11045000D03*
%TO.P,Q101,2,E*%
%TO.N,DTR*%
X29210000Y9145000D03*
%TO.P,Q101,3,C*%
%TO.N,EN*%
X31085000Y10095000D03*
%TD*%
D38*
%TO.P,C201,1*%
%TO.N,GND*%
X35560000Y23340000D03*
%TO.P,C201,2*%
%TO.N,Net-(C201-Pad2)*%
X35560000Y22380000D03*
%TD*%
D11*
%TO.P,R114,1*%
%TO.N,GND*%
X33655000Y33403000D03*
%TO.P,R114,2*%
%TO.N,Net-(D103-K)*%
X33655000Y32383000D03*
%TD*%
%TO.P,R110,1*%
%TO.N,GND*%
X11303000Y24132000D03*
%TO.P,R110,2*%
%TO.N,/USB_IN_CC1*%
X11303000Y23112000D03*
%TD*%
D39*
%TO.P,C202,1*%
%TO.N,GND*%
X35588000Y24257000D03*
%TO.P,C202,2*%
%TO.N,+3V3*%
X36548000Y24257000D03*
%TD*%
D41*
%TO.P,C205,1*%
%TO.N,+3V3*%
X36589000Y28194000D03*
%TO.P,C205,2*%
%TO.N,GND*%
X35039000Y28194000D03*
%TD*%
D29*
%TO.P,R108,1*%
%TO.N,RTS*%
X27559000Y9077000D03*
%TO.P,R108,2*%
%TO.N,Net-(Q101-B)*%
X27559000Y10097000D03*
%TD*%
D31*
%TO.P,J101,1,Pin_1*%
%TO.N,Net-(J101-Pin_1)*%
X7809000Y2662000D03*
D32*
%TO.P,J101,2,Pin_2*%
X5269000Y2662000D03*
%TO.P,J101,3,Pin_3*%
%TO.N,Net-(J101-Pin_3)*%
X7809000Y5202000D03*
%TO.P,J101,4,Pin_4*%
X5269000Y5202000D03*
%TD*%
D39*
%TO.P,C203,1*%
%TO.N,GND*%
X35588000Y25273000D03*
%TO.P,C203,2*%
%TO.N,+3V3*%
X36548000Y25273000D03*
%TD*%
D42*
%TO.P,AE201,1,FEED*%
%TO.N,Net-(AE201-FEED)*%
X39243000Y16808000D03*
D43*
%TO.P,AE201,2,PCB_Trace*%
%TO.N,GND*%
X39243000Y14708000D03*
%TD*%
D23*
%TO.P,C103,1*%
%TO.N,VBUS*%
X13307000Y23114000D03*
%TO.P,C103,2*%
%TO.N,GND*%
X12347000Y23114000D03*
%TD*%
D15*
%TO.P,C217,1*%
%TO.N,Net-(AE201-FEED)*%
X37261589Y17903589D03*
%TO.P,C217,2*%
%TO.N,GND*%
X37940411Y18582411D03*
%TD*%
D33*
%TO.P,C212,1*%
%TO.N,Net-(U201-VDD_SPI)*%
X25431000Y25075000D03*
%TO.P,C212,2*%
%TO.N,GND*%
X25431000Y26035000D03*
%TD*%
D11*
%TO.P,R103,1*%
%TO.N,EN*%
X32766000Y10097000D03*
%TO.P,R103,2*%
%TO.N,+3V3*%
X32766000Y9077000D03*
%TD*%
D44*
%TO.P,Y201,1,1*%
%TO.N,/ESP32/XTAL_P*%
X32469000Y15363000D03*
%TO.P,Y201,2,2*%
%TO.N,GND*%
X30269000Y15363000D03*
%TO.P,Y201,3,3*%
%TO.N,/ESP32/XTAL_N*%
X30269000Y13663000D03*
%TO.P,Y201,4,4*%
%TO.N,GND*%
X32469000Y13663000D03*
%TD*%
D23*
%TO.P,C107,1*%
%TO.N,+3V3*%
X12164000Y15494000D03*
%TO.P,C107,2*%
%TO.N,GND*%
X11204000Y15494000D03*
%TD*%
D45*
%TO.P,U103,1,I/O1*%
%TO.N,/USB_IN_DN*%
X10453000Y21810000D03*
D46*
%TO.P,U103,2,GND*%
%TO.N,GND*%
X10378000Y21272500D03*
D45*
%TO.P,U103,3,I/O2*%
%TO.N,/USB_IN_DP*%
X10453000Y20735000D03*
%TO.P,U103,4,I/O2*%
%TO.N,USB_DP*%
X12153000Y20735000D03*
D46*
%TO.P,U103,5,VBUS*%
%TO.N,VBUS*%
X12228000Y21272500D03*
D45*
%TO.P,U103,6,I/O1*%
%TO.N,USB_DN*%
X12153000Y21810000D03*
%TD*%
D39*
%TO.P,C207,1*%
%TO.N,GND*%
X30000000Y27940000D03*
%TO.P,C207,2*%
%TO.N,+3V3*%
X30960000Y27940000D03*
%TD*%
D11*
%TO.P,R115,1*%
%TO.N,GND*%
X32639000Y33403000D03*
%TO.P,R115,2*%
%TO.N,Net-(D104-K)*%
X32639000Y32383000D03*
%TD*%
%TO.P,R107,1*%
%TO.N,GND*%
X25527000Y33276000D03*
%TO.P,R107,2*%
%TO.N,HDD_LED*%
X25527000Y32256000D03*
%TD*%
D31*
%TO.P,J102,1,Pin_1*%
%TO.N,Net-(J102-Pin_1)*%
X7809000Y9266000D03*
D32*
%TO.P,J102,2,Pin_2*%
X5269000Y9266000D03*
%TO.P,J102,3,Pin_3*%
%TO.N,Net-(J102-Pin_3)*%
X7809000Y11806000D03*
%TO.P,J102,4,Pin_4*%
X5269000Y11806000D03*
%TD*%
D40*
%TO.P,Q102,1,B*%
%TO.N,Net-(Q102-B)*%
X28194000Y33335000D03*
%TO.P,Q102,2,E*%
%TO.N,RTS*%
X28194000Y31435000D03*
%TO.P,Q102,3,C*%
%TO.N,BOOT*%
X30069000Y32385000D03*
%TD*%
D23*
%TO.P,C208,1*%
%TO.N,GND*%
X28928000Y27940000D03*
%TO.P,C208,2*%
%TO.N,+3V3*%
X27968000Y27940000D03*
%TD*%
D38*
%TO.P,C213,1*%
%TO.N,GND*%
X24384000Y26035000D03*
%TO.P,C213,2*%
%TO.N,Net-(U201-VDD_SPI)*%
X24384000Y25075000D03*
%TD*%
D33*
%TO.P,C211,1*%
%TO.N,GND*%
X33528000Y17046000D03*
%TO.P,C211,2*%
%TO.N,+3V3*%
X33528000Y18006000D03*
%TD*%
%TO.P,C209,1*%
%TO.N,GND*%
X34544000Y17046000D03*
%TO.P,C209,2*%
%TO.N,+3V3*%
X34544000Y18006000D03*
%TD*%
D10*
%TO.P,R102,1*%
%TO.N,GND*%
X26289000Y10793000D03*
%TO.P,R102,2*%
%TO.N,Net-(K102-K)*%
X26289000Y9143000D03*
%TD*%
D22*
%TO.P,R112,1*%
%TO.N,Net-(U104-~{SUSPEND})*%
X20445000Y15621000D03*
%TO.P,R112,2*%
%TO.N,GND*%
X21465000Y15621000D03*
%TD*%
D33*
%TO.P,C106,1*%
%TO.N,BOOT*%
X31623000Y32413000D03*
%TO.P,C106,2*%
%TO.N,GND*%
X31623000Y33373000D03*
%TD*%
D27*
%TO.P,K103,1,A*%
%TO.N,Net-(K103-A)*%
X12827000Y33274000D03*
%TO.P,K103,2,K*%
%TO.N,Net-(J103-Pin_1)*%
X12827000Y30734000D03*
%TO.P,K103,3,D1*%
%TO.N,PWR_LED*%
X21717000Y30734000D03*
%TO.P,K103,4,D2*%
%TO.N,+3V3*%
X21717000Y33274000D03*
%TD*%
D47*
%TO.N,+3V3*%
X13603000Y14802500D03*
D48*
X28085000Y28638500D03*
D49*
X20320000Y34671000D03*
D47*
X21971000Y19826000D03*
D48*
X31006000Y28638500D03*
X26858750Y18603750D03*
D47*
X21971000Y18669000D03*
X21971000Y21082000D03*
X33447000Y18831500D03*
D48*
X32512000Y8317000D03*
X20510500Y38671500D03*
D50*
X36576000Y29210000D03*
D51*
X35773000Y27241500D03*
D48*
X34925000Y31750000D03*
X22225000Y14605000D03*
%TO.N,GND*%
X33655000Y16129000D03*
X37465000Y11049000D03*
X18415000Y36449000D03*
X29845000Y41783000D03*
X18415000Y38989000D03*
X27305000Y5969000D03*
X17145000Y23495000D03*
X31781000Y23558500D03*
X38735000Y9779000D03*
X36195000Y3429000D03*
X33147000Y12446000D03*
X23876000Y36449000D03*
X34671000Y24892000D03*
X35052000Y14351000D03*
X18415000Y12319000D03*
X889000Y16129000D03*
X35052000Y29083000D03*
X4445000Y28448000D03*
X36527363Y20017363D03*
X33655000Y889000D03*
X34671000Y24003000D03*
X34925000Y889000D03*
X24765000Y41783000D03*
X38735000Y17653000D03*
X29576000Y21133000D03*
X18415000Y35179000D03*
X21590000Y35560000D03*
X30907000Y21133000D03*
X9525000Y16129000D03*
X26035000Y41783000D03*
X25781000Y22733000D03*
X30907000Y22288500D03*
X28067000Y12954000D03*
X19685000Y26289000D03*
X2540000Y19939000D03*
X38735000Y40259000D03*
X38735000Y5969000D03*
X889000Y22479000D03*
X37465000Y13589000D03*
X38735000Y2159000D03*
X33782000Y8128000D03*
X26035000Y889000D03*
X37465000Y9779000D03*
X23749000Y11049000D03*
X18415000Y4572000D03*
X1905000Y13970000D03*
X37465000Y21209000D03*
X18415000Y13589000D03*
X9525000Y28448000D03*
X15748000Y17145000D03*
X37592000Y20066000D03*
X38735000Y13589000D03*
X38735000Y28829000D03*
X38735000Y35179000D03*
X889000Y19939000D03*
X3175000Y13970000D03*
X33147000Y29210000D03*
X18415000Y40259000D03*
X25781000Y24003000D03*
X31781000Y22288500D03*
X25400000Y26924000D03*
X35539509Y18377589D03*
X38735000Y31369000D03*
X18415000Y11049000D03*
X17145000Y13716000D03*
X889000Y25019000D03*
X10287000Y24384000D03*
X27305000Y889000D03*
X34544000Y13589000D03*
X19685000Y21971000D03*
X38735000Y27559000D03*
X22225000Y41783000D03*
X15875000Y13716000D03*
X24511000Y22733000D03*
X28575000Y889000D03*
X27686000Y14605000D03*
X12065000Y28448000D03*
X15748000Y18288000D03*
X12065000Y13970000D03*
X30907000Y23558500D03*
X37465000Y22479000D03*
X38735000Y11049000D03*
X4445000Y18669000D03*
X9525000Y13970000D03*
X25146000Y17780000D03*
X33401000Y31115000D03*
X4445000Y16129000D03*
X36195000Y41783000D03*
X22225000Y28829000D03*
X33655000Y38989000D03*
X27305000Y41783000D03*
X32258000Y12446000D03*
X38735000Y36449000D03*
X10795000Y13970000D03*
X27686000Y13779500D03*
X18415000Y2159000D03*
X24511000Y24003000D03*
X33909000Y12954000D03*
X2540000Y22479000D03*
X889000Y18669000D03*
X34918588Y19036809D03*
X36322000Y13589000D03*
X9017000Y26289000D03*
X23876000Y7620000D03*
X38735000Y33909000D03*
X4445000Y23749000D03*
X38735000Y32639000D03*
X38735000Y12319000D03*
X29464000Y17462500D03*
X36161499Y17730844D03*
X38735000Y21209000D03*
X38735000Y37719000D03*
X9271000Y23368000D03*
X9539000Y21272500D03*
X35052000Y21209000D03*
X37352863Y19191863D03*
X18415000Y28829000D03*
X30018000Y28638500D03*
X38735000Y38989000D03*
X19939000Y16637000D03*
X38735000Y22479000D03*
X28448000Y23558500D03*
X24430000Y26924000D03*
X36322000Y16129000D03*
X36195000Y38989000D03*
X23876000Y38989000D03*
X38735000Y8509000D03*
X38735000Y25019000D03*
X31369000Y12446000D03*
X18796000Y15367000D03*
X18415000Y7239000D03*
X26797000Y7874000D03*
X34671000Y12319000D03*
X10795000Y28448000D03*
X9017000Y18542000D03*
X24003000Y13970000D03*
X29576000Y22288500D03*
X38735000Y7239000D03*
X31115000Y889000D03*
X31115000Y41783000D03*
X36195000Y5969000D03*
X38735000Y889000D03*
X13335000Y26289000D03*
X26924000Y28575000D03*
X33782000Y27940000D03*
X14605000Y13970000D03*
X18415000Y30099000D03*
X29637000Y12445481D03*
X35052000Y15240000D03*
X17145000Y28448000D03*
X13335000Y13970000D03*
X24511000Y20320000D03*
X30480000Y17462500D03*
X37465000Y27559000D03*
X29002000Y28638500D03*
X19685000Y889000D03*
X27305000Y3429000D03*
X18415000Y32639000D03*
X38735000Y18796000D03*
X30480000Y18415000D03*
X13335000Y28448000D03*
X23114000Y17653000D03*
X32004000Y28130500D03*
X36195000Y889000D03*
X18415000Y9779000D03*
X37719000Y16256000D03*
X32385000Y889000D03*
X4445000Y13970000D03*
X22225000Y889000D03*
X18415000Y3429000D03*
X29576000Y24713000D03*
X37592000Y28829000D03*
X6985000Y13970000D03*
X38735000Y3429000D03*
X36195000Y36449000D03*
X38735000Y41529000D03*
X4445000Y21209000D03*
X889000Y14859000D03*
X33655000Y26416000D03*
X23876000Y5969000D03*
X31115000Y11049000D03*
X31115000Y36449000D03*
X38735000Y4699000D03*
X37465000Y31369000D03*
X25781000Y21463000D03*
X5715000Y28448000D03*
X36195000Y8509000D03*
X34290000Y19685000D03*
X28575000Y41783000D03*
X37465000Y26289000D03*
X34925000Y41783000D03*
X18415000Y33909000D03*
X18415000Y889000D03*
X38354000Y14859000D03*
X32385000Y41783000D03*
X29845000Y889000D03*
X19685000Y23495000D03*
X38735000Y19939000D03*
X14605000Y28448000D03*
X1905000Y28448000D03*
X28829000Y12700000D03*
X30226000Y31115000D03*
X36322000Y14859000D03*
X29576000Y23558500D03*
X36449000Y21209000D03*
X23495000Y889000D03*
X36322000Y11049000D03*
X36322000Y12319000D03*
X889000Y17399000D03*
X37465000Y12319000D03*
X889000Y26289000D03*
X26035000Y36449000D03*
X4445000Y26289000D03*
X33655000Y41783000D03*
X34671000Y16129000D03*
X28067000Y15494000D03*
X889000Y21209000D03*
X16891000Y17145000D03*
X28448000Y22288500D03*
X12319000Y24130000D03*
X24511000Y12700000D03*
X24765000Y889000D03*
X38608000Y16002000D03*
X35560000Y17018000D03*
X24130000Y30861000D03*
X34671000Y23050500D03*
X25908000Y19177000D03*
X18415000Y8509000D03*
X37465000Y25019000D03*
X10287000Y17526000D03*
X38735000Y26289000D03*
X23495000Y41783000D03*
X30861000Y24713000D03*
X20955000Y41783000D03*
X28575000Y38989000D03*
X37465000Y32639000D03*
X33655000Y11049000D03*
X24511000Y21463000D03*
X16891000Y18288000D03*
X18415000Y31369000D03*
X29464000Y3429000D03*
X32385000Y3937000D03*
X29464000Y16637000D03*
X29591000Y33655000D03*
X37465000Y14859000D03*
X28829000Y16002000D03*
X38735000Y30099000D03*
X23876000Y3429000D03*
X38735000Y23749000D03*
X37465000Y41783000D03*
X18415000Y41783000D03*
X17145000Y26289000D03*
X18415000Y5969000D03*
X6985000Y28448000D03*
X20828000Y19431000D03*
X36947015Y16997576D03*
X15875000Y28448000D03*
X37465000Y23749000D03*
X30480000Y16637000D03*
X37465000Y30099000D03*
X3175000Y28448000D03*
X37465000Y889000D03*
X19685000Y27813000D03*
X32639000Y34036000D03*
X889000Y27559000D03*
X20955000Y889000D03*
X8255000Y28448000D03*
X33655000Y36449000D03*
X30480000Y12446000D03*
X5715000Y13970000D03*
X29464000Y5969000D03*
X28575000Y36449000D03*
X19685000Y41783000D03*
X889000Y23749000D03*
X18415000Y37719000D03*
X33655000Y34036000D03*
X8255000Y13970000D03*
%TO.N,VBUS*%
X12954000Y15494000D03*
X14097000Y22288500D03*
%TO.N,EN*%
X34544000Y10097000D03*
X32812000Y20256500D03*
%TO.N,BOOT*%
X32860132Y21971000D03*
X31623000Y31750000D03*
%TO.N,DTR*%
X26035000Y31496000D03*
X14605000Y21082000D03*
X28829000Y8128000D03*
%TO.N,RTS*%
X26924000Y31435000D03*
X28194000Y8636000D03*
X17717460Y21906540D03*
%TO.N,RX*%
X25400000Y16891000D03*
X16764000Y21844000D03*
%TO.N,TX*%
X15811500Y21272500D03*
X25527000Y16002000D03*
%TO.N,STATUS*%
X36576000Y31750000D03*
X32766000Y22860000D03*
%TO.N,Net-(U201-MTCK{slash}IO39)*%
X27224000Y19494500D03*
%TO.N,Net-(U201-MTD0{slash}IO40)*%
X27813000Y20320000D03*
%TO.N,Net-(U201-MTDI{slash}IO41)*%
X28702000Y20320000D03*
%TO.N,Net-(U201-MTMS{slash}IO42)*%
X29591000Y20320000D03*
%TD*%
D52*
%TO.N,Net-(J101-Pin_1)*%
X12827000Y2667000D02*
X7814000Y2667000D01*
%TO.N,PWR_SW*%
X19812000Y3810000D02*
X20955000Y2667000D01*
X23803000Y18677448D02*
X23803000Y15421000D01*
X19485000Y12881000D02*
X19485000Y10278552D01*
X19485000Y10278552D02*
X19812000Y9951552D01*
X25845552Y20720000D02*
X23803000Y18677448D01*
X21663000Y13281000D02*
X19885000Y13281000D01*
X26776000Y20720000D02*
X25845552Y20720000D01*
X19812000Y9951552D02*
X19812000Y3810000D01*
X20955000Y2667000D02*
X21717000Y2667000D01*
X19885000Y13281000D02*
X19485000Y12881000D01*
X23803000Y15421000D02*
X21663000Y13281000D01*
%TO.N,Net-(K101-K)*%
X23866000Y8244000D02*
X24765000Y9143000D01*
X21717000Y7620000D02*
X22341000Y8244000D01*
X21717000Y5207000D02*
X21717000Y7620000D01*
X22341000Y8244000D02*
X23866000Y8244000D01*
%TO.N,RST_SW*%
X25908000Y20320000D02*
X24130000Y18542000D01*
X19812000Y12745552D02*
X19812000Y10414000D01*
X21798448Y12954000D02*
X20020448Y12954000D01*
X20955000Y9271000D02*
X21717000Y9271000D01*
X19812000Y10414000D02*
X20955000Y9271000D01*
X26776000Y20320000D02*
X25908000Y20320000D01*
X20020448Y12954000D02*
X19812000Y12745552D01*
X24130000Y15285552D02*
X21798448Y12954000D01*
X24130000Y18542000D02*
X24130000Y15285552D01*
%TO.N,Net-(K102-K)*%
X23484000Y10298000D02*
X24003000Y9779000D01*
X25653000Y9779000D02*
X26289000Y9143000D01*
X22352000Y10795000D02*
X22849000Y10298000D01*
X21731000Y11797000D02*
X22352000Y11176000D01*
X22352000Y11176000D02*
X22352000Y10795000D01*
X24003000Y9779000D02*
X25653000Y9779000D01*
X22849000Y10298000D02*
X23484000Y10298000D01*
%TO.N,Net-(K103-A)*%
X10287000Y34099000D02*
X11112000Y33274000D01*
X11112000Y33274000D02*
X12827000Y33274000D01*
%TO.N,PWR_LED*%
X28190737Y25743000D02*
X28426000Y25978263D01*
X22479000Y30734000D02*
X21717000Y30734000D01*
X24511000Y32258500D02*
X24510500Y32258000D01*
X25200000Y31569500D02*
X25200000Y28333552D01*
X24510500Y32258000D02*
X24003000Y32258000D01*
X24003000Y32258000D02*
X22479000Y30734000D01*
X25200000Y28333552D02*
X27299000Y26234552D01*
X24511000Y32258500D02*
X25200000Y31569500D01*
X28426000Y25978263D02*
X28426000Y26370000D01*
X27461263Y25743000D02*
X28190737Y25743000D01*
X27299000Y25905263D02*
X27461263Y25743000D01*
X27299000Y26234552D02*
X27299000Y25905263D01*
D53*
%TO.N,+3V3*%
X12993500Y16216500D02*
X12660250Y16549750D01*
D54*
X22238000Y24155500D02*
X21565000Y24828500D01*
D53*
X12164000Y15494000D02*
X12164000Y15331500D01*
X22225000Y14605000D02*
X22161500Y14668500D01*
D54*
X33563500Y17970500D02*
X33574000Y17970500D01*
D55*
X32512000Y18006000D02*
X32512000Y18542000D01*
X31021454Y20320000D02*
X31833546Y20320000D01*
X31833546Y20320000D02*
X32026000Y20127546D01*
D53*
X34925000Y31750000D02*
X34925000Y32639000D01*
D55*
X27150000Y17780000D02*
X27163092Y17780000D01*
D56*
X15265000Y24828500D02*
X21565000Y24828500D01*
D55*
X27163092Y17780000D02*
X28426000Y19042908D01*
X28085000Y28638500D02*
X28085000Y28057000D01*
D53*
X21272500Y39878000D02*
X21717000Y39878000D01*
X22161500Y14668500D02*
X21465000Y14668500D01*
D57*
X36421000Y27241500D02*
X36548000Y27368500D01*
D58*
X36548000Y23373000D02*
X36548000Y26352500D01*
D56*
X36576000Y29210000D02*
X36576000Y28158500D01*
D53*
X20510500Y38671500D02*
X20510500Y39116000D01*
D55*
X32026000Y19028000D02*
X32026000Y19470000D01*
X28085000Y28057000D02*
X27968000Y27940000D01*
X33574000Y20218000D02*
X33574000Y19385000D01*
D56*
X21971000Y23888500D02*
X22238000Y24155500D01*
D53*
X20320000Y34036000D02*
X21082000Y33274000D01*
D55*
X31006000Y27986000D02*
X31006000Y28638500D01*
X27150000Y18312500D02*
X27150000Y17780000D01*
X34544000Y18415000D02*
X34544000Y18006000D01*
X34544000Y18006000D02*
X34508500Y17970500D01*
X32893000Y8698000D02*
X32512000Y8317000D01*
D53*
X12693000Y14802500D02*
X13603000Y14802500D01*
D55*
X27968000Y27940000D02*
X28026000Y27882000D01*
D54*
X33447000Y18087000D02*
X33563500Y17970500D01*
D53*
X12164000Y15331500D02*
X12693000Y14802500D01*
X12164000Y16510000D02*
X12164000Y15494000D01*
D55*
X32547500Y17970500D02*
X32512000Y18006000D01*
X30826000Y20124546D02*
X31021454Y20320000D01*
D53*
X20320000Y34671000D02*
X20320000Y34036000D01*
D55*
X32893000Y9077000D02*
X32893000Y8698000D01*
X33574000Y17970500D02*
X32547500Y17970500D01*
D57*
X36548000Y27368500D02*
X36548000Y28130500D01*
X35773000Y27241500D02*
X36421000Y27241500D01*
D53*
X13843000Y16216500D02*
X12993500Y16216500D01*
D56*
X36548000Y26352500D02*
X36548000Y28130500D01*
D55*
X33574000Y19385000D02*
X34544000Y18415000D01*
D54*
X33447000Y18831500D02*
X33447000Y18087000D01*
D55*
X26858750Y18603750D02*
X27150000Y18312500D01*
D56*
X21971000Y18669000D02*
X21971000Y23888500D01*
D55*
X32026000Y20127546D02*
X32026000Y19470000D01*
X30826000Y27806000D02*
X31006000Y27986000D01*
X30826000Y26370000D02*
X30826000Y27806000D01*
D56*
X36576000Y28158500D02*
X36548000Y28130500D01*
D53*
X12620500Y16510000D02*
X12164000Y16510000D01*
D55*
X32512000Y18542000D02*
X32026000Y19028000D01*
X30826000Y19470000D02*
X30826000Y20124546D01*
D53*
X13843000Y16716500D02*
X12827000Y16716500D01*
X21082000Y33274000D02*
X21717000Y33274000D01*
D55*
X34508500Y17970500D02*
X33574000Y17970500D01*
D53*
X12827000Y16716500D02*
X12620500Y16510000D01*
D55*
X28426000Y19042908D02*
X28426000Y19470000D01*
X28026000Y27882000D02*
X28026000Y26370000D01*
D58*
X36576000Y23345000D02*
X36548000Y23373000D01*
D53*
X20510500Y39116000D02*
X21272500Y39878000D01*
D52*
%TO.N,Net-(K104-A)*%
X10287000Y40703000D02*
X11112000Y39878000D01*
X11112000Y39878000D02*
X12827000Y39878000D01*
%TO.N,HDD_LED*%
X22733000Y37211000D02*
X22606000Y37338000D01*
X22606000Y37338000D02*
X21703000Y37338000D01*
X23495000Y34925000D02*
X22733000Y35687000D01*
X23495000Y33401000D02*
X23495000Y34925000D01*
X25527000Y28469000D02*
X27626000Y26370000D01*
X25527000Y32256000D02*
X25017000Y32766000D01*
X25527000Y32256000D02*
X25527000Y28469000D01*
X25017000Y32766000D02*
X24130000Y32766000D01*
X22733000Y35687000D02*
X22733000Y37211000D01*
X24130000Y32766000D02*
X23495000Y33401000D01*
D55*
%TO.N,GND*%
X7566000Y18161500D02*
X7530000Y18197500D01*
X10378000Y21272500D02*
X9539000Y21272500D01*
X13843000Y18216500D02*
X15843000Y18216500D01*
D52*
%TO.N,VBUS*%
X14275000Y15266500D02*
X14843000Y15266500D01*
D54*
X13349000Y22034500D02*
X13349000Y21731000D01*
D59*
X10287000Y25781000D02*
X12319000Y25781000D01*
D54*
X7422000Y23672500D02*
X6842962Y23672500D01*
X6089000Y22918538D02*
X6089000Y19642500D01*
D59*
X7422000Y23672500D02*
X8178500Y23672500D01*
X13603000Y22288500D02*
X15025000Y22288500D01*
D54*
X15025000Y22288500D02*
X15265000Y22528500D01*
X6089000Y19642500D02*
X6745000Y18986500D01*
X6745000Y18986500D02*
X7519000Y18986500D01*
D52*
X14047500Y15494000D02*
X14275000Y15266500D01*
D59*
X13349000Y22034500D02*
X13603000Y22288500D01*
D52*
X14097000Y22288500D02*
X13843000Y22034500D01*
D59*
X12319000Y25781000D02*
X13335000Y24765000D01*
D54*
X6842962Y23672500D02*
X6089000Y22918538D01*
X12890500Y21272500D02*
X12228000Y21272500D01*
D52*
X13843000Y22034500D02*
X13349000Y22034500D01*
D54*
X13349000Y22034500D02*
X13271500Y22034500D01*
D59*
X8178500Y23672500D02*
X10287000Y25781000D01*
D52*
X12954000Y15494000D02*
X14047500Y15494000D01*
D59*
X13335000Y24765000D02*
X13335000Y22098000D01*
D54*
X13349000Y21731000D02*
X12890500Y21272500D01*
D52*
%TO.N,EN*%
X32826000Y20242500D02*
X32826000Y19470000D01*
X31105000Y6858000D02*
X31105000Y10075000D01*
X31105000Y10075000D02*
X31085000Y10095000D01*
X31085000Y10095000D02*
X33881000Y10095000D01*
X34544000Y10097000D02*
X33782000Y10097000D01*
X32812000Y20256500D02*
X32826000Y20242500D01*
X25276000Y6858000D02*
X31105000Y6858000D01*
%TO.N,BOOT*%
X31421000Y35615000D02*
X30988000Y35182000D01*
X31366000Y35560000D02*
X25276000Y35560000D01*
X31750000Y32413000D02*
X31750000Y32357000D01*
X32860132Y21971000D02*
X32911132Y21920000D01*
X31722000Y32385000D02*
X31750000Y32413000D01*
X31421000Y35511000D02*
X31115000Y35205000D01*
X31115000Y35205000D02*
X31115000Y34036000D01*
X31115000Y34036000D02*
X30069000Y32990000D01*
X31623000Y31750000D02*
X31623000Y32413000D01*
X31421000Y35615000D02*
X31366000Y35560000D01*
X30069000Y32385000D02*
X31722000Y32385000D01*
X32911132Y21920000D02*
X33676000Y21920000D01*
X30069000Y32990000D02*
X30069000Y32385000D01*
%TO.N,Net-(Q101-B)*%
X27559000Y10603000D02*
X28001000Y11045000D01*
X27559000Y10097000D02*
X27559000Y10603000D01*
X28001000Y11045000D02*
X29210000Y11045000D01*
%TO.N,DTR*%
X14843000Y20844000D02*
X14843000Y20216500D01*
X29210000Y8636000D02*
X29210000Y9145000D01*
X14605000Y21082000D02*
X14843000Y20844000D01*
X28829000Y8128000D02*
X28829000Y8255000D01*
X26035000Y31496000D02*
X26543000Y32004000D01*
X26543000Y32004000D02*
X26543000Y32385000D01*
X28829000Y8255000D02*
X29210000Y8636000D01*
%TO.N,Net-(Q102-B)*%
X26602000Y33335000D02*
X26543000Y33276000D01*
X28194000Y33335000D02*
X26602000Y33335000D01*
%TO.N,RTS*%
X17717460Y21906540D02*
X16843000Y21032080D01*
X27626000Y9077000D02*
X27559000Y9077000D01*
X28194000Y8636000D02*
X28067000Y8636000D01*
X28067000Y8636000D02*
X27626000Y9077000D01*
X26924000Y31435000D02*
X28194000Y31435000D01*
X16843000Y21032080D02*
X16843000Y20216500D01*
D55*
%TO.N,/USB_IN_CC1*%
X7566000Y22522500D02*
X9791500Y22522500D01*
X11209000Y23018000D02*
X11303000Y23112000D01*
X10287000Y23018000D02*
X11209000Y23018000D01*
X9791500Y22522500D02*
X10287000Y23018000D01*
%TO.N,/USB_IN_CC2*%
X7566000Y19522500D02*
X11213500Y19522500D01*
X11213500Y19522500D02*
X11303000Y19433000D01*
D52*
%TO.N,Net-(U104-~{SUSPEND})*%
X19440500Y14614500D02*
X16650230Y14614500D01*
X20445000Y15619000D02*
X19440500Y14614500D01*
X20445000Y15621000D02*
X20445000Y15619000D01*
X16343000Y14921730D02*
X16343000Y15216500D01*
X16650230Y14614500D02*
X16343000Y14921730D01*
%TO.N,Net-(U104-~{RST})*%
X15343000Y14921730D02*
X15343000Y15216500D01*
X20064000Y14287500D02*
X15977230Y14287500D01*
X15977230Y14287500D02*
X15343000Y14921730D01*
X20445000Y14668500D02*
X20064000Y14287500D01*
%TO.N,Net-(D103-K)*%
X34202000Y33440000D02*
X34925000Y34163000D01*
X34202000Y32932000D02*
X34202000Y33440000D01*
X33655000Y32385000D02*
X34202000Y32932000D01*
X34925000Y34163000D02*
X34925000Y34214000D01*
X33655000Y32383000D02*
X33655000Y32385000D01*
%TO.N,RX*%
X25527000Y16764000D02*
X26160000Y16764000D01*
X16764000Y21502764D02*
X16343000Y21081764D01*
X16343000Y21081764D02*
X16343000Y20216500D01*
X25400000Y16891000D02*
X25527000Y16764000D01*
X16764000Y21844000D02*
X16764000Y21502764D01*
%TO.N,TX*%
X27986000Y16238500D02*
X27749500Y16002000D01*
X30026000Y19015815D02*
X27986000Y16975815D01*
D55*
X15811500Y21272500D02*
X15843000Y21241000D01*
D52*
X30026000Y19470000D02*
X30026000Y19015815D01*
X27749500Y16002000D02*
X25527000Y16002000D01*
X27986000Y16975815D02*
X27986000Y16238500D01*
X15843000Y21241000D02*
X15843000Y20216500D01*
D55*
%TO.N,/USB_IN_DN*%
X7530000Y21022500D02*
X6648000Y21022500D01*
X6491000Y21179500D02*
X6491000Y21865500D01*
X6648000Y22022500D02*
X8269000Y22022500D01*
X8269000Y22022500D02*
X8481500Y21810000D01*
X6491000Y21865500D02*
X6648000Y22022500D01*
X6648000Y21022500D02*
X6491000Y21179500D01*
X8481500Y21810000D02*
X10453000Y21810000D01*
%TO.N,/USB_IN_DP*%
X8209000Y21522500D02*
X8332000Y21399500D01*
X8209000Y20522500D02*
X7530000Y20522500D01*
X8332000Y20645500D02*
X8209000Y20522500D01*
X8332000Y21399500D02*
X8332000Y20645500D01*
X7530000Y21522500D02*
X8209000Y21522500D01*
X8332000Y20645500D02*
X8421500Y20735000D01*
X8421500Y20735000D02*
X10453000Y20735000D01*
%TO.N,USB_DP*%
X13095000Y17970500D02*
X13349000Y17716500D01*
X13349000Y17716500D02*
X13843000Y17716500D01*
X13095000Y19793000D02*
X13095000Y17970500D01*
X12153000Y20735000D02*
X13095000Y19793000D01*
%TO.N,USB_DN*%
X11854500Y21810000D02*
X11651000Y21606500D01*
X11651000Y20430500D02*
X12718000Y19363500D01*
X13315842Y17216500D02*
X13843000Y17216500D01*
X12718000Y19363500D02*
X12718000Y17814342D01*
X12153000Y21810000D02*
X11854500Y21810000D01*
X11651000Y21606500D02*
X11651000Y20430500D01*
X12718000Y17814342D02*
X13315842Y17216500D01*
D52*
%TO.N,Net-(J101-Pin_1)*%
X7809000Y2662000D02*
X5269000Y2662000D01*
D55*
X7814000Y2667000D02*
X7809000Y2662000D01*
%TO.N,Net-(J101-Pin_3)*%
X14078000Y5202000D02*
X14083000Y5207000D01*
D52*
X5269000Y5202000D02*
X7809000Y5202000D01*
X7814000Y5207000D02*
X12827000Y5207000D01*
X7809000Y5202000D02*
X7814000Y5207000D01*
%TO.N,Net-(J102-Pin_1)*%
X7809000Y9266000D02*
X5269000Y9266000D01*
X12827000Y9271000D02*
X7814000Y9271000D01*
D55*
X7814000Y9271000D02*
X7809000Y9266000D01*
D52*
%TO.N,Net-(J102-Pin_3)*%
X7814000Y11811000D02*
X12827000Y11811000D01*
X7809000Y11806000D02*
X7814000Y11811000D01*
D55*
X14078000Y11806000D02*
X14083000Y11811000D01*
D52*
X5269000Y11806000D02*
X7809000Y11806000D01*
%TO.N,Net-(J103-Pin_1)*%
X7747000Y30734000D02*
X12827000Y30734000D01*
X5207000Y30734000D02*
X7747000Y30734000D01*
%TO.N,Net-(J103-Pin_3)*%
X9462000Y33274000D02*
X7747000Y33274000D01*
X10287000Y32449000D02*
X9462000Y33274000D01*
X7747000Y33274000D02*
X5207000Y33274000D01*
%TO.N,Net-(J104-Pin_1)*%
X7747000Y37338000D02*
X12827000Y37338000D01*
X5207000Y37338000D02*
X7747000Y37338000D01*
%TO.N,Net-(J104-Pin_3)*%
X7747000Y39878000D02*
X5207000Y39878000D01*
X9462000Y39878000D02*
X7747000Y39878000D01*
X10287000Y39053000D02*
X9462000Y39878000D01*
%TO.N,Net-(D104-K)*%
X35263704Y31115000D02*
X35874000Y31725296D01*
X33782000Y31877000D02*
X34544000Y31115000D01*
X35874000Y33512000D02*
X36576000Y34214000D01*
X35874000Y31725296D02*
X35874000Y33512000D01*
X34544000Y31115000D02*
X35263704Y31115000D01*
X33145000Y31877000D02*
X33782000Y31877000D01*
X32639000Y32383000D02*
X33145000Y31877000D01*
%TO.N,STATUS*%
X36576000Y31750000D02*
X36576000Y32639000D01*
X33284263Y22320000D02*
X33676000Y22320000D01*
X32766000Y22860000D02*
X32766000Y22838263D01*
X32766000Y22838263D02*
X33284263Y22320000D01*
D60*
%TO.N,Net-(AE201-FEED)*%
X36613947Y18551231D02*
X37261589Y17903589D01*
X36613947Y18595053D02*
X36613947Y18551231D01*
X39352222Y16803778D02*
X39370000Y16786000D01*
D52*
X36537947Y18519053D02*
X36613947Y18595053D01*
D60*
X39243000Y16808000D02*
X38771392Y16808000D01*
X36613947Y18595053D02*
X36613947Y18520231D01*
X38064285Y17100893D02*
X37261589Y17903589D01*
D52*
X36537947Y18513053D02*
X36537947Y18519053D01*
D60*
X38064289Y17100897D02*
G75*
G03*
X38771392Y16808000I707111J707103D01*
G01*
D58*
%TO.N,Net-(C201-Pad2)*%
X34290000Y21520000D02*
X35145000Y22375000D01*
D55*
X34449447Y21520000D02*
X33676000Y21520000D01*
X33676000Y21120000D02*
X34049447Y21120000D01*
X34049447Y21120000D02*
X34449447Y21520000D01*
D58*
X35145000Y22375000D02*
X36576000Y22375000D01*
D55*
%TO.N,Net-(U201-VDD_SPI)*%
X24429000Y25120000D02*
X24384000Y25075000D01*
X26776000Y25120000D02*
X24429000Y25120000D01*
D52*
%TO.N,/ESP32/XTAL_P*%
X31596000Y16250685D02*
X32472000Y15374685D01*
X31626000Y19470000D02*
X31596000Y19440000D01*
X31596000Y19440000D02*
X31596000Y16250685D01*
X34322000Y15374685D02*
X32472000Y15374685D01*
%TO.N,/ESP32/XTAL_N*%
X31234000Y19462000D02*
X31234000Y14636685D01*
X31234000Y14636685D02*
X30272000Y13674685D01*
X31226000Y19470000D02*
X31234000Y19462000D01*
X28494000Y13674685D02*
X30272000Y13674685D01*
D60*
%TO.N,/ESP32/LNA_IN*%
X34750893Y20427107D02*
X35220589Y19957411D01*
X35264411Y19913589D02*
X35852053Y19325947D01*
X35220589Y19913589D02*
X35264411Y19913589D01*
X35220589Y19957411D02*
X35220589Y19913589D01*
X34750900Y20427114D02*
G75*
G03*
X34043786Y20720000I-707100J-707114D01*
G01*
D52*
%TO.N,Net-(U201-TXD0)*%
X29626000Y19470000D02*
X29626000Y19078263D01*
X29626000Y19078263D02*
X27311737Y16764000D01*
X27311737Y16764000D02*
X27180000Y16764000D01*
%TO.N,Net-(U201-MTCK{slash}IO39)*%
X27248500Y19470000D02*
X27224000Y19494500D01*
X27626000Y19470000D02*
X27248500Y19470000D01*
%TO.N,Net-(U201-MTD0{slash}IO40)*%
X28026000Y20107000D02*
X28026000Y19470000D01*
X27813000Y20320000D02*
X28026000Y20107000D01*
%TO.N,Net-(U201-MTDI{slash}IO41)*%
X28702000Y20320000D02*
X28826000Y20196000D01*
X28826000Y20196000D02*
X28826000Y19470000D01*
%TO.N,Net-(U201-MTMS{slash}IO42)*%
X29226000Y19955000D02*
X29226000Y19470000D01*
X29591000Y20320000D02*
X29226000Y19955000D01*
%TD*%
%TA.AperFunction,Conductor*%
%TO.N,VBUS*%
G36*
X16072039Y23030815D02*
G01*
X16117794Y22978011D01*
X16129000Y22926500D01*
X16129000Y22232768D01*
X16109996Y22166800D01*
X16106210Y22160775D01*
X16106209Y22160774D01*
X16074440Y22069982D01*
X16033718Y22013206D01*
X15968766Y21987459D01*
X15943516Y21987717D01*
X15811504Y22002591D01*
X15811496Y22002591D01*
X15649044Y21984288D01*
X15494725Y21930290D01*
X15387645Y21863006D01*
X15321673Y21844000D01*
X14097000Y21844000D01*
X13617610Y21577673D01*
X13138220Y21311345D01*
X13070057Y21295996D01*
X13004416Y21319934D01*
X12962138Y21375561D01*
X12954000Y21419741D01*
X12954000Y22453834D01*
X12973685Y22520873D01*
X12990317Y22541514D01*
X12997117Y22548313D01*
X13079494Y22687605D01*
X13124643Y22843007D01*
X13127500Y22879310D01*
X13127500Y22926500D01*
X13147185Y22993539D01*
X13199989Y23039294D01*
X13251500Y23050500D01*
X16005000Y23050500D01*
X16072039Y23030815D01*
G37*
%TD.AperFunction*%
%TD*%
%TA.AperFunction,Conductor*%
%TO.N,+3V3*%
G36*
X22418500Y25316538D02*
G01*
X22473038Y25262000D01*
X22493000Y25187500D01*
X22493000Y18373500D01*
X22473038Y18299000D01*
X22418500Y18244462D01*
X22344000Y18224500D01*
X21753000Y18224500D01*
X21678500Y18244462D01*
X21623962Y18299000D01*
X21604000Y18373500D01*
X21604000Y19776479D01*
X21623962Y19850979D01*
X21641487Y19873818D01*
X21641372Y19873907D01*
X21647110Y19881307D01*
X21647117Y19881313D01*
X21729494Y20020605D01*
X21774643Y20176007D01*
X21777500Y20212310D01*
X21777500Y20681690D01*
X21774643Y20717993D01*
X21774641Y20717998D01*
X21774641Y20718002D01*
X21729496Y20873389D01*
X21729495Y20873391D01*
X21729494Y20873395D01*
X21647117Y21012687D01*
X21647113Y21012691D01*
X21641372Y21020093D01*
X21642539Y21020999D01*
X21609077Y21078958D01*
X21604000Y21117522D01*
X21604000Y24320500D01*
X16024000Y24320500D01*
X15949500Y24340462D01*
X15894962Y24395000D01*
X15875000Y24469500D01*
X15875000Y25187500D01*
X15894962Y25262000D01*
X15949500Y25316538D01*
X16024000Y25336500D01*
X22344000Y25336500D01*
X22418500Y25316538D01*
G37*
%TD.AperFunction*%
%TD*%
%TA.AperFunction,Conductor*%
%TO.N,GND*%
G36*
X39313039Y42281159D02*
G01*
X39358794Y42228355D01*
X39370000Y42176844D01*
X39370000Y17582500D01*
X39350315Y17515461D01*
X39297511Y17469706D01*
X39246000Y17458500D01*
X38961482Y17458500D01*
X38867695Y17443646D01*
X38784934Y17401477D01*
X38716480Y17388560D01*
X38700659Y17390119D01*
X38676823Y17394861D01*
X38620506Y17411945D01*
X38598048Y17421247D01*
X38546132Y17448997D01*
X38525921Y17462502D01*
X38473290Y17505695D01*
X38468789Y17509774D01*
X38326229Y17652333D01*
X38292745Y17713656D01*
X38297729Y17783348D01*
X38331283Y17828170D01*
X38332506Y17836763D01*
X37586858Y18582411D01*
X38293964Y18582411D01*
X38686058Y18190316D01*
X38759400Y18323724D01*
X38799613Y18480342D01*
X38799614Y18480347D01*
X38799614Y18642046D01*
X38799613Y18642053D01*
X38759402Y18798664D01*
X38759399Y18798674D01*
X38681502Y18940367D01*
X38681500Y18940371D01*
X38667874Y18956325D01*
X38293964Y18582412D01*
X38293964Y18582411D01*
X37586858Y18582411D01*
X37363079Y18806190D01*
X37337026Y18844470D01*
X37312847Y18900136D01*
X37312843Y18900142D01*
X37258048Y18969894D01*
X36988792Y19239149D01*
X36988787Y19239153D01*
X36988784Y19239156D01*
X36919033Y19293951D01*
X36919031Y19293952D01*
X36919029Y19293953D01*
X36854899Y19321809D01*
X36840508Y19328060D01*
X37548315Y19328060D01*
X37940411Y18935964D01*
X37940412Y18935964D01*
X38314322Y19309877D01*
X38298373Y19323499D01*
X38156673Y19401400D01*
X38156663Y19401403D01*
X38000052Y19441614D01*
X37838341Y19441614D01*
X37681724Y19401401D01*
X37548315Y19328061D01*
X37548315Y19328060D01*
X36840508Y19328060D01*
X36780864Y19353967D01*
X36780862Y19353968D01*
X36780861Y19353968D01*
X36774652Y19355708D01*
X36715410Y19392750D01*
X36688706Y19441656D01*
X36686967Y19447857D01*
X36686967Y19447864D01*
X36626951Y19586033D01*
X36606137Y19612528D01*
X36572154Y19655788D01*
X36302898Y19925043D01*
X36302893Y19925047D01*
X36302890Y19925050D01*
X36233139Y19979845D01*
X36233137Y19979846D01*
X36233134Y19979848D01*
X36195147Y19996348D01*
X36156869Y20022400D01*
X35644539Y20534730D01*
X35611054Y20596053D01*
X35612939Y20622411D01*
X36263964Y20622411D01*
X36656058Y20230316D01*
X36729400Y20363724D01*
X36769613Y20520342D01*
X36769614Y20520347D01*
X36769614Y20682046D01*
X36769613Y20682053D01*
X36729402Y20838664D01*
X36729399Y20838674D01*
X36651502Y20980367D01*
X36651500Y20980371D01*
X36637874Y20996325D01*
X36263964Y20622412D01*
X36263964Y20622411D01*
X35612939Y20622411D01*
X35616038Y20665745D01*
X35644539Y20710092D01*
X35910411Y20975964D01*
X36284322Y21349877D01*
X36268373Y21363499D01*
X36126673Y21441400D01*
X36126663Y21441403D01*
X35970052Y21481614D01*
X35808341Y21481614D01*
X35651721Y21441400D01*
X35510031Y21363506D01*
X35510024Y21363501D01*
X35482350Y21339864D01*
X35482351Y21339864D01*
X35192950Y21050460D01*
X35192950Y21050461D01*
X35169319Y21022795D01*
X35168902Y21022036D01*
X35168559Y21021696D01*
X35165717Y21017583D01*
X35164953Y21018111D01*
X35119350Y20972777D01*
X35051033Y20958128D01*
X34985642Y20982739D01*
X34984760Y20983409D01*
X34920778Y21032504D01*
X34920762Y21032514D01*
X34849817Y21073474D01*
X34801601Y21124041D01*
X34788378Y21192648D01*
X34814346Y21257513D01*
X34824128Y21268534D01*
X35318775Y21763181D01*
X35380099Y21796666D01*
X35406457Y21799500D01*
X35783070Y21799500D01*
X35796289Y21800740D01*
X35812819Y21802290D01*
X35842115Y21812542D01*
X35883070Y21819500D01*
X36192002Y21819500D01*
X36232956Y21812542D01*
X36319271Y21782338D01*
X36349537Y21779500D01*
X36802462Y21779501D01*
X36832729Y21782338D01*
X36960201Y21826943D01*
X37068862Y21907138D01*
X37149057Y22015799D01*
X37193662Y22143271D01*
X37196500Y22173537D01*
X37196499Y22576462D01*
X37193662Y22606729D01*
X37149057Y22734201D01*
X37110555Y22786369D01*
X37086586Y22851997D01*
X37101902Y22920167D01*
X37110550Y22933624D01*
X37149057Y22985799D01*
X37193662Y23113271D01*
X37196500Y23143537D01*
X37196499Y23546462D01*
X37193662Y23576729D01*
X37149057Y23704201D01*
X37149056Y23704203D01*
X37127730Y23733099D01*
X37103759Y23798728D01*
X37103500Y23806732D01*
X37103500Y23919641D01*
X37110459Y23960597D01*
X37116084Y23976672D01*
X37125710Y24004181D01*
X37128500Y24033934D01*
X37128500Y24480066D01*
X37128450Y24480595D01*
X37125710Y24509818D01*
X37122418Y24519225D01*
X37110457Y24553408D01*
X37103500Y24594361D01*
X37103500Y24935641D01*
X37110459Y24976597D01*
X37111967Y24980907D01*
X37125710Y25020181D01*
X37128500Y25049934D01*
X37128500Y25496066D01*
X37128166Y25499626D01*
X37125710Y25525818D01*
X37119378Y25543913D01*
X37110457Y25569408D01*
X37103500Y25610361D01*
X37103500Y25951641D01*
X37110459Y25992597D01*
X37110596Y25992989D01*
X37125710Y26036181D01*
X37128500Y26065934D01*
X37128500Y26112712D01*
X37132396Y26143549D01*
X37165151Y26271121D01*
X37166000Y26274428D01*
X37166000Y27496792D01*
X37185685Y27563830D01*
X37191190Y27571709D01*
X37276364Y27684025D01*
X37329359Y27818410D01*
X37339500Y27902856D01*
X37339500Y28485144D01*
X37329359Y28569590D01*
X37276364Y28703975D01*
X37276363Y28703976D01*
X37276363Y28703977D01*
X37222462Y28775055D01*
X37197638Y28840366D01*
X37205322Y28893947D01*
X37261140Y29041128D01*
X37281645Y29210000D01*
X37261140Y29378872D01*
X37200818Y29537930D01*
X37104183Y29677929D01*
X36976852Y29790734D01*
X36976849Y29790737D01*
X36826226Y29869790D01*
X36661056Y29910500D01*
X36490944Y29910500D01*
X36325773Y29869790D01*
X36175150Y29790737D01*
X36047816Y29677928D01*
X35951182Y29537932D01*
X35890860Y29378875D01*
X35890859Y29378870D01*
X35870355Y29210000D01*
X35877130Y29154202D01*
X35865669Y29085279D01*
X35818766Y29033493D01*
X35751310Y29015286D01*
X35688937Y29033718D01*
X35572492Y29105543D01*
X35572481Y29105548D01*
X35411606Y29158856D01*
X35312322Y29169000D01*
X35289000Y29169000D01*
X35289000Y27639262D01*
X35269315Y27572223D01*
X35263377Y27563777D01*
X35248464Y27544342D01*
X35187956Y27398263D01*
X35187955Y27398261D01*
X35167318Y27241502D01*
X35167318Y27241499D01*
X35181658Y27132573D01*
X35170892Y27063538D01*
X35124512Y27011282D01*
X35121842Y27009657D01*
X35052624Y26968721D01*
X35052616Y26968715D01*
X34938285Y26854384D01*
X34938278Y26854375D01*
X34855968Y26715196D01*
X34855966Y26715191D01*
X34810855Y26559919D01*
X34810854Y26559913D01*
X34809209Y26539001D01*
X34809210Y26539000D01*
X35714000Y26539000D01*
X35781039Y26519315D01*
X35826794Y26466511D01*
X35838000Y26415000D01*
X35838000Y23486362D01*
X35818315Y23419323D01*
X35810000Y23409005D01*
X35810000Y23214000D01*
X35790315Y23146961D01*
X35737511Y23101206D01*
X35686000Y23090000D01*
X34755496Y23090000D01*
X34797968Y22943805D01*
X34801066Y22936647D01*
X34799621Y22936023D01*
X34814589Y22877035D01*
X34792431Y22810772D01*
X34778355Y22793954D01*
X34774587Y22790185D01*
X34769872Y22785930D01*
X34735204Y22757725D01*
X34724703Y22742849D01*
X34711082Y22726680D01*
X34588179Y22603777D01*
X34526859Y22570293D01*
X34457167Y22575277D01*
X34401233Y22617148D01*
X34376816Y22682612D01*
X34376500Y22691459D01*
X34376500Y22803261D01*
X34366573Y22871393D01*
X34363730Y22880595D01*
X34366709Y22881516D01*
X34357672Y22934390D01*
X34364912Y22959045D01*
X34363730Y22959410D01*
X34366567Y22968597D01*
X34366573Y22968607D01*
X34376500Y23036740D01*
X34376500Y23203260D01*
X34376487Y23203346D01*
X34366573Y23271393D01*
X34363730Y23280595D01*
X34366709Y23281516D01*
X34357672Y23334390D01*
X34364912Y23359045D01*
X34363730Y23359410D01*
X34366567Y23368597D01*
X34366573Y23368607D01*
X34376500Y23436740D01*
X34376500Y23590000D01*
X34755496Y23590000D01*
X35310000Y23590000D01*
X35310000Y24007000D01*
X34809210Y24007000D01*
X34810855Y23986087D01*
X34840323Y23884656D01*
X34840123Y23814786D01*
X34827979Y23786941D01*
X34797968Y23736195D01*
X34755496Y23590000D01*
X34376500Y23590000D01*
X34376500Y23603260D01*
X34375832Y23607842D01*
X34366573Y23671393D01*
X34363730Y23680595D01*
X34366709Y23681516D01*
X34357672Y23734390D01*
X34364912Y23759045D01*
X34363730Y23759410D01*
X34366567Y23768597D01*
X34366573Y23768607D01*
X34376500Y23836740D01*
X34376500Y24003260D01*
X34376366Y24004177D01*
X34366573Y24071393D01*
X34363730Y24080595D01*
X34366709Y24081516D01*
X34357672Y24134390D01*
X34364912Y24159045D01*
X34363730Y24159410D01*
X34366567Y24168597D01*
X34366573Y24168607D01*
X34376500Y24236740D01*
X34376500Y24403260D01*
X34366573Y24471393D01*
X34366573Y24471394D01*
X34363730Y24480595D01*
X34366709Y24481516D01*
X34362353Y24507001D01*
X34809209Y24507001D01*
X34809210Y24507000D01*
X35338000Y24507000D01*
X35338000Y25023000D01*
X34809210Y25023000D01*
X34810854Y25002090D01*
X34855968Y24846806D01*
X34867018Y24828121D01*
X34884199Y24760397D01*
X34867020Y24701885D01*
X34855969Y24683199D01*
X34855966Y24683191D01*
X34810855Y24527919D01*
X34810854Y24527913D01*
X34809209Y24507001D01*
X34362353Y24507001D01*
X34357672Y24534390D01*
X34364912Y24559045D01*
X34363730Y24559410D01*
X34366567Y24568597D01*
X34366573Y24568607D01*
X34376500Y24636740D01*
X34376500Y24803260D01*
X34372628Y24829832D01*
X34366573Y24871393D01*
X34363730Y24880595D01*
X34366709Y24881516D01*
X34357672Y24934390D01*
X34364912Y24959045D01*
X34363730Y24959410D01*
X34366567Y24968597D01*
X34366573Y24968607D01*
X34376500Y25036740D01*
X34376500Y25203260D01*
X34366573Y25271393D01*
X34366573Y25271394D01*
X34363730Y25280595D01*
X34366709Y25281516D01*
X34357672Y25334390D01*
X34364912Y25359045D01*
X34363730Y25359410D01*
X34366567Y25368597D01*
X34366573Y25368607D01*
X34376500Y25436740D01*
X34376500Y25523001D01*
X34809209Y25523001D01*
X34809210Y25523000D01*
X35338000Y25523000D01*
X35338000Y26039000D01*
X34809210Y26039000D01*
X34810854Y26018090D01*
X34855968Y25862806D01*
X34867018Y25844121D01*
X34884199Y25776397D01*
X34867020Y25717885D01*
X34855969Y25699199D01*
X34855966Y25699191D01*
X34810855Y25543919D01*
X34810854Y25543913D01*
X34809209Y25523001D01*
X34376500Y25523001D01*
X34376500Y25603260D01*
X34366573Y25671393D01*
X34315198Y25776483D01*
X34315196Y25776485D01*
X34315196Y25776486D01*
X34232485Y25859197D01*
X34127391Y25910574D01*
X34059261Y25920500D01*
X34059260Y25920500D01*
X33350500Y25920500D01*
X33283461Y25940185D01*
X33237706Y25992989D01*
X33226500Y26044500D01*
X33226500Y26753261D01*
X33216573Y26821392D01*
X33216573Y26821393D01*
X33165198Y26926483D01*
X33165196Y26926485D01*
X33165196Y26926486D01*
X33082485Y27009197D01*
X32977391Y27060574D01*
X32909261Y27070500D01*
X32909260Y27070500D01*
X32742740Y27070500D01*
X32742739Y27070500D01*
X32674611Y27060575D01*
X32665408Y27057730D01*
X32664488Y27060706D01*
X32611575Y27051677D01*
X32586955Y27058906D01*
X32586592Y27057730D01*
X32577388Y27060575D01*
X32509261Y27070500D01*
X32509260Y27070500D01*
X32342740Y27070500D01*
X32342739Y27070500D01*
X32274611Y27060575D01*
X32265408Y27057730D01*
X32264488Y27060706D01*
X32211575Y27051677D01*
X32186955Y27058906D01*
X32186592Y27057730D01*
X32177388Y27060575D01*
X32109261Y27070500D01*
X32109260Y27070500D01*
X31942740Y27070500D01*
X31942739Y27070500D01*
X31874611Y27060575D01*
X31865408Y27057730D01*
X31864488Y27060706D01*
X31811575Y27051677D01*
X31786955Y27058906D01*
X31786592Y27057730D01*
X31777388Y27060575D01*
X31709261Y27070500D01*
X31709260Y27070500D01*
X31542740Y27070500D01*
X31542739Y27070500D01*
X31474611Y27060575D01*
X31465408Y27057730D01*
X31464488Y27060706D01*
X31411575Y27051677D01*
X31386955Y27058906D01*
X31386592Y27057730D01*
X31377387Y27060575D01*
X31357622Y27063454D01*
X31294121Y27092598D01*
X31256457Y27151447D01*
X31251500Y27186158D01*
X31251500Y27271736D01*
X31271185Y27338775D01*
X31301867Y27371506D01*
X31338120Y27398262D01*
X31414999Y27455001D01*
X31493852Y27561843D01*
X31531622Y27669782D01*
X31537708Y27687174D01*
X31537708Y27687177D01*
X31537710Y27687181D01*
X31540500Y27716934D01*
X31540500Y27944000D01*
X34089001Y27944000D01*
X34089001Y27895678D01*
X34099144Y27796393D01*
X34152452Y27635519D01*
X34152457Y27635508D01*
X34241424Y27491272D01*
X34241427Y27491268D01*
X34361267Y27371428D01*
X34361271Y27371425D01*
X34505507Y27282458D01*
X34505518Y27282453D01*
X34666393Y27229145D01*
X34765683Y27219001D01*
X34789000Y27219002D01*
X34789000Y27944000D01*
X34089001Y27944000D01*
X31540500Y27944000D01*
X31540500Y28163066D01*
X31537710Y28192819D01*
X31537708Y28192823D01*
X31537708Y28192827D01*
X31493854Y28318151D01*
X31493852Y28318157D01*
X31493847Y28318163D01*
X31492081Y28321506D01*
X31491249Y28325595D01*
X31490783Y28326928D01*
X31490965Y28326992D01*
X31478159Y28389975D01*
X31487148Y28426897D01*
X31494232Y28444000D01*
X34089000Y28444000D01*
X34789000Y28444000D01*
X34789000Y29169001D01*
X34765693Y29169000D01*
X34765674Y29168999D01*
X34666392Y29158856D01*
X34505518Y29105548D01*
X34505507Y29105543D01*
X34361271Y29016576D01*
X34361267Y29016573D01*
X34241427Y28896733D01*
X34241424Y28896729D01*
X34152457Y28752493D01*
X34152452Y28752482D01*
X34099144Y28591607D01*
X34089000Y28492323D01*
X34089000Y28444000D01*
X31494232Y28444000D01*
X31517974Y28501317D01*
X31536035Y28638500D01*
X31535903Y28639499D01*
X31533218Y28659897D01*
X31517974Y28775683D01*
X31465024Y28903517D01*
X31380791Y29013291D01*
X31380789Y29013292D01*
X31380789Y29013293D01*
X31271015Y29097526D01*
X31143186Y29150473D01*
X31143184Y29150474D01*
X31143183Y29150474D01*
X31051727Y29162515D01*
X31006001Y29168535D01*
X31005999Y29168535D01*
X30937408Y29159505D01*
X30868817Y29150474D01*
X30868816Y29150474D01*
X30868813Y29150473D01*
X30740985Y29097526D01*
X30631209Y29013291D01*
X30546975Y28903516D01*
X30498789Y28787184D01*
X30454948Y28732781D01*
X30388654Y28710716D01*
X30349633Y28715561D01*
X30250001Y28744507D01*
X30250000Y28744506D01*
X30250000Y27814000D01*
X30230315Y27746961D01*
X30177511Y27701206D01*
X30126000Y27690000D01*
X28802000Y27690000D01*
X28734961Y27709685D01*
X28689206Y27762489D01*
X28678000Y27814000D01*
X28678000Y28190000D01*
X29178000Y28190000D01*
X29750000Y28190000D01*
X29750000Y28744506D01*
X29749998Y28744507D01*
X29603809Y28702035D01*
X29603808Y28702034D01*
X29527120Y28656681D01*
X29459396Y28639499D01*
X29400880Y28656681D01*
X29324191Y28702034D01*
X29324190Y28702035D01*
X29178001Y28744507D01*
X29178000Y28744506D01*
X29178000Y28190000D01*
X28678000Y28190000D01*
X28678000Y28744506D01*
X28660012Y28758012D01*
X28653986Y28758029D01*
X28595317Y28795973D01*
X28574702Y28829453D01*
X28544025Y28903515D01*
X28544024Y28903516D01*
X28544024Y28903517D01*
X28459791Y29013291D01*
X28459789Y29013292D01*
X28459789Y29013293D01*
X28350015Y29097526D01*
X28222186Y29150473D01*
X28222184Y29150474D01*
X28222183Y29150474D01*
X28130727Y29162515D01*
X28085001Y29168535D01*
X28084999Y29168535D01*
X28016408Y29159505D01*
X27947817Y29150474D01*
X27947816Y29150474D01*
X27947813Y29150473D01*
X27819985Y29097526D01*
X27710209Y29013291D01*
X27625974Y28903515D01*
X27573027Y28775687D01*
X27573026Y28775684D01*
X27573026Y28775683D01*
X27568921Y28744506D01*
X27554965Y28638501D01*
X27554965Y28638500D01*
X27567320Y28544656D01*
X27556555Y28475620D01*
X27518021Y28428705D01*
X27513003Y28425002D01*
X27513002Y28425001D01*
X27434147Y28318156D01*
X27390291Y28192827D01*
X27390289Y28192815D01*
X27387500Y28163071D01*
X27387500Y27716930D01*
X27390289Y27687186D01*
X27390291Y27687174D01*
X27433471Y27563777D01*
X27434148Y27561843D01*
X27513001Y27455001D01*
X27550134Y27427596D01*
X27592384Y27371948D01*
X27600500Y27327826D01*
X27600500Y27261255D01*
X27580815Y27194216D01*
X27528011Y27148461D01*
X27458853Y27138517D01*
X27395297Y27167542D01*
X27388819Y27173574D01*
X25963819Y28598574D01*
X25930334Y28659897D01*
X25927500Y28686255D01*
X25927500Y29761236D01*
X25927500Y30843072D01*
X25947184Y30910107D01*
X25999987Y30955862D01*
X26035309Y30966006D01*
X26172183Y30984026D01*
X26300018Y31036976D01*
X26369704Y31090450D01*
X26434872Y31115644D01*
X26503317Y31101606D01*
X26543564Y31067564D01*
X26549206Y31060212D01*
X26549207Y31060211D01*
X26549209Y31060209D01*
X26658982Y30975976D01*
X26658983Y30975976D01*
X26658984Y30975975D01*
X26701593Y30958326D01*
X26786817Y30923026D01*
X26909702Y30906848D01*
X26923999Y30904965D01*
X26924000Y30904965D01*
X26924001Y30904965D01*
X26936947Y30906670D01*
X27061183Y30923026D01*
X27173967Y30969743D01*
X27243436Y30977211D01*
X27295052Y30954951D01*
X27393613Y30882210D01*
X27393615Y30882209D01*
X27393618Y30882207D01*
X27436345Y30867256D01*
X27521799Y30837354D01*
X27552230Y30834500D01*
X27552234Y30834500D01*
X28835770Y30834500D01*
X28866199Y30837354D01*
X28866201Y30837354D01*
X28930290Y30859781D01*
X28994382Y30882207D01*
X29103650Y30962850D01*
X29184293Y31072118D01*
X29223797Y31185013D01*
X29229146Y31200299D01*
X29229146Y31200301D01*
X29232000Y31230731D01*
X29232000Y31639267D01*
X29231611Y31643408D01*
X29230099Y31659535D01*
X29243437Y31728118D01*
X29291737Y31778604D01*
X29359665Y31794962D01*
X29394511Y31788155D01*
X29395573Y31787784D01*
X29396801Y31787354D01*
X29396800Y31787354D01*
X29427230Y31784500D01*
X29427234Y31784500D01*
X30710770Y31784500D01*
X30741199Y31787354D01*
X30741201Y31787354D01*
X30820947Y31815259D01*
X30869382Y31832207D01*
X30895331Y31851359D01*
X30960959Y31875330D01*
X31029130Y31860015D01*
X31078198Y31810275D01*
X31091355Y31757986D01*
X31091904Y31758058D01*
X31092526Y31753334D01*
X31092965Y31751589D01*
X31092965Y31750000D01*
X31108913Y31628864D01*
X31111026Y31612819D01*
X31111027Y31612814D01*
X31163974Y31484985D01*
X31163975Y31484983D01*
X31163976Y31484982D01*
X31248209Y31375209D01*
X31357982Y31290976D01*
X31485817Y31238026D01*
X31608702Y31221848D01*
X31622999Y31219965D01*
X31623000Y31219965D01*
X31623001Y31219965D01*
X31635947Y31221670D01*
X31760183Y31238026D01*
X31888018Y31290976D01*
X31997791Y31375209D01*
X32082024Y31484982D01*
X32134974Y31612817D01*
X32150985Y31734435D01*
X32179251Y31798330D01*
X32237576Y31836801D01*
X32307441Y31837632D01*
X32314868Y31835293D01*
X32372121Y31815259D01*
X32372120Y31815259D01*
X32376534Y31814846D01*
X32401543Y31812500D01*
X32591743Y31812501D01*
X32658783Y31792817D01*
X32679425Y31776182D01*
X32885987Y31569619D01*
X32886006Y31569602D01*
X32906658Y31548950D01*
X32926394Y31538894D01*
X32942982Y31528729D01*
X32960910Y31515704D01*
X32981979Y31508859D01*
X32999958Y31501412D01*
X33019696Y31491354D01*
X33041578Y31487889D01*
X33060491Y31483348D01*
X33081567Y31476500D01*
X33113481Y31476500D01*
X33564745Y31476500D01*
X33631784Y31456815D01*
X33652426Y31440181D01*
X34284986Y30807620D01*
X34285006Y30807602D01*
X34305658Y30786950D01*
X34325390Y30776896D01*
X34325398Y30776892D01*
X34341987Y30766726D01*
X34359909Y30753705D01*
X34359910Y30753705D01*
X34359911Y30753704D01*
X34380980Y30746858D01*
X34398949Y30739416D01*
X34418696Y30729354D01*
X34440582Y30725888D01*
X34459497Y30721347D01*
X34480567Y30714500D01*
X34480569Y30714500D01*
X35327135Y30714500D01*
X35327137Y30714500D01*
X35348205Y30721346D01*
X35367121Y30725888D01*
X35389008Y30729354D01*
X35408748Y30739414D01*
X35426715Y30746856D01*
X35447794Y30753704D01*
X35465730Y30766737D01*
X35482292Y30776886D01*
X35502046Y30786950D01*
X35517538Y30802443D01*
X35517545Y30802448D01*
X35638125Y30923028D01*
X36061563Y31346468D01*
X36122884Y31379951D01*
X36192575Y31374967D01*
X36224728Y31357161D01*
X36294382Y31303714D01*
X36310982Y31290976D01*
X36438817Y31238026D01*
X36561702Y31221848D01*
X36575999Y31219965D01*
X36576000Y31219965D01*
X36576001Y31219965D01*
X36588947Y31221670D01*
X36713183Y31238026D01*
X36841018Y31290976D01*
X36950791Y31375209D01*
X37035024Y31484982D01*
X37087974Y31612817D01*
X37106035Y31750000D01*
X37088363Y31884225D01*
X37099128Y31953257D01*
X37136377Y31999212D01*
X37202867Y32049633D01*
X37202866Y32049633D01*
X37289115Y32163368D01*
X37341479Y32296154D01*
X37351500Y32379598D01*
X37351500Y32898402D01*
X37341479Y32981846D01*
X37289115Y33114632D01*
X37289113Y33114635D01*
X37202867Y33228368D01*
X37089134Y33314614D01*
X37082378Y33318412D01*
X37033589Y33368425D01*
X37019583Y33436876D01*
X37044808Y33502034D01*
X37082378Y33534588D01*
X37089126Y33538383D01*
X37089132Y33538385D01*
X37202867Y33624633D01*
X37289115Y33738368D01*
X37341479Y33871154D01*
X37351500Y33954598D01*
X37351500Y34473402D01*
X37341479Y34556846D01*
X37289115Y34689632D01*
X37255391Y34734104D01*
X37202867Y34803368D01*
X37089134Y34889614D01*
X37089132Y34889615D01*
X36956346Y34941979D01*
X36956345Y34941980D01*
X36956343Y34941980D01*
X36872902Y34952000D01*
X36279098Y34952000D01*
X36195656Y34941980D01*
X36195655Y34941980D01*
X36062865Y34889614D01*
X35949132Y34803368D01*
X35862886Y34689635D01*
X35858729Y34682240D01*
X35855610Y34683994D01*
X35822940Y34642012D01*
X35757031Y34618824D01*
X35689048Y34634951D01*
X35643065Y34682687D01*
X35642271Y34682240D01*
X35638113Y34689635D01*
X35551867Y34803368D01*
X35438134Y34889614D01*
X35438132Y34889615D01*
X35305346Y34941979D01*
X35305345Y34941980D01*
X35305343Y34941980D01*
X35221902Y34952000D01*
X34628098Y34952000D01*
X34544656Y34941980D01*
X34544655Y34941980D01*
X34411865Y34889614D01*
X34298132Y34803368D01*
X34211886Y34689635D01*
X34159520Y34556845D01*
X34159520Y34556844D01*
X34149500Y34473403D01*
X34149500Y34274491D01*
X34129815Y34207452D01*
X34077011Y34161697D01*
X34007853Y34151753D01*
X33990906Y34155414D01*
X33940127Y34170166D01*
X33905000Y34172932D01*
X33905000Y33760755D01*
X33885315Y33693716D01*
X33879434Y33686417D01*
X33879685Y33686235D01*
X33873948Y33678340D01*
X33863891Y33658603D01*
X33853731Y33642023D01*
X33840706Y33624095D01*
X33840703Y33624090D01*
X33833854Y33603012D01*
X33826413Y33585048D01*
X33816354Y33565305D01*
X33812887Y33543418D01*
X33808347Y33524509D01*
X33801500Y33503433D01*
X33801500Y33277000D01*
X33781815Y33209961D01*
X33729011Y33164206D01*
X33677500Y33153000D01*
X32467747Y33153000D01*
X32417996Y33125834D01*
X32391638Y33123000D01*
X31497000Y33123000D01*
X31429961Y33142685D01*
X31384206Y33195489D01*
X31373000Y33247000D01*
X31373000Y33653000D01*
X31873000Y33653000D01*
X32389000Y33653000D01*
X32889000Y33653000D01*
X33405000Y33653000D01*
X33405000Y34172932D01*
X33404999Y34172932D01*
X33369869Y34170166D01*
X33369868Y34170166D01*
X33215812Y34125408D01*
X33215805Y34125406D01*
X33210115Y34122040D01*
X33142390Y34104862D01*
X33083885Y34122040D01*
X33078194Y34125406D01*
X33078187Y34125408D01*
X32924130Y34170166D01*
X32889000Y34172932D01*
X32889000Y33653000D01*
X32389000Y33653000D01*
X32389000Y34172932D01*
X32388999Y34172932D01*
X32353869Y34170166D01*
X32353868Y34170166D01*
X32199811Y34125408D01*
X32199808Y34125407D01*
X32170397Y34108013D01*
X32102673Y34090830D01*
X32057312Y34104150D01*
X32056354Y34101934D01*
X32049198Y34105031D01*
X31893909Y34150146D01*
X31893912Y34150146D01*
X31873000Y34151791D01*
X31873000Y33653000D01*
X31373000Y33653000D01*
X31373000Y33676246D01*
X31392685Y33743285D01*
X31409319Y33763927D01*
X31420484Y33775092D01*
X31431258Y33785866D01*
X31443050Y33797658D01*
X31453109Y33817403D01*
X31463271Y33833986D01*
X31476296Y33851910D01*
X31483140Y33872978D01*
X31490586Y33890955D01*
X31500646Y33910696D01*
X31504112Y33932585D01*
X31508652Y33951499D01*
X31515499Y33972567D01*
X31515499Y34001924D01*
X31515500Y34001949D01*
X31515500Y34790501D01*
X31535185Y34857540D01*
X31587989Y34903295D01*
X31639500Y34914501D01*
X31865856Y34914501D01*
X31865864Y34914501D01*
X31865879Y34914503D01*
X31865882Y34914503D01*
X31890987Y34917414D01*
X31890988Y34917415D01*
X31890991Y34917415D01*
X31993765Y34962794D01*
X32073206Y35042235D01*
X32118585Y35145009D01*
X32121500Y35170135D01*
X32121499Y36009864D01*
X32121497Y36009883D01*
X32118586Y36034988D01*
X32118585Y36034990D01*
X32118585Y36034991D01*
X32073206Y36137765D01*
X31993765Y36217206D01*
X31992383Y36217816D01*
X31890992Y36262585D01*
X31865865Y36265500D01*
X30776143Y36265500D01*
X30776117Y36265498D01*
X30751012Y36262587D01*
X30751008Y36262585D01*
X30648235Y36217207D01*
X30568793Y36137765D01*
X30523160Y36034414D01*
X30478074Y35981038D01*
X30411288Y35960510D01*
X30409726Y35960500D01*
X26232274Y35960500D01*
X26165235Y35980185D01*
X26119480Y36032989D01*
X26118840Y36034414D01*
X26073206Y36137765D01*
X25993765Y36217206D01*
X25890992Y36262585D01*
X25865865Y36265500D01*
X24776143Y36265500D01*
X24776117Y36265498D01*
X24751012Y36262587D01*
X24751008Y36262585D01*
X24648235Y36217207D01*
X24568794Y36137766D01*
X24523415Y36034994D01*
X24523415Y36034992D01*
X24520500Y36009869D01*
X24520500Y35170144D01*
X24520502Y35170118D01*
X24523413Y35145013D01*
X24523415Y35145009D01*
X24568793Y35042236D01*
X24568794Y35042235D01*
X24648235Y34962794D01*
X24751009Y34917415D01*
X24776135Y34914500D01*
X25865864Y34914501D01*
X25865879Y34914503D01*
X25865882Y34914503D01*
X25890987Y34917414D01*
X25890988Y34917415D01*
X25890991Y34917415D01*
X25993765Y34962794D01*
X26073206Y35042235D01*
X26088078Y35075919D01*
X26092348Y35085587D01*
X26137434Y35138963D01*
X26204221Y35159490D01*
X26205782Y35159500D01*
X30436218Y35159500D01*
X30503257Y35139815D01*
X30549012Y35087011D01*
X30549652Y35085587D01*
X30556514Y35070047D01*
X30568794Y35042235D01*
X30622595Y34988434D01*
X30655899Y34955130D01*
X30668534Y34940336D01*
X30687305Y34914500D01*
X30690817Y34909667D01*
X30714298Y34843861D01*
X30714500Y34836780D01*
X30714500Y34253256D01*
X30694815Y34186217D01*
X30678181Y34165575D01*
X29763516Y33250909D01*
X29763513Y33250906D01*
X29740949Y33228341D01*
X29740948Y33228340D01*
X29730891Y33208603D01*
X29720731Y33192023D01*
X29707706Y33174095D01*
X29707703Y33174090D01*
X29700854Y33153012D01*
X29693413Y33135048D01*
X29683354Y33115305D01*
X29679887Y33093418D01*
X29675356Y33074537D01*
X29674277Y33071215D01*
X29634857Y33013529D01*
X29570506Y32986312D01*
X29556336Y32985500D01*
X29427230Y32985500D01*
X29396800Y32982647D01*
X29396798Y32982646D01*
X29394500Y32981842D01*
X29392696Y32981751D01*
X29389427Y32981036D01*
X29389308Y32981578D01*
X29324721Y32978288D01*
X29264097Y33013022D01*
X29231876Y33075019D01*
X29230099Y33110466D01*
X29232000Y33130734D01*
X29232000Y33539266D01*
X29229146Y33569699D01*
X29229146Y33569700D01*
X29229146Y33569702D01*
X29186565Y33691389D01*
X29184293Y33697882D01*
X29103650Y33807150D01*
X28994382Y33887793D01*
X28994380Y33887794D01*
X28866200Y33932647D01*
X28835770Y33935500D01*
X28835766Y33935500D01*
X27552234Y33935500D01*
X27552230Y33935500D01*
X27521800Y33932647D01*
X27521798Y33932647D01*
X27393619Y33887794D01*
X27393617Y33887793D01*
X27310017Y33826093D01*
X27284350Y33807150D01*
X27272813Y33791517D01*
X27268642Y33785866D01*
X27212994Y33743615D01*
X27168872Y33735500D01*
X27062508Y33735500D01*
X26995469Y33755185D01*
X26988874Y33759730D01*
X26945804Y33791517D01*
X26933794Y33800381D01*
X26933792Y33800382D01*
X26809880Y33843742D01*
X26780461Y33846500D01*
X26305546Y33846500D01*
X26276124Y33843742D01*
X26268756Y33842132D01*
X26268469Y33843446D01*
X26206660Y33840294D01*
X26147809Y33873216D01*
X26104294Y33916732D01*
X26104285Y33916739D01*
X25966191Y33998407D01*
X25966188Y33998408D01*
X25812130Y34043166D01*
X25776999Y34045932D01*
X25777000Y33150000D01*
X25757316Y33082961D01*
X25704512Y33037206D01*
X25653000Y33026000D01*
X25374756Y33026000D01*
X25307717Y33045685D01*
X25287075Y33062319D01*
X25276287Y33073107D01*
X25276256Y33073136D01*
X25255342Y33094050D01*
X25255341Y33094051D01*
X25235600Y33104110D01*
X25219014Y33114274D01*
X25201090Y33127296D01*
X25201091Y33127296D01*
X25180018Y33134143D01*
X25162045Y33141588D01*
X25142307Y33151645D01*
X25142304Y33151646D01*
X25120418Y33155113D01*
X25101507Y33159654D01*
X25080439Y33166499D01*
X25080434Y33166500D01*
X25080433Y33166500D01*
X25080429Y33166500D01*
X24385000Y33166500D01*
X24317961Y33186185D01*
X24272206Y33238989D01*
X24261000Y33290500D01*
X24261000Y34048432D01*
X24760999Y34048432D01*
X24760999Y33528501D01*
X24761001Y33528500D01*
X25277000Y33528500D01*
X25277000Y34045932D01*
X25276999Y34045932D01*
X25241869Y34043166D01*
X25241868Y34043166D01*
X25087811Y33998408D01*
X25087799Y33998403D01*
X25084227Y33996290D01*
X25081063Y33995488D01*
X25080646Y33995307D01*
X25080616Y33995375D01*
X25016502Y33979112D01*
X24957995Y33996292D01*
X24950191Y34000907D01*
X24950188Y34000908D01*
X24796130Y34045666D01*
X24760999Y34048432D01*
X24261000Y34048432D01*
X24260999Y34048432D01*
X24225869Y34045666D01*
X24225868Y34045666D01*
X24071811Y34000908D01*
X24068750Y33999583D01*
X24066143Y33999262D01*
X24064315Y33998730D01*
X24064229Y33999025D01*
X23999407Y33991022D01*
X23936443Y34021309D01*
X23899849Y34080830D01*
X23895500Y34113383D01*
X23895500Y34541331D01*
X23895500Y34956519D01*
X23895500Y34988433D01*
X23888653Y35009503D01*
X23884111Y35028423D01*
X23880646Y35050304D01*
X23870584Y35070051D01*
X23863140Y35088024D01*
X23856295Y35109091D01*
X23843274Y35127013D01*
X23833108Y35143602D01*
X23832389Y35145013D01*
X23823050Y35163342D01*
X23802398Y35183994D01*
X23802380Y35184014D01*
X23169818Y35816575D01*
X23136333Y35877898D01*
X23133499Y35904248D01*
X23133499Y36113503D01*
X23153184Y36180540D01*
X23205988Y36226295D01*
X23257499Y36237501D01*
X23311856Y36237501D01*
X23311864Y36237501D01*
X23311879Y36237503D01*
X23311882Y36237503D01*
X23336987Y36240414D01*
X23336988Y36240415D01*
X23336991Y36240415D01*
X23439765Y36285794D01*
X23519206Y36365235D01*
X23564585Y36468009D01*
X23567500Y36493135D01*
X23567499Y38182864D01*
X23567497Y38182883D01*
X23564586Y38207988D01*
X23564585Y38207990D01*
X23564585Y38207991D01*
X23519206Y38310765D01*
X23439765Y38390206D01*
X23439765Y38390207D01*
X23336992Y38435585D01*
X23311868Y38438500D01*
X23311865Y38438500D01*
X21151254Y38438500D01*
X21084215Y38458185D01*
X21038460Y38510989D01*
X21028315Y38578686D01*
X21032150Y38607810D01*
X21040296Y38669688D01*
X21068563Y38733583D01*
X21126887Y38772054D01*
X21163235Y38777501D01*
X23311856Y38777501D01*
X23311864Y38777501D01*
X23311879Y38777503D01*
X23311882Y38777503D01*
X23336987Y38780414D01*
X23336988Y38780415D01*
X23336991Y38780415D01*
X23439765Y38825794D01*
X23519206Y38905235D01*
X23564585Y39008009D01*
X23567500Y39033135D01*
X23567500Y39090000D01*
X24321000Y39090000D01*
X24321000Y38917156D01*
X24327401Y38857628D01*
X24327403Y38857621D01*
X24377645Y38722914D01*
X24377649Y38722907D01*
X24463809Y38607813D01*
X24463812Y38607810D01*
X24578906Y38521650D01*
X24578913Y38521646D01*
X24713620Y38471404D01*
X24713627Y38471402D01*
X24773155Y38465001D01*
X24773172Y38465000D01*
X25071000Y38465000D01*
X25071000Y39090000D01*
X25571000Y39090000D01*
X25571000Y38465000D01*
X25868828Y38465000D01*
X25868844Y38465001D01*
X25928372Y38471402D01*
X25928379Y38471404D01*
X26063086Y38521646D01*
X26063093Y38521650D01*
X26178187Y38607810D01*
X26178190Y38607813D01*
X26264350Y38722907D01*
X26264354Y38722914D01*
X26314596Y38857621D01*
X26314598Y38857628D01*
X26320999Y38917156D01*
X26321000Y38917173D01*
X26321000Y39090000D01*
X30321000Y39090000D01*
X30321000Y38917156D01*
X30327401Y38857628D01*
X30327403Y38857621D01*
X30377645Y38722914D01*
X30377649Y38722907D01*
X30463809Y38607813D01*
X30463812Y38607810D01*
X30578906Y38521650D01*
X30578913Y38521646D01*
X30713620Y38471404D01*
X30713627Y38471402D01*
X30773155Y38465001D01*
X30773172Y38465000D01*
X31071000Y38465000D01*
X31071000Y39090000D01*
X31571000Y39090000D01*
X31571000Y38465000D01*
X31868828Y38465000D01*
X31868844Y38465001D01*
X31928372Y38471402D01*
X31928379Y38471404D01*
X32063086Y38521646D01*
X32063093Y38521650D01*
X32178187Y38607810D01*
X32178190Y38607813D01*
X32264350Y38722907D01*
X32264354Y38722914D01*
X32314596Y38857621D01*
X32314598Y38857628D01*
X32320999Y38917156D01*
X32321000Y38917173D01*
X32321000Y39090000D01*
X31571000Y39090000D01*
X31071000Y39090000D01*
X30321000Y39090000D01*
X26321000Y39090000D01*
X25571000Y39090000D01*
X25071000Y39090000D01*
X24321000Y39090000D01*
X23567500Y39090000D01*
X23567500Y39590000D01*
X24321000Y39590000D01*
X25071000Y39590000D01*
X25071000Y40215000D01*
X25571000Y40215000D01*
X25571000Y39590000D01*
X26321000Y39590000D01*
X30321000Y39590000D01*
X31071000Y39590000D01*
X31071000Y40215000D01*
X31571000Y40215000D01*
X31571000Y39590000D01*
X32321000Y39590000D01*
X32321000Y39762828D01*
X32320999Y39762845D01*
X32314598Y39822373D01*
X32314596Y39822380D01*
X32264354Y39957087D01*
X32264350Y39957094D01*
X32178190Y40072188D01*
X32178187Y40072191D01*
X32063093Y40158351D01*
X32063086Y40158355D01*
X31928379Y40208597D01*
X31928372Y40208599D01*
X31868844Y40215000D01*
X31571000Y40215000D01*
X31071000Y40215000D01*
X30773155Y40215000D01*
X30713627Y40208599D01*
X30713620Y40208597D01*
X30578913Y40158355D01*
X30578906Y40158351D01*
X30463812Y40072191D01*
X30463809Y40072188D01*
X30377649Y39957094D01*
X30377645Y39957087D01*
X30327403Y39822380D01*
X30327401Y39822373D01*
X30321000Y39762845D01*
X30321000Y39590000D01*
X26321000Y39590000D01*
X26321000Y39762828D01*
X26320999Y39762845D01*
X26314598Y39822373D01*
X26314596Y39822380D01*
X26264354Y39957087D01*
X26264350Y39957094D01*
X26178190Y40072188D01*
X26178187Y40072191D01*
X26063093Y40158351D01*
X26063086Y40158355D01*
X25928379Y40208597D01*
X25928372Y40208599D01*
X25868844Y40215000D01*
X25571000Y40215000D01*
X25071000Y40215000D01*
X24773155Y40215000D01*
X24713627Y40208599D01*
X24713620Y40208597D01*
X24578913Y40158355D01*
X24578906Y40158351D01*
X24463812Y40072191D01*
X24463809Y40072188D01*
X24377649Y39957094D01*
X24377645Y39957087D01*
X24327403Y39822380D01*
X24327401Y39822373D01*
X24321000Y39762845D01*
X24321000Y39590000D01*
X23567500Y39590000D01*
X23567499Y40722864D01*
X23567497Y40722883D01*
X23564586Y40747988D01*
X23564585Y40747990D01*
X23564585Y40747991D01*
X23519206Y40850765D01*
X23439765Y40930206D01*
X23358448Y40966111D01*
X23336992Y40975585D01*
X23311865Y40978500D01*
X20122143Y40978500D01*
X20122117Y40978498D01*
X20097012Y40975587D01*
X20097008Y40975585D01*
X19994235Y40930207D01*
X19914794Y40850766D01*
X19869415Y40747994D01*
X19869415Y40747992D01*
X19866500Y40722869D01*
X19866500Y39033144D01*
X19866502Y39033118D01*
X19869413Y39008013D01*
X19869415Y39008009D01*
X19914793Y38905236D01*
X19956777Y38863252D01*
X19990262Y38801929D01*
X19992035Y38759386D01*
X19980465Y38671503D01*
X19980465Y38671500D01*
X19998526Y38534319D01*
X19998527Y38534314D01*
X20007771Y38511997D01*
X20015240Y38442528D01*
X19983965Y38380049D01*
X19980892Y38376865D01*
X19914794Y38310767D01*
X19914794Y38310766D01*
X19869415Y38207994D01*
X19869415Y38207992D01*
X19866500Y38182869D01*
X19866500Y36493144D01*
X19866502Y36493118D01*
X19869413Y36468013D01*
X19869415Y36468009D01*
X19914793Y36365236D01*
X19914794Y36365235D01*
X19994235Y36285794D01*
X20097009Y36240415D01*
X20122135Y36237500D01*
X22208500Y36237501D01*
X22275539Y36217816D01*
X22321294Y36165013D01*
X22332500Y36113501D01*
X22332499Y35623571D01*
X22332501Y35623561D01*
X22339346Y35602493D01*
X22343887Y35583582D01*
X22347354Y35561696D01*
X22347355Y35561693D01*
X22357412Y35541955D01*
X22364857Y35523982D01*
X22371704Y35502910D01*
X22384726Y35484986D01*
X22394890Y35468400D01*
X22404950Y35448658D01*
X22425864Y35427744D01*
X22425893Y35427713D01*
X23058180Y34795427D01*
X23091665Y34734104D01*
X23094499Y34707747D01*
X23094500Y34498501D01*
X23074816Y34431461D01*
X23022012Y34385706D01*
X22970500Y34374500D01*
X21002826Y34374500D01*
X20935787Y34394185D01*
X20890032Y34446989D01*
X20879887Y34514685D01*
X20900466Y34670999D01*
X20900466Y34671001D01*
X20883549Y34799500D01*
X20880687Y34821236D01*
X20822698Y34961233D01*
X20730451Y35081451D01*
X20610233Y35173698D01*
X20610229Y35173700D01*
X20470236Y35231687D01*
X20470234Y35231688D01*
X20320001Y35251466D01*
X20319999Y35251466D01*
X20169765Y35231688D01*
X20169763Y35231687D01*
X20029770Y35173700D01*
X20029767Y35173699D01*
X20029767Y35173698D01*
X19909549Y35081451D01*
X19838174Y34988433D01*
X19817300Y34961230D01*
X19759313Y34821237D01*
X19759312Y34821235D01*
X19739533Y34671001D01*
X19739533Y34671000D01*
X19759312Y34520766D01*
X19759313Y34520764D01*
X19817300Y34380770D01*
X19817302Y34380766D01*
X19866875Y34316163D01*
X19892070Y34250994D01*
X19892500Y34240669D01*
X19892499Y34222426D01*
X19881935Y34172351D01*
X19869416Y34143997D01*
X19869415Y34143992D01*
X19866500Y34118869D01*
X19866500Y32429144D01*
X19866502Y32429118D01*
X19869413Y32404013D01*
X19869415Y32404009D01*
X19914793Y32301236D01*
X19914794Y32301235D01*
X19994235Y32221794D01*
X20097009Y32176415D01*
X20122135Y32173500D01*
X23052745Y32173501D01*
X23119784Y32153816D01*
X23165539Y32101013D01*
X23175483Y32031854D01*
X23146458Y31968298D01*
X23140426Y31961820D01*
X23049425Y31870819D01*
X22988102Y31837334D01*
X22961744Y31834500D01*
X20122143Y31834500D01*
X20122117Y31834498D01*
X20097012Y31831587D01*
X20097008Y31831585D01*
X19994235Y31786207D01*
X19914794Y31706766D01*
X19869415Y31603994D01*
X19869415Y31603992D01*
X19866500Y31578869D01*
X19866500Y29889144D01*
X19866502Y29889118D01*
X19869413Y29864013D01*
X19869415Y29864009D01*
X19914793Y29761236D01*
X19914794Y29761235D01*
X19994235Y29681794D01*
X20097009Y29636415D01*
X20122135Y29633500D01*
X23311864Y29633501D01*
X23311879Y29633503D01*
X23311882Y29633503D01*
X23336987Y29636414D01*
X23336988Y29636415D01*
X23336991Y29636415D01*
X23439765Y29681794D01*
X23519206Y29761235D01*
X23564585Y29864009D01*
X23567500Y29889135D01*
X23567499Y31204747D01*
X23587184Y31271785D01*
X23603814Y31292423D01*
X24009780Y31698390D01*
X24071101Y31731873D01*
X24138412Y31727749D01*
X24244121Y31690759D01*
X24244120Y31690759D01*
X24248534Y31690346D01*
X24273543Y31688000D01*
X24463743Y31688001D01*
X24530783Y31668317D01*
X24551425Y31651682D01*
X24763181Y31439927D01*
X24796666Y31378604D01*
X24799500Y31352246D01*
X24799500Y28270123D01*
X24799501Y28270113D01*
X24806346Y28249045D01*
X24810887Y28230134D01*
X24814354Y28208248D01*
X24814355Y28208245D01*
X24824412Y28188507D01*
X24831857Y28170534D01*
X24838704Y28149462D01*
X24851726Y28131538D01*
X24861890Y28114952D01*
X24871950Y28095210D01*
X24892864Y28074296D01*
X24892893Y28074265D01*
X26002410Y26964749D01*
X26035895Y26903426D01*
X26030911Y26833734D01*
X25989039Y26777801D01*
X25923575Y26753384D01*
X25865275Y26766067D01*
X25864353Y26763934D01*
X25857190Y26767034D01*
X25701918Y26812145D01*
X25701912Y26812146D01*
X25681000Y26813791D01*
X25681000Y26285000D01*
X26235504Y26285000D01*
X26193031Y26431196D01*
X26189934Y26438353D01*
X26192784Y26439587D01*
X26179153Y26493357D01*
X26201325Y26559615D01*
X26255799Y26603368D01*
X26325280Y26610725D01*
X26387709Y26579350D01*
X26390748Y26576412D01*
X26834979Y26132181D01*
X26868464Y26070858D01*
X26863480Y26001166D01*
X26821608Y25945233D01*
X26756144Y25920816D01*
X26747298Y25920500D01*
X26392739Y25920500D01*
X26324608Y25910574D01*
X26219514Y25859197D01*
X26181639Y25821320D01*
X26120316Y25787834D01*
X26093957Y25785000D01*
X23579496Y25785000D01*
X23621968Y25638805D01*
X23704278Y25499626D01*
X23704285Y25499617D01*
X23754839Y25449064D01*
X23788325Y25387741D01*
X23784201Y25320429D01*
X23776289Y25297820D01*
X23776289Y25297819D01*
X23773500Y25268071D01*
X23773500Y24881930D01*
X23776289Y24852186D01*
X23776291Y24852174D01*
X23820147Y24726845D01*
X23820148Y24726843D01*
X23899001Y24620001D01*
X24005843Y24541148D01*
X24037436Y24530093D01*
X24131173Y24497292D01*
X24131177Y24497292D01*
X24131181Y24497290D01*
X24146057Y24495895D01*
X24160930Y24494500D01*
X24160934Y24494500D01*
X24607070Y24494500D01*
X24620289Y24495740D01*
X24636819Y24497290D01*
X24636823Y24497292D01*
X24636826Y24497292D01*
X24707291Y24521950D01*
X24762157Y24541148D01*
X24833867Y24594074D01*
X24899494Y24618044D01*
X24967665Y24602729D01*
X24981123Y24594080D01*
X25052843Y24541148D01*
X25178173Y24497292D01*
X25178177Y24497292D01*
X25178181Y24497290D01*
X25193057Y24495895D01*
X25207930Y24494500D01*
X25207934Y24494500D01*
X25654070Y24494500D01*
X25667289Y24495740D01*
X25683819Y24497290D01*
X25683823Y24497292D01*
X25683826Y24497292D01*
X25754291Y24521950D01*
X25809157Y24541148D01*
X25891518Y24601934D01*
X25957143Y24625904D01*
X26025313Y24610589D01*
X26074382Y24560850D01*
X26088770Y24492478D01*
X26086569Y24480958D01*
X26086815Y24480922D01*
X26075500Y24403261D01*
X26075500Y24236740D01*
X26085426Y24168608D01*
X26088270Y24159405D01*
X26085292Y24158485D01*
X26094325Y24105592D01*
X26087094Y24080953D01*
X26088269Y24080590D01*
X26085426Y24071392D01*
X26075500Y24003261D01*
X26075500Y23836740D01*
X26085426Y23768608D01*
X26088270Y23759405D01*
X26085292Y23758485D01*
X26094325Y23705592D01*
X26087094Y23680953D01*
X26088269Y23680590D01*
X26085426Y23671392D01*
X26075500Y23603261D01*
X26075500Y23436740D01*
X26085426Y23368608D01*
X26088270Y23359405D01*
X26085292Y23358485D01*
X26094325Y23305592D01*
X26087094Y23280953D01*
X26088269Y23280590D01*
X26085426Y23271392D01*
X26075500Y23203261D01*
X26075500Y23036740D01*
X26085426Y22968608D01*
X26088270Y22959405D01*
X26085292Y22958485D01*
X26094325Y22905592D01*
X26087094Y22880953D01*
X26088269Y22880590D01*
X26085426Y22871392D01*
X26075500Y22803261D01*
X26075500Y22636740D01*
X26085426Y22568608D01*
X26088270Y22559405D01*
X26085292Y22558485D01*
X26094325Y22505592D01*
X26087094Y22480953D01*
X26088269Y22480590D01*
X26085426Y22471392D01*
X26075500Y22403261D01*
X26075500Y22236740D01*
X26085426Y22168608D01*
X26088270Y22159405D01*
X26085292Y22158485D01*
X26094325Y22105592D01*
X26087094Y22080953D01*
X26088269Y22080590D01*
X26085426Y22071392D01*
X26075500Y22003261D01*
X26075500Y21836740D01*
X26085426Y21768608D01*
X26088270Y21759405D01*
X26085292Y21758485D01*
X26094325Y21705592D01*
X26087094Y21680953D01*
X26088269Y21680590D01*
X26085426Y21671392D01*
X26075500Y21603261D01*
X26075500Y21436740D01*
X26085426Y21368608D01*
X26088270Y21359405D01*
X26085292Y21358485D01*
X26094325Y21305592D01*
X26087094Y21280953D01*
X26088269Y21280590D01*
X26085428Y21271397D01*
X26085427Y21271395D01*
X26085427Y21271393D01*
X26078903Y21226620D01*
X26049761Y21163122D01*
X25990912Y21125458D01*
X25956200Y21120500D01*
X25908985Y21120500D01*
X25782119Y21120500D01*
X25782116Y21120500D01*
X25782114Y21120499D01*
X25761042Y21113653D01*
X25742134Y21109114D01*
X25720250Y21105647D01*
X25720246Y21105646D01*
X25700503Y21095587D01*
X25682539Y21088146D01*
X25661463Y21081297D01*
X25643537Y21068273D01*
X25626952Y21058110D01*
X25607211Y21048052D01*
X25607211Y21048051D01*
X25584646Y21025487D01*
X23497513Y18938354D01*
X23474949Y18915789D01*
X23474948Y18915788D01*
X23464891Y18896051D01*
X23454731Y18879471D01*
X23441706Y18861543D01*
X23441703Y18861538D01*
X23434854Y18840460D01*
X23427413Y18822496D01*
X23417354Y18802752D01*
X23417352Y18802749D01*
X23413886Y18780866D01*
X23409347Y18761958D01*
X23402499Y18740882D01*
X23402499Y18740881D01*
X23402497Y18657632D01*
X23402500Y18657604D01*
X23402500Y15638256D01*
X23382815Y15571217D01*
X23366181Y15550575D01*
X22784699Y14969093D01*
X22723376Y14935608D01*
X22653684Y14940592D01*
X22606766Y14975281D01*
X22605534Y14974048D01*
X22599794Y14979789D01*
X22490015Y15064026D01*
X22362186Y15116973D01*
X22362184Y15116974D01*
X22362183Y15116974D01*
X22348472Y15118780D01*
X22318883Y15122675D01*
X22254987Y15150943D01*
X22216516Y15209268D01*
X22215686Y15279133D01*
X22215994Y15280210D01*
X22232166Y15335875D01*
X22232167Y15335878D01*
X22234931Y15371000D01*
X21339000Y15371000D01*
X21271961Y15390685D01*
X21226206Y15443489D01*
X21215000Y15495000D01*
X21215000Y15871000D01*
X21715000Y15871000D01*
X22234931Y15871000D01*
X22232167Y15906123D01*
X22232166Y15906129D01*
X22187407Y16060189D01*
X22187406Y16060192D01*
X22105738Y16198286D01*
X22105731Y16198295D01*
X21992294Y16311732D01*
X21992285Y16311739D01*
X21854191Y16393407D01*
X21854188Y16393409D01*
X21715001Y16433847D01*
X21715000Y16433846D01*
X21715000Y15871000D01*
X21215000Y15871000D01*
X21215000Y16433846D01*
X21214998Y16433847D01*
X21075811Y16393409D01*
X21075808Y16393407D01*
X20937714Y16311739D01*
X20937709Y16311735D01*
X20867231Y16241257D01*
X20805907Y16207773D01*
X20738596Y16211897D01*
X20661878Y16238742D01*
X20632461Y16241500D01*
X20257546Y16241500D01*
X20228125Y16238742D01*
X20228115Y16238740D01*
X20104207Y16195382D01*
X19998576Y16117424D01*
X19920618Y16011793D01*
X19877258Y15887882D01*
X19877258Y15887880D01*
X19874500Y15858462D01*
X19874500Y15666256D01*
X19854815Y15599217D01*
X19838181Y15578575D01*
X19310926Y15051319D01*
X19249603Y15017834D01*
X19223245Y15015000D01*
X18392500Y15015000D01*
X18325461Y15034685D01*
X18279706Y15087489D01*
X18268500Y15139000D01*
X18268499Y15542374D01*
X18288183Y15609413D01*
X18318189Y15641641D01*
X18375184Y15684307D01*
X18375187Y15684311D01*
X18417859Y15741312D01*
X18473793Y15783183D01*
X18517121Y15791001D01*
X19164948Y15791001D01*
X19164950Y15791001D01*
X19193172Y15795113D01*
X19235509Y15801280D01*
X19344347Y15854488D01*
X19430012Y15940153D01*
X19483220Y16048991D01*
X19493500Y16119551D01*
X19493499Y16313448D01*
X19493423Y16313968D01*
X19483220Y16384006D01*
X19483220Y16384009D01*
X19469515Y16412043D01*
X19457756Y16480911D01*
X19469517Y16520963D01*
X19483220Y16548991D01*
X19493500Y16619551D01*
X19493499Y16813448D01*
X19493173Y16815685D01*
X19485481Y16868489D01*
X19483220Y16884009D01*
X19469515Y16912043D01*
X19457756Y16980911D01*
X19469517Y17020963D01*
X19483220Y17048991D01*
X19493500Y17119551D01*
X19493499Y17313448D01*
X19483220Y17384009D01*
X19469515Y17412043D01*
X19457756Y17480911D01*
X19469517Y17520963D01*
X19483220Y17548991D01*
X19493500Y17619551D01*
X19493499Y17813448D01*
X19492848Y17817916D01*
X19483220Y17884006D01*
X19483220Y17884009D01*
X19469515Y17912043D01*
X19457756Y17980911D01*
X19469517Y18020963D01*
X19483220Y18048991D01*
X19493500Y18119551D01*
X19493499Y18313448D01*
X19492572Y18319810D01*
X19483440Y18382499D01*
X19483220Y18384009D01*
X19469515Y18412043D01*
X19457756Y18480911D01*
X19469517Y18520963D01*
X19483220Y18548991D01*
X19493500Y18619551D01*
X19493499Y18813448D01*
X19490476Y18834197D01*
X19485951Y18865259D01*
X19483220Y18884009D01*
X19469515Y18912043D01*
X19457756Y18980911D01*
X19469517Y19020963D01*
X19483220Y19048991D01*
X19493500Y19119551D01*
X19493499Y19313448D01*
X19491370Y19328060D01*
X19485307Y19369682D01*
X19483220Y19384009D01*
X19430012Y19492847D01*
X19430010Y19492849D01*
X19430010Y19492850D01*
X19344348Y19578512D01*
X19235511Y19631720D01*
X19217869Y19634290D01*
X19164949Y19642000D01*
X19164943Y19642000D01*
X18517126Y19642000D01*
X18450087Y19661685D01*
X18417859Y19691689D01*
X18375190Y19748687D01*
X18375188Y19748690D01*
X18318187Y19791361D01*
X18276317Y19847295D01*
X18268499Y19890623D01*
X18268499Y20197000D01*
X20218210Y20197000D01*
X20219854Y20176090D01*
X20264968Y20020805D01*
X20347278Y19881626D01*
X20347285Y19881617D01*
X20461616Y19767286D01*
X20461625Y19767279D01*
X20600804Y19684969D01*
X20747000Y19642496D01*
X20747000Y20197000D01*
X20218210Y20197000D01*
X18268499Y20197000D01*
X18268499Y20538448D01*
X18258220Y20609009D01*
X18215203Y20697001D01*
X20218209Y20697001D01*
X20218210Y20697000D01*
X20746999Y20697000D01*
X20747000Y21251506D01*
X20746998Y21251507D01*
X20600809Y21209035D01*
X20600806Y21209033D01*
X20461625Y21126722D01*
X20461616Y21126715D01*
X20347285Y21012384D01*
X20347278Y21012375D01*
X20264968Y20873196D01*
X20264966Y20873191D01*
X20219855Y20717919D01*
X20219854Y20717913D01*
X20218209Y20697001D01*
X18215203Y20697001D01*
X18205012Y20717847D01*
X18205010Y20717849D01*
X18205010Y20717850D01*
X18119348Y20803512D01*
X18010511Y20856720D01*
X17990995Y20859563D01*
X17939949Y20867000D01*
X17939943Y20867000D01*
X17746049Y20867000D01*
X17675492Y20856721D01*
X17675491Y20856721D01*
X17647457Y20843016D01*
X17578584Y20831259D01*
X17538543Y20843016D01*
X17510511Y20856719D01*
X17510509Y20856720D01*
X17510506Y20856721D01*
X17501307Y20859563D01*
X17501954Y20861660D01*
X17450240Y20885398D01*
X17412580Y20944250D01*
X17412716Y21014119D01*
X17443941Y21066631D01*
X17729567Y21352257D01*
X17790888Y21385740D01*
X17801045Y21387510D01*
X17854643Y21394566D01*
X17982478Y21447516D01*
X18092251Y21531749D01*
X18176484Y21641522D01*
X18229434Y21769357D01*
X18247495Y21906540D01*
X18229434Y22043723D01*
X18181880Y22158529D01*
X18176485Y22171555D01*
X18176484Y22171556D01*
X18176484Y22171557D01*
X18092251Y22281331D01*
X18092249Y22281332D01*
X18092249Y22281333D01*
X17994977Y22355973D01*
X17982478Y22365564D01*
X17982477Y22365565D01*
X17982475Y22365566D01*
X17854646Y22418513D01*
X17854644Y22418514D01*
X17854643Y22418514D01*
X17763187Y22430555D01*
X17717461Y22436575D01*
X17717459Y22436575D01*
X17648868Y22427545D01*
X17580277Y22418514D01*
X17580276Y22418514D01*
X17580273Y22418513D01*
X17452445Y22365566D01*
X17342666Y22281329D01*
X17312395Y22241878D01*
X17255967Y22200675D01*
X17186221Y22196521D01*
X17138533Y22218989D01*
X17087622Y22258055D01*
X17029018Y22303024D01*
X17029017Y22303025D01*
X17029015Y22303026D01*
X16901186Y22355973D01*
X16901184Y22355974D01*
X16901183Y22355974D01*
X16790934Y22370489D01*
X16764001Y22374035D01*
X16758500Y22374035D01*
X16691461Y22393720D01*
X16645706Y22446524D01*
X16634500Y22498035D01*
X16634500Y22926490D01*
X16634500Y22926500D01*
X16622947Y23033956D01*
X16611741Y23085467D01*
X16610081Y23090454D01*
X16575164Y23195364D01*
X16575903Y23195610D01*
X16565499Y23241460D01*
X16565499Y23323357D01*
X16565499Y23323364D01*
X16565204Y23325912D01*
X16562586Y23348488D01*
X16562585Y23348490D01*
X16562585Y23348491D01*
X16517206Y23451265D01*
X16437765Y23530706D01*
X16359946Y23565067D01*
X16306570Y23610153D01*
X16286043Y23676940D01*
X16304882Y23744222D01*
X16357105Y23790638D01*
X16359850Y23791892D01*
X16388261Y23804437D01*
X16438343Y23815000D01*
X20140501Y23815000D01*
X20207540Y23795315D01*
X20253295Y23742511D01*
X20264501Y23691000D01*
X20264501Y22883644D01*
X20264502Y22883618D01*
X20267413Y22858513D01*
X20267415Y22858509D01*
X20312793Y22755736D01*
X20312794Y22755736D01*
X20312794Y22755735D01*
X20392235Y22676294D01*
X20495009Y22630915D01*
X20520135Y22628000D01*
X20974500Y22628001D01*
X21041539Y22608317D01*
X21087294Y22555513D01*
X21098500Y22504002D01*
X21098500Y21100974D01*
X21099721Y21082342D01*
X21100665Y21067951D01*
X21100664Y21067951D01*
X21106709Y21022036D01*
X21107902Y21012978D01*
X21110745Y20997740D01*
X21117824Y20959787D01*
X21171299Y20826212D01*
X21171300Y20826209D01*
X21186769Y20799415D01*
X21187332Y20797092D01*
X21220030Y20741806D01*
X21230386Y20723869D01*
X21247000Y20661867D01*
X21247000Y20232140D01*
X21227315Y20165101D01*
X21223379Y20159338D01*
X21222930Y20158719D01*
X21222922Y20158708D01*
X21219219Y20153306D01*
X21192328Y20114081D01*
X21192323Y20114072D01*
X21135688Y19981817D01*
X21135684Y19981805D01*
X21115726Y19907321D01*
X21115723Y19907308D01*
X21098500Y19776480D01*
X21098500Y18373500D01*
X21115723Y18242672D01*
X21115726Y18242659D01*
X21131604Y18183402D01*
X21135686Y18168168D01*
X21166880Y18090250D01*
X21180295Y18056740D01*
X21266513Y17941566D01*
X21266519Y17941560D01*
X21266520Y17941558D01*
X21321058Y17887020D01*
X21415405Y17812824D01*
X21415407Y17812823D01*
X21415410Y17812821D01*
X21547657Y17756190D01*
X21547662Y17756189D01*
X21547668Y17756186D01*
X21622168Y17736224D01*
X21710038Y17724656D01*
X21752999Y17719000D01*
X21753000Y17719000D01*
X22344001Y17719000D01*
X22386962Y17724656D01*
X22474832Y17736224D01*
X22549332Y17756186D01*
X22660760Y17800795D01*
X22775942Y17887020D01*
X22830480Y17941558D01*
X22904676Y18035905D01*
X22910040Y18048430D01*
X22961310Y18168158D01*
X22961310Y18168161D01*
X22961314Y18168168D01*
X22981276Y18242668D01*
X22998500Y18373500D01*
X22998500Y25187500D01*
X22981276Y25318332D01*
X22961314Y25392832D01*
X22916705Y25504260D01*
X22916703Y25504263D01*
X22916702Y25504265D01*
X22890232Y25539625D01*
X22865815Y25605089D01*
X22865499Y25613935D01*
X22865499Y26285000D01*
X23579496Y26285000D01*
X24134000Y26285000D01*
X24134000Y26285001D01*
X24633999Y26285001D01*
X24634000Y26285000D01*
X25181000Y26285000D01*
X25181000Y26813790D01*
X25180999Y26813791D01*
X25160087Y26812146D01*
X25160081Y26812145D01*
X25004809Y26767034D01*
X25004801Y26767031D01*
X24970618Y26746815D01*
X24902894Y26729634D01*
X24844378Y26746816D01*
X24810195Y26767032D01*
X24654909Y26812146D01*
X24654912Y26812146D01*
X24634000Y26813791D01*
X24633999Y26285001D01*
X24134000Y26285001D01*
X24134000Y26813790D01*
X24133999Y26813791D01*
X24113087Y26812146D01*
X24113081Y26812145D01*
X23957809Y26767034D01*
X23957804Y26767032D01*
X23818625Y26684722D01*
X23818616Y26684715D01*
X23704285Y26570384D01*
X23704278Y26570375D01*
X23621968Y26431196D01*
X23579496Y26285000D01*
X22865499Y26285000D01*
X22865499Y26773357D01*
X22865499Y26773364D01*
X22865497Y26773383D01*
X22862586Y26798488D01*
X22862585Y26798490D01*
X22862585Y26798491D01*
X22817206Y26901265D01*
X22737765Y26980706D01*
X22673237Y27009198D01*
X22634992Y27026085D01*
X22609865Y27029000D01*
X20520143Y27029000D01*
X20520117Y27028998D01*
X20495012Y27026087D01*
X20495008Y27026085D01*
X20392235Y26980707D01*
X20312794Y26901266D01*
X20267415Y26798494D01*
X20267415Y26798492D01*
X20264500Y26773369D01*
X20264500Y25966000D01*
X20244815Y25898961D01*
X20192011Y25853206D01*
X20140500Y25842000D01*
X16735679Y25842000D01*
X16668640Y25861685D01*
X16622885Y25914489D01*
X16612941Y25983647D01*
X16636413Y26040311D01*
X16708350Y26136407D01*
X16708354Y26136414D01*
X16758596Y26271121D01*
X16758598Y26271128D01*
X16764999Y26330656D01*
X16765000Y26330673D01*
X16765000Y26878500D01*
X13765000Y26878500D01*
X13765000Y26330656D01*
X13771401Y26271128D01*
X13771403Y26271121D01*
X13821645Y26136414D01*
X13821649Y26136407D01*
X13907809Y26021313D01*
X14007726Y25946514D01*
X14049596Y25890580D01*
X14054580Y25820888D01*
X14021098Y25759569D01*
X14012794Y25751265D01*
X13967415Y25648494D01*
X13967415Y25648492D01*
X13964500Y25623369D01*
X13964500Y25290329D01*
X13944815Y25223290D01*
X13892011Y25177535D01*
X13822853Y25167591D01*
X13765013Y25191953D01*
X13763283Y25193281D01*
X13763282Y25193282D01*
X13744286Y25207858D01*
X13735008Y25214978D01*
X13728912Y25220323D01*
X12774320Y26174915D01*
X12768979Y26181006D01*
X12747282Y26209282D01*
X12621841Y26305536D01*
X12602329Y26313618D01*
X12475762Y26366044D01*
X12475760Y26366045D01*
X12358361Y26381500D01*
X12319000Y26386682D01*
X12283670Y26382031D01*
X12275572Y26381500D01*
X10330428Y26381500D01*
X10322329Y26382031D01*
X10287000Y26386682D01*
X10247639Y26381500D01*
X10130239Y26366045D01*
X10130237Y26366044D01*
X9984157Y26305536D01*
X9858719Y26209284D01*
X9837019Y26181006D01*
X9831668Y26174904D01*
X8666171Y25009408D01*
X8604848Y24975923D01*
X8535156Y24980907D01*
X8479224Y25022777D01*
X8399189Y25129689D01*
X8399185Y25129693D01*
X8370236Y25151364D01*
X8328366Y25207298D01*
X8323382Y25276990D01*
X8324507Y25281712D01*
X8340246Y25342500D01*
X7776979Y25342500D01*
X7709940Y25362185D01*
X7664185Y25414989D01*
X7654241Y25484147D01*
X7657713Y25500434D01*
X7670085Y25543919D01*
X7675895Y25564340D01*
X7665546Y25676021D01*
X7665544Y25676025D01*
X7663115Y25684563D01*
X7663701Y25754430D01*
X7701966Y25812890D01*
X7765763Y25841381D01*
X7782381Y25842500D01*
X8345366Y25842500D01*
X8345068Y25844447D01*
X8345066Y25844453D01*
X8274437Y26035158D01*
X8274434Y26035165D01*
X8166850Y26207768D01*
X8026735Y26355169D01*
X8026733Y26355170D01*
X7859804Y26471357D01*
X7672907Y26551560D01*
X7473690Y26592500D01*
X7072000Y26592500D01*
X7072000Y26016500D01*
X7052315Y25949461D01*
X6999511Y25903706D01*
X6948000Y25892500D01*
X6696000Y25892500D01*
X6628961Y25912185D01*
X6583206Y25964989D01*
X6572000Y26016500D01*
X6572000Y26592500D01*
X6221287Y26592500D01*
X6069661Y26577082D01*
X5875618Y26516201D01*
X5875608Y26516196D01*
X5697784Y26417495D01*
X5697783Y26417495D01*
X5543469Y26285022D01*
X5543468Y26285021D01*
X5418981Y26124196D01*
X5329411Y25941594D01*
X5303754Y25842500D01*
X5867021Y25842500D01*
X5934060Y25822815D01*
X5979815Y25770011D01*
X5989759Y25700853D01*
X5986287Y25684566D01*
X5968105Y25620663D01*
X5968104Y25620663D01*
X5978453Y25508983D01*
X5980885Y25500437D01*
X5980299Y25430570D01*
X5942034Y25372110D01*
X5878237Y25343619D01*
X5861619Y25342500D01*
X5298634Y25342500D01*
X5298931Y25340554D01*
X5298933Y25340548D01*
X5369562Y25149843D01*
X5369565Y25149836D01*
X5477149Y24977233D01*
X5617264Y24829832D01*
X5617266Y24829831D01*
X5784196Y24713643D01*
X5795804Y24708662D01*
X5849648Y24664136D01*
X5870872Y24597568D01*
X5852737Y24530093D01*
X5845281Y24519225D01*
X5795808Y24454751D01*
X5795806Y24454748D01*
X5737416Y24313781D01*
X5737415Y24313779D01*
X5717500Y24162502D01*
X5717500Y24162499D01*
X5737415Y24011222D01*
X5737416Y24011220D01*
X5795806Y23870253D01*
X5795807Y23870251D01*
X5795808Y23870250D01*
X5888696Y23749196D01*
X5999376Y23664268D01*
X6040578Y23607842D01*
X6044733Y23538096D01*
X6011570Y23478213D01*
X5790804Y23257446D01*
X5785617Y23252811D01*
X5755033Y23228421D01*
X5755029Y23228417D01*
X5721519Y23179267D01*
X5686206Y23131420D01*
X5682216Y23123871D01*
X5678528Y23116212D01*
X5660992Y23059361D01*
X5641353Y23003237D01*
X5639771Y22994879D01*
X5638500Y22986438D01*
X5638500Y22926965D01*
X5636275Y22867529D01*
X5637316Y22858295D01*
X5636485Y22858202D01*
X5638500Y22842903D01*
X5638500Y19671283D01*
X5638110Y19664345D01*
X5637146Y19655784D01*
X5633729Y19625466D01*
X5644788Y19567021D01*
X5653652Y19508210D01*
X5656162Y19500073D01*
X5658978Y19492025D01*
X5686777Y19439428D01*
X5712576Y19385856D01*
X5717362Y19378835D01*
X5722431Y19371968D01*
X5722434Y19371962D01*
X5764495Y19329901D01*
X5783074Y19309877D01*
X5804947Y19286304D01*
X5812210Y19280512D01*
X5811689Y19279859D01*
X5823930Y19270466D01*
X6020644Y19073752D01*
X6054129Y19012429D01*
X6049145Y18942737D01*
X6008450Y18887696D01*
X5888698Y18795807D01*
X5795806Y18674748D01*
X5737416Y18533781D01*
X5737415Y18533779D01*
X5717500Y18382502D01*
X5717500Y18382499D01*
X5737415Y18231222D01*
X5737416Y18231220D01*
X5795806Y18090253D01*
X5795808Y18090250D01*
X5847277Y18023174D01*
X5872471Y17958005D01*
X5858433Y17889560D01*
X5809619Y17839571D01*
X5809079Y17839269D01*
X5697784Y17777495D01*
X5697783Y17777495D01*
X5543469Y17645022D01*
X5543468Y17645021D01*
X5418981Y17484196D01*
X5329411Y17301594D01*
X5303754Y17202500D01*
X5867021Y17202500D01*
X5934060Y17182815D01*
X5979815Y17130011D01*
X5989759Y17060853D01*
X5986287Y17044566D01*
X5968105Y16980663D01*
X5968104Y16980663D01*
X5978453Y16868983D01*
X5980885Y16860437D01*
X5980299Y16790570D01*
X5942034Y16732110D01*
X5878237Y16703619D01*
X5861619Y16702500D01*
X5298634Y16702500D01*
X5298931Y16700554D01*
X5298933Y16700548D01*
X5369562Y16509843D01*
X5369565Y16509836D01*
X5477149Y16337233D01*
X5617264Y16189832D01*
X5617266Y16189831D01*
X5784195Y16073644D01*
X5971092Y15993441D01*
X6170310Y15952500D01*
X6572000Y15952500D01*
X6572000Y16528500D01*
X6591685Y16595539D01*
X6644489Y16641294D01*
X6696000Y16652500D01*
X6948000Y16652500D01*
X7015039Y16632815D01*
X7060794Y16580011D01*
X7072000Y16528500D01*
X7072000Y15952500D01*
X7422713Y15952500D01*
X7574338Y15967919D01*
X7768381Y16028800D01*
X7768391Y16028805D01*
X7946215Y16127506D01*
X7946216Y16127506D01*
X8100530Y16259979D01*
X8100531Y16259980D01*
X8225018Y16420805D01*
X8314588Y16603407D01*
X8340246Y16702500D01*
X7776979Y16702500D01*
X7709940Y16722185D01*
X7677172Y16760001D01*
X10425209Y16760001D01*
X10425210Y16760000D01*
X10954000Y16760000D01*
X10954000Y17314506D01*
X10953998Y17314507D01*
X10807809Y17272035D01*
X10807806Y17272033D01*
X10668625Y17189722D01*
X10668616Y17189715D01*
X10554285Y17075384D01*
X10554278Y17075375D01*
X10471968Y16936196D01*
X10471966Y16936191D01*
X10426855Y16780919D01*
X10426854Y16780913D01*
X10425209Y16760001D01*
X7677172Y16760001D01*
X7664185Y16774989D01*
X7654241Y16844147D01*
X7657713Y16860434D01*
X7675894Y16924338D01*
X7675895Y16924340D01*
X7665546Y17036018D01*
X7665546Y17036021D01*
X7665544Y17036025D01*
X7663115Y17044563D01*
X7663701Y17114430D01*
X7701966Y17172890D01*
X7765763Y17201381D01*
X7782381Y17202500D01*
X8345366Y17202500D01*
X8345068Y17204446D01*
X8327833Y17250981D01*
X8323009Y17320684D01*
X8356634Y17381930D01*
X8369806Y17393317D01*
X8399190Y17415313D01*
X8399190Y17415314D01*
X8485352Y17530412D01*
X8485354Y17530414D01*
X8535596Y17665121D01*
X8535598Y17665128D01*
X8541999Y17724656D01*
X8542000Y17724673D01*
X8542000Y17822500D01*
X6854187Y17822500D01*
X6787148Y17842185D01*
X6741393Y17894989D01*
X6731449Y17964147D01*
X6755809Y18021985D01*
X6808192Y18090250D01*
X6851769Y18195455D01*
X6895610Y18249857D01*
X6961904Y18271922D01*
X6966330Y18272001D01*
X8086856Y18272001D01*
X8086864Y18272001D01*
X8086879Y18272003D01*
X8086882Y18272003D01*
X8111987Y18274914D01*
X8111988Y18274915D01*
X8111991Y18274915D01*
X8176872Y18303563D01*
X8195832Y18311934D01*
X8245918Y18322500D01*
X8542000Y18322500D01*
X8542000Y18420328D01*
X8541999Y18420345D01*
X8535598Y18479873D01*
X8535596Y18479880D01*
X8485354Y18614587D01*
X8485352Y18614589D01*
X8438631Y18677000D01*
X9537000Y18677000D01*
X9537000Y18629156D01*
X9543401Y18569628D01*
X9543403Y18569621D01*
X9593645Y18434914D01*
X9593649Y18434907D01*
X9679809Y18319813D01*
X9679812Y18319810D01*
X9794906Y18233650D01*
X9794913Y18233646D01*
X9929620Y18183404D01*
X9929627Y18183402D01*
X9989155Y18177001D01*
X9989172Y18177000D01*
X10137000Y18177000D01*
X10137000Y18677000D01*
X9537000Y18677000D01*
X8438631Y18677000D01*
X8399190Y18729687D01*
X8399185Y18729693D01*
X8392185Y18734933D01*
X8350316Y18790868D01*
X8342499Y18834197D01*
X8342499Y18973000D01*
X8362184Y19040039D01*
X8414988Y19085794D01*
X8466499Y19097000D01*
X9413000Y19097000D01*
X9480039Y19077315D01*
X9525794Y19024511D01*
X9535887Y18978113D01*
X9537000Y18977000D01*
X10313000Y18977000D01*
X10380039Y18957315D01*
X10425794Y18904511D01*
X10437000Y18853000D01*
X10437000Y18177000D01*
X10455296Y18158704D01*
X10460024Y18157315D01*
X10505779Y18104511D01*
X10512061Y18087595D01*
X10530591Y18023812D01*
X10530593Y18023809D01*
X10612261Y17885715D01*
X10612268Y17885706D01*
X10725705Y17772269D01*
X10725714Y17772262D01*
X10863808Y17690594D01*
X10863811Y17690593D01*
X11017871Y17645834D01*
X11017877Y17645833D01*
X11053000Y17643069D01*
X11053000Y18539000D01*
X11072685Y18606039D01*
X11125489Y18651794D01*
X11177000Y18663000D01*
X11429000Y18663000D01*
X11496039Y18643315D01*
X11541794Y18590511D01*
X11553000Y18539000D01*
X11553000Y17643070D01*
X11588122Y17645833D01*
X11588128Y17645834D01*
X11742188Y17690593D01*
X11742191Y17690594D01*
X11880285Y17772262D01*
X11880294Y17772269D01*
X11993731Y17885706D01*
X11993738Y17885715D01*
X12061768Y18000747D01*
X12112837Y18048430D01*
X12181579Y18060934D01*
X12246168Y18034289D01*
X12286098Y17976953D01*
X12292500Y17937626D01*
X12292500Y17746948D01*
X12299962Y17723984D01*
X12304503Y17705069D01*
X12306373Y17693262D01*
X12308281Y17681215D01*
X12319243Y17659701D01*
X12326688Y17641727D01*
X12334150Y17618762D01*
X12348340Y17599232D01*
X12358508Y17582639D01*
X12369470Y17561124D01*
X12644436Y17286158D01*
X12677921Y17224835D01*
X12672937Y17155143D01*
X12631065Y17099210D01*
X12610551Y17086754D01*
X12599897Y17081624D01*
X12530955Y17070276D01*
X12505146Y17076306D01*
X12386826Y17117709D01*
X12386814Y17117711D01*
X12357070Y17120500D01*
X12357066Y17120500D01*
X11970934Y17120500D01*
X11970930Y17120500D01*
X11941181Y17117711D01*
X11941180Y17117711D01*
X11918571Y17109799D01*
X11848793Y17106238D01*
X11789936Y17139161D01*
X11739383Y17189715D01*
X11739374Y17189722D01*
X11600193Y17272033D01*
X11600190Y17272034D01*
X11454000Y17314507D01*
X11453999Y17314506D01*
X11454000Y16760000D01*
X11454000Y15744000D01*
X11453999Y14689497D01*
X11600195Y14731969D01*
X11739372Y14814278D01*
X11739380Y14814284D01*
X11789936Y14864840D01*
X11851259Y14898326D01*
X11918569Y14894203D01*
X11941181Y14886290D01*
X11966700Y14883897D01*
X12031607Y14858041D01*
X12042803Y14848120D01*
X12371276Y14519647D01*
X12375902Y14514471D01*
X12398942Y14485580D01*
X12445576Y14453785D01*
X12490986Y14420271D01*
X12490988Y14420271D01*
X12498130Y14416495D01*
X12505416Y14412986D01*
X12559347Y14396350D01*
X12612625Y14377708D01*
X12620553Y14376209D01*
X12628563Y14375001D01*
X12628565Y14375000D01*
X12684992Y14375000D01*
X12741405Y14372889D01*
X12750640Y14373929D01*
X12750739Y14373043D01*
X12765610Y14375000D01*
X13213741Y14375000D01*
X13280780Y14355315D01*
X13289227Y14349376D01*
X13310581Y14332991D01*
X13325375Y14321639D01*
X13459291Y14266170D01*
X13586280Y14249452D01*
X13602999Y14247250D01*
X13603000Y14247250D01*
X13603001Y14247250D01*
X13617977Y14249222D01*
X13746709Y14266170D01*
X13880625Y14321639D01*
X13995621Y14409879D01*
X14083861Y14524875D01*
X14139330Y14658791D01*
X14152415Y14758186D01*
X14180683Y14822082D01*
X14239008Y14860553D01*
X14275355Y14866000D01*
X14329838Y14866000D01*
X14396877Y14846315D01*
X14441238Y14796461D01*
X14480988Y14715152D01*
X14566651Y14629489D01*
X14675488Y14576281D01*
X14675489Y14576281D01*
X14675491Y14576280D01*
X14746051Y14566000D01*
X14939948Y14566001D01*
X14939950Y14566001D01*
X14968172Y14570113D01*
X15010509Y14576280D01*
X15010514Y14576283D01*
X15019709Y14579123D01*
X15020514Y14576517D01*
X15074743Y14585785D01*
X15139045Y14558453D01*
X15148033Y14550304D01*
X15718216Y13980120D01*
X15718236Y13980102D01*
X15738888Y13959450D01*
X15758620Y13949396D01*
X15758628Y13949392D01*
X15775217Y13939226D01*
X15793139Y13926205D01*
X15793140Y13926205D01*
X15793141Y13926204D01*
X15814210Y13919358D01*
X15832179Y13911916D01*
X15851926Y13901854D01*
X15873812Y13898388D01*
X15892727Y13893847D01*
X15913797Y13887000D01*
X15913799Y13887000D01*
X19671127Y13887000D01*
X19738166Y13867315D01*
X19783921Y13814511D01*
X19793865Y13745353D01*
X19764840Y13681797D01*
X19709451Y13645072D01*
X19703512Y13643142D01*
X19700906Y13642295D01*
X19682984Y13629273D01*
X19666398Y13619109D01*
X19646659Y13609051D01*
X19646656Y13609049D01*
X19565530Y13527927D01*
X19565504Y13527897D01*
X19179513Y13141906D01*
X19156949Y13119341D01*
X19156948Y13119340D01*
X19146891Y13099603D01*
X19136731Y13083023D01*
X19123706Y13065095D01*
X19123703Y13065090D01*
X19116854Y13044012D01*
X19109413Y13026048D01*
X19099354Y13006304D01*
X19099352Y13006301D01*
X19095886Y12984418D01*
X19091347Y12965510D01*
X19084499Y12944434D01*
X19084499Y12944433D01*
X19084497Y12861184D01*
X19084500Y12861156D01*
X19084500Y10215123D01*
X19084501Y10215113D01*
X19091346Y10194045D01*
X19095887Y10175134D01*
X19099354Y10153248D01*
X19099355Y10153245D01*
X19109412Y10133507D01*
X19116857Y10115534D01*
X19123704Y10094462D01*
X19136726Y10076538D01*
X19146890Y10059952D01*
X19156950Y10040210D01*
X19177864Y10019296D01*
X19177893Y10019265D01*
X19375181Y9821978D01*
X19408666Y9760655D01*
X19411500Y9734297D01*
X19411499Y3746571D01*
X19411501Y3746561D01*
X19418346Y3725493D01*
X19422887Y3706582D01*
X19426354Y3684696D01*
X19426355Y3684693D01*
X19436412Y3664955D01*
X19443857Y3646982D01*
X19450704Y3625910D01*
X19463726Y3607986D01*
X19473890Y3591400D01*
X19478685Y3581991D01*
X19483950Y3571658D01*
X19504864Y3550744D01*
X19504878Y3550729D01*
X19506515Y3549092D01*
X19506516Y3549091D01*
X19830182Y3225426D01*
X19863666Y3164104D01*
X19866500Y3137746D01*
X19866500Y1822144D01*
X19866502Y1822118D01*
X19869413Y1797013D01*
X19869415Y1797009D01*
X19914793Y1694236D01*
X19914794Y1694235D01*
X19994235Y1614794D01*
X20097009Y1569415D01*
X20122135Y1566500D01*
X23311864Y1566501D01*
X23311879Y1566503D01*
X23311882Y1566503D01*
X23336987Y1569414D01*
X23336988Y1569415D01*
X23336991Y1569415D01*
X23439765Y1614794D01*
X23519206Y1694235D01*
X23564585Y1797009D01*
X23567500Y1822135D01*
X23567499Y2828000D01*
X24273000Y2828000D01*
X24273000Y2655156D01*
X24279401Y2595628D01*
X24279403Y2595621D01*
X24329645Y2460914D01*
X24329649Y2460907D01*
X24415809Y2345813D01*
X24415812Y2345810D01*
X24530906Y2259650D01*
X24530913Y2259646D01*
X24665620Y2209404D01*
X24665627Y2209402D01*
X24725155Y2203001D01*
X24725172Y2203000D01*
X25023000Y2203000D01*
X25023000Y2828000D01*
X25523000Y2828000D01*
X25523000Y2203000D01*
X25820828Y2203000D01*
X25820844Y2203001D01*
X25880372Y2209402D01*
X25880379Y2209404D01*
X26015086Y2259646D01*
X26015093Y2259650D01*
X26130187Y2345810D01*
X26130190Y2345813D01*
X26216350Y2460907D01*
X26216354Y2460914D01*
X26266596Y2595621D01*
X26266598Y2595628D01*
X26272999Y2655156D01*
X26273000Y2655173D01*
X26273000Y2828000D01*
X30273000Y2828000D01*
X30273000Y2655156D01*
X30279401Y2595628D01*
X30279403Y2595621D01*
X30329645Y2460914D01*
X30329649Y2460907D01*
X30415809Y2345813D01*
X30415812Y2345810D01*
X30530906Y2259650D01*
X30530913Y2259646D01*
X30665620Y2209404D01*
X30665627Y2209402D01*
X30725155Y2203001D01*
X30725172Y2203000D01*
X31023000Y2203000D01*
X31023000Y2828000D01*
X31523000Y2828000D01*
X31523000Y2203000D01*
X31820828Y2203000D01*
X31820844Y2203001D01*
X31880372Y2209402D01*
X31880379Y2209404D01*
X32015086Y2259646D01*
X32015093Y2259650D01*
X32130187Y2345810D01*
X32130190Y2345813D01*
X32216350Y2460907D01*
X32216354Y2460914D01*
X32266596Y2595621D01*
X32266598Y2595628D01*
X32272999Y2655156D01*
X32273000Y2655173D01*
X32273000Y2828000D01*
X31523000Y2828000D01*
X31023000Y2828000D01*
X30273000Y2828000D01*
X26273000Y2828000D01*
X25523000Y2828000D01*
X25023000Y2828000D01*
X24273000Y2828000D01*
X23567499Y2828000D01*
X23567499Y3328000D01*
X24273000Y3328000D01*
X25023000Y3328000D01*
X25023000Y3953000D01*
X25523000Y3953000D01*
X25523000Y3328000D01*
X26273000Y3328000D01*
X30273000Y3328000D01*
X31023000Y3328000D01*
X31023000Y3953000D01*
X31523000Y3953000D01*
X31523000Y3328000D01*
X32273000Y3328000D01*
X32273000Y3500828D01*
X32272999Y3500845D01*
X32266598Y3560373D01*
X32266596Y3560380D01*
X32216354Y3695087D01*
X32216350Y3695094D01*
X32130190Y3810188D01*
X32130187Y3810191D01*
X32015093Y3896351D01*
X32015086Y3896355D01*
X31880379Y3946597D01*
X31880372Y3946599D01*
X31820844Y3953000D01*
X31523000Y3953000D01*
X31023000Y3953000D01*
X30725155Y3953000D01*
X30665627Y3946599D01*
X30665620Y3946597D01*
X30530913Y3896355D01*
X30530906Y3896351D01*
X30415812Y3810191D01*
X30415809Y3810188D01*
X30329649Y3695094D01*
X30329645Y3695087D01*
X30279403Y3560380D01*
X30279401Y3560373D01*
X30273000Y3500845D01*
X30273000Y3328000D01*
X26273000Y3328000D01*
X26273000Y3500828D01*
X26272999Y3500845D01*
X26266598Y3560373D01*
X26266596Y3560380D01*
X26216354Y3695087D01*
X26216350Y3695094D01*
X26130190Y3810188D01*
X26130187Y3810191D01*
X26015093Y3896351D01*
X26015086Y3896355D01*
X25880379Y3946597D01*
X25880372Y3946599D01*
X25820844Y3953000D01*
X25523000Y3953000D01*
X25023000Y3953000D01*
X24725155Y3953000D01*
X24665627Y3946599D01*
X24665620Y3946597D01*
X24530913Y3896355D01*
X24530906Y3896351D01*
X24415812Y3810191D01*
X24415809Y3810188D01*
X24329649Y3695094D01*
X24329645Y3695087D01*
X24279403Y3560380D01*
X24279401Y3560373D01*
X24273000Y3500845D01*
X24273000Y3328000D01*
X23567499Y3328000D01*
X23567499Y3511864D01*
X23567497Y3511883D01*
X23564586Y3536988D01*
X23564585Y3536990D01*
X23564585Y3536991D01*
X23519206Y3639765D01*
X23439765Y3719206D01*
X23377812Y3746561D01*
X23336992Y3764585D01*
X23311868Y3767500D01*
X23311865Y3767500D01*
X20472255Y3767500D01*
X20405216Y3787185D01*
X20384574Y3803819D01*
X20293573Y3894820D01*
X20260088Y3956143D01*
X20265072Y4025835D01*
X20306944Y4081768D01*
X20372408Y4106185D01*
X20381254Y4106501D01*
X23311856Y4106501D01*
X23311864Y4106501D01*
X23311879Y4106503D01*
X23311882Y4106503D01*
X23336987Y4109414D01*
X23336988Y4109415D01*
X23336991Y4109415D01*
X23439765Y4154794D01*
X23519206Y4234235D01*
X23564585Y4337009D01*
X23567500Y4362135D01*
X23567499Y6051864D01*
X23567497Y6051883D01*
X23564586Y6076988D01*
X23564585Y6076990D01*
X23564585Y6076991D01*
X23519206Y6179765D01*
X23439765Y6259206D01*
X23392139Y6280235D01*
X23336992Y6304585D01*
X23311868Y6307500D01*
X23311865Y6307500D01*
X22241500Y6307500D01*
X22174461Y6327185D01*
X22128706Y6379989D01*
X22117500Y6431500D01*
X22117500Y7402746D01*
X22137185Y7469785D01*
X22153819Y7490427D01*
X22470573Y7807181D01*
X22531896Y7840666D01*
X22558254Y7843500D01*
X23929431Y7843500D01*
X23929433Y7843500D01*
X23950501Y7850346D01*
X23969417Y7854888D01*
X23991304Y7858354D01*
X24011044Y7868414D01*
X24029011Y7875856D01*
X24050090Y7882704D01*
X24068026Y7895737D01*
X24084588Y7905886D01*
X24104342Y7915950D01*
X24119834Y7931443D01*
X24119841Y7931448D01*
X24352187Y8163794D01*
X24594574Y8406183D01*
X24655897Y8439667D01*
X24682255Y8442501D01*
X25087871Y8442501D01*
X25087872Y8442501D01*
X25147483Y8448909D01*
X25282331Y8499204D01*
X25397546Y8585454D01*
X25427735Y8625782D01*
X25483667Y8667651D01*
X25553358Y8672635D01*
X25614681Y8639150D01*
X25626259Y8625789D01*
X25656454Y8585454D01*
X25656455Y8585454D01*
X25656456Y8585452D01*
X25771664Y8499207D01*
X25771671Y8499203D01*
X25804880Y8486817D01*
X25906517Y8448909D01*
X25966127Y8442500D01*
X26611872Y8442501D01*
X26671483Y8448909D01*
X26806331Y8499204D01*
X26921546Y8585454D01*
X26921548Y8585458D01*
X26927817Y8591725D01*
X26929344Y8590198D01*
X26975606Y8624836D01*
X27045298Y8629828D01*
X27092585Y8608429D01*
X27151601Y8564874D01*
X27168206Y8552619D01*
X27219518Y8534664D01*
X27292119Y8509259D01*
X27299796Y8508540D01*
X27321543Y8506500D01*
X27578743Y8506501D01*
X27645782Y8486817D01*
X27666423Y8470184D01*
X27695862Y8440746D01*
X27722743Y8400515D01*
X27734974Y8370985D01*
X27734975Y8370983D01*
X27734976Y8370982D01*
X27819209Y8261209D01*
X27928982Y8176976D01*
X27928983Y8176976D01*
X27928984Y8176975D01*
X27960807Y8163794D01*
X28056817Y8124026D01*
X28194000Y8105965D01*
X28194000Y8105966D01*
X28202059Y8104904D01*
X28201860Y8103399D01*
X28260161Y8086280D01*
X28305916Y8033476D01*
X28316061Y7998148D01*
X28317025Y7990820D01*
X28317027Y7990814D01*
X28369974Y7862985D01*
X28369975Y7862983D01*
X28369976Y7862982D01*
X28454209Y7753209D01*
X28563982Y7668976D01*
X28691817Y7616026D01*
X28812146Y7600184D01*
X28828999Y7597965D01*
X28829000Y7597965D01*
X28829001Y7597965D01*
X28845854Y7600184D01*
X28966183Y7616026D01*
X29094018Y7668976D01*
X29203791Y7753209D01*
X29288024Y7862982D01*
X29340974Y7990817D01*
X29359035Y8128000D01*
X29356471Y8147472D01*
X29367235Y8216504D01*
X29391726Y8251335D01*
X29515483Y8375091D01*
X29515482Y8375091D01*
X29538050Y8397658D01*
X29538051Y8397661D01*
X29542317Y8401926D01*
X29546401Y8414050D01*
X29548118Y8417421D01*
X29558271Y8433986D01*
X29571296Y8451910D01*
X29571298Y8451915D01*
X29573541Y8458817D01*
X29612978Y8516493D01*
X29677336Y8543692D01*
X29691472Y8544500D01*
X29851770Y8544500D01*
X29882199Y8547354D01*
X29882201Y8547354D01*
X29946290Y8569781D01*
X30010382Y8592207D01*
X30119650Y8672850D01*
X30200293Y8782118D01*
X30236993Y8887000D01*
X30245146Y8910299D01*
X30245146Y8910301D01*
X30248000Y8940731D01*
X30248000Y9349267D01*
X30246099Y9369533D01*
X30259437Y9438118D01*
X30307737Y9488604D01*
X30375665Y9504962D01*
X30410511Y9498155D01*
X30411573Y9497784D01*
X30412801Y9497354D01*
X30412800Y9497354D01*
X30443230Y9494500D01*
X30443234Y9494500D01*
X30580500Y9494500D01*
X30647539Y9474815D01*
X30693294Y9422011D01*
X30704500Y9370500D01*
X30704500Y7582042D01*
X30684815Y7515003D01*
X30632011Y7469248D01*
X30630601Y7468615D01*
X30600238Y7455207D01*
X30600233Y7455205D01*
X30520794Y7375766D01*
X30501652Y7332413D01*
X30456566Y7279037D01*
X30389779Y7258510D01*
X30388218Y7258500D01*
X26157782Y7258500D01*
X26090743Y7278185D01*
X26044988Y7330989D01*
X26044348Y7332413D01*
X26037849Y7347131D01*
X26025206Y7375765D01*
X25945765Y7455206D01*
X25945765Y7455207D01*
X25842992Y7500585D01*
X25817865Y7503500D01*
X24728143Y7503500D01*
X24728117Y7503498D01*
X24703012Y7500587D01*
X24703008Y7500585D01*
X24600235Y7455207D01*
X24520794Y7375766D01*
X24475415Y7272994D01*
X24475415Y7272992D01*
X24472500Y7247869D01*
X24472500Y6408144D01*
X24472502Y6408118D01*
X24475413Y6383013D01*
X24475415Y6383009D01*
X24520793Y6280236D01*
X24520794Y6280236D01*
X24520794Y6280235D01*
X24600235Y6200794D01*
X24703009Y6155415D01*
X24728135Y6152500D01*
X25817864Y6152501D01*
X25817879Y6152503D01*
X25817882Y6152503D01*
X25842987Y6155414D01*
X25842988Y6155415D01*
X25842991Y6155415D01*
X25945765Y6200794D01*
X26025206Y6280235D01*
X26070585Y6383009D01*
X26070584Y6383009D01*
X26070840Y6383586D01*
X26115926Y6436962D01*
X26182712Y6457490D01*
X26184274Y6457500D01*
X30361726Y6457500D01*
X30428765Y6437815D01*
X30474520Y6385011D01*
X30475160Y6383586D01*
X30520793Y6280236D01*
X30520794Y6280236D01*
X30520794Y6280235D01*
X30600235Y6200794D01*
X30703009Y6155415D01*
X30728135Y6152500D01*
X31817864Y6152501D01*
X31817879Y6152503D01*
X31817882Y6152503D01*
X31842987Y6155414D01*
X31842988Y6155415D01*
X31842991Y6155415D01*
X31945765Y6200794D01*
X32025206Y6280235D01*
X32070585Y6383009D01*
X32073500Y6408135D01*
X32073499Y7247864D01*
X32072266Y7258500D01*
X32070586Y7272988D01*
X32070585Y7272990D01*
X32070585Y7272991D01*
X32025206Y7375765D01*
X31945765Y7455206D01*
X31945765Y7455207D01*
X31842992Y7500585D01*
X31817868Y7503500D01*
X31817865Y7503500D01*
X31629500Y7503500D01*
X31562461Y7523185D01*
X31516706Y7575989D01*
X31505500Y7627500D01*
X31505500Y9370500D01*
X31525185Y9437539D01*
X31577989Y9483294D01*
X31629500Y9494500D01*
X31726770Y9494500D01*
X31757199Y9497354D01*
X31757201Y9497354D01*
X31831700Y9523423D01*
X31885382Y9542207D01*
X31994650Y9622850D01*
X32010358Y9644135D01*
X32066006Y9686385D01*
X32110128Y9694500D01*
X32150207Y9694500D01*
X32217246Y9674815D01*
X32263001Y9622011D01*
X32272945Y9552853D01*
X32249977Y9496866D01*
X32191618Y9417793D01*
X32148258Y9293882D01*
X32148258Y9293880D01*
X32145500Y9264462D01*
X32145500Y8889547D01*
X32148258Y8860126D01*
X32148260Y8860117D01*
X32163294Y8817153D01*
X32166857Y8747375D01*
X32140212Y8699730D01*
X32142157Y8698238D01*
X32137211Y8691793D01*
X32137209Y8691791D01*
X32100921Y8644500D01*
X32052974Y8582015D01*
X32000027Y8454187D01*
X32000026Y8454184D01*
X32000026Y8454183D01*
X31981965Y8317000D01*
X31994894Y8218794D01*
X32000026Y8179819D01*
X32000027Y8179814D01*
X32052974Y8051985D01*
X32052975Y8051983D01*
X32052976Y8051982D01*
X32137209Y7942209D01*
X32246982Y7857976D01*
X32246983Y7857976D01*
X32246984Y7857975D01*
X32258121Y7853362D01*
X32374817Y7805026D01*
X32497702Y7788848D01*
X32511999Y7786965D01*
X32512000Y7786965D01*
X32512001Y7786965D01*
X32524947Y7788670D01*
X32649183Y7805026D01*
X32777018Y7857976D01*
X32886791Y7942209D01*
X32971024Y8051982D01*
X33023974Y8179817D01*
X33025667Y8192684D01*
X33053931Y8256577D01*
X33060900Y8264154D01*
X33190970Y8394223D01*
X33252289Y8427704D01*
X33321981Y8422720D01*
X33341769Y8413269D01*
X33355802Y8404970D01*
X33355804Y8404969D01*
X33511089Y8359855D01*
X33532000Y8358211D01*
X33532000Y8887000D01*
X34032000Y8887000D01*
X34032000Y8358211D01*
X34052910Y8359855D01*
X34208195Y8404969D01*
X34347374Y8487279D01*
X34347383Y8487286D01*
X34461714Y8601617D01*
X34461721Y8601626D01*
X34544031Y8740805D01*
X34586504Y8887000D01*
X34032000Y8887000D01*
X33532000Y8887000D01*
X33532000Y9263000D01*
X33551685Y9330039D01*
X33604489Y9375794D01*
X33656000Y9387000D01*
X34586504Y9387000D01*
X34574871Y9427043D01*
X34575071Y9496912D01*
X34613014Y9555582D01*
X34673333Y9582921D01*
X34673333Y9582923D01*
X34673345Y9582927D01*
X34676652Y9584425D01*
X34677731Y9584572D01*
X34681183Y9585026D01*
X34809018Y9637976D01*
X34918791Y9722209D01*
X35003024Y9831982D01*
X35055974Y9959817D01*
X35074035Y10097000D01*
X35055974Y10234183D01*
X35016410Y10329699D01*
X35003025Y10362015D01*
X35003024Y10362016D01*
X35003024Y10362017D01*
X34918791Y10471791D01*
X34918789Y10471792D01*
X34918789Y10471793D01*
X34833848Y10536971D01*
X34809018Y10556024D01*
X34809017Y10556025D01*
X34809015Y10556026D01*
X34681186Y10608973D01*
X34681184Y10608974D01*
X34681183Y10608974D01*
X34586938Y10621382D01*
X34544001Y10627035D01*
X34543999Y10627035D01*
X34406819Y10608975D01*
X34397585Y10605150D01*
X34332532Y10578205D01*
X34263064Y10570737D01*
X34211449Y10592997D01*
X34160157Y10630852D01*
X34160155Y10630853D01*
X34034826Y10674709D01*
X34034814Y10674711D01*
X34005070Y10677500D01*
X34005066Y10677500D01*
X33558934Y10677500D01*
X33558930Y10677500D01*
X33529185Y10674711D01*
X33529173Y10674709D01*
X33403844Y10630853D01*
X33347535Y10589295D01*
X33281906Y10565325D01*
X33213736Y10580641D01*
X33200269Y10589295D01*
X33173606Y10608973D01*
X33156794Y10621381D01*
X33156792Y10621382D01*
X33032880Y10664742D01*
X33003461Y10667500D01*
X32528546Y10667500D01*
X32499125Y10664742D01*
X32499115Y10664740D01*
X32375207Y10621382D01*
X32269577Y10543423D01*
X32263003Y10536849D01*
X32261492Y10538360D01*
X32215736Y10503617D01*
X32171610Y10495500D01*
X32110128Y10495500D01*
X32043089Y10515185D01*
X32010358Y10545866D01*
X32005981Y10551797D01*
X31994650Y10567150D01*
X31885382Y10647793D01*
X31885380Y10647794D01*
X31757200Y10692647D01*
X31726770Y10695500D01*
X31726766Y10695500D01*
X30443234Y10695500D01*
X30443230Y10695500D01*
X30412800Y10692647D01*
X30412798Y10692646D01*
X30410500Y10691842D01*
X30408696Y10691751D01*
X30405427Y10691036D01*
X30405308Y10691578D01*
X30340721Y10688288D01*
X30280097Y10723022D01*
X30247876Y10785019D01*
X30246099Y10820466D01*
X30248000Y10840734D01*
X30248000Y11249266D01*
X30245146Y11279699D01*
X30245146Y11279700D01*
X30245146Y11279702D01*
X30200293Y11407881D01*
X30200292Y11407883D01*
X30198361Y11410500D01*
X30119650Y11517150D01*
X30010382Y11597793D01*
X30010380Y11597794D01*
X29882200Y11642647D01*
X29851770Y11645500D01*
X29851766Y11645500D01*
X28568234Y11645500D01*
X28568230Y11645500D01*
X28537800Y11642647D01*
X28537798Y11642647D01*
X28409619Y11597794D01*
X28409617Y11597793D01*
X28300350Y11517150D01*
X28284642Y11495866D01*
X28228994Y11453615D01*
X28184872Y11445500D01*
X27966948Y11445500D01*
X27966924Y11445499D01*
X27937564Y11445499D01*
X27916499Y11438654D01*
X27897582Y11434113D01*
X27875700Y11430648D01*
X27875695Y11430646D01*
X27855950Y11420586D01*
X27837986Y11413145D01*
X27816907Y11406295D01*
X27798984Y11393273D01*
X27782398Y11383109D01*
X27762659Y11373051D01*
X27762656Y11373049D01*
X27681530Y11291927D01*
X27681504Y11291897D01*
X27462532Y11072926D01*
X27401209Y11039441D01*
X27331517Y11044425D01*
X27275584Y11086297D01*
X27256466Y11123716D01*
X27207018Y11282397D01*
X27119072Y11427878D01*
X26998877Y11548073D01*
X26853395Y11636020D01*
X26853396Y11636020D01*
X26691105Y11686591D01*
X26691106Y11686591D01*
X26620572Y11693000D01*
X26539000Y11693000D01*
X26539000Y10667000D01*
X26519315Y10599961D01*
X26466511Y10554206D01*
X26415000Y10543000D01*
X23856756Y10543000D01*
X23789717Y10562685D01*
X23769075Y10579319D01*
X23743287Y10605107D01*
X23743256Y10605136D01*
X23722342Y10626050D01*
X23722341Y10626051D01*
X23702600Y10636110D01*
X23686014Y10646274D01*
X23668090Y10659296D01*
X23668091Y10659296D01*
X23647018Y10666143D01*
X23629045Y10673588D01*
X23609305Y10683646D01*
X23601383Y10686220D01*
X23543709Y10725660D01*
X23516513Y10790020D01*
X23526270Y10854236D01*
X23564585Y10941009D01*
X23567500Y10966135D01*
X23567499Y10966150D01*
X23567706Y10969704D01*
X23567912Y10969693D01*
X23567913Y10969694D01*
X23567946Y10969691D01*
X23568540Y10969656D01*
X23587165Y11033149D01*
X23639956Y11078919D01*
X23669819Y11083222D01*
X23668873Y11083374D01*
X23721183Y11083374D01*
X23772676Y11059875D01*
X23779180Y11053820D01*
X23790000Y11043000D01*
X24515000Y11043000D01*
X25015000Y11043000D01*
X26039000Y11043000D01*
X26039000Y11693000D01*
X26038999Y11693001D01*
X25957417Y11693000D01*
X25886897Y11686592D01*
X25886892Y11686591D01*
X25724602Y11636019D01*
X25591150Y11555344D01*
X25523595Y11537508D01*
X25462850Y11555344D01*
X25329396Y11636020D01*
X25167105Y11686591D01*
X25167106Y11686591D01*
X25096572Y11693000D01*
X25015000Y11693000D01*
X25015000Y11043000D01*
X24515000Y11043000D01*
X24515000Y11693000D01*
X24514999Y11693001D01*
X24433417Y11693000D01*
X24362897Y11686592D01*
X24362892Y11686591D01*
X24200603Y11636019D01*
X24055122Y11548073D01*
X23934927Y11427878D01*
X23846981Y11282397D01*
X23809884Y11163350D01*
X23771146Y11105202D01*
X23721183Y11083374D01*
X23668873Y11083374D01*
X23638136Y11088311D01*
X23586093Y11134930D01*
X23567499Y11200238D01*
X23567499Y12655864D01*
X23567497Y12655883D01*
X23564586Y12680988D01*
X23564585Y12680990D01*
X23564585Y12680991D01*
X23519206Y12783765D01*
X23439765Y12863206D01*
X23439764Y12863207D01*
X23336992Y12908585D01*
X23311868Y12911500D01*
X23311865Y12911500D01*
X22621702Y12911500D01*
X22554663Y12931185D01*
X22508908Y12983989D01*
X22498964Y13053147D01*
X22527989Y13116703D01*
X22534021Y13123181D01*
X23486025Y14075185D01*
X24303840Y14893000D01*
X27726496Y14893000D01*
X28281000Y14893000D01*
X28281000Y15421790D01*
X28280999Y15421791D01*
X28260087Y15420146D01*
X28260081Y15420145D01*
X28104809Y15375034D01*
X28104804Y15375032D01*
X27965625Y15292722D01*
X27965616Y15292715D01*
X27851285Y15178384D01*
X27851278Y15178375D01*
X27768968Y15039196D01*
X27726496Y14893000D01*
X24303840Y14893000D01*
X24435483Y15024643D01*
X24435483Y15024644D01*
X24458050Y15047210D01*
X24468107Y15066951D01*
X24478271Y15083538D01*
X24491296Y15101462D01*
X24498140Y15122530D01*
X24505586Y15140507D01*
X24515646Y15160248D01*
X24519112Y15182137D01*
X24523652Y15201051D01*
X24530499Y15222119D01*
X24530499Y15251476D01*
X24530500Y15251501D01*
X24530500Y18030001D01*
X25411209Y18030001D01*
X25411210Y18030000D01*
X25939999Y18030000D01*
X25939999Y18584507D01*
X25939998Y18584507D01*
X25793809Y18542035D01*
X25793806Y18542033D01*
X25654625Y18459722D01*
X25654616Y18459715D01*
X25540285Y18345384D01*
X25540278Y18345375D01*
X25457968Y18206196D01*
X25457966Y18206191D01*
X25412855Y18050919D01*
X25412854Y18050913D01*
X25411209Y18030001D01*
X24530500Y18030001D01*
X24530500Y18324746D01*
X24550185Y18391785D01*
X24566819Y18412427D01*
X26037574Y19883181D01*
X26098897Y19916666D01*
X26125255Y19919500D01*
X26392740Y19919500D01*
X26645664Y19919500D01*
X26712703Y19899815D01*
X26758458Y19847011D01*
X26768402Y19777853D01*
X26760225Y19748048D01*
X26712027Y19631687D01*
X26712026Y19631684D01*
X26712026Y19631683D01*
X26711207Y19625465D01*
X26694752Y19500474D01*
X26693965Y19494500D01*
X26712026Y19357317D01*
X26725858Y19323923D01*
X26751386Y19262291D01*
X26758854Y19192822D01*
X26727578Y19130343D01*
X26684277Y19100279D01*
X26616226Y19072091D01*
X26593733Y19062774D01*
X26525958Y19010768D01*
X26483959Y18978541D01*
X26399724Y18868765D01*
X26346777Y18740937D01*
X26346776Y18740934D01*
X26346776Y18740933D01*
X26328715Y18603750D01*
X26344962Y18480342D01*
X26346776Y18466569D01*
X26346777Y18466564D01*
X26399725Y18338732D01*
X26414374Y18319642D01*
X26439569Y18254473D01*
X26439999Y18244155D01*
X26440000Y17654000D01*
X26420316Y17586961D01*
X26367512Y17541206D01*
X26316000Y17530000D01*
X25411210Y17530000D01*
X25407130Y17525588D01*
X25395984Y17472539D01*
X25346930Y17422785D01*
X25302920Y17408254D01*
X25262817Y17402974D01*
X25262813Y17402973D01*
X25134985Y17350026D01*
X25025209Y17265791D01*
X24940974Y17156015D01*
X24888027Y17028187D01*
X24888026Y17028184D01*
X24888026Y17028183D01*
X24869965Y16891000D01*
X24887401Y16758561D01*
X24888026Y16753819D01*
X24888027Y16753814D01*
X24940974Y16625985D01*
X24940975Y16625983D01*
X24940976Y16625982D01*
X25025209Y16516209D01*
X25074102Y16478691D01*
X25115304Y16422263D01*
X25119459Y16352517D01*
X25096992Y16304832D01*
X25083259Y16286934D01*
X25067974Y16267015D01*
X25015027Y16139187D01*
X25015026Y16139184D01*
X25015026Y16139183D01*
X25012441Y16119551D01*
X24997740Y16007883D01*
X24996965Y16002000D01*
X25011989Y15887882D01*
X25015026Y15864819D01*
X25015027Y15864814D01*
X25067974Y15736985D01*
X25067975Y15736983D01*
X25067976Y15736982D01*
X25152209Y15627209D01*
X25261982Y15542976D01*
X25389817Y15490026D01*
X25512702Y15473848D01*
X25526999Y15471965D01*
X25527000Y15471965D01*
X25527001Y15471965D01*
X25539947Y15473670D01*
X25664183Y15490026D01*
X25792018Y15542976D01*
X25834893Y15575876D01*
X25900060Y15601070D01*
X25910379Y15601500D01*
X27812931Y15601500D01*
X27812933Y15601500D01*
X27834001Y15608346D01*
X27852917Y15612888D01*
X27874804Y15616354D01*
X27894544Y15626414D01*
X27912511Y15633856D01*
X27933590Y15640704D01*
X27951526Y15653737D01*
X27968088Y15663886D01*
X27987842Y15673950D01*
X28003334Y15689443D01*
X28003341Y15689448D01*
X28298552Y15984659D01*
X28298557Y15984666D01*
X28314050Y16000158D01*
X28324109Y16019902D01*
X28334272Y16036485D01*
X28347297Y16054411D01*
X28354144Y16075486D01*
X28361589Y16093460D01*
X28371646Y16113196D01*
X28375111Y16135079D01*
X28379654Y16153998D01*
X28386499Y16175065D01*
X28386500Y16175067D01*
X28386500Y16301933D01*
X28386500Y16758561D01*
X28406185Y16825600D01*
X28422819Y16846242D01*
X29359759Y17783181D01*
X30309758Y18733181D01*
X30371082Y18766666D01*
X30397440Y18769500D01*
X30509255Y18769500D01*
X30509260Y18769500D01*
X30577393Y18779427D01*
X30577396Y18779429D01*
X30577399Y18779429D01*
X30586596Y18782270D01*
X30587516Y18779291D01*
X30640390Y18788327D01*
X30665039Y18781090D01*
X30665404Y18782270D01*
X30674600Y18779429D01*
X30674604Y18779429D01*
X30674607Y18779427D01*
X30727380Y18771738D01*
X30790877Y18742597D01*
X30828542Y18683748D01*
X30833500Y18649035D01*
X30833500Y16587000D01*
X30813815Y16519961D01*
X30761011Y16474206D01*
X30709500Y16463000D01*
X30519000Y16463000D01*
X30519000Y15237000D01*
X30499315Y15169961D01*
X30446511Y15124206D01*
X30395000Y15113000D01*
X30143000Y15113000D01*
X30075961Y15132685D01*
X30030206Y15185489D01*
X30019000Y15237000D01*
X30019000Y16463000D01*
X29521155Y16463000D01*
X29461627Y16456599D01*
X29461620Y16456597D01*
X29326913Y16406355D01*
X29326906Y16406351D01*
X29211812Y16320191D01*
X29211809Y16320188D01*
X29125649Y16205094D01*
X29125645Y16205087D01*
X29075403Y16070380D01*
X29075401Y16070373D01*
X29069000Y16010845D01*
X29069000Y15507703D01*
X29049315Y15440664D01*
X28996511Y15394909D01*
X28927353Y15384965D01*
X28910406Y15388626D01*
X28801912Y15420146D01*
X28781000Y15421791D01*
X28781000Y14517000D01*
X28761315Y14449961D01*
X28708511Y14404206D01*
X28657000Y14393000D01*
X27726496Y14393000D01*
X27768968Y14246805D01*
X27851278Y14107626D01*
X27851285Y14107617D01*
X27901839Y14057064D01*
X27935325Y13995741D01*
X27931201Y13928429D01*
X27923289Y13905820D01*
X27923289Y13905819D01*
X27920500Y13876071D01*
X27920500Y13489930D01*
X27923289Y13460186D01*
X27923291Y13460174D01*
X27967147Y13334845D01*
X27967148Y13334843D01*
X28046001Y13228001D01*
X28152843Y13149148D01*
X28191003Y13135796D01*
X28278173Y13105292D01*
X28278177Y13105292D01*
X28278181Y13105290D01*
X28293057Y13103895D01*
X28307930Y13102500D01*
X28307934Y13102500D01*
X28754070Y13102500D01*
X28767289Y13103740D01*
X28783819Y13105290D01*
X28783823Y13105292D01*
X28783826Y13105292D01*
X28909157Y13149148D01*
X28909158Y13149149D01*
X29015993Y13227996D01*
X29015995Y13227999D01*
X29015999Y13228001D01*
X29016001Y13228005D01*
X29022566Y13234569D01*
X29024510Y13232625D01*
X29068558Y13266069D01*
X29112682Y13274185D01*
X29144501Y13274185D01*
X29211540Y13254500D01*
X29257295Y13201696D01*
X29268501Y13150185D01*
X29268501Y13018144D01*
X29268502Y13018118D01*
X29271413Y12993013D01*
X29271415Y12993009D01*
X29316793Y12890236D01*
X29316794Y12890235D01*
X29396235Y12810794D01*
X29499009Y12765415D01*
X29524135Y12762500D01*
X31013864Y12762501D01*
X31013879Y12762503D01*
X31013882Y12762503D01*
X31038987Y12765414D01*
X31038988Y12765415D01*
X31038991Y12765415D01*
X31141765Y12810794D01*
X31150067Y12819097D01*
X31211385Y12852580D01*
X31281077Y12847598D01*
X31337012Y12805728D01*
X31337013Y12805727D01*
X31411812Y12705810D01*
X31526906Y12619650D01*
X31526913Y12619646D01*
X31661620Y12569404D01*
X31661627Y12569402D01*
X31721155Y12563001D01*
X31721172Y12563000D01*
X32219000Y12563000D01*
X32219000Y13413000D01*
X32719000Y13413000D01*
X32719000Y12563000D01*
X33216828Y12563000D01*
X33216844Y12563001D01*
X33276372Y12569402D01*
X33276379Y12569404D01*
X33411086Y12619646D01*
X33411093Y12619650D01*
X33526187Y12705810D01*
X33526190Y12705813D01*
X33612350Y12820907D01*
X33612354Y12820914D01*
X33662596Y12955621D01*
X33662598Y12955628D01*
X33668999Y13015156D01*
X33669000Y13015173D01*
X33669000Y13413000D01*
X32719000Y13413000D01*
X32219000Y13413000D01*
X32219000Y13789000D01*
X32238685Y13856039D01*
X32291489Y13901794D01*
X32343000Y13913000D01*
X33585099Y13913000D01*
X33652138Y13893315D01*
X33697893Y13840511D01*
X33699660Y13836452D01*
X33708999Y13813905D01*
X33765620Y13757283D01*
X33765625Y13757279D01*
X33904804Y13674969D01*
X34060089Y13629855D01*
X34081000Y13628211D01*
X34081000Y14157000D01*
X34581000Y14157000D01*
X34581000Y13628211D01*
X34601910Y13629855D01*
X34757195Y13674969D01*
X34896374Y13757279D01*
X34896383Y13757286D01*
X35010714Y13871617D01*
X35010721Y13871626D01*
X35093031Y14010805D01*
X35135504Y14157000D01*
X34581000Y14157000D01*
X34081000Y14157000D01*
X34081000Y14533000D01*
X34100685Y14600039D01*
X34153489Y14645794D01*
X34205000Y14657000D01*
X35135504Y14657000D01*
X35093031Y14803196D01*
X35010721Y14942375D01*
X35010714Y14942384D01*
X34960159Y14992939D01*
X34926674Y15054262D01*
X34930798Y15121572D01*
X34938710Y15144181D01*
X34940655Y15164923D01*
X34941500Y15173930D01*
X34941500Y15560071D01*
X34938710Y15589815D01*
X34938710Y15589819D01*
X34938708Y15589823D01*
X34938708Y15589827D01*
X34905647Y15684307D01*
X34894852Y15715157D01*
X34815999Y15821999D01*
X34709157Y15900852D01*
X34709155Y15900853D01*
X34583826Y15944709D01*
X34583814Y15944711D01*
X34554070Y15947500D01*
X34554066Y15947500D01*
X34107934Y15947500D01*
X34107930Y15947500D01*
X34078185Y15944711D01*
X34078173Y15944709D01*
X33952842Y15900853D01*
X33952841Y15900852D01*
X33846006Y15822005D01*
X33839434Y15815431D01*
X33837647Y15817218D01*
X33792976Y15783301D01*
X33748853Y15775185D01*
X33593499Y15775185D01*
X33526460Y15794870D01*
X33480705Y15847674D01*
X33469499Y15899185D01*
X33469499Y16007857D01*
X33469499Y16007864D01*
X33469411Y16008621D01*
X33466586Y16032988D01*
X33466585Y16032990D01*
X33466585Y16032991D01*
X33421206Y16135765D01*
X33341765Y16215206D01*
X33341764Y16215207D01*
X33332286Y16221699D01*
X33334715Y16225246D01*
X33298512Y16255849D01*
X33278009Y16322643D01*
X33278000Y16324159D01*
X33278000Y16796000D01*
X33778000Y16796000D01*
X33778000Y16267211D01*
X33798910Y16268855D01*
X33954194Y16313968D01*
X33972874Y16325016D01*
X34040597Y16342201D01*
X34099119Y16325019D01*
X34117805Y16313969D01*
X34273089Y16268855D01*
X34294000Y16267211D01*
X34294000Y16796000D01*
X34794000Y16796000D01*
X34794000Y16267211D01*
X34814910Y16268855D01*
X34970195Y16313969D01*
X35109374Y16396279D01*
X35109383Y16396286D01*
X35223714Y16510617D01*
X35223721Y16510626D01*
X35306031Y16649805D01*
X35348504Y16796000D01*
X34794000Y16796000D01*
X34294000Y16796000D01*
X33778000Y16796000D01*
X33278000Y16796000D01*
X32386000Y16796000D01*
X32318961Y16815685D01*
X32273206Y16868489D01*
X32262000Y16920000D01*
X32262000Y17172000D01*
X32281685Y17239039D01*
X32334489Y17284794D01*
X32386000Y17296000D01*
X35348504Y17296000D01*
X35306031Y17442196D01*
X35223721Y17581375D01*
X35223714Y17581384D01*
X35173159Y17631939D01*
X35139674Y17693262D01*
X35143798Y17760572D01*
X35151710Y17783181D01*
X35153364Y17800822D01*
X35154500Y17812930D01*
X35154500Y18199071D01*
X35151710Y18228815D01*
X35151710Y18228819D01*
X35151708Y18228823D01*
X35151708Y18228827D01*
X35107852Y18354156D01*
X35107852Y18354157D01*
X35028999Y18460999D01*
X35028996Y18461001D01*
X35028994Y18461004D01*
X34999215Y18482982D01*
X34956965Y18538630D01*
X34954919Y18544432D01*
X34953719Y18548125D01*
X34953719Y18548126D01*
X34942753Y18569646D01*
X34935308Y18587622D01*
X34927849Y18610581D01*
X34913653Y18630120D01*
X34903493Y18646699D01*
X34892528Y18668220D01*
X34797220Y18763528D01*
X34790155Y18770593D01*
X34790148Y18770599D01*
X34035819Y19524929D01*
X34002334Y19586252D01*
X33999500Y19612610D01*
X33999500Y19803551D01*
X34019185Y19870590D01*
X34071989Y19916345D01*
X34105618Y19926255D01*
X34127393Y19929427D01*
X34232483Y19980802D01*
X34232488Y19980808D01*
X34235296Y19982811D01*
X34239780Y19984370D01*
X34241714Y19985315D01*
X34241828Y19985082D01*
X34301293Y20005750D01*
X34369215Y19989366D01*
X34395036Y19969579D01*
X34447993Y19916622D01*
X34481478Y19855299D01*
X34483157Y19845827D01*
X34487035Y19817609D01*
X34487035Y19817608D01*
X34487036Y19817606D01*
X34546230Y19681326D01*
X34600270Y19612536D01*
X34600273Y19612533D01*
X34600277Y19612528D01*
X34900527Y19312278D01*
X34900531Y19312275D01*
X34900536Y19312270D01*
X34969326Y19258230D01*
X35096798Y19202862D01*
X35150444Y19158100D01*
X35164352Y19121499D01*
X35166850Y19122198D01*
X35169138Y19114032D01*
X35229154Y18975863D01*
X35229156Y18975859D01*
X35283951Y18906107D01*
X35553207Y18636852D01*
X35553211Y18636849D01*
X35553216Y18636844D01*
X35622967Y18582049D01*
X35761136Y18522033D01*
X35761143Y18522033D01*
X35767344Y18520294D01*
X35826587Y18483254D01*
X35853292Y18434348D01*
X35855032Y18428139D01*
X35855032Y18428138D01*
X35855033Y18428136D01*
X35890978Y18345384D01*
X35915048Y18289969D01*
X35915050Y18289965D01*
X35969845Y18220213D01*
X36239101Y17950958D01*
X36239105Y17950955D01*
X36239110Y17950950D01*
X36308861Y17896155D01*
X36447030Y17836139D01*
X36447031Y17836139D01*
X36454810Y17832760D01*
X36453589Y17829950D01*
X36500215Y17800822D01*
X36521281Y17767833D01*
X36576230Y17641326D01*
X36630270Y17572536D01*
X36630273Y17572533D01*
X36630277Y17572528D01*
X36930527Y17272278D01*
X36930531Y17272275D01*
X36930536Y17272270D01*
X36999326Y17218230D01*
X36999328Y17218229D01*
X36999331Y17218227D01*
X37135602Y17159037D01*
X37135604Y17159037D01*
X37135606Y17159036D01*
X37160551Y17155608D01*
X37224285Y17126980D01*
X37231349Y17120444D01*
X37685481Y16666311D01*
X37685612Y16666188D01*
X37699300Y16652500D01*
X37730587Y16621212D01*
X37730595Y16621205D01*
X37730596Y16621204D01*
X37787198Y16577772D01*
X37894397Y16495514D01*
X37894400Y16495512D01*
X37894408Y16495506D01*
X38073225Y16392264D01*
X38263988Y16313246D01*
X38463433Y16259803D01*
X38668147Y16232851D01*
X38719195Y16232851D01*
X38775488Y16219337D01*
X38862375Y16175065D01*
X38867698Y16172353D01*
X38961475Y16157501D01*
X38961481Y16157500D01*
X39246001Y16157501D01*
X39313039Y16137817D01*
X39358794Y16085013D01*
X39370000Y16033501D01*
X39370000Y424500D01*
X39350315Y357461D01*
X39297511Y311706D01*
X39246000Y300500D01*
X18031000Y300500D01*
X17963961Y320185D01*
X17918206Y372989D01*
X17907000Y424500D01*
X17907000Y13462000D01*
X551500Y13462000D01*
X484461Y13481685D01*
X438706Y13534489D01*
X427500Y13586000D01*
X427500Y15244000D01*
X10425210Y15244000D01*
X10426854Y15223090D01*
X10471968Y15067805D01*
X10554278Y14928626D01*
X10554285Y14928617D01*
X10668616Y14814286D01*
X10668625Y14814279D01*
X10807804Y14731969D01*
X10954000Y14689496D01*
X10954000Y15244000D01*
X10425210Y15244000D01*
X427500Y15244000D01*
X427500Y15744001D01*
X10425209Y15744001D01*
X10425210Y15744000D01*
X10954000Y15744000D01*
X10954000Y16260000D01*
X10425210Y16260000D01*
X10426854Y16239090D01*
X10471968Y16083805D01*
X10483019Y16065118D01*
X10500199Y15997394D01*
X10483019Y15938882D01*
X10471968Y15920196D01*
X10471966Y15920191D01*
X10426855Y15764919D01*
X10426854Y15764913D01*
X10425209Y15744001D01*
X427500Y15744001D01*
X427500Y16702500D01*
X1248634Y16702500D01*
X1248931Y16700554D01*
X1248933Y16700548D01*
X1319562Y16509843D01*
X1319565Y16509836D01*
X1427149Y16337233D01*
X1567264Y16189832D01*
X1567266Y16189831D01*
X1734195Y16073644D01*
X1921092Y15993441D01*
X2120310Y15952500D01*
X2371999Y15952500D01*
X2372000Y16528500D01*
X2391685Y16595539D01*
X2444489Y16641294D01*
X2496000Y16652500D01*
X2748000Y16652500D01*
X2815039Y16632815D01*
X2860794Y16580011D01*
X2872000Y16528500D01*
X2871999Y15952500D01*
X3072713Y15952500D01*
X3224338Y15967919D01*
X3418381Y16028800D01*
X3418391Y16028805D01*
X3596215Y16127506D01*
X3596216Y16127506D01*
X3750530Y16259979D01*
X3750531Y16259980D01*
X3875018Y16420805D01*
X3964588Y16603407D01*
X3990246Y16702500D01*
X3426979Y16702500D01*
X3359940Y16722185D01*
X3314185Y16774989D01*
X3304241Y16844147D01*
X3307713Y16860434D01*
X3325894Y16924338D01*
X3325895Y16924340D01*
X3315546Y17036018D01*
X3315546Y17036021D01*
X3315544Y17036025D01*
X3313115Y17044563D01*
X3313701Y17114430D01*
X3351966Y17172890D01*
X3415763Y17201381D01*
X3432381Y17202500D01*
X3995366Y17202500D01*
X3995068Y17204447D01*
X3995066Y17204453D01*
X3924437Y17395158D01*
X3924434Y17395165D01*
X3816850Y17567768D01*
X3676735Y17715169D01*
X3676733Y17715170D01*
X3509804Y17831357D01*
X3322907Y17911560D01*
X3123690Y17952500D01*
X2872000Y17952500D01*
X2872000Y17376500D01*
X2852315Y17309461D01*
X2799511Y17263706D01*
X2748000Y17252500D01*
X2496000Y17252500D01*
X2428961Y17272185D01*
X2383206Y17324989D01*
X2372000Y17376500D01*
X2372000Y17952500D01*
X2171287Y17952500D01*
X2019661Y17937082D01*
X1825618Y17876201D01*
X1825608Y17876196D01*
X1647784Y17777495D01*
X1647783Y17777495D01*
X1493469Y17645022D01*
X1493468Y17645021D01*
X1368981Y17484196D01*
X1279411Y17301594D01*
X1253754Y17202500D01*
X1817021Y17202500D01*
X1884060Y17182815D01*
X1929815Y17130011D01*
X1939759Y17060853D01*
X1936287Y17044566D01*
X1918105Y16980663D01*
X1918104Y16980663D01*
X1928453Y16868983D01*
X1930885Y16860437D01*
X1930299Y16790570D01*
X1892034Y16732110D01*
X1828237Y16703619D01*
X1811619Y16702500D01*
X1248634Y16702500D01*
X427500Y16702500D01*
X427500Y25342500D01*
X1248634Y25342500D01*
X1248931Y25340554D01*
X1248933Y25340548D01*
X1319562Y25149843D01*
X1319565Y25149836D01*
X1427149Y24977233D01*
X1567264Y24829832D01*
X1567266Y24829831D01*
X1734195Y24713644D01*
X1921092Y24633441D01*
X2120310Y24592500D01*
X2371999Y24592500D01*
X2372000Y25168500D01*
X2391685Y25235539D01*
X2444489Y25281294D01*
X2496000Y25292500D01*
X2748000Y25292500D01*
X2815039Y25272815D01*
X2860794Y25220011D01*
X2872000Y25168500D01*
X2871999Y24592500D01*
X3072713Y24592500D01*
X3224338Y24607919D01*
X3418381Y24668800D01*
X3418391Y24668805D01*
X3596215Y24767506D01*
X3596216Y24767506D01*
X3750530Y24899979D01*
X3750531Y24899980D01*
X3875018Y25060805D01*
X3964588Y25243407D01*
X3990246Y25342500D01*
X3426979Y25342500D01*
X3359940Y25362185D01*
X3314185Y25414989D01*
X3304241Y25484147D01*
X3307713Y25500434D01*
X3320085Y25543919D01*
X3325895Y25564340D01*
X3315546Y25676021D01*
X3315544Y25676025D01*
X3313115Y25684563D01*
X3313701Y25754430D01*
X3351966Y25812890D01*
X3415763Y25841381D01*
X3432381Y25842500D01*
X3995366Y25842500D01*
X3995068Y25844447D01*
X3995066Y25844453D01*
X3924437Y26035158D01*
X3924434Y26035165D01*
X3816850Y26207768D01*
X3676735Y26355169D01*
X3676733Y26355170D01*
X3509804Y26471357D01*
X3322907Y26551560D01*
X3123690Y26592500D01*
X2872000Y26592500D01*
X2872000Y26016500D01*
X2852315Y25949461D01*
X2799511Y25903706D01*
X2748000Y25892500D01*
X2496000Y25892500D01*
X2428961Y25912185D01*
X2383206Y25964989D01*
X2372000Y26016500D01*
X2372000Y26592500D01*
X2171287Y26592500D01*
X2019661Y26577082D01*
X1825618Y26516201D01*
X1825608Y26516196D01*
X1647784Y26417495D01*
X1647783Y26417495D01*
X1493469Y26285022D01*
X1493468Y26285021D01*
X1368981Y26124196D01*
X1279411Y25941594D01*
X1253754Y25842500D01*
X1817021Y25842500D01*
X1884060Y25822815D01*
X1929815Y25770011D01*
X1939759Y25700853D01*
X1936287Y25684566D01*
X1918105Y25620663D01*
X1918104Y25620663D01*
X1928453Y25508983D01*
X1930885Y25500437D01*
X1930299Y25430570D01*
X1892034Y25372110D01*
X1828237Y25343619D01*
X1811619Y25342500D01*
X1248634Y25342500D01*
X427500Y25342500D01*
X427500Y27378500D01*
X13765000Y27378500D01*
X15015000Y27378500D01*
X15015000Y28378500D01*
X15515000Y28378500D01*
X15515000Y27378500D01*
X16764999Y27378500D01*
X16765000Y27926328D01*
X16764999Y27926345D01*
X16758598Y27985873D01*
X16758596Y27985880D01*
X16708354Y28120587D01*
X16708350Y28120594D01*
X16622190Y28235688D01*
X16622187Y28235691D01*
X16507093Y28321851D01*
X16507086Y28321855D01*
X16372379Y28372097D01*
X16372372Y28372099D01*
X16312844Y28378500D01*
X15515000Y28378500D01*
X15015000Y28378500D01*
X14217155Y28378500D01*
X14157627Y28372099D01*
X14157620Y28372097D01*
X14022913Y28321855D01*
X14022906Y28321851D01*
X13907812Y28235691D01*
X13907809Y28235688D01*
X13821649Y28120594D01*
X13821645Y28120587D01*
X13771403Y27985880D01*
X13771401Y27985873D01*
X13765000Y27926345D01*
X13765000Y27378500D01*
X427500Y27378500D01*
X427500Y28895500D01*
X447185Y28962539D01*
X499989Y29008294D01*
X551500Y29019500D01*
X17906999Y29019500D01*
X17907000Y29019500D01*
X17907000Y42176845D01*
X17926685Y42243883D01*
X17979489Y42289638D01*
X18031000Y42300844D01*
X39246000Y42300844D01*
X39313039Y42281159D01*
G37*
%TD.AperFunction*%
%TA.AperFunction,Conductor*%
G36*
X12085942Y25160815D02*
G01*
X12106583Y25144182D01*
X12698181Y24552583D01*
X12731665Y24491262D01*
X12734499Y24464904D01*
X12734499Y24043711D01*
X12714814Y23976672D01*
X12662010Y23930917D01*
X12602047Y23922296D01*
X12597000Y23918506D01*
X12597000Y22988000D01*
X12577315Y22920961D01*
X12524511Y22875206D01*
X12473000Y22864000D01*
X12221000Y22864000D01*
X12153961Y22883685D01*
X12108206Y22936489D01*
X12097000Y22988000D01*
X12097000Y23882000D01*
X11177000Y23882000D01*
X11109961Y23901685D01*
X11064206Y23954489D01*
X11053000Y24006000D01*
X11053000Y24382001D01*
X11552999Y24382001D01*
X11553000Y24382000D01*
X12115844Y24382000D01*
X12075404Y24521195D01*
X11993738Y24659286D01*
X11993731Y24659295D01*
X11880294Y24772732D01*
X11880285Y24772739D01*
X11742191Y24854407D01*
X11742188Y24854408D01*
X11588130Y24899166D01*
X11553000Y24901932D01*
X11552999Y24382001D01*
X11053000Y24382001D01*
X11052999Y24901932D01*
X11017869Y24899166D01*
X11017868Y24899166D01*
X10863811Y24854408D01*
X10863808Y24854407D01*
X10725714Y24772739D01*
X10725705Y24772732D01*
X10612268Y24659295D01*
X10612261Y24659286D01*
X10530593Y24521192D01*
X10530591Y24521189D01*
X10512061Y24457405D01*
X10474455Y24398519D01*
X10461607Y24392608D01*
X10437000Y24368000D01*
X10437000Y23692000D01*
X10417315Y23624961D01*
X10364511Y23579206D01*
X10313000Y23568000D01*
X9537000Y23568000D01*
X9537000Y23520156D01*
X9543401Y23460628D01*
X9543403Y23460621D01*
X9593645Y23325914D01*
X9593647Y23325912D01*
X9679809Y23210814D01*
X9686079Y23204544D01*
X9684880Y23203346D01*
X9720500Y23155759D01*
X9725482Y23086067D01*
X9692000Y23024751D01*
X9651572Y22984321D01*
X9590250Y22950834D01*
X9563889Y22948000D01*
X8586036Y22948000D01*
X8518997Y22967685D01*
X8473242Y23020489D01*
X8463298Y23089647D01*
X8492323Y23153203D01*
X8510550Y23170376D01*
X8598667Y23237991D01*
X8606782Y23244218D01*
X8628484Y23272502D01*
X8633810Y23278577D01*
X9325319Y23970086D01*
X9386642Y24003570D01*
X9456334Y23998586D01*
X9512267Y23956714D01*
X9536684Y23891250D01*
X9537000Y23882404D01*
X9537000Y23868000D01*
X10137000Y23868000D01*
X10137000Y24368000D01*
X10022597Y24368000D01*
X9955558Y24387685D01*
X9909803Y24440489D01*
X9899859Y24509647D01*
X9928884Y24573203D01*
X9934916Y24579681D01*
X10499416Y25144181D01*
X10560739Y25177666D01*
X10587097Y25180500D01*
X12018903Y25180500D01*
X12085942Y25160815D01*
G37*
%TD.AperFunction*%
%TA.AperFunction,Conductor*%
G36*
X7615039Y25292815D02*
G01*
X7660794Y25240011D01*
X7672000Y25188500D01*
X7672000Y24397000D01*
X7652315Y24329961D01*
X7599511Y24284206D01*
X7548000Y24273000D01*
X6966330Y24273000D01*
X6899291Y24292685D01*
X6853536Y24345489D01*
X6851769Y24349547D01*
X6808193Y24454747D01*
X6808192Y24454750D01*
X6755810Y24523016D01*
X6730617Y24588183D01*
X6744655Y24656627D01*
X6793469Y24706617D01*
X6854187Y24722500D01*
X7172000Y24722500D01*
X7172000Y25168500D01*
X7191685Y25235539D01*
X7244489Y25281294D01*
X7296000Y25292500D01*
X7399799Y25292500D01*
X7399802Y25292500D01*
X7482250Y25307912D01*
X7482251Y25307914D01*
X7493544Y25310024D01*
X7493898Y25308131D01*
X7517271Y25312500D01*
X7548000Y25312500D01*
X7615039Y25292815D01*
G37*
%TD.AperFunction*%
%TD*%
M02*
