%TF.GenerationSoftware,KiCad,Pcbnew,7.0.7*%
%TF.CreationDate,2024-01-20T15:39:34+01:00*%
%TF.ProjectId,esp-atx-power,6573702d-6174-4782-9d70-6f7765722e6b,1.0.0*%
%TF.SameCoordinates,PX6695f68PY7b6af88*%
%TF.FileFunction,Drillmap*%
%TF.FilePolarity,Positive*%
%FSLAX45Y45*%
G04 Gerber Fmt 4.5, Leading zero omitted, Abs format (unit mm)*
G04 Created by KiCad (PCBNEW 7.0.7) date 2024-01-20 15:39:34*
%MOMM*%
%LPD*%
G01*
G04 APERTURE LIST*
%ADD10C,0.200000*%
%ADD11C,0.030000*%
%ADD12C,0.040000*%
%ADD13C,0.060000*%
%ADD14C,0.065000*%
%ADD15C,0.100000*%
G04 APERTURE END LIST*
D10*
X4484504Y3980734D02*
G75*
G03*
X4205100Y4260134I-279404J-4D01*
G01*
X4203700Y0D02*
G75*
G03*
X4483100Y279400I0J279400D01*
G01*
X292100Y4260134D02*
X4205100Y4260134D01*
X12700Y279400D02*
G75*
G03*
X292100Y0I279400J0D01*
G01*
X4484500Y3980734D02*
X4483100Y279400D01*
X4203700Y0D02*
X292100Y0D01*
X12700Y279400D02*
X12700Y3980734D01*
X292100Y4260130D02*
G75*
G03*
X12700Y3980734I0J-279400D01*
G01*
D11*
X73900Y2770900D02*
X103900Y2740900D01*
X103900Y2770900D02*
X73900Y2740900D01*
X73900Y2643900D02*
X103900Y2613900D01*
X103900Y2643900D02*
X73900Y2613900D01*
X73900Y2516900D02*
X103900Y2486900D01*
X103900Y2516900D02*
X73900Y2486900D01*
X73900Y2389900D02*
X103900Y2359900D01*
X103900Y2389900D02*
X73900Y2359900D01*
X73900Y2262900D02*
X103900Y2232900D01*
X103900Y2262900D02*
X73900Y2232900D01*
X73900Y2135900D02*
X103900Y2105900D01*
X103900Y2135900D02*
X73900Y2105900D01*
X73900Y2008900D02*
X103900Y1978900D01*
X103900Y2008900D02*
X73900Y1978900D01*
X73900Y1881900D02*
X103900Y1851900D01*
X103900Y1881900D02*
X73900Y1851900D01*
X73900Y1754900D02*
X103900Y1724900D01*
X103900Y1754900D02*
X73900Y1724900D01*
X73900Y1627900D02*
X103900Y1597900D01*
X103900Y1627900D02*
X73900Y1597900D01*
X73900Y1500900D02*
X103900Y1470900D01*
X103900Y1500900D02*
X73900Y1470900D01*
X175500Y2859800D02*
X205500Y2829800D01*
X205500Y2859800D02*
X175500Y2829800D01*
X175500Y1412000D02*
X205500Y1382000D01*
X205500Y1412000D02*
X175500Y1382000D01*
X239000Y2262900D02*
X269000Y2232900D01*
X269000Y2262900D02*
X239000Y2232900D01*
X239000Y2008900D02*
X269000Y1978900D01*
X269000Y2008900D02*
X239000Y1978900D01*
X302500Y2859800D02*
X332500Y2829800D01*
X332500Y2859800D02*
X302500Y2829800D01*
X302500Y1412000D02*
X332500Y1382000D01*
X332500Y1412000D02*
X302500Y1382000D01*
X429500Y2859800D02*
X459500Y2829800D01*
X459500Y2859800D02*
X429500Y2829800D01*
X429500Y2643900D02*
X459500Y2613900D01*
X459500Y2643900D02*
X429500Y2613900D01*
X429500Y2389900D02*
X459500Y2359900D01*
X459500Y2389900D02*
X429500Y2359900D01*
X429500Y2135900D02*
X459500Y2105900D01*
X459500Y2135900D02*
X429500Y2105900D01*
X429500Y1881900D02*
X459500Y1851900D01*
X459500Y1881900D02*
X429500Y1851900D01*
X429500Y1627900D02*
X459500Y1597900D01*
X459500Y1627900D02*
X429500Y1597900D01*
X429500Y1412000D02*
X459500Y1382000D01*
X459500Y1412000D02*
X429500Y1382000D01*
X556500Y2859800D02*
X586500Y2829800D01*
X586500Y2859800D02*
X556500Y2829800D01*
X556500Y1412000D02*
X586500Y1382000D01*
X586500Y1412000D02*
X556500Y1382000D01*
X683500Y2859800D02*
X713500Y2829800D01*
X713500Y2859800D02*
X683500Y2829800D01*
X683500Y1412000D02*
X713500Y1382000D01*
X713500Y1412000D02*
X683500Y1382000D01*
X810500Y2859800D02*
X840500Y2829800D01*
X840500Y2859800D02*
X810500Y2829800D01*
X810500Y1412000D02*
X840500Y1382000D01*
X840500Y1412000D02*
X810500Y1382000D01*
X886700Y2643900D02*
X916700Y2613900D01*
X916700Y2643900D02*
X886700Y2613900D01*
X886700Y1869200D02*
X916700Y1839200D01*
X916700Y1869200D02*
X886700Y1839200D01*
X912100Y2351800D02*
X942100Y2321800D01*
X942100Y2351800D02*
X912100Y2321800D01*
X937500Y2859800D02*
X967500Y2829800D01*
X967500Y2859800D02*
X937500Y2829800D01*
X937500Y1627900D02*
X967500Y1597900D01*
X967500Y1627900D02*
X937500Y1597900D01*
X937500Y1412000D02*
X967500Y1382000D01*
X967500Y1412000D02*
X937500Y1382000D01*
X938900Y2142250D02*
X968900Y2112250D01*
X968900Y2142250D02*
X938900Y2112250D01*
X1013700Y2453400D02*
X1043700Y2423400D01*
X1043700Y2453400D02*
X1013700Y2423400D01*
X1013700Y1767600D02*
X1043700Y1737600D01*
X1043700Y1767600D02*
X1013700Y1737600D01*
X1064500Y2859800D02*
X1094500Y2829800D01*
X1094500Y2859800D02*
X1064500Y2829800D01*
X1064500Y1412000D02*
X1094500Y1382000D01*
X1094500Y1412000D02*
X1064500Y1382000D01*
X1191500Y2859800D02*
X1221500Y2829800D01*
X1221500Y2859800D02*
X1191500Y2829800D01*
X1191500Y1412000D02*
X1221500Y1382000D01*
X1221500Y1412000D02*
X1191500Y1382000D01*
X1216900Y2428000D02*
X1246900Y2398000D01*
X1246900Y2428000D02*
X1216900Y2398000D01*
X1280400Y1564400D02*
X1310400Y1534400D01*
X1310400Y1564400D02*
X1280400Y1534400D01*
X1318500Y2859800D02*
X1348500Y2829800D01*
X1348500Y2859800D02*
X1318500Y2829800D01*
X1318500Y2643900D02*
X1348500Y2613900D01*
X1348500Y2643900D02*
X1318500Y2613900D01*
X1318500Y1412000D02*
X1348500Y1382000D01*
X1348500Y1412000D02*
X1318500Y1382000D01*
X1345300Y1495250D02*
X1375300Y1465250D01*
X1375300Y1495250D02*
X1345300Y1465250D01*
X1394700Y2243850D02*
X1424700Y2213850D01*
X1424700Y2243850D02*
X1394700Y2213850D01*
X1445500Y2859800D02*
X1475500Y2829800D01*
X1475500Y2859800D02*
X1445500Y2829800D01*
X1445500Y2123200D02*
X1475500Y2093200D01*
X1475500Y2123200D02*
X1445500Y2093200D01*
X1445500Y1412000D02*
X1475500Y1382000D01*
X1475500Y1412000D02*
X1445500Y1382000D01*
X1559800Y1843800D02*
X1589800Y1813800D01*
X1589800Y1843800D02*
X1559800Y1813800D01*
X1559800Y1729500D02*
X1589800Y1699500D01*
X1589800Y1729500D02*
X1559800Y1699500D01*
X1566150Y2142250D02*
X1596150Y2112250D01*
X1596150Y2142250D02*
X1566150Y2112250D01*
X1572500Y2859800D02*
X1602500Y2829800D01*
X1602500Y2859800D02*
X1572500Y2829800D01*
X1572500Y1386600D02*
X1602500Y1356600D01*
X1602500Y1386600D02*
X1572500Y1356600D01*
X1661400Y2199400D02*
X1691400Y2169400D01*
X1691400Y2199400D02*
X1661400Y2169400D01*
X1674100Y1843800D02*
X1704100Y1813800D01*
X1704100Y1843800D02*
X1674100Y1813800D01*
X1674100Y1729500D02*
X1704100Y1699500D01*
X1704100Y1729500D02*
X1674100Y1699500D01*
X1699500Y2859800D02*
X1729500Y2829800D01*
X1729500Y2859800D02*
X1699500Y2829800D01*
X1699500Y2643900D02*
X1729500Y2613900D01*
X1729500Y2643900D02*
X1699500Y2613900D01*
X1699500Y2364500D02*
X1729500Y2334500D01*
X1729500Y2364500D02*
X1699500Y2334500D01*
X1699500Y1386600D02*
X1729500Y1356600D01*
X1729500Y1386600D02*
X1699500Y1356600D01*
X1756746Y2205654D02*
X1786746Y2175654D01*
X1786746Y2205654D02*
X1756746Y2175654D01*
X1826500Y4193300D02*
X1856500Y4163300D01*
X1856500Y4193300D02*
X1826500Y4163300D01*
X1826500Y4040900D02*
X1856500Y4010900D01*
X1856500Y4040900D02*
X1826500Y4010900D01*
X1826500Y3913900D02*
X1856500Y3883900D01*
X1856500Y3913900D02*
X1826500Y3883900D01*
X1826500Y3786900D02*
X1856500Y3756900D01*
X1856500Y3786900D02*
X1826500Y3756900D01*
X1826500Y3659900D02*
X1856500Y3629900D01*
X1856500Y3659900D02*
X1826500Y3629900D01*
X1826500Y3532900D02*
X1856500Y3502900D01*
X1856500Y3532900D02*
X1826500Y3502900D01*
X1826500Y3405900D02*
X1856500Y3375900D01*
X1856500Y3405900D02*
X1826500Y3375900D01*
X1826500Y3278900D02*
X1856500Y3248900D01*
X1856500Y3278900D02*
X1826500Y3248900D01*
X1826500Y3151900D02*
X1856500Y3121900D01*
X1856500Y3151900D02*
X1826500Y3121900D01*
X1826500Y3024900D02*
X1856500Y2994900D01*
X1856500Y3024900D02*
X1826500Y2994900D01*
X1826500Y2897900D02*
X1856500Y2867900D01*
X1856500Y2897900D02*
X1826500Y2867900D01*
X1826500Y1373900D02*
X1856500Y1343900D01*
X1856500Y1373900D02*
X1826500Y1343900D01*
X1826500Y1246900D02*
X1856500Y1216900D01*
X1856500Y1246900D02*
X1826500Y1216900D01*
X1826500Y1119900D02*
X1856500Y1089900D01*
X1856500Y1119900D02*
X1826500Y1089900D01*
X1826500Y992900D02*
X1856500Y962900D01*
X1856500Y992900D02*
X1826500Y962900D01*
X1826500Y865900D02*
X1856500Y835900D01*
X1856500Y865900D02*
X1826500Y835900D01*
X1826500Y738900D02*
X1856500Y708900D01*
X1856500Y738900D02*
X1826500Y708900D01*
X1826500Y611900D02*
X1856500Y581900D01*
X1856500Y611900D02*
X1826500Y581900D01*
X1826500Y472200D02*
X1856500Y442200D01*
X1856500Y472200D02*
X1826500Y442200D01*
X1826500Y357900D02*
X1856500Y327900D01*
X1856500Y357900D02*
X1826500Y327900D01*
X1826500Y230900D02*
X1856500Y200900D01*
X1856500Y230900D02*
X1826500Y200900D01*
X1826500Y103900D02*
X1856500Y73900D01*
X1856500Y103900D02*
X1826500Y73900D01*
X1864600Y1551700D02*
X1894600Y1521700D01*
X1894600Y1551700D02*
X1864600Y1521700D01*
X1953500Y4193300D02*
X1983500Y4163300D01*
X1983500Y4193300D02*
X1953500Y4163300D01*
X1953500Y2796300D02*
X1983500Y2766300D01*
X1983500Y2796300D02*
X1953500Y2766300D01*
X1953500Y2643900D02*
X1983500Y2613900D01*
X1983500Y2643900D02*
X1953500Y2613900D01*
X1953500Y2364500D02*
X1983500Y2334500D01*
X1983500Y2364500D02*
X1953500Y2334500D01*
X1953500Y2212100D02*
X1983500Y2182100D01*
X1983500Y2212100D02*
X1953500Y2182100D01*
X1953500Y103900D02*
X1983500Y73900D01*
X1983500Y103900D02*
X1953500Y73900D01*
X1978900Y1678700D02*
X2008900Y1648700D01*
X2008900Y1678700D02*
X1978900Y1648700D01*
X2036050Y3882150D02*
X2066050Y3852150D01*
X2066050Y3882150D02*
X2036050Y3852150D01*
X2067800Y1958100D02*
X2097800Y1928100D01*
X2097800Y1958100D02*
X2067800Y1928100D01*
X2080500Y4193300D02*
X2110500Y4163300D01*
X2110500Y4193300D02*
X2080500Y4163300D01*
X2080500Y103900D02*
X2110500Y73900D01*
X2110500Y103900D02*
X2080500Y73900D01*
X2144000Y3571000D02*
X2174000Y3541000D01*
X2174000Y3571000D02*
X2144000Y3541000D01*
X2182100Y2123200D02*
X2212100Y2093200D01*
X2212100Y2123200D02*
X2182100Y2093200D01*
X2182100Y1997600D02*
X2212100Y1967600D01*
X2212100Y1997600D02*
X2182100Y1967600D01*
X2182100Y1881900D02*
X2212100Y1851900D01*
X2212100Y1881900D02*
X2182100Y1851900D01*
X2207500Y4193300D02*
X2237500Y4163300D01*
X2237500Y4193300D02*
X2207500Y4163300D01*
X2207500Y2897900D02*
X2237500Y2867900D01*
X2237500Y2897900D02*
X2207500Y2867900D01*
X2207500Y1475500D02*
X2237500Y1445500D01*
X2237500Y1475500D02*
X2207500Y1445500D01*
X2207500Y103900D02*
X2237500Y73900D01*
X2237500Y103900D02*
X2207500Y73900D01*
X2296400Y1780300D02*
X2326400Y1750300D01*
X2326400Y1780300D02*
X2296400Y1750300D01*
X2334500Y4193300D02*
X2364500Y4163300D01*
X2364500Y4193300D02*
X2334500Y4163300D01*
X2334500Y103900D02*
X2364500Y73900D01*
X2364500Y103900D02*
X2334500Y73900D01*
X2359900Y1119900D02*
X2389900Y1089900D01*
X2389900Y1119900D02*
X2359900Y1089900D01*
X2372600Y3913900D02*
X2402600Y3883900D01*
X2402600Y3913900D02*
X2372600Y3883900D01*
X2372600Y3659900D02*
X2402600Y3629900D01*
X2402600Y3659900D02*
X2372600Y3629900D01*
X2372600Y777000D02*
X2402600Y747000D01*
X2402600Y777000D02*
X2372600Y747000D01*
X2372600Y611900D02*
X2402600Y581900D01*
X2402600Y611900D02*
X2372600Y581900D01*
X2372600Y357900D02*
X2402600Y327900D01*
X2402600Y357900D02*
X2372600Y327900D01*
X2385300Y1412000D02*
X2415300Y1382000D01*
X2415300Y1412000D02*
X2385300Y1382000D01*
X2398000Y3101100D02*
X2428000Y3071100D01*
X2428000Y3101100D02*
X2398000Y3071100D01*
X2428000Y2707400D02*
X2458000Y2677400D01*
X2458000Y2707400D02*
X2428000Y2677400D01*
X2436100Y2415300D02*
X2466100Y2385300D01*
X2466100Y2415300D02*
X2436100Y2385300D01*
X2436100Y2288300D02*
X2466100Y2258300D01*
X2466100Y2288300D02*
X2436100Y2258300D01*
X2436100Y2161300D02*
X2466100Y2131300D01*
X2466100Y2161300D02*
X2436100Y2131300D01*
X2436100Y2047000D02*
X2466100Y2017000D01*
X2466100Y2047000D02*
X2436100Y2017000D01*
X2436100Y1285000D02*
X2466100Y1255000D01*
X2466100Y1285000D02*
X2436100Y1255000D01*
X2461500Y4193300D02*
X2491500Y4163300D01*
X2491500Y4193300D02*
X2461500Y4163300D01*
X2461500Y103900D02*
X2491500Y73900D01*
X2491500Y103900D02*
X2461500Y73900D01*
X2499600Y1793000D02*
X2529600Y1763000D01*
X2529600Y1793000D02*
X2499600Y1763000D01*
X2525000Y2707400D02*
X2555000Y2677400D01*
X2555000Y2707400D02*
X2525000Y2677400D01*
X2525000Y1704100D02*
X2555000Y1674100D01*
X2555000Y1704100D02*
X2525000Y1674100D01*
X2537700Y1615200D02*
X2567700Y1585200D01*
X2567700Y1615200D02*
X2537700Y1585200D01*
X2563100Y2415300D02*
X2593100Y2385300D01*
X2593100Y2415300D02*
X2563100Y2385300D01*
X2563100Y2288300D02*
X2593100Y2258300D01*
X2593100Y2288300D02*
X2563100Y2258300D01*
X2563100Y2161300D02*
X2593100Y2131300D01*
X2593100Y2161300D02*
X2563100Y2131300D01*
X2575800Y1932700D02*
X2605800Y1902700D01*
X2605800Y1932700D02*
X2575800Y1902700D01*
X2588500Y4193300D02*
X2618500Y4163300D01*
X2618500Y4193300D02*
X2588500Y4163300D01*
X2588500Y3659900D02*
X2618500Y3629900D01*
X2618500Y3659900D02*
X2588500Y3629900D01*
X2588500Y3164600D02*
X2618500Y3134600D01*
X2618500Y3164600D02*
X2588500Y3134600D01*
X2588500Y103900D02*
X2618500Y73900D01*
X2618500Y103900D02*
X2588500Y73900D01*
X2664700Y802400D02*
X2694700Y772400D01*
X2694700Y802400D02*
X2664700Y772400D01*
X2670875Y1875375D02*
X2700875Y1845375D01*
X2700875Y1875375D02*
X2670875Y1845375D01*
X2677400Y3158500D02*
X2707400Y3128500D01*
X2707400Y3158500D02*
X2677400Y3128500D01*
X2677400Y2872500D02*
X2707400Y2842500D01*
X2707400Y2872500D02*
X2677400Y2842500D01*
X2707400Y1964450D02*
X2737400Y1934450D01*
X2737400Y1964450D02*
X2707400Y1934450D01*
X2715500Y4193300D02*
X2745500Y4163300D01*
X2745500Y4193300D02*
X2715500Y4163300D01*
X2715500Y611900D02*
X2745500Y581900D01*
X2745500Y611900D02*
X2715500Y581900D01*
X2715500Y357900D02*
X2745500Y327900D01*
X2745500Y357900D02*
X2715500Y327900D01*
X2715500Y103900D02*
X2745500Y73900D01*
X2745500Y103900D02*
X2715500Y73900D01*
X2753600Y1475500D02*
X2783600Y1445500D01*
X2783600Y1475500D02*
X2753600Y1445500D01*
X2753600Y1392950D02*
X2783600Y1362950D01*
X2783600Y1392950D02*
X2753600Y1362950D01*
X2766300Y2047000D02*
X2796300Y2017000D01*
X2796300Y2047000D02*
X2766300Y2017000D01*
X2791700Y1564400D02*
X2821700Y1534400D01*
X2821700Y1564400D02*
X2791700Y1534400D01*
X2791700Y1310400D02*
X2821700Y1280400D01*
X2821700Y1310400D02*
X2791700Y1280400D01*
X2793500Y2878850D02*
X2823500Y2848850D01*
X2823500Y2878850D02*
X2793500Y2848850D01*
X2804400Y878600D02*
X2834400Y848600D01*
X2834400Y878600D02*
X2804400Y848600D01*
X2829800Y2370850D02*
X2859800Y2340850D01*
X2859800Y2370850D02*
X2829800Y2340850D01*
X2829800Y2243850D02*
X2859800Y2213850D01*
X2859800Y2243850D02*
X2829800Y2213850D01*
X2842500Y4193300D02*
X2872500Y4163300D01*
X2872500Y4193300D02*
X2842500Y4163300D01*
X2842500Y3913900D02*
X2872500Y3883900D01*
X2872500Y3913900D02*
X2842500Y3883900D01*
X2842500Y3659900D02*
X2872500Y3629900D01*
X2872500Y3659900D02*
X2842500Y3629900D01*
X2842500Y103900D02*
X2872500Y73900D01*
X2872500Y103900D02*
X2842500Y73900D01*
X2855200Y2047000D02*
X2885200Y2017000D01*
X2885200Y2047000D02*
X2855200Y2017000D01*
X2867900Y1615200D02*
X2897900Y1585200D01*
X2897900Y1615200D02*
X2867900Y1585200D01*
X2867900Y1285000D02*
X2897900Y1255000D01*
X2897900Y1285000D02*
X2867900Y1255000D01*
X2867900Y827800D02*
X2897900Y797800D01*
X2897900Y827800D02*
X2867900Y797800D01*
X2885200Y2878850D02*
X2915200Y2848850D01*
X2915200Y2878850D02*
X2885200Y2848850D01*
X2931400Y1761250D02*
X2961400Y1731250D01*
X2961400Y1761250D02*
X2931400Y1731250D01*
X2931400Y1678700D02*
X2961400Y1648700D01*
X2961400Y1678700D02*
X2931400Y1648700D01*
X2931400Y611900D02*
X2961400Y581900D01*
X2961400Y611900D02*
X2931400Y581900D01*
X2931400Y357900D02*
X2961400Y327900D01*
X2961400Y357900D02*
X2931400Y327900D01*
X2942600Y2486300D02*
X2972600Y2456300D01*
X2972600Y2486300D02*
X2942600Y2456300D01*
X2942600Y2370850D02*
X2972600Y2340850D01*
X2972600Y2370850D02*
X2942600Y2340850D01*
X2942600Y2243850D02*
X2972600Y2213850D01*
X2972600Y2243850D02*
X2942600Y2213850D01*
X2942600Y2128300D02*
X2972600Y2098300D01*
X2972600Y2128300D02*
X2942600Y2098300D01*
X2944100Y3380500D02*
X2974100Y3350500D01*
X2974100Y3380500D02*
X2944100Y3350500D01*
X2944100Y2047000D02*
X2974100Y2017000D01*
X2974100Y2047000D02*
X2944100Y2017000D01*
X2948700Y1259548D02*
X2978700Y1229548D01*
X2978700Y1259548D02*
X2948700Y1229548D01*
X2969500Y4193300D02*
X2999500Y4163300D01*
X2999500Y4193300D02*
X2969500Y4163300D01*
X2969500Y103900D02*
X2999500Y73900D01*
X2999500Y103900D02*
X2969500Y73900D01*
X2986800Y2878850D02*
X3016800Y2848850D01*
X3016800Y2878850D02*
X2986800Y2848850D01*
X3007600Y3126500D02*
X3037600Y3096500D01*
X3037600Y3126500D02*
X3007600Y3096500D01*
X3033000Y1856500D02*
X3063000Y1826500D01*
X3063000Y1856500D02*
X3033000Y1826500D01*
X3033000Y1761250D02*
X3063000Y1731250D01*
X3063000Y1761250D02*
X3033000Y1731250D01*
X3033000Y1678700D02*
X3063000Y1648700D01*
X3063000Y1678700D02*
X3033000Y1648700D01*
X3033000Y1259600D02*
X3063000Y1229600D01*
X3063000Y1259600D02*
X3033000Y1229600D01*
X3071100Y2486300D02*
X3101100Y2456300D01*
X3101100Y2486300D02*
X3071100Y2456300D01*
X3075700Y2370850D02*
X3105700Y2340850D01*
X3105700Y2370850D02*
X3075700Y2340850D01*
X3075700Y2243850D02*
X3105700Y2213850D01*
X3105700Y2243850D02*
X3075700Y2213850D01*
X3075700Y2128300D02*
X3105700Y2098300D01*
X3105700Y2128300D02*
X3075700Y2098300D01*
X3085600Y2878850D02*
X3115600Y2848850D01*
X3115600Y2878850D02*
X3085600Y2848850D01*
X3096500Y4193300D02*
X3126500Y4163300D01*
X3126500Y4193300D02*
X3096500Y4163300D01*
X3096500Y3659900D02*
X3126500Y3629900D01*
X3126500Y3659900D02*
X3096500Y3629900D01*
X3096500Y1119900D02*
X3126500Y1089900D01*
X3126500Y1119900D02*
X3096500Y1089900D01*
X3096500Y103900D02*
X3126500Y73900D01*
X3126500Y103900D02*
X3096500Y73900D01*
X3121900Y1259600D02*
X3151900Y1229600D01*
X3151900Y1259600D02*
X3121900Y1229600D01*
X3147300Y3190000D02*
X3177300Y3160000D01*
X3177300Y3190000D02*
X3147300Y3160000D01*
X3163100Y2370850D02*
X3193100Y2340850D01*
X3193100Y2370850D02*
X3163100Y2340850D01*
X3163100Y2243850D02*
X3193100Y2213850D01*
X3193100Y2243850D02*
X3163100Y2213850D01*
X3185400Y2828050D02*
X3215400Y2798050D01*
X3215400Y2828050D02*
X3185400Y2798050D01*
X3210800Y1259600D02*
X3240800Y1229600D01*
X3240800Y1259600D02*
X3210800Y1229600D01*
X3223500Y4193300D02*
X3253500Y4163300D01*
X3253500Y4193300D02*
X3223500Y4163300D01*
X3223500Y408700D02*
X3253500Y378700D01*
X3253500Y408700D02*
X3223500Y378700D01*
X3223500Y103900D02*
X3253500Y73900D01*
X3253500Y103900D02*
X3223500Y73900D01*
X3236200Y846700D02*
X3266200Y816700D01*
X3266200Y846700D02*
X3236200Y816700D01*
X3248900Y3418600D02*
X3278900Y3388600D01*
X3278900Y3418600D02*
X3248900Y3388600D01*
X3261600Y2301000D02*
X3291600Y2271000D01*
X3291600Y2301000D02*
X3261600Y2271000D01*
X3266200Y2040650D02*
X3296200Y2010650D01*
X3296200Y2040650D02*
X3266200Y2010650D01*
X3271013Y2212100D02*
X3301013Y2182100D01*
X3301013Y2212100D02*
X3271013Y2182100D01*
X3299700Y2936000D02*
X3329700Y2906000D01*
X3329700Y2936000D02*
X3299700Y2906000D01*
X3299700Y1259600D02*
X3329700Y1229600D01*
X3329700Y1259600D02*
X3299700Y1229600D01*
X3325100Y3126500D02*
X3355100Y3096500D01*
X3355100Y3126500D02*
X3325100Y3096500D01*
X3329700Y1898150D02*
X3359700Y1868150D01*
X3359700Y1898150D02*
X3329700Y1868150D01*
X3350500Y4193300D02*
X3380500Y4163300D01*
X3380500Y4193300D02*
X3350500Y4163300D01*
X3350500Y3913900D02*
X3380500Y3883900D01*
X3380500Y3913900D02*
X3350500Y3883900D01*
X3350500Y3659900D02*
X3380500Y3629900D01*
X3380500Y3659900D02*
X3350500Y3629900D01*
X3350500Y3418600D02*
X3380500Y3388600D01*
X3380500Y3418600D02*
X3350500Y3388600D01*
X3350500Y2656600D02*
X3380500Y2626600D01*
X3380500Y2656600D02*
X3350500Y2626600D01*
X3350500Y1627900D02*
X3380500Y1597900D01*
X3380500Y1627900D02*
X3350500Y1597900D01*
X3350500Y1119900D02*
X3380500Y1089900D01*
X3380500Y1119900D02*
X3350500Y1089900D01*
X3350500Y103900D02*
X3380500Y73900D01*
X3380500Y103900D02*
X3350500Y73900D01*
X3363200Y2809000D02*
X3393200Y2779000D01*
X3393200Y2809000D02*
X3363200Y2779000D01*
X3363200Y827800D02*
X3393200Y797800D01*
X3393200Y827800D02*
X3363200Y797800D01*
X3375900Y1310400D02*
X3405900Y1280400D01*
X3405900Y1310400D02*
X3375900Y1280400D01*
X3414000Y1983500D02*
X3444000Y1953500D01*
X3444000Y1983500D02*
X3414000Y1953500D01*
X3439400Y1373900D02*
X3469400Y1343900D01*
X3469400Y1373900D02*
X3439400Y1343900D01*
X3439400Y1024700D02*
X3469400Y994700D01*
X3469400Y1024700D02*
X3439400Y994700D01*
X3452100Y2504200D02*
X3482100Y2474200D01*
X3482100Y2504200D02*
X3452100Y2474200D01*
X3452100Y2415300D02*
X3482100Y2385300D01*
X3482100Y2415300D02*
X3452100Y2385300D01*
X3452100Y2320050D02*
X3482100Y2290050D01*
X3482100Y2320050D02*
X3452100Y2290050D01*
X3452100Y1627900D02*
X3482100Y1597900D01*
X3482100Y1627900D02*
X3452100Y1597900D01*
X3452100Y1246900D02*
X3482100Y1216900D01*
X3482100Y1246900D02*
X3452100Y1216900D01*
X3476859Y1918681D02*
X3506859Y1888681D01*
X3506859Y1918681D02*
X3476859Y1888681D01*
X3477500Y4193300D02*
X3507500Y4163300D01*
X3507500Y4193300D02*
X3477500Y4163300D01*
X3477500Y3190000D02*
X3507500Y3160000D01*
X3507500Y3190000D02*
X3477500Y3160000D01*
X3477500Y103900D02*
X3507500Y73900D01*
X3507500Y103900D02*
X3477500Y73900D01*
X3490200Y2923300D02*
X3520200Y2893300D01*
X3520200Y2923300D02*
X3490200Y2893300D01*
X3490200Y2135900D02*
X3520200Y2105900D01*
X3520200Y2135900D02*
X3490200Y2105900D01*
X3490200Y1539000D02*
X3520200Y1509000D01*
X3520200Y1539000D02*
X3490200Y1509000D01*
X3490200Y1450100D02*
X3520200Y1420100D01*
X3520200Y1450100D02*
X3490200Y1420100D01*
X3538951Y1852759D02*
X3568951Y1822759D01*
X3568951Y1852759D02*
X3538951Y1822759D01*
X3541000Y1716800D02*
X3571000Y1686800D01*
X3571000Y1716800D02*
X3541000Y1686800D01*
X3601150Y1788084D02*
X3631150Y1758084D01*
X3631150Y1788084D02*
X3601150Y1758084D01*
X3604500Y4193300D02*
X3634500Y4163300D01*
X3634500Y4193300D02*
X3604500Y4163300D01*
X3604500Y3913900D02*
X3634500Y3883900D01*
X3634500Y3913900D02*
X3604500Y3883900D01*
X3604500Y3659900D02*
X3634500Y3629900D01*
X3634500Y3659900D02*
X3604500Y3629900D01*
X3604500Y865900D02*
X3634500Y835900D01*
X3634500Y865900D02*
X3604500Y835900D01*
X3604500Y611900D02*
X3634500Y581900D01*
X3634500Y611900D02*
X3604500Y581900D01*
X3604500Y357900D02*
X3634500Y327900D01*
X3634500Y357900D02*
X3604500Y327900D01*
X3604500Y103900D02*
X3634500Y73900D01*
X3634500Y103900D02*
X3604500Y73900D01*
X3617200Y1627900D02*
X3647200Y1597900D01*
X3647200Y1627900D02*
X3617200Y1597900D01*
X3617200Y1500900D02*
X3647200Y1470900D01*
X3647200Y1500900D02*
X3617200Y1470900D01*
X3617200Y1373900D02*
X3647200Y1343900D01*
X3647200Y1373900D02*
X3617200Y1343900D01*
X3617200Y1246900D02*
X3647200Y1216900D01*
X3647200Y1246900D02*
X3617200Y1216900D01*
X3617200Y1119900D02*
X3647200Y1089900D01*
X3647200Y1119900D02*
X3617200Y1089900D01*
X3629900Y2135900D02*
X3659900Y2105900D01*
X3659900Y2135900D02*
X3629900Y2105900D01*
X3637736Y2016736D02*
X3667736Y1986736D01*
X3667736Y2016736D02*
X3637736Y1986736D01*
X3642600Y3190000D02*
X3672600Y3160000D01*
X3672600Y3190000D02*
X3642600Y3160000D01*
X3679701Y1714758D02*
X3709701Y1684758D01*
X3709701Y1714758D02*
X3679701Y1684758D01*
X3720286Y1934186D02*
X3750286Y1904186D01*
X3750286Y1934186D02*
X3720286Y1904186D01*
X3731500Y4193300D02*
X3761500Y4163300D01*
X3761500Y4193300D02*
X3731500Y4163300D01*
X3731500Y3278900D02*
X3761500Y3248900D01*
X3761500Y3278900D02*
X3731500Y3248900D01*
X3731500Y3151900D02*
X3761500Y3121900D01*
X3761500Y3151900D02*
X3731500Y3121900D01*
X3731500Y3024900D02*
X3761500Y2994900D01*
X3761500Y3024900D02*
X3731500Y2994900D01*
X3731500Y2770900D02*
X3761500Y2740900D01*
X3761500Y2770900D02*
X3731500Y2740900D01*
X3731500Y2643900D02*
X3761500Y2613900D01*
X3761500Y2643900D02*
X3731500Y2613900D01*
X3731500Y2516900D02*
X3761500Y2486900D01*
X3761500Y2516900D02*
X3731500Y2486900D01*
X3731500Y2389900D02*
X3761500Y2359900D01*
X3761500Y2389900D02*
X3731500Y2359900D01*
X3731500Y2262900D02*
X3761500Y2232900D01*
X3761500Y2262900D02*
X3731500Y2232900D01*
X3731500Y2135900D02*
X3761500Y2105900D01*
X3761500Y2135900D02*
X3731500Y2105900D01*
X3731500Y1500900D02*
X3761500Y1470900D01*
X3761500Y1500900D02*
X3731500Y1470900D01*
X3731500Y1373900D02*
X3761500Y1343900D01*
X3761500Y1373900D02*
X3731500Y1343900D01*
X3731500Y1246900D02*
X3761500Y1216900D01*
X3761500Y1246900D02*
X3731500Y1216900D01*
X3731500Y1119900D02*
X3761500Y1089900D01*
X3761500Y1119900D02*
X3731500Y1089900D01*
X3731500Y992900D02*
X3761500Y962900D01*
X3761500Y992900D02*
X3731500Y962900D01*
X3731500Y103900D02*
X3761500Y73900D01*
X3761500Y103900D02*
X3731500Y73900D01*
X3744200Y2897900D02*
X3774200Y2867900D01*
X3774200Y2897900D02*
X3744200Y2867900D01*
X3744200Y2021600D02*
X3774200Y1991600D01*
X3774200Y2021600D02*
X3744200Y1991600D01*
X3756900Y1640600D02*
X3786900Y1610600D01*
X3786900Y1640600D02*
X3756900Y1610600D01*
X3820400Y1500900D02*
X3850400Y1470900D01*
X3850400Y1500900D02*
X3820400Y1470900D01*
X3845800Y1615200D02*
X3875800Y1585200D01*
X3875800Y1615200D02*
X3845800Y1585200D01*
X3858500Y4167900D02*
X3888500Y4137900D01*
X3888500Y4167900D02*
X3858500Y4137900D01*
X3858500Y4040900D02*
X3888500Y4010900D01*
X3888500Y4040900D02*
X3858500Y4010900D01*
X3858500Y3913900D02*
X3888500Y3883900D01*
X3888500Y3913900D02*
X3858500Y3883900D01*
X3858500Y3786900D02*
X3888500Y3756900D01*
X3888500Y3786900D02*
X3858500Y3756900D01*
X3858500Y3659900D02*
X3888500Y3629900D01*
X3888500Y3659900D02*
X3858500Y3629900D01*
X3858500Y3532900D02*
X3888500Y3502900D01*
X3888500Y3532900D02*
X3858500Y3502900D01*
X3858500Y3405900D02*
X3888500Y3375900D01*
X3888500Y3405900D02*
X3858500Y3375900D01*
X3858500Y3278900D02*
X3888500Y3248900D01*
X3888500Y3278900D02*
X3858500Y3248900D01*
X3858500Y3151900D02*
X3888500Y3121900D01*
X3888500Y3151900D02*
X3858500Y3121900D01*
X3858500Y3024900D02*
X3888500Y2994900D01*
X3888500Y3024900D02*
X3858500Y2994900D01*
X3858500Y2897900D02*
X3888500Y2867900D01*
X3888500Y2897900D02*
X3858500Y2867900D01*
X3858500Y2770900D02*
X3888500Y2740900D01*
X3888500Y2770900D02*
X3858500Y2740900D01*
X3858500Y2643900D02*
X3888500Y2613900D01*
X3888500Y2643900D02*
X3858500Y2613900D01*
X3858500Y2516900D02*
X3888500Y2486900D01*
X3888500Y2516900D02*
X3858500Y2486900D01*
X3858500Y2389900D02*
X3888500Y2359900D01*
X3888500Y2389900D02*
X3858500Y2359900D01*
X3858500Y2262900D02*
X3888500Y2232900D01*
X3888500Y2262900D02*
X3858500Y2232900D01*
X3858500Y2135900D02*
X3888500Y2105900D01*
X3888500Y2135900D02*
X3858500Y2105900D01*
X3858500Y2008900D02*
X3888500Y1978900D01*
X3888500Y2008900D02*
X3858500Y1978900D01*
X3858500Y1894600D02*
X3888500Y1864600D01*
X3888500Y1894600D02*
X3858500Y1864600D01*
X3858500Y1780300D02*
X3888500Y1750300D01*
X3888500Y1780300D02*
X3858500Y1750300D01*
X3858500Y1373900D02*
X3888500Y1343900D01*
X3888500Y1373900D02*
X3858500Y1343900D01*
X3858500Y1246900D02*
X3888500Y1216900D01*
X3888500Y1246900D02*
X3858500Y1216900D01*
X3858500Y1119900D02*
X3888500Y1089900D01*
X3888500Y1119900D02*
X3858500Y1089900D01*
X3858500Y992900D02*
X3888500Y962900D01*
X3888500Y992900D02*
X3858500Y962900D01*
X3858500Y865900D02*
X3888500Y835900D01*
X3888500Y865900D02*
X3858500Y835900D01*
X3858500Y738900D02*
X3888500Y708900D01*
X3888500Y738900D02*
X3858500Y708900D01*
X3858500Y611900D02*
X3888500Y581900D01*
X3888500Y611900D02*
X3858500Y581900D01*
X3858500Y484900D02*
X3888500Y454900D01*
X3888500Y484900D02*
X3858500Y454900D01*
X3858500Y357900D02*
X3888500Y327900D01*
X3888500Y357900D02*
X3858500Y327900D01*
X3858500Y230900D02*
X3888500Y200900D01*
X3888500Y230900D02*
X3858500Y200900D01*
X3858500Y103900D02*
X3888500Y73900D01*
X3888500Y103900D02*
X3858500Y73900D01*
X3939300Y1470800D02*
G75*
G03*
X3939300Y1470800I-15000J0D01*
G01*
D12*
X2032000Y3487100D02*
X2032000Y3447100D01*
X2012000Y3467100D02*
X2052000Y3467100D01*
X3577300Y2744150D02*
X3577300Y2704150D01*
X3557300Y2724150D02*
X3597300Y2724150D01*
D13*
X283413Y2538037D02*
X283413Y2580463D01*
X240987Y2580463D01*
X240987Y2538037D01*
X283413Y2538037D01*
D10*
X302200Y2589250D02*
X222200Y2589250D01*
X222200Y2589250D02*
G75*
G03*
X222200Y2529250I0J-30000D01*
G01*
X222200Y2529250D02*
X302200Y2529250D01*
X302200Y2529250D02*
G75*
G03*
X302200Y2589250I0J30000D01*
G01*
D13*
X283413Y1674037D02*
X283413Y1716463D01*
X240987Y1716463D01*
X240987Y1674037D01*
X283413Y1674037D01*
D10*
X302200Y1725250D02*
X222200Y1725250D01*
X222200Y1725250D02*
G75*
G03*
X222200Y1665250I0J-30000D01*
G01*
X222200Y1665250D02*
X302200Y1665250D01*
X302200Y1665250D02*
G75*
G03*
X302200Y1725250I0J30000D01*
G01*
D13*
X703413Y2538037D02*
X703413Y2580463D01*
X660987Y2580463D01*
X660987Y2538037D01*
X703413Y2538037D01*
D10*
X737200Y2589250D02*
X627200Y2589250D01*
X627200Y2589250D02*
G75*
G03*
X627200Y2529250I0J-30000D01*
G01*
X627200Y2529250D02*
X737200Y2529250D01*
X737200Y2529250D02*
G75*
G03*
X737200Y2589250I0J30000D01*
G01*
D13*
X703413Y1674037D02*
X703413Y1716463D01*
X660987Y1716463D01*
X660987Y1674037D01*
X703413Y1674037D01*
D10*
X737200Y1725250D02*
X627200Y1725250D01*
X627200Y1725250D02*
G75*
G03*
X627200Y1665250I0J-30000D01*
G01*
X627200Y1665250D02*
X737200Y1665250D01*
X737200Y1665250D02*
G75*
G03*
X737200Y1725250I0J30000D01*
G01*
D14*
X3657600Y2888500D02*
X3690100Y2921000D01*
X3657600Y2953500D01*
X3625100Y2921000D01*
X3657600Y2888500D01*
D15*
X470700Y4037800D02*
X570700Y3937800D01*
X570700Y4037800D02*
X470700Y3937800D01*
X570700Y3987800D02*
G75*
G03*
X570700Y3987800I-50000J0D01*
G01*
X470700Y3783800D02*
X570700Y3683800D01*
X570700Y3783800D02*
X470700Y3683800D01*
X570700Y3733800D02*
G75*
G03*
X570700Y3733800I-50000J0D01*
G01*
X470700Y3377400D02*
X570700Y3277400D01*
X570700Y3377400D02*
X470700Y3277400D01*
X570700Y3327400D02*
G75*
G03*
X570700Y3327400I-50000J0D01*
G01*
X470700Y3123400D02*
X570700Y3023400D01*
X570700Y3123400D02*
X470700Y3023400D01*
X570700Y3073400D02*
G75*
G03*
X570700Y3073400I-50000J0D01*
G01*
X476900Y1230600D02*
X576900Y1130600D01*
X576900Y1230600D02*
X476900Y1130600D01*
X576900Y1180600D02*
G75*
G03*
X576900Y1180600I-50000J0D01*
G01*
X476900Y976600D02*
X576900Y876600D01*
X576900Y976600D02*
X476900Y876600D01*
X576900Y926600D02*
G75*
G03*
X576900Y926600I-50000J0D01*
G01*
X476900Y570200D02*
X576900Y470200D01*
X576900Y570200D02*
X476900Y470200D01*
X576900Y520200D02*
G75*
G03*
X576900Y520200I-50000J0D01*
G01*
X476900Y316200D02*
X576900Y216200D01*
X576900Y316200D02*
X476900Y216200D01*
X576900Y266200D02*
G75*
G03*
X576900Y266200I-50000J0D01*
G01*
X724700Y4037800D02*
X824700Y3937800D01*
X824700Y4037800D02*
X724700Y3937800D01*
X824700Y3987800D02*
G75*
G03*
X824700Y3987800I-50000J0D01*
G01*
X724700Y3783800D02*
X824700Y3683800D01*
X824700Y3783800D02*
X724700Y3683800D01*
X824700Y3733800D02*
G75*
G03*
X824700Y3733800I-50000J0D01*
G01*
X724700Y3377400D02*
X824700Y3277400D01*
X824700Y3377400D02*
X724700Y3277400D01*
X824700Y3327400D02*
G75*
G03*
X824700Y3327400I-50000J0D01*
G01*
X724700Y3123400D02*
X824700Y3023400D01*
X824700Y3123400D02*
X724700Y3023400D01*
X824700Y3073400D02*
G75*
G03*
X824700Y3073400I-50000J0D01*
G01*
X730900Y1230600D02*
X830900Y1130600D01*
X830900Y1230600D02*
X730900Y1130600D01*
X830900Y1180600D02*
G75*
G03*
X830900Y1180600I-50000J0D01*
G01*
X730900Y976600D02*
X830900Y876600D01*
X830900Y976600D02*
X730900Y876600D01*
X830900Y926600D02*
G75*
G03*
X830900Y926600I-50000J0D01*
G01*
X730900Y570200D02*
X830900Y470200D01*
X830900Y570200D02*
X730900Y470200D01*
X830900Y520200D02*
G75*
G03*
X830900Y520200I-50000J0D01*
G01*
X730900Y316200D02*
X830900Y216200D01*
X830900Y316200D02*
X730900Y216200D01*
X830900Y266200D02*
G75*
G03*
X830900Y266200I-50000J0D01*
G01*
D10*
X263477Y-321484D02*
X263477Y-121484D01*
X263477Y-121484D02*
X311096Y-121484D01*
X311096Y-121484D02*
X339667Y-131008D01*
X339667Y-131008D02*
X358715Y-150055D01*
X358715Y-150055D02*
X368239Y-169103D01*
X368239Y-169103D02*
X377762Y-207198D01*
X377762Y-207198D02*
X377762Y-235769D01*
X377762Y-235769D02*
X368239Y-273865D01*
X368239Y-273865D02*
X358715Y-292912D01*
X358715Y-292912D02*
X339667Y-311960D01*
X339667Y-311960D02*
X311096Y-321484D01*
X311096Y-321484D02*
X263477Y-321484D01*
X463477Y-321484D02*
X463477Y-188150D01*
X463477Y-226246D02*
X473001Y-207198D01*
X473001Y-207198D02*
X482524Y-197674D01*
X482524Y-197674D02*
X501572Y-188150D01*
X501572Y-188150D02*
X520620Y-188150D01*
X587286Y-321484D02*
X587286Y-188150D01*
X587286Y-121484D02*
X577763Y-131008D01*
X577763Y-131008D02*
X587286Y-140531D01*
X587286Y-140531D02*
X596810Y-131008D01*
X596810Y-131008D02*
X587286Y-121484D01*
X587286Y-121484D02*
X587286Y-140531D01*
X711096Y-321484D02*
X692048Y-311960D01*
X692048Y-311960D02*
X682524Y-292912D01*
X682524Y-292912D02*
X682524Y-121484D01*
X815858Y-321484D02*
X796810Y-311960D01*
X796810Y-311960D02*
X787286Y-292912D01*
X787286Y-292912D02*
X787286Y-121484D01*
X1044429Y-321484D02*
X1044429Y-121484D01*
X1044429Y-121484D02*
X1111096Y-264341D01*
X1111096Y-264341D02*
X1177763Y-121484D01*
X1177763Y-121484D02*
X1177763Y-321484D01*
X1358715Y-321484D02*
X1358715Y-216722D01*
X1358715Y-216722D02*
X1349191Y-197674D01*
X1349191Y-197674D02*
X1330144Y-188150D01*
X1330144Y-188150D02*
X1292048Y-188150D01*
X1292048Y-188150D02*
X1273001Y-197674D01*
X1358715Y-311960D02*
X1339667Y-321484D01*
X1339667Y-321484D02*
X1292048Y-321484D01*
X1292048Y-321484D02*
X1273001Y-311960D01*
X1273001Y-311960D02*
X1263477Y-292912D01*
X1263477Y-292912D02*
X1263477Y-273865D01*
X1263477Y-273865D02*
X1273001Y-254817D01*
X1273001Y-254817D02*
X1292048Y-245293D01*
X1292048Y-245293D02*
X1339667Y-245293D01*
X1339667Y-245293D02*
X1358715Y-235769D01*
X1453953Y-188150D02*
X1453953Y-388150D01*
X1453953Y-197674D02*
X1473001Y-188150D01*
X1473001Y-188150D02*
X1511096Y-188150D01*
X1511096Y-188150D02*
X1530143Y-197674D01*
X1530143Y-197674D02*
X1539667Y-207198D01*
X1539667Y-207198D02*
X1549191Y-226246D01*
X1549191Y-226246D02*
X1549191Y-283389D01*
X1549191Y-283389D02*
X1539667Y-302436D01*
X1539667Y-302436D02*
X1530143Y-311960D01*
X1530143Y-311960D02*
X1511096Y-321484D01*
X1511096Y-321484D02*
X1473001Y-321484D01*
X1473001Y-321484D02*
X1453953Y-311960D01*
X1634905Y-302436D02*
X1644429Y-311960D01*
X1644429Y-311960D02*
X1634905Y-321484D01*
X1634905Y-321484D02*
X1625382Y-311960D01*
X1625382Y-311960D02*
X1634905Y-302436D01*
X1634905Y-302436D02*
X1634905Y-321484D01*
X1634905Y-197674D02*
X1644429Y-207198D01*
X1644429Y-207198D02*
X1634905Y-216722D01*
X1634905Y-216722D02*
X1625382Y-207198D01*
X1625382Y-207198D02*
X1634905Y-197674D01*
X1634905Y-197674D02*
X1634905Y-216722D01*
D11*
X-27300Y-635000D02*
X2700Y-665000D01*
X2700Y-635000D02*
X-27300Y-665000D01*
D10*
X301572Y-541484D02*
X320620Y-541484D01*
X320620Y-541484D02*
X339667Y-551008D01*
X339667Y-551008D02*
X349191Y-560531D01*
X349191Y-560531D02*
X358715Y-579579D01*
X358715Y-579579D02*
X368239Y-617674D01*
X368239Y-617674D02*
X368239Y-665293D01*
X368239Y-665293D02*
X358715Y-703388D01*
X358715Y-703388D02*
X349191Y-722436D01*
X349191Y-722436D02*
X339667Y-731960D01*
X339667Y-731960D02*
X320620Y-741484D01*
X320620Y-741484D02*
X301572Y-741484D01*
X301572Y-741484D02*
X282524Y-731960D01*
X282524Y-731960D02*
X273001Y-722436D01*
X273001Y-722436D02*
X263477Y-703388D01*
X263477Y-703388D02*
X253953Y-665293D01*
X253953Y-665293D02*
X253953Y-617674D01*
X253953Y-617674D02*
X263477Y-579579D01*
X263477Y-579579D02*
X273001Y-560531D01*
X273001Y-560531D02*
X282524Y-551008D01*
X282524Y-551008D02*
X301572Y-541484D01*
X453953Y-722436D02*
X463477Y-731960D01*
X463477Y-731960D02*
X453953Y-741484D01*
X453953Y-741484D02*
X444429Y-731960D01*
X444429Y-731960D02*
X453953Y-722436D01*
X453953Y-722436D02*
X453953Y-741484D01*
X530144Y-541484D02*
X653953Y-541484D01*
X653953Y-541484D02*
X587286Y-617674D01*
X587286Y-617674D02*
X615858Y-617674D01*
X615858Y-617674D02*
X634905Y-627198D01*
X634905Y-627198D02*
X644429Y-636722D01*
X644429Y-636722D02*
X653953Y-655770D01*
X653953Y-655770D02*
X653953Y-703388D01*
X653953Y-703388D02*
X644429Y-722436D01*
X644429Y-722436D02*
X634905Y-731960D01*
X634905Y-731960D02*
X615858Y-741484D01*
X615858Y-741484D02*
X558715Y-741484D01*
X558715Y-741484D02*
X539667Y-731960D01*
X539667Y-731960D02*
X530144Y-722436D01*
X777762Y-541484D02*
X796810Y-541484D01*
X796810Y-541484D02*
X815858Y-551008D01*
X815858Y-551008D02*
X825382Y-560531D01*
X825382Y-560531D02*
X834905Y-579579D01*
X834905Y-579579D02*
X844429Y-617674D01*
X844429Y-617674D02*
X844429Y-665293D01*
X844429Y-665293D02*
X834905Y-703388D01*
X834905Y-703388D02*
X825382Y-722436D01*
X825382Y-722436D02*
X815858Y-731960D01*
X815858Y-731960D02*
X796810Y-741484D01*
X796810Y-741484D02*
X777762Y-741484D01*
X777762Y-741484D02*
X758715Y-731960D01*
X758715Y-731960D02*
X749191Y-722436D01*
X749191Y-722436D02*
X739667Y-703388D01*
X739667Y-703388D02*
X730143Y-665293D01*
X730143Y-665293D02*
X730143Y-617674D01*
X730143Y-617674D02*
X739667Y-579579D01*
X739667Y-579579D02*
X749191Y-560531D01*
X749191Y-560531D02*
X758715Y-551008D01*
X758715Y-551008D02*
X777762Y-541484D01*
X968239Y-541484D02*
X987286Y-541484D01*
X987286Y-541484D02*
X1006334Y-551008D01*
X1006334Y-551008D02*
X1015858Y-560531D01*
X1015858Y-560531D02*
X1025382Y-579579D01*
X1025382Y-579579D02*
X1034905Y-617674D01*
X1034905Y-617674D02*
X1034905Y-665293D01*
X1034905Y-665293D02*
X1025382Y-703388D01*
X1025382Y-703388D02*
X1015858Y-722436D01*
X1015858Y-722436D02*
X1006334Y-731960D01*
X1006334Y-731960D02*
X987286Y-741484D01*
X987286Y-741484D02*
X968239Y-741484D01*
X968239Y-741484D02*
X949191Y-731960D01*
X949191Y-731960D02*
X939667Y-722436D01*
X939667Y-722436D02*
X930143Y-703388D01*
X930143Y-703388D02*
X920620Y-665293D01*
X920620Y-665293D02*
X920620Y-617674D01*
X920620Y-617674D02*
X930143Y-579579D01*
X930143Y-579579D02*
X939667Y-560531D01*
X939667Y-560531D02*
X949191Y-551008D01*
X949191Y-551008D02*
X968239Y-541484D01*
X1120620Y-741484D02*
X1120620Y-608150D01*
X1120620Y-627198D02*
X1130144Y-617674D01*
X1130144Y-617674D02*
X1149191Y-608150D01*
X1149191Y-608150D02*
X1177763Y-608150D01*
X1177763Y-608150D02*
X1196810Y-617674D01*
X1196810Y-617674D02*
X1206334Y-636722D01*
X1206334Y-636722D02*
X1206334Y-741484D01*
X1206334Y-636722D02*
X1215858Y-617674D01*
X1215858Y-617674D02*
X1234905Y-608150D01*
X1234905Y-608150D02*
X1263477Y-608150D01*
X1263477Y-608150D02*
X1282525Y-617674D01*
X1282525Y-617674D02*
X1292048Y-636722D01*
X1292048Y-636722D02*
X1292048Y-741484D01*
X1387286Y-741484D02*
X1387286Y-608150D01*
X1387286Y-627198D02*
X1396810Y-617674D01*
X1396810Y-617674D02*
X1415858Y-608150D01*
X1415858Y-608150D02*
X1444429Y-608150D01*
X1444429Y-608150D02*
X1463477Y-617674D01*
X1463477Y-617674D02*
X1473001Y-636722D01*
X1473001Y-636722D02*
X1473001Y-741484D01*
X1473001Y-636722D02*
X1482524Y-617674D01*
X1482524Y-617674D02*
X1501572Y-608150D01*
X1501572Y-608150D02*
X1530143Y-608150D01*
X1530143Y-608150D02*
X1549191Y-617674D01*
X1549191Y-617674D02*
X1558715Y-636722D01*
X1558715Y-636722D02*
X1558715Y-741484D01*
X1949191Y-531960D02*
X1777763Y-789103D01*
X2206334Y-541484D02*
X2225382Y-541484D01*
X2225382Y-541484D02*
X2244429Y-551008D01*
X2244429Y-551008D02*
X2253953Y-560531D01*
X2253953Y-560531D02*
X2263477Y-579579D01*
X2263477Y-579579D02*
X2273001Y-617674D01*
X2273001Y-617674D02*
X2273001Y-665293D01*
X2273001Y-665293D02*
X2263477Y-703388D01*
X2263477Y-703388D02*
X2253953Y-722436D01*
X2253953Y-722436D02*
X2244429Y-731960D01*
X2244429Y-731960D02*
X2225382Y-741484D01*
X2225382Y-741484D02*
X2206334Y-741484D01*
X2206334Y-741484D02*
X2187287Y-731960D01*
X2187287Y-731960D02*
X2177763Y-722436D01*
X2177763Y-722436D02*
X2168239Y-703388D01*
X2168239Y-703388D02*
X2158715Y-665293D01*
X2158715Y-665293D02*
X2158715Y-617674D01*
X2158715Y-617674D02*
X2168239Y-579579D01*
X2168239Y-579579D02*
X2177763Y-560531D01*
X2177763Y-560531D02*
X2187287Y-551008D01*
X2187287Y-551008D02*
X2206334Y-541484D01*
X2358715Y-722436D02*
X2368239Y-731960D01*
X2368239Y-731960D02*
X2358715Y-741484D01*
X2358715Y-741484D02*
X2349191Y-731960D01*
X2349191Y-731960D02*
X2358715Y-722436D01*
X2358715Y-722436D02*
X2358715Y-741484D01*
X2492048Y-541484D02*
X2511096Y-541484D01*
X2511096Y-541484D02*
X2530144Y-551008D01*
X2530144Y-551008D02*
X2539668Y-560531D01*
X2539668Y-560531D02*
X2549191Y-579579D01*
X2549191Y-579579D02*
X2558715Y-617674D01*
X2558715Y-617674D02*
X2558715Y-665293D01*
X2558715Y-665293D02*
X2549191Y-703388D01*
X2549191Y-703388D02*
X2539668Y-722436D01*
X2539668Y-722436D02*
X2530144Y-731960D01*
X2530144Y-731960D02*
X2511096Y-741484D01*
X2511096Y-741484D02*
X2492048Y-741484D01*
X2492048Y-741484D02*
X2473001Y-731960D01*
X2473001Y-731960D02*
X2463477Y-722436D01*
X2463477Y-722436D02*
X2453953Y-703388D01*
X2453953Y-703388D02*
X2444429Y-665293D01*
X2444429Y-665293D02*
X2444429Y-617674D01*
X2444429Y-617674D02*
X2453953Y-579579D01*
X2453953Y-579579D02*
X2463477Y-560531D01*
X2463477Y-560531D02*
X2473001Y-551008D01*
X2473001Y-551008D02*
X2492048Y-541484D01*
X2749191Y-741484D02*
X2634906Y-741484D01*
X2692048Y-741484D02*
X2692048Y-541484D01*
X2692048Y-541484D02*
X2673001Y-570055D01*
X2673001Y-570055D02*
X2653953Y-589103D01*
X2653953Y-589103D02*
X2634906Y-598627D01*
X2939667Y-741484D02*
X2825382Y-741484D01*
X2882525Y-741484D02*
X2882525Y-541484D01*
X2882525Y-541484D02*
X2863477Y-570055D01*
X2863477Y-570055D02*
X2844429Y-589103D01*
X2844429Y-589103D02*
X2825382Y-598627D01*
X3053953Y-627198D02*
X3034906Y-617674D01*
X3034906Y-617674D02*
X3025382Y-608150D01*
X3025382Y-608150D02*
X3015858Y-589103D01*
X3015858Y-589103D02*
X3015858Y-579579D01*
X3015858Y-579579D02*
X3025382Y-560531D01*
X3025382Y-560531D02*
X3034906Y-551008D01*
X3034906Y-551008D02*
X3053953Y-541484D01*
X3053953Y-541484D02*
X3092048Y-541484D01*
X3092048Y-541484D02*
X3111096Y-551008D01*
X3111096Y-551008D02*
X3120620Y-560531D01*
X3120620Y-560531D02*
X3130144Y-579579D01*
X3130144Y-579579D02*
X3130144Y-589103D01*
X3130144Y-589103D02*
X3120620Y-608150D01*
X3120620Y-608150D02*
X3111096Y-617674D01*
X3111096Y-617674D02*
X3092048Y-627198D01*
X3092048Y-627198D02*
X3053953Y-627198D01*
X3053953Y-627198D02*
X3034906Y-636722D01*
X3034906Y-636722D02*
X3025382Y-646246D01*
X3025382Y-646246D02*
X3015858Y-665293D01*
X3015858Y-665293D02*
X3015858Y-703388D01*
X3015858Y-703388D02*
X3025382Y-722436D01*
X3025382Y-722436D02*
X3034906Y-731960D01*
X3034906Y-731960D02*
X3053953Y-741484D01*
X3053953Y-741484D02*
X3092048Y-741484D01*
X3092048Y-741484D02*
X3111096Y-731960D01*
X3111096Y-731960D02*
X3120620Y-722436D01*
X3120620Y-722436D02*
X3130144Y-703388D01*
X3130144Y-703388D02*
X3130144Y-665293D01*
X3130144Y-665293D02*
X3120620Y-646246D01*
X3120620Y-646246D02*
X3111096Y-636722D01*
X3111096Y-636722D02*
X3092048Y-627198D01*
X3206334Y-541484D02*
X3206334Y-579579D01*
X3282525Y-541484D02*
X3282525Y-579579D01*
X3577763Y-817674D02*
X3568239Y-808150D01*
X3568239Y-808150D02*
X3549191Y-779579D01*
X3549191Y-779579D02*
X3539668Y-760531D01*
X3539668Y-760531D02*
X3530144Y-731960D01*
X3530144Y-731960D02*
X3520620Y-684341D01*
X3520620Y-684341D02*
X3520620Y-646246D01*
X3520620Y-646246D02*
X3530144Y-598627D01*
X3530144Y-598627D02*
X3539668Y-570055D01*
X3539668Y-570055D02*
X3549191Y-551008D01*
X3549191Y-551008D02*
X3568239Y-522436D01*
X3568239Y-522436D02*
X3577763Y-512912D01*
X3634906Y-541484D02*
X3758715Y-541484D01*
X3758715Y-541484D02*
X3692048Y-617674D01*
X3692048Y-617674D02*
X3720620Y-617674D01*
X3720620Y-617674D02*
X3739668Y-627198D01*
X3739668Y-627198D02*
X3749191Y-636722D01*
X3749191Y-636722D02*
X3758715Y-655770D01*
X3758715Y-655770D02*
X3758715Y-703388D01*
X3758715Y-703388D02*
X3749191Y-722436D01*
X3749191Y-722436D02*
X3739668Y-731960D01*
X3739668Y-731960D02*
X3720620Y-741484D01*
X3720620Y-741484D02*
X3663477Y-741484D01*
X3663477Y-741484D02*
X3644429Y-731960D01*
X3644429Y-731960D02*
X3634906Y-722436D01*
X3949191Y-741484D02*
X3834906Y-741484D01*
X3892048Y-741484D02*
X3892048Y-541484D01*
X3892048Y-541484D02*
X3873001Y-570055D01*
X3873001Y-570055D02*
X3853953Y-589103D01*
X3853953Y-589103D02*
X3834906Y-598627D01*
X4139668Y-741484D02*
X4025382Y-741484D01*
X4082525Y-741484D02*
X4082525Y-541484D01*
X4082525Y-541484D02*
X4063477Y-570055D01*
X4063477Y-570055D02*
X4044429Y-589103D01*
X4044429Y-589103D02*
X4025382Y-598627D01*
X4377763Y-741484D02*
X4377763Y-541484D01*
X4463477Y-741484D02*
X4463477Y-636722D01*
X4463477Y-636722D02*
X4453953Y-617674D01*
X4453953Y-617674D02*
X4434906Y-608150D01*
X4434906Y-608150D02*
X4406334Y-608150D01*
X4406334Y-608150D02*
X4387287Y-617674D01*
X4387287Y-617674D02*
X4377763Y-627198D01*
X4587287Y-741484D02*
X4568239Y-731960D01*
X4568239Y-731960D02*
X4558715Y-722436D01*
X4558715Y-722436D02*
X4549192Y-703388D01*
X4549192Y-703388D02*
X4549192Y-646246D01*
X4549192Y-646246D02*
X4558715Y-627198D01*
X4558715Y-627198D02*
X4568239Y-617674D01*
X4568239Y-617674D02*
X4587287Y-608150D01*
X4587287Y-608150D02*
X4615858Y-608150D01*
X4615858Y-608150D02*
X4634906Y-617674D01*
X4634906Y-617674D02*
X4644430Y-627198D01*
X4644430Y-627198D02*
X4653953Y-646246D01*
X4653953Y-646246D02*
X4653953Y-703388D01*
X4653953Y-703388D02*
X4644430Y-722436D01*
X4644430Y-722436D02*
X4634906Y-731960D01*
X4634906Y-731960D02*
X4615858Y-741484D01*
X4615858Y-741484D02*
X4587287Y-741484D01*
X4768239Y-741484D02*
X4749192Y-731960D01*
X4749192Y-731960D02*
X4739668Y-712912D01*
X4739668Y-712912D02*
X4739668Y-541484D01*
X4920620Y-731960D02*
X4901573Y-741484D01*
X4901573Y-741484D02*
X4863477Y-741484D01*
X4863477Y-741484D02*
X4844430Y-731960D01*
X4844430Y-731960D02*
X4834906Y-712912D01*
X4834906Y-712912D02*
X4834906Y-636722D01*
X4834906Y-636722D02*
X4844430Y-617674D01*
X4844430Y-617674D02*
X4863477Y-608150D01*
X4863477Y-608150D02*
X4901573Y-608150D01*
X4901573Y-608150D02*
X4920620Y-617674D01*
X4920620Y-617674D02*
X4930144Y-636722D01*
X4930144Y-636722D02*
X4930144Y-655770D01*
X4930144Y-655770D02*
X4834906Y-674817D01*
X5006334Y-731960D02*
X5025382Y-741484D01*
X5025382Y-741484D02*
X5063477Y-741484D01*
X5063477Y-741484D02*
X5082525Y-731960D01*
X5082525Y-731960D02*
X5092049Y-712912D01*
X5092049Y-712912D02*
X5092049Y-703388D01*
X5092049Y-703388D02*
X5082525Y-684341D01*
X5082525Y-684341D02*
X5063477Y-674817D01*
X5063477Y-674817D02*
X5034906Y-674817D01*
X5034906Y-674817D02*
X5015858Y-665293D01*
X5015858Y-665293D02*
X5006334Y-646246D01*
X5006334Y-646246D02*
X5006334Y-636722D01*
X5006334Y-636722D02*
X5015858Y-617674D01*
X5015858Y-617674D02*
X5034906Y-608150D01*
X5034906Y-608150D02*
X5063477Y-608150D01*
X5063477Y-608150D02*
X5082525Y-617674D01*
X5158715Y-817674D02*
X5168239Y-808150D01*
X5168239Y-808150D02*
X5187287Y-779579D01*
X5187287Y-779579D02*
X5196811Y-760531D01*
X5196811Y-760531D02*
X5206334Y-731960D01*
X5206334Y-731960D02*
X5215858Y-684341D01*
X5215858Y-684341D02*
X5215858Y-646246D01*
X5215858Y-646246D02*
X5206334Y-598627D01*
X5206334Y-598627D02*
X5196811Y-570055D01*
X5196811Y-570055D02*
X5187287Y-551008D01*
X5187287Y-551008D02*
X5168239Y-522436D01*
X5168239Y-522436D02*
X5158715Y-512912D01*
D11*
X2700Y-914000D02*
G75*
G03*
X2700Y-914000I-15000J0D01*
G01*
D10*
X301572Y-805484D02*
X320620Y-805484D01*
X320620Y-805484D02*
X339667Y-815008D01*
X339667Y-815008D02*
X349191Y-824531D01*
X349191Y-824531D02*
X358715Y-843579D01*
X358715Y-843579D02*
X368239Y-881674D01*
X368239Y-881674D02*
X368239Y-929293D01*
X368239Y-929293D02*
X358715Y-967388D01*
X358715Y-967388D02*
X349191Y-986436D01*
X349191Y-986436D02*
X339667Y-995960D01*
X339667Y-995960D02*
X320620Y-1005484D01*
X320620Y-1005484D02*
X301572Y-1005484D01*
X301572Y-1005484D02*
X282524Y-995960D01*
X282524Y-995960D02*
X273001Y-986436D01*
X273001Y-986436D02*
X263477Y-967388D01*
X263477Y-967388D02*
X253953Y-929293D01*
X253953Y-929293D02*
X253953Y-881674D01*
X253953Y-881674D02*
X263477Y-843579D01*
X263477Y-843579D02*
X273001Y-824531D01*
X273001Y-824531D02*
X282524Y-815008D01*
X282524Y-815008D02*
X301572Y-805484D01*
X453953Y-986436D02*
X463477Y-995960D01*
X463477Y-995960D02*
X453953Y-1005484D01*
X453953Y-1005484D02*
X444429Y-995960D01*
X444429Y-995960D02*
X453953Y-986436D01*
X453953Y-986436D02*
X453953Y-1005484D01*
X530144Y-805484D02*
X653953Y-805484D01*
X653953Y-805484D02*
X587286Y-881674D01*
X587286Y-881674D02*
X615858Y-881674D01*
X615858Y-881674D02*
X634905Y-891198D01*
X634905Y-891198D02*
X644429Y-900722D01*
X644429Y-900722D02*
X653953Y-919769D01*
X653953Y-919769D02*
X653953Y-967388D01*
X653953Y-967388D02*
X644429Y-986436D01*
X644429Y-986436D02*
X634905Y-995960D01*
X634905Y-995960D02*
X615858Y-1005484D01*
X615858Y-1005484D02*
X558715Y-1005484D01*
X558715Y-1005484D02*
X539667Y-995960D01*
X539667Y-995960D02*
X530144Y-986436D01*
X777762Y-805484D02*
X796810Y-805484D01*
X796810Y-805484D02*
X815858Y-815008D01*
X815858Y-815008D02*
X825382Y-824531D01*
X825382Y-824531D02*
X834905Y-843579D01*
X834905Y-843579D02*
X844429Y-881674D01*
X844429Y-881674D02*
X844429Y-929293D01*
X844429Y-929293D02*
X834905Y-967388D01*
X834905Y-967388D02*
X825382Y-986436D01*
X825382Y-986436D02*
X815858Y-995960D01*
X815858Y-995960D02*
X796810Y-1005484D01*
X796810Y-1005484D02*
X777762Y-1005484D01*
X777762Y-1005484D02*
X758715Y-995960D01*
X758715Y-995960D02*
X749191Y-986436D01*
X749191Y-986436D02*
X739667Y-967388D01*
X739667Y-967388D02*
X730143Y-929293D01*
X730143Y-929293D02*
X730143Y-881674D01*
X730143Y-881674D02*
X739667Y-843579D01*
X739667Y-843579D02*
X749191Y-824531D01*
X749191Y-824531D02*
X758715Y-815008D01*
X758715Y-815008D02*
X777762Y-805484D01*
X968239Y-805484D02*
X987286Y-805484D01*
X987286Y-805484D02*
X1006334Y-815008D01*
X1006334Y-815008D02*
X1015858Y-824531D01*
X1015858Y-824531D02*
X1025382Y-843579D01*
X1025382Y-843579D02*
X1034905Y-881674D01*
X1034905Y-881674D02*
X1034905Y-929293D01*
X1034905Y-929293D02*
X1025382Y-967388D01*
X1025382Y-967388D02*
X1015858Y-986436D01*
X1015858Y-986436D02*
X1006334Y-995960D01*
X1006334Y-995960D02*
X987286Y-1005484D01*
X987286Y-1005484D02*
X968239Y-1005484D01*
X968239Y-1005484D02*
X949191Y-995960D01*
X949191Y-995960D02*
X939667Y-986436D01*
X939667Y-986436D02*
X930143Y-967388D01*
X930143Y-967388D02*
X920620Y-929293D01*
X920620Y-929293D02*
X920620Y-881674D01*
X920620Y-881674D02*
X930143Y-843579D01*
X930143Y-843579D02*
X939667Y-824531D01*
X939667Y-824531D02*
X949191Y-815008D01*
X949191Y-815008D02*
X968239Y-805484D01*
X1120620Y-1005484D02*
X1120620Y-872150D01*
X1120620Y-891198D02*
X1130144Y-881674D01*
X1130144Y-881674D02*
X1149191Y-872150D01*
X1149191Y-872150D02*
X1177763Y-872150D01*
X1177763Y-872150D02*
X1196810Y-881674D01*
X1196810Y-881674D02*
X1206334Y-900722D01*
X1206334Y-900722D02*
X1206334Y-1005484D01*
X1206334Y-900722D02*
X1215858Y-881674D01*
X1215858Y-881674D02*
X1234905Y-872150D01*
X1234905Y-872150D02*
X1263477Y-872150D01*
X1263477Y-872150D02*
X1282525Y-881674D01*
X1282525Y-881674D02*
X1292048Y-900722D01*
X1292048Y-900722D02*
X1292048Y-1005484D01*
X1387286Y-1005484D02*
X1387286Y-872150D01*
X1387286Y-891198D02*
X1396810Y-881674D01*
X1396810Y-881674D02*
X1415858Y-872150D01*
X1415858Y-872150D02*
X1444429Y-872150D01*
X1444429Y-872150D02*
X1463477Y-881674D01*
X1463477Y-881674D02*
X1473001Y-900722D01*
X1473001Y-900722D02*
X1473001Y-1005484D01*
X1473001Y-900722D02*
X1482524Y-881674D01*
X1482524Y-881674D02*
X1501572Y-872150D01*
X1501572Y-872150D02*
X1530143Y-872150D01*
X1530143Y-872150D02*
X1549191Y-881674D01*
X1549191Y-881674D02*
X1558715Y-900722D01*
X1558715Y-900722D02*
X1558715Y-1005484D01*
X1949191Y-795960D02*
X1777763Y-1053103D01*
X2206334Y-805484D02*
X2225382Y-805484D01*
X2225382Y-805484D02*
X2244429Y-815008D01*
X2244429Y-815008D02*
X2253953Y-824531D01*
X2253953Y-824531D02*
X2263477Y-843579D01*
X2263477Y-843579D02*
X2273001Y-881674D01*
X2273001Y-881674D02*
X2273001Y-929293D01*
X2273001Y-929293D02*
X2263477Y-967388D01*
X2263477Y-967388D02*
X2253953Y-986436D01*
X2253953Y-986436D02*
X2244429Y-995960D01*
X2244429Y-995960D02*
X2225382Y-1005484D01*
X2225382Y-1005484D02*
X2206334Y-1005484D01*
X2206334Y-1005484D02*
X2187287Y-995960D01*
X2187287Y-995960D02*
X2177763Y-986436D01*
X2177763Y-986436D02*
X2168239Y-967388D01*
X2168239Y-967388D02*
X2158715Y-929293D01*
X2158715Y-929293D02*
X2158715Y-881674D01*
X2158715Y-881674D02*
X2168239Y-843579D01*
X2168239Y-843579D02*
X2177763Y-824531D01*
X2177763Y-824531D02*
X2187287Y-815008D01*
X2187287Y-815008D02*
X2206334Y-805484D01*
X2358715Y-986436D02*
X2368239Y-995960D01*
X2368239Y-995960D02*
X2358715Y-1005484D01*
X2358715Y-1005484D02*
X2349191Y-995960D01*
X2349191Y-995960D02*
X2358715Y-986436D01*
X2358715Y-986436D02*
X2358715Y-1005484D01*
X2492048Y-805484D02*
X2511096Y-805484D01*
X2511096Y-805484D02*
X2530144Y-815008D01*
X2530144Y-815008D02*
X2539668Y-824531D01*
X2539668Y-824531D02*
X2549191Y-843579D01*
X2549191Y-843579D02*
X2558715Y-881674D01*
X2558715Y-881674D02*
X2558715Y-929293D01*
X2558715Y-929293D02*
X2549191Y-967388D01*
X2549191Y-967388D02*
X2539668Y-986436D01*
X2539668Y-986436D02*
X2530144Y-995960D01*
X2530144Y-995960D02*
X2511096Y-1005484D01*
X2511096Y-1005484D02*
X2492048Y-1005484D01*
X2492048Y-1005484D02*
X2473001Y-995960D01*
X2473001Y-995960D02*
X2463477Y-986436D01*
X2463477Y-986436D02*
X2453953Y-967388D01*
X2453953Y-967388D02*
X2444429Y-929293D01*
X2444429Y-929293D02*
X2444429Y-881674D01*
X2444429Y-881674D02*
X2453953Y-843579D01*
X2453953Y-843579D02*
X2463477Y-824531D01*
X2463477Y-824531D02*
X2473001Y-815008D01*
X2473001Y-815008D02*
X2492048Y-805484D01*
X2749191Y-1005484D02*
X2634906Y-1005484D01*
X2692048Y-1005484D02*
X2692048Y-805484D01*
X2692048Y-805484D02*
X2673001Y-834055D01*
X2673001Y-834055D02*
X2653953Y-853103D01*
X2653953Y-853103D02*
X2634906Y-862627D01*
X2939667Y-1005484D02*
X2825382Y-1005484D01*
X2882525Y-1005484D02*
X2882525Y-805484D01*
X2882525Y-805484D02*
X2863477Y-834055D01*
X2863477Y-834055D02*
X2844429Y-853103D01*
X2844429Y-853103D02*
X2825382Y-862627D01*
X3053953Y-891198D02*
X3034906Y-881674D01*
X3034906Y-881674D02*
X3025382Y-872150D01*
X3025382Y-872150D02*
X3015858Y-853103D01*
X3015858Y-853103D02*
X3015858Y-843579D01*
X3015858Y-843579D02*
X3025382Y-824531D01*
X3025382Y-824531D02*
X3034906Y-815008D01*
X3034906Y-815008D02*
X3053953Y-805484D01*
X3053953Y-805484D02*
X3092048Y-805484D01*
X3092048Y-805484D02*
X3111096Y-815008D01*
X3111096Y-815008D02*
X3120620Y-824531D01*
X3120620Y-824531D02*
X3130144Y-843579D01*
X3130144Y-843579D02*
X3130144Y-853103D01*
X3130144Y-853103D02*
X3120620Y-872150D01*
X3120620Y-872150D02*
X3111096Y-881674D01*
X3111096Y-881674D02*
X3092048Y-891198D01*
X3092048Y-891198D02*
X3053953Y-891198D01*
X3053953Y-891198D02*
X3034906Y-900722D01*
X3034906Y-900722D02*
X3025382Y-910246D01*
X3025382Y-910246D02*
X3015858Y-929293D01*
X3015858Y-929293D02*
X3015858Y-967388D01*
X3015858Y-967388D02*
X3025382Y-986436D01*
X3025382Y-986436D02*
X3034906Y-995960D01*
X3034906Y-995960D02*
X3053953Y-1005484D01*
X3053953Y-1005484D02*
X3092048Y-1005484D01*
X3092048Y-1005484D02*
X3111096Y-995960D01*
X3111096Y-995960D02*
X3120620Y-986436D01*
X3120620Y-986436D02*
X3130144Y-967388D01*
X3130144Y-967388D02*
X3130144Y-929293D01*
X3130144Y-929293D02*
X3120620Y-910246D01*
X3120620Y-910246D02*
X3111096Y-900722D01*
X3111096Y-900722D02*
X3092048Y-891198D01*
X3206334Y-805484D02*
X3206334Y-843579D01*
X3282525Y-805484D02*
X3282525Y-843579D01*
X3577763Y-1081674D02*
X3568239Y-1072150D01*
X3568239Y-1072150D02*
X3549191Y-1043579D01*
X3549191Y-1043579D02*
X3539668Y-1024531D01*
X3539668Y-1024531D02*
X3530144Y-995960D01*
X3530144Y-995960D02*
X3520620Y-948341D01*
X3520620Y-948341D02*
X3520620Y-910246D01*
X3520620Y-910246D02*
X3530144Y-862627D01*
X3530144Y-862627D02*
X3539668Y-834055D01*
X3539668Y-834055D02*
X3549191Y-815008D01*
X3549191Y-815008D02*
X3568239Y-786436D01*
X3568239Y-786436D02*
X3577763Y-776912D01*
X3758715Y-1005484D02*
X3644429Y-1005484D01*
X3701572Y-1005484D02*
X3701572Y-805484D01*
X3701572Y-805484D02*
X3682525Y-834055D01*
X3682525Y-834055D02*
X3663477Y-853103D01*
X3663477Y-853103D02*
X3644429Y-862627D01*
X3996810Y-1005484D02*
X3996810Y-805484D01*
X4082525Y-1005484D02*
X4082525Y-900722D01*
X4082525Y-900722D02*
X4073001Y-881674D01*
X4073001Y-881674D02*
X4053953Y-872150D01*
X4053953Y-872150D02*
X4025382Y-872150D01*
X4025382Y-872150D02*
X4006334Y-881674D01*
X4006334Y-881674D02*
X3996810Y-891198D01*
X4206334Y-1005484D02*
X4187287Y-995960D01*
X4187287Y-995960D02*
X4177763Y-986436D01*
X4177763Y-986436D02*
X4168239Y-967388D01*
X4168239Y-967388D02*
X4168239Y-910246D01*
X4168239Y-910246D02*
X4177763Y-891198D01*
X4177763Y-891198D02*
X4187287Y-881674D01*
X4187287Y-881674D02*
X4206334Y-872150D01*
X4206334Y-872150D02*
X4234906Y-872150D01*
X4234906Y-872150D02*
X4253953Y-881674D01*
X4253953Y-881674D02*
X4263477Y-891198D01*
X4263477Y-891198D02*
X4273001Y-910246D01*
X4273001Y-910246D02*
X4273001Y-967388D01*
X4273001Y-967388D02*
X4263477Y-986436D01*
X4263477Y-986436D02*
X4253953Y-995960D01*
X4253953Y-995960D02*
X4234906Y-1005484D01*
X4234906Y-1005484D02*
X4206334Y-1005484D01*
X4387287Y-1005484D02*
X4368239Y-995960D01*
X4368239Y-995960D02*
X4358715Y-976912D01*
X4358715Y-976912D02*
X4358715Y-805484D01*
X4539668Y-995960D02*
X4520620Y-1005484D01*
X4520620Y-1005484D02*
X4482525Y-1005484D01*
X4482525Y-1005484D02*
X4463477Y-995960D01*
X4463477Y-995960D02*
X4453953Y-976912D01*
X4453953Y-976912D02*
X4453953Y-900722D01*
X4453953Y-900722D02*
X4463477Y-881674D01*
X4463477Y-881674D02*
X4482525Y-872150D01*
X4482525Y-872150D02*
X4520620Y-872150D01*
X4520620Y-872150D02*
X4539668Y-881674D01*
X4539668Y-881674D02*
X4549192Y-900722D01*
X4549192Y-900722D02*
X4549192Y-919769D01*
X4549192Y-919769D02*
X4453953Y-938817D01*
X4615858Y-1081674D02*
X4625382Y-1072150D01*
X4625382Y-1072150D02*
X4644430Y-1043579D01*
X4644430Y-1043579D02*
X4653953Y-1024531D01*
X4653953Y-1024531D02*
X4663477Y-995960D01*
X4663477Y-995960D02*
X4673001Y-948341D01*
X4673001Y-948341D02*
X4673001Y-910246D01*
X4673001Y-910246D02*
X4663477Y-862627D01*
X4663477Y-862627D02*
X4653953Y-834055D01*
X4653953Y-834055D02*
X4644430Y-815008D01*
X4644430Y-815008D02*
X4625382Y-786436D01*
X4625382Y-786436D02*
X4615858Y-776912D01*
D12*
X-17300Y-1158000D02*
X-17300Y-1198000D01*
X-37300Y-1178000D02*
X2700Y-1178000D01*
D10*
X301572Y-1069484D02*
X320620Y-1069484D01*
X320620Y-1069484D02*
X339667Y-1079008D01*
X339667Y-1079008D02*
X349191Y-1088531D01*
X349191Y-1088531D02*
X358715Y-1107579D01*
X358715Y-1107579D02*
X368239Y-1145674D01*
X368239Y-1145674D02*
X368239Y-1193293D01*
X368239Y-1193293D02*
X358715Y-1231389D01*
X358715Y-1231389D02*
X349191Y-1250436D01*
X349191Y-1250436D02*
X339667Y-1259960D01*
X339667Y-1259960D02*
X320620Y-1269484D01*
X320620Y-1269484D02*
X301572Y-1269484D01*
X301572Y-1269484D02*
X282524Y-1259960D01*
X282524Y-1259960D02*
X273001Y-1250436D01*
X273001Y-1250436D02*
X263477Y-1231389D01*
X263477Y-1231389D02*
X253953Y-1193293D01*
X253953Y-1193293D02*
X253953Y-1145674D01*
X253953Y-1145674D02*
X263477Y-1107579D01*
X263477Y-1107579D02*
X273001Y-1088531D01*
X273001Y-1088531D02*
X282524Y-1079008D01*
X282524Y-1079008D02*
X301572Y-1069484D01*
X453953Y-1250436D02*
X463477Y-1259960D01*
X463477Y-1259960D02*
X453953Y-1269484D01*
X453953Y-1269484D02*
X444429Y-1259960D01*
X444429Y-1259960D02*
X453953Y-1250436D01*
X453953Y-1250436D02*
X453953Y-1269484D01*
X634905Y-1136150D02*
X634905Y-1269484D01*
X587286Y-1059960D02*
X539667Y-1202817D01*
X539667Y-1202817D02*
X663477Y-1202817D01*
X777762Y-1069484D02*
X796810Y-1069484D01*
X796810Y-1069484D02*
X815858Y-1079008D01*
X815858Y-1079008D02*
X825382Y-1088531D01*
X825382Y-1088531D02*
X834905Y-1107579D01*
X834905Y-1107579D02*
X844429Y-1145674D01*
X844429Y-1145674D02*
X844429Y-1193293D01*
X844429Y-1193293D02*
X834905Y-1231389D01*
X834905Y-1231389D02*
X825382Y-1250436D01*
X825382Y-1250436D02*
X815858Y-1259960D01*
X815858Y-1259960D02*
X796810Y-1269484D01*
X796810Y-1269484D02*
X777762Y-1269484D01*
X777762Y-1269484D02*
X758715Y-1259960D01*
X758715Y-1259960D02*
X749191Y-1250436D01*
X749191Y-1250436D02*
X739667Y-1231389D01*
X739667Y-1231389D02*
X730143Y-1193293D01*
X730143Y-1193293D02*
X730143Y-1145674D01*
X730143Y-1145674D02*
X739667Y-1107579D01*
X739667Y-1107579D02*
X749191Y-1088531D01*
X749191Y-1088531D02*
X758715Y-1079008D01*
X758715Y-1079008D02*
X777762Y-1069484D01*
X968239Y-1069484D02*
X987286Y-1069484D01*
X987286Y-1069484D02*
X1006334Y-1079008D01*
X1006334Y-1079008D02*
X1015858Y-1088531D01*
X1015858Y-1088531D02*
X1025382Y-1107579D01*
X1025382Y-1107579D02*
X1034905Y-1145674D01*
X1034905Y-1145674D02*
X1034905Y-1193293D01*
X1034905Y-1193293D02*
X1025382Y-1231389D01*
X1025382Y-1231389D02*
X1015858Y-1250436D01*
X1015858Y-1250436D02*
X1006334Y-1259960D01*
X1006334Y-1259960D02*
X987286Y-1269484D01*
X987286Y-1269484D02*
X968239Y-1269484D01*
X968239Y-1269484D02*
X949191Y-1259960D01*
X949191Y-1259960D02*
X939667Y-1250436D01*
X939667Y-1250436D02*
X930143Y-1231389D01*
X930143Y-1231389D02*
X920620Y-1193293D01*
X920620Y-1193293D02*
X920620Y-1145674D01*
X920620Y-1145674D02*
X930143Y-1107579D01*
X930143Y-1107579D02*
X939667Y-1088531D01*
X939667Y-1088531D02*
X949191Y-1079008D01*
X949191Y-1079008D02*
X968239Y-1069484D01*
X1120620Y-1269484D02*
X1120620Y-1136150D01*
X1120620Y-1155198D02*
X1130144Y-1145674D01*
X1130144Y-1145674D02*
X1149191Y-1136150D01*
X1149191Y-1136150D02*
X1177763Y-1136150D01*
X1177763Y-1136150D02*
X1196810Y-1145674D01*
X1196810Y-1145674D02*
X1206334Y-1164722D01*
X1206334Y-1164722D02*
X1206334Y-1269484D01*
X1206334Y-1164722D02*
X1215858Y-1145674D01*
X1215858Y-1145674D02*
X1234905Y-1136150D01*
X1234905Y-1136150D02*
X1263477Y-1136150D01*
X1263477Y-1136150D02*
X1282525Y-1145674D01*
X1282525Y-1145674D02*
X1292048Y-1164722D01*
X1292048Y-1164722D02*
X1292048Y-1269484D01*
X1387286Y-1269484D02*
X1387286Y-1136150D01*
X1387286Y-1155198D02*
X1396810Y-1145674D01*
X1396810Y-1145674D02*
X1415858Y-1136150D01*
X1415858Y-1136150D02*
X1444429Y-1136150D01*
X1444429Y-1136150D02*
X1463477Y-1145674D01*
X1463477Y-1145674D02*
X1473001Y-1164722D01*
X1473001Y-1164722D02*
X1473001Y-1269484D01*
X1473001Y-1164722D02*
X1482524Y-1145674D01*
X1482524Y-1145674D02*
X1501572Y-1136150D01*
X1501572Y-1136150D02*
X1530143Y-1136150D01*
X1530143Y-1136150D02*
X1549191Y-1145674D01*
X1549191Y-1145674D02*
X1558715Y-1164722D01*
X1558715Y-1164722D02*
X1558715Y-1269484D01*
X1949191Y-1059960D02*
X1777763Y-1317103D01*
X2206334Y-1069484D02*
X2225382Y-1069484D01*
X2225382Y-1069484D02*
X2244429Y-1079008D01*
X2244429Y-1079008D02*
X2253953Y-1088531D01*
X2253953Y-1088531D02*
X2263477Y-1107579D01*
X2263477Y-1107579D02*
X2273001Y-1145674D01*
X2273001Y-1145674D02*
X2273001Y-1193293D01*
X2273001Y-1193293D02*
X2263477Y-1231389D01*
X2263477Y-1231389D02*
X2253953Y-1250436D01*
X2253953Y-1250436D02*
X2244429Y-1259960D01*
X2244429Y-1259960D02*
X2225382Y-1269484D01*
X2225382Y-1269484D02*
X2206334Y-1269484D01*
X2206334Y-1269484D02*
X2187287Y-1259960D01*
X2187287Y-1259960D02*
X2177763Y-1250436D01*
X2177763Y-1250436D02*
X2168239Y-1231389D01*
X2168239Y-1231389D02*
X2158715Y-1193293D01*
X2158715Y-1193293D02*
X2158715Y-1145674D01*
X2158715Y-1145674D02*
X2168239Y-1107579D01*
X2168239Y-1107579D02*
X2177763Y-1088531D01*
X2177763Y-1088531D02*
X2187287Y-1079008D01*
X2187287Y-1079008D02*
X2206334Y-1069484D01*
X2358715Y-1250436D02*
X2368239Y-1259960D01*
X2368239Y-1259960D02*
X2358715Y-1269484D01*
X2358715Y-1269484D02*
X2349191Y-1259960D01*
X2349191Y-1259960D02*
X2358715Y-1250436D01*
X2358715Y-1250436D02*
X2358715Y-1269484D01*
X2492048Y-1069484D02*
X2511096Y-1069484D01*
X2511096Y-1069484D02*
X2530144Y-1079008D01*
X2530144Y-1079008D02*
X2539668Y-1088531D01*
X2539668Y-1088531D02*
X2549191Y-1107579D01*
X2549191Y-1107579D02*
X2558715Y-1145674D01*
X2558715Y-1145674D02*
X2558715Y-1193293D01*
X2558715Y-1193293D02*
X2549191Y-1231389D01*
X2549191Y-1231389D02*
X2539668Y-1250436D01*
X2539668Y-1250436D02*
X2530144Y-1259960D01*
X2530144Y-1259960D02*
X2511096Y-1269484D01*
X2511096Y-1269484D02*
X2492048Y-1269484D01*
X2492048Y-1269484D02*
X2473001Y-1259960D01*
X2473001Y-1259960D02*
X2463477Y-1250436D01*
X2463477Y-1250436D02*
X2453953Y-1231389D01*
X2453953Y-1231389D02*
X2444429Y-1193293D01*
X2444429Y-1193293D02*
X2444429Y-1145674D01*
X2444429Y-1145674D02*
X2453953Y-1107579D01*
X2453953Y-1107579D02*
X2463477Y-1088531D01*
X2463477Y-1088531D02*
X2473001Y-1079008D01*
X2473001Y-1079008D02*
X2492048Y-1069484D01*
X2749191Y-1269484D02*
X2634906Y-1269484D01*
X2692048Y-1269484D02*
X2692048Y-1069484D01*
X2692048Y-1069484D02*
X2673001Y-1098055D01*
X2673001Y-1098055D02*
X2653953Y-1117103D01*
X2653953Y-1117103D02*
X2634906Y-1126627D01*
X2930144Y-1069484D02*
X2834906Y-1069484D01*
X2834906Y-1069484D02*
X2825382Y-1164722D01*
X2825382Y-1164722D02*
X2834906Y-1155198D01*
X2834906Y-1155198D02*
X2853953Y-1145674D01*
X2853953Y-1145674D02*
X2901572Y-1145674D01*
X2901572Y-1145674D02*
X2920620Y-1155198D01*
X2920620Y-1155198D02*
X2930144Y-1164722D01*
X2930144Y-1164722D02*
X2939667Y-1183770D01*
X2939667Y-1183770D02*
X2939667Y-1231389D01*
X2939667Y-1231389D02*
X2930144Y-1250436D01*
X2930144Y-1250436D02*
X2920620Y-1259960D01*
X2920620Y-1259960D02*
X2901572Y-1269484D01*
X2901572Y-1269484D02*
X2853953Y-1269484D01*
X2853953Y-1269484D02*
X2834906Y-1259960D01*
X2834906Y-1259960D02*
X2825382Y-1250436D01*
X3006334Y-1069484D02*
X3139667Y-1069484D01*
X3139667Y-1069484D02*
X3053953Y-1269484D01*
X3206334Y-1069484D02*
X3206334Y-1107579D01*
X3282525Y-1069484D02*
X3282525Y-1107579D01*
X3577763Y-1345674D02*
X3568239Y-1336150D01*
X3568239Y-1336150D02*
X3549191Y-1307579D01*
X3549191Y-1307579D02*
X3539668Y-1288531D01*
X3539668Y-1288531D02*
X3530144Y-1259960D01*
X3530144Y-1259960D02*
X3520620Y-1212341D01*
X3520620Y-1212341D02*
X3520620Y-1174246D01*
X3520620Y-1174246D02*
X3530144Y-1126627D01*
X3530144Y-1126627D02*
X3539668Y-1098055D01*
X3539668Y-1098055D02*
X3549191Y-1079008D01*
X3549191Y-1079008D02*
X3568239Y-1050436D01*
X3568239Y-1050436D02*
X3577763Y-1040912D01*
X3644429Y-1088531D02*
X3653953Y-1079008D01*
X3653953Y-1079008D02*
X3673001Y-1069484D01*
X3673001Y-1069484D02*
X3720620Y-1069484D01*
X3720620Y-1069484D02*
X3739668Y-1079008D01*
X3739668Y-1079008D02*
X3749191Y-1088531D01*
X3749191Y-1088531D02*
X3758715Y-1107579D01*
X3758715Y-1107579D02*
X3758715Y-1126627D01*
X3758715Y-1126627D02*
X3749191Y-1155198D01*
X3749191Y-1155198D02*
X3634906Y-1269484D01*
X3634906Y-1269484D02*
X3758715Y-1269484D01*
X3996810Y-1269484D02*
X3996810Y-1069484D01*
X4082525Y-1269484D02*
X4082525Y-1164722D01*
X4082525Y-1164722D02*
X4073001Y-1145674D01*
X4073001Y-1145674D02*
X4053953Y-1136150D01*
X4053953Y-1136150D02*
X4025382Y-1136150D01*
X4025382Y-1136150D02*
X4006334Y-1145674D01*
X4006334Y-1145674D02*
X3996810Y-1155198D01*
X4206334Y-1269484D02*
X4187287Y-1259960D01*
X4187287Y-1259960D02*
X4177763Y-1250436D01*
X4177763Y-1250436D02*
X4168239Y-1231389D01*
X4168239Y-1231389D02*
X4168239Y-1174246D01*
X4168239Y-1174246D02*
X4177763Y-1155198D01*
X4177763Y-1155198D02*
X4187287Y-1145674D01*
X4187287Y-1145674D02*
X4206334Y-1136150D01*
X4206334Y-1136150D02*
X4234906Y-1136150D01*
X4234906Y-1136150D02*
X4253953Y-1145674D01*
X4253953Y-1145674D02*
X4263477Y-1155198D01*
X4263477Y-1155198D02*
X4273001Y-1174246D01*
X4273001Y-1174246D02*
X4273001Y-1231389D01*
X4273001Y-1231389D02*
X4263477Y-1250436D01*
X4263477Y-1250436D02*
X4253953Y-1259960D01*
X4253953Y-1259960D02*
X4234906Y-1269484D01*
X4234906Y-1269484D02*
X4206334Y-1269484D01*
X4387287Y-1269484D02*
X4368239Y-1259960D01*
X4368239Y-1259960D02*
X4358715Y-1240912D01*
X4358715Y-1240912D02*
X4358715Y-1069484D01*
X4539668Y-1259960D02*
X4520620Y-1269484D01*
X4520620Y-1269484D02*
X4482525Y-1269484D01*
X4482525Y-1269484D02*
X4463477Y-1259960D01*
X4463477Y-1259960D02*
X4453953Y-1240912D01*
X4453953Y-1240912D02*
X4453953Y-1164722D01*
X4453953Y-1164722D02*
X4463477Y-1145674D01*
X4463477Y-1145674D02*
X4482525Y-1136150D01*
X4482525Y-1136150D02*
X4520620Y-1136150D01*
X4520620Y-1136150D02*
X4539668Y-1145674D01*
X4539668Y-1145674D02*
X4549192Y-1164722D01*
X4549192Y-1164722D02*
X4549192Y-1183770D01*
X4549192Y-1183770D02*
X4453953Y-1202817D01*
X4625382Y-1259960D02*
X4644430Y-1269484D01*
X4644430Y-1269484D02*
X4682525Y-1269484D01*
X4682525Y-1269484D02*
X4701573Y-1259960D01*
X4701573Y-1259960D02*
X4711096Y-1240912D01*
X4711096Y-1240912D02*
X4711096Y-1231389D01*
X4711096Y-1231389D02*
X4701573Y-1212341D01*
X4701573Y-1212341D02*
X4682525Y-1202817D01*
X4682525Y-1202817D02*
X4653953Y-1202817D01*
X4653953Y-1202817D02*
X4634906Y-1193293D01*
X4634906Y-1193293D02*
X4625382Y-1174246D01*
X4625382Y-1174246D02*
X4625382Y-1164722D01*
X4625382Y-1164722D02*
X4634906Y-1145674D01*
X4634906Y-1145674D02*
X4653953Y-1136150D01*
X4653953Y-1136150D02*
X4682525Y-1136150D01*
X4682525Y-1136150D02*
X4701573Y-1145674D01*
X4777763Y-1345674D02*
X4787287Y-1336150D01*
X4787287Y-1336150D02*
X4806334Y-1307579D01*
X4806334Y-1307579D02*
X4815858Y-1288531D01*
X4815858Y-1288531D02*
X4825382Y-1259960D01*
X4825382Y-1259960D02*
X4834906Y-1212341D01*
X4834906Y-1212341D02*
X4834906Y-1174246D01*
X4834906Y-1174246D02*
X4825382Y-1126627D01*
X4825382Y-1126627D02*
X4815858Y-1098055D01*
X4815858Y-1098055D02*
X4806334Y-1079008D01*
X4806334Y-1079008D02*
X4787287Y-1050436D01*
X4787287Y-1050436D02*
X4777763Y-1040912D01*
D13*
X-6087Y-1463213D02*
X-6087Y-1420787D01*
X-48513Y-1420787D01*
X-48513Y-1463213D01*
X-6087Y-1463213D01*
D10*
X301572Y-1333484D02*
X320620Y-1333484D01*
X320620Y-1333484D02*
X339667Y-1343008D01*
X339667Y-1343008D02*
X349191Y-1352531D01*
X349191Y-1352531D02*
X358715Y-1371579D01*
X358715Y-1371579D02*
X368239Y-1409674D01*
X368239Y-1409674D02*
X368239Y-1457293D01*
X368239Y-1457293D02*
X358715Y-1495388D01*
X358715Y-1495388D02*
X349191Y-1514436D01*
X349191Y-1514436D02*
X339667Y-1523960D01*
X339667Y-1523960D02*
X320620Y-1533484D01*
X320620Y-1533484D02*
X301572Y-1533484D01*
X301572Y-1533484D02*
X282524Y-1523960D01*
X282524Y-1523960D02*
X273001Y-1514436D01*
X273001Y-1514436D02*
X263477Y-1495388D01*
X263477Y-1495388D02*
X253953Y-1457293D01*
X253953Y-1457293D02*
X253953Y-1409674D01*
X253953Y-1409674D02*
X263477Y-1371579D01*
X263477Y-1371579D02*
X273001Y-1352531D01*
X273001Y-1352531D02*
X282524Y-1343008D01*
X282524Y-1343008D02*
X301572Y-1333484D01*
X453953Y-1514436D02*
X463477Y-1523960D01*
X463477Y-1523960D02*
X453953Y-1533484D01*
X453953Y-1533484D02*
X444429Y-1523960D01*
X444429Y-1523960D02*
X453953Y-1514436D01*
X453953Y-1514436D02*
X453953Y-1533484D01*
X634905Y-1333484D02*
X596810Y-1333484D01*
X596810Y-1333484D02*
X577763Y-1343008D01*
X577763Y-1343008D02*
X568239Y-1352531D01*
X568239Y-1352531D02*
X549191Y-1381103D01*
X549191Y-1381103D02*
X539667Y-1419198D01*
X539667Y-1419198D02*
X539667Y-1495388D01*
X539667Y-1495388D02*
X549191Y-1514436D01*
X549191Y-1514436D02*
X558715Y-1523960D01*
X558715Y-1523960D02*
X577763Y-1533484D01*
X577763Y-1533484D02*
X615858Y-1533484D01*
X615858Y-1533484D02*
X634905Y-1523960D01*
X634905Y-1523960D02*
X644429Y-1514436D01*
X644429Y-1514436D02*
X653953Y-1495388D01*
X653953Y-1495388D02*
X653953Y-1447769D01*
X653953Y-1447769D02*
X644429Y-1428722D01*
X644429Y-1428722D02*
X634905Y-1419198D01*
X634905Y-1419198D02*
X615858Y-1409674D01*
X615858Y-1409674D02*
X577763Y-1409674D01*
X577763Y-1409674D02*
X558715Y-1419198D01*
X558715Y-1419198D02*
X549191Y-1428722D01*
X549191Y-1428722D02*
X539667Y-1447769D01*
X777762Y-1333484D02*
X796810Y-1333484D01*
X796810Y-1333484D02*
X815858Y-1343008D01*
X815858Y-1343008D02*
X825382Y-1352531D01*
X825382Y-1352531D02*
X834905Y-1371579D01*
X834905Y-1371579D02*
X844429Y-1409674D01*
X844429Y-1409674D02*
X844429Y-1457293D01*
X844429Y-1457293D02*
X834905Y-1495388D01*
X834905Y-1495388D02*
X825382Y-1514436D01*
X825382Y-1514436D02*
X815858Y-1523960D01*
X815858Y-1523960D02*
X796810Y-1533484D01*
X796810Y-1533484D02*
X777762Y-1533484D01*
X777762Y-1533484D02*
X758715Y-1523960D01*
X758715Y-1523960D02*
X749191Y-1514436D01*
X749191Y-1514436D02*
X739667Y-1495388D01*
X739667Y-1495388D02*
X730143Y-1457293D01*
X730143Y-1457293D02*
X730143Y-1409674D01*
X730143Y-1409674D02*
X739667Y-1371579D01*
X739667Y-1371579D02*
X749191Y-1352531D01*
X749191Y-1352531D02*
X758715Y-1343008D01*
X758715Y-1343008D02*
X777762Y-1333484D01*
X968239Y-1333484D02*
X987286Y-1333484D01*
X987286Y-1333484D02*
X1006334Y-1343008D01*
X1006334Y-1343008D02*
X1015858Y-1352531D01*
X1015858Y-1352531D02*
X1025382Y-1371579D01*
X1025382Y-1371579D02*
X1034905Y-1409674D01*
X1034905Y-1409674D02*
X1034905Y-1457293D01*
X1034905Y-1457293D02*
X1025382Y-1495388D01*
X1025382Y-1495388D02*
X1015858Y-1514436D01*
X1015858Y-1514436D02*
X1006334Y-1523960D01*
X1006334Y-1523960D02*
X987286Y-1533484D01*
X987286Y-1533484D02*
X968239Y-1533484D01*
X968239Y-1533484D02*
X949191Y-1523960D01*
X949191Y-1523960D02*
X939667Y-1514436D01*
X939667Y-1514436D02*
X930143Y-1495388D01*
X930143Y-1495388D02*
X920620Y-1457293D01*
X920620Y-1457293D02*
X920620Y-1409674D01*
X920620Y-1409674D02*
X930143Y-1371579D01*
X930143Y-1371579D02*
X939667Y-1352531D01*
X939667Y-1352531D02*
X949191Y-1343008D01*
X949191Y-1343008D02*
X968239Y-1333484D01*
X1120620Y-1533484D02*
X1120620Y-1400150D01*
X1120620Y-1419198D02*
X1130144Y-1409674D01*
X1130144Y-1409674D02*
X1149191Y-1400150D01*
X1149191Y-1400150D02*
X1177763Y-1400150D01*
X1177763Y-1400150D02*
X1196810Y-1409674D01*
X1196810Y-1409674D02*
X1206334Y-1428722D01*
X1206334Y-1428722D02*
X1206334Y-1533484D01*
X1206334Y-1428722D02*
X1215858Y-1409674D01*
X1215858Y-1409674D02*
X1234905Y-1400150D01*
X1234905Y-1400150D02*
X1263477Y-1400150D01*
X1263477Y-1400150D02*
X1282525Y-1409674D01*
X1282525Y-1409674D02*
X1292048Y-1428722D01*
X1292048Y-1428722D02*
X1292048Y-1533484D01*
X1387286Y-1533484D02*
X1387286Y-1400150D01*
X1387286Y-1419198D02*
X1396810Y-1409674D01*
X1396810Y-1409674D02*
X1415858Y-1400150D01*
X1415858Y-1400150D02*
X1444429Y-1400150D01*
X1444429Y-1400150D02*
X1463477Y-1409674D01*
X1463477Y-1409674D02*
X1473001Y-1428722D01*
X1473001Y-1428722D02*
X1473001Y-1533484D01*
X1473001Y-1428722D02*
X1482524Y-1409674D01*
X1482524Y-1409674D02*
X1501572Y-1400150D01*
X1501572Y-1400150D02*
X1530143Y-1400150D01*
X1530143Y-1400150D02*
X1549191Y-1409674D01*
X1549191Y-1409674D02*
X1558715Y-1428722D01*
X1558715Y-1428722D02*
X1558715Y-1533484D01*
X1949191Y-1323960D02*
X1777763Y-1581103D01*
X2206334Y-1333484D02*
X2225382Y-1333484D01*
X2225382Y-1333484D02*
X2244429Y-1343008D01*
X2244429Y-1343008D02*
X2253953Y-1352531D01*
X2253953Y-1352531D02*
X2263477Y-1371579D01*
X2263477Y-1371579D02*
X2273001Y-1409674D01*
X2273001Y-1409674D02*
X2273001Y-1457293D01*
X2273001Y-1457293D02*
X2263477Y-1495388D01*
X2263477Y-1495388D02*
X2253953Y-1514436D01*
X2253953Y-1514436D02*
X2244429Y-1523960D01*
X2244429Y-1523960D02*
X2225382Y-1533484D01*
X2225382Y-1533484D02*
X2206334Y-1533484D01*
X2206334Y-1533484D02*
X2187287Y-1523960D01*
X2187287Y-1523960D02*
X2177763Y-1514436D01*
X2177763Y-1514436D02*
X2168239Y-1495388D01*
X2168239Y-1495388D02*
X2158715Y-1457293D01*
X2158715Y-1457293D02*
X2158715Y-1409674D01*
X2158715Y-1409674D02*
X2168239Y-1371579D01*
X2168239Y-1371579D02*
X2177763Y-1352531D01*
X2177763Y-1352531D02*
X2187287Y-1343008D01*
X2187287Y-1343008D02*
X2206334Y-1333484D01*
X2358715Y-1514436D02*
X2368239Y-1523960D01*
X2368239Y-1523960D02*
X2358715Y-1533484D01*
X2358715Y-1533484D02*
X2349191Y-1523960D01*
X2349191Y-1523960D02*
X2358715Y-1514436D01*
X2358715Y-1514436D02*
X2358715Y-1533484D01*
X2492048Y-1333484D02*
X2511096Y-1333484D01*
X2511096Y-1333484D02*
X2530144Y-1343008D01*
X2530144Y-1343008D02*
X2539668Y-1352531D01*
X2539668Y-1352531D02*
X2549191Y-1371579D01*
X2549191Y-1371579D02*
X2558715Y-1409674D01*
X2558715Y-1409674D02*
X2558715Y-1457293D01*
X2558715Y-1457293D02*
X2549191Y-1495388D01*
X2549191Y-1495388D02*
X2539668Y-1514436D01*
X2539668Y-1514436D02*
X2530144Y-1523960D01*
X2530144Y-1523960D02*
X2511096Y-1533484D01*
X2511096Y-1533484D02*
X2492048Y-1533484D01*
X2492048Y-1533484D02*
X2473001Y-1523960D01*
X2473001Y-1523960D02*
X2463477Y-1514436D01*
X2463477Y-1514436D02*
X2453953Y-1495388D01*
X2453953Y-1495388D02*
X2444429Y-1457293D01*
X2444429Y-1457293D02*
X2444429Y-1409674D01*
X2444429Y-1409674D02*
X2453953Y-1371579D01*
X2453953Y-1371579D02*
X2463477Y-1352531D01*
X2463477Y-1352531D02*
X2473001Y-1343008D01*
X2473001Y-1343008D02*
X2492048Y-1333484D01*
X2634906Y-1352531D02*
X2644429Y-1343008D01*
X2644429Y-1343008D02*
X2663477Y-1333484D01*
X2663477Y-1333484D02*
X2711096Y-1333484D01*
X2711096Y-1333484D02*
X2730144Y-1343008D01*
X2730144Y-1343008D02*
X2739668Y-1352531D01*
X2739668Y-1352531D02*
X2749191Y-1371579D01*
X2749191Y-1371579D02*
X2749191Y-1390627D01*
X2749191Y-1390627D02*
X2739668Y-1419198D01*
X2739668Y-1419198D02*
X2625382Y-1533484D01*
X2625382Y-1533484D02*
X2749191Y-1533484D01*
X2815858Y-1333484D02*
X2939667Y-1333484D01*
X2939667Y-1333484D02*
X2873001Y-1409674D01*
X2873001Y-1409674D02*
X2901572Y-1409674D01*
X2901572Y-1409674D02*
X2920620Y-1419198D01*
X2920620Y-1419198D02*
X2930144Y-1428722D01*
X2930144Y-1428722D02*
X2939667Y-1447769D01*
X2939667Y-1447769D02*
X2939667Y-1495388D01*
X2939667Y-1495388D02*
X2930144Y-1514436D01*
X2930144Y-1514436D02*
X2920620Y-1523960D01*
X2920620Y-1523960D02*
X2901572Y-1533484D01*
X2901572Y-1533484D02*
X2844429Y-1533484D01*
X2844429Y-1533484D02*
X2825382Y-1523960D01*
X2825382Y-1523960D02*
X2815858Y-1514436D01*
X3111096Y-1333484D02*
X3073001Y-1333484D01*
X3073001Y-1333484D02*
X3053953Y-1343008D01*
X3053953Y-1343008D02*
X3044429Y-1352531D01*
X3044429Y-1352531D02*
X3025382Y-1381103D01*
X3025382Y-1381103D02*
X3015858Y-1419198D01*
X3015858Y-1419198D02*
X3015858Y-1495388D01*
X3015858Y-1495388D02*
X3025382Y-1514436D01*
X3025382Y-1514436D02*
X3034906Y-1523960D01*
X3034906Y-1523960D02*
X3053953Y-1533484D01*
X3053953Y-1533484D02*
X3092048Y-1533484D01*
X3092048Y-1533484D02*
X3111096Y-1523960D01*
X3111096Y-1523960D02*
X3120620Y-1514436D01*
X3120620Y-1514436D02*
X3130144Y-1495388D01*
X3130144Y-1495388D02*
X3130144Y-1447769D01*
X3130144Y-1447769D02*
X3120620Y-1428722D01*
X3120620Y-1428722D02*
X3111096Y-1419198D01*
X3111096Y-1419198D02*
X3092048Y-1409674D01*
X3092048Y-1409674D02*
X3053953Y-1409674D01*
X3053953Y-1409674D02*
X3034906Y-1419198D01*
X3034906Y-1419198D02*
X3025382Y-1428722D01*
X3025382Y-1428722D02*
X3015858Y-1447769D01*
X3206334Y-1333484D02*
X3206334Y-1371579D01*
X3282525Y-1333484D02*
X3282525Y-1371579D01*
X3577763Y-1609674D02*
X3568239Y-1600150D01*
X3568239Y-1600150D02*
X3549191Y-1571579D01*
X3549191Y-1571579D02*
X3539668Y-1552531D01*
X3539668Y-1552531D02*
X3530144Y-1523960D01*
X3530144Y-1523960D02*
X3520620Y-1476341D01*
X3520620Y-1476341D02*
X3520620Y-1438246D01*
X3520620Y-1438246D02*
X3530144Y-1390627D01*
X3530144Y-1390627D02*
X3539668Y-1362055D01*
X3539668Y-1362055D02*
X3549191Y-1343008D01*
X3549191Y-1343008D02*
X3568239Y-1314436D01*
X3568239Y-1314436D02*
X3577763Y-1304912D01*
X3692048Y-1333484D02*
X3711096Y-1333484D01*
X3711096Y-1333484D02*
X3730144Y-1343008D01*
X3730144Y-1343008D02*
X3739668Y-1352531D01*
X3739668Y-1352531D02*
X3749191Y-1371579D01*
X3749191Y-1371579D02*
X3758715Y-1409674D01*
X3758715Y-1409674D02*
X3758715Y-1457293D01*
X3758715Y-1457293D02*
X3749191Y-1495388D01*
X3749191Y-1495388D02*
X3739668Y-1514436D01*
X3739668Y-1514436D02*
X3730144Y-1523960D01*
X3730144Y-1523960D02*
X3711096Y-1533484D01*
X3711096Y-1533484D02*
X3692048Y-1533484D01*
X3692048Y-1533484D02*
X3673001Y-1523960D01*
X3673001Y-1523960D02*
X3663477Y-1514436D01*
X3663477Y-1514436D02*
X3653953Y-1495388D01*
X3653953Y-1495388D02*
X3644429Y-1457293D01*
X3644429Y-1457293D02*
X3644429Y-1409674D01*
X3644429Y-1409674D02*
X3653953Y-1371579D01*
X3653953Y-1371579D02*
X3663477Y-1352531D01*
X3663477Y-1352531D02*
X3673001Y-1343008D01*
X3673001Y-1343008D02*
X3692048Y-1333484D01*
X3996810Y-1533484D02*
X3996810Y-1333484D01*
X4082525Y-1533484D02*
X4082525Y-1428722D01*
X4082525Y-1428722D02*
X4073001Y-1409674D01*
X4073001Y-1409674D02*
X4053953Y-1400150D01*
X4053953Y-1400150D02*
X4025382Y-1400150D01*
X4025382Y-1400150D02*
X4006334Y-1409674D01*
X4006334Y-1409674D02*
X3996810Y-1419198D01*
X4206334Y-1533484D02*
X4187287Y-1523960D01*
X4187287Y-1523960D02*
X4177763Y-1514436D01*
X4177763Y-1514436D02*
X4168239Y-1495388D01*
X4168239Y-1495388D02*
X4168239Y-1438246D01*
X4168239Y-1438246D02*
X4177763Y-1419198D01*
X4177763Y-1419198D02*
X4187287Y-1409674D01*
X4187287Y-1409674D02*
X4206334Y-1400150D01*
X4206334Y-1400150D02*
X4234906Y-1400150D01*
X4234906Y-1400150D02*
X4253953Y-1409674D01*
X4253953Y-1409674D02*
X4263477Y-1419198D01*
X4263477Y-1419198D02*
X4273001Y-1438246D01*
X4273001Y-1438246D02*
X4273001Y-1495388D01*
X4273001Y-1495388D02*
X4263477Y-1514436D01*
X4263477Y-1514436D02*
X4253953Y-1523960D01*
X4253953Y-1523960D02*
X4234906Y-1533484D01*
X4234906Y-1533484D02*
X4206334Y-1533484D01*
X4387287Y-1533484D02*
X4368239Y-1523960D01*
X4368239Y-1523960D02*
X4358715Y-1504912D01*
X4358715Y-1504912D02*
X4358715Y-1333484D01*
X4539668Y-1523960D02*
X4520620Y-1533484D01*
X4520620Y-1533484D02*
X4482525Y-1533484D01*
X4482525Y-1533484D02*
X4463477Y-1523960D01*
X4463477Y-1523960D02*
X4453953Y-1504912D01*
X4453953Y-1504912D02*
X4453953Y-1428722D01*
X4453953Y-1428722D02*
X4463477Y-1409674D01*
X4463477Y-1409674D02*
X4482525Y-1400150D01*
X4482525Y-1400150D02*
X4520620Y-1400150D01*
X4520620Y-1400150D02*
X4539668Y-1409674D01*
X4539668Y-1409674D02*
X4549192Y-1428722D01*
X4549192Y-1428722D02*
X4549192Y-1447769D01*
X4549192Y-1447769D02*
X4453953Y-1466817D01*
X4625382Y-1523960D02*
X4644430Y-1533484D01*
X4644430Y-1533484D02*
X4682525Y-1533484D01*
X4682525Y-1533484D02*
X4701573Y-1523960D01*
X4701573Y-1523960D02*
X4711096Y-1504912D01*
X4711096Y-1504912D02*
X4711096Y-1495388D01*
X4711096Y-1495388D02*
X4701573Y-1476341D01*
X4701573Y-1476341D02*
X4682525Y-1466817D01*
X4682525Y-1466817D02*
X4653953Y-1466817D01*
X4653953Y-1466817D02*
X4634906Y-1457293D01*
X4634906Y-1457293D02*
X4625382Y-1438246D01*
X4625382Y-1438246D02*
X4625382Y-1428722D01*
X4625382Y-1428722D02*
X4634906Y-1409674D01*
X4634906Y-1409674D02*
X4653953Y-1400150D01*
X4653953Y-1400150D02*
X4682525Y-1400150D01*
X4682525Y-1400150D02*
X4701573Y-1409674D01*
X4949192Y-1457293D02*
X5101573Y-1457293D01*
X5025382Y-1533484D02*
X5025382Y-1381103D01*
X5434906Y-1400150D02*
X5434906Y-1533484D01*
X5387287Y-1323960D02*
X5339668Y-1466817D01*
X5339668Y-1466817D02*
X5463477Y-1466817D01*
X5682525Y-1523960D02*
X5701573Y-1533484D01*
X5701573Y-1533484D02*
X5739668Y-1533484D01*
X5739668Y-1533484D02*
X5758715Y-1523960D01*
X5758715Y-1523960D02*
X5768239Y-1504912D01*
X5768239Y-1504912D02*
X5768239Y-1495388D01*
X5768239Y-1495388D02*
X5758715Y-1476341D01*
X5758715Y-1476341D02*
X5739668Y-1466817D01*
X5739668Y-1466817D02*
X5711096Y-1466817D01*
X5711096Y-1466817D02*
X5692049Y-1457293D01*
X5692049Y-1457293D02*
X5682525Y-1438246D01*
X5682525Y-1438246D02*
X5682525Y-1428722D01*
X5682525Y-1428722D02*
X5692049Y-1409674D01*
X5692049Y-1409674D02*
X5711096Y-1400150D01*
X5711096Y-1400150D02*
X5739668Y-1400150D01*
X5739668Y-1400150D02*
X5758715Y-1409674D01*
X5882525Y-1533484D02*
X5863477Y-1523960D01*
X5863477Y-1523960D02*
X5853954Y-1504912D01*
X5853954Y-1504912D02*
X5853954Y-1333484D01*
X5987287Y-1533484D02*
X5968239Y-1523960D01*
X5968239Y-1523960D02*
X5958715Y-1514436D01*
X5958715Y-1514436D02*
X5949192Y-1495388D01*
X5949192Y-1495388D02*
X5949192Y-1438246D01*
X5949192Y-1438246D02*
X5958715Y-1419198D01*
X5958715Y-1419198D02*
X5968239Y-1409674D01*
X5968239Y-1409674D02*
X5987287Y-1400150D01*
X5987287Y-1400150D02*
X6015858Y-1400150D01*
X6015858Y-1400150D02*
X6034906Y-1409674D01*
X6034906Y-1409674D02*
X6044430Y-1419198D01*
X6044430Y-1419198D02*
X6053954Y-1438246D01*
X6053954Y-1438246D02*
X6053954Y-1495388D01*
X6053954Y-1495388D02*
X6044430Y-1514436D01*
X6044430Y-1514436D02*
X6034906Y-1523960D01*
X6034906Y-1523960D02*
X6015858Y-1533484D01*
X6015858Y-1533484D02*
X5987287Y-1533484D01*
X6111096Y-1400150D02*
X6187287Y-1400150D01*
X6139668Y-1333484D02*
X6139668Y-1504912D01*
X6139668Y-1504912D02*
X6149192Y-1523960D01*
X6149192Y-1523960D02*
X6168239Y-1533484D01*
X6168239Y-1533484D02*
X6187287Y-1533484D01*
X6244430Y-1523960D02*
X6263477Y-1533484D01*
X6263477Y-1533484D02*
X6301573Y-1533484D01*
X6301573Y-1533484D02*
X6320620Y-1523960D01*
X6320620Y-1523960D02*
X6330144Y-1504912D01*
X6330144Y-1504912D02*
X6330144Y-1495388D01*
X6330144Y-1495388D02*
X6320620Y-1476341D01*
X6320620Y-1476341D02*
X6301573Y-1466817D01*
X6301573Y-1466817D02*
X6273001Y-1466817D01*
X6273001Y-1466817D02*
X6253954Y-1457293D01*
X6253954Y-1457293D02*
X6244430Y-1438246D01*
X6244430Y-1438246D02*
X6244430Y-1428722D01*
X6244430Y-1428722D02*
X6253954Y-1409674D01*
X6253954Y-1409674D02*
X6273001Y-1400150D01*
X6273001Y-1400150D02*
X6301573Y-1400150D01*
X6301573Y-1400150D02*
X6320620Y-1409674D01*
X6396811Y-1609674D02*
X6406335Y-1600150D01*
X6406335Y-1600150D02*
X6425382Y-1571579D01*
X6425382Y-1571579D02*
X6434906Y-1552531D01*
X6434906Y-1552531D02*
X6444430Y-1523960D01*
X6444430Y-1523960D02*
X6453954Y-1476341D01*
X6453954Y-1476341D02*
X6453954Y-1438246D01*
X6453954Y-1438246D02*
X6444430Y-1390627D01*
X6444430Y-1390627D02*
X6434906Y-1362055D01*
X6434906Y-1362055D02*
X6425382Y-1343008D01*
X6425382Y-1343008D02*
X6406335Y-1314436D01*
X6406335Y-1314436D02*
X6396811Y-1304912D01*
D14*
X-29800Y-1738500D02*
X2700Y-1706000D01*
X-29800Y-1673500D01*
X-62300Y-1706000D01*
X-29800Y-1738500D01*
D10*
X301572Y-1597484D02*
X320620Y-1597484D01*
X320620Y-1597484D02*
X339667Y-1607008D01*
X339667Y-1607008D02*
X349191Y-1616531D01*
X349191Y-1616531D02*
X358715Y-1635579D01*
X358715Y-1635579D02*
X368239Y-1673674D01*
X368239Y-1673674D02*
X368239Y-1721293D01*
X368239Y-1721293D02*
X358715Y-1759388D01*
X358715Y-1759388D02*
X349191Y-1778436D01*
X349191Y-1778436D02*
X339667Y-1787960D01*
X339667Y-1787960D02*
X320620Y-1797484D01*
X320620Y-1797484D02*
X301572Y-1797484D01*
X301572Y-1797484D02*
X282524Y-1787960D01*
X282524Y-1787960D02*
X273001Y-1778436D01*
X273001Y-1778436D02*
X263477Y-1759388D01*
X263477Y-1759388D02*
X253953Y-1721293D01*
X253953Y-1721293D02*
X253953Y-1673674D01*
X253953Y-1673674D02*
X263477Y-1635579D01*
X263477Y-1635579D02*
X273001Y-1616531D01*
X273001Y-1616531D02*
X282524Y-1607008D01*
X282524Y-1607008D02*
X301572Y-1597484D01*
X453953Y-1778436D02*
X463477Y-1787960D01*
X463477Y-1787960D02*
X453953Y-1797484D01*
X453953Y-1797484D02*
X444429Y-1787960D01*
X444429Y-1787960D02*
X453953Y-1778436D01*
X453953Y-1778436D02*
X453953Y-1797484D01*
X634905Y-1597484D02*
X596810Y-1597484D01*
X596810Y-1597484D02*
X577763Y-1607008D01*
X577763Y-1607008D02*
X568239Y-1616531D01*
X568239Y-1616531D02*
X549191Y-1645103D01*
X549191Y-1645103D02*
X539667Y-1683198D01*
X539667Y-1683198D02*
X539667Y-1759388D01*
X539667Y-1759388D02*
X549191Y-1778436D01*
X549191Y-1778436D02*
X558715Y-1787960D01*
X558715Y-1787960D02*
X577763Y-1797484D01*
X577763Y-1797484D02*
X615858Y-1797484D01*
X615858Y-1797484D02*
X634905Y-1787960D01*
X634905Y-1787960D02*
X644429Y-1778436D01*
X644429Y-1778436D02*
X653953Y-1759388D01*
X653953Y-1759388D02*
X653953Y-1711769D01*
X653953Y-1711769D02*
X644429Y-1692722D01*
X644429Y-1692722D02*
X634905Y-1683198D01*
X634905Y-1683198D02*
X615858Y-1673674D01*
X615858Y-1673674D02*
X577763Y-1673674D01*
X577763Y-1673674D02*
X558715Y-1683198D01*
X558715Y-1683198D02*
X549191Y-1692722D01*
X549191Y-1692722D02*
X539667Y-1711769D01*
X834905Y-1597484D02*
X739667Y-1597484D01*
X739667Y-1597484D02*
X730143Y-1692722D01*
X730143Y-1692722D02*
X739667Y-1683198D01*
X739667Y-1683198D02*
X758715Y-1673674D01*
X758715Y-1673674D02*
X806334Y-1673674D01*
X806334Y-1673674D02*
X825382Y-1683198D01*
X825382Y-1683198D02*
X834905Y-1692722D01*
X834905Y-1692722D02*
X844429Y-1711769D01*
X844429Y-1711769D02*
X844429Y-1759388D01*
X844429Y-1759388D02*
X834905Y-1778436D01*
X834905Y-1778436D02*
X825382Y-1787960D01*
X825382Y-1787960D02*
X806334Y-1797484D01*
X806334Y-1797484D02*
X758715Y-1797484D01*
X758715Y-1797484D02*
X739667Y-1787960D01*
X739667Y-1787960D02*
X730143Y-1778436D01*
X968239Y-1597484D02*
X987286Y-1597484D01*
X987286Y-1597484D02*
X1006334Y-1607008D01*
X1006334Y-1607008D02*
X1015858Y-1616531D01*
X1015858Y-1616531D02*
X1025382Y-1635579D01*
X1025382Y-1635579D02*
X1034905Y-1673674D01*
X1034905Y-1673674D02*
X1034905Y-1721293D01*
X1034905Y-1721293D02*
X1025382Y-1759388D01*
X1025382Y-1759388D02*
X1015858Y-1778436D01*
X1015858Y-1778436D02*
X1006334Y-1787960D01*
X1006334Y-1787960D02*
X987286Y-1797484D01*
X987286Y-1797484D02*
X968239Y-1797484D01*
X968239Y-1797484D02*
X949191Y-1787960D01*
X949191Y-1787960D02*
X939667Y-1778436D01*
X939667Y-1778436D02*
X930143Y-1759388D01*
X930143Y-1759388D02*
X920620Y-1721293D01*
X920620Y-1721293D02*
X920620Y-1673674D01*
X920620Y-1673674D02*
X930143Y-1635579D01*
X930143Y-1635579D02*
X939667Y-1616531D01*
X939667Y-1616531D02*
X949191Y-1607008D01*
X949191Y-1607008D02*
X968239Y-1597484D01*
X1120620Y-1797484D02*
X1120620Y-1664150D01*
X1120620Y-1683198D02*
X1130144Y-1673674D01*
X1130144Y-1673674D02*
X1149191Y-1664150D01*
X1149191Y-1664150D02*
X1177763Y-1664150D01*
X1177763Y-1664150D02*
X1196810Y-1673674D01*
X1196810Y-1673674D02*
X1206334Y-1692722D01*
X1206334Y-1692722D02*
X1206334Y-1797484D01*
X1206334Y-1692722D02*
X1215858Y-1673674D01*
X1215858Y-1673674D02*
X1234905Y-1664150D01*
X1234905Y-1664150D02*
X1263477Y-1664150D01*
X1263477Y-1664150D02*
X1282525Y-1673674D01*
X1282525Y-1673674D02*
X1292048Y-1692722D01*
X1292048Y-1692722D02*
X1292048Y-1797484D01*
X1387286Y-1797484D02*
X1387286Y-1664150D01*
X1387286Y-1683198D02*
X1396810Y-1673674D01*
X1396810Y-1673674D02*
X1415858Y-1664150D01*
X1415858Y-1664150D02*
X1444429Y-1664150D01*
X1444429Y-1664150D02*
X1463477Y-1673674D01*
X1463477Y-1673674D02*
X1473001Y-1692722D01*
X1473001Y-1692722D02*
X1473001Y-1797484D01*
X1473001Y-1692722D02*
X1482524Y-1673674D01*
X1482524Y-1673674D02*
X1501572Y-1664150D01*
X1501572Y-1664150D02*
X1530143Y-1664150D01*
X1530143Y-1664150D02*
X1549191Y-1673674D01*
X1549191Y-1673674D02*
X1558715Y-1692722D01*
X1558715Y-1692722D02*
X1558715Y-1797484D01*
X1949191Y-1587960D02*
X1777763Y-1845103D01*
X2206334Y-1597484D02*
X2225382Y-1597484D01*
X2225382Y-1597484D02*
X2244429Y-1607008D01*
X2244429Y-1607008D02*
X2253953Y-1616531D01*
X2253953Y-1616531D02*
X2263477Y-1635579D01*
X2263477Y-1635579D02*
X2273001Y-1673674D01*
X2273001Y-1673674D02*
X2273001Y-1721293D01*
X2273001Y-1721293D02*
X2263477Y-1759388D01*
X2263477Y-1759388D02*
X2253953Y-1778436D01*
X2253953Y-1778436D02*
X2244429Y-1787960D01*
X2244429Y-1787960D02*
X2225382Y-1797484D01*
X2225382Y-1797484D02*
X2206334Y-1797484D01*
X2206334Y-1797484D02*
X2187287Y-1787960D01*
X2187287Y-1787960D02*
X2177763Y-1778436D01*
X2177763Y-1778436D02*
X2168239Y-1759388D01*
X2168239Y-1759388D02*
X2158715Y-1721293D01*
X2158715Y-1721293D02*
X2158715Y-1673674D01*
X2158715Y-1673674D02*
X2168239Y-1635579D01*
X2168239Y-1635579D02*
X2177763Y-1616531D01*
X2177763Y-1616531D02*
X2187287Y-1607008D01*
X2187287Y-1607008D02*
X2206334Y-1597484D01*
X2358715Y-1778436D02*
X2368239Y-1787960D01*
X2368239Y-1787960D02*
X2358715Y-1797484D01*
X2358715Y-1797484D02*
X2349191Y-1787960D01*
X2349191Y-1787960D02*
X2358715Y-1778436D01*
X2358715Y-1778436D02*
X2358715Y-1797484D01*
X2492048Y-1597484D02*
X2511096Y-1597484D01*
X2511096Y-1597484D02*
X2530144Y-1607008D01*
X2530144Y-1607008D02*
X2539668Y-1616531D01*
X2539668Y-1616531D02*
X2549191Y-1635579D01*
X2549191Y-1635579D02*
X2558715Y-1673674D01*
X2558715Y-1673674D02*
X2558715Y-1721293D01*
X2558715Y-1721293D02*
X2549191Y-1759388D01*
X2549191Y-1759388D02*
X2539668Y-1778436D01*
X2539668Y-1778436D02*
X2530144Y-1787960D01*
X2530144Y-1787960D02*
X2511096Y-1797484D01*
X2511096Y-1797484D02*
X2492048Y-1797484D01*
X2492048Y-1797484D02*
X2473001Y-1787960D01*
X2473001Y-1787960D02*
X2463477Y-1778436D01*
X2463477Y-1778436D02*
X2453953Y-1759388D01*
X2453953Y-1759388D02*
X2444429Y-1721293D01*
X2444429Y-1721293D02*
X2444429Y-1673674D01*
X2444429Y-1673674D02*
X2453953Y-1635579D01*
X2453953Y-1635579D02*
X2463477Y-1616531D01*
X2463477Y-1616531D02*
X2473001Y-1607008D01*
X2473001Y-1607008D02*
X2492048Y-1597484D01*
X2634906Y-1616531D02*
X2644429Y-1607008D01*
X2644429Y-1607008D02*
X2663477Y-1597484D01*
X2663477Y-1597484D02*
X2711096Y-1597484D01*
X2711096Y-1597484D02*
X2730144Y-1607008D01*
X2730144Y-1607008D02*
X2739668Y-1616531D01*
X2739668Y-1616531D02*
X2749191Y-1635579D01*
X2749191Y-1635579D02*
X2749191Y-1654627D01*
X2749191Y-1654627D02*
X2739668Y-1683198D01*
X2739668Y-1683198D02*
X2625382Y-1797484D01*
X2625382Y-1797484D02*
X2749191Y-1797484D01*
X2930144Y-1597484D02*
X2834906Y-1597484D01*
X2834906Y-1597484D02*
X2825382Y-1692722D01*
X2825382Y-1692722D02*
X2834906Y-1683198D01*
X2834906Y-1683198D02*
X2853953Y-1673674D01*
X2853953Y-1673674D02*
X2901572Y-1673674D01*
X2901572Y-1673674D02*
X2920620Y-1683198D01*
X2920620Y-1683198D02*
X2930144Y-1692722D01*
X2930144Y-1692722D02*
X2939667Y-1711769D01*
X2939667Y-1711769D02*
X2939667Y-1759388D01*
X2939667Y-1759388D02*
X2930144Y-1778436D01*
X2930144Y-1778436D02*
X2920620Y-1787960D01*
X2920620Y-1787960D02*
X2901572Y-1797484D01*
X2901572Y-1797484D02*
X2853953Y-1797484D01*
X2853953Y-1797484D02*
X2834906Y-1787960D01*
X2834906Y-1787960D02*
X2825382Y-1778436D01*
X3111096Y-1597484D02*
X3073001Y-1597484D01*
X3073001Y-1597484D02*
X3053953Y-1607008D01*
X3053953Y-1607008D02*
X3044429Y-1616531D01*
X3044429Y-1616531D02*
X3025382Y-1645103D01*
X3025382Y-1645103D02*
X3015858Y-1683198D01*
X3015858Y-1683198D02*
X3015858Y-1759388D01*
X3015858Y-1759388D02*
X3025382Y-1778436D01*
X3025382Y-1778436D02*
X3034906Y-1787960D01*
X3034906Y-1787960D02*
X3053953Y-1797484D01*
X3053953Y-1797484D02*
X3092048Y-1797484D01*
X3092048Y-1797484D02*
X3111096Y-1787960D01*
X3111096Y-1787960D02*
X3120620Y-1778436D01*
X3120620Y-1778436D02*
X3130144Y-1759388D01*
X3130144Y-1759388D02*
X3130144Y-1711769D01*
X3130144Y-1711769D02*
X3120620Y-1692722D01*
X3120620Y-1692722D02*
X3111096Y-1683198D01*
X3111096Y-1683198D02*
X3092048Y-1673674D01*
X3092048Y-1673674D02*
X3053953Y-1673674D01*
X3053953Y-1673674D02*
X3034906Y-1683198D01*
X3034906Y-1683198D02*
X3025382Y-1692722D01*
X3025382Y-1692722D02*
X3015858Y-1711769D01*
X3206334Y-1597484D02*
X3206334Y-1635579D01*
X3282525Y-1597484D02*
X3282525Y-1635579D01*
X3577763Y-1873674D02*
X3568239Y-1864150D01*
X3568239Y-1864150D02*
X3549191Y-1835579D01*
X3549191Y-1835579D02*
X3539668Y-1816531D01*
X3539668Y-1816531D02*
X3530144Y-1787960D01*
X3530144Y-1787960D02*
X3520620Y-1740341D01*
X3520620Y-1740341D02*
X3520620Y-1702246D01*
X3520620Y-1702246D02*
X3530144Y-1654627D01*
X3530144Y-1654627D02*
X3539668Y-1626055D01*
X3539668Y-1626055D02*
X3549191Y-1607008D01*
X3549191Y-1607008D02*
X3568239Y-1578436D01*
X3568239Y-1578436D02*
X3577763Y-1568912D01*
X3758715Y-1797484D02*
X3644429Y-1797484D01*
X3701572Y-1797484D02*
X3701572Y-1597484D01*
X3701572Y-1597484D02*
X3682525Y-1626055D01*
X3682525Y-1626055D02*
X3663477Y-1645103D01*
X3663477Y-1645103D02*
X3644429Y-1654627D01*
X3996810Y-1797484D02*
X3996810Y-1597484D01*
X4082525Y-1797484D02*
X4082525Y-1692722D01*
X4082525Y-1692722D02*
X4073001Y-1673674D01*
X4073001Y-1673674D02*
X4053953Y-1664150D01*
X4053953Y-1664150D02*
X4025382Y-1664150D01*
X4025382Y-1664150D02*
X4006334Y-1673674D01*
X4006334Y-1673674D02*
X3996810Y-1683198D01*
X4206334Y-1797484D02*
X4187287Y-1787960D01*
X4187287Y-1787960D02*
X4177763Y-1778436D01*
X4177763Y-1778436D02*
X4168239Y-1759388D01*
X4168239Y-1759388D02*
X4168239Y-1702246D01*
X4168239Y-1702246D02*
X4177763Y-1683198D01*
X4177763Y-1683198D02*
X4187287Y-1673674D01*
X4187287Y-1673674D02*
X4206334Y-1664150D01*
X4206334Y-1664150D02*
X4234906Y-1664150D01*
X4234906Y-1664150D02*
X4253953Y-1673674D01*
X4253953Y-1673674D02*
X4263477Y-1683198D01*
X4263477Y-1683198D02*
X4273001Y-1702246D01*
X4273001Y-1702246D02*
X4273001Y-1759388D01*
X4273001Y-1759388D02*
X4263477Y-1778436D01*
X4263477Y-1778436D02*
X4253953Y-1787960D01*
X4253953Y-1787960D02*
X4234906Y-1797484D01*
X4234906Y-1797484D02*
X4206334Y-1797484D01*
X4387287Y-1797484D02*
X4368239Y-1787960D01*
X4368239Y-1787960D02*
X4358715Y-1768912D01*
X4358715Y-1768912D02*
X4358715Y-1597484D01*
X4539668Y-1787960D02*
X4520620Y-1797484D01*
X4520620Y-1797484D02*
X4482525Y-1797484D01*
X4482525Y-1797484D02*
X4463477Y-1787960D01*
X4463477Y-1787960D02*
X4453953Y-1768912D01*
X4453953Y-1768912D02*
X4453953Y-1692722D01*
X4453953Y-1692722D02*
X4463477Y-1673674D01*
X4463477Y-1673674D02*
X4482525Y-1664150D01*
X4482525Y-1664150D02*
X4520620Y-1664150D01*
X4520620Y-1664150D02*
X4539668Y-1673674D01*
X4539668Y-1673674D02*
X4549192Y-1692722D01*
X4549192Y-1692722D02*
X4549192Y-1711769D01*
X4549192Y-1711769D02*
X4453953Y-1730817D01*
X4615858Y-1873674D02*
X4625382Y-1864150D01*
X4625382Y-1864150D02*
X4644430Y-1835579D01*
X4644430Y-1835579D02*
X4653953Y-1816531D01*
X4653953Y-1816531D02*
X4663477Y-1787960D01*
X4663477Y-1787960D02*
X4673001Y-1740341D01*
X4673001Y-1740341D02*
X4673001Y-1702246D01*
X4673001Y-1702246D02*
X4663477Y-1654627D01*
X4663477Y-1654627D02*
X4653953Y-1626055D01*
X4653953Y-1626055D02*
X4644430Y-1607008D01*
X4644430Y-1607008D02*
X4625382Y-1578436D01*
X4625382Y-1578436D02*
X4615858Y-1568912D01*
D15*
X-97300Y-1920000D02*
X2700Y-2020000D01*
X2700Y-1920000D02*
X-97300Y-2020000D01*
X2700Y-1970000D02*
G75*
G03*
X2700Y-1970000I-50000J0D01*
G01*
D10*
X368239Y-2061484D02*
X253953Y-2061484D01*
X311096Y-2061484D02*
X311096Y-1861484D01*
X311096Y-1861484D02*
X292048Y-1890055D01*
X292048Y-1890055D02*
X273001Y-1909103D01*
X273001Y-1909103D02*
X253953Y-1918627D01*
X453953Y-2042436D02*
X463477Y-2051960D01*
X463477Y-2051960D02*
X453953Y-2061484D01*
X453953Y-2061484D02*
X444429Y-2051960D01*
X444429Y-2051960D02*
X453953Y-2042436D01*
X453953Y-2042436D02*
X453953Y-2061484D01*
X587286Y-1861484D02*
X606334Y-1861484D01*
X606334Y-1861484D02*
X625382Y-1871008D01*
X625382Y-1871008D02*
X634905Y-1880531D01*
X634905Y-1880531D02*
X644429Y-1899579D01*
X644429Y-1899579D02*
X653953Y-1937674D01*
X653953Y-1937674D02*
X653953Y-1985293D01*
X653953Y-1985293D02*
X644429Y-2023388D01*
X644429Y-2023388D02*
X634905Y-2042436D01*
X634905Y-2042436D02*
X625382Y-2051960D01*
X625382Y-2051960D02*
X606334Y-2061484D01*
X606334Y-2061484D02*
X587286Y-2061484D01*
X587286Y-2061484D02*
X568239Y-2051960D01*
X568239Y-2051960D02*
X558715Y-2042436D01*
X558715Y-2042436D02*
X549191Y-2023388D01*
X549191Y-2023388D02*
X539667Y-1985293D01*
X539667Y-1985293D02*
X539667Y-1937674D01*
X539667Y-1937674D02*
X549191Y-1899579D01*
X549191Y-1899579D02*
X558715Y-1880531D01*
X558715Y-1880531D02*
X568239Y-1871008D01*
X568239Y-1871008D02*
X587286Y-1861484D01*
X777762Y-1861484D02*
X796810Y-1861484D01*
X796810Y-1861484D02*
X815858Y-1871008D01*
X815858Y-1871008D02*
X825382Y-1880531D01*
X825382Y-1880531D02*
X834905Y-1899579D01*
X834905Y-1899579D02*
X844429Y-1937674D01*
X844429Y-1937674D02*
X844429Y-1985293D01*
X844429Y-1985293D02*
X834905Y-2023388D01*
X834905Y-2023388D02*
X825382Y-2042436D01*
X825382Y-2042436D02*
X815858Y-2051960D01*
X815858Y-2051960D02*
X796810Y-2061484D01*
X796810Y-2061484D02*
X777762Y-2061484D01*
X777762Y-2061484D02*
X758715Y-2051960D01*
X758715Y-2051960D02*
X749191Y-2042436D01*
X749191Y-2042436D02*
X739667Y-2023388D01*
X739667Y-2023388D02*
X730143Y-1985293D01*
X730143Y-1985293D02*
X730143Y-1937674D01*
X730143Y-1937674D02*
X739667Y-1899579D01*
X739667Y-1899579D02*
X749191Y-1880531D01*
X749191Y-1880531D02*
X758715Y-1871008D01*
X758715Y-1871008D02*
X777762Y-1861484D01*
X968239Y-1861484D02*
X987286Y-1861484D01*
X987286Y-1861484D02*
X1006334Y-1871008D01*
X1006334Y-1871008D02*
X1015858Y-1880531D01*
X1015858Y-1880531D02*
X1025382Y-1899579D01*
X1025382Y-1899579D02*
X1034905Y-1937674D01*
X1034905Y-1937674D02*
X1034905Y-1985293D01*
X1034905Y-1985293D02*
X1025382Y-2023388D01*
X1025382Y-2023388D02*
X1015858Y-2042436D01*
X1015858Y-2042436D02*
X1006334Y-2051960D01*
X1006334Y-2051960D02*
X987286Y-2061484D01*
X987286Y-2061484D02*
X968239Y-2061484D01*
X968239Y-2061484D02*
X949191Y-2051960D01*
X949191Y-2051960D02*
X939667Y-2042436D01*
X939667Y-2042436D02*
X930143Y-2023388D01*
X930143Y-2023388D02*
X920620Y-1985293D01*
X920620Y-1985293D02*
X920620Y-1937674D01*
X920620Y-1937674D02*
X930143Y-1899579D01*
X930143Y-1899579D02*
X939667Y-1880531D01*
X939667Y-1880531D02*
X949191Y-1871008D01*
X949191Y-1871008D02*
X968239Y-1861484D01*
X1120620Y-2061484D02*
X1120620Y-1928150D01*
X1120620Y-1947198D02*
X1130144Y-1937674D01*
X1130144Y-1937674D02*
X1149191Y-1928150D01*
X1149191Y-1928150D02*
X1177763Y-1928150D01*
X1177763Y-1928150D02*
X1196810Y-1937674D01*
X1196810Y-1937674D02*
X1206334Y-1956722D01*
X1206334Y-1956722D02*
X1206334Y-2061484D01*
X1206334Y-1956722D02*
X1215858Y-1937674D01*
X1215858Y-1937674D02*
X1234905Y-1928150D01*
X1234905Y-1928150D02*
X1263477Y-1928150D01*
X1263477Y-1928150D02*
X1282525Y-1937674D01*
X1282525Y-1937674D02*
X1292048Y-1956722D01*
X1292048Y-1956722D02*
X1292048Y-2061484D01*
X1387286Y-2061484D02*
X1387286Y-1928150D01*
X1387286Y-1947198D02*
X1396810Y-1937674D01*
X1396810Y-1937674D02*
X1415858Y-1928150D01*
X1415858Y-1928150D02*
X1444429Y-1928150D01*
X1444429Y-1928150D02*
X1463477Y-1937674D01*
X1463477Y-1937674D02*
X1473001Y-1956722D01*
X1473001Y-1956722D02*
X1473001Y-2061484D01*
X1473001Y-1956722D02*
X1482524Y-1937674D01*
X1482524Y-1937674D02*
X1501572Y-1928150D01*
X1501572Y-1928150D02*
X1530143Y-1928150D01*
X1530143Y-1928150D02*
X1549191Y-1937674D01*
X1549191Y-1937674D02*
X1558715Y-1956722D01*
X1558715Y-1956722D02*
X1558715Y-2061484D01*
X1949191Y-1851960D02*
X1777763Y-2109103D01*
X2206334Y-1861484D02*
X2225382Y-1861484D01*
X2225382Y-1861484D02*
X2244429Y-1871008D01*
X2244429Y-1871008D02*
X2253953Y-1880531D01*
X2253953Y-1880531D02*
X2263477Y-1899579D01*
X2263477Y-1899579D02*
X2273001Y-1937674D01*
X2273001Y-1937674D02*
X2273001Y-1985293D01*
X2273001Y-1985293D02*
X2263477Y-2023388D01*
X2263477Y-2023388D02*
X2253953Y-2042436D01*
X2253953Y-2042436D02*
X2244429Y-2051960D01*
X2244429Y-2051960D02*
X2225382Y-2061484D01*
X2225382Y-2061484D02*
X2206334Y-2061484D01*
X2206334Y-2061484D02*
X2187287Y-2051960D01*
X2187287Y-2051960D02*
X2177763Y-2042436D01*
X2177763Y-2042436D02*
X2168239Y-2023388D01*
X2168239Y-2023388D02*
X2158715Y-1985293D01*
X2158715Y-1985293D02*
X2158715Y-1937674D01*
X2158715Y-1937674D02*
X2168239Y-1899579D01*
X2168239Y-1899579D02*
X2177763Y-1880531D01*
X2177763Y-1880531D02*
X2187287Y-1871008D01*
X2187287Y-1871008D02*
X2206334Y-1861484D01*
X2358715Y-2042436D02*
X2368239Y-2051960D01*
X2368239Y-2051960D02*
X2358715Y-2061484D01*
X2358715Y-2061484D02*
X2349191Y-2051960D01*
X2349191Y-2051960D02*
X2358715Y-2042436D01*
X2358715Y-2042436D02*
X2358715Y-2061484D01*
X2492048Y-1861484D02*
X2511096Y-1861484D01*
X2511096Y-1861484D02*
X2530144Y-1871008D01*
X2530144Y-1871008D02*
X2539668Y-1880531D01*
X2539668Y-1880531D02*
X2549191Y-1899579D01*
X2549191Y-1899579D02*
X2558715Y-1937674D01*
X2558715Y-1937674D02*
X2558715Y-1985293D01*
X2558715Y-1985293D02*
X2549191Y-2023388D01*
X2549191Y-2023388D02*
X2539668Y-2042436D01*
X2539668Y-2042436D02*
X2530144Y-2051960D01*
X2530144Y-2051960D02*
X2511096Y-2061484D01*
X2511096Y-2061484D02*
X2492048Y-2061484D01*
X2492048Y-2061484D02*
X2473001Y-2051960D01*
X2473001Y-2051960D02*
X2463477Y-2042436D01*
X2463477Y-2042436D02*
X2453953Y-2023388D01*
X2453953Y-2023388D02*
X2444429Y-1985293D01*
X2444429Y-1985293D02*
X2444429Y-1937674D01*
X2444429Y-1937674D02*
X2453953Y-1899579D01*
X2453953Y-1899579D02*
X2463477Y-1880531D01*
X2463477Y-1880531D02*
X2473001Y-1871008D01*
X2473001Y-1871008D02*
X2492048Y-1861484D01*
X2625382Y-1861484D02*
X2749191Y-1861484D01*
X2749191Y-1861484D02*
X2682525Y-1937674D01*
X2682525Y-1937674D02*
X2711096Y-1937674D01*
X2711096Y-1937674D02*
X2730144Y-1947198D01*
X2730144Y-1947198D02*
X2739668Y-1956722D01*
X2739668Y-1956722D02*
X2749191Y-1975769D01*
X2749191Y-1975769D02*
X2749191Y-2023388D01*
X2749191Y-2023388D02*
X2739668Y-2042436D01*
X2739668Y-2042436D02*
X2730144Y-2051960D01*
X2730144Y-2051960D02*
X2711096Y-2061484D01*
X2711096Y-2061484D02*
X2653953Y-2061484D01*
X2653953Y-2061484D02*
X2634906Y-2051960D01*
X2634906Y-2051960D02*
X2625382Y-2042436D01*
X2844429Y-2061484D02*
X2882525Y-2061484D01*
X2882525Y-2061484D02*
X2901572Y-2051960D01*
X2901572Y-2051960D02*
X2911096Y-2042436D01*
X2911096Y-2042436D02*
X2930144Y-2013865D01*
X2930144Y-2013865D02*
X2939667Y-1975769D01*
X2939667Y-1975769D02*
X2939667Y-1899579D01*
X2939667Y-1899579D02*
X2930144Y-1880531D01*
X2930144Y-1880531D02*
X2920620Y-1871008D01*
X2920620Y-1871008D02*
X2901572Y-1861484D01*
X2901572Y-1861484D02*
X2863477Y-1861484D01*
X2863477Y-1861484D02*
X2844429Y-1871008D01*
X2844429Y-1871008D02*
X2834906Y-1880531D01*
X2834906Y-1880531D02*
X2825382Y-1899579D01*
X2825382Y-1899579D02*
X2825382Y-1947198D01*
X2825382Y-1947198D02*
X2834906Y-1966246D01*
X2834906Y-1966246D02*
X2844429Y-1975769D01*
X2844429Y-1975769D02*
X2863477Y-1985293D01*
X2863477Y-1985293D02*
X2901572Y-1985293D01*
X2901572Y-1985293D02*
X2920620Y-1975769D01*
X2920620Y-1975769D02*
X2930144Y-1966246D01*
X2930144Y-1966246D02*
X2939667Y-1947198D01*
X3111096Y-1928150D02*
X3111096Y-2061484D01*
X3063477Y-1851960D02*
X3015858Y-1994817D01*
X3015858Y-1994817D02*
X3139667Y-1994817D01*
X3206334Y-1861484D02*
X3206334Y-1899579D01*
X3282525Y-1861484D02*
X3282525Y-1899579D01*
X3577763Y-2137674D02*
X3568239Y-2128150D01*
X3568239Y-2128150D02*
X3549191Y-2099579D01*
X3549191Y-2099579D02*
X3539668Y-2080531D01*
X3539668Y-2080531D02*
X3530144Y-2051960D01*
X3530144Y-2051960D02*
X3520620Y-2004341D01*
X3520620Y-2004341D02*
X3520620Y-1966246D01*
X3520620Y-1966246D02*
X3530144Y-1918627D01*
X3530144Y-1918627D02*
X3539668Y-1890055D01*
X3539668Y-1890055D02*
X3549191Y-1871008D01*
X3549191Y-1871008D02*
X3568239Y-1842436D01*
X3568239Y-1842436D02*
X3577763Y-1832912D01*
X3758715Y-2061484D02*
X3644429Y-2061484D01*
X3701572Y-2061484D02*
X3701572Y-1861484D01*
X3701572Y-1861484D02*
X3682525Y-1890055D01*
X3682525Y-1890055D02*
X3663477Y-1909103D01*
X3663477Y-1909103D02*
X3644429Y-1918627D01*
X3930144Y-1861484D02*
X3892048Y-1861484D01*
X3892048Y-1861484D02*
X3873001Y-1871008D01*
X3873001Y-1871008D02*
X3863477Y-1880531D01*
X3863477Y-1880531D02*
X3844429Y-1909103D01*
X3844429Y-1909103D02*
X3834906Y-1947198D01*
X3834906Y-1947198D02*
X3834906Y-2023388D01*
X3834906Y-2023388D02*
X3844429Y-2042436D01*
X3844429Y-2042436D02*
X3853953Y-2051960D01*
X3853953Y-2051960D02*
X3873001Y-2061484D01*
X3873001Y-2061484D02*
X3911096Y-2061484D01*
X3911096Y-2061484D02*
X3930144Y-2051960D01*
X3930144Y-2051960D02*
X3939668Y-2042436D01*
X3939668Y-2042436D02*
X3949191Y-2023388D01*
X3949191Y-2023388D02*
X3949191Y-1975769D01*
X3949191Y-1975769D02*
X3939668Y-1956722D01*
X3939668Y-1956722D02*
X3930144Y-1947198D01*
X3930144Y-1947198D02*
X3911096Y-1937674D01*
X3911096Y-1937674D02*
X3873001Y-1937674D01*
X3873001Y-1937674D02*
X3853953Y-1947198D01*
X3853953Y-1947198D02*
X3844429Y-1956722D01*
X3844429Y-1956722D02*
X3834906Y-1975769D01*
X4187287Y-2061484D02*
X4187287Y-1861484D01*
X4273001Y-2061484D02*
X4273001Y-1956722D01*
X4273001Y-1956722D02*
X4263477Y-1937674D01*
X4263477Y-1937674D02*
X4244430Y-1928150D01*
X4244430Y-1928150D02*
X4215858Y-1928150D01*
X4215858Y-1928150D02*
X4196811Y-1937674D01*
X4196811Y-1937674D02*
X4187287Y-1947198D01*
X4396811Y-2061484D02*
X4377763Y-2051960D01*
X4377763Y-2051960D02*
X4368239Y-2042436D01*
X4368239Y-2042436D02*
X4358715Y-2023388D01*
X4358715Y-2023388D02*
X4358715Y-1966246D01*
X4358715Y-1966246D02*
X4368239Y-1947198D01*
X4368239Y-1947198D02*
X4377763Y-1937674D01*
X4377763Y-1937674D02*
X4396811Y-1928150D01*
X4396811Y-1928150D02*
X4425382Y-1928150D01*
X4425382Y-1928150D02*
X4444430Y-1937674D01*
X4444430Y-1937674D02*
X4453953Y-1947198D01*
X4453953Y-1947198D02*
X4463477Y-1966246D01*
X4463477Y-1966246D02*
X4463477Y-2023388D01*
X4463477Y-2023388D02*
X4453953Y-2042436D01*
X4453953Y-2042436D02*
X4444430Y-2051960D01*
X4444430Y-2051960D02*
X4425382Y-2061484D01*
X4425382Y-2061484D02*
X4396811Y-2061484D01*
X4577763Y-2061484D02*
X4558715Y-2051960D01*
X4558715Y-2051960D02*
X4549192Y-2032912D01*
X4549192Y-2032912D02*
X4549192Y-1861484D01*
X4730144Y-2051960D02*
X4711096Y-2061484D01*
X4711096Y-2061484D02*
X4673001Y-2061484D01*
X4673001Y-2061484D02*
X4653953Y-2051960D01*
X4653953Y-2051960D02*
X4644430Y-2032912D01*
X4644430Y-2032912D02*
X4644430Y-1956722D01*
X4644430Y-1956722D02*
X4653953Y-1937674D01*
X4653953Y-1937674D02*
X4673001Y-1928150D01*
X4673001Y-1928150D02*
X4711096Y-1928150D01*
X4711096Y-1928150D02*
X4730144Y-1937674D01*
X4730144Y-1937674D02*
X4739668Y-1956722D01*
X4739668Y-1956722D02*
X4739668Y-1975769D01*
X4739668Y-1975769D02*
X4644430Y-1994817D01*
X4815858Y-2051960D02*
X4834906Y-2061484D01*
X4834906Y-2061484D02*
X4873001Y-2061484D01*
X4873001Y-2061484D02*
X4892049Y-2051960D01*
X4892049Y-2051960D02*
X4901573Y-2032912D01*
X4901573Y-2032912D02*
X4901573Y-2023388D01*
X4901573Y-2023388D02*
X4892049Y-2004341D01*
X4892049Y-2004341D02*
X4873001Y-1994817D01*
X4873001Y-1994817D02*
X4844430Y-1994817D01*
X4844430Y-1994817D02*
X4825382Y-1985293D01*
X4825382Y-1985293D02*
X4815858Y-1966246D01*
X4815858Y-1966246D02*
X4815858Y-1956722D01*
X4815858Y-1956722D02*
X4825382Y-1937674D01*
X4825382Y-1937674D02*
X4844430Y-1928150D01*
X4844430Y-1928150D02*
X4873001Y-1928150D01*
X4873001Y-1928150D02*
X4892049Y-1937674D01*
X4968239Y-2137674D02*
X4977763Y-2128150D01*
X4977763Y-2128150D02*
X4996811Y-2099579D01*
X4996811Y-2099579D02*
X5006334Y-2080531D01*
X5006334Y-2080531D02*
X5015858Y-2051960D01*
X5015858Y-2051960D02*
X5025382Y-2004341D01*
X5025382Y-2004341D02*
X5025382Y-1966246D01*
X5025382Y-1966246D02*
X5015858Y-1918627D01*
X5015858Y-1918627D02*
X5006334Y-1890055D01*
X5006334Y-1890055D02*
X4996811Y-1871008D01*
X4996811Y-1871008D02*
X4977763Y-1842436D01*
X4977763Y-1842436D02*
X4968239Y-1832912D01*
M02*
