G04 #@! TF.GenerationSoftware,KiCad,Pcbnew,9.0.3*
G04 #@! TF.CreationDate,2025-10-07T22:56:25+02:00*
G04 #@! TF.ProjectId,esp-atx-power,6573702d-6174-4782-9d70-6f7765722e6b,2.0.0*
G04 #@! TF.SameCoordinates,PX6f6d640PY7445a00*
G04 #@! TF.FileFunction,Copper,L4,Bot*
G04 #@! TF.FilePolarity,Positive*
%FSLAX46Y46*%
G04 Gerber Fmt 4.6, Leading zero omitted, Abs format (unit mm)*
G04 Created by KiCad (PCBNEW 9.0.3) date 2025-10-07 22:56:25*
%MOMM*%
%LPD*%
G01*
G04 APERTURE LIST*
G04 #@! TA.AperFunction,HeatsinkPad*
%ADD10O,1.000000X2.100000*%
G04 #@! TD*
G04 #@! TA.AperFunction,HeatsinkPad*
%ADD11O,1.000000X1.800000*%
G04 #@! TD*
G04 #@! TA.AperFunction,HeatsinkPad*
%ADD12C,0.600000*%
G04 #@! TD*
G04 #@! TA.AperFunction,ComponentPad*
%ADD13R,1.700000X1.700000*%
G04 #@! TD*
G04 #@! TA.AperFunction,ComponentPad*
%ADD14C,1.700000*%
G04 #@! TD*
G04 #@! TA.AperFunction,ViaPad*
%ADD15C,0.450000*%
G04 #@! TD*
G04 #@! TA.AperFunction,ViaPad*
%ADD16C,0.600000*%
G04 #@! TD*
G04 #@! TA.AperFunction,Conductor*
%ADD17C,0.120000*%
G04 #@! TD*
G04 #@! TA.AperFunction,Conductor*
%ADD18C,0.200000*%
G04 #@! TD*
G04 APERTURE END LIST*
D10*
G04 #@! TO.P,J105,S1,SHIELD*
G04 #@! TO.N,GND*
X43893200Y17698400D03*
D11*
X43893200Y21898400D03*
D10*
X35253200Y17698400D03*
D11*
X35253200Y21898400D03*
G04 #@! TD*
D12*
G04 #@! TO.P,U101,19,GND*
G04 #@! TO.N,GND*
X60730400Y10765000D03*
X59630400Y10765000D03*
X61280400Y10215000D03*
X60180400Y10215000D03*
X59080400Y10215000D03*
X60730400Y9665000D03*
X59630400Y9665000D03*
X61280400Y9115000D03*
X60180400Y9115000D03*
X59080400Y9115000D03*
X60730400Y8565000D03*
X59630400Y8565000D03*
G04 #@! TD*
D13*
G04 #@! TO.P,J102,1,Pin_1*
G04 #@! TO.N,/PWR_SW_P*
X7315200Y18160600D03*
D14*
G04 #@! TO.P,J102,2,Pin_2*
X7315200Y20700600D03*
G04 #@! TO.P,J102,3,Pin_3*
G04 #@! TO.N,/PWR_SW_N*
X9855200Y18160600D03*
G04 #@! TO.P,J102,4,Pin_4*
X9855200Y20700600D03*
G04 #@! TO.P,J102,5,Pin_5*
G04 #@! TO.N,/RST_SW_P*
X12395200Y18160600D03*
G04 #@! TO.P,J102,6,Pin_6*
X12395200Y20700600D03*
G04 #@! TO.P,J102,7,Pin_7*
G04 #@! TO.N,/RST_SW_N*
X14935200Y18160600D03*
G04 #@! TO.P,J102,8,Pin_8*
X14935200Y20700600D03*
G04 #@! TO.P,J102,9,Pin_9*
G04 #@! TO.N,/PWR_LED_N*
X17475200Y18160600D03*
G04 #@! TO.P,J102,10,Pin_10*
X17475200Y20700600D03*
G04 #@! TO.P,J102,11,Pin_11*
G04 #@! TO.N,/PWR_LED_P*
X20015200Y18160600D03*
G04 #@! TO.P,J102,12,Pin_12*
X20015200Y20700600D03*
G04 #@! TO.P,J102,13,Pin_13*
G04 #@! TO.N,/HDD_LED_N*
X22555200Y18160600D03*
G04 #@! TO.P,J102,14,Pin_14*
X22555200Y20700600D03*
G04 #@! TO.P,J102,15,Pin_15*
G04 #@! TO.N,/HDD_LED_P*
X25095200Y18160600D03*
G04 #@! TO.P,J102,16,Pin_16*
X25095200Y20700600D03*
G04 #@! TO.P,J102,17,Pin_17*
G04 #@! TO.N,+5VA*
X27635200Y18160600D03*
G04 #@! TO.P,J102,18,Pin_18*
G04 #@! TO.N,GND*
X27635200Y20700600D03*
G04 #@! TD*
D15*
G04 #@! TO.N,/EN*
X35204400Y4572000D03*
X62992000Y18186400D03*
D16*
G04 #@! TO.N,+3V3*
X68376800Y20925000D03*
X44246800Y5583400D03*
X49936400Y21844000D03*
X50800000Y20874200D03*
X29334398Y5583400D03*
X69850000Y3810000D03*
X49885600Y20878800D03*
X57048400Y20624800D03*
D15*
G04 #@! TO.N,GND*
X45161200Y4161000D03*
X22301200Y8733000D03*
X64770000Y3505200D03*
X70561200Y605000D03*
X42113200Y10718800D03*
X70967600Y19401000D03*
X28752800Y14829000D03*
X14630400Y8733000D03*
X52273200Y19909000D03*
X67513200Y11171400D03*
X31394400Y605000D03*
X34544000Y4114800D03*
X42773600Y16154400D03*
X75895200Y13305000D03*
X55372000Y605000D03*
X65938400Y13152600D03*
X29514800Y15895800D03*
X32461200Y18338800D03*
X50952400Y14930600D03*
X65481200Y605000D03*
X38557200Y13254200D03*
X67513200Y14981400D03*
X62636400Y4114800D03*
X64211200Y23058600D03*
X69088000Y16048200D03*
X26720800Y19401000D03*
X70815200Y5537200D03*
X75895200Y18385000D03*
X32004000Y4114800D03*
X74625200Y8885400D03*
X44094400Y13563600D03*
X55930800Y11831800D03*
X34239200Y19807400D03*
X63347600Y20874200D03*
X70561200Y3145000D03*
X14173200Y3860800D03*
X70358000Y17115000D03*
X47752000Y17470600D03*
X73609200Y7869400D03*
X69342000Y1879600D03*
X19761200Y8733000D03*
X63855600Y9296400D03*
X73710800Y17115000D03*
X28803600Y19401000D03*
X74625200Y12441400D03*
X69799200Y20518600D03*
X26771600Y22093400D03*
X37541200Y24481000D03*
X47396400Y9241000D03*
X59283600Y15184600D03*
X62941200Y605000D03*
X29921200Y605000D03*
X7061200Y8733000D03*
X28752800Y17013400D03*
X60045600Y4465800D03*
X54965600Y7666200D03*
X61823600Y20874200D03*
X44907200Y15438600D03*
X60401200Y24481000D03*
X75895200Y15845000D03*
X34036000Y14829000D03*
X38709600Y7666200D03*
X59283600Y7061200D03*
X56997600Y12898600D03*
X24841200Y8733000D03*
X34696400Y9398000D03*
X5283200Y5939000D03*
X7010400Y6650200D03*
X43332400Y15443200D03*
X52222399Y17470600D03*
X54914800Y5583400D03*
X47040800Y11125200D03*
X61772800Y13157200D03*
X35052000Y24481000D03*
X37490400Y4161000D03*
X62941200Y24481000D03*
X29921200Y24481000D03*
X65938400Y5537200D03*
X37490400Y6451600D03*
X42621200Y22855400D03*
X7061200Y1625600D03*
X50241201Y24467714D03*
X67360800Y23058600D03*
X56692800Y7666200D03*
X51358800Y7666200D03*
X56032400Y5334000D03*
X36677600Y12192000D03*
X7061200Y605000D03*
X71884800Y16052800D03*
X17221200Y605000D03*
X35204400Y605000D03*
X60452000Y14427200D03*
X28803600Y22093400D03*
X23520400Y7631189D03*
X43383200Y8733000D03*
X70307200Y10765000D03*
X29921200Y13559000D03*
X8331200Y7615400D03*
X9601200Y6650200D03*
X61722000Y7061200D03*
X31394400Y12289000D03*
X63855600Y7061200D03*
X33070800Y13411200D03*
X56032400Y16251400D03*
X37185600Y15240000D03*
X39674800Y15290800D03*
X73609200Y10765000D03*
X9601200Y605000D03*
X40081200Y22855400D03*
X57759600Y12039600D03*
X53238400Y10765000D03*
X54813200Y20929600D03*
X67513200Y5532600D03*
X44958000Y18994600D03*
X42011600Y13563600D03*
X26670000Y17013400D03*
X54356000Y17826200D03*
X42824400Y9596600D03*
X44348400Y10718800D03*
X47701200Y605000D03*
X65938400Y7061200D03*
X52781200Y605000D03*
X38760400Y19248600D03*
X13411200Y7615400D03*
X22809200Y3860800D03*
X42621205Y24467117D03*
X18440400Y7615400D03*
X33020000Y11023600D03*
X27381200Y605000D03*
X65938400Y16759400D03*
X67513200Y13152600D03*
X57200800Y17419800D03*
X48717200Y11074400D03*
X60452000Y12039600D03*
X53187600Y3098800D03*
X19913600Y3860800D03*
X24841200Y605000D03*
X26111200Y7615400D03*
X60960000Y3403600D03*
X57708800Y9652000D03*
X30581600Y22093400D03*
X30581600Y19401000D03*
X43434000Y6548600D03*
X68021200Y24481000D03*
X63855600Y16759400D03*
X32461200Y16357600D03*
X50241200Y605000D03*
X35458400Y10972800D03*
X53136800Y19350200D03*
X54813200Y10765000D03*
X40081200Y605000D03*
X52781200Y24481000D03*
X68580000Y21996400D03*
X70256400Y7869400D03*
X36474400Y19248600D03*
X47701205Y24467515D03*
X63855600Y11226800D03*
X17068800Y3860800D03*
X58928000Y5583400D03*
X63855600Y5537200D03*
X61671200Y23058600D03*
X40132000Y4161000D03*
X57861200Y24481000D03*
X42621200Y605000D03*
X69240400Y23058600D03*
X5283200Y3856200D03*
X75895200Y10663400D03*
X40894000Y13614400D03*
X46380400Y18994600D03*
X19761200Y605000D03*
X43891200Y14422600D03*
X25704800Y3860800D03*
X73101200Y19401000D03*
X67564000Y16759400D03*
X28752800Y9749000D03*
X59182000Y20574000D03*
X40081200Y24481000D03*
X75082400Y19401000D03*
X61722000Y5537200D03*
X69088000Y12441400D03*
X50952400Y17470600D03*
X73101200Y5685000D03*
X36322000Y14219400D03*
X69138800Y8936200D03*
X45415200Y13660600D03*
X46329600Y14930600D03*
X53492400Y13766800D03*
X63855600Y14981400D03*
X26771600Y23515800D03*
X57759600Y6751800D03*
X28803600Y3200400D03*
X42824400Y19147000D03*
X20980400Y7615400D03*
X58064400Y3352800D03*
X39776400Y8885400D03*
X75895200Y8225000D03*
X42570400Y20823400D03*
X57861200Y605000D03*
X70561200Y24481000D03*
X45161200Y605000D03*
X27381200Y24481000D03*
X55321200Y24481000D03*
X61722000Y16759400D03*
X67614800Y19401000D03*
X34442400Y12039600D03*
X38404800Y15240000D03*
X65481200Y24481000D03*
X29921200Y12289000D03*
X57150000Y4318000D03*
X28752800Y12289000D03*
X67513200Y7056600D03*
X27381200Y8733000D03*
X70307200Y14168600D03*
X12141200Y8733000D03*
X36728400Y9804400D03*
X14681200Y605000D03*
X68021200Y3145000D03*
X53492400Y22656800D03*
X71882000Y12441400D03*
X48869600Y3098800D03*
X32461200Y20675600D03*
X5283200Y7971000D03*
X10871200Y7615400D03*
X17221200Y8733000D03*
X66395600Y23058600D03*
X40081200Y20823400D03*
X37947600Y12035000D03*
X47040800Y16200600D03*
X71882000Y8885400D03*
X73609200Y14168600D03*
X52324000Y23211000D03*
X15951200Y7615400D03*
X32664400Y605000D03*
X37541200Y20823400D03*
X12141200Y605000D03*
X53238400Y5583400D03*
X33782000Y8072600D03*
X51511200Y16149800D03*
X54864000Y15083000D03*
X41046400Y19147000D03*
X65938400Y9296400D03*
X53543200Y16251400D03*
X47752001Y14930600D03*
X28498800Y5943600D03*
X75895200Y5685000D03*
X32461200Y24481000D03*
X46075600Y23211000D03*
X40944800Y14986000D03*
X65938400Y14981400D03*
X50495200Y5634200D03*
X45161209Y24467316D03*
X68021200Y605000D03*
X46380400Y17470600D03*
X5283200Y1621000D03*
X45212000Y8733000D03*
X8432800Y3860800D03*
X50241199Y9241000D03*
X37541200Y605000D03*
X9601200Y8733000D03*
X22301200Y605000D03*
X52222400Y14930600D03*
X37541200Y22855400D03*
X58115200Y14016200D03*
X70561200Y21941000D03*
X60401200Y605000D03*
X35458400Y8178800D03*
X11328400Y3860800D03*
X32461200Y22855400D03*
X53238400Y7666200D03*
G04 #@! TO.N,/TCK*
X60452000Y18186400D03*
X31343600Y4572000D03*
G04 #@! TO.N,/TDO*
X59588400Y18186400D03*
X32664400Y4572000D03*
G04 #@! TO.N,/TMS*
X30124400Y4572000D03*
X62191800Y18186400D03*
G04 #@! TO.N,/TDI*
X61264800Y18186400D03*
X33934400Y4572000D03*
G04 #@! TO.N,/TX*
X56692800Y3149600D03*
X46482000Y4267200D03*
G04 #@! TO.N,/RX*
X55880000Y3149600D03*
X47498000Y3759200D03*
G04 #@! TO.N,/PWR_SW*
X8432800Y2540000D03*
X66395600Y3149600D03*
G04 #@! TO.N,/RST_SW*
X14224000Y2540000D03*
X65582800Y3149600D03*
G04 #@! TO.N,/PWR_LED*
X61925200Y3149600D03*
X19913600Y2641600D03*
G04 #@! TO.N,/HDD_LED*
X54406800Y3149600D03*
X25654000Y2743200D03*
G04 #@! TO.N,/USB_EDN*
X45472400Y10363200D03*
X59232800Y3149600D03*
G04 #@! TO.N,/USB_EDP*
X46272400Y10363200D03*
X60035799Y3352800D03*
G04 #@! TD*
D17*
G04 #@! TO.N,/EN*
X62992000Y18186400D02*
X62484000Y17678400D01*
X59763228Y17382000D02*
X55011782Y12630554D01*
X55011782Y12630554D02*
X55011781Y12630555D01*
X60801225Y17382000D02*
X59763228Y17382000D01*
X35204400Y5373538D02*
X35204400Y4572000D01*
X61097625Y17678400D02*
X60801225Y17382000D01*
X54370026Y11988800D02*
X41819662Y11988800D01*
X55011781Y12630555D02*
X54370026Y11988800D01*
X62484000Y17678400D02*
X61097625Y17678400D01*
X41819662Y11988800D02*
X35204400Y5373538D01*
G04 #@! TO.N,/TCK*
X59944000Y18694400D02*
X59438790Y18694400D01*
X54070548Y12711800D02*
X41520184Y12711800D01*
X41520184Y12711800D02*
X34434184Y5625800D01*
X60452000Y18186400D02*
X59944000Y18694400D01*
X59123400Y18379010D02*
X59123400Y17764652D01*
X32397400Y5625800D02*
X31343600Y4572000D01*
X59123400Y17764652D02*
X54070548Y12711800D01*
X59438790Y18694400D02*
X59123400Y18379010D01*
X34434184Y5625800D02*
X32397400Y5625800D01*
G04 #@! TO.N,/TDO*
X59588400Y17888824D02*
X54170374Y12470800D01*
X59588400Y18186400D02*
X59588400Y17888824D01*
X34534010Y5384800D02*
X33477200Y5384800D01*
X41620010Y12470800D02*
X34534010Y5384800D01*
X33477200Y5384800D02*
X32664400Y4572000D01*
X54170374Y12470800D02*
X41620010Y12470800D01*
G04 #@! TO.N,/TMS*
X60043825Y18935400D02*
X59338964Y18935400D01*
X58882400Y18478835D02*
X58882400Y17864476D01*
X34334358Y5866800D02*
X31419200Y5866800D01*
X53970722Y12952800D02*
X41420358Y12952800D01*
X59338964Y18935400D02*
X58882400Y18478835D01*
X31419200Y5866800D02*
X30124400Y4572000D01*
X61671200Y18694400D02*
X60284825Y18694400D01*
X58882400Y17864476D02*
X53970722Y12952800D01*
X41420358Y12952800D02*
X34334358Y5866800D01*
X62179200Y18186400D02*
X61671200Y18694400D01*
X60284825Y18694400D02*
X60043825Y18935400D01*
X62191800Y18186400D02*
X62179200Y18186400D01*
G04 #@! TO.N,/TDI*
X41719836Y12229800D02*
X34633835Y5143800D01*
X34633835Y5143800D02*
X34150600Y5143800D01*
X60701400Y17623000D02*
X59663402Y17623000D01*
X61242607Y18208593D02*
X61242607Y18164207D01*
X34150600Y5143800D02*
X33934400Y4927600D01*
X59663402Y17623000D02*
X54270199Y12229800D01*
X61264800Y18186400D02*
X61242607Y18208593D01*
X33934400Y4927600D02*
X33934400Y4572000D01*
X54270199Y12229800D02*
X41719836Y12229800D01*
X61242607Y18164207D02*
X60701400Y17623000D01*
G04 #@! TO.N,/TX*
X56509003Y3178207D02*
X55166010Y4521200D01*
X55166010Y4521200D02*
X46736000Y4521200D01*
X56692800Y3149600D02*
X56664193Y3178207D01*
X46736000Y4521200D02*
X46482000Y4267200D01*
X56664193Y3178207D02*
X56509003Y3178207D01*
G04 #@! TO.N,/RX*
X55880000Y3466384D02*
X55880000Y3149600D01*
X47498000Y3759200D02*
X48019000Y4280200D01*
X55066184Y4280200D02*
X55880000Y3466384D01*
X48019000Y4280200D02*
X55066184Y4280200D01*
G04 #@! TO.N,/PWR_SW*
X8432800Y2540000D02*
X9550400Y1422400D01*
X64668400Y1422400D02*
X66395600Y3149600D01*
X9550400Y1422400D02*
X64668400Y1422400D01*
G04 #@! TO.N,/RST_SW*
X65582800Y2677626D02*
X64568574Y1663400D01*
X15100600Y1663400D02*
X14224000Y2540000D01*
X65582800Y3149600D02*
X65582800Y2677626D01*
X64568574Y1663400D02*
X15100600Y1663400D01*
G04 #@! TO.N,/PWR_LED*
X20650800Y1904400D02*
X60680000Y1904400D01*
X60680000Y1904400D02*
X61925200Y3149600D01*
X19913600Y2641600D02*
X20650800Y1904400D01*
G04 #@! TO.N,/HDD_LED*
X26251800Y2145400D02*
X53402600Y2145400D01*
X25654000Y2743200D02*
X26251800Y2145400D01*
X53402600Y2145400D02*
X54406800Y3149600D01*
D18*
G04 #@! TO.N,/USB_EDN*
X45647399Y10188201D02*
X45472400Y10363200D01*
X59232800Y3519401D02*
X56322401Y6429800D01*
X59232800Y3149600D02*
X59232800Y3519401D01*
X48522402Y6429800D02*
X45647399Y9304803D01*
X56322401Y6429800D02*
X48522402Y6429800D01*
X45647399Y9304803D02*
X45647399Y10188201D01*
G04 #@! TO.N,/USB_EDP*
X56508799Y6879800D02*
X48708798Y6879800D01*
X46097401Y9491197D02*
X46097401Y10188201D01*
X60035799Y3352800D02*
X56508799Y6879800D01*
X46097401Y10188201D02*
X46272400Y10363200D01*
X48708798Y6879800D02*
X46097401Y9491197D01*
G04 #@! TD*
G04 #@! TA.AperFunction,Conductor*
G04 #@! TO.N,GND*
G36*
X73764642Y24794576D02*
G01*
X74056230Y24776933D01*
X74068094Y24775493D01*
X74352495Y24723369D01*
X74364093Y24720510D01*
X74640134Y24634489D01*
X74651309Y24630252D01*
X74914979Y24511580D01*
X74925552Y24506030D01*
X74948124Y24492385D01*
X75172988Y24356448D01*
X75182826Y24349657D01*
X75410417Y24171350D01*
X75419366Y24163423D01*
X75623822Y23958967D01*
X75631749Y23950018D01*
X75810056Y23722427D01*
X75816847Y23712589D01*
X75966426Y23465159D01*
X75971982Y23454574D01*
X76090650Y23190911D01*
X76094889Y23179733D01*
X76180908Y22903698D01*
X76183769Y22892091D01*
X76235891Y22607697D01*
X76237332Y22595829D01*
X76254975Y22304244D01*
X76255156Y22298470D01*
X76255157Y22297987D01*
X76255157Y22246217D01*
X76255171Y22246046D01*
X76260620Y2869517D01*
X76260371Y2862479D01*
X76259513Y2850403D01*
X76255145Y2836955D01*
X76255144Y2789361D01*
X76254935Y2785911D01*
X76254933Y2785876D01*
X76237320Y2494781D01*
X76235879Y2482914D01*
X76183759Y2198522D01*
X76180898Y2186914D01*
X76094879Y1910877D01*
X76090640Y1899699D01*
X75971973Y1636037D01*
X75966417Y1625452D01*
X75816837Y1378021D01*
X75810046Y1368183D01*
X75631739Y1140592D01*
X75623812Y1131643D01*
X75419357Y927188D01*
X75410408Y919261D01*
X75182817Y740954D01*
X75172979Y734163D01*
X74925548Y584583D01*
X74914963Y579027D01*
X74651301Y460360D01*
X74640123Y456121D01*
X74364086Y370102D01*
X74352478Y367241D01*
X74068086Y315121D01*
X74056219Y313680D01*
X73764647Y296038D01*
X73758668Y295857D01*
X4925000Y295857D01*
X4866809Y314764D01*
X4830845Y364264D01*
X4826000Y394857D01*
X4826000Y2592727D01*
X8032300Y2592727D01*
X8032300Y2487273D01*
X8059593Y2385413D01*
X8059594Y2385411D01*
X8059594Y2385410D01*
X8096713Y2321119D01*
X8112320Y2294087D01*
X8186887Y2219520D01*
X8278213Y2166793D01*
X8380073Y2139500D01*
X8380075Y2139500D01*
X8485526Y2139500D01*
X8485527Y2139500D01*
X8503273Y2144255D01*
X8564375Y2141054D01*
X8598901Y2118633D01*
X9448155Y1269379D01*
X9495047Y1249956D01*
X9495058Y1249952D01*
X9495065Y1249949D01*
X9514496Y1241900D01*
X9514497Y1241900D01*
X9514499Y1241900D01*
X64704302Y1241900D01*
X64704303Y1241900D01*
X64704304Y1241900D01*
X64723734Y1249949D01*
X64770645Y1269379D01*
X66229499Y2728235D01*
X66284014Y2756010D01*
X66325123Y2753856D01*
X66342873Y2749100D01*
X66342874Y2749100D01*
X66448325Y2749100D01*
X66448327Y2749100D01*
X66550187Y2776393D01*
X66641513Y2829120D01*
X66716080Y2903687D01*
X66768807Y2995013D01*
X66789775Y3073266D01*
X72003200Y3073266D01*
X72003200Y2821335D01*
X72042608Y2572520D01*
X72120459Y2332921D01*
X72232057Y2113896D01*
X72234830Y2108455D01*
X72382907Y1904644D01*
X72561044Y1726507D01*
X72764855Y1578430D01*
X72989321Y1464059D01*
X73228915Y1386210D01*
X73228916Y1386210D01*
X73228919Y1386209D01*
X73477735Y1346800D01*
X73477738Y1346800D01*
X73729665Y1346800D01*
X73978480Y1386209D01*
X73978481Y1386210D01*
X73978485Y1386210D01*
X74218079Y1464059D01*
X74442545Y1578430D01*
X74646356Y1726507D01*
X74824493Y1904644D01*
X74972570Y2108455D01*
X75086941Y2332921D01*
X75164790Y2572515D01*
X75167339Y2588610D01*
X75204200Y2821335D01*
X75204200Y3073266D01*
X75164791Y3322081D01*
X75152893Y3358700D01*
X75086941Y3561679D01*
X74972570Y3786145D01*
X74824493Y3989956D01*
X74646356Y4168093D01*
X74442545Y4316170D01*
X74442544Y4316171D01*
X74442542Y4316172D01*
X74218079Y4430541D01*
X73978480Y4508392D01*
X73729665Y4547800D01*
X73729662Y4547800D01*
X73477738Y4547800D01*
X73477735Y4547800D01*
X73228919Y4508392D01*
X72989320Y4430541D01*
X72764857Y4316172D01*
X72561045Y4168094D01*
X72382906Y3989955D01*
X72234828Y3786143D01*
X72120459Y3561680D01*
X72042608Y3322081D01*
X72003200Y3073266D01*
X66789775Y3073266D01*
X66796100Y3096873D01*
X66796100Y3202327D01*
X66768807Y3304187D01*
X66716080Y3395513D01*
X66641513Y3470080D01*
X66635565Y3473514D01*
X66550189Y3522806D01*
X66550188Y3522807D01*
X66550187Y3522807D01*
X66448327Y3550100D01*
X66342873Y3550100D01*
X66241013Y3522807D01*
X66241012Y3522807D01*
X66241010Y3522806D01*
X66241009Y3522806D01*
X66149689Y3470082D01*
X66075119Y3395512D01*
X66074935Y3395192D01*
X66074735Y3395012D01*
X66071171Y3390367D01*
X66070309Y3391028D01*
X66029464Y3354253D01*
X65968613Y3347859D01*
X65915626Y3378454D01*
X65903465Y3395192D01*
X65903281Y3395511D01*
X65903280Y3395513D01*
X65828713Y3470080D01*
X65822765Y3473514D01*
X65737389Y3522806D01*
X65737388Y3522807D01*
X65737387Y3522807D01*
X65635527Y3550100D01*
X65530073Y3550100D01*
X65428213Y3522807D01*
X65428212Y3522807D01*
X65428210Y3522806D01*
X65428209Y3522806D01*
X65336889Y3470082D01*
X65262318Y3395511D01*
X65209594Y3304191D01*
X65209594Y3304190D01*
X65209593Y3304188D01*
X65209593Y3304187D01*
X65182300Y3202327D01*
X65182300Y3096873D01*
X65204290Y3014806D01*
X65209594Y2995011D01*
X65209594Y2995010D01*
X65262318Y2903690D01*
X65262320Y2903687D01*
X65336887Y2829120D01*
X65336889Y2829119D01*
X65337954Y2828054D01*
X65365731Y2773537D01*
X65356160Y2713105D01*
X65337954Y2688046D01*
X64522804Y1872896D01*
X64468287Y1845119D01*
X64452800Y1843900D01*
X61113774Y1843900D01*
X61055583Y1862807D01*
X61019619Y1912307D01*
X61019619Y1973493D01*
X61043770Y2012903D01*
X61759097Y2728232D01*
X61813614Y2756010D01*
X61854723Y2753856D01*
X61872473Y2749100D01*
X61872474Y2749100D01*
X61977925Y2749100D01*
X61977927Y2749100D01*
X62079787Y2776393D01*
X62171113Y2829120D01*
X62245680Y2903687D01*
X62298407Y2995013D01*
X62325700Y3096873D01*
X62325700Y3202327D01*
X62298407Y3304187D01*
X62245680Y3395513D01*
X62171113Y3470080D01*
X62165165Y3473514D01*
X62079789Y3522806D01*
X62079788Y3522807D01*
X62079787Y3522807D01*
X61977927Y3550100D01*
X61872473Y3550100D01*
X61770613Y3522807D01*
X61770612Y3522807D01*
X61770610Y3522806D01*
X61770609Y3522806D01*
X61679289Y3470082D01*
X61604718Y3395511D01*
X61551994Y3304191D01*
X61551994Y3304190D01*
X61524700Y3202326D01*
X61524700Y3096870D01*
X61529455Y3079124D01*
X61526251Y3018023D01*
X61503832Y2983501D01*
X60634230Y2113897D01*
X60579713Y2086119D01*
X60564226Y2084900D01*
X53836374Y2084900D01*
X53778183Y2103807D01*
X53742219Y2153307D01*
X53742219Y2214493D01*
X53766370Y2253903D01*
X54240697Y2728232D01*
X54295214Y2756010D01*
X54336323Y2753856D01*
X54354073Y2749100D01*
X54354074Y2749100D01*
X54459525Y2749100D01*
X54459527Y2749100D01*
X54561387Y2776393D01*
X54652713Y2829120D01*
X54727280Y2903687D01*
X54780007Y2995013D01*
X54807300Y3096873D01*
X54807300Y3202327D01*
X54780007Y3304187D01*
X54727280Y3395513D01*
X54652713Y3470080D01*
X54646765Y3473514D01*
X54561389Y3522806D01*
X54561388Y3522807D01*
X54561387Y3522807D01*
X54459527Y3550100D01*
X54354073Y3550100D01*
X54252213Y3522807D01*
X54252212Y3522807D01*
X54252210Y3522806D01*
X54252209Y3522806D01*
X54160889Y3470082D01*
X54086318Y3395511D01*
X54033594Y3304191D01*
X54033594Y3304190D01*
X54006300Y3202326D01*
X54006300Y3096870D01*
X54011055Y3079124D01*
X54007851Y3018023D01*
X53985432Y2983501D01*
X53356830Y2354897D01*
X53302313Y2327119D01*
X53286826Y2325900D01*
X26367574Y2325900D01*
X26309383Y2344807D01*
X26297570Y2354896D01*
X26075367Y2577099D01*
X26047590Y2631616D01*
X26049745Y2672727D01*
X26049916Y2673366D01*
X26054500Y2690473D01*
X26054500Y2795927D01*
X26027207Y2897787D01*
X26023799Y2903689D01*
X25974481Y2989111D01*
X25974480Y2989113D01*
X25899913Y3063680D01*
X25883316Y3073262D01*
X25808589Y3116406D01*
X25808588Y3116407D01*
X25808587Y3116407D01*
X25706727Y3143700D01*
X25601273Y3143700D01*
X25499413Y3116407D01*
X25499412Y3116407D01*
X25499410Y3116406D01*
X25499409Y3116406D01*
X25408089Y3063682D01*
X25333518Y2989111D01*
X25280794Y2897791D01*
X25280794Y2897790D01*
X25280793Y2897788D01*
X25280793Y2897787D01*
X25253500Y2795927D01*
X25253500Y2690473D01*
X25280724Y2588871D01*
X25280794Y2588611D01*
X25280794Y2588610D01*
X25314624Y2530016D01*
X25333520Y2497287D01*
X25408087Y2422720D01*
X25499413Y2369993D01*
X25601273Y2342700D01*
X25601275Y2342700D01*
X25706726Y2342700D01*
X25706727Y2342700D01*
X25724473Y2347455D01*
X25785575Y2344254D01*
X25820101Y2321833D01*
X25888030Y2253904D01*
X25915807Y2199387D01*
X25906236Y2138955D01*
X25862971Y2095690D01*
X25818026Y2084900D01*
X20766574Y2084900D01*
X20708383Y2103807D01*
X20696570Y2113896D01*
X20334967Y2475499D01*
X20307190Y2530016D01*
X20309345Y2571127D01*
X20310945Y2577099D01*
X20314100Y2588873D01*
X20314100Y2694327D01*
X20286807Y2796187D01*
X20234080Y2887513D01*
X20159513Y2962080D01*
X20112690Y2989113D01*
X20068189Y3014806D01*
X20068188Y3014807D01*
X20068187Y3014807D01*
X19966327Y3042100D01*
X19860873Y3042100D01*
X19759013Y3014807D01*
X19759012Y3014807D01*
X19759010Y3014806D01*
X19759009Y3014806D01*
X19667689Y2962082D01*
X19593118Y2887511D01*
X19540394Y2796191D01*
X19540394Y2796190D01*
X19540393Y2796188D01*
X19540393Y2796187D01*
X19513100Y2694327D01*
X19513100Y2588873D01*
X19540324Y2487271D01*
X19540394Y2487011D01*
X19540394Y2487010D01*
X19577513Y2422719D01*
X19593120Y2395687D01*
X19667687Y2321120D01*
X19759013Y2268393D01*
X19860873Y2241100D01*
X19860875Y2241100D01*
X19966326Y2241100D01*
X19966327Y2241100D01*
X19984073Y2245855D01*
X20045175Y2242654D01*
X20079701Y2220233D01*
X20287030Y2012904D01*
X20314807Y1958387D01*
X20305236Y1897955D01*
X20261971Y1854690D01*
X20217026Y1843900D01*
X15216374Y1843900D01*
X15158183Y1862807D01*
X15146370Y1872896D01*
X14645367Y2373899D01*
X14617590Y2428416D01*
X14619745Y2469527D01*
X14623332Y2482914D01*
X14624500Y2487273D01*
X14624500Y2592727D01*
X14597207Y2694587D01*
X14544480Y2785913D01*
X14469913Y2860480D01*
X14454260Y2869517D01*
X14378589Y2913206D01*
X14378588Y2913207D01*
X14378587Y2913207D01*
X14276727Y2940500D01*
X14171273Y2940500D01*
X14069413Y2913207D01*
X14069412Y2913207D01*
X14069410Y2913206D01*
X14069409Y2913206D01*
X13978089Y2860482D01*
X13903518Y2785911D01*
X13850794Y2694591D01*
X13850794Y2694590D01*
X13850793Y2694588D01*
X13850793Y2694587D01*
X13823500Y2592727D01*
X13823500Y2487273D01*
X13850793Y2385413D01*
X13850794Y2385411D01*
X13850794Y2385410D01*
X13887913Y2321119D01*
X13903520Y2294087D01*
X13978087Y2219520D01*
X14069413Y2166793D01*
X14171273Y2139500D01*
X14171275Y2139500D01*
X14276726Y2139500D01*
X14276727Y2139500D01*
X14294473Y2144255D01*
X14355575Y2141054D01*
X14390101Y2118633D01*
X14736830Y1771904D01*
X14764607Y1717387D01*
X14755036Y1656955D01*
X14711771Y1613690D01*
X14666826Y1602900D01*
X9666174Y1602900D01*
X9607983Y1621807D01*
X9596170Y1631896D01*
X8854167Y2373899D01*
X8826390Y2428416D01*
X8828545Y2469527D01*
X8832132Y2482914D01*
X8833300Y2487273D01*
X8833300Y2592727D01*
X8806007Y2694587D01*
X8753280Y2785913D01*
X8678713Y2860480D01*
X8663060Y2869517D01*
X8587389Y2913206D01*
X8587388Y2913207D01*
X8587387Y2913207D01*
X8485527Y2940500D01*
X8380073Y2940500D01*
X8278213Y2913207D01*
X8278212Y2913207D01*
X8278210Y2913206D01*
X8278209Y2913206D01*
X8186889Y2860482D01*
X8112318Y2785911D01*
X8059594Y2694591D01*
X8059594Y2694590D01*
X8059593Y2694588D01*
X8059593Y2694587D01*
X8032300Y2592727D01*
X4826000Y2592727D01*
X4826000Y4624727D01*
X29723900Y4624727D01*
X29723900Y4519273D01*
X29750021Y4421787D01*
X29751194Y4417411D01*
X29751194Y4417410D01*
X29775151Y4375916D01*
X29803920Y4326087D01*
X29878487Y4251520D01*
X29969813Y4198793D01*
X30071673Y4171500D01*
X30071675Y4171500D01*
X30177125Y4171500D01*
X30177127Y4171500D01*
X30278987Y4198793D01*
X30370313Y4251520D01*
X30444880Y4326087D01*
X30497607Y4417413D01*
X30524900Y4519273D01*
X30524900Y4624727D01*
X30520144Y4642477D01*
X30523347Y4703579D01*
X30545768Y4738103D01*
X31464971Y5657304D01*
X31519487Y5685081D01*
X31534974Y5686300D01*
X31963626Y5686300D01*
X32021817Y5667393D01*
X32057781Y5617893D01*
X32057781Y5556707D01*
X32033629Y5517296D01*
X31509699Y4993368D01*
X31455183Y4965591D01*
X31414076Y4967745D01*
X31396330Y4972500D01*
X31396327Y4972500D01*
X31290873Y4972500D01*
X31189013Y4945207D01*
X31189012Y4945207D01*
X31189010Y4945206D01*
X31189009Y4945206D01*
X31097689Y4892482D01*
X31023118Y4817911D01*
X30970394Y4726591D01*
X30970394Y4726590D01*
X30970393Y4726588D01*
X30970393Y4726587D01*
X30943100Y4624727D01*
X30943100Y4519273D01*
X30969221Y4421787D01*
X30970394Y4417411D01*
X30970394Y4417410D01*
X30994351Y4375916D01*
X31023120Y4326087D01*
X31097687Y4251520D01*
X31189013Y4198793D01*
X31290873Y4171500D01*
X31290875Y4171500D01*
X31396325Y4171500D01*
X31396327Y4171500D01*
X31498187Y4198793D01*
X31589513Y4251520D01*
X31664080Y4326087D01*
X31716807Y4417413D01*
X31744100Y4519273D01*
X31744100Y4624727D01*
X31739344Y4642477D01*
X31742547Y4703579D01*
X31764968Y4738103D01*
X32443171Y5416304D01*
X32497687Y5444081D01*
X32513174Y5445300D01*
X33043426Y5445300D01*
X33101617Y5426393D01*
X33137581Y5376893D01*
X33137581Y5315707D01*
X33113429Y5276296D01*
X32830499Y4993368D01*
X32775983Y4965591D01*
X32734876Y4967745D01*
X32717130Y4972500D01*
X32717127Y4972500D01*
X32611673Y4972500D01*
X32509813Y4945207D01*
X32509812Y4945207D01*
X32509810Y4945206D01*
X32509809Y4945206D01*
X32418489Y4892482D01*
X32343918Y4817911D01*
X32291194Y4726591D01*
X32291194Y4726590D01*
X32291193Y4726588D01*
X32291193Y4726587D01*
X32263900Y4624727D01*
X32263900Y4519273D01*
X32290021Y4421787D01*
X32291194Y4417411D01*
X32291194Y4417410D01*
X32315151Y4375916D01*
X32343920Y4326087D01*
X32418487Y4251520D01*
X32509813Y4198793D01*
X32611673Y4171500D01*
X32611675Y4171500D01*
X32717125Y4171500D01*
X32717127Y4171500D01*
X32818987Y4198793D01*
X32910313Y4251520D01*
X32984880Y4326087D01*
X33037607Y4417413D01*
X33064900Y4519273D01*
X33064900Y4624727D01*
X33060144Y4642477D01*
X33063347Y4703579D01*
X33085768Y4738103D01*
X33522971Y5175304D01*
X33535811Y5181847D01*
X33545733Y5192302D01*
X33566865Y5197670D01*
X33577487Y5203081D01*
X33584069Y5202039D01*
X33592974Y5204300D01*
X33716827Y5204300D01*
X33775018Y5185393D01*
X33810982Y5135893D01*
X33810982Y5074707D01*
X33786832Y5035299D01*
X33781379Y5029845D01*
X33781378Y5029844D01*
X33773288Y5010313D01*
X33765198Y4990780D01*
X33765197Y4990778D01*
X33750167Y4954494D01*
X33747218Y4955716D01*
X33725275Y4916538D01*
X33707580Y4903504D01*
X33688489Y4892482D01*
X33613918Y4817911D01*
X33561194Y4726591D01*
X33561194Y4726590D01*
X33561193Y4726588D01*
X33561193Y4726587D01*
X33533900Y4624727D01*
X33533900Y4519273D01*
X33560021Y4421787D01*
X33561194Y4417411D01*
X33561194Y4417410D01*
X33585151Y4375916D01*
X33613920Y4326087D01*
X33688487Y4251520D01*
X33779813Y4198793D01*
X33881673Y4171500D01*
X33881675Y4171500D01*
X33987125Y4171500D01*
X33987127Y4171500D01*
X34088987Y4198793D01*
X34180313Y4251520D01*
X34254880Y4326087D01*
X34307607Y4417413D01*
X34334900Y4519273D01*
X34334900Y4624727D01*
X34307607Y4726587D01*
X34256676Y4814801D01*
X34243955Y4874648D01*
X34268841Y4930544D01*
X34321829Y4961137D01*
X34342413Y4963300D01*
X34669739Y4963300D01*
X34691918Y4972487D01*
X34691923Y4972490D01*
X34691949Y4972500D01*
X34736080Y4990779D01*
X34854896Y5109595D01*
X34909413Y5137372D01*
X34969845Y5127801D01*
X35013110Y5084536D01*
X35023900Y5039591D01*
X35023900Y4987405D01*
X35004993Y4929214D01*
X34974403Y4901670D01*
X34958489Y4892482D01*
X34883918Y4817911D01*
X34831194Y4726591D01*
X34831194Y4726590D01*
X34831193Y4726588D01*
X34831193Y4726587D01*
X34803900Y4624727D01*
X34803900Y4519273D01*
X34830021Y4421787D01*
X34831194Y4417411D01*
X34831194Y4417410D01*
X34855151Y4375916D01*
X34883920Y4326087D01*
X34958487Y4251520D01*
X35049813Y4198793D01*
X35151673Y4171500D01*
X35151675Y4171500D01*
X35257125Y4171500D01*
X35257127Y4171500D01*
X35358987Y4198793D01*
X35450313Y4251520D01*
X35518720Y4319927D01*
X46081500Y4319927D01*
X46081500Y4214473D01*
X46103490Y4132406D01*
X46108794Y4112611D01*
X46108794Y4112610D01*
X46134441Y4068189D01*
X46161520Y4021287D01*
X46236087Y3946720D01*
X46327413Y3893993D01*
X46429273Y3866700D01*
X46429275Y3866700D01*
X46534725Y3866700D01*
X46534727Y3866700D01*
X46636587Y3893993D01*
X46727913Y3946720D01*
X46802480Y4021287D01*
X46855207Y4112613D01*
X46882500Y4214473D01*
X46882500Y4241700D01*
X46901407Y4299891D01*
X46950907Y4335855D01*
X46981500Y4340700D01*
X47368795Y4340700D01*
X47426986Y4321793D01*
X47462950Y4272293D01*
X47462950Y4211107D01*
X47426986Y4161607D01*
X47394420Y4146075D01*
X47343413Y4132407D01*
X47343412Y4132407D01*
X47343410Y4132406D01*
X47343409Y4132406D01*
X47252089Y4079682D01*
X47177518Y4005111D01*
X47124794Y3913791D01*
X47124794Y3913790D01*
X47124793Y3913788D01*
X47124793Y3913787D01*
X47097500Y3811927D01*
X47097500Y3706473D01*
X47106394Y3673280D01*
X47124794Y3604611D01*
X47124794Y3604610D01*
X47177518Y3513290D01*
X47177520Y3513287D01*
X47252087Y3438720D01*
X47343413Y3385993D01*
X47445273Y3358700D01*
X47445275Y3358700D01*
X47550725Y3358700D01*
X47550727Y3358700D01*
X47652587Y3385993D01*
X47743913Y3438720D01*
X47818480Y3513287D01*
X47871207Y3604613D01*
X47898500Y3706473D01*
X47898500Y3811927D01*
X47893744Y3829677D01*
X47896945Y3890775D01*
X47919364Y3925300D01*
X48064770Y4070704D01*
X48119287Y4098481D01*
X48134773Y4099700D01*
X54950410Y4099700D01*
X55008601Y4080793D01*
X55020414Y4070704D01*
X55557558Y3533560D01*
X55585335Y3479043D01*
X55575764Y3418611D01*
X55562994Y3401029D01*
X55563471Y3400663D01*
X55559521Y3395516D01*
X55506794Y3304191D01*
X55506794Y3304190D01*
X55506793Y3304188D01*
X55506793Y3304187D01*
X55479500Y3202327D01*
X55479500Y3096873D01*
X55501490Y3014806D01*
X55506794Y2995011D01*
X55506794Y2995010D01*
X55559518Y2903690D01*
X55559520Y2903687D01*
X55634087Y2829120D01*
X55725413Y2776393D01*
X55827273Y2749100D01*
X55827275Y2749100D01*
X55932725Y2749100D01*
X55932727Y2749100D01*
X56034587Y2776393D01*
X56125913Y2829120D01*
X56200480Y2903687D01*
X56200662Y2904004D01*
X56200859Y2904181D01*
X56204429Y2908833D01*
X56205291Y2908172D01*
X56246130Y2944945D01*
X56306980Y2951343D01*
X56359969Y2920753D01*
X56372135Y2904006D01*
X56372320Y2903687D01*
X56446887Y2829120D01*
X56538213Y2776393D01*
X56640073Y2749100D01*
X56640075Y2749100D01*
X56745525Y2749100D01*
X56745527Y2749100D01*
X56847387Y2776393D01*
X56938713Y2829120D01*
X57013280Y2903687D01*
X57066007Y2995013D01*
X57093300Y3096873D01*
X57093300Y3202327D01*
X57066007Y3304187D01*
X57013280Y3395513D01*
X56938713Y3470080D01*
X56932765Y3473514D01*
X56847389Y3522806D01*
X56847388Y3522807D01*
X56847387Y3522807D01*
X56745527Y3550100D01*
X56640073Y3550100D01*
X56538213Y3522807D01*
X56538212Y3522807D01*
X56538210Y3522806D01*
X56538207Y3522805D01*
X56528842Y3517398D01*
X56468993Y3504680D01*
X56413099Y3529570D01*
X56409343Y3533133D01*
X55842776Y4099700D01*
X55268255Y4674221D01*
X55221344Y4693652D01*
X55221342Y4693653D01*
X55201916Y4701700D01*
X55201914Y4701700D01*
X46700096Y4701700D01*
X46683510Y4694830D01*
X46666924Y4687960D01*
X46624748Y4670490D01*
X46624022Y4672242D01*
X46576838Y4658941D01*
X46555121Y4662236D01*
X46534727Y4667700D01*
X46429273Y4667700D01*
X46327413Y4640407D01*
X46327412Y4640407D01*
X46327410Y4640406D01*
X46327409Y4640406D01*
X46236089Y4587682D01*
X46161518Y4513111D01*
X46108794Y4421791D01*
X46108794Y4421790D01*
X46108793Y4421788D01*
X46108793Y4421787D01*
X46081500Y4319927D01*
X35518720Y4319927D01*
X35524880Y4326087D01*
X35577607Y4417413D01*
X35604900Y4519273D01*
X35604900Y4624727D01*
X35577607Y4726587D01*
X35524880Y4817913D01*
X35450313Y4892480D01*
X35450310Y4892482D01*
X35434397Y4901670D01*
X35393458Y4947141D01*
X35384900Y4987405D01*
X35384900Y5257764D01*
X35403807Y5315955D01*
X35413896Y5327768D01*
X35724891Y5638763D01*
X43826300Y5638763D01*
X43826300Y5528038D01*
X43854956Y5421094D01*
X43854958Y5421090D01*
X43910313Y5325212D01*
X43910315Y5325210D01*
X43910317Y5325207D01*
X43988607Y5246917D01*
X43988609Y5246916D01*
X43988611Y5246914D01*
X44084489Y5191559D01*
X44084493Y5191557D01*
X44191437Y5162901D01*
X44191439Y5162900D01*
X44191440Y5162900D01*
X44302161Y5162900D01*
X44302161Y5162901D01*
X44409107Y5191557D01*
X44504993Y5246917D01*
X44583283Y5325207D01*
X44638643Y5421093D01*
X44667300Y5528040D01*
X44667300Y5638760D01*
X44638643Y5745707D01*
X44638641Y5745711D01*
X44583286Y5841589D01*
X44583284Y5841591D01*
X44583283Y5841593D01*
X44504993Y5919883D01*
X44504990Y5919885D01*
X44504988Y5919887D01*
X44409110Y5975242D01*
X44409106Y5975244D01*
X44302162Y6003900D01*
X44302160Y6003900D01*
X44191440Y6003900D01*
X44191437Y6003900D01*
X44084493Y5975244D01*
X44084489Y5975242D01*
X43988611Y5919887D01*
X43910313Y5841589D01*
X43854958Y5745711D01*
X43854956Y5745707D01*
X43826300Y5638763D01*
X35724891Y5638763D01*
X40502055Y10415927D01*
X45071900Y10415927D01*
X45071900Y10310473D01*
X45099193Y10208613D01*
X45099194Y10208611D01*
X45099194Y10208610D01*
X45151918Y10117290D01*
X45151920Y10117287D01*
X45226487Y10042720D01*
X45226489Y10042719D01*
X45317809Y9989995D01*
X45317810Y9989995D01*
X45317813Y9989993D01*
X45353523Y9980425D01*
X45404835Y9947103D01*
X45426763Y9889982D01*
X45426899Y9884799D01*
X45426899Y9260943D01*
X45460466Y9179903D01*
X45460467Y9179902D01*
X45460468Y9179900D01*
X48397498Y6242869D01*
X48397499Y6242869D01*
X48397500Y6242868D01*
X48478540Y6209300D01*
X48478541Y6209300D01*
X48478542Y6209300D01*
X56190059Y6209300D01*
X56248250Y6190393D01*
X56260063Y6180304D01*
X58908583Y3531784D01*
X58936360Y3477267D01*
X58926789Y3416835D01*
X58915484Y3401267D01*
X58916271Y3400663D01*
X58912321Y3395516D01*
X58859594Y3304191D01*
X58859594Y3304190D01*
X58859593Y3304188D01*
X58859593Y3304187D01*
X58832300Y3202327D01*
X58832300Y3096873D01*
X58854290Y3014806D01*
X58859594Y2995011D01*
X58859594Y2995010D01*
X58912318Y2903690D01*
X58912320Y2903687D01*
X58986887Y2829120D01*
X59078213Y2776393D01*
X59180073Y2749100D01*
X59180075Y2749100D01*
X59285525Y2749100D01*
X59285527Y2749100D01*
X59387387Y2776393D01*
X59478713Y2829120D01*
X59553280Y2903687D01*
X59606007Y2995013D01*
X59608368Y3003828D01*
X59641691Y3055141D01*
X59698812Y3077068D01*
X59757913Y3061233D01*
X59773993Y3048213D01*
X59789886Y3032320D01*
X59881212Y2979593D01*
X59983072Y2952300D01*
X59983074Y2952300D01*
X60088524Y2952300D01*
X60088526Y2952300D01*
X60190386Y2979593D01*
X60281712Y3032320D01*
X60356279Y3106887D01*
X60409006Y3198213D01*
X60436299Y3300073D01*
X60436299Y3405527D01*
X60409006Y3507387D01*
X60400104Y3522805D01*
X60356280Y3598711D01*
X60356279Y3598713D01*
X60281712Y3673280D01*
X60224216Y3706475D01*
X60190388Y3726006D01*
X60190387Y3726007D01*
X60190386Y3726007D01*
X60088526Y3753300D01*
X59988142Y3753300D01*
X59980544Y3755769D01*
X59972655Y3754519D01*
X59951999Y3765044D01*
X59929951Y3772207D01*
X59918138Y3782296D01*
X59898589Y3801845D01*
X59835071Y3865363D01*
X69429500Y3865363D01*
X69429500Y3754638D01*
X69458156Y3647694D01*
X69458158Y3647690D01*
X69513513Y3551812D01*
X69513515Y3551810D01*
X69513517Y3551807D01*
X69591807Y3473517D01*
X69591809Y3473516D01*
X69591811Y3473514D01*
X69687689Y3418159D01*
X69687693Y3418157D01*
X69794637Y3389501D01*
X69794639Y3389500D01*
X69794640Y3389500D01*
X69905361Y3389500D01*
X69905361Y3389501D01*
X70012307Y3418157D01*
X70102240Y3470080D01*
X70108188Y3473514D01*
X70108188Y3473515D01*
X70108193Y3473517D01*
X70186483Y3551807D01*
X70241843Y3647693D01*
X70270500Y3754640D01*
X70270500Y3865360D01*
X70241843Y3972307D01*
X70231654Y3989955D01*
X70186486Y4068189D01*
X70186484Y4068191D01*
X70186483Y4068193D01*
X70108193Y4146483D01*
X70108190Y4146485D01*
X70108188Y4146487D01*
X70012310Y4201842D01*
X70012306Y4201844D01*
X69905362Y4230500D01*
X69905360Y4230500D01*
X69794640Y4230500D01*
X69794637Y4230500D01*
X69687693Y4201844D01*
X69687689Y4201842D01*
X69591811Y4146487D01*
X69513513Y4068189D01*
X69458158Y3972311D01*
X69458156Y3972307D01*
X69429500Y3865363D01*
X59835071Y3865363D01*
X59112752Y4587682D01*
X56633702Y7066731D01*
X56633700Y7066732D01*
X56633699Y7066733D01*
X56552660Y7100300D01*
X56552659Y7100300D01*
X48841140Y7100300D01*
X48782949Y7119207D01*
X48771136Y7129296D01*
X46346897Y9553535D01*
X46319120Y9608052D01*
X46317901Y9623539D01*
X46317901Y9884799D01*
X46336808Y9942990D01*
X46386308Y9978954D01*
X46391249Y9980418D01*
X46426987Y9989993D01*
X46518313Y10042720D01*
X46592880Y10117287D01*
X46645607Y10208613D01*
X46672900Y10310473D01*
X46672900Y10415927D01*
X46645607Y10517787D01*
X46592880Y10609113D01*
X46518313Y10683680D01*
X46426987Y10736407D01*
X46325127Y10763700D01*
X46219673Y10763700D01*
X46117813Y10736407D01*
X46117812Y10736407D01*
X46117810Y10736406D01*
X46117809Y10736406D01*
X46026489Y10683682D01*
X45951917Y10609110D01*
X45950941Y10607837D01*
X45949994Y10607187D01*
X45947332Y10604524D01*
X45946838Y10605018D01*
X45900515Y10573182D01*
X45839351Y10574785D01*
X45797868Y10604925D01*
X45797468Y10604524D01*
X45794941Y10607051D01*
X45793859Y10607837D01*
X45792882Y10609110D01*
X45792881Y10609111D01*
X45792880Y10609113D01*
X45718313Y10683680D01*
X45626987Y10736407D01*
X45525127Y10763700D01*
X45419673Y10763700D01*
X45317813Y10736407D01*
X45317812Y10736407D01*
X45317810Y10736406D01*
X45317809Y10736406D01*
X45226489Y10683682D01*
X45151918Y10609111D01*
X45099194Y10517791D01*
X45099194Y10517790D01*
X45099193Y10517788D01*
X45099193Y10517787D01*
X45071900Y10415927D01*
X40502055Y10415927D01*
X41865432Y11779304D01*
X41919949Y11807081D01*
X41935436Y11808300D01*
X54405928Y11808300D01*
X54405929Y11808300D01*
X54405930Y11808300D01*
X54425360Y11816349D01*
X54472271Y11835779D01*
X55104510Y12468020D01*
X55104514Y12468022D01*
X55114024Y12477533D01*
X55114027Y12477533D01*
X59808997Y17172505D01*
X59863514Y17200281D01*
X59879001Y17201500D01*
X60837127Y17201500D01*
X60837128Y17201500D01*
X60837129Y17201500D01*
X60856559Y17209549D01*
X60903470Y17228979D01*
X61081254Y17406763D01*
X61143396Y17468904D01*
X61197912Y17496681D01*
X61213399Y17497900D01*
X62519902Y17497900D01*
X62519903Y17497900D01*
X62519904Y17497900D01*
X62539334Y17505949D01*
X62586245Y17525379D01*
X62825899Y17765035D01*
X62880413Y17792811D01*
X62921522Y17790657D01*
X62939273Y17785900D01*
X62939275Y17785900D01*
X63044725Y17785900D01*
X63044727Y17785900D01*
X63146587Y17813193D01*
X63237913Y17865920D01*
X63312480Y17940487D01*
X63365207Y18031813D01*
X63392500Y18133673D01*
X63392500Y18239127D01*
X63365207Y18340987D01*
X63312480Y18432313D01*
X63237913Y18506880D01*
X63201408Y18527956D01*
X63146589Y18559606D01*
X63146588Y18559607D01*
X63146587Y18559607D01*
X63044727Y18586900D01*
X62939273Y18586900D01*
X62837413Y18559607D01*
X62837412Y18559607D01*
X62837410Y18559606D01*
X62837409Y18559606D01*
X62746089Y18506882D01*
X62671514Y18432307D01*
X62670439Y18430905D01*
X62669396Y18430189D01*
X62666932Y18427724D01*
X62666475Y18428181D01*
X62620013Y18396252D01*
X62558849Y18397856D01*
X62517234Y18428091D01*
X62516868Y18427724D01*
X62514553Y18430039D01*
X62513361Y18430905D01*
X62512285Y18432307D01*
X62512281Y18432311D01*
X62512280Y18432313D01*
X62437713Y18506880D01*
X62401208Y18527956D01*
X62346389Y18559606D01*
X62346388Y18559607D01*
X62346387Y18559607D01*
X62244527Y18586900D01*
X62139073Y18586900D01*
X62139070Y18586900D01*
X62111386Y18579482D01*
X62050285Y18582685D01*
X62015762Y18605105D01*
X61773445Y18847421D01*
X61726534Y18866852D01*
X61726532Y18866853D01*
X61707106Y18874900D01*
X61707104Y18874900D01*
X60400597Y18874900D01*
X60342406Y18893807D01*
X60330593Y18903897D01*
X60146070Y19088421D01*
X60133074Y19093804D01*
X60099159Y19107852D01*
X60099157Y19107853D01*
X60079731Y19115900D01*
X60079729Y19115900D01*
X59303060Y19115900D01*
X59283629Y19107852D01*
X59236719Y19088421D01*
X58729379Y18581080D01*
X58729377Y18581077D01*
X58720485Y18559608D01*
X58701900Y18514739D01*
X58701900Y17980252D01*
X58682993Y17922061D01*
X58672904Y17910248D01*
X53924952Y13162296D01*
X53870435Y13134519D01*
X53854948Y13133300D01*
X41384454Y13133300D01*
X41367868Y13126430D01*
X41351282Y13119560D01*
X41318112Y13105821D01*
X34288588Y6076296D01*
X34234071Y6048519D01*
X34218584Y6047300D01*
X31383296Y6047300D01*
X31363865Y6039252D01*
X31363863Y6039252D01*
X31316955Y6019822D01*
X30290499Y4993368D01*
X30235983Y4965591D01*
X30194876Y4967745D01*
X30177130Y4972500D01*
X30177127Y4972500D01*
X30071673Y4972500D01*
X29969813Y4945207D01*
X29969812Y4945207D01*
X29969810Y4945206D01*
X29969809Y4945206D01*
X29878489Y4892482D01*
X29803918Y4817911D01*
X29751194Y4726591D01*
X29751194Y4726590D01*
X29751193Y4726588D01*
X29751193Y4726587D01*
X29723900Y4624727D01*
X4826000Y4624727D01*
X4826000Y5638763D01*
X28913898Y5638763D01*
X28913898Y5528038D01*
X28942554Y5421094D01*
X28942556Y5421090D01*
X28997911Y5325212D01*
X28997913Y5325210D01*
X28997915Y5325207D01*
X29076205Y5246917D01*
X29076207Y5246916D01*
X29076209Y5246914D01*
X29172087Y5191559D01*
X29172091Y5191557D01*
X29279035Y5162901D01*
X29279037Y5162900D01*
X29279038Y5162900D01*
X29389759Y5162900D01*
X29389759Y5162901D01*
X29496705Y5191557D01*
X29592591Y5246917D01*
X29670881Y5325207D01*
X29726241Y5421093D01*
X29754898Y5528040D01*
X29754898Y5638760D01*
X29726241Y5745707D01*
X29726239Y5745711D01*
X29670884Y5841589D01*
X29670882Y5841591D01*
X29670881Y5841593D01*
X29592591Y5919883D01*
X29592588Y5919885D01*
X29592586Y5919887D01*
X29496708Y5975242D01*
X29496704Y5975244D01*
X29389760Y6003900D01*
X29389758Y6003900D01*
X29279038Y6003900D01*
X29279035Y6003900D01*
X29172091Y5975244D01*
X29172087Y5975242D01*
X29076209Y5919887D01*
X28997911Y5841589D01*
X28942556Y5745711D01*
X28942554Y5745707D01*
X28913898Y5638763D01*
X4826000Y5638763D01*
X4826000Y9146600D01*
X4844907Y9204791D01*
X4894407Y9240755D01*
X4925000Y9245600D01*
X28397199Y9245600D01*
X28397200Y9245600D01*
X28397200Y16459200D01*
X28397199Y16459200D01*
X26311800Y16459200D01*
X26253609Y16478107D01*
X26217645Y16527607D01*
X26212800Y16558200D01*
X26212800Y18256189D01*
X26664700Y18256189D01*
X26664700Y18065012D01*
X26678375Y17996265D01*
X26701094Y17882049D01*
X26701996Y17877517D01*
X26701996Y17877515D01*
X26775152Y17700899D01*
X26877048Y17548399D01*
X26881363Y17541942D01*
X27016542Y17406763D01*
X27175496Y17300554D01*
X27175497Y17300554D01*
X27175498Y17300553D01*
X27215509Y17283980D01*
X27352116Y17227396D01*
X27539614Y17190100D01*
X27539615Y17190100D01*
X27730785Y17190100D01*
X27730786Y17190100D01*
X27918284Y17227396D01*
X28094904Y17300554D01*
X28253858Y17406763D01*
X28389037Y17541942D01*
X28495246Y17700896D01*
X28568404Y17877516D01*
X28605700Y18065014D01*
X28605700Y18256186D01*
X28591575Y18327196D01*
X34453200Y18327196D01*
X34453200Y17848401D01*
X34453201Y17848400D01*
X34953200Y17848400D01*
X34953200Y17548400D01*
X34453201Y17548400D01*
X34453200Y17548399D01*
X34453200Y17069605D01*
X34483942Y16915051D01*
X34544248Y16769460D01*
X34544252Y16769451D01*
X34631799Y16638431D01*
X34631802Y16638427D01*
X34743226Y16527003D01*
X34743230Y16527000D01*
X34874250Y16439453D01*
X34874259Y16439449D01*
X35019851Y16379143D01*
X35019850Y16379143D01*
X35103199Y16362565D01*
X35103200Y16362565D01*
X35103200Y16888592D01*
X35137404Y16868844D01*
X35213704Y16848400D01*
X35292696Y16848400D01*
X35368996Y16868844D01*
X35403200Y16888592D01*
X35403200Y16362565D01*
X35486548Y16379143D01*
X35632140Y16439449D01*
X35632149Y16439453D01*
X35763169Y16527000D01*
X35763173Y16527003D01*
X35874597Y16638427D01*
X35874600Y16638431D01*
X35962147Y16769451D01*
X35962151Y16769460D01*
X36022457Y16915051D01*
X36053199Y17069605D01*
X36053200Y17069608D01*
X36053200Y17548399D01*
X36053199Y17548400D01*
X35553200Y17548400D01*
X35553200Y17848400D01*
X36053199Y17848400D01*
X36076497Y17871698D01*
X36131013Y17899476D01*
X36191445Y17889905D01*
X36217067Y17868595D01*
X36218097Y17869624D01*
X36222683Y17865038D01*
X36222685Y17865035D01*
X36329835Y17757885D01*
X36329837Y17757884D01*
X36329839Y17757882D01*
X36461061Y17682121D01*
X36461059Y17682121D01*
X36461063Y17682120D01*
X36461065Y17682119D01*
X36607434Y17642900D01*
X36607436Y17642900D01*
X36758964Y17642900D01*
X36758966Y17642900D01*
X36905335Y17682119D01*
X36905337Y17682121D01*
X36905339Y17682121D01*
X37036560Y17757882D01*
X37036560Y17757883D01*
X37036565Y17757885D01*
X37143715Y17865035D01*
X37145770Y17868595D01*
X37219479Y17996261D01*
X37219479Y17996263D01*
X37219481Y17996265D01*
X37258700Y18142634D01*
X37258700Y18294166D01*
X41887700Y18294166D01*
X41887700Y18142634D01*
X41908498Y18065014D01*
X41926920Y17996261D01*
X42002681Y17865040D01*
X42002683Y17865038D01*
X42002685Y17865035D01*
X42109835Y17757885D01*
X42109837Y17757884D01*
X42109839Y17757882D01*
X42241061Y17682121D01*
X42241059Y17682121D01*
X42241063Y17682120D01*
X42241065Y17682119D01*
X42387434Y17642900D01*
X42387436Y17642900D01*
X42538964Y17642900D01*
X42538966Y17642900D01*
X42685335Y17682119D01*
X42816565Y17757885D01*
X42923715Y17865035D01*
X42923716Y17865038D01*
X42928303Y17869624D01*
X42930019Y17867908D01*
X42971746Y17896608D01*
X43032911Y17895029D01*
X43069902Y17871699D01*
X43093201Y17848400D01*
X43593200Y17848400D01*
X43593200Y17548400D01*
X43093201Y17548400D01*
X43093200Y17548399D01*
X43093200Y17069605D01*
X43123942Y16915051D01*
X43184248Y16769460D01*
X43184252Y16769451D01*
X43271799Y16638431D01*
X43271802Y16638427D01*
X43383226Y16527003D01*
X43383230Y16527000D01*
X43514250Y16439453D01*
X43514259Y16439449D01*
X43659851Y16379143D01*
X43659850Y16379143D01*
X43743199Y16362565D01*
X43743200Y16362565D01*
X43743200Y16888592D01*
X43777404Y16868844D01*
X43853704Y16848400D01*
X43932696Y16848400D01*
X44008996Y16868844D01*
X44043200Y16888592D01*
X44043200Y16362565D01*
X44126548Y16379143D01*
X44272140Y16439449D01*
X44272149Y16439453D01*
X44403169Y16527000D01*
X44403173Y16527003D01*
X44514597Y16638427D01*
X44514600Y16638431D01*
X44602147Y16769451D01*
X44602151Y16769460D01*
X44662457Y16915051D01*
X44693199Y17069605D01*
X44693200Y17069608D01*
X44693200Y17548399D01*
X44693199Y17548400D01*
X44193200Y17548400D01*
X44193200Y17848400D01*
X44693199Y17848400D01*
X44693200Y17848401D01*
X44693200Y18327193D01*
X44693199Y18327196D01*
X44662457Y18481750D01*
X44602151Y18627341D01*
X44602147Y18627350D01*
X44514600Y18758370D01*
X44514597Y18758374D01*
X44403173Y18869798D01*
X44403169Y18869801D01*
X44272149Y18957348D01*
X44272140Y18957352D01*
X44126554Y19017656D01*
X44126550Y19017657D01*
X44043200Y19034237D01*
X44043200Y18508209D01*
X44008996Y18527956D01*
X43932696Y18548400D01*
X43853704Y18548400D01*
X43777404Y18527956D01*
X43743200Y18508209D01*
X43743200Y19034237D01*
X43659849Y19017657D01*
X43659845Y19017656D01*
X43514259Y18957352D01*
X43514250Y18957348D01*
X43383230Y18869801D01*
X43383226Y18869798D01*
X43271802Y18758374D01*
X43271799Y18758370D01*
X43184252Y18627350D01*
X43184248Y18627341D01*
X43138834Y18517702D01*
X43099097Y18471176D01*
X43039602Y18456893D01*
X42983074Y18480308D01*
X42961634Y18506087D01*
X42923715Y18571765D01*
X42816565Y18678915D01*
X42816562Y18678917D01*
X42816560Y18678919D01*
X42685338Y18754680D01*
X42685340Y18754680D01*
X42628547Y18769897D01*
X42538966Y18793900D01*
X42387434Y18793900D01*
X42297852Y18769897D01*
X42241060Y18754680D01*
X42109839Y18678919D01*
X42002681Y18571761D01*
X41926920Y18440540D01*
X41906464Y18364196D01*
X41887700Y18294166D01*
X37258700Y18294166D01*
X37219481Y18440535D01*
X37219479Y18440538D01*
X37219479Y18440540D01*
X37143718Y18571761D01*
X37143716Y18571763D01*
X37143715Y18571765D01*
X37036565Y18678915D01*
X37036562Y18678917D01*
X37036560Y18678919D01*
X36905338Y18754680D01*
X36905340Y18754680D01*
X36848547Y18769897D01*
X36758966Y18793900D01*
X36607434Y18793900D01*
X36517852Y18769897D01*
X36461060Y18754680D01*
X36329839Y18678919D01*
X36222683Y18571763D01*
X36184765Y18506087D01*
X36139295Y18465147D01*
X36078445Y18458752D01*
X36025457Y18489345D01*
X36007565Y18517703D01*
X35962153Y18627338D01*
X35962147Y18627350D01*
X35874600Y18758370D01*
X35874597Y18758374D01*
X35763173Y18869798D01*
X35763169Y18869801D01*
X35632149Y18957348D01*
X35632140Y18957352D01*
X35486554Y19017656D01*
X35486550Y19017657D01*
X35403200Y19034237D01*
X35403200Y18508209D01*
X35368996Y18527956D01*
X35292696Y18548400D01*
X35213704Y18548400D01*
X35137404Y18527956D01*
X35103200Y18508209D01*
X35103200Y19034237D01*
X35019849Y19017657D01*
X35019845Y19017656D01*
X34874259Y18957352D01*
X34874250Y18957348D01*
X34743230Y18869801D01*
X34743226Y18869798D01*
X34631802Y18758374D01*
X34631799Y18758370D01*
X34544252Y18627350D01*
X34544248Y18627341D01*
X34483942Y18481750D01*
X34453200Y18327196D01*
X28591575Y18327196D01*
X28568404Y18443684D01*
X28495246Y18620304D01*
X28389037Y18779258D01*
X28253858Y18914437D01*
X28094904Y19020646D01*
X28094903Y19020647D01*
X28094901Y19020648D01*
X27918284Y19093804D01*
X27730788Y19131100D01*
X27730786Y19131100D01*
X27539614Y19131100D01*
X27539611Y19131100D01*
X27352116Y19093804D01*
X27352114Y19093804D01*
X27175498Y19020648D01*
X27016545Y18914440D01*
X26881360Y18779255D01*
X26775152Y18620302D01*
X26701996Y18443686D01*
X26701996Y18443684D01*
X26664700Y18256189D01*
X26212800Y18256189D01*
X26212800Y20791111D01*
X26485200Y20791111D01*
X26485200Y20610090D01*
X26513516Y20431311D01*
X26569450Y20259160D01*
X26651630Y20097872D01*
X26722624Y20000158D01*
X27191528Y20469064D01*
X27235101Y20393593D01*
X27328193Y20300501D01*
X27403660Y20256930D01*
X26934756Y19788026D01*
X26934756Y19788025D01*
X27032463Y19717036D01*
X27032469Y19717032D01*
X27193759Y19634851D01*
X27365910Y19578917D01*
X27544690Y19550600D01*
X27725710Y19550600D01*
X27904489Y19578917D01*
X28076640Y19634851D01*
X28237930Y19717032D01*
X28237935Y19717036D01*
X28335642Y19788025D01*
X28335642Y19788026D01*
X27866738Y20256930D01*
X27942207Y20300501D01*
X28035299Y20393593D01*
X28078870Y20469062D01*
X28547774Y20000158D01*
X28547775Y20000158D01*
X28618764Y20097865D01*
X28618768Y20097870D01*
X28700949Y20259160D01*
X28756883Y20431311D01*
X28785200Y20610090D01*
X28785200Y20791111D01*
X28756883Y20969890D01*
X28700949Y21142041D01*
X28618768Y21303331D01*
X28618764Y21303337D01*
X28547775Y21401044D01*
X28547774Y21401044D01*
X28078870Y20932140D01*
X28035299Y21007607D01*
X27942207Y21100699D01*
X27866736Y21144272D01*
X28335642Y21613176D01*
X28237928Y21684170D01*
X28204510Y21701197D01*
X28076640Y21766350D01*
X27904489Y21822284D01*
X27725710Y21850600D01*
X27544690Y21850600D01*
X27365910Y21822284D01*
X27193759Y21766350D01*
X27032469Y21684169D01*
X27032465Y21684167D01*
X26934756Y21613177D01*
X27403661Y21144272D01*
X27328193Y21100699D01*
X27235101Y21007607D01*
X27191528Y20932139D01*
X26722623Y21401044D01*
X26651633Y21303335D01*
X26651631Y21303331D01*
X26569450Y21142041D01*
X26513516Y20969890D01*
X26485200Y20791111D01*
X26212800Y20791111D01*
X26212800Y22377196D01*
X34453200Y22377196D01*
X34453200Y22048401D01*
X34453201Y22048400D01*
X34953200Y22048400D01*
X34953200Y21748400D01*
X34453201Y21748400D01*
X34453200Y21748399D01*
X34453200Y21419605D01*
X34483942Y21265051D01*
X34544248Y21119460D01*
X34544252Y21119451D01*
X34631799Y20988431D01*
X34631802Y20988427D01*
X34743226Y20877003D01*
X34743230Y20877000D01*
X34874250Y20789453D01*
X34874259Y20789449D01*
X35019851Y20729143D01*
X35019850Y20729143D01*
X35103199Y20712565D01*
X35103200Y20712565D01*
X35103200Y21238592D01*
X35137404Y21218844D01*
X35213704Y21198400D01*
X35292696Y21198400D01*
X35368996Y21218844D01*
X35403200Y21238592D01*
X35403200Y20712565D01*
X35486548Y20729143D01*
X35632140Y20789449D01*
X35632149Y20789453D01*
X35763169Y20877000D01*
X35763173Y20877003D01*
X35874597Y20988427D01*
X35874600Y20988431D01*
X35962147Y21119451D01*
X35962151Y21119460D01*
X36022457Y21265051D01*
X36053199Y21419605D01*
X36053200Y21419608D01*
X36053200Y21748399D01*
X36053199Y21748400D01*
X35553200Y21748400D01*
X35553200Y22048400D01*
X36053199Y22048400D01*
X36053200Y22048401D01*
X36053200Y22377193D01*
X36053199Y22377196D01*
X43093200Y22377196D01*
X43093200Y22048401D01*
X43093201Y22048400D01*
X43593200Y22048400D01*
X43593200Y21748400D01*
X43093201Y21748400D01*
X43093200Y21748399D01*
X43093200Y21419605D01*
X43123942Y21265051D01*
X43184248Y21119460D01*
X43184252Y21119451D01*
X43271799Y20988431D01*
X43271802Y20988427D01*
X43383226Y20877003D01*
X43383230Y20877000D01*
X43514250Y20789453D01*
X43514259Y20789449D01*
X43659851Y20729143D01*
X43659850Y20729143D01*
X43743199Y20712565D01*
X43743200Y20712565D01*
X43743200Y21238592D01*
X43777404Y21218844D01*
X43853704Y21198400D01*
X43932696Y21198400D01*
X44008996Y21218844D01*
X44043200Y21238592D01*
X44043200Y20712565D01*
X44126548Y20729143D01*
X44272140Y20789449D01*
X44272149Y20789453D01*
X44403169Y20877000D01*
X44403173Y20877003D01*
X44460333Y20934163D01*
X49465100Y20934163D01*
X49465100Y20823438D01*
X49493756Y20716494D01*
X49493758Y20716490D01*
X49549113Y20620612D01*
X49549115Y20620610D01*
X49549117Y20620607D01*
X49627407Y20542317D01*
X49627409Y20542316D01*
X49627411Y20542314D01*
X49723289Y20486959D01*
X49723293Y20486957D01*
X49830237Y20458301D01*
X49830239Y20458300D01*
X49830240Y20458300D01*
X49940961Y20458300D01*
X49940961Y20458301D01*
X50047907Y20486957D01*
X50115305Y20525870D01*
X50143788Y20542314D01*
X50143788Y20542315D01*
X50143793Y20542317D01*
X50222083Y20620607D01*
X50255736Y20678897D01*
X50301205Y20719836D01*
X50362055Y20726232D01*
X50415043Y20695639D01*
X50427206Y20678899D01*
X50463517Y20616007D01*
X50541807Y20537717D01*
X50541809Y20537716D01*
X50541811Y20537714D01*
X50637689Y20482359D01*
X50637693Y20482357D01*
X50744637Y20453701D01*
X50744639Y20453700D01*
X50744640Y20453700D01*
X50855361Y20453700D01*
X50855361Y20453701D01*
X50962307Y20482357D01*
X51058193Y20537717D01*
X51136483Y20616007D01*
X51173524Y20680163D01*
X56627900Y20680163D01*
X56627900Y20569438D01*
X56656556Y20462494D01*
X56656558Y20462490D01*
X56711913Y20366612D01*
X56711915Y20366610D01*
X56711917Y20366607D01*
X56790207Y20288317D01*
X56790209Y20288316D01*
X56790211Y20288314D01*
X56886089Y20232959D01*
X56886093Y20232957D01*
X56993037Y20204301D01*
X56993039Y20204300D01*
X56993040Y20204300D01*
X57103761Y20204300D01*
X57103761Y20204301D01*
X57210707Y20232957D01*
X57306593Y20288317D01*
X57384883Y20366607D01*
X57440243Y20462493D01*
X57468900Y20569440D01*
X57468900Y20680160D01*
X57440243Y20787107D01*
X57438889Y20789453D01*
X57384886Y20882989D01*
X57384884Y20882991D01*
X57384883Y20882993D01*
X57306593Y20961283D01*
X57306590Y20961285D01*
X57306588Y20961287D01*
X57273547Y20980363D01*
X67956300Y20980363D01*
X67956300Y20869638D01*
X67984956Y20762694D01*
X67984958Y20762690D01*
X68040313Y20666812D01*
X68040315Y20666810D01*
X68040317Y20666807D01*
X68118607Y20588517D01*
X68118609Y20588516D01*
X68118611Y20588514D01*
X68214489Y20533159D01*
X68214493Y20533157D01*
X68321437Y20504501D01*
X68321439Y20504500D01*
X68321440Y20504500D01*
X68432161Y20504500D01*
X68432161Y20504501D01*
X68539107Y20533157D01*
X68634993Y20588517D01*
X68713283Y20666807D01*
X68768643Y20762693D01*
X68797300Y20869640D01*
X68797300Y20980360D01*
X68768643Y21087307D01*
X68750084Y21119452D01*
X68713286Y21183189D01*
X68713284Y21183191D01*
X68713283Y21183193D01*
X68634993Y21261483D01*
X68634990Y21261485D01*
X68634988Y21261487D01*
X68539110Y21316842D01*
X68539106Y21316844D01*
X68432162Y21345500D01*
X68432160Y21345500D01*
X68321440Y21345500D01*
X68321437Y21345500D01*
X68214493Y21316844D01*
X68214489Y21316842D01*
X68118611Y21261487D01*
X68040313Y21183189D01*
X67984958Y21087311D01*
X67984956Y21087307D01*
X67956300Y20980363D01*
X57273547Y20980363D01*
X57210710Y21016642D01*
X57210706Y21016644D01*
X57103762Y21045300D01*
X57103760Y21045300D01*
X56993040Y21045300D01*
X56993037Y21045300D01*
X56886093Y21016644D01*
X56886089Y21016642D01*
X56790211Y20961287D01*
X56711913Y20882989D01*
X56656558Y20787111D01*
X56656556Y20787107D01*
X56627900Y20680163D01*
X51173524Y20680163D01*
X51191843Y20711893D01*
X51220500Y20818840D01*
X51220500Y20929560D01*
X51191843Y21036507D01*
X51191841Y21036511D01*
X51136486Y21132389D01*
X51136484Y21132391D01*
X51136483Y21132393D01*
X51058193Y21210683D01*
X51058190Y21210685D01*
X51058188Y21210687D01*
X50962310Y21266042D01*
X50962306Y21266044D01*
X50855362Y21294700D01*
X50855360Y21294700D01*
X50744640Y21294700D01*
X50744637Y21294700D01*
X50637693Y21266044D01*
X50637689Y21266042D01*
X50541811Y21210687D01*
X50463515Y21132391D01*
X50429863Y21074105D01*
X50384393Y21033164D01*
X50323542Y21026770D01*
X50270555Y21057363D01*
X50258391Y21074105D01*
X50222083Y21136993D01*
X50143793Y21215283D01*
X50143790Y21215285D01*
X50056262Y21265820D01*
X50015322Y21311290D01*
X50008927Y21372140D01*
X50039520Y21425128D01*
X50080139Y21447182D01*
X50098707Y21452157D01*
X50194593Y21507517D01*
X50272883Y21585807D01*
X50328243Y21681693D01*
X50356900Y21788640D01*
X50356900Y21899360D01*
X50328243Y22006307D01*
X50303940Y22048401D01*
X50272886Y22102189D01*
X50272884Y22102191D01*
X50272883Y22102193D01*
X50194593Y22180483D01*
X50194590Y22180485D01*
X50194588Y22180487D01*
X50098710Y22235842D01*
X50098706Y22235844D01*
X50068719Y22243879D01*
X72003213Y22243879D01*
X72003213Y21991948D01*
X72042621Y21743133D01*
X72120472Y21503534D01*
X72215595Y21316843D01*
X72234843Y21279068D01*
X72382920Y21075257D01*
X72561057Y20897120D01*
X72764868Y20749043D01*
X72989334Y20634672D01*
X73228928Y20556823D01*
X73228929Y20556823D01*
X73228932Y20556822D01*
X73477748Y20517413D01*
X73477751Y20517413D01*
X73729678Y20517413D01*
X73978493Y20556822D01*
X73978494Y20556823D01*
X73978498Y20556823D01*
X74218092Y20634672D01*
X74442558Y20749043D01*
X74646369Y20897120D01*
X74824506Y21075257D01*
X74972583Y21279068D01*
X75086954Y21503534D01*
X75164803Y21743128D01*
X75172011Y21788638D01*
X75204213Y21991948D01*
X75204213Y22243879D01*
X75164804Y22492694D01*
X75149934Y22538460D01*
X75086954Y22732292D01*
X74972583Y22956758D01*
X74824506Y23160569D01*
X74646369Y23338706D01*
X74442558Y23486783D01*
X74442557Y23486784D01*
X74442555Y23486785D01*
X74218092Y23601154D01*
X73978493Y23679005D01*
X73729678Y23718413D01*
X73729675Y23718413D01*
X73477751Y23718413D01*
X73477748Y23718413D01*
X73228932Y23679005D01*
X72989333Y23601154D01*
X72764870Y23486785D01*
X72561058Y23338707D01*
X72382919Y23160568D01*
X72234841Y22956756D01*
X72120472Y22732293D01*
X72042621Y22492694D01*
X72003213Y22243879D01*
X50068719Y22243879D01*
X49991762Y22264500D01*
X49991760Y22264500D01*
X49881040Y22264500D01*
X49881037Y22264500D01*
X49774093Y22235844D01*
X49774089Y22235842D01*
X49678211Y22180487D01*
X49599913Y22102189D01*
X49544558Y22006311D01*
X49544556Y22006307D01*
X49515900Y21899363D01*
X49515900Y21788638D01*
X49544556Y21681694D01*
X49544558Y21681690D01*
X49599913Y21585812D01*
X49599915Y21585810D01*
X49599917Y21585807D01*
X49678207Y21507517D01*
X49678209Y21507516D01*
X49678211Y21507514D01*
X49765736Y21456981D01*
X49806677Y21411512D01*
X49813073Y21350661D01*
X49782480Y21297673D01*
X49741862Y21275619D01*
X49723290Y21270643D01*
X49723289Y21270642D01*
X49627411Y21215287D01*
X49549113Y21136989D01*
X49493758Y21041111D01*
X49493756Y21041107D01*
X49465100Y20934163D01*
X44460333Y20934163D01*
X44514596Y20988426D01*
X44519423Y20995649D01*
X44519424Y20995651D01*
X44519425Y20995651D01*
X44602147Y21119452D01*
X44602151Y21119460D01*
X44662457Y21265051D01*
X44693199Y21419605D01*
X44693200Y21419608D01*
X44693200Y21748399D01*
X44693199Y21748400D01*
X44193200Y21748400D01*
X44193200Y22048400D01*
X44693199Y22048400D01*
X44693200Y22048401D01*
X44693200Y22377193D01*
X44693199Y22377196D01*
X44662457Y22531750D01*
X44602151Y22677341D01*
X44602147Y22677350D01*
X44514600Y22808370D01*
X44514597Y22808374D01*
X44403173Y22919798D01*
X44403169Y22919801D01*
X44272149Y23007348D01*
X44272140Y23007352D01*
X44126554Y23067656D01*
X44126550Y23067657D01*
X44043200Y23084237D01*
X44043200Y22558209D01*
X44008996Y22577956D01*
X43932696Y22598400D01*
X43853704Y22598400D01*
X43777404Y22577956D01*
X43743200Y22558209D01*
X43743200Y23084237D01*
X43659849Y23067657D01*
X43659845Y23067656D01*
X43514259Y23007352D01*
X43514250Y23007348D01*
X43383230Y22919801D01*
X43383226Y22919798D01*
X43271802Y22808374D01*
X43271799Y22808370D01*
X43184252Y22677350D01*
X43184248Y22677341D01*
X43123942Y22531750D01*
X43093200Y22377196D01*
X36053199Y22377196D01*
X36022457Y22531750D01*
X35962151Y22677341D01*
X35962147Y22677350D01*
X35874600Y22808370D01*
X35874597Y22808374D01*
X35763173Y22919798D01*
X35763169Y22919801D01*
X35632149Y23007348D01*
X35632140Y23007352D01*
X35486554Y23067656D01*
X35486550Y23067657D01*
X35403200Y23084237D01*
X35403200Y22558209D01*
X35368996Y22577956D01*
X35292696Y22598400D01*
X35213704Y22598400D01*
X35137404Y22577956D01*
X35103200Y22558209D01*
X35103200Y23084237D01*
X35019849Y23067657D01*
X35019845Y23067656D01*
X34874259Y23007352D01*
X34874250Y23007348D01*
X34743230Y22919801D01*
X34743226Y22919798D01*
X34631802Y22808374D01*
X34631799Y22808370D01*
X34544252Y22677350D01*
X34544248Y22677341D01*
X34483942Y22531750D01*
X34453200Y22377196D01*
X26212800Y22377196D01*
X26212800Y24695720D01*
X26231707Y24753911D01*
X26281207Y24789875D01*
X26311793Y24794719D01*
X73758663Y24794757D01*
X73764642Y24794576D01*
G37*
G04 #@! TD.AperFunction*
G04 #@! TD*
M02*
